M48
;GenerationSoftware,Autodesk,EAGLE,9.6.2*%
;CreationDate,2025-01-24T14:49:15Z*%
FMAT,2
ICI,OFF
METRIC,TZ,000.000
T8C0.200
T7C0.600
T6C0.650
T5C0.800
T4C0.900
T3C1.000
T2C3.300
T1C4.550
%
G90
M71
T1
X29220Y4460
X29220Y11660
T2
X36200Y4500
X28500Y47200
X72500Y3200
X60400Y22600
T3
X72500Y22400
X72500Y19900
X72500Y17400
X4000Y8750
X4000Y6250
X4000Y3750
X4000Y21250
X4000Y18750
X4000Y16250
X4000Y33750
X4000Y31250
X4000Y28750
X4000Y46250
X4000Y43750
X4000Y41250
X68570Y3350
X66030Y3350
X63490Y3350
X60950Y3350
X58410Y3350
X55870Y3350
X53330Y3350
X50790Y3350
X48250Y3350
X45710Y3350
X43170Y3350
X40630Y3350
T4
X40700Y9650
X47400Y12150
X47400Y9650
X40700Y12150
T5
X73770Y26540
X71770Y26540
X69770Y26540
X67770Y26540
X63770Y26540
X61770Y26540
X59770Y26540
X57770Y26540
X55770Y26540
X55770Y48540
X57770Y48540
X59770Y48540
X61770Y48540
X63770Y48540
X65770Y48540
X67770Y48540
X69770Y48540
X71770Y48540
X73770Y48540
X65770Y26540
T6
X35450Y44950
X41230Y44950
T7
X42660Y44450
X42660Y48630
X34020Y48630
X34020Y44450
T8
X31800Y29200
X70100Y43600
X17900Y37000
X13200Y43900
X19800Y49000
X62900Y43700
X3400Y25200
X2100Y26400
X17900Y36100
X13200Y45000
X18500Y49400
X35400Y48600
X44100Y48000
X60600Y46800
X44000Y27100
X44000Y28000
X44000Y28900
X44000Y29800
X17800Y22800
X16300Y3100
X16900Y15600
X18100Y11500
X6900Y38800
X7900Y38800
X8900Y38800
X40800Y42700
X36800Y41800
X32000Y43200
X31100Y24800
X21800Y48200
X29600Y42300
X31300Y21000
X27600Y32600
X26190Y19170
X26500Y32900
X2000Y38700
X6900Y26500
X5000Y14000
X3900Y2100
X19200Y25100
X60700Y32900
X51000Y24800
X47800Y20600
X49100Y15400
X39700Y20100
X22400Y25100
X31100Y27000
X33000Y22700
X2500Y6200
X2500Y18700
X52000Y45400
X52900Y45400
X2600Y32100
X2500Y43800
X43400Y13400
X53800Y45400
X34300Y22000
X49200Y47800
X45000Y36400
X25410Y38310
X38300Y18600
X42000Y14700
X67600Y44100
X60600Y45800
X51900Y38400
X53400Y29800
X62800Y40600
X57500Y38500
X48800Y6300
X14300Y45100
X4300Y47900
X16400Y45100
X4300Y35400
X9000Y36600
X4900Y24400
X6500Y12200
X38710Y31520
X5000Y12900
X42800Y37700
X56300Y45400
X34900Y13200
X28800Y32500
X42500Y21300
X48200Y16000
X34600Y10000
X44300Y12700
X47000Y13600
X22800Y37600
X37000Y19300
X33500Y29400
X63500Y7100
X52100Y6400
X29500Y44100
X50000Y26300
X50400Y47800
X21840Y26120
X16400Y43300
X33400Y2000
X32100Y35800
X40100Y25900
X42200Y34900
X33400Y36300
X31600Y40500
X45200Y29800
X57300Y33800
X26300Y7900
X45700Y18600
X42100Y22400
X40300Y48500
X17800Y23800
X20300Y27300
X33700Y25900
X35200Y24600
X41200Y21300
X38400Y20200
X14000Y37800
X16520Y18800
X16430Y32280
X16700Y25300
X35800Y25400
M30