M48
;GenerationSoftware,Autodesk,EAGLE,9.6.2*%
;CreationDate,2024-10-04T15:38:06Z*%
FMAT,2
ICI,OFF
METRIC,TZ,000.000
T10C0.200
T9C0.600
T8C0.650
T7C0.800
T6C1.000
T5C1.050
T4C1.200
T3C1.280
T2C3.000
T1C4.550
%
G90
M71
T1
X92910Y49420
X100110Y49420
T2
X98810Y59390
X78800Y95590
X140720Y68590
T3
X145210Y57800
X140410Y62600
X145210Y62600
X140410Y57800
T4
X106430Y48470
X118760Y48470
X139750Y48470
X137210Y48470
X143330Y48470
X145870Y48470
X127430Y48470
X124890Y48470
X133620Y48470
X131080Y48470
X121300Y48470
X115110Y48470
X112570Y48470
X108970Y48470
T5
X93095Y94740
X93095Y97240
X86595Y94730
X86595Y97230
T6
X64760Y62430
X64760Y70000
X64760Y72500
X64760Y75000
X64760Y80050
X64760Y82550
X64760Y85050
X64760Y64930
X64760Y49820
X142810Y60200
X64760Y52320
X64760Y54820
X64760Y90060
X64760Y92560
X64760Y95060
X64760Y59930
T7
X159630Y98400
X157630Y98400
X155630Y98400
X153630Y98400
X151630Y98400
X149630Y98400
X147630Y98400
X145630Y98400
X143630Y98400
X141630Y98400
X141630Y76400
X143630Y76400
X145630Y76400
X147630Y76400
X149630Y76400
X151630Y76400
X153630Y76400
X155630Y76400
X157630Y76400
X159630Y76400
T8
X127030Y94840
X121250Y94840
T9
X119820Y98520
X119820Y94340
X128460Y94340
X128460Y98520
T10
X97300Y76600
X69900Y47800
X69900Y59100
X69900Y70300
X69900Y81400
X79100Y90200
X78800Y82100
X125900Y85800
X129500Y95600
X117700Y75800
X122300Y83500
X124500Y71500
X128000Y75800
X103800Y55500
X105400Y64300
X105600Y69700
X130500Y80500
X118700Y88600
X135600Y53000
X134300Y56700
X107700Y79700
X112700Y91100
X115100Y88500
X109700Y79600
X114300Y67600
X113100Y68800
X115700Y66300
X117300Y67400
X107500Y69600
X69800Y52900
X69900Y64200
X138200Y90200
X138200Y89200
X69900Y54600
X90700Y59000
X70000Y77100
X69800Y88200
X69900Y75400
X69900Y86500
X69900Y55900
X70000Y78500
X135400Y48500
X141500Y48400
X69900Y67200
X123100Y48500
X129300Y48400
X69700Y89400
X107000Y60100
X140700Y92400
X139600Y92400
X125900Y86700
X120000Y52000
X128700Y65400
X129800Y66800
X128000Y69000
X119000Y66800
X127600Y66400
X104200Y65600
X116300Y61500
X69900Y65900
X127100Y90400
X133200Y55700
X91900Y62000
X89400Y53500
X116200Y72300
X74500Y90700
X117900Y68500
X132600Y52600
X130500Y79500
X93400Y72000
X89000Y60700
X78000Y52300
X89800Y54600
X120000Y46400
X118500Y51600
X122300Y84500
X124500Y72300
X112800Y59400
X113400Y54000
X95400Y96000
X132800Y79100
X130500Y78400
X90700Y69600
X90700Y64300
X117100Y73900
X117900Y72600
X89600Y69600
X89600Y64900
X90100Y61200
X89200Y59000
X80900Y66700
X82500Y66700
X120700Y74600
X147200Y72700
X91900Y63100
X93800Y63100
X112200Y57300
X81100Y68500
X80200Y77800
X81300Y79700
X97300Y52700
X121625Y78105
X124175Y78105
X122900Y78105
X121625Y76830
X122900Y76830
X124175Y76830
X121625Y75555
X122900Y75555
X124175Y75555
X130190Y88030
X118300Y79800
X147200Y70900
X136500Y63200
X135500Y63200
X133500Y63200
X134500Y63200
X89200Y62500
X139200Y52700
X135600Y58700
X113600Y79500
X115500Y79900
X69900Y72000
X69900Y83200
X69900Y60800
X69910Y49550
X99500Y72900
X113400Y56600
X119100Y92300
X127800Y92500
X115500Y82800
X117400Y89500
X122190Y87470
X116700Y88500
X99500Y73900
X91700Y91600
X90200Y82300
M30