M48
;GenerationSoftware,Autodesk,EAGLE,9.6.2*%
;CreationDate,2024-09-01T12:05:02Z*%
FMAT,2
ICI,OFF
METRIC,TZ,000.000
T9C0.350
T8C0.600
T7C0.650
T6C1.000
T5C1.050
T4C1.200
T3C2.540
T2C3.000
T1C4.550
%
G90
M71
T1
X63530Y43820
X70730Y43820
T2
X73600Y52800
X81300Y85700
X33000Y43200
X21900Y91000
T3
X61960Y50960
X66960Y50960
T4
X18470Y99000
X34530Y99000
X22130Y99000
X24670Y99000
X28330Y99000
X30870Y99000
X9730Y99000
X12270Y99000
X15930Y99000
X40730Y99000
X43270Y99000
X37070Y99000
T5
X70185Y62900
X76585Y65400
X76585Y62900
X70185Y65400
T6
X16400Y48570
X16400Y51070
X10000Y57040
X10000Y59540
X10000Y62040
X16400Y57040
X16400Y59540
X16400Y62040
X15050Y89800
X12550Y89800
X10050Y89800
X20330Y40830
X22830Y40830
X25330Y40830
X10000Y68010
X10000Y70510
X10000Y73010
X16400Y68010
X16400Y70510
X16400Y73010
X10000Y78980
X10000Y81480
X16400Y78980
X16400Y81480
X16400Y83980
X28000Y94000
X10040Y40830
X12540Y40830
X10000Y83980
X15040Y40830
X10000Y46070
X10000Y48570
X10000Y51070
X16400Y46070
T7
X57490Y96930
X51710Y96930
T8
X58920Y96430
X58920Y100610
X50280Y100610
X50280Y96430
T9
X83500Y94600
X59900Y85800
X58800Y87400
X29000Y57200
X28900Y67900
X28900Y78700
X28600Y46300
X42700Y94400
X39300Y87350
X41100Y89100
X66200Y59700
X60000Y61700
X26600Y52200
X21400Y49800
X28600Y64000
X21500Y60700
X28900Y74400
X21500Y71500
X28400Y85400
X21500Y82000
X17800Y71400
X18200Y69000
X18700Y71400
X19200Y69000
X19700Y71600
X65600Y87900
X65000Y87100
X64300Y86400
X64300Y85400
X74200Y100600
X49300Y42900
X49300Y41800
X50900Y89800
X25400Y94800
X37200Y75900
X42200Y75900
X37200Y63200
X57400Y47700
X55800Y78800
X28800Y49500
X29000Y59900
X29000Y70700
X28800Y81800
X55800Y79800
X34700Y86800
X19600Y77800
X18800Y76100
X15600Y65800
X20400Y66000
X19100Y43400
X15300Y44300
X69000Y71000
X55500Y67300
X54600Y67300
X56100Y66200
X32300Y97900
X45700Y97600
X68200Y99300
X53900Y81200
X56000Y81200
X51100Y80000
X54200Y74100
X55800Y76270
X49900Y88800
X66400Y98500
X54400Y72400
X57900Y93100
X66600Y96800
X46800Y70900
X38400Y52600
X45800Y52700
X69000Y69400
X78200Y70500
X62900Y72200
X43100Y63100
X41800Y61000
X40600Y65800
X42000Y86250
X46400Y83200
X73800Y93600
X78400Y92800
X75300Y96500
X86700Y76700
X45510Y78220
X45510Y79420
X44410Y78220
X44410Y79420
X43210Y78220
X43210Y79420
X83800Y76300
X75900Y77600
X59500Y72700
X46800Y70000
X53800Y52800
X76900Y70500
X75500Y70300
X42200Y59500
X28700Y86600
X31900Y88500
X51500Y61400
X41900Y70400
X44700Y65700
X23100Y65100
X58100Y52800
X78200Y74300
X48540Y61080
X48800Y72700
X21700Y83450
X37100Y83200
X42900Y74100
X23520Y78200
X66600Y90100
X51200Y69100
X53400Y72100
X53000Y81200
X54100Y76400
X55000Y81200
X45700Y88700
X36890Y90610
X36890Y91810
X37990Y90610
X37990Y91810
X39190Y90610
X39190Y91810
X62760Y57290
X61560Y57290
X62760Y58390
X61560Y58390
X62760Y59590
X61560Y59590
X54730Y62590
X53530Y62590
X54730Y63690
X53530Y63690
X54730Y64890
X53530Y64890
X24900Y47090
X26100Y47090
X24900Y48190
X26100Y48190
X52600Y93000
X26100Y49390
X24900Y58090
X26100Y58090
X24900Y59190
X26100Y59190
X24900Y60390
X26100Y60390
X24900Y68890
X26100Y68890
X24900Y69990
X26100Y69990
X24900Y71190
X26100Y71190
X24900Y79570
X26100Y79570
X24900Y80670
X26100Y80670
X24900Y81870
X26100Y81870
X52235Y79985
X54785Y79985
X53510Y79985
X52235Y78710
X53510Y78710
X54785Y78710
X52235Y77435
X53510Y77435
X54785Y77435
X56700Y93500
X37600Y95800
X35800Y85100
X65210Y95260
X24900Y49390
X65210Y92260
X63710Y92260
X63710Y93760
X63710Y95260
X62210Y95260
X62210Y93760
X62210Y92260
X37400Y60700
X49200Y74800
X40400Y59800
X43800Y62500
X48100Y71100
X19800Y72500
X61500Y82800
X61500Y81700
X61800Y76200
X57160Y74940
X55800Y77900
X55600Y55800
X62900Y89300
X53100Y55800
X64000Y88700
X52200Y55800
X37000Y53800
X8200Y90600
X59700Y87400
X59000Y85700
X54700Y55800
X61800Y89100
X65500Y98500
X64600Y98500
X80700Y96100
X65210Y93760
M30