G04 EAGLE Gerber RS-274X export*
G75*
%MOMM*%
%FSLAX34Y34*%
%LPD*%
%IN*%
%IPPOS*%
%AMOC8*
5,1,8,0,0,1.08239X$1,22.5*%
G01*
%ADD10C,0.254000*%


D10*
X72000Y370000D02*
X909000Y370000D01*
X909000Y1027000D01*
X72000Y1027000D01*
X72000Y370000D01*
X586200Y958800D02*
X586211Y958539D01*
X586246Y958279D01*
X586302Y958024D01*
X586381Y957774D01*
X586481Y957532D01*
X586602Y957300D01*
X586743Y957079D01*
X586902Y956872D01*
X587079Y956679D01*
X587272Y956502D01*
X587479Y956343D01*
X587700Y956202D01*
X587932Y956081D01*
X588174Y955981D01*
X588424Y955902D01*
X588679Y955846D01*
X588939Y955811D01*
X589200Y955800D01*
X589461Y955811D01*
X589721Y955846D01*
X589976Y955902D01*
X590226Y955981D01*
X590468Y956081D01*
X590700Y956202D01*
X590921Y956343D01*
X591128Y956502D01*
X591321Y956679D01*
X591498Y956872D01*
X591657Y957079D01*
X591798Y957300D01*
X591919Y957532D01*
X592019Y957774D01*
X592098Y958024D01*
X592154Y958279D01*
X592189Y958539D01*
X592200Y958800D01*
X592200Y969800D01*
X592189Y970061D01*
X592154Y970321D01*
X592098Y970576D01*
X592019Y970826D01*
X591919Y971068D01*
X591798Y971300D01*
X591657Y971521D01*
X591498Y971728D01*
X591321Y971921D01*
X591128Y972098D01*
X590921Y972257D01*
X590700Y972398D01*
X590468Y972519D01*
X590226Y972619D01*
X589976Y972698D01*
X589721Y972754D01*
X589461Y972789D01*
X589200Y972800D01*
X588939Y972789D01*
X588679Y972754D01*
X588424Y972698D01*
X588174Y972619D01*
X587932Y972519D01*
X587700Y972398D01*
X587479Y972257D01*
X587272Y972098D01*
X587079Y971921D01*
X586902Y971728D01*
X586743Y971521D01*
X586602Y971300D01*
X586481Y971068D01*
X586381Y970826D01*
X586302Y970576D01*
X586246Y970321D01*
X586211Y970061D01*
X586200Y969800D01*
X586200Y958800D01*
X499800Y958800D02*
X499811Y958539D01*
X499846Y958279D01*
X499902Y958024D01*
X499981Y957774D01*
X500081Y957532D01*
X500202Y957300D01*
X500343Y957079D01*
X500502Y956872D01*
X500679Y956679D01*
X500872Y956502D01*
X501079Y956343D01*
X501300Y956202D01*
X501532Y956081D01*
X501774Y955981D01*
X502024Y955902D01*
X502279Y955846D01*
X502539Y955811D01*
X502800Y955800D01*
X503061Y955811D01*
X503321Y955846D01*
X503576Y955902D01*
X503826Y955981D01*
X504068Y956081D01*
X504300Y956202D01*
X504521Y956343D01*
X504728Y956502D01*
X504921Y956679D01*
X505098Y956872D01*
X505257Y957079D01*
X505398Y957300D01*
X505519Y957532D01*
X505619Y957774D01*
X505698Y958024D01*
X505754Y958279D01*
X505789Y958539D01*
X505800Y958800D01*
X505800Y969800D01*
X505789Y970061D01*
X505754Y970321D01*
X505698Y970576D01*
X505619Y970826D01*
X505519Y971068D01*
X505398Y971300D01*
X505257Y971521D01*
X505098Y971728D01*
X504921Y971921D01*
X504728Y972098D01*
X504521Y972257D01*
X504300Y972398D01*
X504068Y972519D01*
X503826Y972619D01*
X503576Y972698D01*
X503321Y972754D01*
X503061Y972789D01*
X502800Y972800D01*
X502539Y972789D01*
X502279Y972754D01*
X502024Y972698D01*
X501774Y972619D01*
X501532Y972519D01*
X501300Y972398D01*
X501079Y972257D01*
X500872Y972098D01*
X500679Y971921D01*
X500502Y971728D01*
X500343Y971521D01*
X500202Y971300D01*
X500081Y971068D01*
X499981Y970826D01*
X499902Y970576D01*
X499846Y970321D01*
X499811Y970061D01*
X499800Y969800D01*
X499800Y958800D01*
X499800Y1003100D02*
X499811Y1002839D01*
X499846Y1002579D01*
X499902Y1002324D01*
X499981Y1002074D01*
X500081Y1001832D01*
X500202Y1001600D01*
X500343Y1001379D01*
X500502Y1001172D01*
X500679Y1000979D01*
X500872Y1000802D01*
X501079Y1000643D01*
X501300Y1000502D01*
X501532Y1000381D01*
X501774Y1000281D01*
X502024Y1000202D01*
X502279Y1000146D01*
X502539Y1000111D01*
X502800Y1000100D01*
X503061Y1000111D01*
X503321Y1000146D01*
X503576Y1000202D01*
X503826Y1000281D01*
X504068Y1000381D01*
X504300Y1000502D01*
X504521Y1000643D01*
X504728Y1000802D01*
X504921Y1000979D01*
X505098Y1001172D01*
X505257Y1001379D01*
X505398Y1001600D01*
X505519Y1001832D01*
X505619Y1002074D01*
X505698Y1002324D01*
X505754Y1002579D01*
X505789Y1002839D01*
X505800Y1003100D01*
X505800Y1009100D01*
X505789Y1009361D01*
X505754Y1009621D01*
X505698Y1009876D01*
X505619Y1010126D01*
X505519Y1010368D01*
X505398Y1010600D01*
X505257Y1010821D01*
X505098Y1011028D01*
X504921Y1011221D01*
X504728Y1011398D01*
X504521Y1011557D01*
X504300Y1011698D01*
X504068Y1011819D01*
X503826Y1011919D01*
X503576Y1011998D01*
X503321Y1012054D01*
X503061Y1012089D01*
X502800Y1012100D01*
X502539Y1012089D01*
X502279Y1012054D01*
X502024Y1011998D01*
X501774Y1011919D01*
X501532Y1011819D01*
X501300Y1011698D01*
X501079Y1011557D01*
X500872Y1011398D01*
X500679Y1011221D01*
X500502Y1011028D01*
X500343Y1010821D01*
X500202Y1010600D01*
X500081Y1010368D01*
X499981Y1010126D01*
X499902Y1009876D01*
X499846Y1009621D01*
X499811Y1009361D01*
X499800Y1009100D01*
X499800Y1003100D01*
X586200Y1003100D02*
X586211Y1002839D01*
X586246Y1002579D01*
X586302Y1002324D01*
X586381Y1002074D01*
X586481Y1001832D01*
X586602Y1001600D01*
X586743Y1001379D01*
X586902Y1001172D01*
X587079Y1000979D01*
X587272Y1000802D01*
X587479Y1000643D01*
X587700Y1000502D01*
X587932Y1000381D01*
X588174Y1000281D01*
X588424Y1000202D01*
X588679Y1000146D01*
X588939Y1000111D01*
X589200Y1000100D01*
X589461Y1000111D01*
X589721Y1000146D01*
X589976Y1000202D01*
X590226Y1000281D01*
X590468Y1000381D01*
X590700Y1000502D01*
X590921Y1000643D01*
X591128Y1000802D01*
X591321Y1000979D01*
X591498Y1001172D01*
X591657Y1001379D01*
X591798Y1001600D01*
X591919Y1001832D01*
X592019Y1002074D01*
X592098Y1002324D01*
X592154Y1002579D01*
X592189Y1002839D01*
X592200Y1003100D01*
X592200Y1009100D01*
X592189Y1009361D01*
X592154Y1009621D01*
X592098Y1009876D01*
X592019Y1010126D01*
X591919Y1010368D01*
X591798Y1010600D01*
X591657Y1010821D01*
X591498Y1011028D01*
X591321Y1011221D01*
X591128Y1011398D01*
X590921Y1011557D01*
X590700Y1011698D01*
X590468Y1011819D01*
X590226Y1011919D01*
X589976Y1011998D01*
X589721Y1012054D01*
X589461Y1012089D01*
X589200Y1012100D01*
X588939Y1012089D01*
X588679Y1012054D01*
X588424Y1011998D01*
X588174Y1011919D01*
X587932Y1011819D01*
X587700Y1011698D01*
X587479Y1011557D01*
X587272Y1011398D01*
X587079Y1011221D01*
X586902Y1011028D01*
X586743Y1010821D01*
X586602Y1010600D01*
X586481Y1010368D01*
X586381Y1010126D01*
X586302Y1009876D01*
X586246Y1009621D01*
X586211Y1009361D01*
X586200Y1009100D01*
X586200Y1003100D01*
X513850Y969513D02*
X513906Y969935D01*
X514016Y970347D01*
X514179Y970741D01*
X514392Y971109D01*
X514651Y971447D01*
X514953Y971749D01*
X515291Y972008D01*
X515659Y972221D01*
X516053Y972384D01*
X516465Y972494D01*
X516887Y972550D01*
X517313Y972550D01*
X517735Y972494D01*
X518147Y972384D01*
X518541Y972221D01*
X518909Y972008D01*
X519247Y971749D01*
X519549Y971447D01*
X519808Y971109D01*
X520021Y970741D01*
X520184Y970347D01*
X520294Y969935D01*
X520350Y969513D01*
X520350Y969087D01*
X520294Y968665D01*
X520184Y968253D01*
X520021Y967859D01*
X519808Y967491D01*
X519549Y967153D01*
X519247Y966851D01*
X518909Y966592D01*
X518541Y966379D01*
X518147Y966216D01*
X517735Y966106D01*
X517313Y966050D01*
X516887Y966050D01*
X516465Y966106D01*
X516053Y966216D01*
X515659Y966379D01*
X515291Y966592D01*
X514953Y966851D01*
X514651Y967153D01*
X514392Y967491D01*
X514179Y967859D01*
X514016Y968253D01*
X513906Y968665D01*
X513850Y969087D01*
X513850Y969513D01*
X571650Y969513D02*
X571706Y969935D01*
X571816Y970347D01*
X571979Y970741D01*
X572192Y971109D01*
X572451Y971447D01*
X572753Y971749D01*
X573091Y972008D01*
X573459Y972221D01*
X573853Y972384D01*
X574265Y972494D01*
X574687Y972550D01*
X575113Y972550D01*
X575535Y972494D01*
X575947Y972384D01*
X576341Y972221D01*
X576709Y972008D01*
X577047Y971749D01*
X577349Y971447D01*
X577608Y971109D01*
X577821Y970741D01*
X577984Y970347D01*
X578094Y969935D01*
X578150Y969513D01*
X578150Y969087D01*
X578094Y968665D01*
X577984Y968253D01*
X577821Y967859D01*
X577608Y967491D01*
X577349Y967153D01*
X577047Y966851D01*
X576709Y966592D01*
X576341Y966379D01*
X575947Y966216D01*
X575535Y966106D01*
X575113Y966050D01*
X574687Y966050D01*
X574265Y966106D01*
X573853Y966216D01*
X573459Y966379D01*
X573091Y966592D01*
X572753Y966851D01*
X572451Y967153D01*
X572192Y967491D01*
X571979Y967859D01*
X571816Y968253D01*
X571706Y968665D01*
X571650Y969087D01*
X571650Y969513D01*
M02*
