G04 EAGLE Gerber RS-274X export*
G75*
%MOMM*%
%FSLAX34Y34*%
%LPD*%
%INSilkscreen Bottom*%
%IPPOS*%
%AMOC8*
5,1,8,0,0,1.08239X$1,22.5*%
G01*
%ADD10C,0.200000*%
%ADD11C,0.100000*%
%ADD12C,0.200000*%
%ADD13C,0.056000*%
%ADD14C,0.056000*%
%ADD15R,0.300000X0.800000*%
%ADD16R,1.600000X0.100000*%
%ADD17C,0.101600*%
%ADD18C,0.203200*%
%ADD19R,0.125000X1.200000*%
%ADD20R,0.300000X1.250000*%
%ADD21R,0.800000X0.300000*%
%ADD22R,0.100000X1.600000*%
%ADD23R,0.450000X1.250000*%
%ADD24R,2.000000X0.100000*%
%ADD25R,1.600000X0.500000*%
%ADD26R,0.100000X3.600000*%
%ADD27R,0.500000X1.600000*%
%ADD28R,3.600000X0.100000*%
%ADD29R,1.200000X0.125000*%
%ADD30R,1.250000X0.300000*%
%ADD31C,0.050000*%
%ADD32C,0.152400*%
%ADD33R,0.457200X0.584200*%
%ADD34R,0.584200X0.457200*%
%ADD35C,0.127000*%
%ADD36R,0.650000X0.500000*%


D10*
X429930Y518200D02*
X429930Y418200D01*
X488900Y418200D01*
X488900Y518200D01*
X429930Y518200D01*
D11*
X378900Y531500D02*
X378900Y404900D01*
X549380Y404900D01*
X549380Y531500D01*
X378900Y531500D01*
D12*
X538880Y498200D03*
D10*
X538836Y498202D01*
X538793Y498208D01*
X538751Y498217D01*
X538709Y498230D01*
X538669Y498247D01*
X538630Y498267D01*
X538593Y498290D01*
X538559Y498317D01*
X538526Y498346D01*
X538497Y498379D01*
X538470Y498413D01*
X538447Y498450D01*
X538427Y498489D01*
X538410Y498529D01*
X538397Y498571D01*
X538388Y498613D01*
X538382Y498656D01*
X538380Y498700D01*
X538382Y498744D01*
X538388Y498787D01*
X538397Y498829D01*
X538410Y498871D01*
X538427Y498911D01*
X538447Y498950D01*
X538470Y498987D01*
X538497Y499021D01*
X538526Y499054D01*
X538559Y499083D01*
X538593Y499110D01*
X538630Y499133D01*
X538669Y499153D01*
X538709Y499170D01*
X538751Y499183D01*
X538793Y499192D01*
X538836Y499198D01*
X538880Y499200D01*
D12*
X538880Y499200D03*
D10*
X538924Y499198D01*
X538967Y499192D01*
X539009Y499183D01*
X539051Y499170D01*
X539091Y499153D01*
X539130Y499133D01*
X539167Y499110D01*
X539201Y499083D01*
X539234Y499054D01*
X539263Y499021D01*
X539290Y498987D01*
X539313Y498950D01*
X539333Y498911D01*
X539350Y498871D01*
X539363Y498829D01*
X539372Y498787D01*
X539378Y498744D01*
X539380Y498700D01*
X539378Y498656D01*
X539372Y498613D01*
X539363Y498571D01*
X539350Y498529D01*
X539333Y498489D01*
X539313Y498450D01*
X539290Y498413D01*
X539263Y498379D01*
X539234Y498346D01*
X539201Y498317D01*
X539167Y498290D01*
X539130Y498267D01*
X539091Y498247D01*
X539051Y498230D01*
X539009Y498217D01*
X538967Y498208D01*
X538924Y498202D01*
X538880Y498200D01*
D11*
X488900Y518200D02*
X478900Y518200D01*
X488900Y518200D02*
X488900Y418200D01*
X478900Y418200D01*
D10*
X487800Y711500D02*
X507800Y711500D01*
X487800Y711500D02*
X487800Y691500D01*
X507800Y691500D01*
X507800Y711500D01*
D11*
X521520Y721500D02*
X477800Y721500D01*
X477800Y681500D01*
X521520Y681500D01*
X521520Y721500D01*
D13*
X511520Y709570D03*
D14*
X511518Y709537D01*
X511512Y709505D01*
X511503Y709474D01*
X511490Y709444D01*
X511474Y709416D01*
X511454Y709390D01*
X511432Y709366D01*
X511407Y709345D01*
X511380Y709328D01*
X511351Y709313D01*
X511320Y709302D01*
X511289Y709294D01*
X511256Y709290D01*
X511224Y709290D01*
X511191Y709294D01*
X511160Y709302D01*
X511129Y709313D01*
X511100Y709328D01*
X511073Y709345D01*
X511048Y709366D01*
X511026Y709390D01*
X511006Y709416D01*
X510990Y709444D01*
X510977Y709474D01*
X510968Y709505D01*
X510962Y709537D01*
X510960Y709570D01*
D13*
X510960Y709570D03*
D14*
X510962Y709603D01*
X510968Y709635D01*
X510977Y709666D01*
X510990Y709696D01*
X511006Y709724D01*
X511026Y709750D01*
X511048Y709774D01*
X511073Y709795D01*
X511100Y709812D01*
X511129Y709827D01*
X511160Y709838D01*
X511191Y709846D01*
X511224Y709850D01*
X511256Y709850D01*
X511289Y709846D01*
X511320Y709838D01*
X511351Y709827D01*
X511380Y709812D01*
X511407Y709795D01*
X511432Y709774D01*
X511454Y709750D01*
X511474Y709724D01*
X511490Y709696D01*
X511503Y709666D01*
X511512Y709635D01*
X511518Y709603D01*
X511520Y709570D01*
D11*
X376300Y939900D02*
X368300Y939900D01*
X368300Y952900D01*
X376300Y952900D01*
X385300Y939900D02*
X393300Y939900D01*
X393300Y952900D01*
X385300Y952900D01*
D15*
X374300Y946400D03*
X387300Y946400D03*
D16*
X380800Y942900D03*
X380800Y949900D03*
D11*
X584800Y816200D02*
X592800Y816200D01*
X592800Y803200D01*
X584800Y803200D01*
X575800Y816200D02*
X567800Y816200D01*
X567800Y803200D01*
X575800Y803200D01*
D15*
X586800Y809700D03*
X573800Y809700D03*
D16*
X580300Y813200D03*
X580300Y806200D03*
D17*
X503600Y573300D02*
X474600Y573300D01*
X474600Y561300D01*
X503600Y561300D01*
X503600Y573300D01*
D18*
X516530Y578300D02*
X516530Y556300D01*
X516530Y578300D02*
X461670Y578300D01*
X461670Y556300D02*
X516530Y556300D01*
X461670Y556300D02*
X461670Y578300D01*
X491005Y571745D02*
X491005Y562855D01*
X487195Y567300D01*
X491005Y571745D01*
X487195Y571745D02*
X487195Y562855D01*
D19*
X504475Y567300D03*
X473725Y567300D03*
D20*
X479600Y567300D03*
D11*
X504600Y599300D02*
X504600Y607300D01*
X517600Y607300D01*
X517600Y599300D01*
X504600Y590300D02*
X504600Y582300D01*
X517600Y582300D01*
X517600Y590300D01*
D21*
X511100Y601300D03*
X511100Y588300D03*
D22*
X507600Y594800D03*
X514600Y594800D03*
D11*
X427400Y816800D02*
X427400Y824800D01*
X427400Y816800D02*
X414400Y816800D01*
X414400Y824800D01*
X427400Y833800D02*
X427400Y841800D01*
X414400Y841800D01*
X414400Y833800D01*
D21*
X420900Y822800D03*
X420900Y835800D03*
D22*
X424400Y829300D03*
X417400Y829300D03*
D11*
X409900Y813500D02*
X401900Y813500D01*
X409900Y813500D02*
X409900Y800500D01*
X401900Y800500D01*
X392900Y813500D02*
X384900Y813500D01*
X384900Y800500D01*
X392900Y800500D01*
D15*
X403900Y807000D03*
X390900Y807000D03*
D16*
X397400Y810500D03*
X397400Y803500D03*
D11*
X391500Y743000D02*
X391500Y735000D01*
X378500Y735000D01*
X378500Y743000D01*
X391500Y752000D02*
X391500Y760000D01*
X378500Y760000D01*
X378500Y752000D01*
D21*
X385000Y741000D03*
X385000Y754000D03*
D22*
X388500Y747500D03*
X381500Y747500D03*
D11*
X467500Y739900D02*
X467500Y731900D01*
X454500Y731900D01*
X454500Y739900D01*
X467500Y748900D02*
X467500Y756900D01*
X454500Y756900D01*
X454500Y748900D01*
D21*
X461000Y737900D03*
X461000Y750900D03*
D22*
X464500Y744400D03*
X457500Y744400D03*
D11*
X443500Y736800D02*
X443500Y728800D01*
X430500Y728800D01*
X430500Y736800D01*
X443500Y745800D02*
X443500Y753800D01*
X430500Y753800D01*
X430500Y745800D01*
D21*
X437000Y734800D03*
X437000Y747800D03*
D22*
X440500Y741300D03*
X433500Y741300D03*
D11*
X485500Y744700D02*
X485500Y752700D01*
X485500Y744700D02*
X472500Y744700D01*
X472500Y752700D01*
X485500Y761700D02*
X485500Y769700D01*
X472500Y769700D01*
X472500Y761700D01*
D21*
X479000Y750700D03*
X479000Y763700D03*
D22*
X482500Y757200D03*
X475500Y757200D03*
D11*
X489500Y798600D02*
X489500Y806600D01*
X489500Y798600D02*
X476500Y798600D01*
X476500Y806600D01*
X489500Y815600D02*
X489500Y823600D01*
X476500Y823600D01*
X476500Y815600D01*
D21*
X483000Y804600D03*
X483000Y817600D03*
D22*
X486500Y811100D03*
X479500Y811100D03*
D11*
X590000Y675500D02*
X590000Y667500D01*
X577000Y667500D01*
X577000Y675500D01*
X590000Y684500D02*
X590000Y692500D01*
X577000Y692500D01*
X577000Y684500D01*
D21*
X583500Y673500D03*
X583500Y686500D03*
D22*
X587000Y680000D03*
X580000Y680000D03*
D11*
X506500Y832800D02*
X498500Y832800D01*
X498500Y845800D01*
X506500Y845800D01*
X515500Y832800D02*
X523500Y832800D01*
X523500Y845800D01*
X515500Y845800D01*
D15*
X504500Y839300D03*
X517500Y839300D03*
D16*
X511000Y835800D03*
X511000Y842800D03*
D11*
X590600Y705500D02*
X598600Y705500D01*
X590600Y705500D02*
X590600Y718500D01*
X598600Y718500D01*
X607600Y705500D02*
X615600Y705500D01*
X615600Y718500D01*
X607600Y718500D01*
D15*
X596600Y712000D03*
X609600Y712000D03*
D16*
X603100Y708500D03*
X603100Y715500D03*
D11*
X506500Y819800D02*
X498500Y819800D01*
X498500Y832800D01*
X506500Y832800D01*
X515500Y819800D02*
X523500Y819800D01*
X523500Y832800D01*
X515500Y832800D01*
D15*
X504500Y826300D03*
X517500Y826300D03*
D16*
X511000Y822800D03*
X511000Y829800D03*
D11*
X584900Y786200D02*
X592900Y786200D01*
X592900Y773200D01*
X584900Y773200D01*
X575900Y786200D02*
X567900Y786200D01*
X567900Y773200D01*
X575900Y773200D01*
D15*
X586900Y779700D03*
X573900Y779700D03*
D16*
X580400Y783200D03*
X580400Y776200D03*
D11*
X499400Y781800D02*
X491400Y781800D01*
X491400Y794800D01*
X499400Y794800D01*
X508400Y781800D02*
X516400Y781800D01*
X516400Y794800D01*
X508400Y794800D01*
D15*
X497400Y788300D03*
X510400Y788300D03*
D16*
X503900Y784800D03*
X503900Y791800D03*
D11*
X499300Y766800D02*
X491300Y766800D01*
X491300Y779800D01*
X499300Y779800D01*
X508300Y766800D02*
X516300Y766800D01*
X516300Y779800D01*
X508300Y779800D01*
D15*
X497300Y773300D03*
X510300Y773300D03*
D16*
X503800Y769800D03*
X503800Y776800D03*
D11*
X522800Y766800D02*
X522800Y758800D01*
X522800Y766800D02*
X535800Y766800D01*
X535800Y758800D01*
X522800Y749800D02*
X522800Y741800D01*
X535800Y741800D01*
X535800Y749800D01*
D21*
X529300Y760800D03*
X529300Y747800D03*
D22*
X525800Y754300D03*
X532800Y754300D03*
D11*
X483700Y728600D02*
X475700Y728600D01*
X475700Y741600D01*
X483700Y741600D01*
X492700Y728600D02*
X500700Y728600D01*
X500700Y741600D01*
X492700Y741600D01*
D15*
X481700Y735100D03*
X494700Y735100D03*
D16*
X488200Y731600D03*
X488200Y738600D03*
D11*
X511900Y725200D02*
X519900Y725200D01*
X511900Y725200D02*
X511900Y738200D01*
X519900Y738200D01*
X528900Y725200D02*
X536900Y725200D01*
X536900Y738200D01*
X528900Y738200D01*
D15*
X517900Y731700D03*
X530900Y731700D03*
D16*
X524400Y728200D03*
X524400Y735200D03*
D11*
X611200Y727800D02*
X619200Y727800D01*
X611200Y727800D02*
X611200Y740800D01*
X619200Y740800D01*
X628200Y727800D02*
X636200Y727800D01*
X636200Y740800D01*
X628200Y740800D01*
D15*
X617200Y734300D03*
X630200Y734300D03*
D16*
X623700Y730800D03*
X623700Y737800D03*
D11*
X663100Y1009300D02*
X663100Y1017300D01*
X676100Y1017300D01*
X676100Y1009300D01*
X663100Y1000300D02*
X663100Y992300D01*
X676100Y992300D01*
X676100Y1000300D01*
D21*
X669600Y1011300D03*
X669600Y998300D03*
D22*
X666100Y1004800D03*
X673100Y1004800D03*
D11*
X648700Y1009300D02*
X648700Y1017300D01*
X661700Y1017300D01*
X661700Y1009300D01*
X648700Y1000300D02*
X648700Y992300D01*
X661700Y992300D01*
X661700Y1000300D01*
D21*
X655200Y1011300D03*
X655200Y998300D03*
D22*
X651700Y1004800D03*
X658700Y1004800D03*
D11*
X634300Y1009300D02*
X634300Y1017300D01*
X647300Y1017300D01*
X647300Y1009300D01*
X634300Y1000300D02*
X634300Y992300D01*
X647300Y992300D01*
X647300Y1000300D01*
D21*
X640800Y1011300D03*
X640800Y998300D03*
D22*
X637300Y1004800D03*
X644300Y1004800D03*
D11*
X480900Y892300D02*
X480900Y884300D01*
X480900Y892300D02*
X493900Y892300D01*
X493900Y884300D01*
X480900Y875300D02*
X480900Y867300D01*
X493900Y867300D01*
X493900Y875300D01*
D21*
X487400Y886300D03*
X487400Y873300D03*
D22*
X483900Y879800D03*
X490900Y879800D03*
D11*
X144600Y977300D02*
X136600Y977300D01*
X144600Y977300D02*
X144600Y964300D01*
X136600Y964300D01*
X127600Y977300D02*
X119600Y977300D01*
X119600Y964300D01*
X127600Y964300D01*
D15*
X138600Y970800D03*
X125600Y970800D03*
D16*
X132100Y974300D03*
X132100Y967300D03*
D11*
X136500Y931300D02*
X144500Y931300D01*
X144500Y918300D01*
X136500Y918300D01*
X127500Y931300D02*
X119500Y931300D01*
X119500Y918300D01*
X127500Y918300D01*
D15*
X138500Y924800D03*
X125500Y924800D03*
D16*
X132000Y928300D03*
X132000Y921300D03*
D11*
X172600Y940300D02*
X180600Y940300D01*
X180600Y927300D01*
X172600Y927300D01*
X163600Y940300D02*
X155600Y940300D01*
X155600Y927300D01*
X163600Y927300D01*
D15*
X174600Y933800D03*
X161600Y933800D03*
D16*
X168100Y937300D03*
X168100Y930300D03*
D11*
X209300Y956700D02*
X217300Y956700D01*
X209300Y956700D02*
X209300Y969700D01*
X217300Y969700D01*
X226300Y956700D02*
X234300Y956700D01*
X234300Y969700D01*
X226300Y969700D01*
D15*
X215300Y963200D03*
X228300Y963200D03*
D16*
X221800Y959700D03*
X221800Y966700D03*
D11*
X373200Y849800D02*
X386700Y849800D01*
X373200Y849800D02*
X373200Y866800D01*
X386700Y866800D01*
X400700Y849800D02*
X414200Y849800D01*
X414200Y866800D01*
X400700Y866800D01*
D23*
X385950Y858300D03*
X401450Y858300D03*
D24*
X393700Y852550D03*
X393700Y864050D03*
D11*
X560900Y740200D02*
X560900Y732200D01*
X547900Y732200D01*
X547900Y740200D01*
X560900Y749200D02*
X560900Y757200D01*
X547900Y757200D01*
X547900Y749200D01*
D21*
X554400Y738200D03*
X554400Y751200D03*
D22*
X557900Y744700D03*
X550900Y744700D03*
D11*
X278900Y530600D02*
X270900Y530600D01*
X270900Y543600D01*
X278900Y543600D01*
X287900Y530600D02*
X295900Y530600D01*
X295900Y543600D01*
X287900Y543600D01*
D15*
X276900Y537100D03*
X289900Y537100D03*
D16*
X283400Y533600D03*
X283400Y540600D03*
D11*
X498500Y804800D02*
X506500Y804800D01*
X498500Y804800D02*
X498500Y817800D01*
X506500Y817800D01*
X515500Y804800D02*
X523500Y804800D01*
X523500Y817800D01*
X515500Y817800D01*
D15*
X504500Y811300D03*
X517500Y811300D03*
D16*
X511000Y807800D03*
X511000Y814800D03*
D11*
X260400Y524000D02*
X260400Y516000D01*
X247400Y516000D01*
X247400Y524000D01*
X260400Y533000D02*
X260400Y541000D01*
X247400Y541000D01*
X247400Y533000D01*
D21*
X253900Y522000D03*
X253900Y535000D03*
D22*
X257400Y528500D03*
X250400Y528500D03*
D11*
X211600Y477900D02*
X211600Y469900D01*
X211600Y477900D02*
X224600Y477900D01*
X224600Y469900D01*
X211600Y460900D02*
X211600Y452900D01*
X224600Y452900D01*
X224600Y460900D01*
D21*
X218100Y471900D03*
X218100Y458900D03*
D22*
X214600Y465400D03*
X221600Y465400D03*
D11*
X180200Y533900D02*
X180200Y548400D01*
X201200Y548400D01*
X201200Y533900D01*
X180200Y509900D02*
X180200Y495400D01*
X201200Y495400D01*
X201200Y509900D01*
D25*
X190700Y537400D03*
X190700Y506400D03*
D26*
X183200Y521900D03*
X198200Y521900D03*
D11*
X202300Y436600D02*
X210300Y436600D01*
X202300Y436600D02*
X202300Y449600D01*
X210300Y449600D01*
X219300Y436600D02*
X227300Y436600D01*
X227300Y449600D01*
X219300Y449600D01*
D15*
X208300Y443100D03*
X221300Y443100D03*
D16*
X214800Y439600D03*
X214800Y446600D03*
D11*
X256400Y436600D02*
X264400Y436600D01*
X256400Y436600D02*
X256400Y449600D01*
X264400Y449600D01*
X273400Y436600D02*
X281400Y436600D01*
X281400Y449600D01*
X273400Y449600D01*
D15*
X262400Y443100D03*
X275400Y443100D03*
D16*
X268900Y439600D03*
X268900Y446600D03*
D11*
X280400Y625600D02*
X280400Y633600D01*
X280400Y625600D02*
X267400Y625600D01*
X267400Y633600D01*
X280400Y642600D02*
X280400Y650600D01*
X267400Y650600D01*
X267400Y642600D01*
D21*
X273900Y631600D03*
X273900Y644600D03*
D22*
X277400Y638100D03*
X270400Y638100D03*
D11*
X265400Y633700D02*
X265400Y625700D01*
X252400Y625700D01*
X252400Y633700D01*
X265400Y642700D02*
X265400Y650700D01*
X252400Y650700D01*
X252400Y642700D01*
D21*
X258900Y631700D03*
X258900Y644700D03*
D22*
X262400Y638200D03*
X255400Y638200D03*
D11*
X210600Y586800D02*
X210600Y578800D01*
X210600Y586800D02*
X223600Y586800D01*
X223600Y578800D01*
X210600Y569800D02*
X210600Y561800D01*
X223600Y561800D01*
X223600Y569800D01*
D21*
X217100Y580800D03*
X217100Y567800D03*
D22*
X213600Y574300D03*
X220600Y574300D03*
D11*
X175100Y643900D02*
X175100Y658400D01*
X196100Y658400D01*
X196100Y643900D01*
X175100Y619900D02*
X175100Y605400D01*
X196100Y605400D01*
X196100Y619900D01*
D25*
X185600Y647400D03*
X185600Y616400D03*
D26*
X178100Y631900D03*
X193100Y631900D03*
D11*
X584800Y831200D02*
X592800Y831200D01*
X592800Y818200D01*
X584800Y818200D01*
X575800Y831200D02*
X567800Y831200D01*
X567800Y818200D01*
X575800Y818200D01*
D15*
X586800Y824700D03*
X573800Y824700D03*
D16*
X580300Y828200D03*
X580300Y821200D03*
D11*
X225000Y546600D02*
X217000Y546600D01*
X217000Y559600D01*
X225000Y559600D01*
X234000Y546600D02*
X242000Y546600D01*
X242000Y559600D01*
X234000Y559600D01*
D15*
X223000Y553100D03*
X236000Y553100D03*
D16*
X229500Y549600D03*
X229500Y556600D03*
D11*
X271100Y546600D02*
X279100Y546600D01*
X271100Y546600D02*
X271100Y559600D01*
X279100Y559600D01*
X288100Y546600D02*
X296100Y546600D01*
X296100Y559600D01*
X288100Y559600D01*
D15*
X277100Y553100D03*
X290100Y553100D03*
D16*
X283600Y549600D03*
X283600Y556600D03*
D11*
X281400Y734700D02*
X281400Y742700D01*
X281400Y734700D02*
X268400Y734700D01*
X268400Y742700D01*
X281400Y751700D02*
X281400Y759700D01*
X268400Y759700D01*
X268400Y751700D01*
D21*
X274900Y740700D03*
X274900Y753700D03*
D22*
X278400Y747200D03*
X271400Y747200D03*
D11*
X266400Y742600D02*
X266400Y734600D01*
X253400Y734600D01*
X253400Y742600D01*
X266400Y751600D02*
X266400Y759600D01*
X253400Y759600D01*
X253400Y751600D01*
D21*
X259900Y740600D03*
X259900Y753600D03*
D22*
X263400Y747100D03*
X256400Y747100D03*
D11*
X211600Y695500D02*
X211600Y687500D01*
X211600Y695500D02*
X224600Y695500D01*
X224600Y687500D01*
X211600Y678500D02*
X211600Y670500D01*
X224600Y670500D01*
X224600Y678500D01*
D21*
X218100Y689500D03*
X218100Y676500D03*
D22*
X214600Y683000D03*
X221600Y683000D03*
D11*
X143100Y755600D02*
X128600Y755600D01*
X128600Y776600D01*
X143100Y776600D01*
X167100Y755600D02*
X181600Y755600D01*
X181600Y776600D01*
X167100Y776600D01*
D27*
X139600Y766100D03*
X170600Y766100D03*
D28*
X155100Y758600D03*
X155100Y773600D03*
D11*
X217700Y654600D02*
X225700Y654600D01*
X217700Y654600D02*
X217700Y667600D01*
X225700Y667600D01*
X234700Y654600D02*
X242700Y654600D01*
X242700Y667600D01*
X234700Y667600D01*
D15*
X223700Y661100D03*
X236700Y661100D03*
D16*
X230200Y657600D03*
X230200Y664600D03*
D11*
X270800Y654600D02*
X278800Y654600D01*
X270800Y654600D02*
X270800Y667600D01*
X278800Y667600D01*
X287800Y654600D02*
X295800Y654600D01*
X295800Y667600D01*
X287800Y667600D01*
D15*
X276800Y661100D03*
X289800Y661100D03*
D16*
X283300Y657600D03*
X283300Y664600D03*
D11*
X584900Y801200D02*
X592900Y801200D01*
X592900Y788200D01*
X584900Y788200D01*
X575900Y801200D02*
X567900Y801200D01*
X567900Y788200D01*
X575900Y788200D01*
D15*
X586900Y794700D03*
X573900Y794700D03*
D16*
X580400Y798200D03*
X580400Y791200D03*
D11*
X280400Y841000D02*
X280400Y849000D01*
X280400Y841000D02*
X267400Y841000D01*
X267400Y849000D01*
X280400Y858000D02*
X280400Y866000D01*
X267400Y866000D01*
X267400Y858000D01*
D21*
X273900Y847000D03*
X273900Y860000D03*
D22*
X277400Y853500D03*
X270400Y853500D03*
D11*
X265400Y848900D02*
X265400Y840900D01*
X252400Y840900D01*
X252400Y848900D01*
X265400Y857900D02*
X265400Y865900D01*
X252400Y865900D01*
X252400Y857900D01*
D21*
X258900Y846900D03*
X258900Y859900D03*
D22*
X262400Y853400D03*
X255400Y853400D03*
D11*
X211600Y802200D02*
X211600Y794200D01*
X211600Y802200D02*
X224600Y802200D01*
X224600Y794200D01*
X211600Y785200D02*
X211600Y777200D01*
X224600Y777200D01*
X224600Y785200D01*
D21*
X218100Y796200D03*
X218100Y783200D03*
D22*
X214600Y789700D03*
X221600Y789700D03*
D11*
X186100Y852800D02*
X186100Y867300D01*
X207100Y867300D01*
X207100Y852800D01*
X186100Y828800D02*
X186100Y814300D01*
X207100Y814300D01*
X207100Y828800D01*
D25*
X196600Y856300D03*
X196600Y825300D03*
D26*
X189100Y840800D03*
X204100Y840800D03*
D11*
X216600Y761600D02*
X224600Y761600D01*
X216600Y761600D02*
X216600Y774600D01*
X224600Y774600D01*
X233600Y761600D02*
X241600Y761600D01*
X241600Y774600D01*
X233600Y774600D01*
D15*
X222600Y768100D03*
X235600Y768100D03*
D16*
X229100Y764600D03*
X229100Y771600D03*
D11*
X270500Y761600D02*
X278500Y761600D01*
X270500Y761600D02*
X270500Y774600D01*
X278500Y774600D01*
X287500Y761600D02*
X295500Y761600D01*
X295500Y774600D01*
X287500Y774600D01*
D15*
X276500Y768100D03*
X289500Y768100D03*
D16*
X283000Y764600D03*
X283000Y771600D03*
D17*
X398600Y704100D02*
X398600Y675100D01*
X410600Y675100D01*
X410600Y704100D01*
X398600Y704100D01*
D18*
X393600Y717030D02*
X415600Y717030D01*
X393600Y717030D02*
X393600Y662170D01*
X415600Y662170D02*
X415600Y717030D01*
X415600Y662170D02*
X393600Y662170D01*
X400155Y691505D02*
X409045Y691505D01*
X404600Y687695D01*
X400155Y691505D01*
X400155Y687695D02*
X409045Y687695D01*
D29*
X404600Y704975D03*
X404600Y674225D03*
D30*
X404600Y680100D03*
D11*
X441600Y642400D02*
X441600Y634400D01*
X441600Y642400D02*
X454600Y642400D01*
X454600Y634400D01*
X441600Y625400D02*
X441600Y617400D01*
X454600Y617400D01*
X454600Y625400D01*
D21*
X448100Y636400D03*
X448100Y623400D03*
D22*
X444600Y629900D03*
X451600Y629900D03*
D17*
X428800Y561300D02*
X399800Y561300D01*
X399800Y549300D01*
X428800Y549300D01*
X428800Y561300D01*
D18*
X441730Y566300D02*
X441730Y544300D01*
X441730Y566300D02*
X386870Y566300D01*
X386870Y544300D02*
X441730Y544300D01*
X386870Y544300D02*
X386870Y566300D01*
X416205Y559745D02*
X416205Y550855D01*
X412395Y555300D01*
X416205Y559745D01*
X412395Y559745D02*
X412395Y550855D01*
D19*
X429675Y555300D03*
X398925Y555300D03*
D20*
X404800Y555300D03*
D17*
X427300Y675100D02*
X427300Y704100D01*
X427300Y675100D02*
X439300Y675100D01*
X439300Y704100D01*
X427300Y704100D01*
D18*
X422300Y717030D02*
X444300Y717030D01*
X422300Y717030D02*
X422300Y662170D01*
X444300Y662170D02*
X444300Y717030D01*
X444300Y662170D02*
X422300Y662170D01*
X428855Y691505D02*
X437745Y691505D01*
X433300Y687695D01*
X428855Y691505D01*
X428855Y687695D02*
X437745Y687695D01*
D29*
X433300Y704975D03*
X433300Y674225D03*
D30*
X433300Y680100D03*
D31*
X474350Y761950D02*
X474350Y814450D01*
X411850Y814450D01*
X411850Y761950D01*
X474350Y761950D01*
D11*
X468100Y768200D02*
X468100Y808200D01*
X418100Y808200D01*
X418100Y768200D01*
X468100Y768200D01*
X463100Y768200D02*
X468100Y773200D01*
D31*
X112200Y921150D02*
X112200Y976850D01*
X82200Y976850D01*
X82200Y921150D01*
X112200Y921150D01*
D11*
X109700Y930500D02*
X109700Y967500D01*
X84700Y967500D01*
X84700Y930500D01*
X109700Y930500D01*
X104100Y930500D02*
X109700Y936100D01*
D10*
X109700Y922650D02*
X109700Y967500D01*
X84700Y967500D02*
X84700Y930500D01*
D31*
X475200Y728550D02*
X475200Y672850D01*
X475200Y728550D02*
X445200Y728550D01*
X445200Y672850D01*
X475200Y672850D01*
D11*
X472700Y682200D02*
X472700Y719200D01*
X447700Y719200D01*
X447700Y682200D01*
X472700Y682200D01*
X467100Y682200D02*
X472700Y687800D01*
D10*
X472700Y674350D02*
X472700Y719200D01*
X447700Y719200D02*
X447700Y682200D01*
D31*
X265300Y876050D02*
X265300Y931750D01*
X265300Y876050D02*
X295300Y876050D01*
X295300Y931750D01*
X265300Y931750D01*
D11*
X267800Y922400D02*
X267800Y885400D01*
X292800Y885400D01*
X292800Y922400D01*
X267800Y922400D01*
X273400Y922400D02*
X267800Y916800D01*
D10*
X267800Y930250D02*
X267800Y885400D01*
X292800Y885400D02*
X292800Y922400D01*
D31*
X297950Y948800D02*
X242250Y948800D01*
X297950Y948800D02*
X297950Y978800D01*
X242250Y978800D01*
X242250Y948800D01*
D11*
X251600Y951300D02*
X288600Y951300D01*
X288600Y976300D01*
X251600Y976300D01*
X251600Y951300D01*
X251600Y956900D02*
X257200Y951300D01*
D10*
X243750Y951300D02*
X288600Y951300D01*
X288600Y976300D02*
X251600Y976300D01*
D31*
X391200Y729650D02*
X391200Y673950D01*
X391200Y729650D02*
X361200Y729650D01*
X361200Y673950D01*
X391200Y673950D01*
D11*
X388700Y683300D02*
X388700Y720300D01*
X363700Y720300D01*
X363700Y683300D01*
X388700Y683300D01*
X383100Y683300D02*
X388700Y688900D01*
D10*
X388700Y675450D02*
X388700Y720300D01*
X363700Y720300D02*
X363700Y683300D01*
D31*
X190050Y942400D02*
X147550Y942400D01*
X190050Y942400D02*
X190050Y977400D01*
X147550Y977400D01*
X147550Y942400D01*
D11*
X160680Y945400D02*
X176920Y945400D01*
X176920Y974400D01*
X160680Y974400D01*
X160680Y945400D01*
X160680Y954900D02*
X170180Y945400D01*
D10*
X171550Y945400D02*
X166050Y945400D01*
X171550Y945400D02*
X171550Y974400D01*
X166050Y974400D01*
X166050Y945400D01*
X162550Y943900D02*
X150050Y943900D01*
D31*
X393400Y632800D02*
X393400Y569800D01*
X428400Y569800D01*
X428400Y632800D01*
X393400Y632800D01*
D11*
X395900Y616300D02*
X395900Y586300D01*
X425900Y586300D01*
X425900Y616300D01*
X395900Y616300D01*
X402400Y616300D02*
X395900Y609800D01*
D10*
X395900Y612800D02*
X395900Y589800D01*
X425900Y589800D01*
X425900Y612800D01*
X395900Y612800D01*
X395400Y616300D02*
X395400Y630300D01*
D31*
X467400Y644800D02*
X467400Y581800D01*
X502400Y581800D01*
X502400Y644800D01*
X467400Y644800D01*
D11*
X469900Y628300D02*
X469900Y598300D01*
X499900Y598300D01*
X499900Y628300D01*
X469900Y628300D01*
X476400Y628300D02*
X469900Y621800D01*
D10*
X469900Y624800D02*
X469900Y601800D01*
X499900Y601800D01*
X499900Y624800D01*
X469900Y624800D01*
X469400Y628300D02*
X469400Y642300D01*
D11*
X237100Y436500D02*
X229100Y436500D01*
X229100Y449500D01*
X237100Y449500D01*
X246100Y436500D02*
X254100Y436500D01*
X254100Y449500D01*
X246100Y449500D01*
D15*
X235100Y443000D03*
X248100Y443000D03*
D16*
X241600Y439500D03*
X241600Y446500D03*
D11*
X244200Y546500D02*
X252200Y546500D01*
X244200Y546500D02*
X244200Y559500D01*
X252200Y559500D01*
X261200Y546500D02*
X269200Y546500D01*
X269200Y559500D01*
X261200Y559500D01*
D15*
X250200Y553000D03*
X263200Y553000D03*
D16*
X256700Y549500D03*
X256700Y556500D03*
D11*
X252300Y654500D02*
X244300Y654500D01*
X244300Y667500D01*
X252300Y667500D01*
X261300Y654500D02*
X269300Y654500D01*
X269300Y667500D01*
X261300Y667500D01*
D15*
X250300Y661000D03*
X263300Y661000D03*
D16*
X256800Y657500D03*
X256800Y664500D03*
D11*
X251600Y761500D02*
X243600Y761500D01*
X243600Y774500D01*
X251600Y774500D01*
X260600Y761500D02*
X268600Y761500D01*
X268600Y774500D01*
X260600Y774500D01*
D15*
X249600Y768000D03*
X262600Y768000D03*
D16*
X256100Y764500D03*
X256100Y771500D03*
D11*
X489500Y771500D02*
X489500Y779500D01*
X489500Y771500D02*
X476500Y771500D01*
X476500Y779500D01*
X489500Y788500D02*
X489500Y796500D01*
X476500Y796500D01*
X476500Y788500D01*
D21*
X483000Y777500D03*
X483000Y790500D03*
D22*
X486500Y784000D03*
X479500Y784000D03*
D11*
X628400Y755500D02*
X636400Y755500D01*
X636400Y742500D01*
X628400Y742500D01*
X619400Y755500D02*
X611400Y755500D01*
X611400Y742500D01*
X619400Y742500D01*
D15*
X630400Y749000D03*
X617400Y749000D03*
D16*
X623900Y752500D03*
X623900Y745500D03*
D11*
X206500Y955800D02*
X206500Y963800D01*
X206500Y955800D02*
X193500Y955800D01*
X193500Y963800D01*
X206500Y972800D02*
X206500Y980800D01*
X193500Y980800D01*
X193500Y972800D01*
D21*
X200000Y961800D03*
X200000Y974800D03*
D22*
X203500Y968300D03*
X196500Y968300D03*
D10*
X338850Y873350D02*
X338850Y842850D01*
X338850Y873350D02*
X308350Y873350D01*
X308350Y842850D01*
X338850Y842850D01*
D11*
X348850Y827600D02*
X348850Y886200D01*
X298350Y886200D01*
X298350Y827600D01*
X348850Y827600D01*
X338850Y842850D02*
X338850Y873650D01*
X308350Y873350D02*
X308350Y843100D01*
D18*
X463824Y603504D02*
X463824Y590296D01*
D32*
X463824Y603504D02*
X432376Y603504D01*
D18*
X432376Y590296D01*
X463824Y590296D01*
X431376Y590296D02*
X431376Y603424D01*
X431376Y590296D02*
X440964Y590296D01*
X464824Y590296D02*
X464824Y603424D01*
X464824Y590296D02*
X455236Y590296D01*
X450324Y603504D02*
X445736Y603504D01*
D33*
X448100Y586867D03*
X457498Y606933D03*
X438702Y606933D03*
D18*
X389124Y591704D02*
X389124Y578496D01*
D32*
X389124Y591704D02*
X357676Y591704D01*
D18*
X357676Y578496D01*
X389124Y578496D01*
X356676Y578496D02*
X356676Y591624D01*
X356676Y578496D02*
X366264Y578496D01*
X390124Y578496D02*
X390124Y591624D01*
X390124Y578496D02*
X380536Y578496D01*
X375624Y591704D02*
X371036Y591704D01*
D33*
X373400Y575067D03*
X382798Y595133D03*
X364002Y595133D03*
D18*
X467824Y843296D02*
X467824Y856504D01*
D32*
X436376Y856504D01*
D18*
X436376Y843296D01*
X467824Y843296D01*
X435376Y843296D02*
X435376Y856424D01*
X435376Y843296D02*
X444964Y843296D01*
X468824Y843296D02*
X468824Y856424D01*
X468824Y843296D02*
X459236Y843296D01*
X454324Y856504D02*
X449736Y856504D01*
D33*
X452100Y839867D03*
X461498Y859933D03*
X442702Y859933D03*
D18*
X323504Y901876D02*
X310296Y901876D01*
D32*
X323504Y901876D02*
X323504Y933324D01*
D18*
X310296Y933324D01*
X310296Y901876D01*
X310296Y934324D02*
X323424Y934324D01*
X310296Y934324D02*
X310296Y924736D01*
X310296Y900876D02*
X323424Y900876D01*
X310296Y900876D02*
X310296Y910464D01*
X323504Y915376D02*
X323504Y919964D01*
D34*
X306867Y917600D03*
X326933Y908202D03*
X326933Y926998D03*
D10*
X554550Y465850D02*
X585050Y465850D01*
X554550Y465850D02*
X554550Y435350D01*
X585050Y435350D01*
X585050Y465850D01*
D11*
X600300Y475850D02*
X541700Y475850D01*
X541700Y425350D01*
X600300Y425350D01*
X600300Y475850D01*
X585050Y465850D02*
X554250Y465850D01*
X554550Y435350D02*
X584800Y435350D01*
D10*
X584950Y518850D02*
X554450Y518850D01*
X554450Y488350D01*
X584950Y488350D01*
X584950Y518850D01*
D11*
X600200Y528850D02*
X541600Y528850D01*
X541600Y478350D01*
X600200Y478350D01*
X600200Y528850D01*
X584950Y518850D02*
X554150Y518850D01*
X554450Y488350D02*
X584700Y488350D01*
X145100Y962100D02*
X137100Y962100D01*
X145100Y962100D02*
X145100Y949100D01*
X137100Y949100D01*
X128100Y962100D02*
X120100Y962100D01*
X120100Y949100D01*
X128100Y949100D01*
D15*
X139100Y955600D03*
X126100Y955600D03*
D16*
X132600Y959100D03*
X132600Y952100D03*
D11*
X451900Y893400D02*
X459900Y893400D01*
X451900Y893400D02*
X451900Y906400D01*
X459900Y906400D01*
X468900Y893400D02*
X476900Y893400D01*
X476900Y906400D01*
X468900Y906400D01*
D15*
X457900Y899900D03*
X470900Y899900D03*
D16*
X464400Y896400D03*
X464400Y903400D03*
D11*
X144700Y947600D02*
X136700Y947600D01*
X144700Y947600D02*
X144700Y934600D01*
X136700Y934600D01*
X127700Y947600D02*
X119700Y947600D01*
X119700Y934600D01*
X127700Y934600D01*
D15*
X138700Y941100D03*
X125700Y941100D03*
D16*
X132200Y944600D03*
X132200Y937600D03*
D11*
X607800Y703600D02*
X615800Y703600D01*
X615800Y690600D01*
X607800Y690600D01*
X598800Y703600D02*
X590800Y703600D01*
X590800Y690600D01*
X598800Y690600D01*
D15*
X609800Y697100D03*
X596800Y697100D03*
D16*
X603300Y700600D03*
X603300Y693600D03*
D11*
X403900Y914600D02*
X403900Y922600D01*
X416900Y922600D01*
X416900Y914600D01*
X403900Y905600D02*
X403900Y897600D01*
X416900Y897600D01*
X416900Y905600D01*
D21*
X410400Y916600D03*
X410400Y903600D03*
D22*
X406900Y910100D03*
X413900Y910100D03*
D11*
X232400Y540900D02*
X232400Y532900D01*
X232400Y540900D02*
X245400Y540900D01*
X245400Y532900D01*
X232400Y523900D02*
X232400Y515900D01*
X245400Y515900D01*
X245400Y523900D01*
D21*
X238900Y534900D03*
X238900Y521900D03*
D22*
X235400Y528400D03*
X242400Y528400D03*
D11*
X288200Y529100D02*
X296200Y529100D01*
X296200Y516100D01*
X288200Y516100D01*
X279200Y529100D02*
X271200Y529100D01*
X271200Y516100D01*
X279200Y516100D01*
D15*
X290200Y522600D03*
X277200Y522600D03*
D16*
X283700Y526100D03*
X283700Y519100D03*
D11*
X227800Y529300D02*
X219800Y529300D01*
X227800Y529300D02*
X227800Y516300D01*
X219800Y516300D01*
X210800Y529300D02*
X202800Y529300D01*
X202800Y516300D01*
X210800Y516300D01*
D15*
X221800Y522800D03*
X208800Y522800D03*
D16*
X215300Y526300D03*
X215300Y519300D03*
D11*
X210800Y531300D02*
X202800Y531300D01*
X202800Y544300D01*
X210800Y544300D01*
X219800Y531300D02*
X227800Y531300D01*
X227800Y544300D01*
X219800Y544300D01*
D15*
X208800Y537800D03*
X221800Y537800D03*
D16*
X215300Y534300D03*
X215300Y541300D03*
D11*
X237400Y642500D02*
X237400Y650500D01*
X250400Y650500D01*
X250400Y642500D01*
X237400Y633500D02*
X237400Y625500D01*
X250400Y625500D01*
X250400Y633500D01*
D21*
X243900Y644500D03*
X243900Y631500D03*
D22*
X240400Y638000D03*
X247400Y638000D03*
D11*
X282900Y633900D02*
X282900Y625900D01*
X282900Y633900D02*
X295900Y633900D01*
X295900Y625900D01*
X282900Y616900D02*
X282900Y608900D01*
X295900Y608900D01*
X295900Y616900D01*
D21*
X289400Y627900D03*
X289400Y614900D03*
D22*
X285900Y621400D03*
X292900Y621400D03*
D11*
X227200Y638100D02*
X219200Y638100D01*
X227200Y638100D02*
X227200Y625100D01*
X219200Y625100D01*
X210200Y638100D02*
X202200Y638100D01*
X202200Y625100D01*
X210200Y625100D01*
D15*
X221200Y631600D03*
X208200Y631600D03*
D16*
X214700Y635100D03*
X214700Y628100D03*
D11*
X209400Y639400D02*
X201400Y639400D01*
X201400Y652400D01*
X209400Y652400D01*
X218400Y639400D02*
X226400Y639400D01*
X226400Y652400D01*
X218400Y652400D01*
D15*
X207400Y645900D03*
X220400Y645900D03*
D16*
X213900Y642400D03*
X213900Y649400D03*
D11*
X238400Y751700D02*
X238400Y759700D01*
X251400Y759700D01*
X251400Y751700D01*
X238400Y742700D02*
X238400Y734700D01*
X251400Y734700D01*
X251400Y742700D01*
D21*
X244900Y753700D03*
X244900Y740700D03*
D22*
X241400Y747200D03*
X248400Y747200D03*
D11*
X282900Y740300D02*
X282900Y732300D01*
X282900Y740300D02*
X295900Y740300D01*
X295900Y732300D01*
X282900Y723300D02*
X282900Y715300D01*
X295900Y715300D01*
X295900Y723300D01*
D21*
X289400Y734300D03*
X289400Y721300D03*
D22*
X285900Y727800D03*
X292900Y727800D03*
D11*
X227600Y745100D02*
X219600Y745100D01*
X227600Y745100D02*
X227600Y732100D01*
X219600Y732100D01*
X210600Y745100D02*
X202600Y745100D01*
X202600Y732100D01*
X210600Y732100D01*
D15*
X221600Y738600D03*
X208600Y738600D03*
D16*
X215100Y742100D03*
X215100Y735100D03*
D11*
X210800Y746400D02*
X202800Y746400D01*
X202800Y759400D01*
X210800Y759400D01*
X219800Y746400D02*
X227800Y746400D01*
X227800Y759400D01*
X219800Y759400D01*
D15*
X208800Y752900D03*
X221800Y752900D03*
D16*
X215300Y749400D03*
X215300Y756400D03*
D11*
X237300Y857900D02*
X237300Y865900D01*
X250300Y865900D01*
X250300Y857900D01*
X237300Y848900D02*
X237300Y840900D01*
X250300Y840900D01*
X250300Y848900D01*
D21*
X243800Y859900D03*
X243800Y846900D03*
D22*
X240300Y853400D03*
X247300Y853400D03*
D11*
X282900Y848500D02*
X282900Y840500D01*
X282900Y848500D02*
X295900Y848500D01*
X295900Y840500D01*
X282900Y831500D02*
X282900Y823500D01*
X295900Y823500D01*
X295900Y831500D01*
D21*
X289400Y842500D03*
X289400Y829500D03*
D22*
X285900Y836000D03*
X292900Y836000D03*
D11*
X233600Y852100D02*
X225600Y852100D01*
X233600Y852100D02*
X233600Y839100D01*
X225600Y839100D01*
X216600Y852100D02*
X208600Y852100D01*
X208600Y839100D01*
X216600Y839100D01*
D15*
X227600Y845600D03*
X214600Y845600D03*
D16*
X221100Y849100D03*
X221100Y842100D03*
D11*
X216600Y853600D02*
X208600Y853600D01*
X208600Y866600D01*
X216600Y866600D01*
X225600Y853600D02*
X233600Y853600D01*
X233600Y866600D01*
X225600Y866600D01*
D15*
X214600Y860100D03*
X227600Y860100D03*
D16*
X221100Y856600D03*
X221100Y863600D03*
D11*
X544600Y941300D02*
X544600Y949300D01*
X544600Y941300D02*
X531600Y941300D01*
X531600Y949300D01*
X544600Y958300D02*
X544600Y966300D01*
X531600Y966300D01*
X531600Y958300D01*
D21*
X538100Y947300D03*
X538100Y960300D03*
D22*
X541600Y953800D03*
X534600Y953800D03*
D11*
X369300Y671600D02*
X369300Y663600D01*
X369300Y671600D02*
X382300Y671600D01*
X382300Y663600D01*
X369300Y654600D02*
X369300Y646600D01*
X382300Y646600D01*
X382300Y654600D01*
D21*
X375800Y665600D03*
X375800Y652600D03*
D22*
X372300Y659100D03*
X379300Y659100D03*
D11*
X411300Y658500D02*
X411300Y650500D01*
X411300Y658500D02*
X424300Y658500D01*
X424300Y650500D01*
X411300Y641500D02*
X411300Y633500D01*
X424300Y633500D01*
X424300Y641500D01*
D21*
X417800Y652500D03*
X417800Y639500D03*
D22*
X414300Y646000D03*
X421300Y646000D03*
D11*
X439100Y642700D02*
X439100Y634700D01*
X426100Y634700D01*
X426100Y642700D01*
X439100Y651700D02*
X439100Y659700D01*
X426100Y659700D01*
X426100Y651700D01*
D21*
X432600Y640700D03*
X432600Y653700D03*
D22*
X436100Y647200D03*
X429100Y647200D03*
D11*
X453300Y663400D02*
X453300Y671400D01*
X466300Y671400D01*
X466300Y663400D01*
X453300Y654400D02*
X453300Y646400D01*
X466300Y646400D01*
X466300Y654400D01*
D21*
X459800Y665400D03*
X459800Y652400D03*
D22*
X456300Y658900D03*
X463300Y658900D03*
D11*
X486300Y664300D02*
X486300Y672300D01*
X499300Y672300D01*
X499300Y664300D01*
X486300Y655300D02*
X486300Y647300D01*
X499300Y647300D01*
X499300Y655300D01*
D21*
X492800Y666300D03*
X492800Y653300D03*
D22*
X489300Y659800D03*
X496300Y659800D03*
D11*
X514100Y654800D02*
X514100Y646800D01*
X501100Y646800D01*
X501100Y654800D01*
X514100Y663800D02*
X514100Y671800D01*
X501100Y671800D01*
X501100Y663800D01*
D21*
X507600Y652800D03*
X507600Y665800D03*
D22*
X511100Y659300D03*
X504100Y659300D03*
D11*
X392100Y762900D02*
X384100Y762900D01*
X384100Y775900D01*
X392100Y775900D01*
X401100Y762900D02*
X409100Y762900D01*
X409100Y775900D01*
X401100Y775900D01*
D15*
X390100Y769400D03*
X403100Y769400D03*
D16*
X396600Y765900D03*
X396600Y772900D03*
D11*
X398900Y834000D02*
X398900Y842000D01*
X411900Y842000D01*
X411900Y834000D01*
X398900Y825000D02*
X398900Y817000D01*
X411900Y817000D01*
X411900Y825000D01*
D21*
X405400Y836000D03*
X405400Y823000D03*
D22*
X401900Y829500D03*
X408900Y829500D03*
D11*
X410900Y754100D02*
X410900Y746100D01*
X410900Y754100D02*
X423900Y754100D01*
X423900Y746100D01*
X410900Y737100D02*
X410900Y729100D01*
X423900Y729100D01*
X423900Y737100D01*
D21*
X417400Y748100D03*
X417400Y735100D03*
D22*
X413900Y741600D03*
X420900Y741600D03*
D11*
X393300Y751800D02*
X393300Y759800D01*
X406300Y759800D01*
X406300Y751800D01*
X393300Y742800D02*
X393300Y734800D01*
X406300Y734800D01*
X406300Y742800D01*
D21*
X399800Y753800D03*
X399800Y740800D03*
D22*
X396300Y747300D03*
X403300Y747300D03*
D11*
X561600Y941400D02*
X561600Y949400D01*
X561600Y941400D02*
X548600Y941400D01*
X548600Y949400D01*
X561600Y958400D02*
X561600Y966400D01*
X548600Y966400D01*
X548600Y958400D01*
D21*
X555100Y947400D03*
X555100Y960400D03*
D22*
X558600Y953900D03*
X551600Y953900D03*
D11*
X464900Y880700D02*
X456900Y880700D01*
X464900Y880700D02*
X464900Y867700D01*
X456900Y867700D01*
X447900Y880700D02*
X439900Y880700D01*
X439900Y867700D01*
X447900Y867700D01*
D15*
X458900Y874200D03*
X445900Y874200D03*
D16*
X452400Y877700D03*
X452400Y870700D03*
D31*
X281250Y451650D02*
X228750Y451650D01*
X281250Y451650D02*
X281250Y514150D01*
X228750Y514150D01*
X228750Y451650D01*
D11*
X235000Y457900D02*
X275000Y457900D01*
X275000Y507900D01*
X235000Y507900D01*
X235000Y457900D01*
X235000Y462900D02*
X240000Y457900D01*
D31*
X228750Y561650D02*
X281250Y561650D01*
X281250Y624150D01*
X228750Y624150D01*
X228750Y561650D01*
D11*
X235000Y567900D02*
X275000Y567900D01*
X275000Y617900D01*
X235000Y617900D01*
X235000Y567900D01*
X235000Y572900D02*
X240000Y567900D01*
D31*
X228750Y669650D02*
X281250Y669650D01*
X281250Y732150D01*
X228750Y732150D01*
X228750Y669650D01*
D11*
X235000Y675900D02*
X275000Y675900D01*
X275000Y725900D01*
X235000Y725900D01*
X235000Y675900D01*
X235000Y680900D02*
X240000Y675900D01*
D31*
X228750Y776450D02*
X281250Y776450D01*
X281250Y838950D01*
X228750Y838950D01*
X228750Y776450D01*
D11*
X235000Y782700D02*
X275000Y782700D01*
X275000Y832700D01*
X235000Y832700D01*
X235000Y782700D01*
X235000Y787700D02*
X240000Y782700D01*
D32*
X312000Y940680D02*
X328200Y940680D01*
X328200Y969120D01*
X312000Y969120D01*
X312000Y940680D01*
X312000Y949680D02*
X312000Y960120D01*
X328200Y960120D02*
X328200Y959180D01*
X328200Y950620D02*
X328200Y949680D01*
X328200Y968180D02*
X328200Y969120D01*
X328200Y941620D02*
X328200Y940680D01*
X312000Y940680D02*
X312000Y941620D01*
X312000Y968180D02*
X312000Y969120D01*
D35*
X322100Y964900D02*
X322102Y964963D01*
X322108Y965025D01*
X322118Y965087D01*
X322131Y965149D01*
X322149Y965209D01*
X322170Y965268D01*
X322195Y965326D01*
X322224Y965382D01*
X322256Y965436D01*
X322291Y965488D01*
X322329Y965537D01*
X322371Y965585D01*
X322415Y965629D01*
X322463Y965671D01*
X322512Y965709D01*
X322564Y965744D01*
X322618Y965776D01*
X322674Y965805D01*
X322732Y965830D01*
X322791Y965851D01*
X322851Y965869D01*
X322913Y965882D01*
X322975Y965892D01*
X323037Y965898D01*
X323100Y965900D01*
X323163Y965898D01*
X323225Y965892D01*
X323287Y965882D01*
X323349Y965869D01*
X323409Y965851D01*
X323468Y965830D01*
X323526Y965805D01*
X323582Y965776D01*
X323636Y965744D01*
X323688Y965709D01*
X323737Y965671D01*
X323785Y965629D01*
X323829Y965585D01*
X323871Y965537D01*
X323909Y965488D01*
X323944Y965436D01*
X323976Y965382D01*
X324005Y965326D01*
X324030Y965268D01*
X324051Y965209D01*
X324069Y965149D01*
X324082Y965087D01*
X324092Y965025D01*
X324098Y964963D01*
X324100Y964900D01*
X324098Y964837D01*
X324092Y964775D01*
X324082Y964713D01*
X324069Y964651D01*
X324051Y964591D01*
X324030Y964532D01*
X324005Y964474D01*
X323976Y964418D01*
X323944Y964364D01*
X323909Y964312D01*
X323871Y964263D01*
X323829Y964215D01*
X323785Y964171D01*
X323737Y964129D01*
X323688Y964091D01*
X323636Y964056D01*
X323582Y964024D01*
X323526Y963995D01*
X323468Y963970D01*
X323409Y963949D01*
X323349Y963931D01*
X323287Y963918D01*
X323225Y963908D01*
X323163Y963902D01*
X323100Y963900D01*
X323037Y963902D01*
X322975Y963908D01*
X322913Y963918D01*
X322851Y963931D01*
X322791Y963949D01*
X322732Y963970D01*
X322674Y963995D01*
X322618Y964024D01*
X322564Y964056D01*
X322512Y964091D01*
X322463Y964129D01*
X322415Y964171D01*
X322371Y964215D01*
X322329Y964263D01*
X322291Y964312D01*
X322256Y964364D01*
X322224Y964418D01*
X322195Y964474D01*
X322170Y964532D01*
X322149Y964591D01*
X322131Y964651D01*
X322118Y964713D01*
X322108Y964775D01*
X322102Y964837D01*
X322100Y964900D01*
D36*
X331850Y964400D03*
X331850Y954900D03*
X331850Y945400D03*
X308350Y945400D03*
X308350Y964400D03*
D35*
X900500Y981750D02*
X900500Y918250D01*
X917000Y918250D01*
X917000Y981750D01*
X900500Y981750D01*
X917000Y981750D02*
X995700Y981750D01*
X995700Y918250D01*
X917000Y918250D01*
X902500Y839750D02*
X902500Y776250D01*
X919000Y776250D01*
X919000Y839750D01*
X902500Y839750D01*
X919000Y839750D02*
X997700Y839750D01*
X997700Y776250D01*
X919000Y776250D01*
D11*
X621500Y811500D02*
X621500Y819500D01*
X634500Y819500D01*
X634500Y811500D01*
X621500Y802500D02*
X621500Y794500D01*
X634500Y794500D01*
X634500Y802500D01*
D21*
X628000Y813500D03*
X628000Y800500D03*
D22*
X624500Y807000D03*
X631500Y807000D03*
D11*
X634500Y822500D02*
X634500Y830500D01*
X634500Y822500D02*
X621500Y822500D01*
X621500Y830500D01*
X634500Y839500D02*
X634500Y847500D01*
X621500Y847500D01*
X621500Y839500D01*
D21*
X628000Y828500D03*
X628000Y841500D03*
D22*
X631500Y835000D03*
X624500Y835000D03*
M02*
