G04 EAGLE Gerber RS-274X export*
G75*
%MOMM*%
%FSLAX34Y34*%
%LPD*%
%IN*%
%IPPOS*%
%AMOC8*
5,1,8,0,0,1.08239X$1,22.5*%
G01*
%ADD10C,0.254000*%


D10*
X620000Y450000D02*
X1610000Y450000D01*
X1610000Y1000000D01*
X620000Y1000000D01*
X620000Y450000D01*
X1281600Y937900D02*
X1281611Y937639D01*
X1281646Y937379D01*
X1281702Y937124D01*
X1281781Y936874D01*
X1281881Y936632D01*
X1282002Y936400D01*
X1282143Y936179D01*
X1282302Y935972D01*
X1282479Y935779D01*
X1282672Y935602D01*
X1282879Y935443D01*
X1283100Y935302D01*
X1283332Y935181D01*
X1283574Y935081D01*
X1283824Y935002D01*
X1284079Y934946D01*
X1284339Y934911D01*
X1284600Y934900D01*
X1284861Y934911D01*
X1285121Y934946D01*
X1285376Y935002D01*
X1285626Y935081D01*
X1285868Y935181D01*
X1286100Y935302D01*
X1286321Y935443D01*
X1286528Y935602D01*
X1286721Y935779D01*
X1286898Y935972D01*
X1287057Y936179D01*
X1287198Y936400D01*
X1287319Y936632D01*
X1287419Y936874D01*
X1287498Y937124D01*
X1287554Y937379D01*
X1287589Y937639D01*
X1287600Y937900D01*
X1287600Y948900D01*
X1287589Y949161D01*
X1287554Y949421D01*
X1287498Y949676D01*
X1287419Y949926D01*
X1287319Y950168D01*
X1287198Y950400D01*
X1287057Y950621D01*
X1286898Y950828D01*
X1286721Y951021D01*
X1286528Y951198D01*
X1286321Y951357D01*
X1286100Y951498D01*
X1285868Y951619D01*
X1285626Y951719D01*
X1285376Y951798D01*
X1285121Y951854D01*
X1284861Y951889D01*
X1284600Y951900D01*
X1284339Y951889D01*
X1284079Y951854D01*
X1283824Y951798D01*
X1283574Y951719D01*
X1283332Y951619D01*
X1283100Y951498D01*
X1282879Y951357D01*
X1282672Y951198D01*
X1282479Y951021D01*
X1282302Y950828D01*
X1282143Y950621D01*
X1282002Y950400D01*
X1281881Y950168D01*
X1281781Y949926D01*
X1281702Y949676D01*
X1281646Y949421D01*
X1281611Y949161D01*
X1281600Y948900D01*
X1281600Y937900D01*
X1195200Y937900D02*
X1195211Y937639D01*
X1195246Y937379D01*
X1195302Y937124D01*
X1195381Y936874D01*
X1195481Y936632D01*
X1195602Y936400D01*
X1195743Y936179D01*
X1195902Y935972D01*
X1196079Y935779D01*
X1196272Y935602D01*
X1196479Y935443D01*
X1196700Y935302D01*
X1196932Y935181D01*
X1197174Y935081D01*
X1197424Y935002D01*
X1197679Y934946D01*
X1197939Y934911D01*
X1198200Y934900D01*
X1198461Y934911D01*
X1198721Y934946D01*
X1198976Y935002D01*
X1199226Y935081D01*
X1199468Y935181D01*
X1199700Y935302D01*
X1199921Y935443D01*
X1200128Y935602D01*
X1200321Y935779D01*
X1200498Y935972D01*
X1200657Y936179D01*
X1200798Y936400D01*
X1200919Y936632D01*
X1201019Y936874D01*
X1201098Y937124D01*
X1201154Y937379D01*
X1201189Y937639D01*
X1201200Y937900D01*
X1201200Y948900D01*
X1201189Y949161D01*
X1201154Y949421D01*
X1201098Y949676D01*
X1201019Y949926D01*
X1200919Y950168D01*
X1200798Y950400D01*
X1200657Y950621D01*
X1200498Y950828D01*
X1200321Y951021D01*
X1200128Y951198D01*
X1199921Y951357D01*
X1199700Y951498D01*
X1199468Y951619D01*
X1199226Y951719D01*
X1198976Y951798D01*
X1198721Y951854D01*
X1198461Y951889D01*
X1198200Y951900D01*
X1197939Y951889D01*
X1197679Y951854D01*
X1197424Y951798D01*
X1197174Y951719D01*
X1196932Y951619D01*
X1196700Y951498D01*
X1196479Y951357D01*
X1196272Y951198D01*
X1196079Y951021D01*
X1195902Y950828D01*
X1195743Y950621D01*
X1195602Y950400D01*
X1195481Y950168D01*
X1195381Y949926D01*
X1195302Y949676D01*
X1195246Y949421D01*
X1195211Y949161D01*
X1195200Y948900D01*
X1195200Y937900D01*
X1195200Y982200D02*
X1195211Y981939D01*
X1195246Y981679D01*
X1195302Y981424D01*
X1195381Y981174D01*
X1195481Y980932D01*
X1195602Y980700D01*
X1195743Y980479D01*
X1195902Y980272D01*
X1196079Y980079D01*
X1196272Y979902D01*
X1196479Y979743D01*
X1196700Y979602D01*
X1196932Y979481D01*
X1197174Y979381D01*
X1197424Y979302D01*
X1197679Y979246D01*
X1197939Y979211D01*
X1198200Y979200D01*
X1198461Y979211D01*
X1198721Y979246D01*
X1198976Y979302D01*
X1199226Y979381D01*
X1199468Y979481D01*
X1199700Y979602D01*
X1199921Y979743D01*
X1200128Y979902D01*
X1200321Y980079D01*
X1200498Y980272D01*
X1200657Y980479D01*
X1200798Y980700D01*
X1200919Y980932D01*
X1201019Y981174D01*
X1201098Y981424D01*
X1201154Y981679D01*
X1201189Y981939D01*
X1201200Y982200D01*
X1201200Y988200D01*
X1201189Y988461D01*
X1201154Y988721D01*
X1201098Y988976D01*
X1201019Y989226D01*
X1200919Y989468D01*
X1200798Y989700D01*
X1200657Y989921D01*
X1200498Y990128D01*
X1200321Y990321D01*
X1200128Y990498D01*
X1199921Y990657D01*
X1199700Y990798D01*
X1199468Y990919D01*
X1199226Y991019D01*
X1198976Y991098D01*
X1198721Y991154D01*
X1198461Y991189D01*
X1198200Y991200D01*
X1197939Y991189D01*
X1197679Y991154D01*
X1197424Y991098D01*
X1197174Y991019D01*
X1196932Y990919D01*
X1196700Y990798D01*
X1196479Y990657D01*
X1196272Y990498D01*
X1196079Y990321D01*
X1195902Y990128D01*
X1195743Y989921D01*
X1195602Y989700D01*
X1195481Y989468D01*
X1195381Y989226D01*
X1195302Y988976D01*
X1195246Y988721D01*
X1195211Y988461D01*
X1195200Y988200D01*
X1195200Y982200D01*
X1281600Y982200D02*
X1281611Y981939D01*
X1281646Y981679D01*
X1281702Y981424D01*
X1281781Y981174D01*
X1281881Y980932D01*
X1282002Y980700D01*
X1282143Y980479D01*
X1282302Y980272D01*
X1282479Y980079D01*
X1282672Y979902D01*
X1282879Y979743D01*
X1283100Y979602D01*
X1283332Y979481D01*
X1283574Y979381D01*
X1283824Y979302D01*
X1284079Y979246D01*
X1284339Y979211D01*
X1284600Y979200D01*
X1284861Y979211D01*
X1285121Y979246D01*
X1285376Y979302D01*
X1285626Y979381D01*
X1285868Y979481D01*
X1286100Y979602D01*
X1286321Y979743D01*
X1286528Y979902D01*
X1286721Y980079D01*
X1286898Y980272D01*
X1287057Y980479D01*
X1287198Y980700D01*
X1287319Y980932D01*
X1287419Y981174D01*
X1287498Y981424D01*
X1287554Y981679D01*
X1287589Y981939D01*
X1287600Y982200D01*
X1287600Y988200D01*
X1287589Y988461D01*
X1287554Y988721D01*
X1287498Y988976D01*
X1287419Y989226D01*
X1287319Y989468D01*
X1287198Y989700D01*
X1287057Y989921D01*
X1286898Y990128D01*
X1286721Y990321D01*
X1286528Y990498D01*
X1286321Y990657D01*
X1286100Y990798D01*
X1285868Y990919D01*
X1285626Y991019D01*
X1285376Y991098D01*
X1285121Y991154D01*
X1284861Y991189D01*
X1284600Y991200D01*
X1284339Y991189D01*
X1284079Y991154D01*
X1283824Y991098D01*
X1283574Y991019D01*
X1283332Y990919D01*
X1283100Y990798D01*
X1282879Y990657D01*
X1282672Y990498D01*
X1282479Y990321D01*
X1282302Y990128D01*
X1282143Y989921D01*
X1282002Y989700D01*
X1281881Y989468D01*
X1281781Y989226D01*
X1281702Y988976D01*
X1281646Y988721D01*
X1281611Y988461D01*
X1281600Y988200D01*
X1281600Y982200D01*
X1209250Y948613D02*
X1209306Y949035D01*
X1209416Y949447D01*
X1209579Y949841D01*
X1209792Y950209D01*
X1210051Y950547D01*
X1210353Y950849D01*
X1210691Y951108D01*
X1211059Y951321D01*
X1211453Y951484D01*
X1211865Y951594D01*
X1212287Y951650D01*
X1212713Y951650D01*
X1213135Y951594D01*
X1213547Y951484D01*
X1213941Y951321D01*
X1214309Y951108D01*
X1214647Y950849D01*
X1214949Y950547D01*
X1215208Y950209D01*
X1215421Y949841D01*
X1215584Y949447D01*
X1215694Y949035D01*
X1215750Y948613D01*
X1215750Y948187D01*
X1215694Y947765D01*
X1215584Y947353D01*
X1215421Y946959D01*
X1215208Y946591D01*
X1214949Y946253D01*
X1214647Y945951D01*
X1214309Y945692D01*
X1213941Y945479D01*
X1213547Y945316D01*
X1213135Y945206D01*
X1212713Y945150D01*
X1212287Y945150D01*
X1211865Y945206D01*
X1211453Y945316D01*
X1211059Y945479D01*
X1210691Y945692D01*
X1210353Y945951D01*
X1210051Y946253D01*
X1209792Y946591D01*
X1209579Y946959D01*
X1209416Y947353D01*
X1209306Y947765D01*
X1209250Y948187D01*
X1209250Y948613D01*
X1267050Y948613D02*
X1267106Y949035D01*
X1267216Y949447D01*
X1267379Y949841D01*
X1267592Y950209D01*
X1267851Y950547D01*
X1268153Y950849D01*
X1268491Y951108D01*
X1268859Y951321D01*
X1269253Y951484D01*
X1269665Y951594D01*
X1270087Y951650D01*
X1270513Y951650D01*
X1270935Y951594D01*
X1271347Y951484D01*
X1271741Y951321D01*
X1272109Y951108D01*
X1272447Y950849D01*
X1272749Y950547D01*
X1273008Y950209D01*
X1273221Y949841D01*
X1273384Y949447D01*
X1273494Y949035D01*
X1273550Y948613D01*
X1273550Y948187D01*
X1273494Y947765D01*
X1273384Y947353D01*
X1273221Y946959D01*
X1273008Y946591D01*
X1272749Y946253D01*
X1272447Y945951D01*
X1272109Y945692D01*
X1271741Y945479D01*
X1271347Y945316D01*
X1270935Y945206D01*
X1270513Y945150D01*
X1270087Y945150D01*
X1269665Y945206D01*
X1269253Y945316D01*
X1268859Y945479D01*
X1268491Y945692D01*
X1268153Y945951D01*
X1267851Y946253D01*
X1267592Y946591D01*
X1267379Y946959D01*
X1267216Y947353D01*
X1267106Y947765D01*
X1267050Y948187D01*
X1267050Y948613D01*
M02*
