G04 EAGLE Gerber RS-274X export*
G75*
%MOMM*%
%FSLAX34Y34*%
%LPD*%
%INSilkscreen Bottom*%
%IPPOS*%
%AMOC8*
5,1,8,0,0,1.08239X$1,22.5*%
G01*
%ADD10C,0.200000*%
%ADD11C,0.100000*%
%ADD12C,0.056000*%
%ADD13C,0.056000*%
%ADD14R,0.800000X0.300000*%
%ADD15R,0.100000X1.600000*%
%ADD16C,0.101600*%
%ADD17C,0.203200*%
%ADD18R,1.200000X0.125000*%
%ADD19R,1.250000X0.300000*%
%ADD20R,0.300000X0.800000*%
%ADD21R,1.600000X0.100000*%
%ADD22R,1.600000X0.500000*%
%ADD23R,0.100000X3.600000*%
%ADD24R,0.125000X1.200000*%
%ADD25R,0.300000X1.250000*%
%ADD26C,0.050000*%
%ADD27C,0.127000*%
%ADD28C,0.152400*%
%ADD29R,0.457200X0.584200*%
%ADD30R,0.584200X0.457200*%
%ADD31R,0.500000X0.650000*%
%ADD32C,0.076200*%
%ADD33C,0.000000*%


D10*
X1110000Y735000D02*
X1090000Y735000D01*
X1090000Y715000D01*
X1110000Y715000D01*
X1110000Y735000D01*
D11*
X1123720Y745000D02*
X1080000Y745000D01*
X1080000Y705000D01*
X1123720Y705000D01*
X1123720Y745000D01*
D12*
X1113720Y733070D03*
D13*
X1113718Y733037D01*
X1113712Y733005D01*
X1113703Y732974D01*
X1113690Y732944D01*
X1113674Y732916D01*
X1113654Y732890D01*
X1113632Y732866D01*
X1113607Y732845D01*
X1113580Y732828D01*
X1113551Y732813D01*
X1113520Y732802D01*
X1113489Y732794D01*
X1113456Y732790D01*
X1113424Y732790D01*
X1113391Y732794D01*
X1113360Y732802D01*
X1113329Y732813D01*
X1113300Y732828D01*
X1113273Y732845D01*
X1113248Y732866D01*
X1113226Y732890D01*
X1113206Y732916D01*
X1113190Y732944D01*
X1113177Y732974D01*
X1113168Y733005D01*
X1113162Y733037D01*
X1113160Y733070D01*
D12*
X1113160Y733070D03*
D13*
X1113162Y733103D01*
X1113168Y733135D01*
X1113177Y733166D01*
X1113190Y733196D01*
X1113206Y733224D01*
X1113226Y733250D01*
X1113248Y733274D01*
X1113273Y733295D01*
X1113300Y733312D01*
X1113329Y733327D01*
X1113360Y733338D01*
X1113391Y733346D01*
X1113424Y733350D01*
X1113456Y733350D01*
X1113489Y733346D01*
X1113520Y733338D01*
X1113551Y733327D01*
X1113580Y733312D01*
X1113607Y733295D01*
X1113632Y733274D01*
X1113654Y733250D01*
X1113674Y733224D01*
X1113690Y733196D01*
X1113703Y733166D01*
X1113712Y733135D01*
X1113718Y733103D01*
X1113720Y733070D01*
D11*
X1143000Y653100D02*
X1143000Y645100D01*
X1143000Y653100D02*
X1156000Y653100D01*
X1156000Y645100D01*
X1143000Y636100D02*
X1143000Y628100D01*
X1156000Y628100D01*
X1156000Y636100D01*
D14*
X1149500Y647100D03*
X1149500Y634100D03*
D15*
X1146000Y640600D03*
X1153000Y640600D03*
D16*
X927500Y670700D02*
X927500Y699700D01*
X927500Y670700D02*
X939500Y670700D01*
X939500Y699700D01*
X927500Y699700D01*
D17*
X922500Y712630D02*
X944500Y712630D01*
X922500Y712630D02*
X922500Y657770D01*
X944500Y657770D02*
X944500Y712630D01*
X944500Y657770D02*
X922500Y657770D01*
X929055Y687105D02*
X937945Y687105D01*
X933500Y683295D01*
X929055Y687105D01*
X929055Y683295D02*
X937945Y683295D01*
D18*
X933500Y700575D03*
X933500Y669825D03*
D19*
X933500Y675700D03*
D11*
X1020300Y678900D02*
X1020300Y670900D01*
X1020300Y678900D02*
X1033300Y678900D01*
X1033300Y670900D01*
X1020300Y661900D02*
X1020300Y653900D01*
X1033300Y653900D01*
X1033300Y661900D01*
D14*
X1026800Y672900D03*
X1026800Y659900D03*
D15*
X1023300Y666400D03*
X1030300Y666400D03*
D11*
X1302300Y764600D02*
X1310300Y764600D01*
X1310300Y751600D01*
X1302300Y751600D01*
X1293300Y764600D02*
X1285300Y764600D01*
X1285300Y751600D01*
X1293300Y751600D01*
D20*
X1304300Y758100D03*
X1291300Y758100D03*
D21*
X1297800Y761600D03*
X1297800Y754600D03*
D11*
X1193600Y768800D02*
X1193600Y776800D01*
X1206600Y776800D01*
X1206600Y768800D01*
X1193600Y759800D02*
X1193600Y751800D01*
X1206600Y751800D01*
X1206600Y759800D01*
D14*
X1200100Y770800D03*
X1200100Y757800D03*
D15*
X1196600Y764300D03*
X1203600Y764300D03*
D11*
X1206600Y778900D02*
X1206600Y786900D01*
X1206600Y778900D02*
X1193600Y778900D01*
X1193600Y786900D01*
X1206600Y795900D02*
X1206600Y803900D01*
X1193600Y803900D01*
X1193600Y795900D01*
D14*
X1200100Y784900D03*
X1200100Y797900D03*
D15*
X1203600Y791400D03*
X1196600Y791400D03*
D11*
X1246000Y833600D02*
X1254000Y833600D01*
X1254000Y820600D01*
X1246000Y820600D01*
X1237000Y833600D02*
X1229000Y833600D01*
X1229000Y820600D01*
X1237000Y820600D01*
D20*
X1248000Y827100D03*
X1235000Y827100D03*
D21*
X1241500Y830600D03*
X1241500Y823600D03*
D11*
X1245900Y818600D02*
X1253900Y818600D01*
X1253900Y805600D01*
X1245900Y805600D01*
X1236900Y818600D02*
X1228900Y818600D01*
X1228900Y805600D01*
X1236900Y805600D01*
D20*
X1247900Y812100D03*
X1234900Y812100D03*
D21*
X1241400Y815600D03*
X1241400Y808600D03*
D11*
X1268800Y712600D02*
X1276800Y712600D01*
X1276800Y699600D01*
X1268800Y699600D01*
X1259800Y712600D02*
X1251800Y712600D01*
X1251800Y699600D01*
X1259800Y699600D01*
D20*
X1270800Y706100D03*
X1257800Y706100D03*
D21*
X1264300Y709600D03*
X1264300Y702600D03*
D11*
X1060900Y710300D02*
X1052900Y710300D01*
X1052900Y723300D01*
X1060900Y723300D01*
X1069900Y710300D02*
X1077900Y710300D01*
X1077900Y723300D01*
X1069900Y723300D01*
D20*
X1058900Y716800D03*
X1071900Y716800D03*
D21*
X1065400Y713300D03*
X1065400Y720300D03*
D11*
X1143000Y728700D02*
X1151000Y728700D01*
X1151000Y715700D01*
X1143000Y715700D01*
X1134000Y728700D02*
X1126000Y728700D01*
X1126000Y715700D01*
X1134000Y715700D01*
D20*
X1145000Y722200D03*
X1132000Y722200D03*
D21*
X1138500Y725700D03*
X1138500Y718700D03*
D11*
X1577500Y960300D02*
X1585500Y960300D01*
X1577500Y960300D02*
X1577500Y973300D01*
X1585500Y973300D01*
X1594500Y960300D02*
X1602500Y960300D01*
X1602500Y973300D01*
X1594500Y973300D01*
D20*
X1583500Y966800D03*
X1596500Y966800D03*
D21*
X1590000Y963300D03*
X1590000Y970300D03*
D11*
X1177000Y652900D02*
X1177000Y644900D01*
X1177000Y652900D02*
X1190000Y652900D01*
X1190000Y644900D01*
X1177000Y635900D02*
X1177000Y627900D01*
X1190000Y627900D01*
X1190000Y635900D01*
D14*
X1183500Y646900D03*
X1183500Y633900D03*
D15*
X1180000Y640400D03*
X1187000Y640400D03*
D11*
X1224000Y580200D02*
X1224000Y572200D01*
X1211000Y572200D01*
X1211000Y580200D01*
X1224000Y589200D02*
X1224000Y597200D01*
X1211000Y597200D01*
X1211000Y589200D01*
D14*
X1217500Y578200D03*
X1217500Y591200D03*
D15*
X1221000Y584700D03*
X1214000Y584700D03*
D11*
X1577500Y945300D02*
X1585500Y945300D01*
X1577500Y945300D02*
X1577500Y958300D01*
X1585500Y958300D01*
X1594500Y945300D02*
X1602500Y945300D01*
X1602500Y958300D01*
X1594500Y958300D01*
D20*
X1583500Y951800D03*
X1596500Y951800D03*
D21*
X1590000Y948300D03*
X1590000Y955300D03*
D11*
X1098500Y658800D02*
X1098500Y650800D01*
X1098500Y658800D02*
X1111500Y658800D01*
X1111500Y650800D01*
X1098500Y641800D02*
X1098500Y633800D01*
X1111500Y633800D01*
X1111500Y641800D01*
D14*
X1105000Y652800D03*
X1105000Y639800D03*
D15*
X1101500Y646300D03*
X1108500Y646300D03*
D11*
X1577500Y930300D02*
X1585500Y930300D01*
X1577500Y930300D02*
X1577500Y943300D01*
X1585500Y943300D01*
X1594500Y930300D02*
X1602500Y930300D01*
X1602500Y943300D01*
X1594500Y943300D01*
D20*
X1583500Y936800D03*
X1596500Y936800D03*
D21*
X1590000Y933300D03*
X1590000Y940300D03*
D11*
X1142300Y934300D02*
X1142300Y919800D01*
X1121300Y919800D01*
X1121300Y934300D01*
X1142300Y958300D02*
X1142300Y972800D01*
X1121300Y972800D01*
X1121300Y958300D01*
D22*
X1131800Y930800D03*
X1131800Y961800D03*
D23*
X1139300Y946300D03*
X1124300Y946300D03*
D11*
X1157700Y948000D02*
X1157700Y956000D01*
X1157700Y948000D02*
X1144700Y948000D01*
X1144700Y956000D01*
X1157700Y965000D02*
X1157700Y973000D01*
X1144700Y973000D01*
X1144700Y965000D01*
D14*
X1151200Y954000D03*
X1151200Y967000D03*
D15*
X1154700Y960500D03*
X1147700Y960500D03*
D11*
X1143500Y762300D02*
X1135500Y762300D01*
X1135500Y775300D01*
X1143500Y775300D01*
X1152500Y762300D02*
X1160500Y762300D01*
X1160500Y775300D01*
X1152500Y775300D01*
D20*
X1141500Y768800D03*
X1154500Y768800D03*
D21*
X1148000Y765300D03*
X1148000Y772300D03*
D11*
X1152500Y789700D02*
X1160500Y789700D01*
X1160500Y776700D01*
X1152500Y776700D01*
X1143500Y789700D02*
X1135500Y789700D01*
X1135500Y776700D01*
X1143500Y776700D01*
D20*
X1154500Y783200D03*
X1141500Y783200D03*
D21*
X1148000Y786700D03*
X1148000Y779700D03*
D11*
X1192300Y872700D02*
X1192300Y880700D01*
X1205300Y880700D01*
X1205300Y872700D01*
X1192300Y863700D02*
X1192300Y855700D01*
X1205300Y855700D01*
X1205300Y863700D01*
D14*
X1198800Y874700D03*
X1198800Y861700D03*
D15*
X1195300Y868200D03*
X1202300Y868200D03*
D11*
X1195400Y835300D02*
X1187400Y835300D01*
X1187400Y848300D01*
X1195400Y848300D01*
X1204400Y835300D02*
X1212400Y835300D01*
X1212400Y848300D01*
X1204400Y848300D01*
D20*
X1193400Y841800D03*
X1206400Y841800D03*
D21*
X1199900Y838300D03*
X1199900Y845300D03*
D11*
X927700Y800700D02*
X927700Y786200D01*
X927700Y800700D02*
X948700Y800700D01*
X948700Y786200D01*
X927700Y762200D02*
X927700Y747700D01*
X948700Y747700D01*
X948700Y762200D01*
D22*
X938200Y789700D03*
X938200Y758700D03*
D23*
X930700Y774200D03*
X945700Y774200D03*
D11*
X932500Y731300D02*
X924500Y731300D01*
X924500Y744300D01*
X932500Y744300D01*
X941500Y731300D02*
X949500Y731300D01*
X949500Y744300D01*
X941500Y744300D01*
D20*
X930500Y737800D03*
X943500Y737800D03*
D21*
X937000Y734300D03*
X937000Y741300D03*
D11*
X1245800Y848600D02*
X1253800Y848600D01*
X1253800Y835600D01*
X1245800Y835600D01*
X1236800Y848600D02*
X1228800Y848600D01*
X1228800Y835600D01*
X1236800Y835600D01*
D20*
X1247800Y842100D03*
X1234800Y842100D03*
D21*
X1241300Y845600D03*
X1241300Y838600D03*
D11*
X904500Y800400D02*
X904500Y785900D01*
X904500Y800400D02*
X925500Y800400D01*
X925500Y785900D01*
X904500Y761900D02*
X904500Y747400D01*
X925500Y747400D01*
X925500Y761900D01*
D22*
X915000Y789400D03*
X915000Y758400D03*
D23*
X907500Y773900D03*
X922500Y773900D03*
D11*
X1268700Y873700D02*
X1268700Y881700D01*
X1268700Y873700D02*
X1255700Y873700D01*
X1255700Y881700D01*
X1268700Y890700D02*
X1268700Y898700D01*
X1255700Y898700D01*
X1255700Y890700D01*
D14*
X1262200Y879700D03*
X1262200Y892700D03*
D15*
X1265700Y886200D03*
X1258700Y886200D03*
D11*
X1253700Y881800D02*
X1253700Y873800D01*
X1240700Y873800D01*
X1240700Y881800D01*
X1253700Y890800D02*
X1253700Y898800D01*
X1240700Y898800D01*
X1240700Y890800D01*
D14*
X1247200Y879800D03*
X1247200Y892800D03*
D15*
X1250700Y886300D03*
X1243700Y886300D03*
D11*
X1268700Y727600D02*
X1276700Y727600D01*
X1276700Y714600D01*
X1268700Y714600D01*
X1259700Y727600D02*
X1251700Y727600D01*
X1251700Y714600D01*
X1259700Y714600D01*
D20*
X1270700Y721100D03*
X1257700Y721100D03*
D21*
X1264200Y724600D03*
X1264200Y717600D03*
D16*
X1042400Y778600D02*
X1013400Y778600D01*
X1013400Y766600D01*
X1042400Y766600D01*
X1042400Y778600D01*
D17*
X1055330Y783600D02*
X1055330Y761600D01*
X1055330Y783600D02*
X1000470Y783600D01*
X1000470Y761600D02*
X1055330Y761600D01*
X1000470Y761600D02*
X1000470Y783600D01*
X1029805Y777045D02*
X1029805Y768155D01*
X1025995Y772600D01*
X1029805Y777045D01*
X1025995Y777045D02*
X1025995Y768155D01*
D24*
X1043275Y772600D03*
X1012525Y772600D03*
D25*
X1018400Y772600D03*
D26*
X1192400Y774550D02*
X1192400Y830250D01*
X1162400Y830250D01*
X1162400Y774550D01*
X1192400Y774550D01*
D11*
X1189900Y783900D02*
X1189900Y820900D01*
X1164900Y820900D01*
X1164900Y783900D01*
X1189900Y783900D01*
X1184300Y783900D02*
X1189900Y789500D01*
D10*
X1189900Y776050D02*
X1189900Y820900D01*
X1164900Y820900D02*
X1164900Y783900D01*
D26*
X981500Y801750D02*
X981500Y746050D01*
X981500Y801750D02*
X951500Y801750D01*
X951500Y746050D01*
X981500Y746050D01*
D11*
X979000Y755400D02*
X979000Y792400D01*
X954000Y792400D01*
X954000Y755400D01*
X979000Y755400D01*
X973400Y755400D02*
X979000Y761000D01*
D10*
X979000Y747550D02*
X979000Y792400D01*
X954000Y792400D02*
X954000Y755400D01*
D26*
X1087150Y534500D02*
X1142850Y534500D01*
X1087150Y534500D02*
X1087150Y504500D01*
X1142850Y504500D01*
X1142850Y534500D01*
D11*
X1133500Y532000D02*
X1096500Y532000D01*
X1096500Y507000D01*
X1133500Y507000D01*
X1133500Y532000D01*
X1133500Y526400D02*
X1127900Y532000D01*
D10*
X1141350Y532000D02*
X1096500Y532000D01*
X1096500Y507000D02*
X1133500Y507000D01*
D26*
X1290400Y791650D02*
X1290400Y847350D01*
X1260400Y847350D01*
X1260400Y791650D01*
X1290400Y791650D01*
D11*
X1287900Y801000D02*
X1287900Y838000D01*
X1262900Y838000D01*
X1262900Y801000D01*
X1287900Y801000D01*
X1282300Y801000D02*
X1287900Y806600D01*
D10*
X1287900Y793150D02*
X1287900Y838000D01*
X1262900Y838000D02*
X1262900Y801000D01*
D26*
X1150500Y833450D02*
X1150500Y875950D01*
X1150500Y833450D02*
X1185500Y833450D01*
X1185500Y875950D01*
X1150500Y875950D01*
D11*
X1153500Y862820D02*
X1153500Y846580D01*
X1182500Y846580D01*
X1182500Y862820D01*
X1153500Y862820D01*
X1163000Y862820D02*
X1153500Y853320D01*
D10*
X1153500Y851950D02*
X1153500Y857450D01*
X1153500Y851950D02*
X1182500Y851950D01*
X1182500Y857450D01*
X1153500Y857450D01*
X1152000Y860950D02*
X1152000Y873450D01*
D26*
X983500Y716300D02*
X983500Y653300D01*
X1018500Y653300D01*
X1018500Y716300D01*
X983500Y716300D01*
D11*
X986000Y699800D02*
X986000Y669800D01*
X1016000Y669800D01*
X1016000Y699800D01*
X986000Y699800D01*
X992500Y699800D02*
X986000Y693300D01*
D10*
X986000Y696300D02*
X986000Y673300D01*
X1016000Y673300D01*
X1016000Y696300D01*
X986000Y696300D01*
X985500Y699800D02*
X985500Y713800D01*
D27*
X1015400Y806700D02*
X1015400Y931700D01*
X890400Y931700D02*
X890400Y806700D01*
X983400Y806700D02*
X1015400Y806700D01*
X1015400Y931700D02*
X983400Y931700D01*
X922400Y931700D02*
X890400Y931700D01*
X890400Y806700D02*
X922400Y806700D01*
D11*
X1193300Y822700D02*
X1193300Y830700D01*
X1206300Y830700D01*
X1206300Y822700D01*
X1193300Y813700D02*
X1193300Y805700D01*
X1206300Y805700D01*
X1206300Y813700D01*
D14*
X1199800Y824700D03*
X1199800Y811700D03*
D15*
X1196300Y818200D03*
X1203300Y818200D03*
D10*
X1044950Y539350D02*
X1044950Y508850D01*
X1075450Y508850D01*
X1075450Y539350D01*
X1044950Y539350D01*
D11*
X1034950Y554600D02*
X1034950Y496000D01*
X1085450Y496000D01*
X1085450Y554600D01*
X1034950Y554600D01*
X1044950Y539350D02*
X1044950Y508550D01*
X1075450Y508850D02*
X1075450Y539100D01*
D17*
X980124Y658396D02*
X980124Y671604D01*
D28*
X948676Y671604D01*
D17*
X948676Y658396D01*
X980124Y658396D01*
X947676Y658396D02*
X947676Y671524D01*
X947676Y658396D02*
X957264Y658396D01*
X981124Y658396D02*
X981124Y671524D01*
X981124Y658396D02*
X971536Y658396D01*
X966624Y671604D02*
X962036Y671604D01*
D29*
X964400Y654967D03*
X973798Y675033D03*
X955002Y675033D03*
D17*
X1149376Y931396D02*
X1149376Y944604D01*
D28*
X1149376Y931396D02*
X1180824Y931396D01*
D17*
X1180824Y944604D01*
X1149376Y944604D01*
X1181824Y944604D02*
X1181824Y931476D01*
X1181824Y944604D02*
X1172236Y944604D01*
X1148376Y944604D02*
X1148376Y931476D01*
X1148376Y944604D02*
X1157964Y944604D01*
X1162876Y931396D02*
X1167464Y931396D01*
D29*
X1165100Y948033D03*
X1155702Y927967D03*
X1174498Y927967D03*
D17*
X1216396Y928124D02*
X1229604Y928124D01*
D28*
X1216396Y928124D02*
X1216396Y896676D01*
D17*
X1229604Y896676D01*
X1229604Y928124D01*
X1229604Y895676D02*
X1216476Y895676D01*
X1229604Y895676D02*
X1229604Y905264D01*
X1229604Y929124D02*
X1216476Y929124D01*
X1229604Y929124D02*
X1229604Y919536D01*
X1216396Y914624D02*
X1216396Y910036D01*
D30*
X1233033Y912400D03*
X1212967Y921798D03*
X1212967Y903002D03*
D11*
X1436800Y566800D02*
X1444800Y566800D01*
X1444800Y553800D01*
X1436800Y553800D01*
X1427800Y566800D02*
X1419800Y566800D01*
X1419800Y553800D01*
X1427800Y553800D01*
D20*
X1438800Y560300D03*
X1425800Y560300D03*
D21*
X1432300Y563800D03*
X1432300Y556800D03*
D11*
X996500Y746400D02*
X996500Y754400D01*
X996500Y746400D02*
X983500Y746400D01*
X983500Y754400D01*
X996500Y763400D02*
X996500Y771400D01*
X983500Y771400D01*
X983500Y763400D01*
D14*
X990000Y752400D03*
X990000Y765400D03*
D15*
X993500Y758900D03*
X986500Y758900D03*
D11*
X996500Y775200D02*
X996500Y783200D01*
X996500Y775200D02*
X983500Y775200D01*
X983500Y783200D01*
X996500Y792200D02*
X996500Y800200D01*
X983500Y800200D01*
X983500Y792200D01*
D14*
X990000Y781200D03*
X990000Y794200D03*
D15*
X993500Y787700D03*
X986500Y787700D03*
D11*
X1135500Y747500D02*
X1143500Y747500D01*
X1135500Y747500D02*
X1135500Y760500D01*
X1143500Y760500D01*
X1152500Y747500D02*
X1160500Y747500D01*
X1160500Y760500D01*
X1152500Y760500D01*
D20*
X1141500Y754000D03*
X1154500Y754000D03*
D21*
X1148000Y750500D03*
X1148000Y757500D03*
D11*
X1148800Y850400D02*
X1148800Y858400D01*
X1148800Y850400D02*
X1135800Y850400D01*
X1135800Y858400D01*
X1148800Y867400D02*
X1148800Y875400D01*
X1135800Y875400D01*
X1135800Y867400D01*
D14*
X1142300Y856400D03*
X1142300Y869400D03*
D15*
X1145800Y862900D03*
X1138800Y862900D03*
D11*
X1376500Y566800D02*
X1384500Y566800D01*
X1384500Y553800D01*
X1376500Y553800D01*
X1367500Y566800D02*
X1359500Y566800D01*
X1359500Y553800D01*
X1367500Y553800D01*
D20*
X1378500Y560300D03*
X1365500Y560300D03*
D21*
X1372000Y563800D03*
X1372000Y556800D03*
D11*
X980800Y718600D02*
X980800Y726600D01*
X980800Y718600D02*
X967800Y718600D01*
X967800Y726600D01*
X980800Y735600D02*
X980800Y743600D01*
X967800Y743600D01*
X967800Y735600D01*
D14*
X974300Y724600D03*
X974300Y737600D03*
D15*
X977800Y731100D03*
X970800Y731100D03*
D11*
X686500Y560800D02*
X678500Y560800D01*
X686500Y560800D02*
X686500Y547800D01*
X678500Y547800D01*
X669500Y560800D02*
X661500Y560800D01*
X661500Y547800D01*
X669500Y547800D01*
D20*
X680500Y554300D03*
X667500Y554300D03*
D21*
X674000Y557800D03*
X674000Y550800D03*
D11*
X1315200Y567800D02*
X1323200Y567800D01*
X1323200Y554800D01*
X1315200Y554800D01*
X1306200Y567800D02*
X1298200Y567800D01*
X1298200Y554800D01*
X1306200Y554800D01*
D20*
X1317200Y561300D03*
X1304200Y561300D03*
D21*
X1310700Y564800D03*
X1310700Y557800D03*
D11*
X1260900Y567800D02*
X1252900Y567800D01*
X1260900Y567800D02*
X1260900Y554800D01*
X1252900Y554800D01*
X1243900Y567800D02*
X1235900Y567800D01*
X1235900Y554800D01*
X1243900Y554800D01*
D20*
X1254900Y561300D03*
X1241900Y561300D03*
D21*
X1248400Y564800D03*
X1248400Y557800D03*
D11*
X686500Y545800D02*
X678500Y545800D01*
X686500Y545800D02*
X686500Y532800D01*
X678500Y532800D01*
X669500Y545800D02*
X661500Y545800D01*
X661500Y532800D01*
X669500Y532800D01*
D20*
X680500Y539300D03*
X667500Y539300D03*
D21*
X674000Y542800D03*
X674000Y535800D03*
D11*
X678500Y530800D02*
X686500Y530800D01*
X686500Y517800D01*
X678500Y517800D01*
X669500Y530800D02*
X661500Y530800D01*
X661500Y517800D01*
X669500Y517800D01*
D20*
X680500Y524300D03*
X667500Y524300D03*
D21*
X674000Y527800D03*
X674000Y520800D03*
D11*
X678500Y514800D02*
X686500Y514800D01*
X686500Y501800D01*
X678500Y501800D01*
X669500Y514800D02*
X661500Y514800D01*
X661500Y501800D01*
X669500Y501800D01*
D20*
X680500Y508300D03*
X667500Y508300D03*
D21*
X674000Y511800D03*
X674000Y504800D03*
D11*
X682500Y741800D02*
X690500Y741800D01*
X690500Y728800D01*
X682500Y728800D01*
X673500Y741800D02*
X665500Y741800D01*
X665500Y728800D01*
X673500Y728800D01*
D20*
X684500Y735300D03*
X671500Y735300D03*
D21*
X678000Y738800D03*
X678000Y731800D03*
D11*
X682500Y755800D02*
X690500Y755800D01*
X690500Y742800D01*
X682500Y742800D01*
X673500Y755800D02*
X665500Y755800D01*
X665500Y742800D01*
X673500Y742800D01*
D20*
X684500Y749300D03*
X671500Y749300D03*
D21*
X678000Y752800D03*
X678000Y745800D03*
D11*
X682500Y770800D02*
X690500Y770800D01*
X690500Y757800D01*
X682500Y757800D01*
X673500Y770800D02*
X665500Y770800D01*
X665500Y757800D01*
X673500Y757800D01*
D20*
X684500Y764300D03*
X671500Y764300D03*
D21*
X678000Y767800D03*
X678000Y760800D03*
D11*
X682500Y785800D02*
X690500Y785800D01*
X690500Y772800D01*
X682500Y772800D01*
X673500Y785800D02*
X665500Y785800D01*
X665500Y772800D01*
X673500Y772800D01*
D20*
X684500Y779300D03*
X671500Y779300D03*
D21*
X678000Y782800D03*
X678000Y775800D03*
D11*
X680500Y675800D02*
X688500Y675800D01*
X688500Y662800D01*
X680500Y662800D01*
X671500Y675800D02*
X663500Y675800D01*
X663500Y662800D01*
X671500Y662800D01*
D20*
X682500Y669300D03*
X669500Y669300D03*
D21*
X676000Y672800D03*
X676000Y665800D03*
D11*
X680500Y660800D02*
X688500Y660800D01*
X688500Y647800D01*
X680500Y647800D01*
X671500Y660800D02*
X663500Y660800D01*
X663500Y647800D01*
X671500Y647800D01*
D20*
X682500Y654300D03*
X669500Y654300D03*
D21*
X676000Y657800D03*
X676000Y650800D03*
D11*
X680500Y645800D02*
X688500Y645800D01*
X688500Y632800D01*
X680500Y632800D01*
X671500Y645800D02*
X663500Y645800D01*
X663500Y632800D01*
X671500Y632800D01*
D20*
X682500Y639300D03*
X669500Y639300D03*
D21*
X676000Y642800D03*
X676000Y635800D03*
D11*
X680500Y630800D02*
X688500Y630800D01*
X688500Y617800D01*
X680500Y617800D01*
X671500Y630800D02*
X663500Y630800D01*
X663500Y617800D01*
X671500Y617800D01*
D20*
X682500Y624300D03*
X669500Y624300D03*
D21*
X676000Y627800D03*
X676000Y620800D03*
D11*
X681500Y851800D02*
X689500Y851800D01*
X689500Y838800D01*
X681500Y838800D01*
X672500Y851800D02*
X664500Y851800D01*
X664500Y838800D01*
X672500Y838800D01*
D20*
X683500Y845300D03*
X670500Y845300D03*
D21*
X677000Y848800D03*
X677000Y841800D03*
D11*
X681500Y866900D02*
X689500Y866900D01*
X689500Y853900D01*
X681500Y853900D01*
X672500Y866900D02*
X664500Y866900D01*
X664500Y853900D01*
X672500Y853900D01*
D20*
X683500Y860400D03*
X670500Y860400D03*
D21*
X677000Y863900D03*
X677000Y856900D03*
D11*
X681500Y881900D02*
X689500Y881900D01*
X689500Y868900D01*
X681500Y868900D01*
X672500Y881900D02*
X664500Y881900D01*
X664500Y868900D01*
X672500Y868900D01*
D20*
X683500Y875400D03*
X670500Y875400D03*
D21*
X677000Y878900D03*
X677000Y871900D03*
D11*
X681500Y896900D02*
X689500Y896900D01*
X689500Y883900D01*
X681500Y883900D01*
X672500Y896900D02*
X664500Y896900D01*
X664500Y883900D01*
X672500Y883900D01*
D20*
X683500Y890400D03*
X670500Y890400D03*
D21*
X677000Y893900D03*
X677000Y886900D03*
D11*
X1368900Y511500D02*
X1376900Y511500D01*
X1376900Y498500D01*
X1368900Y498500D01*
X1359900Y511500D02*
X1351900Y511500D01*
X1351900Y498500D01*
X1359900Y498500D01*
D20*
X1370900Y505000D03*
X1357900Y505000D03*
D21*
X1364400Y508500D03*
X1364400Y501500D03*
D11*
X1350000Y511500D02*
X1342000Y511500D01*
X1350000Y511500D02*
X1350000Y498500D01*
X1342000Y498500D01*
X1333000Y511500D02*
X1325000Y511500D01*
X1325000Y498500D01*
X1333000Y498500D01*
D20*
X1344000Y505000D03*
X1331000Y505000D03*
D21*
X1337500Y508500D03*
X1337500Y501500D03*
D11*
X953100Y735600D02*
X953100Y743600D01*
X966100Y743600D01*
X966100Y735600D01*
X953100Y726600D02*
X953100Y718600D01*
X966100Y718600D01*
X966100Y726600D01*
D14*
X959600Y737600D03*
X959600Y724600D03*
D15*
X956100Y731100D03*
X963100Y731100D03*
D11*
X1017600Y727000D02*
X1017600Y719000D01*
X1004600Y719000D01*
X1004600Y727000D01*
X1017600Y736000D02*
X1017600Y744000D01*
X1004600Y744000D01*
X1004600Y736000D01*
D14*
X1011100Y725000D03*
X1011100Y738000D03*
D15*
X1014600Y731500D03*
X1007600Y731500D03*
D11*
X1151600Y906100D02*
X1159600Y906100D01*
X1151600Y906100D02*
X1151600Y919100D01*
X1159600Y919100D01*
X1168600Y906100D02*
X1176600Y906100D01*
X1176600Y919100D01*
X1168600Y919100D01*
D20*
X1157600Y912600D03*
X1170600Y912600D03*
D21*
X1164100Y909100D03*
X1164100Y916100D03*
D11*
X1429500Y511600D02*
X1437500Y511600D01*
X1437500Y498600D01*
X1429500Y498600D01*
X1420500Y511600D02*
X1412500Y511600D01*
X1412500Y498600D01*
X1420500Y498600D01*
D20*
X1431500Y505100D03*
X1418500Y505100D03*
D21*
X1425000Y508600D03*
X1425000Y501600D03*
D11*
X1410600Y511600D02*
X1402600Y511600D01*
X1410600Y511600D02*
X1410600Y498600D01*
X1402600Y498600D01*
X1393600Y511600D02*
X1385600Y511600D01*
X1385600Y498600D01*
X1393600Y498600D01*
D20*
X1404600Y505100D03*
X1391600Y505100D03*
D21*
X1398100Y508600D03*
X1398100Y501600D03*
D11*
X1252900Y511600D02*
X1244900Y511600D01*
X1252900Y511600D02*
X1252900Y498600D01*
X1244900Y498600D01*
X1235900Y511600D02*
X1227900Y511600D01*
X1227900Y498600D01*
X1235900Y498600D01*
D20*
X1246900Y505100D03*
X1233900Y505100D03*
D21*
X1240400Y508600D03*
X1240400Y501600D03*
D11*
X1225800Y511600D02*
X1217800Y511600D01*
X1225800Y511600D02*
X1225800Y498600D01*
X1217800Y498600D01*
X1208800Y511600D02*
X1200800Y511600D01*
X1200800Y498600D01*
X1208800Y498600D01*
D20*
X1219800Y505100D03*
X1206800Y505100D03*
D21*
X1213300Y508600D03*
X1213300Y501600D03*
D11*
X1307300Y511600D02*
X1315300Y511600D01*
X1315300Y498600D01*
X1307300Y498600D01*
X1298300Y511600D02*
X1290300Y511600D01*
X1290300Y498600D01*
X1298300Y498600D01*
D20*
X1309300Y505100D03*
X1296300Y505100D03*
D21*
X1302800Y508600D03*
X1302800Y501600D03*
D11*
X1288200Y511600D02*
X1280200Y511600D01*
X1288200Y511600D02*
X1288200Y498600D01*
X1280200Y498600D01*
X1271200Y511600D02*
X1263200Y511600D01*
X1263200Y498600D01*
X1271200Y498600D01*
D20*
X1282200Y505100D03*
X1269200Y505100D03*
D21*
X1275700Y508600D03*
X1275700Y501600D03*
D11*
X1577500Y900100D02*
X1585500Y900100D01*
X1577500Y900100D02*
X1577500Y913100D01*
X1585500Y913100D01*
X1594500Y900100D02*
X1602500Y900100D01*
X1602500Y913100D01*
X1594500Y913100D01*
D20*
X1583500Y906600D03*
X1596500Y906600D03*
D21*
X1590000Y903100D03*
X1590000Y910100D03*
D11*
X1585500Y915100D02*
X1577500Y915100D01*
X1577500Y928100D01*
X1585500Y928100D01*
X1594500Y915100D02*
X1602500Y915100D01*
X1602500Y928100D01*
X1594500Y928100D01*
D20*
X1583500Y921600D03*
X1596500Y921600D03*
D21*
X1590000Y918100D03*
X1590000Y925100D03*
D11*
X1031900Y947700D02*
X1031900Y955700D01*
X1031900Y947700D02*
X1018900Y947700D01*
X1018900Y955700D01*
X1031900Y964700D02*
X1031900Y972700D01*
X1018900Y972700D01*
X1018900Y964700D01*
D14*
X1025400Y953700D03*
X1025400Y966700D03*
D15*
X1028900Y960200D03*
X1021900Y960200D03*
D28*
X1208080Y881000D02*
X1208080Y864800D01*
X1236520Y864800D01*
X1236520Y881000D01*
X1208080Y881000D01*
X1217080Y881000D02*
X1227520Y881000D01*
X1227520Y864800D02*
X1226580Y864800D01*
X1218020Y864800D02*
X1217080Y864800D01*
X1235580Y864800D02*
X1236520Y864800D01*
X1209020Y864800D02*
X1208080Y864800D01*
X1208080Y881000D02*
X1209020Y881000D01*
X1235580Y881000D02*
X1236520Y881000D01*
D27*
X1231300Y869900D02*
X1231302Y869963D01*
X1231308Y870025D01*
X1231318Y870087D01*
X1231331Y870149D01*
X1231349Y870209D01*
X1231370Y870268D01*
X1231395Y870326D01*
X1231424Y870382D01*
X1231456Y870436D01*
X1231491Y870488D01*
X1231529Y870537D01*
X1231571Y870585D01*
X1231615Y870629D01*
X1231663Y870671D01*
X1231712Y870709D01*
X1231764Y870744D01*
X1231818Y870776D01*
X1231874Y870805D01*
X1231932Y870830D01*
X1231991Y870851D01*
X1232051Y870869D01*
X1232113Y870882D01*
X1232175Y870892D01*
X1232237Y870898D01*
X1232300Y870900D01*
X1232363Y870898D01*
X1232425Y870892D01*
X1232487Y870882D01*
X1232549Y870869D01*
X1232609Y870851D01*
X1232668Y870830D01*
X1232726Y870805D01*
X1232782Y870776D01*
X1232836Y870744D01*
X1232888Y870709D01*
X1232937Y870671D01*
X1232985Y870629D01*
X1233029Y870585D01*
X1233071Y870537D01*
X1233109Y870488D01*
X1233144Y870436D01*
X1233176Y870382D01*
X1233205Y870326D01*
X1233230Y870268D01*
X1233251Y870209D01*
X1233269Y870149D01*
X1233282Y870087D01*
X1233292Y870025D01*
X1233298Y869963D01*
X1233300Y869900D01*
X1233298Y869837D01*
X1233292Y869775D01*
X1233282Y869713D01*
X1233269Y869651D01*
X1233251Y869591D01*
X1233230Y869532D01*
X1233205Y869474D01*
X1233176Y869418D01*
X1233144Y869364D01*
X1233109Y869312D01*
X1233071Y869263D01*
X1233029Y869215D01*
X1232985Y869171D01*
X1232937Y869129D01*
X1232888Y869091D01*
X1232836Y869056D01*
X1232782Y869024D01*
X1232726Y868995D01*
X1232668Y868970D01*
X1232609Y868949D01*
X1232549Y868931D01*
X1232487Y868918D01*
X1232425Y868908D01*
X1232363Y868902D01*
X1232300Y868900D01*
X1232237Y868902D01*
X1232175Y868908D01*
X1232113Y868918D01*
X1232051Y868931D01*
X1231991Y868949D01*
X1231932Y868970D01*
X1231874Y868995D01*
X1231818Y869024D01*
X1231764Y869056D01*
X1231712Y869091D01*
X1231663Y869129D01*
X1231615Y869171D01*
X1231571Y869215D01*
X1231529Y869263D01*
X1231491Y869312D01*
X1231456Y869364D01*
X1231424Y869418D01*
X1231395Y869474D01*
X1231370Y869532D01*
X1231349Y869591D01*
X1231331Y869651D01*
X1231318Y869713D01*
X1231308Y869775D01*
X1231302Y869837D01*
X1231300Y869900D01*
D31*
X1231800Y861150D03*
X1222300Y861150D03*
X1212800Y861150D03*
X1212800Y884650D03*
X1231800Y884650D03*
D28*
X1155750Y596642D02*
X1147876Y596642D01*
X1147876Y614676D01*
X1155750Y614676D01*
X1155750Y596642D01*
X1170736Y596642D02*
X1178610Y596642D01*
X1170736Y596642D02*
X1170736Y614676D01*
X1178610Y614676D01*
X1178610Y596642D01*
X1193850Y596642D02*
X1201724Y596642D01*
X1193850Y596642D02*
X1193850Y614676D01*
X1201724Y614676D01*
X1201724Y596642D01*
X1190294Y559558D02*
X1159306Y559558D01*
X1190294Y559558D02*
X1190294Y541524D01*
X1159306Y541524D01*
X1159306Y559558D01*
X1208328Y559558D02*
X1208328Y596642D01*
X1208328Y559558D02*
X1141272Y559558D01*
X1141272Y596642D01*
X1208328Y596642D01*
X1208328Y559558D01*
X1141272Y559558D01*
X1141272Y596642D01*
X1208328Y596642D01*
X759944Y595336D02*
X759944Y586192D01*
X709652Y586192D01*
X709652Y595336D01*
X759944Y595336D01*
X759944Y603210D02*
X759944Y612354D01*
X759944Y603210D02*
X709652Y603210D01*
X709652Y612354D01*
X759944Y612354D01*
X759944Y620228D02*
X759944Y622768D01*
X759944Y620228D02*
X709652Y620228D01*
X709652Y629372D01*
X759944Y629372D01*
X759944Y637246D02*
X759944Y646390D01*
X759944Y637246D02*
X709652Y637246D01*
X709652Y646390D01*
X759944Y646390D01*
X759944Y654264D02*
X759944Y663408D01*
X759944Y654264D02*
X709652Y654264D01*
X709652Y663408D01*
X759944Y663408D01*
X759944Y629372D02*
X759944Y626832D01*
X759944Y622768D01*
X756388Y623022D01*
X756388Y626832D01*
X759944Y626832D01*
X759944Y678140D02*
X759944Y571460D01*
X759944Y678140D02*
X868656Y678140D01*
X868656Y571460D01*
X759944Y571460D01*
D32*
X761412Y588951D02*
X765391Y588951D01*
X761412Y588951D02*
X758427Y591272D01*
X761412Y588951D02*
X758427Y586629D01*
X761412Y588951D02*
X762738Y592598D01*
X761412Y588951D02*
X762738Y585303D01*
D28*
X753848Y586192D02*
X744704Y586192D01*
X744704Y603210D02*
X753848Y603210D01*
X753848Y620228D02*
X744704Y620228D01*
X744704Y637246D02*
X753848Y637246D01*
X753848Y654264D02*
X744704Y654264D01*
X744704Y595336D02*
X753848Y595336D01*
X753848Y612354D02*
X744704Y612354D01*
X744704Y629372D02*
X753848Y629372D01*
X753848Y646390D02*
X744704Y646390D01*
X744704Y663408D02*
X753848Y663408D01*
X758928Y621752D02*
X758928Y570190D01*
X758928Y621752D02*
X754864Y621752D01*
X754864Y627848D01*
X758928Y627848D01*
X758928Y679410D01*
X869672Y679410D01*
X869672Y660868D01*
X869672Y570190D02*
X758928Y570190D01*
X869672Y570190D02*
X869672Y588732D01*
D32*
X726275Y574219D02*
X722296Y574219D01*
X719311Y576540D01*
X722296Y574219D02*
X719311Y571897D01*
X722296Y574219D02*
X723622Y577866D01*
X722296Y574219D02*
X723622Y570571D01*
D28*
X759944Y698492D02*
X759944Y707636D01*
X759944Y698492D02*
X709652Y698492D01*
X709652Y707636D01*
X759944Y707636D01*
X759944Y715510D02*
X759944Y724654D01*
X759944Y715510D02*
X709652Y715510D01*
X709652Y724654D01*
X759944Y724654D01*
X759944Y732528D02*
X759944Y735068D01*
X759944Y732528D02*
X709652Y732528D01*
X709652Y741672D01*
X759944Y741672D01*
X759944Y749546D02*
X759944Y758690D01*
X759944Y749546D02*
X709652Y749546D01*
X709652Y758690D01*
X759944Y758690D01*
X759944Y766564D02*
X759944Y775708D01*
X759944Y766564D02*
X709652Y766564D01*
X709652Y775708D01*
X759944Y775708D01*
X759944Y741672D02*
X759944Y739132D01*
X759944Y735068D01*
X756388Y735322D01*
X756388Y739132D01*
X759944Y739132D01*
X759944Y790440D02*
X759944Y683760D01*
X759944Y790440D02*
X868656Y790440D01*
X868656Y683760D01*
X759944Y683760D01*
D32*
X761412Y701251D02*
X765391Y701251D01*
X761412Y701251D02*
X758427Y703572D01*
X761412Y701251D02*
X758427Y698929D01*
X761412Y701251D02*
X762738Y704898D01*
X761412Y701251D02*
X762738Y697603D01*
D28*
X753848Y698492D02*
X744704Y698492D01*
X744704Y715510D02*
X753848Y715510D01*
X753848Y732528D02*
X744704Y732528D01*
X744704Y749546D02*
X753848Y749546D01*
X753848Y766564D02*
X744704Y766564D01*
X744704Y707636D02*
X753848Y707636D01*
X753848Y724654D02*
X744704Y724654D01*
X744704Y741672D02*
X753848Y741672D01*
X753848Y758690D02*
X744704Y758690D01*
X744704Y775708D02*
X753848Y775708D01*
X758928Y734052D02*
X758928Y682490D01*
X758928Y734052D02*
X754864Y734052D01*
X754864Y740148D01*
X758928Y740148D01*
X758928Y791710D01*
X869672Y791710D01*
X869672Y773168D01*
X869672Y682490D02*
X758928Y682490D01*
X869672Y682490D02*
X869672Y701032D01*
D32*
X726275Y686519D02*
X722296Y686519D01*
X719311Y688840D01*
X722296Y686519D02*
X719311Y684197D01*
X722296Y686519D02*
X723622Y690166D01*
X722296Y686519D02*
X723622Y682871D01*
D28*
X759944Y809892D02*
X759944Y819036D01*
X759944Y809892D02*
X709652Y809892D01*
X709652Y819036D01*
X759944Y819036D01*
X759944Y826910D02*
X759944Y836054D01*
X759944Y826910D02*
X709652Y826910D01*
X709652Y836054D01*
X759944Y836054D01*
X759944Y843928D02*
X759944Y846468D01*
X759944Y843928D02*
X709652Y843928D01*
X709652Y853072D01*
X759944Y853072D01*
X759944Y860946D02*
X759944Y870090D01*
X759944Y860946D02*
X709652Y860946D01*
X709652Y870090D01*
X759944Y870090D01*
X759944Y877964D02*
X759944Y887108D01*
X759944Y877964D02*
X709652Y877964D01*
X709652Y887108D01*
X759944Y887108D01*
X759944Y853072D02*
X759944Y850532D01*
X759944Y846468D01*
X756388Y846722D01*
X756388Y850532D01*
X759944Y850532D01*
X759944Y901840D02*
X759944Y795160D01*
X759944Y901840D02*
X868656Y901840D01*
X868656Y795160D01*
X759944Y795160D01*
D32*
X761412Y812651D02*
X765391Y812651D01*
X761412Y812651D02*
X758427Y814972D01*
X761412Y812651D02*
X758427Y810329D01*
X761412Y812651D02*
X762738Y816298D01*
X761412Y812651D02*
X762738Y809003D01*
D28*
X753848Y809892D02*
X744704Y809892D01*
X744704Y826910D02*
X753848Y826910D01*
X753848Y843928D02*
X744704Y843928D01*
X744704Y860946D02*
X753848Y860946D01*
X753848Y877964D02*
X744704Y877964D01*
X744704Y819036D02*
X753848Y819036D01*
X753848Y836054D02*
X744704Y836054D01*
X744704Y853072D02*
X753848Y853072D01*
X753848Y870090D02*
X744704Y870090D01*
X744704Y887108D02*
X753848Y887108D01*
X758928Y845452D02*
X758928Y793890D01*
X758928Y845452D02*
X754864Y845452D01*
X754864Y851548D01*
X758928Y851548D01*
X758928Y903110D01*
X869672Y903110D01*
X869672Y884568D01*
X869672Y793890D02*
X758928Y793890D01*
X869672Y793890D02*
X869672Y812432D01*
D32*
X726275Y797919D02*
X722296Y797919D01*
X719311Y800240D01*
X722296Y797919D02*
X719311Y795597D01*
X722296Y797919D02*
X723622Y801566D01*
X722296Y797919D02*
X723622Y794271D01*
D28*
X1295714Y529196D02*
X1304604Y529196D01*
X1325686Y529196D02*
X1325686Y538086D01*
X1325686Y529196D02*
X1316796Y529196D01*
X1295714Y529196D02*
X1295714Y532752D01*
X1295714Y538086D01*
X1298762Y536054D02*
X1298770Y535944D01*
X1298773Y535834D01*
X1298772Y535724D01*
X1298767Y535615D01*
X1298759Y535505D01*
X1298746Y535396D01*
X1298730Y535287D01*
X1298709Y535179D01*
X1298685Y535072D01*
X1298657Y534966D01*
X1298625Y534861D01*
X1298589Y534757D01*
X1298550Y534654D01*
X1298507Y534553D01*
X1298460Y534454D01*
X1298410Y534356D01*
X1298356Y534260D01*
X1298299Y534167D01*
X1298238Y534075D01*
X1298175Y533985D01*
X1298108Y533898D01*
X1298038Y533814D01*
X1297965Y533732D01*
X1297889Y533652D01*
X1297810Y533576D01*
X1297728Y533502D01*
X1297644Y533431D01*
X1297558Y533364D01*
X1297469Y533299D01*
X1297378Y533238D01*
X1297284Y533180D01*
X1297189Y533126D01*
X1297092Y533075D01*
X1296993Y533027D01*
X1296892Y532983D01*
X1296790Y532943D01*
X1296686Y532906D01*
X1296581Y532874D01*
X1296475Y532845D01*
X1296368Y532820D01*
X1296260Y532798D01*
X1296152Y532781D01*
X1296043Y532768D01*
X1295933Y532758D01*
X1295824Y532753D01*
X1295714Y532751D01*
D33*
X1325686Y529196D02*
X1325686Y542404D01*
X1325686Y529196D02*
X1313240Y529196D01*
X1308160Y529196D01*
X1295714Y529196D01*
X1295714Y532752D01*
X1295714Y538848D01*
X1295714Y542404D01*
X1299016Y542404D01*
X1304096Y542404D01*
X1317304Y542404D01*
X1299016Y542404D02*
X1299016Y548246D01*
X1304096Y548246D01*
X1304096Y542404D01*
X1322384Y542404D02*
X1325686Y542404D01*
X1322384Y542404D02*
X1317304Y542404D01*
X1317304Y548246D01*
X1322384Y548246D01*
X1322384Y542404D01*
X1313240Y529196D02*
X1313240Y523354D01*
X1308160Y523354D01*
X1308160Y529196D01*
X1295714Y532752D02*
X1295823Y532754D01*
X1295931Y532760D01*
X1296040Y532769D01*
X1296148Y532783D01*
X1296255Y532800D01*
X1296362Y532822D01*
X1296468Y532847D01*
X1296573Y532875D01*
X1296677Y532908D01*
X1296779Y532944D01*
X1296880Y532984D01*
X1296980Y533027D01*
X1297078Y533074D01*
X1297175Y533125D01*
X1297269Y533179D01*
X1297362Y533236D01*
X1297452Y533296D01*
X1297541Y533360D01*
X1297627Y533427D01*
X1297710Y533496D01*
X1297791Y533569D01*
X1297869Y533645D01*
X1297945Y533723D01*
X1298018Y533804D01*
X1298087Y533887D01*
X1298154Y533973D01*
X1298218Y534062D01*
X1298278Y534152D01*
X1298335Y534245D01*
X1298389Y534339D01*
X1298440Y534436D01*
X1298487Y534534D01*
X1298530Y534634D01*
X1298570Y534735D01*
X1298606Y534837D01*
X1298639Y534941D01*
X1298667Y535046D01*
X1298692Y535152D01*
X1298714Y535259D01*
X1298731Y535366D01*
X1298745Y535474D01*
X1298754Y535583D01*
X1298760Y535691D01*
X1298762Y535800D01*
X1298760Y535909D01*
X1298754Y536017D01*
X1298745Y536126D01*
X1298731Y536234D01*
X1298714Y536341D01*
X1298692Y536448D01*
X1298667Y536554D01*
X1298639Y536659D01*
X1298606Y536763D01*
X1298570Y536865D01*
X1298530Y536966D01*
X1298487Y537066D01*
X1298440Y537164D01*
X1298389Y537261D01*
X1298335Y537355D01*
X1298278Y537448D01*
X1298218Y537538D01*
X1298154Y537627D01*
X1298087Y537713D01*
X1298018Y537796D01*
X1297945Y537877D01*
X1297869Y537955D01*
X1297791Y538031D01*
X1297710Y538104D01*
X1297627Y538173D01*
X1297541Y538240D01*
X1297452Y538304D01*
X1297362Y538364D01*
X1297269Y538421D01*
X1297175Y538475D01*
X1297078Y538526D01*
X1296980Y538573D01*
X1296880Y538616D01*
X1296779Y538656D01*
X1296677Y538692D01*
X1296573Y538725D01*
X1296468Y538753D01*
X1296362Y538778D01*
X1296255Y538800D01*
X1296148Y538817D01*
X1296040Y538831D01*
X1295931Y538840D01*
X1295823Y538846D01*
X1295714Y538848D01*
D28*
X1242604Y529196D02*
X1233714Y529196D01*
X1263686Y529196D02*
X1263686Y538086D01*
X1263686Y529196D02*
X1254796Y529196D01*
X1233714Y529196D02*
X1233714Y532752D01*
X1233714Y538086D01*
X1236762Y536054D02*
X1236770Y535944D01*
X1236773Y535834D01*
X1236772Y535724D01*
X1236767Y535615D01*
X1236759Y535505D01*
X1236746Y535396D01*
X1236730Y535287D01*
X1236709Y535179D01*
X1236685Y535072D01*
X1236657Y534966D01*
X1236625Y534861D01*
X1236589Y534757D01*
X1236550Y534654D01*
X1236507Y534553D01*
X1236460Y534454D01*
X1236410Y534356D01*
X1236356Y534260D01*
X1236299Y534167D01*
X1236238Y534075D01*
X1236175Y533985D01*
X1236108Y533898D01*
X1236038Y533814D01*
X1235965Y533732D01*
X1235889Y533652D01*
X1235810Y533576D01*
X1235728Y533502D01*
X1235644Y533431D01*
X1235558Y533364D01*
X1235469Y533299D01*
X1235378Y533238D01*
X1235284Y533180D01*
X1235189Y533126D01*
X1235092Y533075D01*
X1234993Y533027D01*
X1234892Y532983D01*
X1234790Y532943D01*
X1234686Y532906D01*
X1234581Y532874D01*
X1234475Y532845D01*
X1234368Y532820D01*
X1234260Y532798D01*
X1234152Y532781D01*
X1234043Y532768D01*
X1233933Y532758D01*
X1233824Y532753D01*
X1233714Y532751D01*
D33*
X1263686Y529196D02*
X1263686Y542404D01*
X1263686Y529196D02*
X1251240Y529196D01*
X1246160Y529196D01*
X1233714Y529196D01*
X1233714Y532752D01*
X1233714Y538848D01*
X1233714Y542404D01*
X1237016Y542404D01*
X1242096Y542404D01*
X1255304Y542404D01*
X1237016Y542404D02*
X1237016Y548246D01*
X1242096Y548246D01*
X1242096Y542404D01*
X1260384Y542404D02*
X1263686Y542404D01*
X1260384Y542404D02*
X1255304Y542404D01*
X1255304Y548246D01*
X1260384Y548246D01*
X1260384Y542404D01*
X1251240Y529196D02*
X1251240Y523354D01*
X1246160Y523354D01*
X1246160Y529196D01*
X1233714Y532752D02*
X1233823Y532754D01*
X1233931Y532760D01*
X1234040Y532769D01*
X1234148Y532783D01*
X1234255Y532800D01*
X1234362Y532822D01*
X1234468Y532847D01*
X1234573Y532875D01*
X1234677Y532908D01*
X1234779Y532944D01*
X1234880Y532984D01*
X1234980Y533027D01*
X1235078Y533074D01*
X1235175Y533125D01*
X1235269Y533179D01*
X1235362Y533236D01*
X1235452Y533296D01*
X1235541Y533360D01*
X1235627Y533427D01*
X1235710Y533496D01*
X1235791Y533569D01*
X1235869Y533645D01*
X1235945Y533723D01*
X1236018Y533804D01*
X1236087Y533887D01*
X1236154Y533973D01*
X1236218Y534062D01*
X1236278Y534152D01*
X1236335Y534245D01*
X1236389Y534339D01*
X1236440Y534436D01*
X1236487Y534534D01*
X1236530Y534634D01*
X1236570Y534735D01*
X1236606Y534837D01*
X1236639Y534941D01*
X1236667Y535046D01*
X1236692Y535152D01*
X1236714Y535259D01*
X1236731Y535366D01*
X1236745Y535474D01*
X1236754Y535583D01*
X1236760Y535691D01*
X1236762Y535800D01*
X1236760Y535909D01*
X1236754Y536017D01*
X1236745Y536126D01*
X1236731Y536234D01*
X1236714Y536341D01*
X1236692Y536448D01*
X1236667Y536554D01*
X1236639Y536659D01*
X1236606Y536763D01*
X1236570Y536865D01*
X1236530Y536966D01*
X1236487Y537066D01*
X1236440Y537164D01*
X1236389Y537261D01*
X1236335Y537355D01*
X1236278Y537448D01*
X1236218Y537538D01*
X1236154Y537627D01*
X1236087Y537713D01*
X1236018Y537796D01*
X1235945Y537877D01*
X1235869Y537955D01*
X1235791Y538031D01*
X1235710Y538104D01*
X1235627Y538173D01*
X1235541Y538240D01*
X1235452Y538304D01*
X1235362Y538364D01*
X1235269Y538421D01*
X1235175Y538475D01*
X1235078Y538526D01*
X1234980Y538573D01*
X1234880Y538616D01*
X1234779Y538656D01*
X1234677Y538692D01*
X1234573Y538725D01*
X1234468Y538753D01*
X1234362Y538778D01*
X1234255Y538800D01*
X1234148Y538817D01*
X1234040Y538831D01*
X1233931Y538840D01*
X1233823Y538846D01*
X1233714Y538848D01*
D28*
X1085750Y596442D02*
X1077876Y596442D01*
X1077876Y614476D01*
X1085750Y614476D01*
X1085750Y596442D01*
X1100736Y596442D02*
X1108610Y596442D01*
X1100736Y596442D02*
X1100736Y614476D01*
X1108610Y614476D01*
X1108610Y596442D01*
X1123850Y596442D02*
X1131724Y596442D01*
X1123850Y596442D02*
X1123850Y614476D01*
X1131724Y614476D01*
X1131724Y596442D01*
X1120294Y559358D02*
X1089306Y559358D01*
X1120294Y559358D02*
X1120294Y541324D01*
X1089306Y541324D01*
X1089306Y559358D01*
X1138328Y559358D02*
X1138328Y596442D01*
X1138328Y559358D02*
X1071272Y559358D01*
X1071272Y596442D01*
X1138328Y596442D01*
X1138328Y559358D01*
X1071272Y559358D01*
X1071272Y596442D01*
X1138328Y596442D01*
X1417714Y528196D02*
X1426604Y528196D01*
X1447686Y528196D02*
X1447686Y537086D01*
X1447686Y528196D02*
X1438796Y528196D01*
X1417714Y528196D02*
X1417714Y531752D01*
X1417714Y537086D01*
X1420762Y535054D02*
X1420770Y534944D01*
X1420773Y534834D01*
X1420772Y534724D01*
X1420767Y534615D01*
X1420759Y534505D01*
X1420746Y534396D01*
X1420730Y534287D01*
X1420709Y534179D01*
X1420685Y534072D01*
X1420657Y533966D01*
X1420625Y533861D01*
X1420589Y533757D01*
X1420550Y533654D01*
X1420507Y533553D01*
X1420460Y533454D01*
X1420410Y533356D01*
X1420356Y533260D01*
X1420299Y533167D01*
X1420238Y533075D01*
X1420175Y532985D01*
X1420108Y532898D01*
X1420038Y532814D01*
X1419965Y532732D01*
X1419889Y532652D01*
X1419810Y532576D01*
X1419728Y532502D01*
X1419644Y532431D01*
X1419558Y532364D01*
X1419469Y532299D01*
X1419378Y532238D01*
X1419284Y532180D01*
X1419189Y532126D01*
X1419092Y532075D01*
X1418993Y532027D01*
X1418892Y531983D01*
X1418790Y531943D01*
X1418686Y531906D01*
X1418581Y531874D01*
X1418475Y531845D01*
X1418368Y531820D01*
X1418260Y531798D01*
X1418152Y531781D01*
X1418043Y531768D01*
X1417933Y531758D01*
X1417824Y531753D01*
X1417714Y531751D01*
D33*
X1447686Y528196D02*
X1447686Y541404D01*
X1447686Y528196D02*
X1435240Y528196D01*
X1430160Y528196D01*
X1417714Y528196D01*
X1417714Y531752D01*
X1417714Y537848D01*
X1417714Y541404D01*
X1421016Y541404D01*
X1426096Y541404D01*
X1439304Y541404D01*
X1421016Y541404D02*
X1421016Y547246D01*
X1426096Y547246D01*
X1426096Y541404D01*
X1444384Y541404D02*
X1447686Y541404D01*
X1444384Y541404D02*
X1439304Y541404D01*
X1439304Y547246D01*
X1444384Y547246D01*
X1444384Y541404D01*
X1435240Y528196D02*
X1435240Y522354D01*
X1430160Y522354D01*
X1430160Y528196D01*
X1417714Y531752D02*
X1417823Y531754D01*
X1417931Y531760D01*
X1418040Y531769D01*
X1418148Y531783D01*
X1418255Y531800D01*
X1418362Y531822D01*
X1418468Y531847D01*
X1418573Y531875D01*
X1418677Y531908D01*
X1418779Y531944D01*
X1418880Y531984D01*
X1418980Y532027D01*
X1419078Y532074D01*
X1419175Y532125D01*
X1419269Y532179D01*
X1419362Y532236D01*
X1419452Y532296D01*
X1419541Y532360D01*
X1419627Y532427D01*
X1419710Y532496D01*
X1419791Y532569D01*
X1419869Y532645D01*
X1419945Y532723D01*
X1420018Y532804D01*
X1420087Y532887D01*
X1420154Y532973D01*
X1420218Y533062D01*
X1420278Y533152D01*
X1420335Y533245D01*
X1420389Y533339D01*
X1420440Y533436D01*
X1420487Y533534D01*
X1420530Y533634D01*
X1420570Y533735D01*
X1420606Y533837D01*
X1420639Y533941D01*
X1420667Y534046D01*
X1420692Y534152D01*
X1420714Y534259D01*
X1420731Y534366D01*
X1420745Y534474D01*
X1420754Y534583D01*
X1420760Y534691D01*
X1420762Y534800D01*
X1420760Y534909D01*
X1420754Y535017D01*
X1420745Y535126D01*
X1420731Y535234D01*
X1420714Y535341D01*
X1420692Y535448D01*
X1420667Y535554D01*
X1420639Y535659D01*
X1420606Y535763D01*
X1420570Y535865D01*
X1420530Y535966D01*
X1420487Y536066D01*
X1420440Y536164D01*
X1420389Y536261D01*
X1420335Y536355D01*
X1420278Y536448D01*
X1420218Y536538D01*
X1420154Y536627D01*
X1420087Y536713D01*
X1420018Y536796D01*
X1419945Y536877D01*
X1419869Y536955D01*
X1419791Y537031D01*
X1419710Y537104D01*
X1419627Y537173D01*
X1419541Y537240D01*
X1419452Y537304D01*
X1419362Y537364D01*
X1419269Y537421D01*
X1419175Y537475D01*
X1419078Y537526D01*
X1418980Y537573D01*
X1418880Y537616D01*
X1418779Y537656D01*
X1418677Y537692D01*
X1418573Y537725D01*
X1418468Y537753D01*
X1418362Y537778D01*
X1418255Y537800D01*
X1418148Y537817D01*
X1418040Y537831D01*
X1417931Y537840D01*
X1417823Y537846D01*
X1417714Y537848D01*
D28*
X1366604Y528196D02*
X1357714Y528196D01*
X1387686Y528196D02*
X1387686Y537086D01*
X1387686Y528196D02*
X1378796Y528196D01*
X1357714Y528196D02*
X1357714Y531752D01*
X1357714Y537086D01*
X1360762Y535054D02*
X1360770Y534944D01*
X1360773Y534834D01*
X1360772Y534724D01*
X1360767Y534615D01*
X1360759Y534505D01*
X1360746Y534396D01*
X1360730Y534287D01*
X1360709Y534179D01*
X1360685Y534072D01*
X1360657Y533966D01*
X1360625Y533861D01*
X1360589Y533757D01*
X1360550Y533654D01*
X1360507Y533553D01*
X1360460Y533454D01*
X1360410Y533356D01*
X1360356Y533260D01*
X1360299Y533167D01*
X1360238Y533075D01*
X1360175Y532985D01*
X1360108Y532898D01*
X1360038Y532814D01*
X1359965Y532732D01*
X1359889Y532652D01*
X1359810Y532576D01*
X1359728Y532502D01*
X1359644Y532431D01*
X1359558Y532364D01*
X1359469Y532299D01*
X1359378Y532238D01*
X1359284Y532180D01*
X1359189Y532126D01*
X1359092Y532075D01*
X1358993Y532027D01*
X1358892Y531983D01*
X1358790Y531943D01*
X1358686Y531906D01*
X1358581Y531874D01*
X1358475Y531845D01*
X1358368Y531820D01*
X1358260Y531798D01*
X1358152Y531781D01*
X1358043Y531768D01*
X1357933Y531758D01*
X1357824Y531753D01*
X1357714Y531751D01*
D33*
X1387686Y528196D02*
X1387686Y541404D01*
X1387686Y528196D02*
X1375240Y528196D01*
X1370160Y528196D01*
X1357714Y528196D01*
X1357714Y531752D01*
X1357714Y537848D01*
X1357714Y541404D01*
X1361016Y541404D01*
X1366096Y541404D01*
X1379304Y541404D01*
X1361016Y541404D02*
X1361016Y547246D01*
X1366096Y547246D01*
X1366096Y541404D01*
X1384384Y541404D02*
X1387686Y541404D01*
X1384384Y541404D02*
X1379304Y541404D01*
X1379304Y547246D01*
X1384384Y547246D01*
X1384384Y541404D01*
X1375240Y528196D02*
X1375240Y522354D01*
X1370160Y522354D01*
X1370160Y528196D01*
X1357714Y531752D02*
X1357823Y531754D01*
X1357931Y531760D01*
X1358040Y531769D01*
X1358148Y531783D01*
X1358255Y531800D01*
X1358362Y531822D01*
X1358468Y531847D01*
X1358573Y531875D01*
X1358677Y531908D01*
X1358779Y531944D01*
X1358880Y531984D01*
X1358980Y532027D01*
X1359078Y532074D01*
X1359175Y532125D01*
X1359269Y532179D01*
X1359362Y532236D01*
X1359452Y532296D01*
X1359541Y532360D01*
X1359627Y532427D01*
X1359710Y532496D01*
X1359791Y532569D01*
X1359869Y532645D01*
X1359945Y532723D01*
X1360018Y532804D01*
X1360087Y532887D01*
X1360154Y532973D01*
X1360218Y533062D01*
X1360278Y533152D01*
X1360335Y533245D01*
X1360389Y533339D01*
X1360440Y533436D01*
X1360487Y533534D01*
X1360530Y533634D01*
X1360570Y533735D01*
X1360606Y533837D01*
X1360639Y533941D01*
X1360667Y534046D01*
X1360692Y534152D01*
X1360714Y534259D01*
X1360731Y534366D01*
X1360745Y534474D01*
X1360754Y534583D01*
X1360760Y534691D01*
X1360762Y534800D01*
X1360760Y534909D01*
X1360754Y535017D01*
X1360745Y535126D01*
X1360731Y535234D01*
X1360714Y535341D01*
X1360692Y535448D01*
X1360667Y535554D01*
X1360639Y535659D01*
X1360606Y535763D01*
X1360570Y535865D01*
X1360530Y535966D01*
X1360487Y536066D01*
X1360440Y536164D01*
X1360389Y536261D01*
X1360335Y536355D01*
X1360278Y536448D01*
X1360218Y536538D01*
X1360154Y536627D01*
X1360087Y536713D01*
X1360018Y536796D01*
X1359945Y536877D01*
X1359869Y536955D01*
X1359791Y537031D01*
X1359710Y537104D01*
X1359627Y537173D01*
X1359541Y537240D01*
X1359452Y537304D01*
X1359362Y537364D01*
X1359269Y537421D01*
X1359175Y537475D01*
X1359078Y537526D01*
X1358980Y537573D01*
X1358880Y537616D01*
X1358779Y537656D01*
X1358677Y537692D01*
X1358573Y537725D01*
X1358468Y537753D01*
X1358362Y537778D01*
X1358255Y537800D01*
X1358148Y537817D01*
X1358040Y537831D01*
X1357931Y537840D01*
X1357823Y537846D01*
X1357714Y537848D01*
D28*
X759944Y483036D02*
X759944Y473892D01*
X709652Y473892D01*
X709652Y483036D01*
X759944Y483036D01*
X759944Y490910D02*
X759944Y500054D01*
X759944Y490910D02*
X709652Y490910D01*
X709652Y500054D01*
X759944Y500054D01*
X759944Y507928D02*
X759944Y510468D01*
X759944Y507928D02*
X709652Y507928D01*
X709652Y517072D01*
X759944Y517072D01*
X759944Y524946D02*
X759944Y534090D01*
X759944Y524946D02*
X709652Y524946D01*
X709652Y534090D01*
X759944Y534090D01*
X759944Y541964D02*
X759944Y551108D01*
X759944Y541964D02*
X709652Y541964D01*
X709652Y551108D01*
X759944Y551108D01*
X759944Y517072D02*
X759944Y514532D01*
X759944Y510468D01*
X756388Y510722D01*
X756388Y514532D01*
X759944Y514532D01*
X759944Y565840D02*
X759944Y459160D01*
X759944Y565840D02*
X868656Y565840D01*
X868656Y459160D01*
X759944Y459160D01*
D32*
X761412Y476651D02*
X765391Y476651D01*
X761412Y476651D02*
X758427Y478972D01*
X761412Y476651D02*
X758427Y474329D01*
X761412Y476651D02*
X762738Y480298D01*
X761412Y476651D02*
X762738Y473003D01*
D28*
X753848Y473892D02*
X744704Y473892D01*
X744704Y490910D02*
X753848Y490910D01*
X753848Y507928D02*
X744704Y507928D01*
X744704Y524946D02*
X753848Y524946D01*
X753848Y541964D02*
X744704Y541964D01*
X744704Y483036D02*
X753848Y483036D01*
X753848Y500054D02*
X744704Y500054D01*
X744704Y517072D02*
X753848Y517072D01*
X753848Y534090D02*
X744704Y534090D01*
X744704Y551108D02*
X753848Y551108D01*
X758928Y509452D02*
X758928Y457890D01*
X758928Y509452D02*
X754864Y509452D01*
X754864Y515548D01*
X758928Y515548D01*
X758928Y567110D01*
X869672Y567110D01*
X869672Y548568D01*
X869672Y457890D02*
X758928Y457890D01*
X869672Y457890D02*
X869672Y476432D01*
D32*
X726275Y461919D02*
X722296Y461919D01*
X719311Y464240D01*
X722296Y461919D02*
X719311Y459597D01*
X722296Y461919D02*
X723622Y465566D01*
X722296Y461919D02*
X723622Y458271D01*
D10*
X1039900Y968400D02*
X1039902Y968463D01*
X1039908Y968525D01*
X1039918Y968587D01*
X1039931Y968649D01*
X1039949Y968709D01*
X1039970Y968768D01*
X1039995Y968826D01*
X1040024Y968882D01*
X1040056Y968936D01*
X1040091Y968988D01*
X1040129Y969037D01*
X1040171Y969085D01*
X1040215Y969129D01*
X1040263Y969171D01*
X1040312Y969209D01*
X1040364Y969244D01*
X1040418Y969276D01*
X1040474Y969305D01*
X1040532Y969330D01*
X1040591Y969351D01*
X1040651Y969369D01*
X1040713Y969382D01*
X1040775Y969392D01*
X1040837Y969398D01*
X1040900Y969400D01*
X1040963Y969398D01*
X1041025Y969392D01*
X1041087Y969382D01*
X1041149Y969369D01*
X1041209Y969351D01*
X1041268Y969330D01*
X1041326Y969305D01*
X1041382Y969276D01*
X1041436Y969244D01*
X1041488Y969209D01*
X1041537Y969171D01*
X1041585Y969129D01*
X1041629Y969085D01*
X1041671Y969037D01*
X1041709Y968988D01*
X1041744Y968936D01*
X1041776Y968882D01*
X1041805Y968826D01*
X1041830Y968768D01*
X1041851Y968709D01*
X1041869Y968649D01*
X1041882Y968587D01*
X1041892Y968525D01*
X1041898Y968463D01*
X1041900Y968400D01*
X1041898Y968337D01*
X1041892Y968275D01*
X1041882Y968213D01*
X1041869Y968151D01*
X1041851Y968091D01*
X1041830Y968032D01*
X1041805Y967974D01*
X1041776Y967918D01*
X1041744Y967864D01*
X1041709Y967812D01*
X1041671Y967763D01*
X1041629Y967715D01*
X1041585Y967671D01*
X1041537Y967629D01*
X1041488Y967591D01*
X1041436Y967556D01*
X1041382Y967524D01*
X1041326Y967495D01*
X1041268Y967470D01*
X1041209Y967449D01*
X1041149Y967431D01*
X1041087Y967418D01*
X1041025Y967408D01*
X1040963Y967402D01*
X1040900Y967400D01*
X1040837Y967402D01*
X1040775Y967408D01*
X1040713Y967418D01*
X1040651Y967431D01*
X1040591Y967449D01*
X1040532Y967470D01*
X1040474Y967495D01*
X1040418Y967524D01*
X1040364Y967556D01*
X1040312Y967591D01*
X1040263Y967629D01*
X1040215Y967671D01*
X1040171Y967715D01*
X1040129Y967763D01*
X1040091Y967812D01*
X1040056Y967864D01*
X1040024Y967918D01*
X1039995Y967974D01*
X1039970Y968032D01*
X1039949Y968091D01*
X1039931Y968151D01*
X1039918Y968213D01*
X1039908Y968275D01*
X1039902Y968337D01*
X1039900Y968400D01*
X1039902Y968463D01*
X1039908Y968525D01*
X1039918Y968587D01*
X1039931Y968649D01*
X1039949Y968709D01*
X1039970Y968768D01*
X1039995Y968826D01*
X1040024Y968882D01*
X1040056Y968936D01*
X1040091Y968988D01*
X1040129Y969037D01*
X1040171Y969085D01*
X1040215Y969129D01*
X1040263Y969171D01*
X1040312Y969209D01*
X1040364Y969244D01*
X1040418Y969276D01*
X1040474Y969305D01*
X1040532Y969330D01*
X1040591Y969351D01*
X1040651Y969369D01*
X1040713Y969382D01*
X1040775Y969392D01*
X1040837Y969398D01*
X1040900Y969400D01*
X1040963Y969398D01*
X1041025Y969392D01*
X1041087Y969382D01*
X1041149Y969369D01*
X1041209Y969351D01*
X1041268Y969330D01*
X1041326Y969305D01*
X1041382Y969276D01*
X1041436Y969244D01*
X1041488Y969209D01*
X1041537Y969171D01*
X1041585Y969129D01*
X1041629Y969085D01*
X1041671Y969037D01*
X1041709Y968988D01*
X1041744Y968936D01*
X1041776Y968882D01*
X1041805Y968826D01*
X1041830Y968768D01*
X1041851Y968709D01*
X1041869Y968649D01*
X1041882Y968587D01*
X1041892Y968525D01*
X1041898Y968463D01*
X1041900Y968400D01*
X1041898Y968337D01*
X1041892Y968275D01*
X1041882Y968213D01*
X1041869Y968151D01*
X1041851Y968091D01*
X1041830Y968032D01*
X1041805Y967974D01*
X1041776Y967918D01*
X1041744Y967864D01*
X1041709Y967812D01*
X1041671Y967763D01*
X1041629Y967715D01*
X1041585Y967671D01*
X1041537Y967629D01*
X1041488Y967591D01*
X1041436Y967556D01*
X1041382Y967524D01*
X1041326Y967495D01*
X1041268Y967470D01*
X1041209Y967449D01*
X1041149Y967431D01*
X1041087Y967418D01*
X1041025Y967408D01*
X1040963Y967402D01*
X1040900Y967400D01*
X1040837Y967402D01*
X1040775Y967408D01*
X1040713Y967418D01*
X1040651Y967431D01*
X1040591Y967449D01*
X1040532Y967470D01*
X1040474Y967495D01*
X1040418Y967524D01*
X1040364Y967556D01*
X1040312Y967591D01*
X1040263Y967629D01*
X1040215Y967671D01*
X1040171Y967715D01*
X1040129Y967763D01*
X1040091Y967812D01*
X1040056Y967864D01*
X1040024Y967918D01*
X1039995Y967974D01*
X1039970Y968032D01*
X1039949Y968091D01*
X1039931Y968151D01*
X1039918Y968213D01*
X1039908Y968275D01*
X1039902Y968337D01*
X1039900Y968400D01*
D27*
X1024100Y912450D02*
X1127700Y912450D01*
X1127700Y823450D01*
X1024100Y823450D01*
X1024100Y912450D01*
X1127700Y912450D01*
X1024100Y912450D02*
X1024100Y896400D01*
X1127700Y896400D02*
X1127700Y912450D01*
X1127700Y804900D02*
X1024100Y804900D01*
M02*
