G04 EAGLE Gerber RS-274X export*
G75*
%MOMM*%
%FSLAX34Y34*%
%LPD*%
%INSilkscreen Bottom*%
%IPPOS*%
%AMOC8*
5,1,8,0,0,1.08239X$1,22.5*%
G01*
%ADD10R,0.038100X1.828800*%
%ADD11R,0.038100X2.971800*%
%ADD12R,0.038100X2.057400*%
%ADD13R,0.038100X3.048000*%
%ADD14R,0.038100X3.124200*%
%ADD15R,0.038100X2.209800*%
%ADD16R,0.038100X3.276600*%
%ADD17R,0.038100X2.286000*%
%ADD18R,0.038100X3.162300*%
%ADD19R,0.038100X3.390900*%
%ADD20R,0.038100X2.362200*%
%ADD21R,0.038100X3.467100*%
%ADD22R,0.038100X2.438400*%
%ADD23R,0.038100X0.266700*%
%ADD24R,0.038100X0.190500*%
%ADD25R,0.038100X3.429000*%
%ADD26R,0.038100X0.342900*%
%ADD27R,0.038100X0.228600*%
%ADD28R,0.038100X0.381000*%
%ADD29R,0.038100X1.181100*%
%ADD30R,0.038100X0.304800*%
%ADD31R,0.038100X0.800100*%
%ADD32R,0.038100X0.457200*%
%ADD33R,0.038100X0.762000*%
%ADD34R,0.038100X0.723900*%
%ADD35R,0.038100X0.152400*%
%ADD36R,0.038100X0.533400*%
%ADD37R,0.038100X0.685800*%
%ADD38R,0.038100X0.495300*%
%ADD39R,0.038100X0.419100*%
%ADD40R,0.038100X0.647700*%
%ADD41R,0.038100X0.990600*%
%ADD42R,0.038100X0.114300*%
%ADD43R,0.038100X1.257300*%
%ADD44R,0.038100X1.143000*%
%ADD45R,0.038100X0.609600*%
%ADD46R,0.038100X2.019300*%
%ADD47R,0.038100X1.066800*%
%ADD48R,0.038100X0.571500*%
%ADD49R,0.038100X2.476500*%
%ADD50R,0.038100X1.295400*%
%ADD51R,0.038100X2.667000*%
%ADD52R,0.038100X1.371600*%
%ADD53R,0.038100X2.781300*%
%ADD54R,0.038100X1.447800*%
%ADD55R,0.038100X2.857500*%
%ADD56R,0.038100X1.485900*%
%ADD57R,0.038100X2.933700*%
%ADD58R,0.038100X1.524000*%
%ADD59R,0.038100X1.562100*%
%ADD60R,0.038100X1.600200*%
%ADD61R,0.038100X1.638300*%
%ADD62R,0.038100X1.676400*%
%ADD63R,0.038100X2.628900*%
%ADD64R,0.038100X2.895600*%
%ADD65R,0.038100X3.009900*%
%ADD66R,0.038100X3.086100*%
%ADD67R,0.038100X2.552700*%
%ADD68R,0.038100X1.714500*%
%ADD69R,0.038100X1.409700*%
%ADD70R,0.038100X0.038100*%
%ADD71R,0.038100X2.819400*%
%ADD72R,0.038100X2.743200*%
%ADD73R,0.038100X2.590800*%
%ADD74R,0.038100X2.247900*%
%ADD75R,0.038100X1.104900*%
%ADD76R,0.038100X1.028700*%
%ADD77C,0.200000*%
%ADD78C,0.100000*%
%ADD79C,0.200000*%
%ADD80C,0.056000*%
%ADD81C,0.056000*%
%ADD82R,0.300000X0.800000*%
%ADD83R,1.600000X0.100000*%
%ADD84C,0.101600*%
%ADD85C,0.203200*%
%ADD86R,0.125000X1.200000*%
%ADD87R,0.300000X1.250000*%
%ADD88R,0.800000X0.300000*%
%ADD89R,0.100000X1.600000*%
%ADD90R,0.450000X1.250000*%
%ADD91R,2.000000X0.100000*%
%ADD92R,1.600000X0.500000*%
%ADD93R,0.100000X3.600000*%
%ADD94R,0.500000X1.600000*%
%ADD95R,3.600000X0.100000*%
%ADD96R,1.200000X0.125000*%
%ADD97R,1.250000X0.300000*%
%ADD98C,0.050000*%
%ADD99C,0.152400*%
%ADD100R,0.457200X0.584200*%
%ADD101R,0.584200X0.457200*%
%ADD102C,0.127000*%
%ADD103R,0.650000X0.500000*%


D10*
X782651Y486283D03*
D11*
X782651Y519049D03*
D12*
X783032Y486283D03*
D13*
X783032Y518668D03*
D14*
X783413Y452374D03*
D15*
X783413Y486283D03*
D14*
X783413Y518668D03*
D16*
X783794Y452374D03*
D17*
X783794Y486283D03*
D18*
X783794Y518477D03*
D19*
X784175Y452564D03*
D20*
X784175Y486283D03*
D18*
X784175Y518477D03*
D21*
X784556Y452564D03*
D22*
X784556Y486283D03*
D23*
X784556Y503999D03*
D24*
X784556Y533336D03*
D25*
X784937Y452755D03*
D26*
X784937Y475424D03*
X784937Y497141D03*
D27*
X784937Y503809D03*
X784937Y533146D03*
D28*
X785318Y437515D03*
D23*
X785318Y468566D03*
X785318Y475043D03*
X785318Y497522D03*
D24*
X785318Y503618D03*
D27*
X785318Y533146D03*
D23*
X785699Y437324D03*
X785699Y468566D03*
X785699Y474662D03*
X785699Y497903D03*
D24*
X785699Y503618D03*
D27*
X785699Y532765D03*
D23*
X786080Y437705D03*
X786080Y468566D03*
X786080Y474662D03*
X786080Y497903D03*
D24*
X786080Y503618D03*
D27*
X786080Y532384D03*
D23*
X786461Y438086D03*
X786461Y468566D03*
D27*
X786461Y474472D03*
X786461Y498094D03*
D24*
X786461Y503618D03*
D27*
X786461Y532003D03*
D23*
X786842Y438467D03*
X786842Y468566D03*
D27*
X786842Y474472D03*
D23*
X786842Y498284D03*
D24*
X786842Y503618D03*
D27*
X786842Y531622D03*
D23*
X787223Y438848D03*
X787223Y468566D03*
D27*
X787223Y474472D03*
D23*
X787223Y498284D03*
D24*
X787223Y503618D03*
D23*
X787223Y531431D03*
D27*
X787604Y439039D03*
D23*
X787604Y468566D03*
D27*
X787604Y474472D03*
D23*
X787604Y498284D03*
D24*
X787604Y503618D03*
D27*
X787604Y531241D03*
X787985Y439420D03*
D23*
X787985Y468566D03*
D27*
X787985Y474472D03*
D23*
X787985Y498284D03*
D24*
X787985Y503618D03*
D27*
X787985Y530860D03*
X788366Y439801D03*
D23*
X788366Y468566D03*
D27*
X788366Y474472D03*
X788366Y498475D03*
D24*
X788366Y503618D03*
D27*
X788366Y530479D03*
X788747Y440182D03*
D23*
X788747Y468566D03*
D27*
X788747Y474472D03*
X788747Y498475D03*
D24*
X788747Y503618D03*
D27*
X788747Y530098D03*
D23*
X789128Y440372D03*
D27*
X789128Y468757D03*
X789128Y474472D03*
X789128Y498475D03*
D24*
X789128Y503618D03*
D27*
X789128Y529717D03*
D23*
X789509Y440753D03*
D27*
X789509Y468757D03*
X789509Y474472D03*
X789509Y498475D03*
D24*
X789509Y503618D03*
D23*
X789509Y529526D03*
X789890Y441134D03*
D27*
X789890Y468757D03*
X789890Y474472D03*
X789890Y498475D03*
D24*
X789890Y503618D03*
D27*
X789890Y529336D03*
D23*
X790271Y441515D03*
D27*
X790271Y468757D03*
X790271Y474472D03*
X790271Y498475D03*
D24*
X790271Y503618D03*
D27*
X790271Y528955D03*
D23*
X790652Y441896D03*
D27*
X790652Y468757D03*
X790652Y474472D03*
X790652Y498475D03*
D24*
X790652Y503618D03*
D27*
X790652Y528574D03*
D23*
X791033Y442277D03*
D27*
X791033Y468757D03*
X791033Y474472D03*
X791033Y498475D03*
D24*
X791033Y503618D03*
D27*
X791033Y528193D03*
D23*
X791414Y442658D03*
D27*
X791414Y468757D03*
X791414Y474472D03*
X791414Y498475D03*
D24*
X791414Y503618D03*
D27*
X791414Y527812D03*
D23*
X791795Y443039D03*
D27*
X791795Y468757D03*
X791795Y474472D03*
X791795Y498475D03*
D24*
X791795Y503618D03*
D23*
X791795Y527621D03*
X792176Y443420D03*
D27*
X792176Y468757D03*
X792176Y474472D03*
X792176Y498475D03*
D24*
X792176Y503618D03*
D27*
X792176Y527431D03*
X792557Y443611D03*
X792557Y468757D03*
X792557Y474472D03*
X792557Y498475D03*
D24*
X792557Y503618D03*
D27*
X792557Y527050D03*
X792938Y443992D03*
X792938Y468757D03*
X792938Y474472D03*
X792938Y498475D03*
D24*
X792938Y503618D03*
D27*
X792938Y526669D03*
X793319Y444373D03*
X793319Y468757D03*
X793319Y474472D03*
X793319Y498475D03*
D24*
X793319Y503618D03*
D27*
X793319Y526288D03*
D23*
X793700Y444563D03*
D27*
X793700Y468757D03*
X793700Y474472D03*
X793700Y498475D03*
D24*
X793700Y503618D03*
D27*
X793700Y525907D03*
D23*
X794081Y444944D03*
D27*
X794081Y468757D03*
X794081Y474472D03*
X794081Y498475D03*
D24*
X794081Y503618D03*
D27*
X794081Y525907D03*
D23*
X794462Y445325D03*
D27*
X794462Y468757D03*
X794462Y474472D03*
X794462Y498475D03*
D24*
X794462Y503618D03*
D27*
X794462Y525526D03*
D23*
X794843Y445706D03*
D27*
X794843Y468757D03*
X794843Y474472D03*
X794843Y498475D03*
D24*
X794843Y503618D03*
D27*
X794843Y525145D03*
D23*
X795224Y446087D03*
D27*
X795224Y468757D03*
X795224Y474472D03*
X795224Y498475D03*
D24*
X795224Y503618D03*
D27*
X795224Y524764D03*
D23*
X795605Y446468D03*
D27*
X795605Y468757D03*
X795605Y474472D03*
X795605Y498475D03*
D24*
X795605Y503618D03*
D27*
X795605Y524383D03*
D23*
X795986Y446849D03*
D27*
X795986Y468757D03*
X795986Y474472D03*
X795986Y498475D03*
D24*
X795986Y503618D03*
D27*
X795986Y524002D03*
X796367Y447040D03*
D23*
X796367Y468947D03*
D27*
X796367Y474472D03*
X796367Y498475D03*
D24*
X796367Y503618D03*
D27*
X796367Y524002D03*
X796748Y447421D03*
D23*
X796748Y468947D03*
D27*
X796748Y474472D03*
X796748Y498475D03*
D24*
X796748Y503618D03*
D27*
X796748Y523621D03*
X797129Y447802D03*
D23*
X797129Y468947D03*
D27*
X797129Y474472D03*
X797129Y498475D03*
D24*
X797129Y503618D03*
D27*
X797129Y523240D03*
X797510Y448183D03*
D23*
X797510Y468947D03*
D27*
X797510Y474472D03*
X797510Y498475D03*
D24*
X797510Y503618D03*
D27*
X797510Y522859D03*
X797891Y448564D03*
D23*
X797891Y468947D03*
D27*
X797891Y474472D03*
X797891Y498475D03*
D24*
X797891Y503618D03*
D27*
X797891Y522478D03*
D23*
X798272Y448754D03*
X798272Y468947D03*
D27*
X798272Y474472D03*
X798272Y498475D03*
D24*
X798272Y503618D03*
D27*
X798272Y522097D03*
D23*
X798653Y449135D03*
D27*
X798653Y469138D03*
X798653Y474472D03*
X798653Y498475D03*
D24*
X798653Y503618D03*
D27*
X798653Y522097D03*
D23*
X799034Y449516D03*
D27*
X799034Y469138D03*
X799034Y474472D03*
X799034Y498475D03*
D24*
X799034Y503618D03*
D27*
X799034Y521716D03*
D23*
X799415Y449897D03*
D27*
X799415Y469138D03*
X799415Y474472D03*
X799415Y498475D03*
D24*
X799415Y503618D03*
D27*
X799415Y521335D03*
D23*
X799796Y450278D03*
D27*
X799796Y469138D03*
X799796Y474472D03*
X799796Y498475D03*
D24*
X799796Y503618D03*
D27*
X799796Y520954D03*
D23*
X800177Y450659D03*
D27*
X800177Y469138D03*
X800177Y474472D03*
X800177Y498475D03*
D24*
X800177Y503618D03*
D27*
X800177Y520573D03*
D23*
X800558Y451040D03*
D27*
X800558Y469138D03*
X800558Y474472D03*
X800558Y498475D03*
D24*
X800558Y503618D03*
D27*
X800558Y520573D03*
X800939Y451231D03*
X800939Y469138D03*
X800939Y474472D03*
X800939Y498475D03*
D24*
X800939Y503618D03*
D27*
X800939Y520192D03*
X801320Y451612D03*
X801320Y469138D03*
X801320Y474472D03*
X801320Y498475D03*
D24*
X801320Y503618D03*
D27*
X801320Y519811D03*
X801701Y451993D03*
X801701Y469138D03*
X801701Y474472D03*
X801701Y498475D03*
D24*
X801701Y503618D03*
D27*
X801701Y519430D03*
X802082Y452374D03*
X802082Y469138D03*
X802082Y474472D03*
X802082Y498475D03*
D24*
X802082Y503618D03*
D27*
X802082Y519049D03*
D23*
X802463Y452564D03*
D27*
X802463Y469138D03*
X802463Y474472D03*
X802463Y498475D03*
D24*
X802463Y503618D03*
D27*
X802463Y518668D03*
D23*
X802844Y452945D03*
D27*
X802844Y469138D03*
X802844Y474472D03*
X802844Y498475D03*
D24*
X802844Y503618D03*
D27*
X802844Y518668D03*
D23*
X803225Y453326D03*
D27*
X803225Y469138D03*
X803225Y474472D03*
X803225Y498475D03*
D24*
X803225Y503618D03*
D27*
X803225Y518287D03*
D23*
X803606Y453707D03*
D27*
X803606Y469138D03*
X803606Y474472D03*
X803606Y498475D03*
D24*
X803606Y503618D03*
D27*
X803606Y517906D03*
D23*
X803987Y454088D03*
D27*
X803987Y469138D03*
X803987Y474472D03*
X803987Y498475D03*
D24*
X803987Y503618D03*
D27*
X803987Y517525D03*
D23*
X804368Y454469D03*
D27*
X804368Y469138D03*
X804368Y474472D03*
X804368Y498475D03*
D24*
X804368Y503618D03*
D27*
X804368Y517144D03*
D23*
X804749Y454850D03*
D27*
X804749Y469138D03*
X804749Y474472D03*
X804749Y498475D03*
D24*
X804749Y503618D03*
D27*
X804749Y516763D03*
D23*
X805130Y455231D03*
D27*
X805130Y469138D03*
X805130Y474472D03*
X805130Y498475D03*
D24*
X805130Y503618D03*
D27*
X805130Y516763D03*
X805511Y455422D03*
X805511Y469138D03*
X805511Y474472D03*
X805511Y498475D03*
D24*
X805511Y503618D03*
D27*
X805511Y516382D03*
X805892Y455803D03*
X805892Y469138D03*
X805892Y474472D03*
X805892Y498475D03*
D24*
X805892Y503618D03*
D27*
X805892Y516001D03*
X806273Y456184D03*
X806273Y469138D03*
X806273Y474472D03*
X806273Y498475D03*
D24*
X806273Y503618D03*
D27*
X806273Y515620D03*
X806654Y456565D03*
D23*
X806654Y469328D03*
D27*
X806654Y474472D03*
X806654Y498475D03*
D24*
X806654Y503618D03*
D27*
X806654Y515239D03*
D23*
X807035Y456755D03*
X807035Y469328D03*
D27*
X807035Y474472D03*
X807035Y498475D03*
D24*
X807035Y503618D03*
D23*
X807035Y515048D03*
X807416Y457136D03*
X807416Y469328D03*
D27*
X807416Y474472D03*
X807416Y498475D03*
D24*
X807416Y503618D03*
D27*
X807416Y514858D03*
D23*
X807797Y457517D03*
X807797Y469328D03*
D27*
X807797Y474472D03*
X807797Y498475D03*
D24*
X807797Y503618D03*
D27*
X807797Y514477D03*
D23*
X808178Y457898D03*
X808178Y469328D03*
D27*
X808178Y474472D03*
X808178Y498475D03*
D24*
X808178Y503618D03*
D27*
X808178Y514096D03*
D23*
X808559Y458279D03*
D27*
X808559Y469519D03*
X808559Y474472D03*
X808559Y498475D03*
D24*
X808559Y503618D03*
D27*
X808559Y513715D03*
D23*
X808940Y458660D03*
D27*
X808940Y469519D03*
X808940Y474472D03*
X808940Y498475D03*
D24*
X808940Y503618D03*
D27*
X808940Y513334D03*
D23*
X809321Y459041D03*
D27*
X809321Y469519D03*
X809321Y474472D03*
X809321Y498475D03*
D24*
X809321Y503618D03*
D23*
X809321Y513143D03*
X809702Y459422D03*
D27*
X809702Y469519D03*
X809702Y474472D03*
X809702Y498475D03*
D24*
X809702Y503618D03*
D27*
X809702Y512953D03*
X810083Y459613D03*
X810083Y469519D03*
X810083Y474472D03*
X810083Y498475D03*
D24*
X810083Y503618D03*
D27*
X810083Y512572D03*
X810464Y459994D03*
X810464Y469519D03*
X810464Y474472D03*
X810464Y498475D03*
D24*
X810464Y503618D03*
D27*
X810464Y512191D03*
X810845Y460375D03*
X810845Y469519D03*
X810845Y474472D03*
X810845Y498475D03*
D24*
X810845Y503618D03*
D27*
X810845Y511810D03*
D23*
X811226Y460565D03*
D27*
X811226Y469519D03*
X811226Y474472D03*
X811226Y498475D03*
D24*
X811226Y503618D03*
D27*
X811226Y511429D03*
D23*
X811607Y460946D03*
D27*
X811607Y469519D03*
X811607Y474472D03*
X811607Y498475D03*
D24*
X811607Y503618D03*
D23*
X811607Y511238D03*
X811988Y461327D03*
D27*
X811988Y469519D03*
X811988Y474472D03*
X811988Y498475D03*
D24*
X811988Y503618D03*
D27*
X811988Y511048D03*
D23*
X812369Y461708D03*
D27*
X812369Y469519D03*
X812369Y474472D03*
X812369Y498475D03*
D24*
X812369Y503618D03*
D27*
X812369Y510667D03*
D23*
X812750Y462089D03*
D27*
X812750Y469519D03*
D23*
X812750Y474662D03*
D27*
X812750Y498475D03*
D24*
X812750Y503618D03*
D27*
X812750Y510286D03*
D23*
X813131Y462470D03*
D27*
X813131Y469519D03*
D23*
X813131Y474662D03*
D27*
X813131Y498475D03*
D24*
X813131Y503618D03*
D27*
X813131Y509905D03*
D23*
X813512Y462851D03*
D27*
X813512Y469519D03*
D23*
X813512Y474662D03*
D27*
X813512Y498475D03*
D24*
X813512Y503618D03*
D27*
X813512Y509524D03*
D23*
X813893Y463232D03*
D27*
X813893Y469519D03*
D23*
X813893Y474662D03*
D27*
X813893Y498475D03*
D24*
X813893Y503618D03*
D27*
X813893Y509524D03*
X814274Y463423D03*
X814274Y469519D03*
D23*
X814274Y474662D03*
D27*
X814274Y498475D03*
D24*
X814274Y503618D03*
D27*
X814274Y509143D03*
X814655Y463804D03*
X814655Y469519D03*
D23*
X814655Y474662D03*
D27*
X814655Y498475D03*
D24*
X814655Y503618D03*
D27*
X814655Y508762D03*
X815036Y464185D03*
X815036Y469519D03*
D23*
X815036Y474662D03*
D27*
X815036Y498475D03*
D24*
X815036Y503618D03*
D27*
X815036Y508381D03*
D24*
X815036Y535241D03*
D29*
X815036Y548576D03*
D27*
X815036Y557149D03*
D23*
X815036Y568769D03*
D24*
X815036Y572198D03*
D23*
X815036Y579437D03*
D24*
X815036Y586676D03*
D27*
X815417Y464566D03*
X815417Y469519D03*
D23*
X815417Y474662D03*
D27*
X815417Y498475D03*
D24*
X815417Y503618D03*
D27*
X815417Y508000D03*
D24*
X815417Y535241D03*
D29*
X815417Y548576D03*
D23*
X815417Y557339D03*
D27*
X815417Y568579D03*
D24*
X815417Y572198D03*
D30*
X815417Y579628D03*
D24*
X815417Y586676D03*
D23*
X815798Y464756D03*
D27*
X815798Y469519D03*
D23*
X815798Y474662D03*
D27*
X815798Y498475D03*
D24*
X815798Y503618D03*
D27*
X815798Y507619D03*
D24*
X815798Y535241D03*
D29*
X815798Y548576D03*
D23*
X815798Y557339D03*
D24*
X815798Y568388D03*
X815798Y572198D03*
D30*
X815798Y579628D03*
D24*
X815798Y586676D03*
D23*
X816179Y465137D03*
X816179Y469709D03*
X816179Y474662D03*
D27*
X816179Y498475D03*
D24*
X816179Y503618D03*
D27*
X816179Y507619D03*
D24*
X816179Y535241D03*
D29*
X816179Y548576D03*
D23*
X816179Y557720D03*
D27*
X816179Y568198D03*
D24*
X816179Y572198D03*
D28*
X816179Y579628D03*
D24*
X816179Y586676D03*
D23*
X816560Y465518D03*
X816560Y469709D03*
X816560Y474662D03*
D27*
X816560Y498475D03*
D24*
X816560Y503618D03*
D27*
X816560Y507238D03*
D24*
X816560Y535241D03*
D29*
X816560Y548576D03*
D23*
X816560Y557720D03*
D24*
X816560Y568007D03*
X816560Y572198D03*
D28*
X816560Y579628D03*
D24*
X816560Y586676D03*
D23*
X816941Y465899D03*
X816941Y469709D03*
X816941Y474662D03*
D27*
X816941Y498475D03*
D24*
X816941Y503618D03*
D27*
X816941Y506857D03*
D24*
X816941Y535241D03*
X816941Y543623D03*
D23*
X816941Y558101D03*
D31*
X816941Y564959D03*
D24*
X816941Y572198D03*
D32*
X816941Y579628D03*
D24*
X816941Y586676D03*
D23*
X817322Y466280D03*
X817322Y469709D03*
X817322Y474662D03*
D27*
X817322Y498475D03*
D24*
X817322Y503618D03*
D27*
X817322Y506476D03*
D24*
X817322Y535241D03*
X817322Y543623D03*
D23*
X817322Y558101D03*
D33*
X817322Y564769D03*
D24*
X817322Y572198D03*
X817322Y578294D03*
X817322Y580961D03*
X817322Y586676D03*
D23*
X817703Y466661D03*
X817703Y469709D03*
X817703Y474662D03*
D27*
X817703Y498475D03*
D32*
X817703Y504952D03*
D24*
X817703Y535241D03*
X817703Y543623D03*
D23*
X817703Y558482D03*
D34*
X817703Y564959D03*
D24*
X817703Y572198D03*
D35*
X817703Y578104D03*
D27*
X817703Y581152D03*
D24*
X817703Y586676D03*
D36*
X818084Y468376D03*
D23*
X818084Y474662D03*
D27*
X818084Y498475D03*
D32*
X818084Y504952D03*
D24*
X818084Y535241D03*
X818084Y543623D03*
D23*
X818084Y558482D03*
D37*
X818084Y564769D03*
D24*
X818084Y572198D03*
D35*
X818084Y577723D03*
D27*
X818084Y581533D03*
D24*
X818084Y586676D03*
D38*
X818465Y468566D03*
D23*
X818465Y474662D03*
D27*
X818465Y498475D03*
D39*
X818465Y504761D03*
D24*
X818465Y535241D03*
X818465Y543623D03*
D30*
X818465Y558673D03*
D40*
X818465Y564959D03*
D24*
X818465Y572198D03*
X818465Y577532D03*
X818465Y581723D03*
X818465Y586676D03*
D32*
X818846Y468757D03*
D23*
X818846Y474662D03*
D27*
X818846Y498475D03*
D28*
X818846Y504571D03*
D24*
X818846Y535241D03*
X818846Y543623D03*
D23*
X818846Y558863D03*
D27*
X818846Y566674D03*
D24*
X818846Y572198D03*
D35*
X818846Y577342D03*
D27*
X818846Y581914D03*
D24*
X818846Y586676D03*
D39*
X819227Y468947D03*
D23*
X819227Y474662D03*
D27*
X819227Y498475D03*
D26*
X819227Y504380D03*
D24*
X819227Y535241D03*
X819227Y543623D03*
D30*
X819227Y559054D03*
D23*
X819227Y566483D03*
D24*
X819227Y572198D03*
X819227Y577151D03*
X819227Y582104D03*
X819227Y586676D03*
D28*
X819608Y469138D03*
D23*
X819608Y474662D03*
D27*
X819608Y498475D03*
D30*
X819608Y504190D03*
D24*
X819608Y535241D03*
D41*
X819608Y547624D03*
D23*
X819608Y559244D03*
D27*
X819608Y566293D03*
D24*
X819608Y572198D03*
D27*
X819608Y576961D03*
X819608Y582295D03*
D24*
X819608Y586676D03*
D26*
X819989Y469328D03*
D23*
X819989Y474662D03*
D27*
X819989Y498475D03*
X819989Y504190D03*
D24*
X819989Y535241D03*
D41*
X819989Y547624D03*
D30*
X819989Y559435D03*
D27*
X819989Y566293D03*
D24*
X819989Y572198D03*
X819989Y576770D03*
X819989Y582485D03*
X819989Y586676D03*
D23*
X820370Y469328D03*
X820370Y474662D03*
D27*
X820370Y498475D03*
D24*
X820370Y535241D03*
D41*
X820370Y547624D03*
D30*
X820370Y559435D03*
D27*
X820370Y565912D03*
D24*
X820370Y572198D03*
D27*
X820370Y576580D03*
X820370Y582676D03*
D24*
X820370Y586676D03*
D42*
X820751Y469328D03*
D23*
X820751Y474662D03*
D27*
X820751Y498475D03*
D24*
X820751Y535241D03*
D41*
X820751Y547624D03*
D30*
X820751Y559816D03*
D27*
X820751Y565912D03*
D24*
X820751Y572198D03*
X820751Y576389D03*
X820751Y582866D03*
X820751Y586676D03*
D27*
X821132Y474853D03*
X821132Y498475D03*
D24*
X821132Y535241D03*
D41*
X821132Y547624D03*
D30*
X821132Y559816D03*
D24*
X821132Y565721D03*
X821132Y572198D03*
X821132Y576008D03*
D27*
X821132Y583057D03*
D24*
X821132Y586676D03*
D27*
X821513Y474853D03*
X821513Y498475D03*
D24*
X821513Y535241D03*
X821513Y543623D03*
D30*
X821513Y560197D03*
D24*
X821513Y565340D03*
X821513Y572198D03*
X821513Y576008D03*
X821513Y583247D03*
X821513Y586676D03*
D27*
X821894Y474853D03*
X821894Y498475D03*
D24*
X821894Y535241D03*
X821894Y543623D03*
D30*
X821894Y560197D03*
D24*
X821894Y565340D03*
X821894Y572198D03*
D27*
X821894Y575437D03*
X821894Y583438D03*
D24*
X821894Y586676D03*
D27*
X822275Y474853D03*
X822275Y498475D03*
D24*
X822275Y543623D03*
D30*
X822275Y560578D03*
D24*
X822275Y564959D03*
X822275Y572198D03*
D27*
X822275Y575056D03*
X822275Y583819D03*
D24*
X822275Y586676D03*
D27*
X822656Y474853D03*
X822656Y498475D03*
D30*
X822656Y560578D03*
D24*
X822656Y564959D03*
X822656Y572198D03*
D27*
X822656Y575056D03*
X822656Y583819D03*
D24*
X822656Y586676D03*
D27*
X823037Y474853D03*
X823037Y498475D03*
D23*
X823037Y560768D03*
D24*
X823037Y564578D03*
X823037Y572198D03*
D23*
X823037Y574865D03*
D32*
X823037Y585343D03*
D27*
X823418Y474853D03*
X823418Y498475D03*
D26*
X823418Y561149D03*
D24*
X823418Y564578D03*
D32*
X823418Y573532D03*
D39*
X823418Y585533D03*
D27*
X823799Y474853D03*
X823799Y498475D03*
D43*
X823799Y535241D03*
D36*
X823799Y562483D03*
D32*
X823799Y573532D03*
D39*
X823799Y585533D03*
D27*
X824180Y474853D03*
X824180Y498475D03*
D43*
X824180Y535241D03*
D44*
X824180Y548386D03*
D38*
X824180Y562673D03*
D39*
X824180Y573341D03*
D28*
X824180Y585724D03*
D27*
X824561Y474853D03*
X824561Y498475D03*
D43*
X824561Y535241D03*
D44*
X824561Y548386D03*
D32*
X824561Y562483D03*
D28*
X824561Y573151D03*
X824561Y585724D03*
D27*
X824942Y474853D03*
D23*
X824942Y498665D03*
D43*
X824942Y535241D03*
D44*
X824942Y548386D03*
D32*
X824942Y562483D03*
D28*
X824942Y573151D03*
D26*
X824942Y585914D03*
D27*
X825323Y474853D03*
D23*
X825323Y498665D03*
D43*
X825323Y535241D03*
D44*
X825323Y548386D03*
D28*
X825323Y562483D03*
D26*
X825323Y572960D03*
X825323Y585914D03*
D27*
X825704Y474853D03*
D23*
X825704Y498665D03*
D43*
X825704Y535241D03*
D44*
X825704Y548386D03*
D26*
X825704Y562292D03*
D30*
X825704Y572770D03*
X825704Y586105D03*
D27*
X826085Y474853D03*
D23*
X826085Y498665D03*
D27*
X826466Y474853D03*
D23*
X826466Y498665D03*
D27*
X826847Y474853D03*
D23*
X826847Y498665D03*
D27*
X827228Y474853D03*
D23*
X827228Y498665D03*
D27*
X827609Y474853D03*
D23*
X827609Y498665D03*
D27*
X827990Y474853D03*
D23*
X827990Y498665D03*
D27*
X828371Y474853D03*
D23*
X828371Y498665D03*
D27*
X828752Y474853D03*
D23*
X828752Y498665D03*
D27*
X829133Y474853D03*
D23*
X829133Y498665D03*
D27*
X829514Y474853D03*
D23*
X829514Y498665D03*
D36*
X829895Y390271D03*
D45*
X829895Y415798D03*
D46*
X829895Y437324D03*
D47*
X829895Y466852D03*
D27*
X829895Y474853D03*
D23*
X829895Y498665D03*
D36*
X829895Y517525D03*
D11*
X829895Y537718D03*
D48*
X829895Y571055D03*
D36*
X830276Y390271D03*
D40*
X830276Y415226D03*
D49*
X830276Y437324D03*
D50*
X830276Y465709D03*
D27*
X830276Y474853D03*
D23*
X830276Y498665D03*
D36*
X830276Y517525D03*
D11*
X830276Y537718D03*
D48*
X830276Y571055D03*
D36*
X830657Y390271D03*
D45*
X830657Y415036D03*
D51*
X830657Y437134D03*
D52*
X830657Y465328D03*
D27*
X830657Y474853D03*
D23*
X830657Y498665D03*
D36*
X830657Y517525D03*
D11*
X830657Y537718D03*
D48*
X830657Y571055D03*
D36*
X831038Y390271D03*
D40*
X831038Y414845D03*
D53*
X831038Y437324D03*
D54*
X831038Y464947D03*
D27*
X831038Y474853D03*
D23*
X831038Y498665D03*
D36*
X831038Y517525D03*
D11*
X831038Y537718D03*
D48*
X831038Y571055D03*
D36*
X831419Y390271D03*
D45*
X831419Y414655D03*
D55*
X831419Y437324D03*
D56*
X831419Y464756D03*
D27*
X831419Y474853D03*
D23*
X831419Y498665D03*
D36*
X831419Y517525D03*
D11*
X831419Y537718D03*
D48*
X831419Y571055D03*
D36*
X831800Y390271D03*
D45*
X831800Y414274D03*
D57*
X831800Y437324D03*
D58*
X831800Y464566D03*
D27*
X831800Y474853D03*
D23*
X831800Y498665D03*
D36*
X831800Y517525D03*
D11*
X831800Y537718D03*
D48*
X831800Y571055D03*
D36*
X832181Y390271D03*
D40*
X832181Y414083D03*
D11*
X832181Y437134D03*
D59*
X832181Y464375D03*
D27*
X832181Y474853D03*
D23*
X832181Y498665D03*
D36*
X832181Y517525D03*
D11*
X832181Y537718D03*
D48*
X832181Y571055D03*
D36*
X832562Y390271D03*
D45*
X832562Y413893D03*
D13*
X832562Y437134D03*
D60*
X832562Y464185D03*
D27*
X832562Y474853D03*
D23*
X832562Y498665D03*
D36*
X832562Y517525D03*
D11*
X832562Y537718D03*
D48*
X832562Y571055D03*
D36*
X832943Y390271D03*
D45*
X832943Y413512D03*
D13*
X832943Y437134D03*
D60*
X832943Y464185D03*
D27*
X832943Y474853D03*
D23*
X832943Y498665D03*
D36*
X832943Y517525D03*
D11*
X832943Y537718D03*
D48*
X832943Y571055D03*
D36*
X833324Y390271D03*
D40*
X833324Y413321D03*
D13*
X833324Y437134D03*
D61*
X833324Y463994D03*
D27*
X833324Y474853D03*
D23*
X833324Y498665D03*
D36*
X833324Y517525D03*
D11*
X833324Y537718D03*
D48*
X833324Y571055D03*
D36*
X833705Y390271D03*
D45*
X833705Y413131D03*
D14*
X833705Y437134D03*
D61*
X833705Y463994D03*
D27*
X833705Y474853D03*
D23*
X833705Y498665D03*
D36*
X833705Y517525D03*
D11*
X833705Y537718D03*
D48*
X833705Y571055D03*
D36*
X834086Y390271D03*
D45*
X834086Y412750D03*
D14*
X834086Y437134D03*
D62*
X834086Y463804D03*
D27*
X834086Y474853D03*
D23*
X834086Y498665D03*
D36*
X834086Y517525D03*
D11*
X834086Y537718D03*
D48*
X834086Y571055D03*
D36*
X834467Y390271D03*
D40*
X834467Y412559D03*
D14*
X834467Y437134D03*
D62*
X834467Y463804D03*
D27*
X834467Y474853D03*
D23*
X834467Y498665D03*
D36*
X834467Y517525D03*
D11*
X834467Y537718D03*
D48*
X834467Y571055D03*
D36*
X834848Y390271D03*
D45*
X834848Y412369D03*
D14*
X834848Y437134D03*
D62*
X834848Y463804D03*
D27*
X834848Y474853D03*
D23*
X834848Y498665D03*
D36*
X834848Y517525D03*
D11*
X834848Y537718D03*
D48*
X834848Y571055D03*
D36*
X835229Y390271D03*
D45*
X835229Y411988D03*
D40*
X835229Y424751D03*
D48*
X835229Y449897D03*
D40*
X835229Y458660D03*
D27*
X835229Y474853D03*
D23*
X835229Y498665D03*
D36*
X835229Y517525D03*
D48*
X835229Y525716D03*
X835229Y571055D03*
D36*
X835610Y390271D03*
D40*
X835610Y411797D03*
D45*
X835610Y424561D03*
D48*
X835610Y449897D03*
D45*
X835610Y458470D03*
D27*
X835610Y474853D03*
D23*
X835610Y498665D03*
D36*
X835610Y517525D03*
D48*
X835610Y525716D03*
X835610Y571055D03*
D36*
X835991Y390271D03*
D45*
X835991Y411607D03*
D48*
X835991Y424370D03*
D36*
X835991Y450088D03*
D48*
X835991Y458279D03*
D27*
X835991Y474853D03*
D23*
X835991Y498665D03*
D36*
X835991Y517525D03*
D48*
X835991Y525716D03*
X835991Y571055D03*
D36*
X836372Y390271D03*
D45*
X836372Y411226D03*
D48*
X836372Y424370D03*
D36*
X836372Y450088D03*
D48*
X836372Y458279D03*
D27*
X836372Y474853D03*
D23*
X836372Y498665D03*
D36*
X836372Y517525D03*
D48*
X836372Y525716D03*
X836372Y571055D03*
D36*
X836753Y390271D03*
D40*
X836753Y411035D03*
D36*
X836753Y424180D03*
X836753Y450088D03*
D48*
X836753Y458279D03*
D27*
X836753Y474853D03*
D23*
X836753Y498665D03*
D36*
X836753Y517525D03*
D48*
X836753Y525716D03*
X836753Y571055D03*
D36*
X837134Y390271D03*
D45*
X837134Y410845D03*
D36*
X837134Y424180D03*
X837134Y450088D03*
D48*
X837134Y458279D03*
D27*
X837134Y474853D03*
D23*
X837134Y498665D03*
D36*
X837134Y517525D03*
D48*
X837134Y525716D03*
X837134Y571055D03*
D36*
X837515Y390271D03*
D45*
X837515Y410464D03*
D36*
X837515Y424180D03*
X837515Y450088D03*
D48*
X837515Y458279D03*
D27*
X837515Y474853D03*
D23*
X837515Y498665D03*
D36*
X837515Y517525D03*
D48*
X837515Y525716D03*
X837515Y571055D03*
D36*
X837896Y390271D03*
D40*
X837896Y410273D03*
D36*
X837896Y424180D03*
X837896Y450088D03*
D48*
X837896Y458279D03*
D27*
X837896Y474853D03*
X837896Y498856D03*
D36*
X837896Y517525D03*
D48*
X837896Y525716D03*
X837896Y571055D03*
D63*
X838277Y400748D03*
D36*
X838277Y424180D03*
X838277Y450088D03*
D48*
X838277Y458279D03*
D27*
X838277Y474853D03*
X838277Y498856D03*
D36*
X838277Y517525D03*
D48*
X838277Y525716D03*
X838277Y571055D03*
D53*
X838658Y401510D03*
D36*
X838658Y424180D03*
X838658Y450088D03*
D48*
X838658Y458279D03*
D27*
X838658Y474853D03*
X838658Y498856D03*
D36*
X838658Y517525D03*
D48*
X838658Y525716D03*
X838658Y571055D03*
D55*
X839039Y401891D03*
D36*
X839039Y424180D03*
X839039Y450088D03*
D48*
X839039Y458279D03*
D27*
X839039Y474853D03*
X839039Y498856D03*
D36*
X839039Y517525D03*
D48*
X839039Y525716D03*
X839039Y571055D03*
D64*
X839420Y402082D03*
D36*
X839420Y424180D03*
X839420Y450088D03*
D48*
X839420Y458279D03*
D27*
X839420Y474853D03*
X839420Y498856D03*
D36*
X839420Y517525D03*
D48*
X839420Y525716D03*
X839420Y571055D03*
D57*
X839801Y402272D03*
D36*
X839801Y424180D03*
X839801Y450088D03*
D48*
X839801Y458279D03*
D27*
X839801Y474853D03*
X839801Y498856D03*
D36*
X839801Y517525D03*
D48*
X839801Y525716D03*
X839801Y571055D03*
D11*
X840182Y402463D03*
D36*
X840182Y424180D03*
X840182Y450088D03*
D48*
X840182Y458279D03*
D27*
X840182Y474853D03*
X840182Y498856D03*
D48*
X840182Y517334D03*
X840182Y525716D03*
X840182Y571055D03*
D65*
X840563Y402653D03*
D36*
X840563Y424180D03*
X840563Y450088D03*
D48*
X840563Y458279D03*
D27*
X840563Y474853D03*
X840563Y498856D03*
D48*
X840563Y517334D03*
X840563Y525716D03*
X840563Y571055D03*
D13*
X840944Y402844D03*
D36*
X840944Y424180D03*
X840944Y450088D03*
D48*
X840944Y458279D03*
D27*
X840944Y474853D03*
X840944Y498856D03*
D48*
X840944Y517334D03*
X840944Y525716D03*
X840944Y571055D03*
D13*
X841325Y402844D03*
D36*
X841325Y424180D03*
X841325Y450088D03*
D48*
X841325Y458279D03*
D27*
X841325Y474853D03*
X841325Y498856D03*
D45*
X841325Y517144D03*
D48*
X841325Y525716D03*
X841325Y571055D03*
D66*
X841706Y403034D03*
D36*
X841706Y424180D03*
X841706Y450088D03*
D48*
X841706Y458279D03*
D27*
X841706Y474853D03*
X841706Y498856D03*
D37*
X841706Y516763D03*
D67*
X841706Y535622D03*
D48*
X841706Y571055D03*
D66*
X842087Y403034D03*
D36*
X842087Y424180D03*
X842087Y450088D03*
D48*
X842087Y458279D03*
D27*
X842087Y474853D03*
X842087Y498856D03*
D68*
X842087Y511619D03*
D67*
X842087Y535622D03*
D48*
X842087Y571055D03*
D66*
X842468Y403034D03*
D36*
X842468Y424180D03*
X842468Y450088D03*
D48*
X842468Y458279D03*
D27*
X842468Y474853D03*
X842468Y498856D03*
D62*
X842468Y511429D03*
D67*
X842468Y535622D03*
D48*
X842468Y571055D03*
D66*
X842849Y403034D03*
D36*
X842849Y424180D03*
X842849Y450088D03*
D48*
X842849Y458279D03*
D27*
X842849Y474853D03*
X842849Y498856D03*
D62*
X842849Y511429D03*
D67*
X842849Y535622D03*
D48*
X842849Y571055D03*
D14*
X843230Y403225D03*
D36*
X843230Y424180D03*
X843230Y450088D03*
D48*
X843230Y458279D03*
D27*
X843230Y474853D03*
X843230Y498856D03*
D62*
X843230Y511429D03*
D67*
X843230Y535622D03*
D48*
X843230Y571055D03*
D36*
X843611Y390271D03*
D40*
X843611Y415607D03*
D36*
X843611Y424180D03*
X843611Y450088D03*
D48*
X843611Y458279D03*
D27*
X843611Y474853D03*
X843611Y498856D03*
D61*
X843611Y511238D03*
D67*
X843611Y535622D03*
D48*
X843611Y571055D03*
D36*
X843992Y390271D03*
D45*
X843992Y415798D03*
D36*
X843992Y424180D03*
X843992Y450088D03*
D48*
X843992Y458279D03*
D27*
X843992Y474853D03*
X843992Y498856D03*
D61*
X843992Y511238D03*
D67*
X843992Y535622D03*
D48*
X843992Y571055D03*
D36*
X844373Y390271D03*
D45*
X844373Y415798D03*
D36*
X844373Y424180D03*
X844373Y450088D03*
D48*
X844373Y458279D03*
D27*
X844373Y474853D03*
X844373Y498856D03*
D60*
X844373Y511048D03*
D67*
X844373Y535622D03*
D48*
X844373Y571055D03*
D36*
X844754Y390271D03*
D48*
X844754Y415988D03*
D36*
X844754Y424180D03*
X844754Y450088D03*
D48*
X844754Y458279D03*
D27*
X844754Y474853D03*
X844754Y498856D03*
D59*
X844754Y510857D03*
D67*
X844754Y535622D03*
D48*
X844754Y571055D03*
D36*
X845135Y390271D03*
D48*
X845135Y415988D03*
D36*
X845135Y424180D03*
X845135Y450088D03*
D48*
X845135Y458279D03*
D27*
X845135Y474853D03*
X845135Y498856D03*
D58*
X845135Y510667D03*
D67*
X845135Y535622D03*
D48*
X845135Y571055D03*
D36*
X845516Y390271D03*
D48*
X845516Y415988D03*
D36*
X845516Y424180D03*
X845516Y450088D03*
D48*
X845516Y458279D03*
D23*
X845516Y475043D03*
D27*
X845516Y498856D03*
D56*
X845516Y510476D03*
D67*
X845516Y535622D03*
D48*
X845516Y571055D03*
D36*
X845897Y390271D03*
D48*
X845897Y415988D03*
D36*
X845897Y424180D03*
X845897Y450088D03*
D48*
X845897Y458279D03*
D23*
X845897Y475043D03*
D27*
X845897Y498856D03*
D69*
X845897Y510095D03*
D67*
X845897Y535622D03*
D48*
X845897Y571055D03*
D36*
X846278Y390271D03*
D48*
X846278Y415988D03*
D36*
X846278Y424180D03*
X846278Y450088D03*
D48*
X846278Y458279D03*
D23*
X846278Y475043D03*
D27*
X846278Y498856D03*
D52*
X846278Y509905D03*
D67*
X846278Y535622D03*
D48*
X846278Y571055D03*
D36*
X846659Y390271D03*
D48*
X846659Y415988D03*
D36*
X846659Y424180D03*
X846659Y450088D03*
D48*
X846659Y458279D03*
D23*
X846659Y475043D03*
D27*
X846659Y498856D03*
D43*
X846659Y509333D03*
D48*
X846659Y525716D03*
X846659Y571055D03*
D36*
X847040Y390271D03*
D48*
X847040Y415988D03*
D36*
X847040Y424180D03*
X847040Y450088D03*
D48*
X847040Y458279D03*
D23*
X847040Y475043D03*
D27*
X847040Y498856D03*
D37*
X847040Y506476D03*
D48*
X847040Y525716D03*
X847040Y571055D03*
D36*
X847421Y390271D03*
D48*
X847421Y415988D03*
D36*
X847421Y424180D03*
X847421Y450088D03*
D48*
X847421Y458279D03*
D23*
X847421Y475043D03*
D27*
X847421Y498856D03*
D34*
X847421Y506666D03*
D48*
X847421Y525716D03*
X847421Y571055D03*
D36*
X847802Y390271D03*
D48*
X847802Y415988D03*
D36*
X847802Y424180D03*
X847802Y450088D03*
D48*
X847802Y458279D03*
D23*
X847802Y475043D03*
D27*
X847802Y498856D03*
D33*
X847802Y506857D03*
D48*
X847802Y525716D03*
X847802Y571055D03*
D36*
X848183Y390271D03*
D48*
X848183Y415988D03*
D36*
X848183Y424180D03*
X848183Y450088D03*
D48*
X848183Y458279D03*
D23*
X848183Y475043D03*
D27*
X848183Y498856D03*
D31*
X848183Y507047D03*
D48*
X848183Y525716D03*
X848183Y571055D03*
D36*
X848564Y390271D03*
D48*
X848564Y415988D03*
D36*
X848564Y424180D03*
X848564Y450088D03*
D48*
X848564Y458279D03*
D23*
X848564Y475043D03*
D27*
X848564Y498856D03*
D33*
X848564Y507238D03*
D48*
X848564Y525716D03*
X848564Y571055D03*
D36*
X848945Y390271D03*
D48*
X848945Y415988D03*
D36*
X848945Y424180D03*
X848945Y450088D03*
D48*
X848945Y458279D03*
D23*
X848945Y475043D03*
D27*
X848945Y498856D03*
D33*
X848945Y507619D03*
D48*
X848945Y525716D03*
X849326Y415988D03*
D36*
X849326Y450088D03*
D48*
X849326Y458279D03*
D23*
X849326Y475043D03*
D27*
X849326Y498856D03*
D31*
X849326Y507809D03*
D48*
X849707Y415988D03*
D36*
X849707Y450088D03*
D48*
X849707Y458279D03*
D23*
X849707Y475043D03*
D27*
X849707Y498856D03*
D31*
X849707Y508190D03*
D48*
X850088Y415988D03*
D36*
X850088Y450088D03*
D48*
X850088Y458279D03*
D23*
X850088Y475043D03*
D27*
X850088Y498856D03*
D31*
X850088Y508571D03*
D48*
X850469Y415988D03*
D36*
X850469Y450088D03*
D48*
X850469Y458279D03*
D23*
X850469Y475043D03*
D27*
X850469Y498856D03*
D31*
X850469Y508952D03*
D48*
X850850Y415988D03*
D36*
X850850Y450088D03*
D48*
X850850Y458279D03*
D23*
X850850Y475043D03*
D27*
X850850Y498856D03*
D33*
X850850Y509143D03*
D48*
X851231Y415988D03*
D36*
X851231Y450088D03*
D48*
X851231Y458279D03*
D23*
X851231Y475043D03*
D27*
X851231Y498856D03*
D33*
X851231Y509524D03*
D45*
X851612Y415798D03*
D48*
X851612Y449897D03*
X851612Y458279D03*
D23*
X851612Y475043D03*
D27*
X851612Y498856D03*
D33*
X851612Y509905D03*
D40*
X851993Y415607D03*
D48*
X851993Y449897D03*
D45*
X851993Y458470D03*
D23*
X851993Y475043D03*
D27*
X851993Y498856D03*
D33*
X851993Y510286D03*
D18*
X851993Y571055D03*
D34*
X852374Y415226D03*
D37*
X852374Y449326D03*
D34*
X852374Y459041D03*
D70*
X852374Y472376D03*
D23*
X852374Y475043D03*
D27*
X852374Y498856D03*
D31*
X852374Y510476D03*
D18*
X852374Y571055D03*
D14*
X852755Y403225D03*
X852755Y437134D03*
D62*
X852755Y463804D03*
D23*
X852755Y475043D03*
D27*
X852755Y498856D03*
D31*
X852755Y510857D03*
D11*
X852755Y537718D03*
D18*
X852755Y571055D03*
D66*
X853136Y403034D03*
D14*
X853136Y437134D03*
D62*
X853136Y463804D03*
D23*
X853136Y475043D03*
D27*
X853136Y498856D03*
D31*
X853136Y511238D03*
D11*
X853136Y537718D03*
D18*
X853136Y571055D03*
D66*
X853517Y403034D03*
X853517Y437324D03*
D61*
X853517Y463994D03*
D23*
X853517Y475043D03*
D27*
X853517Y498856D03*
D31*
X853517Y511619D03*
D11*
X853517Y537718D03*
D18*
X853517Y571055D03*
D66*
X853898Y403034D03*
D13*
X853898Y437134D03*
D61*
X853898Y463994D03*
D27*
X853898Y475234D03*
X853898Y498856D03*
D31*
X853898Y512000D03*
D11*
X853898Y537718D03*
D18*
X853898Y571055D03*
D13*
X854279Y402844D03*
X854279Y437134D03*
D60*
X854279Y464185D03*
D27*
X854279Y475234D03*
X854279Y498856D03*
D31*
X854279Y512381D03*
D11*
X854279Y537718D03*
D18*
X854279Y571055D03*
D13*
X854660Y402844D03*
D65*
X854660Y437324D03*
D60*
X854660Y464185D03*
D27*
X854660Y475234D03*
X854660Y498856D03*
D33*
X854660Y512572D03*
D11*
X854660Y537718D03*
D18*
X854660Y571055D03*
D65*
X855041Y402653D03*
D11*
X855041Y437134D03*
D59*
X855041Y464375D03*
D27*
X855041Y475234D03*
X855041Y498856D03*
D31*
X855041Y512762D03*
D11*
X855041Y537718D03*
D18*
X855041Y571055D03*
D11*
X855422Y402463D03*
D57*
X855422Y437324D03*
D58*
X855422Y464566D03*
D27*
X855422Y475234D03*
X855422Y498856D03*
D33*
X855422Y512953D03*
D11*
X855422Y537718D03*
D18*
X855422Y571055D03*
D57*
X855803Y402272D03*
D55*
X855803Y437324D03*
D56*
X855803Y464756D03*
D27*
X855803Y475234D03*
X855803Y498856D03*
D33*
X855803Y513334D03*
D11*
X855803Y537718D03*
D18*
X855803Y571055D03*
D64*
X856184Y402082D03*
D53*
X856184Y437324D03*
D54*
X856184Y464947D03*
D27*
X856184Y475234D03*
X856184Y498856D03*
D34*
X856184Y513524D03*
D11*
X856184Y537718D03*
D18*
X856184Y571055D03*
D71*
X856565Y401701D03*
D51*
X856565Y437515D03*
D52*
X856565Y465328D03*
D27*
X856565Y475234D03*
X856565Y498856D03*
D37*
X856565Y513715D03*
D11*
X856565Y537718D03*
D18*
X856565Y571055D03*
D72*
X856946Y401320D03*
D67*
X856946Y437324D03*
D50*
X856946Y465709D03*
D27*
X856946Y475234D03*
X856946Y498856D03*
D40*
X856946Y513905D03*
D11*
X856946Y537718D03*
D18*
X856946Y571055D03*
D73*
X857327Y400558D03*
D74*
X857327Y437324D03*
D29*
X857327Y466280D03*
D27*
X857327Y475234D03*
X857327Y498856D03*
D45*
X857327Y514096D03*
D11*
X857327Y537718D03*
D18*
X857327Y571055D03*
D27*
X857708Y475234D03*
X857708Y498856D03*
X858089Y475234D03*
X858089Y498856D03*
X858470Y475234D03*
X858470Y498856D03*
X858851Y475234D03*
X858851Y498856D03*
X859232Y475234D03*
X859232Y498856D03*
X859613Y475234D03*
X859613Y498856D03*
D24*
X859994Y387413D03*
X859994Y390461D03*
X859994Y398081D03*
D47*
X859994Y410083D03*
D27*
X859994Y475234D03*
X859994Y498856D03*
D24*
X860375Y387413D03*
X860375Y390461D03*
X860375Y398081D03*
D47*
X860375Y410083D03*
D27*
X860375Y475234D03*
X860375Y498856D03*
D24*
X860756Y387413D03*
X860756Y390461D03*
X860756Y398081D03*
D75*
X860756Y410273D03*
D27*
X860756Y475234D03*
X860756Y498856D03*
D24*
X861137Y387413D03*
X861137Y390461D03*
X861137Y398081D03*
D75*
X861137Y410273D03*
D27*
X861137Y475234D03*
X861137Y498856D03*
D24*
X861518Y387413D03*
X861518Y390461D03*
X861518Y398081D03*
D27*
X861518Y405892D03*
D23*
X861518Y414845D03*
D27*
X861518Y475234D03*
X861518Y498856D03*
D24*
X861899Y387413D03*
X861899Y390461D03*
X861899Y398081D03*
X861899Y405701D03*
X861899Y415226D03*
D27*
X861899Y475234D03*
X861899Y498856D03*
D24*
X862280Y387413D03*
X862280Y390461D03*
X862280Y398081D03*
X862280Y405701D03*
X862280Y415226D03*
D27*
X862280Y475234D03*
X862280Y498856D03*
D24*
X862661Y387413D03*
X862661Y390461D03*
X862661Y398081D03*
X862661Y405701D03*
X862661Y415226D03*
D27*
X862661Y475234D03*
X862661Y498856D03*
D24*
X863042Y387413D03*
X863042Y390461D03*
X863042Y398081D03*
X863042Y405701D03*
X863042Y415226D03*
D27*
X863042Y475234D03*
X863042Y498856D03*
D24*
X863423Y387413D03*
X863423Y390461D03*
X863423Y398081D03*
X863423Y405701D03*
X863423Y415226D03*
D27*
X863423Y475234D03*
X863423Y498856D03*
D24*
X863804Y387413D03*
X863804Y390461D03*
X863804Y398081D03*
X863804Y405701D03*
X863804Y415226D03*
D27*
X863804Y475234D03*
X863804Y498856D03*
D24*
X864185Y387413D03*
X864185Y390461D03*
X864185Y398081D03*
X864185Y405701D03*
D27*
X864185Y414655D03*
X864185Y475234D03*
X864185Y498856D03*
D24*
X864566Y387413D03*
X864566Y390461D03*
X864566Y398081D03*
D75*
X864566Y410273D03*
D27*
X864566Y475234D03*
X864566Y498856D03*
D24*
X864947Y387413D03*
X864947Y390461D03*
X864947Y398081D03*
D75*
X864947Y410273D03*
D27*
X864947Y475234D03*
X864947Y498856D03*
D24*
X865328Y387413D03*
X865328Y390461D03*
X865328Y398081D03*
D47*
X865328Y410083D03*
D27*
X865328Y475234D03*
X865328Y498856D03*
D24*
X865709Y387413D03*
X865709Y390461D03*
X865709Y398081D03*
D47*
X865709Y410083D03*
D27*
X865709Y475234D03*
X865709Y498856D03*
D24*
X866090Y387413D03*
X866090Y390461D03*
X866090Y398081D03*
X866090Y405701D03*
D27*
X866090Y414274D03*
X866090Y475234D03*
X866090Y498856D03*
D24*
X866471Y387413D03*
X866471Y390461D03*
X866471Y398081D03*
X866471Y405701D03*
X866471Y414464D03*
D27*
X866471Y475234D03*
X866471Y498856D03*
D24*
X866852Y387413D03*
X866852Y390461D03*
X866852Y414464D03*
D27*
X866852Y475234D03*
X866852Y498856D03*
D24*
X867233Y387413D03*
X867233Y390461D03*
X867233Y414464D03*
D27*
X867233Y475234D03*
X867233Y498856D03*
D24*
X867614Y387413D03*
X867614Y390461D03*
X867614Y414464D03*
D27*
X867614Y475234D03*
X867614Y498856D03*
D24*
X867995Y387413D03*
X867995Y390461D03*
D75*
X867995Y398081D03*
D27*
X867995Y414274D03*
X867995Y475234D03*
X867995Y498856D03*
D24*
X868376Y387413D03*
X868376Y390461D03*
D75*
X868376Y398081D03*
D47*
X868376Y410083D03*
D27*
X868376Y475234D03*
X868376Y498856D03*
D24*
X868757Y387413D03*
X868757Y390461D03*
D75*
X868757Y398081D03*
D76*
X868757Y409892D03*
D27*
X868757Y475234D03*
X868757Y498856D03*
D24*
X869138Y387413D03*
X869138Y390461D03*
D75*
X869138Y398081D03*
D76*
X869138Y409892D03*
D27*
X869138Y475234D03*
X869138Y498856D03*
D24*
X869519Y387413D03*
X869519Y390461D03*
D75*
X869519Y398081D03*
D41*
X869519Y409702D03*
D27*
X869519Y475234D03*
X869519Y498856D03*
X869900Y475234D03*
X869900Y498856D03*
X870281Y475234D03*
X870281Y498856D03*
X870662Y475234D03*
X870662Y498856D03*
X871043Y475234D03*
X871043Y498856D03*
X871424Y475234D03*
X871424Y498856D03*
X871805Y475234D03*
X871805Y498856D03*
X872186Y475234D03*
X872186Y498856D03*
X872567Y475234D03*
X872567Y498856D03*
X872948Y475234D03*
X872948Y498856D03*
X873329Y475234D03*
X873329Y498856D03*
X873710Y475234D03*
X873710Y498856D03*
X874091Y475234D03*
X874091Y498856D03*
X874472Y475234D03*
X874472Y498856D03*
X874853Y475234D03*
X874853Y498856D03*
X875234Y475234D03*
X875234Y498856D03*
X875615Y475234D03*
X875615Y498856D03*
D23*
X875996Y475424D03*
D27*
X875996Y498856D03*
D23*
X876377Y475424D03*
D27*
X876377Y498856D03*
X876758Y475615D03*
D23*
X876758Y498665D03*
D27*
X877139Y475615D03*
D23*
X877139Y498665D03*
D27*
X877520Y475615D03*
X877520Y498475D03*
D23*
X877901Y475805D03*
D27*
X877901Y498475D03*
D23*
X878282Y475805D03*
D27*
X878282Y498475D03*
X878663Y475996D03*
D23*
X878663Y498284D03*
D27*
X879044Y475996D03*
X879044Y498094D03*
D23*
X879425Y476186D03*
D27*
X879425Y498094D03*
D23*
X879806Y476186D03*
X879806Y497903D03*
D27*
X880187Y476377D03*
D23*
X880187Y497903D03*
X880568Y476567D03*
X880568Y497522D03*
X880949Y476567D03*
X880949Y497522D03*
X881330Y476948D03*
X881330Y497141D03*
X881711Y476948D03*
X881711Y497141D03*
X882092Y477329D03*
X882092Y496760D03*
X882473Y477329D03*
X882473Y496760D03*
X882854Y477710D03*
X882854Y496379D03*
X883235Y477710D03*
X883235Y496379D03*
X883616Y478091D03*
X883616Y495998D03*
X883997Y478091D03*
X883997Y495998D03*
X884378Y478472D03*
X884378Y495617D03*
X884759Y478472D03*
X884759Y495617D03*
X885140Y478853D03*
X885140Y495236D03*
X885521Y478853D03*
X885521Y495236D03*
X885902Y479234D03*
X885902Y494855D03*
X886283Y479234D03*
X886283Y494855D03*
X886664Y479615D03*
X886664Y494474D03*
X887045Y479615D03*
X887045Y494474D03*
X887426Y479996D03*
X887426Y494093D03*
D27*
X887807Y480187D03*
D23*
X887807Y494093D03*
X888188Y480377D03*
X888188Y493712D03*
D27*
X888569Y480568D03*
D23*
X888569Y493712D03*
X888950Y480758D03*
X888950Y493331D03*
X889331Y481139D03*
X889331Y493331D03*
X889712Y481139D03*
X889712Y492950D03*
X890093Y481520D03*
X890093Y492950D03*
X890474Y481520D03*
X890474Y492569D03*
X890855Y481901D03*
X890855Y492569D03*
X891236Y481901D03*
X891236Y492188D03*
X891617Y482282D03*
X891617Y492188D03*
X891998Y482282D03*
X891998Y491807D03*
X892379Y482663D03*
X892379Y491807D03*
X892760Y482663D03*
X892760Y491426D03*
X893141Y483044D03*
X893141Y491426D03*
X893522Y483044D03*
X893522Y491045D03*
X893903Y483425D03*
X893903Y491045D03*
X894284Y483425D03*
X894284Y490664D03*
X894665Y483806D03*
X894665Y490664D03*
X895046Y483806D03*
X895046Y490283D03*
X895427Y484187D03*
X895427Y490283D03*
D27*
X895808Y484378D03*
D23*
X895808Y489902D03*
X896189Y484568D03*
D27*
X896189Y489712D03*
D23*
X896570Y484949D03*
X896570Y489521D03*
X896951Y484949D03*
D27*
X896951Y489331D03*
D23*
X897332Y485330D03*
X897332Y489140D03*
X897713Y485330D03*
X897713Y488759D03*
D48*
X898094Y487235D03*
D36*
X898475Y487045D03*
D38*
X898856Y487235D03*
D39*
X899237Y487235D03*
D26*
X899618Y487235D03*
D24*
X899999Y487235D03*
D77*
X418930Y518200D02*
X418930Y418200D01*
X477900Y418200D01*
X477900Y518200D01*
X418930Y518200D01*
D78*
X367900Y531500D02*
X367900Y404900D01*
X538380Y404900D01*
X538380Y531500D01*
X367900Y531500D01*
D79*
X527880Y498200D03*
D77*
X527836Y498202D01*
X527793Y498208D01*
X527751Y498217D01*
X527709Y498230D01*
X527669Y498247D01*
X527630Y498267D01*
X527593Y498290D01*
X527559Y498317D01*
X527526Y498346D01*
X527497Y498379D01*
X527470Y498413D01*
X527447Y498450D01*
X527427Y498489D01*
X527410Y498529D01*
X527397Y498571D01*
X527388Y498613D01*
X527382Y498656D01*
X527380Y498700D01*
X527382Y498744D01*
X527388Y498787D01*
X527397Y498829D01*
X527410Y498871D01*
X527427Y498911D01*
X527447Y498950D01*
X527470Y498987D01*
X527497Y499021D01*
X527526Y499054D01*
X527559Y499083D01*
X527593Y499110D01*
X527630Y499133D01*
X527669Y499153D01*
X527709Y499170D01*
X527751Y499183D01*
X527793Y499192D01*
X527836Y499198D01*
X527880Y499200D01*
D79*
X527880Y499200D03*
D77*
X527924Y499198D01*
X527967Y499192D01*
X528009Y499183D01*
X528051Y499170D01*
X528091Y499153D01*
X528130Y499133D01*
X528167Y499110D01*
X528201Y499083D01*
X528234Y499054D01*
X528263Y499021D01*
X528290Y498987D01*
X528313Y498950D01*
X528333Y498911D01*
X528350Y498871D01*
X528363Y498829D01*
X528372Y498787D01*
X528378Y498744D01*
X528380Y498700D01*
X528378Y498656D01*
X528372Y498613D01*
X528363Y498571D01*
X528350Y498529D01*
X528333Y498489D01*
X528313Y498450D01*
X528290Y498413D01*
X528263Y498379D01*
X528234Y498346D01*
X528201Y498317D01*
X528167Y498290D01*
X528130Y498267D01*
X528091Y498247D01*
X528051Y498230D01*
X528009Y498217D01*
X527967Y498208D01*
X527924Y498202D01*
X527880Y498200D01*
D78*
X477900Y518200D02*
X467900Y518200D01*
X477900Y518200D02*
X477900Y418200D01*
X467900Y418200D01*
D77*
X487800Y711500D02*
X507800Y711500D01*
X487800Y711500D02*
X487800Y691500D01*
X507800Y691500D01*
X507800Y711500D01*
D78*
X521520Y721500D02*
X477800Y721500D01*
X477800Y681500D01*
X521520Y681500D01*
X521520Y721500D01*
D80*
X511520Y709570D03*
D81*
X511518Y709537D01*
X511512Y709505D01*
X511503Y709474D01*
X511490Y709444D01*
X511474Y709416D01*
X511454Y709390D01*
X511432Y709366D01*
X511407Y709345D01*
X511380Y709328D01*
X511351Y709313D01*
X511320Y709302D01*
X511289Y709294D01*
X511256Y709290D01*
X511224Y709290D01*
X511191Y709294D01*
X511160Y709302D01*
X511129Y709313D01*
X511100Y709328D01*
X511073Y709345D01*
X511048Y709366D01*
X511026Y709390D01*
X511006Y709416D01*
X510990Y709444D01*
X510977Y709474D01*
X510968Y709505D01*
X510962Y709537D01*
X510960Y709570D01*
D80*
X510960Y709570D03*
D81*
X510962Y709603D01*
X510968Y709635D01*
X510977Y709666D01*
X510990Y709696D01*
X511006Y709724D01*
X511026Y709750D01*
X511048Y709774D01*
X511073Y709795D01*
X511100Y709812D01*
X511129Y709827D01*
X511160Y709838D01*
X511191Y709846D01*
X511224Y709850D01*
X511256Y709850D01*
X511289Y709846D01*
X511320Y709838D01*
X511351Y709827D01*
X511380Y709812D01*
X511407Y709795D01*
X511432Y709774D01*
X511454Y709750D01*
X511474Y709724D01*
X511490Y709696D01*
X511503Y709666D01*
X511512Y709635D01*
X511518Y709603D01*
X511520Y709570D01*
D78*
X376300Y939900D02*
X368300Y939900D01*
X368300Y952900D01*
X376300Y952900D01*
X385300Y939900D02*
X393300Y939900D01*
X393300Y952900D01*
X385300Y952900D01*
D82*
X374300Y946400D03*
X387300Y946400D03*
D83*
X380800Y942900D03*
X380800Y949900D03*
D78*
X584800Y816200D02*
X592800Y816200D01*
X592800Y803200D01*
X584800Y803200D01*
X575800Y816200D02*
X567800Y816200D01*
X567800Y803200D01*
X575800Y803200D01*
D82*
X586800Y809700D03*
X573800Y809700D03*
D83*
X580300Y813200D03*
X580300Y806200D03*
D84*
X503600Y573300D02*
X474600Y573300D01*
X474600Y561300D01*
X503600Y561300D01*
X503600Y573300D01*
D85*
X516530Y578300D02*
X516530Y556300D01*
X516530Y578300D02*
X461670Y578300D01*
X461670Y556300D02*
X516530Y556300D01*
X461670Y556300D02*
X461670Y578300D01*
X491005Y571745D02*
X491005Y562855D01*
X487195Y567300D01*
X491005Y571745D01*
X487195Y571745D02*
X487195Y562855D01*
D86*
X504475Y567300D03*
X473725Y567300D03*
D87*
X479600Y567300D03*
D78*
X504600Y599300D02*
X504600Y607300D01*
X517600Y607300D01*
X517600Y599300D01*
X504600Y590300D02*
X504600Y582300D01*
X517600Y582300D01*
X517600Y590300D01*
D88*
X511100Y601300D03*
X511100Y588300D03*
D89*
X507600Y594800D03*
X514600Y594800D03*
D78*
X427400Y816800D02*
X427400Y824800D01*
X427400Y816800D02*
X414400Y816800D01*
X414400Y824800D01*
X427400Y833800D02*
X427400Y841800D01*
X414400Y841800D01*
X414400Y833800D01*
D88*
X420900Y822800D03*
X420900Y835800D03*
D89*
X424400Y829300D03*
X417400Y829300D03*
D78*
X409900Y813500D02*
X401900Y813500D01*
X409900Y813500D02*
X409900Y800500D01*
X401900Y800500D01*
X392900Y813500D02*
X384900Y813500D01*
X384900Y800500D01*
X392900Y800500D01*
D82*
X403900Y807000D03*
X390900Y807000D03*
D83*
X397400Y810500D03*
X397400Y803500D03*
D78*
X391500Y743000D02*
X391500Y735000D01*
X378500Y735000D01*
X378500Y743000D01*
X391500Y752000D02*
X391500Y760000D01*
X378500Y760000D01*
X378500Y752000D01*
D88*
X385000Y741000D03*
X385000Y754000D03*
D89*
X388500Y747500D03*
X381500Y747500D03*
D78*
X467500Y739900D02*
X467500Y731900D01*
X454500Y731900D01*
X454500Y739900D01*
X467500Y748900D02*
X467500Y756900D01*
X454500Y756900D01*
X454500Y748900D01*
D88*
X461000Y737900D03*
X461000Y750900D03*
D89*
X464500Y744400D03*
X457500Y744400D03*
D78*
X443500Y736800D02*
X443500Y728800D01*
X430500Y728800D01*
X430500Y736800D01*
X443500Y745800D02*
X443500Y753800D01*
X430500Y753800D01*
X430500Y745800D01*
D88*
X437000Y734800D03*
X437000Y747800D03*
D89*
X440500Y741300D03*
X433500Y741300D03*
D78*
X485500Y744700D02*
X485500Y752700D01*
X485500Y744700D02*
X472500Y744700D01*
X472500Y752700D01*
X485500Y761700D02*
X485500Y769700D01*
X472500Y769700D01*
X472500Y761700D01*
D88*
X479000Y750700D03*
X479000Y763700D03*
D89*
X482500Y757200D03*
X475500Y757200D03*
D78*
X489500Y798600D02*
X489500Y806600D01*
X489500Y798600D02*
X476500Y798600D01*
X476500Y806600D01*
X489500Y815600D02*
X489500Y823600D01*
X476500Y823600D01*
X476500Y815600D01*
D88*
X483000Y804600D03*
X483000Y817600D03*
D89*
X486500Y811100D03*
X479500Y811100D03*
D78*
X590000Y675500D02*
X590000Y667500D01*
X577000Y667500D01*
X577000Y675500D01*
X590000Y684500D02*
X590000Y692500D01*
X577000Y692500D01*
X577000Y684500D01*
D88*
X583500Y673500D03*
X583500Y686500D03*
D89*
X587000Y680000D03*
X580000Y680000D03*
D78*
X506500Y832800D02*
X498500Y832800D01*
X498500Y845800D01*
X506500Y845800D01*
X515500Y832800D02*
X523500Y832800D01*
X523500Y845800D01*
X515500Y845800D01*
D82*
X504500Y839300D03*
X517500Y839300D03*
D83*
X511000Y835800D03*
X511000Y842800D03*
D78*
X590600Y705500D02*
X598600Y705500D01*
X590600Y705500D02*
X590600Y718500D01*
X598600Y718500D01*
X607600Y705500D02*
X615600Y705500D01*
X615600Y718500D01*
X607600Y718500D01*
D82*
X596600Y712000D03*
X609600Y712000D03*
D83*
X603100Y708500D03*
X603100Y715500D03*
D78*
X506500Y819800D02*
X498500Y819800D01*
X498500Y832800D01*
X506500Y832800D01*
X515500Y819800D02*
X523500Y819800D01*
X523500Y832800D01*
X515500Y832800D01*
D82*
X504500Y826300D03*
X517500Y826300D03*
D83*
X511000Y822800D03*
X511000Y829800D03*
D78*
X584900Y786200D02*
X592900Y786200D01*
X592900Y773200D01*
X584900Y773200D01*
X575900Y786200D02*
X567900Y786200D01*
X567900Y773200D01*
X575900Y773200D01*
D82*
X586900Y779700D03*
X573900Y779700D03*
D83*
X580400Y783200D03*
X580400Y776200D03*
D78*
X499400Y781800D02*
X491400Y781800D01*
X491400Y794800D01*
X499400Y794800D01*
X508400Y781800D02*
X516400Y781800D01*
X516400Y794800D01*
X508400Y794800D01*
D82*
X497400Y788300D03*
X510400Y788300D03*
D83*
X503900Y784800D03*
X503900Y791800D03*
D78*
X499300Y766800D02*
X491300Y766800D01*
X491300Y779800D01*
X499300Y779800D01*
X508300Y766800D02*
X516300Y766800D01*
X516300Y779800D01*
X508300Y779800D01*
D82*
X497300Y773300D03*
X510300Y773300D03*
D83*
X503800Y769800D03*
X503800Y776800D03*
D78*
X522800Y766800D02*
X522800Y758800D01*
X522800Y766800D02*
X535800Y766800D01*
X535800Y758800D01*
X522800Y749800D02*
X522800Y741800D01*
X535800Y741800D01*
X535800Y749800D01*
D88*
X529300Y760800D03*
X529300Y747800D03*
D89*
X525800Y754300D03*
X532800Y754300D03*
D78*
X483700Y728600D02*
X475700Y728600D01*
X475700Y741600D01*
X483700Y741600D01*
X492700Y728600D02*
X500700Y728600D01*
X500700Y741600D01*
X492700Y741600D01*
D82*
X481700Y735100D03*
X494700Y735100D03*
D83*
X488200Y731600D03*
X488200Y738600D03*
D78*
X511900Y725200D02*
X519900Y725200D01*
X511900Y725200D02*
X511900Y738200D01*
X519900Y738200D01*
X528900Y725200D02*
X536900Y725200D01*
X536900Y738200D01*
X528900Y738200D01*
D82*
X517900Y731700D03*
X530900Y731700D03*
D83*
X524400Y728200D03*
X524400Y735200D03*
D78*
X611200Y727800D02*
X619200Y727800D01*
X611200Y727800D02*
X611200Y740800D01*
X619200Y740800D01*
X628200Y727800D02*
X636200Y727800D01*
X636200Y740800D01*
X628200Y740800D01*
D82*
X617200Y734300D03*
X630200Y734300D03*
D83*
X623700Y730800D03*
X623700Y737800D03*
D78*
X663100Y1009300D02*
X663100Y1017300D01*
X676100Y1017300D01*
X676100Y1009300D01*
X663100Y1000300D02*
X663100Y992300D01*
X676100Y992300D01*
X676100Y1000300D01*
D88*
X669600Y1011300D03*
X669600Y998300D03*
D89*
X666100Y1004800D03*
X673100Y1004800D03*
D78*
X648700Y1009300D02*
X648700Y1017300D01*
X661700Y1017300D01*
X661700Y1009300D01*
X648700Y1000300D02*
X648700Y992300D01*
X661700Y992300D01*
X661700Y1000300D01*
D88*
X655200Y1011300D03*
X655200Y998300D03*
D89*
X651700Y1004800D03*
X658700Y1004800D03*
D78*
X634300Y1009300D02*
X634300Y1017300D01*
X647300Y1017300D01*
X647300Y1009300D01*
X634300Y1000300D02*
X634300Y992300D01*
X647300Y992300D01*
X647300Y1000300D01*
D88*
X640800Y1011300D03*
X640800Y998300D03*
D89*
X637300Y1004800D03*
X644300Y1004800D03*
D78*
X480900Y892300D02*
X480900Y884300D01*
X480900Y892300D02*
X493900Y892300D01*
X493900Y884300D01*
X480900Y875300D02*
X480900Y867300D01*
X493900Y867300D01*
X493900Y875300D01*
D88*
X487400Y886300D03*
X487400Y873300D03*
D89*
X483900Y879800D03*
X490900Y879800D03*
D78*
X144600Y977300D02*
X136600Y977300D01*
X144600Y977300D02*
X144600Y964300D01*
X136600Y964300D01*
X127600Y977300D02*
X119600Y977300D01*
X119600Y964300D01*
X127600Y964300D01*
D82*
X138600Y970800D03*
X125600Y970800D03*
D83*
X132100Y974300D03*
X132100Y967300D03*
D78*
X136500Y931300D02*
X144500Y931300D01*
X144500Y918300D01*
X136500Y918300D01*
X127500Y931300D02*
X119500Y931300D01*
X119500Y918300D01*
X127500Y918300D01*
D82*
X138500Y924800D03*
X125500Y924800D03*
D83*
X132000Y928300D03*
X132000Y921300D03*
D78*
X172600Y940300D02*
X180600Y940300D01*
X180600Y927300D01*
X172600Y927300D01*
X163600Y940300D02*
X155600Y940300D01*
X155600Y927300D01*
X163600Y927300D01*
D82*
X174600Y933800D03*
X161600Y933800D03*
D83*
X168100Y937300D03*
X168100Y930300D03*
D78*
X209300Y956700D02*
X217300Y956700D01*
X209300Y956700D02*
X209300Y969700D01*
X217300Y969700D01*
X226300Y956700D02*
X234300Y956700D01*
X234300Y969700D01*
X226300Y969700D01*
D82*
X215300Y963200D03*
X228300Y963200D03*
D83*
X221800Y959700D03*
X221800Y966700D03*
D78*
X373200Y849800D02*
X386700Y849800D01*
X373200Y849800D02*
X373200Y866800D01*
X386700Y866800D01*
X400700Y849800D02*
X414200Y849800D01*
X414200Y866800D01*
X400700Y866800D01*
D90*
X385950Y858300D03*
X401450Y858300D03*
D91*
X393700Y852550D03*
X393700Y864050D03*
D78*
X560900Y740200D02*
X560900Y732200D01*
X547900Y732200D01*
X547900Y740200D01*
X560900Y749200D02*
X560900Y757200D01*
X547900Y757200D01*
X547900Y749200D01*
D88*
X554400Y738200D03*
X554400Y751200D03*
D89*
X557900Y744700D03*
X550900Y744700D03*
D78*
X278900Y530600D02*
X270900Y530600D01*
X270900Y543600D01*
X278900Y543600D01*
X287900Y530600D02*
X295900Y530600D01*
X295900Y543600D01*
X287900Y543600D01*
D82*
X276900Y537100D03*
X289900Y537100D03*
D83*
X283400Y533600D03*
X283400Y540600D03*
D78*
X498500Y804800D02*
X506500Y804800D01*
X498500Y804800D02*
X498500Y817800D01*
X506500Y817800D01*
X515500Y804800D02*
X523500Y804800D01*
X523500Y817800D01*
X515500Y817800D01*
D82*
X504500Y811300D03*
X517500Y811300D03*
D83*
X511000Y807800D03*
X511000Y814800D03*
D78*
X260400Y524000D02*
X260400Y516000D01*
X247400Y516000D01*
X247400Y524000D01*
X260400Y533000D02*
X260400Y541000D01*
X247400Y541000D01*
X247400Y533000D01*
D88*
X253900Y522000D03*
X253900Y535000D03*
D89*
X257400Y528500D03*
X250400Y528500D03*
D78*
X211600Y477900D02*
X211600Y469900D01*
X211600Y477900D02*
X224600Y477900D01*
X224600Y469900D01*
X211600Y460900D02*
X211600Y452900D01*
X224600Y452900D01*
X224600Y460900D01*
D88*
X218100Y471900D03*
X218100Y458900D03*
D89*
X214600Y465400D03*
X221600Y465400D03*
D78*
X180200Y533900D02*
X180200Y548400D01*
X201200Y548400D01*
X201200Y533900D01*
X180200Y509900D02*
X180200Y495400D01*
X201200Y495400D01*
X201200Y509900D01*
D92*
X190700Y537400D03*
X190700Y506400D03*
D93*
X183200Y521900D03*
X198200Y521900D03*
D78*
X202300Y436600D02*
X210300Y436600D01*
X202300Y436600D02*
X202300Y449600D01*
X210300Y449600D01*
X219300Y436600D02*
X227300Y436600D01*
X227300Y449600D01*
X219300Y449600D01*
D82*
X208300Y443100D03*
X221300Y443100D03*
D83*
X214800Y439600D03*
X214800Y446600D03*
D78*
X256400Y436600D02*
X264400Y436600D01*
X256400Y436600D02*
X256400Y449600D01*
X264400Y449600D01*
X273400Y436600D02*
X281400Y436600D01*
X281400Y449600D01*
X273400Y449600D01*
D82*
X262400Y443100D03*
X275400Y443100D03*
D83*
X268900Y439600D03*
X268900Y446600D03*
D78*
X280400Y625600D02*
X280400Y633600D01*
X280400Y625600D02*
X267400Y625600D01*
X267400Y633600D01*
X280400Y642600D02*
X280400Y650600D01*
X267400Y650600D01*
X267400Y642600D01*
D88*
X273900Y631600D03*
X273900Y644600D03*
D89*
X277400Y638100D03*
X270400Y638100D03*
D78*
X265400Y633700D02*
X265400Y625700D01*
X252400Y625700D01*
X252400Y633700D01*
X265400Y642700D02*
X265400Y650700D01*
X252400Y650700D01*
X252400Y642700D01*
D88*
X258900Y631700D03*
X258900Y644700D03*
D89*
X262400Y638200D03*
X255400Y638200D03*
D78*
X210600Y586800D02*
X210600Y578800D01*
X210600Y586800D02*
X223600Y586800D01*
X223600Y578800D01*
X210600Y569800D02*
X210600Y561800D01*
X223600Y561800D01*
X223600Y569800D01*
D88*
X217100Y580800D03*
X217100Y567800D03*
D89*
X213600Y574300D03*
X220600Y574300D03*
D78*
X175100Y643900D02*
X175100Y658400D01*
X196100Y658400D01*
X196100Y643900D01*
X175100Y619900D02*
X175100Y605400D01*
X196100Y605400D01*
X196100Y619900D01*
D92*
X185600Y647400D03*
X185600Y616400D03*
D93*
X178100Y631900D03*
X193100Y631900D03*
D78*
X584800Y831200D02*
X592800Y831200D01*
X592800Y818200D01*
X584800Y818200D01*
X575800Y831200D02*
X567800Y831200D01*
X567800Y818200D01*
X575800Y818200D01*
D82*
X586800Y824700D03*
X573800Y824700D03*
D83*
X580300Y828200D03*
X580300Y821200D03*
D78*
X225000Y546600D02*
X217000Y546600D01*
X217000Y559600D01*
X225000Y559600D01*
X234000Y546600D02*
X242000Y546600D01*
X242000Y559600D01*
X234000Y559600D01*
D82*
X223000Y553100D03*
X236000Y553100D03*
D83*
X229500Y549600D03*
X229500Y556600D03*
D78*
X271100Y546600D02*
X279100Y546600D01*
X271100Y546600D02*
X271100Y559600D01*
X279100Y559600D01*
X288100Y546600D02*
X296100Y546600D01*
X296100Y559600D01*
X288100Y559600D01*
D82*
X277100Y553100D03*
X290100Y553100D03*
D83*
X283600Y549600D03*
X283600Y556600D03*
D78*
X281400Y734700D02*
X281400Y742700D01*
X281400Y734700D02*
X268400Y734700D01*
X268400Y742700D01*
X281400Y751700D02*
X281400Y759700D01*
X268400Y759700D01*
X268400Y751700D01*
D88*
X274900Y740700D03*
X274900Y753700D03*
D89*
X278400Y747200D03*
X271400Y747200D03*
D78*
X266400Y742600D02*
X266400Y734600D01*
X253400Y734600D01*
X253400Y742600D01*
X266400Y751600D02*
X266400Y759600D01*
X253400Y759600D01*
X253400Y751600D01*
D88*
X259900Y740600D03*
X259900Y753600D03*
D89*
X263400Y747100D03*
X256400Y747100D03*
D78*
X211600Y695500D02*
X211600Y687500D01*
X211600Y695500D02*
X224600Y695500D01*
X224600Y687500D01*
X211600Y678500D02*
X211600Y670500D01*
X224600Y670500D01*
X224600Y678500D01*
D88*
X218100Y689500D03*
X218100Y676500D03*
D89*
X214600Y683000D03*
X221600Y683000D03*
D78*
X143100Y755600D02*
X128600Y755600D01*
X128600Y776600D01*
X143100Y776600D01*
X167100Y755600D02*
X181600Y755600D01*
X181600Y776600D01*
X167100Y776600D01*
D94*
X139600Y766100D03*
X170600Y766100D03*
D95*
X155100Y758600D03*
X155100Y773600D03*
D78*
X217700Y654600D02*
X225700Y654600D01*
X217700Y654600D02*
X217700Y667600D01*
X225700Y667600D01*
X234700Y654600D02*
X242700Y654600D01*
X242700Y667600D01*
X234700Y667600D01*
D82*
X223700Y661100D03*
X236700Y661100D03*
D83*
X230200Y657600D03*
X230200Y664600D03*
D78*
X270800Y654600D02*
X278800Y654600D01*
X270800Y654600D02*
X270800Y667600D01*
X278800Y667600D01*
X287800Y654600D02*
X295800Y654600D01*
X295800Y667600D01*
X287800Y667600D01*
D82*
X276800Y661100D03*
X289800Y661100D03*
D83*
X283300Y657600D03*
X283300Y664600D03*
D78*
X584900Y801200D02*
X592900Y801200D01*
X592900Y788200D01*
X584900Y788200D01*
X575900Y801200D02*
X567900Y801200D01*
X567900Y788200D01*
X575900Y788200D01*
D82*
X586900Y794700D03*
X573900Y794700D03*
D83*
X580400Y798200D03*
X580400Y791200D03*
D78*
X280400Y841000D02*
X280400Y849000D01*
X280400Y841000D02*
X267400Y841000D01*
X267400Y849000D01*
X280400Y858000D02*
X280400Y866000D01*
X267400Y866000D01*
X267400Y858000D01*
D88*
X273900Y847000D03*
X273900Y860000D03*
D89*
X277400Y853500D03*
X270400Y853500D03*
D78*
X265400Y848900D02*
X265400Y840900D01*
X252400Y840900D01*
X252400Y848900D01*
X265400Y857900D02*
X265400Y865900D01*
X252400Y865900D01*
X252400Y857900D01*
D88*
X258900Y846900D03*
X258900Y859900D03*
D89*
X262400Y853400D03*
X255400Y853400D03*
D78*
X211600Y802200D02*
X211600Y794200D01*
X211600Y802200D02*
X224600Y802200D01*
X224600Y794200D01*
X211600Y785200D02*
X211600Y777200D01*
X224600Y777200D01*
X224600Y785200D01*
D88*
X218100Y796200D03*
X218100Y783200D03*
D89*
X214600Y789700D03*
X221600Y789700D03*
D78*
X186100Y852800D02*
X186100Y867300D01*
X207100Y867300D01*
X207100Y852800D01*
X186100Y828800D02*
X186100Y814300D01*
X207100Y814300D01*
X207100Y828800D01*
D92*
X196600Y856300D03*
X196600Y825300D03*
D93*
X189100Y840800D03*
X204100Y840800D03*
D78*
X216600Y761600D02*
X224600Y761600D01*
X216600Y761600D02*
X216600Y774600D01*
X224600Y774600D01*
X233600Y761600D02*
X241600Y761600D01*
X241600Y774600D01*
X233600Y774600D01*
D82*
X222600Y768100D03*
X235600Y768100D03*
D83*
X229100Y764600D03*
X229100Y771600D03*
D78*
X270500Y761600D02*
X278500Y761600D01*
X270500Y761600D02*
X270500Y774600D01*
X278500Y774600D01*
X287500Y761600D02*
X295500Y761600D01*
X295500Y774600D01*
X287500Y774600D01*
D82*
X276500Y768100D03*
X289500Y768100D03*
D83*
X283000Y764600D03*
X283000Y771600D03*
D84*
X398600Y704100D02*
X398600Y675100D01*
X410600Y675100D01*
X410600Y704100D01*
X398600Y704100D01*
D85*
X393600Y717030D02*
X415600Y717030D01*
X393600Y717030D02*
X393600Y662170D01*
X415600Y662170D02*
X415600Y717030D01*
X415600Y662170D02*
X393600Y662170D01*
X400155Y691505D02*
X409045Y691505D01*
X404600Y687695D01*
X400155Y691505D01*
X400155Y687695D02*
X409045Y687695D01*
D96*
X404600Y704975D03*
X404600Y674225D03*
D97*
X404600Y680100D03*
D78*
X441600Y642400D02*
X441600Y634400D01*
X441600Y642400D02*
X454600Y642400D01*
X454600Y634400D01*
X441600Y625400D02*
X441600Y617400D01*
X454600Y617400D01*
X454600Y625400D01*
D88*
X448100Y636400D03*
X448100Y623400D03*
D89*
X444600Y629900D03*
X451600Y629900D03*
D84*
X428800Y561300D02*
X399800Y561300D01*
X399800Y549300D01*
X428800Y549300D01*
X428800Y561300D01*
D85*
X441730Y566300D02*
X441730Y544300D01*
X441730Y566300D02*
X386870Y566300D01*
X386870Y544300D02*
X441730Y544300D01*
X386870Y544300D02*
X386870Y566300D01*
X416205Y559745D02*
X416205Y550855D01*
X412395Y555300D01*
X416205Y559745D01*
X412395Y559745D02*
X412395Y550855D01*
D86*
X429675Y555300D03*
X398925Y555300D03*
D87*
X404800Y555300D03*
D84*
X427300Y675100D02*
X427300Y704100D01*
X427300Y675100D02*
X439300Y675100D01*
X439300Y704100D01*
X427300Y704100D01*
D85*
X422300Y717030D02*
X444300Y717030D01*
X422300Y717030D02*
X422300Y662170D01*
X444300Y662170D02*
X444300Y717030D01*
X444300Y662170D02*
X422300Y662170D01*
X428855Y691505D02*
X437745Y691505D01*
X433300Y687695D01*
X428855Y691505D01*
X428855Y687695D02*
X437745Y687695D01*
D96*
X433300Y704975D03*
X433300Y674225D03*
D97*
X433300Y680100D03*
D98*
X474350Y761950D02*
X474350Y814450D01*
X411850Y814450D01*
X411850Y761950D01*
X474350Y761950D01*
D78*
X468100Y768200D02*
X468100Y808200D01*
X418100Y808200D01*
X418100Y768200D01*
X468100Y768200D01*
X463100Y768200D02*
X468100Y773200D01*
D98*
X112200Y921150D02*
X112200Y976850D01*
X82200Y976850D01*
X82200Y921150D01*
X112200Y921150D01*
D78*
X109700Y930500D02*
X109700Y967500D01*
X84700Y967500D01*
X84700Y930500D01*
X109700Y930500D01*
X104100Y930500D02*
X109700Y936100D01*
D77*
X109700Y922650D02*
X109700Y967500D01*
X84700Y967500D02*
X84700Y930500D01*
D98*
X475200Y728550D02*
X475200Y672850D01*
X475200Y728550D02*
X445200Y728550D01*
X445200Y672850D01*
X475200Y672850D01*
D78*
X472700Y682200D02*
X472700Y719200D01*
X447700Y719200D01*
X447700Y682200D01*
X472700Y682200D01*
X467100Y682200D02*
X472700Y687800D01*
D77*
X472700Y674350D02*
X472700Y719200D01*
X447700Y719200D02*
X447700Y682200D01*
D98*
X265300Y876050D02*
X265300Y931750D01*
X265300Y876050D02*
X295300Y876050D01*
X295300Y931750D01*
X265300Y931750D01*
D78*
X267800Y922400D02*
X267800Y885400D01*
X292800Y885400D01*
X292800Y922400D01*
X267800Y922400D01*
X273400Y922400D02*
X267800Y916800D01*
D77*
X267800Y930250D02*
X267800Y885400D01*
X292800Y885400D02*
X292800Y922400D01*
D98*
X297950Y948800D02*
X242250Y948800D01*
X297950Y948800D02*
X297950Y978800D01*
X242250Y978800D01*
X242250Y948800D01*
D78*
X251600Y951300D02*
X288600Y951300D01*
X288600Y976300D01*
X251600Y976300D01*
X251600Y951300D01*
X251600Y956900D02*
X257200Y951300D01*
D77*
X243750Y951300D02*
X288600Y951300D01*
X288600Y976300D02*
X251600Y976300D01*
D98*
X391200Y729650D02*
X391200Y673950D01*
X391200Y729650D02*
X361200Y729650D01*
X361200Y673950D01*
X391200Y673950D01*
D78*
X388700Y683300D02*
X388700Y720300D01*
X363700Y720300D01*
X363700Y683300D01*
X388700Y683300D01*
X383100Y683300D02*
X388700Y688900D01*
D77*
X388700Y675450D02*
X388700Y720300D01*
X363700Y720300D02*
X363700Y683300D01*
D98*
X190050Y942400D02*
X147550Y942400D01*
X190050Y942400D02*
X190050Y977400D01*
X147550Y977400D01*
X147550Y942400D01*
D78*
X160680Y945400D02*
X176920Y945400D01*
X176920Y974400D01*
X160680Y974400D01*
X160680Y945400D01*
X160680Y954900D02*
X170180Y945400D01*
D77*
X171550Y945400D02*
X166050Y945400D01*
X171550Y945400D02*
X171550Y974400D01*
X166050Y974400D01*
X166050Y945400D01*
X162550Y943900D02*
X150050Y943900D01*
D98*
X393400Y632800D02*
X393400Y569800D01*
X428400Y569800D01*
X428400Y632800D01*
X393400Y632800D01*
D78*
X395900Y616300D02*
X395900Y586300D01*
X425900Y586300D01*
X425900Y616300D01*
X395900Y616300D01*
X402400Y616300D02*
X395900Y609800D01*
D77*
X395900Y612800D02*
X395900Y589800D01*
X425900Y589800D01*
X425900Y612800D01*
X395900Y612800D01*
X395400Y616300D02*
X395400Y630300D01*
D98*
X467400Y644800D02*
X467400Y581800D01*
X502400Y581800D01*
X502400Y644800D01*
X467400Y644800D01*
D78*
X469900Y628300D02*
X469900Y598300D01*
X499900Y598300D01*
X499900Y628300D01*
X469900Y628300D01*
X476400Y628300D02*
X469900Y621800D01*
D77*
X469900Y624800D02*
X469900Y601800D01*
X499900Y601800D01*
X499900Y624800D01*
X469900Y624800D01*
X469400Y628300D02*
X469400Y642300D01*
D78*
X237100Y436500D02*
X229100Y436500D01*
X229100Y449500D01*
X237100Y449500D01*
X246100Y436500D02*
X254100Y436500D01*
X254100Y449500D01*
X246100Y449500D01*
D82*
X235100Y443000D03*
X248100Y443000D03*
D83*
X241600Y439500D03*
X241600Y446500D03*
D78*
X244200Y546500D02*
X252200Y546500D01*
X244200Y546500D02*
X244200Y559500D01*
X252200Y559500D01*
X261200Y546500D02*
X269200Y546500D01*
X269200Y559500D01*
X261200Y559500D01*
D82*
X250200Y553000D03*
X263200Y553000D03*
D83*
X256700Y549500D03*
X256700Y556500D03*
D78*
X252300Y654500D02*
X244300Y654500D01*
X244300Y667500D01*
X252300Y667500D01*
X261300Y654500D02*
X269300Y654500D01*
X269300Y667500D01*
X261300Y667500D01*
D82*
X250300Y661000D03*
X263300Y661000D03*
D83*
X256800Y657500D03*
X256800Y664500D03*
D78*
X251600Y761500D02*
X243600Y761500D01*
X243600Y774500D01*
X251600Y774500D01*
X260600Y761500D02*
X268600Y761500D01*
X268600Y774500D01*
X260600Y774500D01*
D82*
X249600Y768000D03*
X262600Y768000D03*
D83*
X256100Y764500D03*
X256100Y771500D03*
D78*
X489500Y771500D02*
X489500Y779500D01*
X489500Y771500D02*
X476500Y771500D01*
X476500Y779500D01*
X489500Y788500D02*
X489500Y796500D01*
X476500Y796500D01*
X476500Y788500D01*
D88*
X483000Y777500D03*
X483000Y790500D03*
D89*
X486500Y784000D03*
X479500Y784000D03*
D78*
X628400Y755500D02*
X636400Y755500D01*
X636400Y742500D01*
X628400Y742500D01*
X619400Y755500D02*
X611400Y755500D01*
X611400Y742500D01*
X619400Y742500D01*
D82*
X630400Y749000D03*
X617400Y749000D03*
D83*
X623900Y752500D03*
X623900Y745500D03*
D78*
X206500Y955800D02*
X206500Y963800D01*
X206500Y955800D02*
X193500Y955800D01*
X193500Y963800D01*
X206500Y972800D02*
X206500Y980800D01*
X193500Y980800D01*
X193500Y972800D01*
D88*
X200000Y961800D03*
X200000Y974800D03*
D89*
X203500Y968300D03*
X196500Y968300D03*
D77*
X338850Y873350D02*
X338850Y842850D01*
X338850Y873350D02*
X308350Y873350D01*
X308350Y842850D01*
X338850Y842850D01*
D78*
X348850Y827600D02*
X348850Y886200D01*
X298350Y886200D01*
X298350Y827600D01*
X348850Y827600D01*
X338850Y842850D02*
X338850Y873650D01*
X308350Y873350D02*
X308350Y843100D01*
D85*
X463824Y603504D02*
X463824Y590296D01*
D99*
X463824Y603504D02*
X432376Y603504D01*
D85*
X432376Y590296D01*
X463824Y590296D01*
X431376Y590296D02*
X431376Y603424D01*
X431376Y590296D02*
X440964Y590296D01*
X464824Y590296D02*
X464824Y603424D01*
X464824Y590296D02*
X455236Y590296D01*
X450324Y603504D02*
X445736Y603504D01*
D100*
X448100Y586867D03*
X457498Y606933D03*
X438702Y606933D03*
D85*
X389124Y591704D02*
X389124Y578496D01*
D99*
X389124Y591704D02*
X357676Y591704D01*
D85*
X357676Y578496D01*
X389124Y578496D01*
X356676Y578496D02*
X356676Y591624D01*
X356676Y578496D02*
X366264Y578496D01*
X390124Y578496D02*
X390124Y591624D01*
X390124Y578496D02*
X380536Y578496D01*
X375624Y591704D02*
X371036Y591704D01*
D100*
X373400Y575067D03*
X382798Y595133D03*
X364002Y595133D03*
D85*
X467824Y843296D02*
X467824Y856504D01*
D99*
X436376Y856504D01*
D85*
X436376Y843296D01*
X467824Y843296D01*
X435376Y843296D02*
X435376Y856424D01*
X435376Y843296D02*
X444964Y843296D01*
X468824Y843296D02*
X468824Y856424D01*
X468824Y843296D02*
X459236Y843296D01*
X454324Y856504D02*
X449736Y856504D01*
D100*
X452100Y839867D03*
X461498Y859933D03*
X442702Y859933D03*
D85*
X323504Y901876D02*
X310296Y901876D01*
D99*
X323504Y901876D02*
X323504Y933324D01*
D85*
X310296Y933324D01*
X310296Y901876D01*
X310296Y934324D02*
X323424Y934324D01*
X310296Y934324D02*
X310296Y924736D01*
X310296Y900876D02*
X323424Y900876D01*
X310296Y900876D02*
X310296Y910464D01*
X323504Y915376D02*
X323504Y919964D01*
D101*
X306867Y917600D03*
X326933Y908202D03*
X326933Y926998D03*
D77*
X554550Y465850D02*
X585050Y465850D01*
X554550Y465850D02*
X554550Y435350D01*
X585050Y435350D01*
X585050Y465850D01*
D78*
X600300Y475850D02*
X541700Y475850D01*
X541700Y425350D01*
X600300Y425350D01*
X600300Y475850D01*
X585050Y465850D02*
X554250Y465850D01*
X554550Y435350D02*
X584800Y435350D01*
D77*
X584950Y518850D02*
X554450Y518850D01*
X554450Y488350D01*
X584950Y488350D01*
X584950Y518850D01*
D78*
X600200Y528850D02*
X541600Y528850D01*
X541600Y478350D01*
X600200Y478350D01*
X600200Y528850D01*
X584950Y518850D02*
X554150Y518850D01*
X554450Y488350D02*
X584700Y488350D01*
X145100Y962100D02*
X137100Y962100D01*
X145100Y962100D02*
X145100Y949100D01*
X137100Y949100D01*
X128100Y962100D02*
X120100Y962100D01*
X120100Y949100D01*
X128100Y949100D01*
D82*
X139100Y955600D03*
X126100Y955600D03*
D83*
X132600Y959100D03*
X132600Y952100D03*
D78*
X451900Y893400D02*
X459900Y893400D01*
X451900Y893400D02*
X451900Y906400D01*
X459900Y906400D01*
X468900Y893400D02*
X476900Y893400D01*
X476900Y906400D01*
X468900Y906400D01*
D82*
X457900Y899900D03*
X470900Y899900D03*
D83*
X464400Y896400D03*
X464400Y903400D03*
D78*
X144700Y947600D02*
X136700Y947600D01*
X144700Y947600D02*
X144700Y934600D01*
X136700Y934600D01*
X127700Y947600D02*
X119700Y947600D01*
X119700Y934600D01*
X127700Y934600D01*
D82*
X138700Y941100D03*
X125700Y941100D03*
D83*
X132200Y944600D03*
X132200Y937600D03*
D78*
X607800Y703600D02*
X615800Y703600D01*
X615800Y690600D01*
X607800Y690600D01*
X598800Y703600D02*
X590800Y703600D01*
X590800Y690600D01*
X598800Y690600D01*
D82*
X609800Y697100D03*
X596800Y697100D03*
D83*
X603300Y700600D03*
X603300Y693600D03*
D78*
X403900Y914600D02*
X403900Y922600D01*
X416900Y922600D01*
X416900Y914600D01*
X403900Y905600D02*
X403900Y897600D01*
X416900Y897600D01*
X416900Y905600D01*
D88*
X410400Y916600D03*
X410400Y903600D03*
D89*
X406900Y910100D03*
X413900Y910100D03*
D78*
X232400Y540900D02*
X232400Y532900D01*
X232400Y540900D02*
X245400Y540900D01*
X245400Y532900D01*
X232400Y523900D02*
X232400Y515900D01*
X245400Y515900D01*
X245400Y523900D01*
D88*
X238900Y534900D03*
X238900Y521900D03*
D89*
X235400Y528400D03*
X242400Y528400D03*
D78*
X288200Y529100D02*
X296200Y529100D01*
X296200Y516100D01*
X288200Y516100D01*
X279200Y529100D02*
X271200Y529100D01*
X271200Y516100D01*
X279200Y516100D01*
D82*
X290200Y522600D03*
X277200Y522600D03*
D83*
X283700Y526100D03*
X283700Y519100D03*
D78*
X227800Y529300D02*
X219800Y529300D01*
X227800Y529300D02*
X227800Y516300D01*
X219800Y516300D01*
X210800Y529300D02*
X202800Y529300D01*
X202800Y516300D01*
X210800Y516300D01*
D82*
X221800Y522800D03*
X208800Y522800D03*
D83*
X215300Y526300D03*
X215300Y519300D03*
D78*
X210800Y531300D02*
X202800Y531300D01*
X202800Y544300D01*
X210800Y544300D01*
X219800Y531300D02*
X227800Y531300D01*
X227800Y544300D01*
X219800Y544300D01*
D82*
X208800Y537800D03*
X221800Y537800D03*
D83*
X215300Y534300D03*
X215300Y541300D03*
D78*
X237400Y642500D02*
X237400Y650500D01*
X250400Y650500D01*
X250400Y642500D01*
X237400Y633500D02*
X237400Y625500D01*
X250400Y625500D01*
X250400Y633500D01*
D88*
X243900Y644500D03*
X243900Y631500D03*
D89*
X240400Y638000D03*
X247400Y638000D03*
D78*
X282900Y633900D02*
X282900Y625900D01*
X282900Y633900D02*
X295900Y633900D01*
X295900Y625900D01*
X282900Y616900D02*
X282900Y608900D01*
X295900Y608900D01*
X295900Y616900D01*
D88*
X289400Y627900D03*
X289400Y614900D03*
D89*
X285900Y621400D03*
X292900Y621400D03*
D78*
X227200Y638100D02*
X219200Y638100D01*
X227200Y638100D02*
X227200Y625100D01*
X219200Y625100D01*
X210200Y638100D02*
X202200Y638100D01*
X202200Y625100D01*
X210200Y625100D01*
D82*
X221200Y631600D03*
X208200Y631600D03*
D83*
X214700Y635100D03*
X214700Y628100D03*
D78*
X209400Y639400D02*
X201400Y639400D01*
X201400Y652400D01*
X209400Y652400D01*
X218400Y639400D02*
X226400Y639400D01*
X226400Y652400D01*
X218400Y652400D01*
D82*
X207400Y645900D03*
X220400Y645900D03*
D83*
X213900Y642400D03*
X213900Y649400D03*
D78*
X238400Y751700D02*
X238400Y759700D01*
X251400Y759700D01*
X251400Y751700D01*
X238400Y742700D02*
X238400Y734700D01*
X251400Y734700D01*
X251400Y742700D01*
D88*
X244900Y753700D03*
X244900Y740700D03*
D89*
X241400Y747200D03*
X248400Y747200D03*
D78*
X282900Y740300D02*
X282900Y732300D01*
X282900Y740300D02*
X295900Y740300D01*
X295900Y732300D01*
X282900Y723300D02*
X282900Y715300D01*
X295900Y715300D01*
X295900Y723300D01*
D88*
X289400Y734300D03*
X289400Y721300D03*
D89*
X285900Y727800D03*
X292900Y727800D03*
D78*
X227600Y745100D02*
X219600Y745100D01*
X227600Y745100D02*
X227600Y732100D01*
X219600Y732100D01*
X210600Y745100D02*
X202600Y745100D01*
X202600Y732100D01*
X210600Y732100D01*
D82*
X221600Y738600D03*
X208600Y738600D03*
D83*
X215100Y742100D03*
X215100Y735100D03*
D78*
X210800Y746400D02*
X202800Y746400D01*
X202800Y759400D01*
X210800Y759400D01*
X219800Y746400D02*
X227800Y746400D01*
X227800Y759400D01*
X219800Y759400D01*
D82*
X208800Y752900D03*
X221800Y752900D03*
D83*
X215300Y749400D03*
X215300Y756400D03*
D78*
X237300Y857900D02*
X237300Y865900D01*
X250300Y865900D01*
X250300Y857900D01*
X237300Y848900D02*
X237300Y840900D01*
X250300Y840900D01*
X250300Y848900D01*
D88*
X243800Y859900D03*
X243800Y846900D03*
D89*
X240300Y853400D03*
X247300Y853400D03*
D78*
X282900Y848500D02*
X282900Y840500D01*
X282900Y848500D02*
X295900Y848500D01*
X295900Y840500D01*
X282900Y831500D02*
X282900Y823500D01*
X295900Y823500D01*
X295900Y831500D01*
D88*
X289400Y842500D03*
X289400Y829500D03*
D89*
X285900Y836000D03*
X292900Y836000D03*
D78*
X233600Y852100D02*
X225600Y852100D01*
X233600Y852100D02*
X233600Y839100D01*
X225600Y839100D01*
X216600Y852100D02*
X208600Y852100D01*
X208600Y839100D01*
X216600Y839100D01*
D82*
X227600Y845600D03*
X214600Y845600D03*
D83*
X221100Y849100D03*
X221100Y842100D03*
D78*
X216600Y853600D02*
X208600Y853600D01*
X208600Y866600D01*
X216600Y866600D01*
X225600Y853600D02*
X233600Y853600D01*
X233600Y866600D01*
X225600Y866600D01*
D82*
X214600Y860100D03*
X227600Y860100D03*
D83*
X221100Y856600D03*
X221100Y863600D03*
D78*
X544600Y941300D02*
X544600Y949300D01*
X544600Y941300D02*
X531600Y941300D01*
X531600Y949300D01*
X544600Y958300D02*
X544600Y966300D01*
X531600Y966300D01*
X531600Y958300D01*
D88*
X538100Y947300D03*
X538100Y960300D03*
D89*
X541600Y953800D03*
X534600Y953800D03*
D78*
X369300Y671600D02*
X369300Y663600D01*
X369300Y671600D02*
X382300Y671600D01*
X382300Y663600D01*
X369300Y654600D02*
X369300Y646600D01*
X382300Y646600D01*
X382300Y654600D01*
D88*
X375800Y665600D03*
X375800Y652600D03*
D89*
X372300Y659100D03*
X379300Y659100D03*
D78*
X411300Y658500D02*
X411300Y650500D01*
X411300Y658500D02*
X424300Y658500D01*
X424300Y650500D01*
X411300Y641500D02*
X411300Y633500D01*
X424300Y633500D01*
X424300Y641500D01*
D88*
X417800Y652500D03*
X417800Y639500D03*
D89*
X414300Y646000D03*
X421300Y646000D03*
D78*
X439100Y642700D02*
X439100Y634700D01*
X426100Y634700D01*
X426100Y642700D01*
X439100Y651700D02*
X439100Y659700D01*
X426100Y659700D01*
X426100Y651700D01*
D88*
X432600Y640700D03*
X432600Y653700D03*
D89*
X436100Y647200D03*
X429100Y647200D03*
D78*
X453300Y663400D02*
X453300Y671400D01*
X466300Y671400D01*
X466300Y663400D01*
X453300Y654400D02*
X453300Y646400D01*
X466300Y646400D01*
X466300Y654400D01*
D88*
X459800Y665400D03*
X459800Y652400D03*
D89*
X456300Y658900D03*
X463300Y658900D03*
D78*
X486300Y664300D02*
X486300Y672300D01*
X499300Y672300D01*
X499300Y664300D01*
X486300Y655300D02*
X486300Y647300D01*
X499300Y647300D01*
X499300Y655300D01*
D88*
X492800Y666300D03*
X492800Y653300D03*
D89*
X489300Y659800D03*
X496300Y659800D03*
D78*
X514100Y654800D02*
X514100Y646800D01*
X501100Y646800D01*
X501100Y654800D01*
X514100Y663800D02*
X514100Y671800D01*
X501100Y671800D01*
X501100Y663800D01*
D88*
X507600Y652800D03*
X507600Y665800D03*
D89*
X511100Y659300D03*
X504100Y659300D03*
D78*
X392100Y762900D02*
X384100Y762900D01*
X384100Y775900D01*
X392100Y775900D01*
X401100Y762900D02*
X409100Y762900D01*
X409100Y775900D01*
X401100Y775900D01*
D82*
X390100Y769400D03*
X403100Y769400D03*
D83*
X396600Y765900D03*
X396600Y772900D03*
D78*
X398900Y834000D02*
X398900Y842000D01*
X411900Y842000D01*
X411900Y834000D01*
X398900Y825000D02*
X398900Y817000D01*
X411900Y817000D01*
X411900Y825000D01*
D88*
X405400Y836000D03*
X405400Y823000D03*
D89*
X401900Y829500D03*
X408900Y829500D03*
D78*
X410900Y754100D02*
X410900Y746100D01*
X410900Y754100D02*
X423900Y754100D01*
X423900Y746100D01*
X410900Y737100D02*
X410900Y729100D01*
X423900Y729100D01*
X423900Y737100D01*
D88*
X417400Y748100D03*
X417400Y735100D03*
D89*
X413900Y741600D03*
X420900Y741600D03*
D78*
X393300Y751800D02*
X393300Y759800D01*
X406300Y759800D01*
X406300Y751800D01*
X393300Y742800D02*
X393300Y734800D01*
X406300Y734800D01*
X406300Y742800D01*
D88*
X399800Y753800D03*
X399800Y740800D03*
D89*
X396300Y747300D03*
X403300Y747300D03*
D78*
X561600Y941400D02*
X561600Y949400D01*
X561600Y941400D02*
X548600Y941400D01*
X548600Y949400D01*
X561600Y958400D02*
X561600Y966400D01*
X548600Y966400D01*
X548600Y958400D01*
D88*
X555100Y947400D03*
X555100Y960400D03*
D89*
X558600Y953900D03*
X551600Y953900D03*
D78*
X464900Y880700D02*
X456900Y880700D01*
X464900Y880700D02*
X464900Y867700D01*
X456900Y867700D01*
X447900Y880700D02*
X439900Y880700D01*
X439900Y867700D01*
X447900Y867700D01*
D82*
X458900Y874200D03*
X445900Y874200D03*
D83*
X452400Y877700D03*
X452400Y870700D03*
D98*
X281250Y451650D02*
X228750Y451650D01*
X281250Y451650D02*
X281250Y514150D01*
X228750Y514150D01*
X228750Y451650D01*
D78*
X235000Y457900D02*
X275000Y457900D01*
X275000Y507900D01*
X235000Y507900D01*
X235000Y457900D01*
X235000Y462900D02*
X240000Y457900D01*
D98*
X228750Y561650D02*
X281250Y561650D01*
X281250Y624150D01*
X228750Y624150D01*
X228750Y561650D01*
D78*
X235000Y567900D02*
X275000Y567900D01*
X275000Y617900D01*
X235000Y617900D01*
X235000Y567900D01*
X235000Y572900D02*
X240000Y567900D01*
D98*
X228750Y669650D02*
X281250Y669650D01*
X281250Y732150D01*
X228750Y732150D01*
X228750Y669650D01*
D78*
X235000Y675900D02*
X275000Y675900D01*
X275000Y725900D01*
X235000Y725900D01*
X235000Y675900D01*
X235000Y680900D02*
X240000Y675900D01*
D98*
X228750Y776450D02*
X281250Y776450D01*
X281250Y838950D01*
X228750Y838950D01*
X228750Y776450D01*
D78*
X235000Y782700D02*
X275000Y782700D01*
X275000Y832700D01*
X235000Y832700D01*
X235000Y782700D01*
X235000Y787700D02*
X240000Y782700D01*
D99*
X312000Y940680D02*
X328200Y940680D01*
X328200Y969120D01*
X312000Y969120D01*
X312000Y940680D01*
X312000Y949680D02*
X312000Y960120D01*
X328200Y960120D02*
X328200Y959180D01*
X328200Y950620D02*
X328200Y949680D01*
X328200Y968180D02*
X328200Y969120D01*
X328200Y941620D02*
X328200Y940680D01*
X312000Y940680D02*
X312000Y941620D01*
X312000Y968180D02*
X312000Y969120D01*
D102*
X322100Y964900D02*
X322102Y964963D01*
X322108Y965025D01*
X322118Y965087D01*
X322131Y965149D01*
X322149Y965209D01*
X322170Y965268D01*
X322195Y965326D01*
X322224Y965382D01*
X322256Y965436D01*
X322291Y965488D01*
X322329Y965537D01*
X322371Y965585D01*
X322415Y965629D01*
X322463Y965671D01*
X322512Y965709D01*
X322564Y965744D01*
X322618Y965776D01*
X322674Y965805D01*
X322732Y965830D01*
X322791Y965851D01*
X322851Y965869D01*
X322913Y965882D01*
X322975Y965892D01*
X323037Y965898D01*
X323100Y965900D01*
X323163Y965898D01*
X323225Y965892D01*
X323287Y965882D01*
X323349Y965869D01*
X323409Y965851D01*
X323468Y965830D01*
X323526Y965805D01*
X323582Y965776D01*
X323636Y965744D01*
X323688Y965709D01*
X323737Y965671D01*
X323785Y965629D01*
X323829Y965585D01*
X323871Y965537D01*
X323909Y965488D01*
X323944Y965436D01*
X323976Y965382D01*
X324005Y965326D01*
X324030Y965268D01*
X324051Y965209D01*
X324069Y965149D01*
X324082Y965087D01*
X324092Y965025D01*
X324098Y964963D01*
X324100Y964900D01*
X324098Y964837D01*
X324092Y964775D01*
X324082Y964713D01*
X324069Y964651D01*
X324051Y964591D01*
X324030Y964532D01*
X324005Y964474D01*
X323976Y964418D01*
X323944Y964364D01*
X323909Y964312D01*
X323871Y964263D01*
X323829Y964215D01*
X323785Y964171D01*
X323737Y964129D01*
X323688Y964091D01*
X323636Y964056D01*
X323582Y964024D01*
X323526Y963995D01*
X323468Y963970D01*
X323409Y963949D01*
X323349Y963931D01*
X323287Y963918D01*
X323225Y963908D01*
X323163Y963902D01*
X323100Y963900D01*
X323037Y963902D01*
X322975Y963908D01*
X322913Y963918D01*
X322851Y963931D01*
X322791Y963949D01*
X322732Y963970D01*
X322674Y963995D01*
X322618Y964024D01*
X322564Y964056D01*
X322512Y964091D01*
X322463Y964129D01*
X322415Y964171D01*
X322371Y964215D01*
X322329Y964263D01*
X322291Y964312D01*
X322256Y964364D01*
X322224Y964418D01*
X322195Y964474D01*
X322170Y964532D01*
X322149Y964591D01*
X322131Y964651D01*
X322118Y964713D01*
X322108Y964775D01*
X322102Y964837D01*
X322100Y964900D01*
D103*
X331850Y964400D03*
X331850Y954900D03*
X331850Y945400D03*
X308350Y945400D03*
X308350Y964400D03*
D102*
X902500Y981750D02*
X902500Y918250D01*
X919000Y918250D01*
X919000Y981750D01*
X902500Y981750D01*
X919000Y981750D02*
X997700Y981750D01*
X997700Y918250D01*
X919000Y918250D01*
X902500Y839750D02*
X902500Y776250D01*
X919000Y776250D01*
X919000Y839750D01*
X902500Y839750D01*
X919000Y839750D02*
X997700Y839750D01*
X997700Y776250D01*
X919000Y776250D01*
D78*
X621500Y811500D02*
X621500Y819500D01*
X634500Y819500D01*
X634500Y811500D01*
X621500Y802500D02*
X621500Y794500D01*
X634500Y794500D01*
X634500Y802500D01*
D88*
X628000Y813500D03*
X628000Y800500D03*
D89*
X624500Y807000D03*
X631500Y807000D03*
D78*
X634500Y822500D02*
X634500Y830500D01*
X634500Y822500D02*
X621500Y822500D01*
X621500Y830500D01*
X634500Y839500D02*
X634500Y847500D01*
X621500Y847500D01*
X621500Y839500D01*
D88*
X628000Y828500D03*
X628000Y841500D03*
D89*
X631500Y835000D03*
X624500Y835000D03*
M02*
