G04 EAGLE Gerber RS-274X export*
G75*
%MOMM*%
%FSLAX34Y34*%
%LPD*%
%INSolderpaste Top*%
%IPPOS*%
%AMOC8*
5,1,8,0,0,1.08239X$1,22.5*%
G01*
%ADD10R,1.600000X2.000000*%
%ADD11R,2.500000X2.500000*%
%ADD12R,0.650000X1.000000*%
%ADD13R,1.300000X2.800000*%
%ADD14R,1.000000X0.650000*%
%ADD15R,3.200000X1.700000*%
%ADD16R,1.450000X1.700000*%
%ADD17R,0.800000X0.800000*%
%ADD18C,0.145000*%
%ADD19R,1.450000X0.685800*%
%ADD20R,0.500000X0.350000*%
%ADD21R,1.520000X2.540000*%
%ADD22R,0.950000X0.450000*%
%ADD23R,0.800000X1.240000*%
%ADD24R,0.950000X2.500000*%
%ADD25R,1.150000X2.200000*%
%ADD26R,1.160000X1.250000*%
%ADD27R,1.160000X1.200000*%
%ADD28R,1.500000X1.150000*%
%ADD29C,0.125000*%
%ADD30C,0.250000*%
%ADD31R,0.300000X0.850000*%
%ADD32R,0.850000X0.300000*%
%ADD33R,2.750000X1.905000*%
%ADD34R,1.905000X2.750000*%
%ADD35C,0.100000*%
%ADD36R,0.425000X0.325000*%
%ADD37R,0.250000X0.525000*%
%ADD38R,3.032806X3.032806*%
%ADD39R,0.320000X0.760000*%
%ADD40R,0.760000X0.320000*%
%ADD41R,1.200000X0.550000*%
%ADD42R,0.550000X1.200000*%
%ADD43R,0.300000X0.525000*%
%ADD44R,0.425000X0.300000*%
%ADD45R,0.558800X1.320800*%
%ADD46C,0.070000*%
%ADD47R,0.650000X0.900000*%
%ADD48R,0.900000X0.650000*%
%ADD49R,1.000000X1.800000*%
%ADD50R,3.500000X1.500000*%
%ADD51R,0.575000X1.150000*%
%ADD52R,0.275000X1.150000*%

G36*
X590184Y996281D02*
X590184Y996281D01*
X590184Y996282D01*
X590185Y996282D01*
X591259Y996657D01*
X591259Y996658D01*
X591260Y996658D01*
X592223Y997263D01*
X592223Y997264D01*
X592224Y997264D01*
X593028Y998068D01*
X593028Y998069D01*
X593029Y998069D01*
X593634Y999032D01*
X593634Y999033D01*
X593635Y999033D01*
X594010Y1000107D01*
X594010Y1000108D01*
X594011Y1000108D01*
X594012Y1000123D01*
X594013Y1000128D01*
X594013Y1000133D01*
X594014Y1000138D01*
X594015Y1000143D01*
X594015Y1000148D01*
X594016Y1000153D01*
X594016Y1000158D01*
X594019Y1000183D01*
X594020Y1000188D01*
X594020Y1000193D01*
X594021Y1000198D01*
X594021Y1000203D01*
X594022Y1000208D01*
X594022Y1000213D01*
X594023Y1000218D01*
X594026Y1000243D01*
X594026Y1000248D01*
X594027Y1000253D01*
X594027Y1000258D01*
X594028Y1000263D01*
X594029Y1000267D01*
X594029Y1000268D01*
X594029Y1000272D01*
X594029Y1000273D01*
X594030Y1000277D01*
X594032Y1000302D01*
X594033Y1000307D01*
X594034Y1000312D01*
X594034Y1000317D01*
X594035Y1000322D01*
X594035Y1000327D01*
X594036Y1000332D01*
X594036Y1000337D01*
X594039Y1000362D01*
X594040Y1000367D01*
X594040Y1000372D01*
X594041Y1000377D01*
X594041Y1000382D01*
X594042Y1000387D01*
X594043Y1000392D01*
X594043Y1000397D01*
X594045Y1000417D01*
X594046Y1000422D01*
X594046Y1000426D01*
X594046Y1000427D01*
X594047Y1000431D01*
X594047Y1000432D01*
X594048Y1000436D01*
X594048Y1000441D01*
X594049Y1000446D01*
X594049Y1000451D01*
X594050Y1000456D01*
X594052Y1000476D01*
X594053Y1000481D01*
X594053Y1000486D01*
X594054Y1000491D01*
X594054Y1000496D01*
X594055Y1000501D01*
X594055Y1000506D01*
X594056Y1000511D01*
X594057Y1000516D01*
X594059Y1000536D01*
X594059Y1000541D01*
X594060Y1000546D01*
X594060Y1000551D01*
X594061Y1000556D01*
X594062Y1000561D01*
X594062Y1000566D01*
X594063Y1000571D01*
X594063Y1000576D01*
X594065Y1000595D01*
X594066Y1000595D01*
X594066Y1000600D01*
X594067Y1000605D01*
X594067Y1000610D01*
X594068Y1000615D01*
X594068Y1000620D01*
X594069Y1000625D01*
X594069Y1000630D01*
X594070Y1000635D01*
X594072Y1000655D01*
X594073Y1000660D01*
X594073Y1000665D01*
X594074Y1000670D01*
X594074Y1000675D01*
X594075Y1000680D01*
X594076Y1000685D01*
X594076Y1000690D01*
X594077Y1000695D01*
X594079Y1000715D01*
X594079Y1000720D01*
X594080Y1000720D01*
X594079Y1000720D01*
X594080Y1000725D01*
X594081Y1000730D01*
X594081Y1000735D01*
X594082Y1000740D01*
X594082Y1000744D01*
X594082Y1000745D01*
X594083Y1000749D01*
X594083Y1000750D01*
X594083Y1000754D01*
X594086Y1000774D01*
X594086Y1000779D01*
X594087Y1000784D01*
X594087Y1000789D01*
X594088Y1000794D01*
X594088Y1000799D01*
X594089Y1000804D01*
X594090Y1000809D01*
X594090Y1000814D01*
X594092Y1000834D01*
X594093Y1000839D01*
X594093Y1000844D01*
X594094Y1000844D01*
X594093Y1000844D01*
X594094Y1000849D01*
X594095Y1000854D01*
X594095Y1000859D01*
X594096Y1000864D01*
X594096Y1000869D01*
X594097Y1000874D01*
X594099Y1000894D01*
X594100Y1000899D01*
X594100Y1000903D01*
X594100Y1000904D01*
X594101Y1000908D01*
X594101Y1000909D01*
X594101Y1000913D01*
X594102Y1000918D01*
X594102Y1000923D01*
X594103Y1000928D01*
X594104Y1000933D01*
X594106Y1000953D01*
X594106Y1000958D01*
X594107Y1000963D01*
X594107Y1000968D01*
X594108Y1000968D01*
X594107Y1000968D01*
X594108Y1000973D01*
X594109Y1000978D01*
X594109Y1000983D01*
X594110Y1000988D01*
X594110Y1000993D01*
X594113Y1001013D01*
X594113Y1001018D01*
X594114Y1001023D01*
X594114Y1001028D01*
X594115Y1001033D01*
X594115Y1001038D01*
X594116Y1001043D01*
X594116Y1001048D01*
X594117Y1001053D01*
X594119Y1001072D01*
X594120Y1001077D01*
X594120Y1001082D01*
X594121Y1001087D01*
X594121Y1001092D01*
X594122Y1001092D01*
X594121Y1001092D01*
X594122Y1001097D01*
X594123Y1001102D01*
X594123Y1001107D01*
X594126Y1001132D01*
X594127Y1001137D01*
X594127Y1001142D01*
X594128Y1001147D01*
X594128Y1001152D01*
X594129Y1001157D01*
X594129Y1001162D01*
X594130Y1001167D01*
X594133Y1001192D01*
X594133Y1001197D01*
X594134Y1001202D01*
X594134Y1001207D01*
X594135Y1001212D01*
X594135Y1001217D01*
X594136Y1001217D01*
X594135Y1001217D01*
X594136Y1001221D01*
X594136Y1001222D01*
X594137Y1001226D01*
X594137Y1001227D01*
X594138Y1001238D01*
X594138Y1001239D01*
X594138Y1010891D01*
X594138Y1010892D01*
X594011Y1012022D01*
X594010Y1012022D01*
X594010Y1012023D01*
X593635Y1013097D01*
X593634Y1013097D01*
X593634Y1013098D01*
X593029Y1014061D01*
X593028Y1014061D01*
X593028Y1014062D01*
X592224Y1014866D01*
X592223Y1014866D01*
X592223Y1014867D01*
X591260Y1015472D01*
X591259Y1015472D01*
X591259Y1015473D01*
X590185Y1015848D01*
X590184Y1015848D01*
X590184Y1015849D01*
X589054Y1015976D01*
X589053Y1015976D01*
X589052Y1015976D01*
X588818Y1015950D01*
X588465Y1015910D01*
X588113Y1015870D01*
X587979Y1015855D01*
X587978Y1015854D01*
X587977Y1015855D01*
X586957Y1015498D01*
X586957Y1015497D01*
X586956Y1015497D01*
X586041Y1014922D01*
X585276Y1014158D01*
X585276Y1014157D01*
X584701Y1013242D01*
X584701Y1013241D01*
X584700Y1013241D01*
X584343Y1012221D01*
X584344Y1012220D01*
X584343Y1012219D01*
X584342Y1012214D01*
X584342Y1012209D01*
X584341Y1012204D01*
X584339Y1012184D01*
X584339Y1012179D01*
X584338Y1012179D01*
X584339Y1012179D01*
X584338Y1012174D01*
X584337Y1012169D01*
X584337Y1012164D01*
X584336Y1012159D01*
X584336Y1012154D01*
X584335Y1012149D01*
X584332Y1012124D01*
X584332Y1012119D01*
X584331Y1012114D01*
X584331Y1012109D01*
X584330Y1012104D01*
X584330Y1012099D01*
X584329Y1012094D01*
X584328Y1012089D01*
X584326Y1012065D01*
X584325Y1012060D01*
X584325Y1012055D01*
X584324Y1012055D01*
X584325Y1012055D01*
X584324Y1012050D01*
X584323Y1012045D01*
X584323Y1012040D01*
X584322Y1012035D01*
X584322Y1012030D01*
X584319Y1012010D01*
X584319Y1012005D01*
X584318Y1012000D01*
X584318Y1011995D01*
X584317Y1011990D01*
X584317Y1011985D01*
X584316Y1011980D01*
X584316Y1011975D01*
X584315Y1011970D01*
X584313Y1011950D01*
X584312Y1011945D01*
X584312Y1011940D01*
X584311Y1011935D01*
X584311Y1011930D01*
X584310Y1011930D01*
X584311Y1011930D01*
X584310Y1011925D01*
X584309Y1011921D01*
X584309Y1011920D01*
X584309Y1011916D01*
X584309Y1011915D01*
X584308Y1011911D01*
X584306Y1011891D01*
X584305Y1011886D01*
X584305Y1011881D01*
X584304Y1011876D01*
X584304Y1011871D01*
X584303Y1011866D01*
X584303Y1011861D01*
X584302Y1011856D01*
X584302Y1011851D01*
X584299Y1011831D01*
X584299Y1011826D01*
X584298Y1011821D01*
X584298Y1011816D01*
X584297Y1011811D01*
X584297Y1011806D01*
X584296Y1011806D01*
X584297Y1011806D01*
X584296Y1011801D01*
X584295Y1011796D01*
X584293Y1011771D01*
X584292Y1011766D01*
X584291Y1011762D01*
X584291Y1011761D01*
X584291Y1011757D01*
X584291Y1011756D01*
X584290Y1011752D01*
X584290Y1011747D01*
X584289Y1011742D01*
X584289Y1011737D01*
X584286Y1011712D01*
X584285Y1011707D01*
X584285Y1011702D01*
X584284Y1011697D01*
X584284Y1011692D01*
X584283Y1011687D01*
X584283Y1011682D01*
X584282Y1011682D01*
X584283Y1011682D01*
X584282Y1011677D01*
X584280Y1011657D01*
X584279Y1011652D01*
X584279Y1011647D01*
X584278Y1011642D01*
X584277Y1011637D01*
X584277Y1011632D01*
X584276Y1011627D01*
X584276Y1011622D01*
X584275Y1011617D01*
X584273Y1011598D01*
X584273Y1011597D01*
X584272Y1011593D01*
X584272Y1011588D01*
X584271Y1011583D01*
X584271Y1011578D01*
X584270Y1011573D01*
X584270Y1011568D01*
X584269Y1011563D01*
X584269Y1011558D01*
X584268Y1011558D01*
X584269Y1011558D01*
X584266Y1011538D01*
X584266Y1011533D01*
X584265Y1011528D01*
X584265Y1011523D01*
X584264Y1011518D01*
X584263Y1011513D01*
X584263Y1011508D01*
X584262Y1011503D01*
X584262Y1011498D01*
X584260Y1011478D01*
X584259Y1011473D01*
X584258Y1011468D01*
X584258Y1011463D01*
X584257Y1011458D01*
X584257Y1011453D01*
X584256Y1011448D01*
X584256Y1011444D01*
X584256Y1011443D01*
X584253Y1011419D01*
X584252Y1011414D01*
X584252Y1011409D01*
X584251Y1011404D01*
X584251Y1011399D01*
X584250Y1011394D01*
X584249Y1011389D01*
X584249Y1011384D01*
X584246Y1011359D01*
X584246Y1011354D01*
X584245Y1011349D01*
X584244Y1011344D01*
X584244Y1011339D01*
X584243Y1011334D01*
X584243Y1011329D01*
X584242Y1011324D01*
X584240Y1011304D01*
X584239Y1011299D01*
X584239Y1011294D01*
X584238Y1011289D01*
X584238Y1011285D01*
X584238Y1011284D01*
X584237Y1011280D01*
X584237Y1011279D01*
X584237Y1011275D01*
X584236Y1011270D01*
X584235Y1011265D01*
X584233Y1011245D01*
X584233Y1011240D01*
X584232Y1011235D01*
X584232Y1011230D01*
X584231Y1011225D01*
X584230Y1011220D01*
X584230Y1011215D01*
X584229Y1011210D01*
X584229Y1011205D01*
X584227Y1011185D01*
X584226Y1011180D01*
X584225Y1011175D01*
X584225Y1011170D01*
X584224Y1011165D01*
X584224Y1011160D01*
X584223Y1011155D01*
X584223Y1011150D01*
X584222Y1011146D01*
X584222Y1011145D01*
X584222Y1000985D01*
X584222Y1000984D01*
X584343Y999911D01*
X584344Y999910D01*
X584343Y999909D01*
X584700Y998889D01*
X584701Y998889D01*
X584701Y998888D01*
X585276Y997973D01*
X586041Y997208D01*
X586956Y996633D01*
X586957Y996633D01*
X586957Y996632D01*
X587977Y996275D01*
X587978Y996276D01*
X587979Y996275D01*
X589052Y996154D01*
X589053Y996155D01*
X589054Y996154D01*
X590184Y996281D01*
G37*
G36*
X503824Y996281D02*
X503824Y996281D01*
X503824Y996282D01*
X503825Y996282D01*
X504899Y996657D01*
X504899Y996658D01*
X504900Y996658D01*
X505863Y997263D01*
X505863Y997264D01*
X505864Y997264D01*
X506668Y998068D01*
X506668Y998069D01*
X506669Y998069D01*
X507274Y999032D01*
X507274Y999033D01*
X507275Y999033D01*
X507650Y1000107D01*
X507650Y1000108D01*
X507651Y1000108D01*
X507652Y1000123D01*
X507653Y1000128D01*
X507653Y1000133D01*
X507654Y1000138D01*
X507655Y1000143D01*
X507655Y1000148D01*
X507656Y1000153D01*
X507656Y1000158D01*
X507659Y1000183D01*
X507660Y1000188D01*
X507660Y1000193D01*
X507661Y1000198D01*
X507661Y1000203D01*
X507662Y1000208D01*
X507662Y1000213D01*
X507663Y1000218D01*
X507666Y1000243D01*
X507666Y1000248D01*
X507667Y1000253D01*
X507667Y1000258D01*
X507668Y1000263D01*
X507669Y1000267D01*
X507669Y1000268D01*
X507669Y1000272D01*
X507669Y1000273D01*
X507670Y1000277D01*
X507672Y1000302D01*
X507673Y1000307D01*
X507674Y1000312D01*
X507674Y1000317D01*
X507675Y1000322D01*
X507675Y1000327D01*
X507676Y1000332D01*
X507676Y1000337D01*
X507679Y1000362D01*
X507680Y1000367D01*
X507680Y1000372D01*
X507681Y1000377D01*
X507681Y1000382D01*
X507682Y1000387D01*
X507683Y1000392D01*
X507683Y1000397D01*
X507685Y1000417D01*
X507686Y1000422D01*
X507686Y1000426D01*
X507686Y1000427D01*
X507687Y1000431D01*
X507687Y1000432D01*
X507688Y1000436D01*
X507688Y1000441D01*
X507689Y1000446D01*
X507689Y1000451D01*
X507690Y1000456D01*
X507692Y1000476D01*
X507693Y1000481D01*
X507693Y1000486D01*
X507694Y1000491D01*
X507694Y1000496D01*
X507695Y1000501D01*
X507695Y1000506D01*
X507696Y1000511D01*
X507697Y1000516D01*
X507699Y1000536D01*
X507699Y1000541D01*
X507700Y1000546D01*
X507700Y1000551D01*
X507701Y1000556D01*
X507702Y1000561D01*
X507702Y1000566D01*
X507703Y1000571D01*
X507703Y1000576D01*
X507705Y1000595D01*
X507706Y1000595D01*
X507706Y1000600D01*
X507707Y1000605D01*
X507707Y1000610D01*
X507708Y1000615D01*
X507708Y1000620D01*
X507709Y1000625D01*
X507709Y1000630D01*
X507710Y1000635D01*
X507712Y1000655D01*
X507713Y1000660D01*
X507713Y1000665D01*
X507714Y1000670D01*
X507714Y1000675D01*
X507715Y1000680D01*
X507716Y1000685D01*
X507716Y1000690D01*
X507717Y1000695D01*
X507719Y1000715D01*
X507719Y1000720D01*
X507720Y1000720D01*
X507719Y1000720D01*
X507720Y1000725D01*
X507721Y1000730D01*
X507721Y1000735D01*
X507722Y1000740D01*
X507722Y1000744D01*
X507722Y1000745D01*
X507723Y1000749D01*
X507723Y1000750D01*
X507723Y1000754D01*
X507726Y1000774D01*
X507726Y1000779D01*
X507727Y1000784D01*
X507727Y1000789D01*
X507728Y1000794D01*
X507728Y1000799D01*
X507729Y1000804D01*
X507730Y1000809D01*
X507730Y1000814D01*
X507732Y1000834D01*
X507733Y1000839D01*
X507733Y1000844D01*
X507734Y1000844D01*
X507733Y1000844D01*
X507734Y1000849D01*
X507735Y1000854D01*
X507735Y1000859D01*
X507736Y1000864D01*
X507736Y1000869D01*
X507737Y1000874D01*
X507739Y1000894D01*
X507740Y1000899D01*
X507740Y1000903D01*
X507740Y1000904D01*
X507741Y1000908D01*
X507741Y1000909D01*
X507741Y1000913D01*
X507742Y1000918D01*
X507742Y1000923D01*
X507743Y1000928D01*
X507744Y1000933D01*
X507746Y1000953D01*
X507746Y1000958D01*
X507747Y1000963D01*
X507747Y1000968D01*
X507748Y1000968D01*
X507747Y1000968D01*
X507748Y1000973D01*
X507749Y1000978D01*
X507749Y1000983D01*
X507750Y1000988D01*
X507750Y1000993D01*
X507753Y1001013D01*
X507753Y1001018D01*
X507754Y1001023D01*
X507754Y1001028D01*
X507755Y1001033D01*
X507755Y1001038D01*
X507756Y1001043D01*
X507756Y1001048D01*
X507757Y1001053D01*
X507759Y1001072D01*
X507760Y1001077D01*
X507760Y1001082D01*
X507761Y1001087D01*
X507761Y1001092D01*
X507762Y1001092D01*
X507761Y1001092D01*
X507762Y1001097D01*
X507763Y1001102D01*
X507763Y1001107D01*
X507766Y1001132D01*
X507767Y1001137D01*
X507767Y1001142D01*
X507768Y1001147D01*
X507768Y1001152D01*
X507769Y1001157D01*
X507769Y1001162D01*
X507770Y1001167D01*
X507773Y1001192D01*
X507773Y1001197D01*
X507774Y1001202D01*
X507774Y1001207D01*
X507775Y1001212D01*
X507775Y1001217D01*
X507776Y1001217D01*
X507775Y1001217D01*
X507776Y1001221D01*
X507776Y1001222D01*
X507777Y1001226D01*
X507777Y1001227D01*
X507778Y1001238D01*
X507778Y1001239D01*
X507778Y1010891D01*
X507778Y1010892D01*
X507651Y1012022D01*
X507650Y1012022D01*
X507650Y1012023D01*
X507275Y1013097D01*
X507274Y1013097D01*
X507274Y1013098D01*
X506669Y1014061D01*
X506668Y1014061D01*
X506668Y1014062D01*
X505864Y1014866D01*
X505863Y1014866D01*
X505863Y1014867D01*
X504900Y1015472D01*
X504899Y1015472D01*
X504899Y1015473D01*
X503825Y1015848D01*
X503824Y1015848D01*
X503824Y1015849D01*
X502694Y1015976D01*
X502693Y1015976D01*
X502692Y1015976D01*
X502458Y1015950D01*
X502105Y1015910D01*
X501753Y1015870D01*
X501619Y1015855D01*
X501618Y1015854D01*
X501617Y1015855D01*
X500597Y1015498D01*
X500597Y1015497D01*
X500596Y1015497D01*
X499681Y1014922D01*
X498916Y1014158D01*
X498916Y1014157D01*
X498341Y1013242D01*
X498341Y1013241D01*
X498340Y1013241D01*
X497983Y1012221D01*
X497984Y1012220D01*
X497983Y1012219D01*
X497982Y1012214D01*
X497982Y1012209D01*
X497981Y1012204D01*
X497979Y1012184D01*
X497979Y1012179D01*
X497978Y1012179D01*
X497979Y1012179D01*
X497978Y1012174D01*
X497977Y1012169D01*
X497977Y1012164D01*
X497976Y1012159D01*
X497976Y1012154D01*
X497975Y1012149D01*
X497972Y1012124D01*
X497972Y1012119D01*
X497971Y1012114D01*
X497971Y1012109D01*
X497970Y1012104D01*
X497970Y1012099D01*
X497969Y1012094D01*
X497968Y1012089D01*
X497966Y1012065D01*
X497965Y1012060D01*
X497965Y1012055D01*
X497964Y1012055D01*
X497965Y1012055D01*
X497964Y1012050D01*
X497963Y1012045D01*
X497963Y1012040D01*
X497962Y1012035D01*
X497962Y1012030D01*
X497959Y1012010D01*
X497959Y1012005D01*
X497958Y1012000D01*
X497958Y1011995D01*
X497957Y1011990D01*
X497957Y1011985D01*
X497956Y1011980D01*
X497956Y1011975D01*
X497955Y1011970D01*
X497953Y1011950D01*
X497952Y1011945D01*
X497952Y1011940D01*
X497951Y1011935D01*
X497951Y1011930D01*
X497950Y1011930D01*
X497951Y1011930D01*
X497950Y1011925D01*
X497949Y1011921D01*
X497949Y1011920D01*
X497949Y1011916D01*
X497949Y1011915D01*
X497948Y1011911D01*
X497946Y1011891D01*
X497945Y1011886D01*
X497945Y1011881D01*
X497944Y1011876D01*
X497944Y1011871D01*
X497943Y1011866D01*
X497943Y1011861D01*
X497942Y1011856D01*
X497942Y1011851D01*
X497939Y1011831D01*
X497939Y1011826D01*
X497938Y1011821D01*
X497938Y1011816D01*
X497937Y1011811D01*
X497937Y1011806D01*
X497936Y1011806D01*
X497937Y1011806D01*
X497936Y1011801D01*
X497935Y1011796D01*
X497933Y1011771D01*
X497932Y1011766D01*
X497931Y1011762D01*
X497931Y1011761D01*
X497931Y1011757D01*
X497931Y1011756D01*
X497930Y1011752D01*
X497930Y1011747D01*
X497929Y1011742D01*
X497929Y1011737D01*
X497926Y1011712D01*
X497925Y1011707D01*
X497925Y1011702D01*
X497924Y1011697D01*
X497924Y1011692D01*
X497923Y1011687D01*
X497923Y1011682D01*
X497922Y1011682D01*
X497923Y1011682D01*
X497922Y1011677D01*
X497920Y1011657D01*
X497919Y1011652D01*
X497919Y1011647D01*
X497918Y1011642D01*
X497917Y1011637D01*
X497917Y1011632D01*
X497916Y1011627D01*
X497916Y1011622D01*
X497915Y1011617D01*
X497913Y1011598D01*
X497913Y1011597D01*
X497912Y1011593D01*
X497912Y1011588D01*
X497911Y1011583D01*
X497911Y1011578D01*
X497910Y1011573D01*
X497910Y1011568D01*
X497909Y1011563D01*
X497909Y1011558D01*
X497908Y1011558D01*
X497909Y1011558D01*
X497906Y1011538D01*
X497906Y1011533D01*
X497905Y1011528D01*
X497905Y1011523D01*
X497904Y1011518D01*
X497903Y1011513D01*
X497903Y1011508D01*
X497902Y1011503D01*
X497902Y1011498D01*
X497900Y1011478D01*
X497899Y1011473D01*
X497898Y1011468D01*
X497898Y1011463D01*
X497897Y1011458D01*
X497897Y1011453D01*
X497896Y1011448D01*
X497896Y1011444D01*
X497896Y1011443D01*
X497893Y1011419D01*
X497892Y1011414D01*
X497892Y1011409D01*
X497891Y1011404D01*
X497891Y1011399D01*
X497890Y1011394D01*
X497889Y1011389D01*
X497889Y1011384D01*
X497886Y1011359D01*
X497886Y1011354D01*
X497885Y1011349D01*
X497884Y1011344D01*
X497884Y1011339D01*
X497883Y1011334D01*
X497883Y1011329D01*
X497882Y1011324D01*
X497880Y1011304D01*
X497879Y1011299D01*
X497879Y1011294D01*
X497878Y1011289D01*
X497878Y1011285D01*
X497878Y1011284D01*
X497877Y1011280D01*
X497877Y1011279D01*
X497877Y1011275D01*
X497876Y1011270D01*
X497875Y1011265D01*
X497873Y1011245D01*
X497873Y1011240D01*
X497872Y1011235D01*
X497872Y1011230D01*
X497871Y1011225D01*
X497870Y1011220D01*
X497870Y1011215D01*
X497869Y1011210D01*
X497869Y1011205D01*
X497867Y1011185D01*
X497866Y1011180D01*
X497865Y1011175D01*
X497865Y1011170D01*
X497864Y1011165D01*
X497864Y1011160D01*
X497863Y1011155D01*
X497863Y1011150D01*
X497862Y1011146D01*
X497862Y1011145D01*
X497862Y1000985D01*
X497862Y1000984D01*
X497983Y999911D01*
X497984Y999910D01*
X497983Y999909D01*
X498340Y998889D01*
X498341Y998889D01*
X498341Y998888D01*
X498916Y997973D01*
X499681Y997208D01*
X500596Y996633D01*
X500597Y996633D01*
X500597Y996632D01*
X501617Y996275D01*
X501618Y996276D01*
X501619Y996275D01*
X502692Y996154D01*
X502693Y996155D01*
X502694Y996154D01*
X503824Y996281D01*
G37*
G36*
X590311Y954498D02*
X590311Y954498D01*
X590311Y954499D01*
X590312Y954499D01*
X591386Y954874D01*
X591386Y954875D01*
X591387Y954875D01*
X592350Y955480D01*
X592350Y955481D01*
X592351Y955481D01*
X593155Y956285D01*
X593155Y956286D01*
X593156Y956286D01*
X593761Y957249D01*
X593761Y957250D01*
X593762Y957250D01*
X594137Y958324D01*
X594137Y958325D01*
X594138Y958325D01*
X594139Y958340D01*
X594140Y958345D01*
X594140Y958350D01*
X594141Y958355D01*
X594142Y958360D01*
X594142Y958365D01*
X594143Y958370D01*
X594143Y958375D01*
X594146Y958400D01*
X594147Y958405D01*
X594147Y958410D01*
X594148Y958415D01*
X594148Y958420D01*
X594149Y958425D01*
X594149Y958430D01*
X594150Y958435D01*
X594153Y958460D01*
X594153Y958465D01*
X594154Y958470D01*
X594154Y958475D01*
X594155Y958480D01*
X594156Y958484D01*
X594156Y958485D01*
X594156Y958489D01*
X594156Y958490D01*
X594157Y958494D01*
X594159Y958519D01*
X594160Y958524D01*
X594161Y958529D01*
X594161Y958534D01*
X594162Y958539D01*
X594162Y958544D01*
X594163Y958549D01*
X594163Y958554D01*
X594166Y958579D01*
X594167Y958584D01*
X594167Y958589D01*
X594168Y958594D01*
X594168Y958599D01*
X594169Y958604D01*
X594170Y958609D01*
X594170Y958614D01*
X594172Y958634D01*
X594173Y958639D01*
X594173Y958643D01*
X594173Y958644D01*
X594174Y958648D01*
X594174Y958649D01*
X594175Y958653D01*
X594175Y958658D01*
X594176Y958663D01*
X594176Y958668D01*
X594177Y958673D01*
X594179Y958693D01*
X594180Y958698D01*
X594180Y958703D01*
X594181Y958708D01*
X594181Y958713D01*
X594182Y958718D01*
X594182Y958723D01*
X594183Y958728D01*
X594184Y958733D01*
X594186Y958753D01*
X594186Y958758D01*
X594187Y958763D01*
X594187Y958768D01*
X594188Y958773D01*
X594189Y958778D01*
X594189Y958783D01*
X594190Y958788D01*
X594190Y958793D01*
X594192Y958812D01*
X594193Y958812D01*
X594193Y958817D01*
X594194Y958822D01*
X594194Y958827D01*
X594195Y958832D01*
X594195Y958837D01*
X594196Y958842D01*
X594196Y958847D01*
X594197Y958852D01*
X594199Y958872D01*
X594200Y958877D01*
X594200Y958882D01*
X594201Y958887D01*
X594201Y958892D01*
X594202Y958897D01*
X594203Y958902D01*
X594203Y958907D01*
X594204Y958912D01*
X594206Y958932D01*
X594206Y958937D01*
X594207Y958937D01*
X594206Y958937D01*
X594207Y958942D01*
X594208Y958947D01*
X594208Y958952D01*
X594209Y958957D01*
X594209Y958961D01*
X594209Y958962D01*
X594210Y958966D01*
X594210Y958967D01*
X594210Y958971D01*
X594213Y958991D01*
X594213Y958996D01*
X594214Y959001D01*
X594214Y959006D01*
X594215Y959011D01*
X594215Y959016D01*
X594216Y959021D01*
X594217Y959026D01*
X594217Y959031D01*
X594219Y959051D01*
X594220Y959056D01*
X594220Y959061D01*
X594221Y959061D01*
X594220Y959061D01*
X594221Y959066D01*
X594222Y959071D01*
X594222Y959076D01*
X594223Y959081D01*
X594223Y959086D01*
X594224Y959091D01*
X594226Y959111D01*
X594227Y959116D01*
X594227Y959120D01*
X594227Y959121D01*
X594228Y959125D01*
X594228Y959126D01*
X594228Y959130D01*
X594229Y959135D01*
X594229Y959140D01*
X594230Y959145D01*
X594231Y959150D01*
X594233Y959170D01*
X594233Y959175D01*
X594234Y959180D01*
X594234Y959185D01*
X594235Y959185D01*
X594234Y959185D01*
X594235Y959190D01*
X594236Y959195D01*
X594236Y959200D01*
X594237Y959205D01*
X594237Y959210D01*
X594240Y959230D01*
X594240Y959235D01*
X594241Y959240D01*
X594241Y959245D01*
X594242Y959250D01*
X594242Y959255D01*
X594243Y959260D01*
X594243Y959265D01*
X594244Y959270D01*
X594246Y959289D01*
X594247Y959294D01*
X594247Y959299D01*
X594248Y959304D01*
X594248Y959309D01*
X594249Y959309D01*
X594248Y959309D01*
X594249Y959314D01*
X594250Y959319D01*
X594250Y959324D01*
X594253Y959349D01*
X594254Y959354D01*
X594254Y959359D01*
X594255Y959364D01*
X594255Y959369D01*
X594256Y959374D01*
X594256Y959379D01*
X594257Y959384D01*
X594260Y959409D01*
X594260Y959414D01*
X594261Y959419D01*
X594261Y959424D01*
X594262Y959429D01*
X594262Y959434D01*
X594263Y959434D01*
X594262Y959434D01*
X594263Y959438D01*
X594263Y959439D01*
X594264Y959443D01*
X594264Y959444D01*
X594265Y959455D01*
X594265Y959456D01*
X594265Y969108D01*
X594265Y969109D01*
X594138Y970239D01*
X594137Y970239D01*
X594137Y970240D01*
X593762Y971314D01*
X593761Y971314D01*
X593761Y971315D01*
X593156Y972278D01*
X593155Y972278D01*
X593155Y972279D01*
X592351Y973083D01*
X592350Y973083D01*
X592350Y973084D01*
X591387Y973689D01*
X591386Y973689D01*
X591386Y973690D01*
X590312Y974065D01*
X590311Y974065D01*
X590311Y974066D01*
X589181Y974193D01*
X589180Y974193D01*
X589179Y974193D01*
X588945Y974167D01*
X588592Y974127D01*
X588240Y974087D01*
X588106Y974072D01*
X588105Y974071D01*
X588104Y974072D01*
X587084Y973715D01*
X587084Y973714D01*
X587083Y973714D01*
X586168Y973139D01*
X585403Y972375D01*
X585403Y972374D01*
X584828Y971459D01*
X584828Y971458D01*
X584827Y971458D01*
X584470Y970438D01*
X584471Y970437D01*
X584470Y970436D01*
X584469Y970431D01*
X584469Y970426D01*
X584468Y970421D01*
X584466Y970401D01*
X584466Y970396D01*
X584465Y970396D01*
X584466Y970396D01*
X584465Y970391D01*
X584464Y970386D01*
X584464Y970381D01*
X584463Y970376D01*
X584463Y970371D01*
X584462Y970366D01*
X584459Y970341D01*
X584459Y970336D01*
X584458Y970331D01*
X584458Y970326D01*
X584457Y970321D01*
X584457Y970316D01*
X584456Y970311D01*
X584455Y970306D01*
X584453Y970282D01*
X584452Y970277D01*
X584452Y970272D01*
X584451Y970272D01*
X584452Y970272D01*
X584451Y970267D01*
X584450Y970262D01*
X584450Y970257D01*
X584449Y970252D01*
X584449Y970247D01*
X584446Y970227D01*
X584446Y970222D01*
X584445Y970217D01*
X584445Y970212D01*
X584444Y970207D01*
X584444Y970202D01*
X584443Y970197D01*
X584443Y970192D01*
X584442Y970187D01*
X584440Y970167D01*
X584439Y970162D01*
X584439Y970157D01*
X584438Y970152D01*
X584438Y970147D01*
X584437Y970147D01*
X584438Y970147D01*
X584437Y970142D01*
X584436Y970138D01*
X584436Y970137D01*
X584436Y970133D01*
X584436Y970132D01*
X584435Y970128D01*
X584433Y970108D01*
X584432Y970103D01*
X584432Y970098D01*
X584431Y970093D01*
X584431Y970088D01*
X584430Y970083D01*
X584430Y970078D01*
X584429Y970073D01*
X584429Y970068D01*
X584426Y970048D01*
X584426Y970043D01*
X584425Y970038D01*
X584425Y970033D01*
X584424Y970028D01*
X584424Y970023D01*
X584423Y970023D01*
X584424Y970023D01*
X584423Y970018D01*
X584422Y970013D01*
X584420Y969988D01*
X584419Y969983D01*
X584418Y969979D01*
X584418Y969978D01*
X584418Y969974D01*
X584418Y969973D01*
X584417Y969969D01*
X584417Y969964D01*
X584416Y969959D01*
X584416Y969954D01*
X584413Y969929D01*
X584412Y969924D01*
X584412Y969919D01*
X584411Y969914D01*
X584411Y969909D01*
X584410Y969904D01*
X584410Y969899D01*
X584409Y969899D01*
X584410Y969899D01*
X584409Y969894D01*
X584407Y969874D01*
X584406Y969869D01*
X584406Y969864D01*
X584405Y969859D01*
X584404Y969854D01*
X584404Y969849D01*
X584403Y969844D01*
X584403Y969839D01*
X584402Y969834D01*
X584400Y969815D01*
X584400Y969814D01*
X584399Y969810D01*
X584399Y969805D01*
X584398Y969800D01*
X584398Y969795D01*
X584397Y969790D01*
X584397Y969785D01*
X584396Y969780D01*
X584396Y969775D01*
X584395Y969775D01*
X584396Y969775D01*
X584393Y969755D01*
X584393Y969750D01*
X584392Y969745D01*
X584392Y969740D01*
X584391Y969735D01*
X584390Y969730D01*
X584390Y969725D01*
X584389Y969720D01*
X584389Y969715D01*
X584387Y969695D01*
X584386Y969690D01*
X584385Y969685D01*
X584385Y969680D01*
X584384Y969675D01*
X584384Y969670D01*
X584383Y969665D01*
X584383Y969661D01*
X584383Y969660D01*
X584380Y969636D01*
X584379Y969631D01*
X584379Y969626D01*
X584378Y969621D01*
X584378Y969616D01*
X584377Y969611D01*
X584376Y969606D01*
X584376Y969601D01*
X584373Y969576D01*
X584373Y969571D01*
X584372Y969566D01*
X584371Y969561D01*
X584371Y969556D01*
X584370Y969551D01*
X584370Y969546D01*
X584369Y969541D01*
X584367Y969521D01*
X584366Y969516D01*
X584366Y969511D01*
X584365Y969506D01*
X584365Y969502D01*
X584365Y969501D01*
X584364Y969497D01*
X584364Y969496D01*
X584364Y969492D01*
X584363Y969487D01*
X584362Y969482D01*
X584360Y969462D01*
X584360Y969457D01*
X584359Y969452D01*
X584359Y969447D01*
X584358Y969442D01*
X584357Y969437D01*
X584357Y969432D01*
X584356Y969427D01*
X584356Y969422D01*
X584354Y969402D01*
X584353Y969397D01*
X584352Y969392D01*
X584352Y969387D01*
X584351Y969382D01*
X584351Y969377D01*
X584350Y969372D01*
X584350Y969367D01*
X584349Y969363D01*
X584349Y969362D01*
X584349Y959202D01*
X584349Y959201D01*
X584470Y958128D01*
X584471Y958127D01*
X584470Y958126D01*
X584827Y957106D01*
X584828Y957106D01*
X584828Y957105D01*
X585403Y956190D01*
X586168Y955425D01*
X587083Y954850D01*
X587084Y954850D01*
X587084Y954849D01*
X588104Y954492D01*
X588105Y954493D01*
X588106Y954492D01*
X589179Y954371D01*
X589180Y954372D01*
X589181Y954371D01*
X590311Y954498D01*
G37*
G36*
X503824Y954371D02*
X503824Y954371D01*
X503824Y954372D01*
X503825Y954372D01*
X504899Y954747D01*
X504899Y954748D01*
X504900Y954748D01*
X505863Y955353D01*
X505863Y955354D01*
X505864Y955354D01*
X506668Y956158D01*
X506668Y956159D01*
X506669Y956159D01*
X507274Y957122D01*
X507274Y957123D01*
X507275Y957123D01*
X507650Y958197D01*
X507650Y958198D01*
X507651Y958198D01*
X507652Y958213D01*
X507653Y958218D01*
X507653Y958223D01*
X507654Y958228D01*
X507655Y958233D01*
X507655Y958238D01*
X507656Y958243D01*
X507656Y958248D01*
X507659Y958273D01*
X507660Y958278D01*
X507660Y958283D01*
X507661Y958288D01*
X507661Y958293D01*
X507662Y958298D01*
X507662Y958303D01*
X507663Y958308D01*
X507666Y958333D01*
X507666Y958338D01*
X507667Y958343D01*
X507667Y958348D01*
X507668Y958353D01*
X507669Y958357D01*
X507669Y958358D01*
X507669Y958362D01*
X507669Y958363D01*
X507670Y958367D01*
X507672Y958392D01*
X507673Y958397D01*
X507674Y958402D01*
X507674Y958407D01*
X507675Y958412D01*
X507675Y958417D01*
X507676Y958422D01*
X507676Y958427D01*
X507679Y958452D01*
X507680Y958457D01*
X507680Y958462D01*
X507681Y958467D01*
X507681Y958472D01*
X507682Y958477D01*
X507683Y958482D01*
X507683Y958487D01*
X507685Y958507D01*
X507686Y958512D01*
X507686Y958516D01*
X507686Y958517D01*
X507687Y958521D01*
X507687Y958522D01*
X507688Y958526D01*
X507688Y958531D01*
X507689Y958536D01*
X507689Y958541D01*
X507690Y958546D01*
X507692Y958566D01*
X507693Y958571D01*
X507693Y958576D01*
X507694Y958581D01*
X507694Y958586D01*
X507695Y958591D01*
X507695Y958596D01*
X507696Y958601D01*
X507697Y958606D01*
X507699Y958626D01*
X507699Y958631D01*
X507700Y958636D01*
X507700Y958641D01*
X507701Y958646D01*
X507702Y958651D01*
X507702Y958656D01*
X507703Y958661D01*
X507703Y958666D01*
X507705Y958685D01*
X507706Y958685D01*
X507706Y958690D01*
X507707Y958695D01*
X507707Y958700D01*
X507708Y958705D01*
X507708Y958710D01*
X507709Y958715D01*
X507709Y958720D01*
X507710Y958725D01*
X507712Y958745D01*
X507713Y958750D01*
X507713Y958755D01*
X507714Y958760D01*
X507714Y958765D01*
X507715Y958770D01*
X507716Y958775D01*
X507716Y958780D01*
X507717Y958785D01*
X507719Y958805D01*
X507719Y958810D01*
X507720Y958810D01*
X507719Y958810D01*
X507720Y958815D01*
X507721Y958820D01*
X507721Y958825D01*
X507722Y958830D01*
X507722Y958834D01*
X507722Y958835D01*
X507723Y958839D01*
X507723Y958840D01*
X507723Y958844D01*
X507726Y958864D01*
X507726Y958869D01*
X507727Y958874D01*
X507727Y958879D01*
X507728Y958884D01*
X507728Y958889D01*
X507729Y958894D01*
X507730Y958899D01*
X507730Y958904D01*
X507732Y958924D01*
X507733Y958929D01*
X507733Y958934D01*
X507734Y958934D01*
X507733Y958934D01*
X507734Y958939D01*
X507735Y958944D01*
X507735Y958949D01*
X507736Y958954D01*
X507736Y958959D01*
X507737Y958964D01*
X507739Y958984D01*
X507740Y958989D01*
X507740Y958993D01*
X507740Y958994D01*
X507741Y958998D01*
X507741Y958999D01*
X507741Y959003D01*
X507742Y959008D01*
X507742Y959013D01*
X507743Y959018D01*
X507744Y959023D01*
X507746Y959043D01*
X507746Y959048D01*
X507747Y959053D01*
X507747Y959058D01*
X507748Y959058D01*
X507747Y959058D01*
X507748Y959063D01*
X507749Y959068D01*
X507749Y959073D01*
X507750Y959078D01*
X507750Y959083D01*
X507753Y959103D01*
X507753Y959108D01*
X507754Y959113D01*
X507754Y959118D01*
X507755Y959123D01*
X507755Y959128D01*
X507756Y959133D01*
X507756Y959138D01*
X507757Y959143D01*
X507759Y959162D01*
X507760Y959167D01*
X507760Y959172D01*
X507761Y959177D01*
X507761Y959182D01*
X507762Y959182D01*
X507761Y959182D01*
X507762Y959187D01*
X507763Y959192D01*
X507763Y959197D01*
X507766Y959222D01*
X507767Y959227D01*
X507767Y959232D01*
X507768Y959237D01*
X507768Y959242D01*
X507769Y959247D01*
X507769Y959252D01*
X507770Y959257D01*
X507773Y959282D01*
X507773Y959287D01*
X507774Y959292D01*
X507774Y959297D01*
X507775Y959302D01*
X507775Y959307D01*
X507776Y959307D01*
X507775Y959307D01*
X507776Y959311D01*
X507776Y959312D01*
X507777Y959316D01*
X507777Y959317D01*
X507778Y959328D01*
X507778Y959329D01*
X507778Y968981D01*
X507778Y968982D01*
X507651Y970112D01*
X507650Y970112D01*
X507650Y970113D01*
X507275Y971187D01*
X507274Y971187D01*
X507274Y971188D01*
X506669Y972151D01*
X506668Y972151D01*
X506668Y972152D01*
X505864Y972956D01*
X505863Y972956D01*
X505863Y972957D01*
X504900Y973562D01*
X504899Y973562D01*
X504899Y973563D01*
X503825Y973938D01*
X503824Y973938D01*
X503824Y973939D01*
X502694Y974066D01*
X502693Y974066D01*
X502692Y974066D01*
X502458Y974040D01*
X502105Y974000D01*
X501753Y973960D01*
X501619Y973945D01*
X501618Y973944D01*
X501617Y973945D01*
X500597Y973588D01*
X500597Y973587D01*
X500596Y973587D01*
X499681Y973012D01*
X498916Y972248D01*
X498916Y972247D01*
X498341Y971332D01*
X498341Y971331D01*
X498340Y971331D01*
X497983Y970311D01*
X497984Y970310D01*
X497983Y970309D01*
X497982Y970304D01*
X497982Y970299D01*
X497981Y970294D01*
X497979Y970274D01*
X497979Y970269D01*
X497978Y970269D01*
X497979Y970269D01*
X497978Y970264D01*
X497977Y970259D01*
X497977Y970254D01*
X497976Y970249D01*
X497976Y970244D01*
X497975Y970239D01*
X497972Y970214D01*
X497972Y970209D01*
X497971Y970204D01*
X497971Y970199D01*
X497970Y970194D01*
X497970Y970189D01*
X497969Y970184D01*
X497968Y970179D01*
X497966Y970155D01*
X497965Y970150D01*
X497965Y970145D01*
X497964Y970145D01*
X497965Y970145D01*
X497964Y970140D01*
X497963Y970135D01*
X497963Y970130D01*
X497962Y970125D01*
X497962Y970120D01*
X497959Y970100D01*
X497959Y970095D01*
X497958Y970090D01*
X497958Y970085D01*
X497957Y970080D01*
X497957Y970075D01*
X497956Y970070D01*
X497956Y970065D01*
X497955Y970060D01*
X497953Y970040D01*
X497952Y970035D01*
X497952Y970030D01*
X497951Y970025D01*
X497951Y970020D01*
X497950Y970020D01*
X497951Y970020D01*
X497950Y970015D01*
X497949Y970011D01*
X497949Y970010D01*
X497949Y970006D01*
X497949Y970005D01*
X497948Y970001D01*
X497946Y969981D01*
X497945Y969976D01*
X497945Y969971D01*
X497944Y969966D01*
X497944Y969961D01*
X497943Y969956D01*
X497943Y969951D01*
X497942Y969946D01*
X497942Y969941D01*
X497939Y969921D01*
X497939Y969916D01*
X497938Y969911D01*
X497938Y969906D01*
X497937Y969901D01*
X497937Y969896D01*
X497936Y969896D01*
X497937Y969896D01*
X497936Y969891D01*
X497935Y969886D01*
X497933Y969861D01*
X497932Y969856D01*
X497931Y969852D01*
X497931Y969851D01*
X497931Y969847D01*
X497931Y969846D01*
X497930Y969842D01*
X497930Y969837D01*
X497929Y969832D01*
X497929Y969827D01*
X497926Y969802D01*
X497925Y969797D01*
X497925Y969792D01*
X497924Y969787D01*
X497924Y969782D01*
X497923Y969777D01*
X497923Y969772D01*
X497922Y969772D01*
X497923Y969772D01*
X497922Y969767D01*
X497920Y969747D01*
X497919Y969742D01*
X497919Y969737D01*
X497918Y969732D01*
X497917Y969727D01*
X497917Y969722D01*
X497916Y969717D01*
X497916Y969712D01*
X497915Y969707D01*
X497913Y969688D01*
X497913Y969687D01*
X497912Y969683D01*
X497912Y969678D01*
X497911Y969673D01*
X497911Y969668D01*
X497910Y969663D01*
X497910Y969658D01*
X497909Y969653D01*
X497909Y969648D01*
X497908Y969648D01*
X497909Y969648D01*
X497906Y969628D01*
X497906Y969623D01*
X497905Y969618D01*
X497905Y969613D01*
X497904Y969608D01*
X497903Y969603D01*
X497903Y969598D01*
X497902Y969593D01*
X497902Y969588D01*
X497900Y969568D01*
X497899Y969563D01*
X497898Y969558D01*
X497898Y969553D01*
X497897Y969548D01*
X497897Y969543D01*
X497896Y969538D01*
X497896Y969534D01*
X497896Y969533D01*
X497893Y969509D01*
X497892Y969504D01*
X497892Y969499D01*
X497891Y969494D01*
X497891Y969489D01*
X497890Y969484D01*
X497889Y969479D01*
X497889Y969474D01*
X497886Y969449D01*
X497886Y969444D01*
X497885Y969439D01*
X497884Y969434D01*
X497884Y969429D01*
X497883Y969424D01*
X497883Y969419D01*
X497882Y969414D01*
X497880Y969394D01*
X497879Y969389D01*
X497879Y969384D01*
X497878Y969379D01*
X497878Y969375D01*
X497878Y969374D01*
X497877Y969370D01*
X497877Y969369D01*
X497877Y969365D01*
X497876Y969360D01*
X497875Y969355D01*
X497873Y969335D01*
X497873Y969330D01*
X497872Y969325D01*
X497872Y969320D01*
X497871Y969315D01*
X497870Y969310D01*
X497870Y969305D01*
X497869Y969300D01*
X497869Y969295D01*
X497867Y969275D01*
X497866Y969270D01*
X497865Y969265D01*
X497865Y969260D01*
X497864Y969255D01*
X497864Y969250D01*
X497863Y969245D01*
X497863Y969240D01*
X497862Y969236D01*
X497862Y969235D01*
X497862Y959075D01*
X497862Y959074D01*
X497983Y958001D01*
X497984Y958000D01*
X497983Y957999D01*
X498340Y956979D01*
X498341Y956979D01*
X498341Y956978D01*
X498916Y956063D01*
X499681Y955298D01*
X500596Y954723D01*
X500597Y954723D01*
X500597Y954722D01*
X501617Y954365D01*
X501618Y954366D01*
X501619Y954365D01*
X502692Y954244D01*
X502693Y954245D01*
X502694Y954244D01*
X503824Y954371D01*
G37*
G36*
X532874Y788837D02*
X532874Y788837D01*
X532882Y788836D01*
X532970Y788857D01*
X533060Y788875D01*
X533067Y788880D01*
X533075Y788882D01*
X533149Y788936D01*
X533224Y788988D01*
X533229Y788995D01*
X533235Y789000D01*
X533282Y789078D01*
X533331Y789155D01*
X533333Y789163D01*
X533337Y789171D01*
X533365Y789335D01*
X533365Y798897D01*
X533363Y798905D01*
X533364Y798914D01*
X533343Y799002D01*
X533325Y799092D01*
X533320Y799099D01*
X533318Y799107D01*
X533264Y799180D01*
X533212Y799256D01*
X533205Y799261D01*
X533200Y799267D01*
X533122Y799314D01*
X533045Y799363D01*
X533037Y799364D01*
X533029Y799369D01*
X532865Y799396D01*
X523303Y799396D01*
X523295Y799395D01*
X523286Y799396D01*
X523198Y799375D01*
X523108Y799357D01*
X523101Y799352D01*
X523093Y799350D01*
X523020Y799296D01*
X522944Y799244D01*
X522939Y799237D01*
X522933Y799232D01*
X522886Y799154D01*
X522837Y799077D01*
X522836Y799068D01*
X522831Y799061D01*
X522804Y798897D01*
X522804Y789335D01*
X522805Y789326D01*
X522804Y789318D01*
X522825Y789230D01*
X522843Y789140D01*
X522848Y789133D01*
X522850Y789125D01*
X522904Y789051D01*
X522956Y788976D01*
X522963Y788971D01*
X522968Y788965D01*
X523046Y788918D01*
X523123Y788869D01*
X523132Y788867D01*
X523139Y788863D01*
X523303Y788835D01*
X532865Y788835D01*
X532874Y788837D01*
G37*
G36*
X546905Y788837D02*
X546905Y788837D01*
X546914Y788836D01*
X547002Y788857D01*
X547092Y788875D01*
X547099Y788880D01*
X547107Y788882D01*
X547180Y788936D01*
X547256Y788988D01*
X547261Y788995D01*
X547267Y789000D01*
X547314Y789078D01*
X547363Y789155D01*
X547364Y789163D01*
X547369Y789171D01*
X547396Y789335D01*
X547396Y798897D01*
X547395Y798905D01*
X547396Y798914D01*
X547375Y799002D01*
X547357Y799092D01*
X547352Y799099D01*
X547350Y799107D01*
X547296Y799180D01*
X547244Y799256D01*
X547237Y799261D01*
X547232Y799267D01*
X547154Y799314D01*
X547077Y799363D01*
X547068Y799364D01*
X547061Y799369D01*
X546897Y799396D01*
X537335Y799396D01*
X537326Y799395D01*
X537318Y799396D01*
X537230Y799375D01*
X537140Y799357D01*
X537133Y799352D01*
X537125Y799350D01*
X537051Y799296D01*
X536976Y799244D01*
X536971Y799237D01*
X536965Y799232D01*
X536918Y799154D01*
X536869Y799077D01*
X536867Y799068D01*
X536863Y799061D01*
X536835Y798897D01*
X536835Y789335D01*
X536837Y789326D01*
X536836Y789318D01*
X536857Y789230D01*
X536875Y789140D01*
X536880Y789133D01*
X536882Y789125D01*
X536936Y789051D01*
X536988Y788976D01*
X536995Y788971D01*
X537000Y788965D01*
X537078Y788918D01*
X537155Y788869D01*
X537163Y788867D01*
X537171Y788863D01*
X537335Y788835D01*
X546897Y788835D01*
X546905Y788837D01*
G37*
G36*
X532874Y774805D02*
X532874Y774805D01*
X532882Y774804D01*
X532970Y774825D01*
X533060Y774843D01*
X533067Y774848D01*
X533075Y774850D01*
X533149Y774904D01*
X533224Y774956D01*
X533229Y774963D01*
X533235Y774968D01*
X533282Y775046D01*
X533331Y775123D01*
X533333Y775132D01*
X533337Y775139D01*
X533365Y775303D01*
X533365Y784865D01*
X533363Y784874D01*
X533364Y784882D01*
X533343Y784970D01*
X533325Y785060D01*
X533320Y785067D01*
X533318Y785075D01*
X533264Y785149D01*
X533212Y785224D01*
X533205Y785229D01*
X533200Y785235D01*
X533122Y785282D01*
X533045Y785331D01*
X533037Y785333D01*
X533029Y785337D01*
X532865Y785365D01*
X523303Y785365D01*
X523295Y785363D01*
X523286Y785364D01*
X523198Y785343D01*
X523108Y785325D01*
X523101Y785320D01*
X523093Y785318D01*
X523020Y785264D01*
X522944Y785212D01*
X522939Y785205D01*
X522933Y785200D01*
X522886Y785122D01*
X522837Y785045D01*
X522836Y785037D01*
X522831Y785029D01*
X522804Y784865D01*
X522804Y775303D01*
X522805Y775295D01*
X522804Y775286D01*
X522825Y775198D01*
X522843Y775108D01*
X522848Y775101D01*
X522850Y775093D01*
X522904Y775020D01*
X522956Y774944D01*
X522963Y774939D01*
X522968Y774933D01*
X523046Y774886D01*
X523123Y774837D01*
X523132Y774836D01*
X523139Y774831D01*
X523303Y774804D01*
X532865Y774804D01*
X532874Y774805D01*
G37*
G36*
X546905Y774805D02*
X546905Y774805D01*
X546914Y774804D01*
X547002Y774825D01*
X547092Y774843D01*
X547099Y774848D01*
X547107Y774850D01*
X547180Y774904D01*
X547256Y774956D01*
X547261Y774963D01*
X547267Y774968D01*
X547314Y775046D01*
X547363Y775123D01*
X547364Y775132D01*
X547369Y775139D01*
X547396Y775303D01*
X547396Y784865D01*
X547395Y784874D01*
X547396Y784882D01*
X547375Y784970D01*
X547357Y785060D01*
X547352Y785067D01*
X547350Y785075D01*
X547296Y785149D01*
X547244Y785224D01*
X547237Y785229D01*
X547232Y785235D01*
X547154Y785282D01*
X547077Y785331D01*
X547068Y785333D01*
X547061Y785337D01*
X546897Y785365D01*
X537335Y785365D01*
X537326Y785363D01*
X537318Y785364D01*
X537230Y785343D01*
X537140Y785325D01*
X537133Y785320D01*
X537125Y785318D01*
X537051Y785264D01*
X536976Y785212D01*
X536971Y785205D01*
X536965Y785200D01*
X536918Y785122D01*
X536869Y785045D01*
X536867Y785037D01*
X536863Y785029D01*
X536835Y784865D01*
X536835Y775303D01*
X536837Y775295D01*
X536836Y775286D01*
X536857Y775198D01*
X536875Y775108D01*
X536880Y775101D01*
X536882Y775093D01*
X536936Y775020D01*
X536988Y774944D01*
X536995Y774939D01*
X537000Y774933D01*
X537078Y774886D01*
X537155Y774837D01*
X537163Y774836D01*
X537171Y774831D01*
X537335Y774804D01*
X546897Y774804D01*
X546905Y774805D01*
G37*
D10*
X472300Y1009600D03*
X472300Y955600D03*
D11*
X400700Y769200D03*
X400700Y839200D03*
X330700Y839200D03*
X330700Y769200D03*
D12*
X592950Y626000D03*
X577450Y626000D03*
D13*
X641800Y676000D03*
X604800Y676000D03*
D14*
X555000Y600150D03*
X555000Y584650D03*
X525000Y584750D03*
X525000Y600250D03*
X404300Y681850D03*
X404300Y697350D03*
X505300Y640750D03*
X505300Y656250D03*
X478000Y618250D03*
X478000Y602750D03*
D12*
X573450Y720400D03*
X557950Y720400D03*
X478450Y588800D03*
X493950Y588800D03*
X443350Y704300D03*
X427850Y704300D03*
X454550Y672700D03*
X470050Y672700D03*
X443550Y719300D03*
X428050Y719300D03*
X480350Y734700D03*
X495850Y734700D03*
X442750Y689300D03*
X427250Y689300D03*
X767850Y593300D03*
X752350Y593300D03*
X767950Y578300D03*
X752450Y578300D03*
D14*
X765300Y468950D03*
X765300Y484450D03*
D12*
X315850Y626700D03*
X331350Y626700D03*
D14*
X615600Y734750D03*
X615600Y719250D03*
D12*
X708450Y761700D03*
X723950Y761700D03*
X419350Y917700D03*
X434850Y917700D03*
X369750Y876300D03*
X354250Y876300D03*
X733150Y779700D03*
X748650Y779700D03*
X798650Y763000D03*
X814150Y763000D03*
D14*
X660300Y996950D03*
X660300Y1012450D03*
X611800Y1013150D03*
X611800Y997650D03*
D12*
X419250Y932000D03*
X434750Y932000D03*
D14*
X591200Y923250D03*
X591200Y907750D03*
X726200Y922350D03*
X726200Y937850D03*
D12*
X756750Y920200D03*
X741250Y920200D03*
D14*
X710800Y950850D03*
X710800Y935350D03*
D12*
X738950Y951200D03*
X723450Y951200D03*
X765050Y936200D03*
X749550Y936200D03*
X792150Y936200D03*
X776650Y936200D03*
X792250Y951200D03*
X776750Y951200D03*
D14*
X699200Y964650D03*
X699200Y980150D03*
X684200Y964550D03*
X684200Y980050D03*
D12*
X860550Y950200D03*
X845050Y950200D03*
D14*
X341200Y878850D03*
X341200Y894350D03*
X341200Y932750D03*
X341200Y948250D03*
X585200Y588650D03*
X585200Y604150D03*
X610200Y622550D03*
X610200Y638050D03*
X625200Y622450D03*
X625200Y637950D03*
X657800Y577650D03*
X657800Y562150D03*
D13*
X722700Y584900D03*
X685700Y584900D03*
D12*
X665850Y545200D03*
X650350Y545200D03*
X612950Y545200D03*
X597450Y545200D03*
D14*
X274200Y459450D03*
X274200Y443950D03*
X278100Y571750D03*
X278100Y556250D03*
X276900Y678450D03*
X276900Y662950D03*
X277100Y787850D03*
X277100Y803350D03*
D15*
X866400Y613500D03*
D16*
X857650Y704500D03*
X875150Y704500D03*
D17*
X744750Y849700D03*
X729250Y849700D03*
X701150Y694300D03*
X716650Y694300D03*
X424150Y418700D03*
X408650Y418700D03*
X424250Y404700D03*
X408750Y404700D03*
X681650Y1006300D03*
X697150Y1006300D03*
X701150Y710400D03*
X716650Y710400D03*
X752450Y1006300D03*
X767950Y1006300D03*
X744650Y874700D03*
X729150Y874700D03*
D18*
X449475Y884875D02*
X434825Y884875D01*
X434825Y889225D01*
X449475Y889225D01*
X449475Y884875D01*
X449475Y886252D02*
X434825Y886252D01*
X434825Y887629D02*
X449475Y887629D01*
X449475Y889006D02*
X434825Y889006D01*
X434825Y872175D02*
X449475Y872175D01*
X434825Y872175D02*
X434825Y876525D01*
X449475Y876525D01*
X449475Y872175D01*
X449475Y873552D02*
X434825Y873552D01*
X434825Y874929D02*
X449475Y874929D01*
X449475Y876306D02*
X434825Y876306D01*
X434825Y859475D02*
X449475Y859475D01*
X434825Y859475D02*
X434825Y863825D01*
X449475Y863825D01*
X449475Y859475D01*
X449475Y860852D02*
X434825Y860852D01*
X434825Y862229D02*
X449475Y862229D01*
X449475Y863606D02*
X434825Y863606D01*
X434825Y846775D02*
X449475Y846775D01*
X434825Y846775D02*
X434825Y851125D01*
X449475Y851125D01*
X449475Y846775D01*
X449475Y848152D02*
X434825Y848152D01*
X434825Y849529D02*
X449475Y849529D01*
X449475Y850906D02*
X434825Y850906D01*
X506925Y846775D02*
X521575Y846775D01*
X506925Y846775D02*
X506925Y851125D01*
X521575Y851125D01*
X521575Y846775D01*
X521575Y848152D02*
X506925Y848152D01*
X506925Y849529D02*
X521575Y849529D01*
X521575Y850906D02*
X506925Y850906D01*
X506925Y859475D02*
X521575Y859475D01*
X506925Y859475D02*
X506925Y863825D01*
X521575Y863825D01*
X521575Y859475D01*
X521575Y860852D02*
X506925Y860852D01*
X506925Y862229D02*
X521575Y862229D01*
X521575Y863606D02*
X506925Y863606D01*
X506925Y872175D02*
X521575Y872175D01*
X506925Y872175D02*
X506925Y876525D01*
X521575Y876525D01*
X521575Y872175D01*
X521575Y873552D02*
X506925Y873552D01*
X506925Y874929D02*
X521575Y874929D01*
X521575Y876306D02*
X506925Y876306D01*
X506925Y884875D02*
X521575Y884875D01*
X506925Y884875D02*
X506925Y889225D01*
X521575Y889225D01*
X521575Y884875D01*
X521575Y886252D02*
X506925Y886252D01*
X506925Y887629D02*
X521575Y887629D01*
X521575Y889006D02*
X506925Y889006D01*
D19*
X602700Y839200D03*
X602700Y828200D03*
X602700Y817200D03*
X602700Y806200D03*
X602700Y795200D03*
X602700Y784200D03*
X602700Y773200D03*
X602700Y762200D03*
X602700Y751200D03*
X692700Y751200D03*
X692700Y762200D03*
X692700Y773200D03*
X692700Y784200D03*
X692700Y795200D03*
X692700Y806200D03*
X692700Y817200D03*
X692700Y828200D03*
X692700Y839200D03*
D20*
X466800Y607650D03*
X466800Y614150D03*
X466800Y620650D03*
X466800Y601150D03*
X450800Y614150D03*
X450800Y607650D03*
X450800Y601150D03*
X450800Y620650D03*
D21*
X881100Y560800D03*
X855700Y560800D03*
X830300Y560800D03*
X804900Y560800D03*
X804900Y393200D03*
X830300Y393200D03*
X855700Y393200D03*
X881100Y393200D03*
D22*
X848600Y756200D03*
X848600Y762700D03*
X848600Y769200D03*
X826600Y769200D03*
X826600Y762700D03*
X826600Y756200D03*
X807100Y932800D03*
X807100Y926300D03*
X807100Y919800D03*
X829100Y919800D03*
X829100Y926300D03*
X829100Y932800D03*
D23*
X483300Y515000D03*
X494300Y515000D03*
X505300Y515000D03*
X516300Y515000D03*
X527300Y515000D03*
X538300Y515000D03*
X549300Y515000D03*
X560300Y515000D03*
D24*
X439850Y508700D03*
D25*
X583750Y510200D03*
D26*
X579750Y488700D03*
D27*
X579200Y398700D03*
D28*
X560700Y387450D03*
X482900Y387450D03*
D25*
X439850Y395400D03*
D12*
X682650Y936000D03*
X698150Y936000D03*
X639250Y545000D03*
X623750Y545000D03*
D14*
X540000Y585150D03*
X540000Y600650D03*
D12*
X682550Y951000D03*
X698050Y951000D03*
X749850Y951200D03*
X765350Y951200D03*
X776750Y966300D03*
X792250Y966300D03*
X712250Y965000D03*
X727750Y965000D03*
X772050Y763000D03*
X787550Y763000D03*
D14*
X341000Y905850D03*
X341000Y921350D03*
D17*
X572700Y876050D03*
X572700Y891550D03*
D29*
X756875Y766600D02*
X756877Y766650D01*
X756883Y766699D01*
X756893Y766748D01*
X756906Y766795D01*
X756924Y766842D01*
X756945Y766887D01*
X756969Y766930D01*
X756997Y766971D01*
X757028Y767010D01*
X757062Y767046D01*
X757099Y767080D01*
X757139Y767110D01*
X757180Y767137D01*
X757224Y767161D01*
X757269Y767181D01*
X757316Y767197D01*
X757364Y767210D01*
X757413Y767219D01*
X757463Y767224D01*
X757512Y767225D01*
X757562Y767222D01*
X757611Y767215D01*
X757660Y767204D01*
X757707Y767190D01*
X757753Y767171D01*
X757798Y767149D01*
X757841Y767124D01*
X757881Y767095D01*
X757919Y767063D01*
X757955Y767029D01*
X757988Y766991D01*
X758017Y766951D01*
X758043Y766909D01*
X758066Y766865D01*
X758085Y766819D01*
X758101Y766772D01*
X758113Y766723D01*
X758121Y766674D01*
X758125Y766625D01*
X758125Y766575D01*
X758121Y766526D01*
X758113Y766477D01*
X758101Y766428D01*
X758085Y766381D01*
X758066Y766335D01*
X758043Y766291D01*
X758017Y766249D01*
X757988Y766209D01*
X757955Y766171D01*
X757919Y766137D01*
X757881Y766105D01*
X757841Y766076D01*
X757798Y766051D01*
X757753Y766029D01*
X757707Y766010D01*
X757660Y765996D01*
X757611Y765985D01*
X757562Y765978D01*
X757512Y765975D01*
X757463Y765976D01*
X757413Y765981D01*
X757364Y765990D01*
X757316Y766003D01*
X757269Y766019D01*
X757224Y766039D01*
X757180Y766063D01*
X757139Y766090D01*
X757099Y766120D01*
X757062Y766154D01*
X757028Y766190D01*
X756997Y766229D01*
X756969Y766270D01*
X756945Y766313D01*
X756924Y766358D01*
X756906Y766405D01*
X756893Y766452D01*
X756883Y766501D01*
X756877Y766550D01*
X756875Y766600D01*
X756875Y762600D02*
X756877Y762650D01*
X756883Y762699D01*
X756893Y762748D01*
X756906Y762795D01*
X756924Y762842D01*
X756945Y762887D01*
X756969Y762930D01*
X756997Y762971D01*
X757028Y763010D01*
X757062Y763046D01*
X757099Y763080D01*
X757139Y763110D01*
X757180Y763137D01*
X757224Y763161D01*
X757269Y763181D01*
X757316Y763197D01*
X757364Y763210D01*
X757413Y763219D01*
X757463Y763224D01*
X757512Y763225D01*
X757562Y763222D01*
X757611Y763215D01*
X757660Y763204D01*
X757707Y763190D01*
X757753Y763171D01*
X757798Y763149D01*
X757841Y763124D01*
X757881Y763095D01*
X757919Y763063D01*
X757955Y763029D01*
X757988Y762991D01*
X758017Y762951D01*
X758043Y762909D01*
X758066Y762865D01*
X758085Y762819D01*
X758101Y762772D01*
X758113Y762723D01*
X758121Y762674D01*
X758125Y762625D01*
X758125Y762575D01*
X758121Y762526D01*
X758113Y762477D01*
X758101Y762428D01*
X758085Y762381D01*
X758066Y762335D01*
X758043Y762291D01*
X758017Y762249D01*
X757988Y762209D01*
X757955Y762171D01*
X757919Y762137D01*
X757881Y762105D01*
X757841Y762076D01*
X757798Y762051D01*
X757753Y762029D01*
X757707Y762010D01*
X757660Y761996D01*
X757611Y761985D01*
X757562Y761978D01*
X757512Y761975D01*
X757463Y761976D01*
X757413Y761981D01*
X757364Y761990D01*
X757316Y762003D01*
X757269Y762019D01*
X757224Y762039D01*
X757180Y762063D01*
X757139Y762090D01*
X757099Y762120D01*
X757062Y762154D01*
X757028Y762190D01*
X756997Y762229D01*
X756969Y762270D01*
X756945Y762313D01*
X756924Y762358D01*
X756906Y762405D01*
X756893Y762452D01*
X756883Y762501D01*
X756877Y762550D01*
X756875Y762600D01*
X760875Y762600D02*
X760877Y762650D01*
X760883Y762699D01*
X760893Y762748D01*
X760906Y762795D01*
X760924Y762842D01*
X760945Y762887D01*
X760969Y762930D01*
X760997Y762971D01*
X761028Y763010D01*
X761062Y763046D01*
X761099Y763080D01*
X761139Y763110D01*
X761180Y763137D01*
X761224Y763161D01*
X761269Y763181D01*
X761316Y763197D01*
X761364Y763210D01*
X761413Y763219D01*
X761463Y763224D01*
X761512Y763225D01*
X761562Y763222D01*
X761611Y763215D01*
X761660Y763204D01*
X761707Y763190D01*
X761753Y763171D01*
X761798Y763149D01*
X761841Y763124D01*
X761881Y763095D01*
X761919Y763063D01*
X761955Y763029D01*
X761988Y762991D01*
X762017Y762951D01*
X762043Y762909D01*
X762066Y762865D01*
X762085Y762819D01*
X762101Y762772D01*
X762113Y762723D01*
X762121Y762674D01*
X762125Y762625D01*
X762125Y762575D01*
X762121Y762526D01*
X762113Y762477D01*
X762101Y762428D01*
X762085Y762381D01*
X762066Y762335D01*
X762043Y762291D01*
X762017Y762249D01*
X761988Y762209D01*
X761955Y762171D01*
X761919Y762137D01*
X761881Y762105D01*
X761841Y762076D01*
X761798Y762051D01*
X761753Y762029D01*
X761707Y762010D01*
X761660Y761996D01*
X761611Y761985D01*
X761562Y761978D01*
X761512Y761975D01*
X761463Y761976D01*
X761413Y761981D01*
X761364Y761990D01*
X761316Y762003D01*
X761269Y762019D01*
X761224Y762039D01*
X761180Y762063D01*
X761139Y762090D01*
X761099Y762120D01*
X761062Y762154D01*
X761028Y762190D01*
X760997Y762229D01*
X760969Y762270D01*
X760945Y762313D01*
X760924Y762358D01*
X760906Y762405D01*
X760893Y762452D01*
X760883Y762501D01*
X760877Y762550D01*
X760875Y762600D01*
D30*
X757500Y758600D03*
X761500Y766600D03*
X761500Y766600D03*
X757500Y758600D03*
D29*
X756875Y758600D02*
X756877Y758650D01*
X756883Y758699D01*
X756893Y758748D01*
X756906Y758795D01*
X756924Y758842D01*
X756945Y758887D01*
X756969Y758930D01*
X756997Y758971D01*
X757028Y759010D01*
X757062Y759046D01*
X757099Y759080D01*
X757139Y759110D01*
X757180Y759137D01*
X757224Y759161D01*
X757269Y759181D01*
X757316Y759197D01*
X757364Y759210D01*
X757413Y759219D01*
X757463Y759224D01*
X757512Y759225D01*
X757562Y759222D01*
X757611Y759215D01*
X757660Y759204D01*
X757707Y759190D01*
X757753Y759171D01*
X757798Y759149D01*
X757841Y759124D01*
X757881Y759095D01*
X757919Y759063D01*
X757955Y759029D01*
X757988Y758991D01*
X758017Y758951D01*
X758043Y758909D01*
X758066Y758865D01*
X758085Y758819D01*
X758101Y758772D01*
X758113Y758723D01*
X758121Y758674D01*
X758125Y758625D01*
X758125Y758575D01*
X758121Y758526D01*
X758113Y758477D01*
X758101Y758428D01*
X758085Y758381D01*
X758066Y758335D01*
X758043Y758291D01*
X758017Y758249D01*
X757988Y758209D01*
X757955Y758171D01*
X757919Y758137D01*
X757881Y758105D01*
X757841Y758076D01*
X757798Y758051D01*
X757753Y758029D01*
X757707Y758010D01*
X757660Y757996D01*
X757611Y757985D01*
X757562Y757978D01*
X757512Y757975D01*
X757463Y757976D01*
X757413Y757981D01*
X757364Y757990D01*
X757316Y758003D01*
X757269Y758019D01*
X757224Y758039D01*
X757180Y758063D01*
X757139Y758090D01*
X757099Y758120D01*
X757062Y758154D01*
X757028Y758190D01*
X756997Y758229D01*
X756969Y758270D01*
X756945Y758313D01*
X756924Y758358D01*
X756906Y758405D01*
X756893Y758452D01*
X756883Y758501D01*
X756877Y758550D01*
X756875Y758600D01*
D30*
X761500Y766600D03*
D29*
X760875Y766600D02*
X760877Y766650D01*
X760883Y766699D01*
X760893Y766748D01*
X760906Y766795D01*
X760924Y766842D01*
X760945Y766887D01*
X760969Y766930D01*
X760997Y766971D01*
X761028Y767010D01*
X761062Y767046D01*
X761099Y767080D01*
X761139Y767110D01*
X761180Y767137D01*
X761224Y767161D01*
X761269Y767181D01*
X761316Y767197D01*
X761364Y767210D01*
X761413Y767219D01*
X761463Y767224D01*
X761512Y767225D01*
X761562Y767222D01*
X761611Y767215D01*
X761660Y767204D01*
X761707Y767190D01*
X761753Y767171D01*
X761798Y767149D01*
X761841Y767124D01*
X761881Y767095D01*
X761919Y767063D01*
X761955Y767029D01*
X761988Y766991D01*
X762017Y766951D01*
X762043Y766909D01*
X762066Y766865D01*
X762085Y766819D01*
X762101Y766772D01*
X762113Y766723D01*
X762121Y766674D01*
X762125Y766625D01*
X762125Y766575D01*
X762121Y766526D01*
X762113Y766477D01*
X762101Y766428D01*
X762085Y766381D01*
X762066Y766335D01*
X762043Y766291D01*
X762017Y766249D01*
X761988Y766209D01*
X761955Y766171D01*
X761919Y766137D01*
X761881Y766105D01*
X761841Y766076D01*
X761798Y766051D01*
X761753Y766029D01*
X761707Y766010D01*
X761660Y765996D01*
X761611Y765985D01*
X761562Y765978D01*
X761512Y765975D01*
X761463Y765976D01*
X761413Y765981D01*
X761364Y765990D01*
X761316Y766003D01*
X761269Y766019D01*
X761224Y766039D01*
X761180Y766063D01*
X761139Y766090D01*
X761099Y766120D01*
X761062Y766154D01*
X761028Y766190D01*
X760997Y766229D01*
X760969Y766270D01*
X760945Y766313D01*
X760924Y766358D01*
X760906Y766405D01*
X760893Y766452D01*
X760883Y766501D01*
X760877Y766550D01*
X760875Y766600D01*
X760875Y758600D02*
X760877Y758650D01*
X760883Y758699D01*
X760893Y758748D01*
X760906Y758795D01*
X760924Y758842D01*
X760945Y758887D01*
X760969Y758930D01*
X760997Y758971D01*
X761028Y759010D01*
X761062Y759046D01*
X761099Y759080D01*
X761139Y759110D01*
X761180Y759137D01*
X761224Y759161D01*
X761269Y759181D01*
X761316Y759197D01*
X761364Y759210D01*
X761413Y759219D01*
X761463Y759224D01*
X761512Y759225D01*
X761562Y759222D01*
X761611Y759215D01*
X761660Y759204D01*
X761707Y759190D01*
X761753Y759171D01*
X761798Y759149D01*
X761841Y759124D01*
X761881Y759095D01*
X761919Y759063D01*
X761955Y759029D01*
X761988Y758991D01*
X762017Y758951D01*
X762043Y758909D01*
X762066Y758865D01*
X762085Y758819D01*
X762101Y758772D01*
X762113Y758723D01*
X762121Y758674D01*
X762125Y758625D01*
X762125Y758575D01*
X762121Y758526D01*
X762113Y758477D01*
X762101Y758428D01*
X762085Y758381D01*
X762066Y758335D01*
X762043Y758291D01*
X762017Y758249D01*
X761988Y758209D01*
X761955Y758171D01*
X761919Y758137D01*
X761881Y758105D01*
X761841Y758076D01*
X761798Y758051D01*
X761753Y758029D01*
X761707Y758010D01*
X761660Y757996D01*
X761611Y757985D01*
X761562Y757978D01*
X761512Y757975D01*
X761463Y757976D01*
X761413Y757981D01*
X761364Y757990D01*
X761316Y758003D01*
X761269Y758019D01*
X761224Y758039D01*
X761180Y758063D01*
X761139Y758090D01*
X761099Y758120D01*
X761062Y758154D01*
X761028Y758190D01*
X760997Y758229D01*
X760969Y758270D01*
X760945Y758313D01*
X760924Y758358D01*
X760906Y758405D01*
X760893Y758452D01*
X760883Y758501D01*
X760877Y758550D01*
X760875Y758600D01*
D12*
X467950Y906000D03*
X452450Y906000D03*
X450050Y590100D03*
X465550Y590100D03*
D14*
X516900Y705950D03*
X516900Y721450D03*
D12*
X497250Y672900D03*
X481750Y672900D03*
X308350Y884900D03*
X292850Y884900D03*
X432650Y451900D03*
X417150Y451900D03*
X405750Y451900D03*
X390250Y451900D03*
X729550Y694100D03*
X745050Y694100D03*
D14*
X573000Y903950D03*
X573000Y919450D03*
D12*
X271650Y836900D03*
X256150Y836900D03*
D14*
X525600Y691250D03*
X525600Y675750D03*
D12*
X573650Y668600D03*
X589150Y668600D03*
X589050Y683300D03*
X573550Y683300D03*
D14*
X242600Y850750D03*
X242600Y835250D03*
D12*
X589150Y891100D03*
X604650Y891100D03*
X380050Y419100D03*
X395550Y419100D03*
X379950Y404100D03*
X395450Y404100D03*
D14*
X538900Y837750D03*
X538900Y853250D03*
X404100Y878550D03*
X404100Y863050D03*
X640100Y637550D03*
X640100Y622050D03*
X570400Y584250D03*
X570400Y599750D03*
D12*
X725150Y1005900D03*
X709650Y1005900D03*
X654150Y621600D03*
X669650Y621600D03*
X225250Y765900D03*
X209750Y765900D03*
X669950Y636400D03*
X654450Y636400D03*
D14*
X554900Y837650D03*
X554900Y853150D03*
D12*
X435450Y902900D03*
X419950Y902900D03*
X416250Y946400D03*
X400750Y946400D03*
X467550Y542900D03*
X452050Y542900D03*
X573450Y735900D03*
X557950Y735900D03*
X729250Y710000D03*
X744750Y710000D03*
X780450Y1006200D03*
X795950Y1006200D03*
D14*
X306900Y827250D03*
X306900Y842750D03*
X495000Y602750D03*
X495000Y618250D03*
D31*
X363400Y892600D03*
X368400Y892600D03*
X373400Y892600D03*
X378400Y892600D03*
X383400Y892600D03*
X388400Y892600D03*
X393400Y892600D03*
X398400Y892600D03*
D32*
X405400Y899600D03*
X405400Y904600D03*
X405400Y909600D03*
X405400Y914600D03*
X405400Y919600D03*
X405400Y924600D03*
D31*
X398400Y931600D03*
X393400Y931600D03*
X388400Y931600D03*
X383400Y931600D03*
X378400Y931600D03*
X373400Y931600D03*
X368400Y931600D03*
X363400Y931600D03*
D32*
X356400Y924600D03*
X356400Y919600D03*
X356400Y914600D03*
X356400Y909600D03*
X356400Y904600D03*
X356400Y899600D03*
D33*
X380900Y912100D03*
D32*
X641100Y567400D03*
X641100Y572400D03*
X641100Y577400D03*
X641100Y582400D03*
X641100Y587400D03*
X641100Y592400D03*
X641100Y597400D03*
X641100Y602400D03*
D31*
X634100Y609400D03*
X629100Y609400D03*
X624100Y609400D03*
X619100Y609400D03*
X614100Y609400D03*
X609100Y609400D03*
D32*
X602100Y602400D03*
X602100Y597400D03*
X602100Y592400D03*
X602100Y587400D03*
X602100Y582400D03*
X602100Y577400D03*
X602100Y572400D03*
X602100Y567400D03*
D31*
X609100Y560400D03*
X614100Y560400D03*
X619100Y560400D03*
X624100Y560400D03*
X629100Y560400D03*
X634100Y560400D03*
D34*
X621600Y584900D03*
D32*
X560800Y620400D03*
X560800Y625400D03*
X560800Y630400D03*
X560800Y635400D03*
X560800Y640400D03*
X560800Y645400D03*
X560800Y650400D03*
X560800Y655400D03*
D31*
X553800Y662400D03*
X548800Y662400D03*
X543800Y662400D03*
X538800Y662400D03*
X533800Y662400D03*
X528800Y662400D03*
D32*
X521800Y655400D03*
X521800Y650400D03*
X521800Y645400D03*
X521800Y640400D03*
X521800Y635400D03*
X521800Y630400D03*
X521800Y625400D03*
X521800Y620400D03*
D31*
X528800Y613400D03*
X533800Y613400D03*
X538800Y613400D03*
X543800Y613400D03*
X548800Y613400D03*
X553800Y613400D03*
D34*
X541300Y637900D03*
D35*
X504600Y812600D02*
X496850Y812600D01*
X496850Y813600D01*
X504600Y813600D01*
X504600Y812600D01*
X504600Y813550D02*
X496850Y813550D01*
X496850Y808600D02*
X504600Y808600D01*
X496850Y808600D02*
X496850Y809600D01*
X504600Y809600D01*
X504600Y808600D01*
X504600Y809550D02*
X496850Y809550D01*
X496850Y804600D02*
X504600Y804600D01*
X496850Y804600D02*
X496850Y805600D01*
X504600Y805600D01*
X504600Y804600D01*
X504600Y805550D02*
X496850Y805550D01*
X496850Y800600D02*
X504600Y800600D01*
X496850Y800600D02*
X496850Y801600D01*
X504600Y801600D01*
X504600Y800600D01*
X504600Y801550D02*
X496850Y801550D01*
X496850Y796600D02*
X504600Y796600D01*
X496850Y796600D02*
X496850Y797600D01*
X504600Y797600D01*
X504600Y796600D01*
X504600Y797550D02*
X496850Y797550D01*
X496850Y792600D02*
X504600Y792600D01*
X496850Y792600D02*
X496850Y793600D01*
X504600Y793600D01*
X504600Y792600D01*
X504600Y793550D02*
X496850Y793550D01*
X496850Y788600D02*
X504600Y788600D01*
X496850Y788600D02*
X496850Y789600D01*
X504600Y789600D01*
X504600Y788600D01*
X504600Y789550D02*
X496850Y789550D01*
X496850Y784600D02*
X504600Y784600D01*
X496850Y784600D02*
X496850Y785600D01*
X504600Y785600D01*
X504600Y784600D01*
X504600Y785550D02*
X496850Y785550D01*
X496850Y780600D02*
X504600Y780600D01*
X496850Y780600D02*
X496850Y781600D01*
X504600Y781600D01*
X504600Y780600D01*
X504600Y781550D02*
X496850Y781550D01*
X496850Y776600D02*
X504600Y776600D01*
X496850Y776600D02*
X496850Y777600D01*
X504600Y777600D01*
X504600Y776600D01*
X504600Y777550D02*
X496850Y777550D01*
X496850Y772600D02*
X504600Y772600D01*
X496850Y772600D02*
X496850Y773600D01*
X504600Y773600D01*
X504600Y772600D01*
X504600Y773550D02*
X496850Y773550D01*
X496850Y768600D02*
X504600Y768600D01*
X496850Y768600D02*
X496850Y769600D01*
X504600Y769600D01*
X504600Y768600D01*
X504600Y769550D02*
X496850Y769550D01*
X496850Y764600D02*
X504600Y764600D01*
X496850Y764600D02*
X496850Y765600D01*
X504600Y765600D01*
X504600Y764600D01*
X504600Y765550D02*
X496850Y765550D01*
X496850Y760600D02*
X504600Y760600D01*
X496850Y760600D02*
X496850Y761600D01*
X504600Y761600D01*
X504600Y760600D01*
X504600Y761550D02*
X496850Y761550D01*
X509600Y756600D02*
X509600Y748850D01*
X508600Y748850D01*
X508600Y756600D01*
X509600Y756600D01*
X509600Y749800D02*
X508600Y749800D01*
X508600Y750750D02*
X509600Y750750D01*
X509600Y751700D02*
X508600Y751700D01*
X508600Y752650D02*
X509600Y752650D01*
X509600Y753600D02*
X508600Y753600D01*
X508600Y754550D02*
X509600Y754550D01*
X509600Y755500D02*
X508600Y755500D01*
X508600Y756450D02*
X509600Y756450D01*
X513600Y756600D02*
X513600Y748850D01*
X512600Y748850D01*
X512600Y756600D01*
X513600Y756600D01*
X513600Y749800D02*
X512600Y749800D01*
X512600Y750750D02*
X513600Y750750D01*
X513600Y751700D02*
X512600Y751700D01*
X512600Y752650D02*
X513600Y752650D01*
X513600Y753600D02*
X512600Y753600D01*
X512600Y754550D02*
X513600Y754550D01*
X513600Y755500D02*
X512600Y755500D01*
X512600Y756450D02*
X513600Y756450D01*
X517600Y756600D02*
X517600Y748850D01*
X516600Y748850D01*
X516600Y756600D01*
X517600Y756600D01*
X517600Y749800D02*
X516600Y749800D01*
X516600Y750750D02*
X517600Y750750D01*
X517600Y751700D02*
X516600Y751700D01*
X516600Y752650D02*
X517600Y752650D01*
X517600Y753600D02*
X516600Y753600D01*
X516600Y754550D02*
X517600Y754550D01*
X517600Y755500D02*
X516600Y755500D01*
X516600Y756450D02*
X517600Y756450D01*
X521600Y756600D02*
X521600Y748850D01*
X520600Y748850D01*
X520600Y756600D01*
X521600Y756600D01*
X521600Y749800D02*
X520600Y749800D01*
X520600Y750750D02*
X521600Y750750D01*
X521600Y751700D02*
X520600Y751700D01*
X520600Y752650D02*
X521600Y752650D01*
X521600Y753600D02*
X520600Y753600D01*
X520600Y754550D02*
X521600Y754550D01*
X521600Y755500D02*
X520600Y755500D01*
X520600Y756450D02*
X521600Y756450D01*
X525600Y756600D02*
X525600Y748850D01*
X524600Y748850D01*
X524600Y756600D01*
X525600Y756600D01*
X525600Y749800D02*
X524600Y749800D01*
X524600Y750750D02*
X525600Y750750D01*
X525600Y751700D02*
X524600Y751700D01*
X524600Y752650D02*
X525600Y752650D01*
X525600Y753600D02*
X524600Y753600D01*
X524600Y754550D02*
X525600Y754550D01*
X525600Y755500D02*
X524600Y755500D01*
X524600Y756450D02*
X525600Y756450D01*
X529600Y756600D02*
X529600Y748850D01*
X528600Y748850D01*
X528600Y756600D01*
X529600Y756600D01*
X529600Y749800D02*
X528600Y749800D01*
X528600Y750750D02*
X529600Y750750D01*
X529600Y751700D02*
X528600Y751700D01*
X528600Y752650D02*
X529600Y752650D01*
X529600Y753600D02*
X528600Y753600D01*
X528600Y754550D02*
X529600Y754550D01*
X529600Y755500D02*
X528600Y755500D01*
X528600Y756450D02*
X529600Y756450D01*
X533600Y756600D02*
X533600Y748850D01*
X532600Y748850D01*
X532600Y756600D01*
X533600Y756600D01*
X533600Y749800D02*
X532600Y749800D01*
X532600Y750750D02*
X533600Y750750D01*
X533600Y751700D02*
X532600Y751700D01*
X532600Y752650D02*
X533600Y752650D01*
X533600Y753600D02*
X532600Y753600D01*
X532600Y754550D02*
X533600Y754550D01*
X533600Y755500D02*
X532600Y755500D01*
X532600Y756450D02*
X533600Y756450D01*
X537600Y756600D02*
X537600Y748850D01*
X536600Y748850D01*
X536600Y756600D01*
X537600Y756600D01*
X537600Y749800D02*
X536600Y749800D01*
X536600Y750750D02*
X537600Y750750D01*
X537600Y751700D02*
X536600Y751700D01*
X536600Y752650D02*
X537600Y752650D01*
X537600Y753600D02*
X536600Y753600D01*
X536600Y754550D02*
X537600Y754550D01*
X537600Y755500D02*
X536600Y755500D01*
X536600Y756450D02*
X537600Y756450D01*
X541600Y756600D02*
X541600Y748850D01*
X540600Y748850D01*
X540600Y756600D01*
X541600Y756600D01*
X541600Y749800D02*
X540600Y749800D01*
X540600Y750750D02*
X541600Y750750D01*
X541600Y751700D02*
X540600Y751700D01*
X540600Y752650D02*
X541600Y752650D01*
X541600Y753600D02*
X540600Y753600D01*
X540600Y754550D02*
X541600Y754550D01*
X541600Y755500D02*
X540600Y755500D01*
X540600Y756450D02*
X541600Y756450D01*
X545600Y756600D02*
X545600Y748850D01*
X544600Y748850D01*
X544600Y756600D01*
X545600Y756600D01*
X545600Y749800D02*
X544600Y749800D01*
X544600Y750750D02*
X545600Y750750D01*
X545600Y751700D02*
X544600Y751700D01*
X544600Y752650D02*
X545600Y752650D01*
X545600Y753600D02*
X544600Y753600D01*
X544600Y754550D02*
X545600Y754550D01*
X545600Y755500D02*
X544600Y755500D01*
X544600Y756450D02*
X545600Y756450D01*
X549600Y756600D02*
X549600Y748850D01*
X548600Y748850D01*
X548600Y756600D01*
X549600Y756600D01*
X549600Y749800D02*
X548600Y749800D01*
X548600Y750750D02*
X549600Y750750D01*
X549600Y751700D02*
X548600Y751700D01*
X548600Y752650D02*
X549600Y752650D01*
X549600Y753600D02*
X548600Y753600D01*
X548600Y754550D02*
X549600Y754550D01*
X549600Y755500D02*
X548600Y755500D01*
X548600Y756450D02*
X549600Y756450D01*
X553600Y756600D02*
X553600Y748850D01*
X552600Y748850D01*
X552600Y756600D01*
X553600Y756600D01*
X553600Y749800D02*
X552600Y749800D01*
X552600Y750750D02*
X553600Y750750D01*
X553600Y751700D02*
X552600Y751700D01*
X552600Y752650D02*
X553600Y752650D01*
X553600Y753600D02*
X552600Y753600D01*
X552600Y754550D02*
X553600Y754550D01*
X553600Y755500D02*
X552600Y755500D01*
X552600Y756450D02*
X553600Y756450D01*
X557600Y756600D02*
X557600Y748850D01*
X556600Y748850D01*
X556600Y756600D01*
X557600Y756600D01*
X557600Y749800D02*
X556600Y749800D01*
X556600Y750750D02*
X557600Y750750D01*
X557600Y751700D02*
X556600Y751700D01*
X556600Y752650D02*
X557600Y752650D01*
X557600Y753600D02*
X556600Y753600D01*
X556600Y754550D02*
X557600Y754550D01*
X557600Y755500D02*
X556600Y755500D01*
X556600Y756450D02*
X557600Y756450D01*
X561600Y756600D02*
X561600Y748850D01*
X560600Y748850D01*
X560600Y756600D01*
X561600Y756600D01*
X561600Y749800D02*
X560600Y749800D01*
X560600Y750750D02*
X561600Y750750D01*
X561600Y751700D02*
X560600Y751700D01*
X560600Y752650D02*
X561600Y752650D01*
X561600Y753600D02*
X560600Y753600D01*
X560600Y754550D02*
X561600Y754550D01*
X561600Y755500D02*
X560600Y755500D01*
X560600Y756450D02*
X561600Y756450D01*
X565600Y761600D02*
X573350Y761600D01*
X573350Y760600D01*
X565600Y760600D01*
X565600Y761600D01*
X565600Y761550D02*
X573350Y761550D01*
X573350Y765600D02*
X565600Y765600D01*
X573350Y765600D02*
X573350Y764600D01*
X565600Y764600D01*
X565600Y765600D01*
X565600Y765550D02*
X573350Y765550D01*
X573350Y769600D02*
X565600Y769600D01*
X573350Y769600D02*
X573350Y768600D01*
X565600Y768600D01*
X565600Y769600D01*
X565600Y769550D02*
X573350Y769550D01*
X573350Y773600D02*
X565600Y773600D01*
X573350Y773600D02*
X573350Y772600D01*
X565600Y772600D01*
X565600Y773600D01*
X565600Y773550D02*
X573350Y773550D01*
X573350Y777600D02*
X565600Y777600D01*
X573350Y777600D02*
X573350Y776600D01*
X565600Y776600D01*
X565600Y777600D01*
X565600Y777550D02*
X573350Y777550D01*
X573350Y781600D02*
X565600Y781600D01*
X573350Y781600D02*
X573350Y780600D01*
X565600Y780600D01*
X565600Y781600D01*
X565600Y781550D02*
X573350Y781550D01*
X573350Y785600D02*
X565600Y785600D01*
X573350Y785600D02*
X573350Y784600D01*
X565600Y784600D01*
X565600Y785600D01*
X565600Y785550D02*
X573350Y785550D01*
X573350Y789600D02*
X565600Y789600D01*
X573350Y789600D02*
X573350Y788600D01*
X565600Y788600D01*
X565600Y789600D01*
X565600Y789550D02*
X573350Y789550D01*
X573350Y793600D02*
X565600Y793600D01*
X573350Y793600D02*
X573350Y792600D01*
X565600Y792600D01*
X565600Y793600D01*
X565600Y793550D02*
X573350Y793550D01*
X573350Y797600D02*
X565600Y797600D01*
X573350Y797600D02*
X573350Y796600D01*
X565600Y796600D01*
X565600Y797600D01*
X565600Y797550D02*
X573350Y797550D01*
X573350Y801600D02*
X565600Y801600D01*
X573350Y801600D02*
X573350Y800600D01*
X565600Y800600D01*
X565600Y801600D01*
X565600Y801550D02*
X573350Y801550D01*
X573350Y805600D02*
X565600Y805600D01*
X573350Y805600D02*
X573350Y804600D01*
X565600Y804600D01*
X565600Y805600D01*
X565600Y805550D02*
X573350Y805550D01*
X573350Y809600D02*
X565600Y809600D01*
X573350Y809600D02*
X573350Y808600D01*
X565600Y808600D01*
X565600Y809600D01*
X565600Y809550D02*
X573350Y809550D01*
X573350Y813600D02*
X565600Y813600D01*
X573350Y813600D02*
X573350Y812600D01*
X565600Y812600D01*
X565600Y813600D01*
X565600Y813550D02*
X573350Y813550D01*
X560600Y817600D02*
X560600Y825350D01*
X561600Y825350D01*
X561600Y817600D01*
X560600Y817600D01*
X560600Y818550D02*
X561600Y818550D01*
X561600Y819500D02*
X560600Y819500D01*
X560600Y820450D02*
X561600Y820450D01*
X561600Y821400D02*
X560600Y821400D01*
X560600Y822350D02*
X561600Y822350D01*
X561600Y823300D02*
X560600Y823300D01*
X560600Y824250D02*
X561600Y824250D01*
X561600Y825200D02*
X560600Y825200D01*
X556600Y825350D02*
X556600Y817600D01*
X556600Y825350D02*
X557600Y825350D01*
X557600Y817600D01*
X556600Y817600D01*
X556600Y818550D02*
X557600Y818550D01*
X557600Y819500D02*
X556600Y819500D01*
X556600Y820450D02*
X557600Y820450D01*
X557600Y821400D02*
X556600Y821400D01*
X556600Y822350D02*
X557600Y822350D01*
X557600Y823300D02*
X556600Y823300D01*
X556600Y824250D02*
X557600Y824250D01*
X557600Y825200D02*
X556600Y825200D01*
X552600Y825350D02*
X552600Y817600D01*
X552600Y825350D02*
X553600Y825350D01*
X553600Y817600D01*
X552600Y817600D01*
X552600Y818550D02*
X553600Y818550D01*
X553600Y819500D02*
X552600Y819500D01*
X552600Y820450D02*
X553600Y820450D01*
X553600Y821400D02*
X552600Y821400D01*
X552600Y822350D02*
X553600Y822350D01*
X553600Y823300D02*
X552600Y823300D01*
X552600Y824250D02*
X553600Y824250D01*
X553600Y825200D02*
X552600Y825200D01*
X548600Y825350D02*
X548600Y817600D01*
X548600Y825350D02*
X549600Y825350D01*
X549600Y817600D01*
X548600Y817600D01*
X548600Y818550D02*
X549600Y818550D01*
X549600Y819500D02*
X548600Y819500D01*
X548600Y820450D02*
X549600Y820450D01*
X549600Y821400D02*
X548600Y821400D01*
X548600Y822350D02*
X549600Y822350D01*
X549600Y823300D02*
X548600Y823300D01*
X548600Y824250D02*
X549600Y824250D01*
X549600Y825200D02*
X548600Y825200D01*
X544600Y825350D02*
X544600Y817600D01*
X544600Y825350D02*
X545600Y825350D01*
X545600Y817600D01*
X544600Y817600D01*
X544600Y818550D02*
X545600Y818550D01*
X545600Y819500D02*
X544600Y819500D01*
X544600Y820450D02*
X545600Y820450D01*
X545600Y821400D02*
X544600Y821400D01*
X544600Y822350D02*
X545600Y822350D01*
X545600Y823300D02*
X544600Y823300D01*
X544600Y824250D02*
X545600Y824250D01*
X545600Y825200D02*
X544600Y825200D01*
X540600Y825350D02*
X540600Y817600D01*
X540600Y825350D02*
X541600Y825350D01*
X541600Y817600D01*
X540600Y817600D01*
X540600Y818550D02*
X541600Y818550D01*
X541600Y819500D02*
X540600Y819500D01*
X540600Y820450D02*
X541600Y820450D01*
X541600Y821400D02*
X540600Y821400D01*
X540600Y822350D02*
X541600Y822350D01*
X541600Y823300D02*
X540600Y823300D01*
X540600Y824250D02*
X541600Y824250D01*
X541600Y825200D02*
X540600Y825200D01*
X536600Y825350D02*
X536600Y817600D01*
X536600Y825350D02*
X537600Y825350D01*
X537600Y817600D01*
X536600Y817600D01*
X536600Y818550D02*
X537600Y818550D01*
X537600Y819500D02*
X536600Y819500D01*
X536600Y820450D02*
X537600Y820450D01*
X537600Y821400D02*
X536600Y821400D01*
X536600Y822350D02*
X537600Y822350D01*
X537600Y823300D02*
X536600Y823300D01*
X536600Y824250D02*
X537600Y824250D01*
X537600Y825200D02*
X536600Y825200D01*
X532600Y825350D02*
X532600Y817600D01*
X532600Y825350D02*
X533600Y825350D01*
X533600Y817600D01*
X532600Y817600D01*
X532600Y818550D02*
X533600Y818550D01*
X533600Y819500D02*
X532600Y819500D01*
X532600Y820450D02*
X533600Y820450D01*
X533600Y821400D02*
X532600Y821400D01*
X532600Y822350D02*
X533600Y822350D01*
X533600Y823300D02*
X532600Y823300D01*
X532600Y824250D02*
X533600Y824250D01*
X533600Y825200D02*
X532600Y825200D01*
X528600Y825350D02*
X528600Y817600D01*
X528600Y825350D02*
X529600Y825350D01*
X529600Y817600D01*
X528600Y817600D01*
X528600Y818550D02*
X529600Y818550D01*
X529600Y819500D02*
X528600Y819500D01*
X528600Y820450D02*
X529600Y820450D01*
X529600Y821400D02*
X528600Y821400D01*
X528600Y822350D02*
X529600Y822350D01*
X529600Y823300D02*
X528600Y823300D01*
X528600Y824250D02*
X529600Y824250D01*
X529600Y825200D02*
X528600Y825200D01*
X524600Y825350D02*
X524600Y817600D01*
X524600Y825350D02*
X525600Y825350D01*
X525600Y817600D01*
X524600Y817600D01*
X524600Y818550D02*
X525600Y818550D01*
X525600Y819500D02*
X524600Y819500D01*
X524600Y820450D02*
X525600Y820450D01*
X525600Y821400D02*
X524600Y821400D01*
X524600Y822350D02*
X525600Y822350D01*
X525600Y823300D02*
X524600Y823300D01*
X524600Y824250D02*
X525600Y824250D01*
X525600Y825200D02*
X524600Y825200D01*
X520600Y825350D02*
X520600Y817600D01*
X520600Y825350D02*
X521600Y825350D01*
X521600Y817600D01*
X520600Y817600D01*
X520600Y818550D02*
X521600Y818550D01*
X521600Y819500D02*
X520600Y819500D01*
X520600Y820450D02*
X521600Y820450D01*
X521600Y821400D02*
X520600Y821400D01*
X520600Y822350D02*
X521600Y822350D01*
X521600Y823300D02*
X520600Y823300D01*
X520600Y824250D02*
X521600Y824250D01*
X521600Y825200D02*
X520600Y825200D01*
X516600Y825350D02*
X516600Y817600D01*
X516600Y825350D02*
X517600Y825350D01*
X517600Y817600D01*
X516600Y817600D01*
X516600Y818550D02*
X517600Y818550D01*
X517600Y819500D02*
X516600Y819500D01*
X516600Y820450D02*
X517600Y820450D01*
X517600Y821400D02*
X516600Y821400D01*
X516600Y822350D02*
X517600Y822350D01*
X517600Y823300D02*
X516600Y823300D01*
X516600Y824250D02*
X517600Y824250D01*
X517600Y825200D02*
X516600Y825200D01*
X512600Y825350D02*
X512600Y817600D01*
X512600Y825350D02*
X513600Y825350D01*
X513600Y817600D01*
X512600Y817600D01*
X512600Y818550D02*
X513600Y818550D01*
X513600Y819500D02*
X512600Y819500D01*
X512600Y820450D02*
X513600Y820450D01*
X513600Y821400D02*
X512600Y821400D01*
X512600Y822350D02*
X513600Y822350D01*
X513600Y823300D02*
X512600Y823300D01*
X512600Y824250D02*
X513600Y824250D01*
X513600Y825200D02*
X512600Y825200D01*
X508600Y825350D02*
X508600Y817600D01*
X508600Y825350D02*
X509600Y825350D01*
X509600Y817600D01*
X508600Y817600D01*
X508600Y818550D02*
X509600Y818550D01*
X509600Y819500D02*
X508600Y819500D01*
X508600Y820450D02*
X509600Y820450D01*
X509600Y821400D02*
X508600Y821400D01*
X508600Y822350D02*
X509600Y822350D01*
X509600Y823300D02*
X508600Y823300D01*
X508600Y824250D02*
X509600Y824250D01*
X509600Y825200D02*
X508600Y825200D01*
D36*
X747175Y762100D03*
X735425Y764975D03*
X735425Y759225D03*
D37*
X741300Y758225D03*
X741300Y765975D03*
D38*
X637086Y937614D03*
D39*
X617600Y967400D03*
X624100Y967400D03*
X630600Y967400D03*
X637100Y967400D03*
X643600Y967400D03*
X650100Y967400D03*
X656600Y967400D03*
D40*
X666900Y957100D03*
X666900Y950600D03*
X666900Y944100D03*
X666900Y937600D03*
X666900Y931100D03*
X666900Y924600D03*
X666900Y918100D03*
D39*
X656600Y907800D03*
X650100Y907800D03*
X643600Y907800D03*
X637100Y907800D03*
X630600Y907800D03*
X624100Y907800D03*
X617600Y907800D03*
D40*
X607300Y918100D03*
X607300Y924600D03*
X607300Y931100D03*
X607300Y937600D03*
X607300Y944100D03*
X607300Y950600D03*
X607300Y957100D03*
D41*
X768900Y733600D03*
X768900Y724100D03*
X768900Y714600D03*
X794900Y714600D03*
X794900Y733600D03*
D42*
X826100Y974100D03*
X816600Y974100D03*
X807100Y974100D03*
X807100Y948100D03*
X826100Y948100D03*
D43*
X457000Y719125D03*
D44*
X456375Y711000D03*
X456375Y706000D03*
X456375Y701000D03*
X456375Y696000D03*
D43*
X457000Y687875D03*
X462000Y687875D03*
X467000Y687875D03*
X472000Y687875D03*
X477000Y687875D03*
X482000Y687875D03*
X487000Y687875D03*
X492000Y687875D03*
X497000Y687875D03*
X502000Y687875D03*
D44*
X502625Y696000D03*
X502625Y701000D03*
X502625Y706000D03*
X502625Y711000D03*
D43*
X502000Y719125D03*
X497000Y719125D03*
X492000Y719125D03*
X487000Y719125D03*
X482000Y719125D03*
X477000Y719125D03*
X472000Y719125D03*
X467000Y719125D03*
X462000Y719125D03*
D45*
X208756Y838240D03*
X227044Y838240D03*
X217900Y858560D03*
X208756Y781240D03*
X227044Y781240D03*
X217900Y801560D03*
X291756Y900240D03*
X310044Y900240D03*
X300900Y920560D03*
D46*
X369150Y652600D02*
X369150Y638600D01*
X367050Y638600D01*
X367050Y652600D01*
X369150Y652600D01*
X369150Y639265D02*
X367050Y639265D01*
X367050Y639930D02*
X369150Y639930D01*
X369150Y640595D02*
X367050Y640595D01*
X367050Y641260D02*
X369150Y641260D01*
X369150Y641925D02*
X367050Y641925D01*
X367050Y642590D02*
X369150Y642590D01*
X369150Y643255D02*
X367050Y643255D01*
X367050Y643920D02*
X369150Y643920D01*
X369150Y644585D02*
X367050Y644585D01*
X367050Y645250D02*
X369150Y645250D01*
X369150Y645915D02*
X367050Y645915D01*
X367050Y646580D02*
X369150Y646580D01*
X369150Y647245D02*
X367050Y647245D01*
X367050Y647910D02*
X369150Y647910D01*
X369150Y648575D02*
X367050Y648575D01*
X367050Y649240D02*
X369150Y649240D01*
X369150Y649905D02*
X367050Y649905D01*
X367050Y650570D02*
X369150Y650570D01*
X369150Y651235D02*
X367050Y651235D01*
X367050Y651900D02*
X369150Y651900D01*
X369150Y652565D02*
X367050Y652565D01*
X374150Y652600D02*
X374150Y638600D01*
X372050Y638600D01*
X372050Y652600D01*
X374150Y652600D01*
X374150Y639265D02*
X372050Y639265D01*
X372050Y639930D02*
X374150Y639930D01*
X374150Y640595D02*
X372050Y640595D01*
X372050Y641260D02*
X374150Y641260D01*
X374150Y641925D02*
X372050Y641925D01*
X372050Y642590D02*
X374150Y642590D01*
X374150Y643255D02*
X372050Y643255D01*
X372050Y643920D02*
X374150Y643920D01*
X374150Y644585D02*
X372050Y644585D01*
X372050Y645250D02*
X374150Y645250D01*
X374150Y645915D02*
X372050Y645915D01*
X372050Y646580D02*
X374150Y646580D01*
X374150Y647245D02*
X372050Y647245D01*
X372050Y647910D02*
X374150Y647910D01*
X374150Y648575D02*
X372050Y648575D01*
X372050Y649240D02*
X374150Y649240D01*
X374150Y649905D02*
X372050Y649905D01*
X372050Y650570D02*
X374150Y650570D01*
X374150Y651235D02*
X372050Y651235D01*
X372050Y651900D02*
X374150Y651900D01*
X374150Y652565D02*
X372050Y652565D01*
X379150Y652600D02*
X379150Y638600D01*
X377050Y638600D01*
X377050Y652600D01*
X379150Y652600D01*
X379150Y639265D02*
X377050Y639265D01*
X377050Y639930D02*
X379150Y639930D01*
X379150Y640595D02*
X377050Y640595D01*
X377050Y641260D02*
X379150Y641260D01*
X379150Y641925D02*
X377050Y641925D01*
X377050Y642590D02*
X379150Y642590D01*
X379150Y643255D02*
X377050Y643255D01*
X377050Y643920D02*
X379150Y643920D01*
X379150Y644585D02*
X377050Y644585D01*
X377050Y645250D02*
X379150Y645250D01*
X379150Y645915D02*
X377050Y645915D01*
X377050Y646580D02*
X379150Y646580D01*
X379150Y647245D02*
X377050Y647245D01*
X377050Y647910D02*
X379150Y647910D01*
X379150Y648575D02*
X377050Y648575D01*
X377050Y649240D02*
X379150Y649240D01*
X379150Y649905D02*
X377050Y649905D01*
X377050Y650570D02*
X379150Y650570D01*
X379150Y651235D02*
X377050Y651235D01*
X377050Y651900D02*
X379150Y651900D01*
X379150Y652565D02*
X377050Y652565D01*
X384150Y652600D02*
X384150Y638600D01*
X382050Y638600D01*
X382050Y652600D01*
X384150Y652600D01*
X384150Y639265D02*
X382050Y639265D01*
X382050Y639930D02*
X384150Y639930D01*
X384150Y640595D02*
X382050Y640595D01*
X382050Y641260D02*
X384150Y641260D01*
X384150Y641925D02*
X382050Y641925D01*
X382050Y642590D02*
X384150Y642590D01*
X384150Y643255D02*
X382050Y643255D01*
X382050Y643920D02*
X384150Y643920D01*
X384150Y644585D02*
X382050Y644585D01*
X382050Y645250D02*
X384150Y645250D01*
X384150Y645915D02*
X382050Y645915D01*
X382050Y646580D02*
X384150Y646580D01*
X384150Y647245D02*
X382050Y647245D01*
X382050Y647910D02*
X384150Y647910D01*
X384150Y648575D02*
X382050Y648575D01*
X382050Y649240D02*
X384150Y649240D01*
X384150Y649905D02*
X382050Y649905D01*
X382050Y650570D02*
X384150Y650570D01*
X384150Y651235D02*
X382050Y651235D01*
X382050Y651900D02*
X384150Y651900D01*
X384150Y652565D02*
X382050Y652565D01*
X389150Y652600D02*
X389150Y638600D01*
X387050Y638600D01*
X387050Y652600D01*
X389150Y652600D01*
X389150Y639265D02*
X387050Y639265D01*
X387050Y639930D02*
X389150Y639930D01*
X389150Y640595D02*
X387050Y640595D01*
X387050Y641260D02*
X389150Y641260D01*
X389150Y641925D02*
X387050Y641925D01*
X387050Y642590D02*
X389150Y642590D01*
X389150Y643255D02*
X387050Y643255D01*
X387050Y643920D02*
X389150Y643920D01*
X389150Y644585D02*
X387050Y644585D01*
X387050Y645250D02*
X389150Y645250D01*
X389150Y645915D02*
X387050Y645915D01*
X387050Y646580D02*
X389150Y646580D01*
X389150Y647245D02*
X387050Y647245D01*
X387050Y647910D02*
X389150Y647910D01*
X389150Y648575D02*
X387050Y648575D01*
X387050Y649240D02*
X389150Y649240D01*
X389150Y649905D02*
X387050Y649905D01*
X387050Y650570D02*
X389150Y650570D01*
X389150Y651235D02*
X387050Y651235D01*
X387050Y651900D02*
X389150Y651900D01*
X389150Y652565D02*
X387050Y652565D01*
X389150Y681600D02*
X389150Y695600D01*
X389150Y681600D02*
X387050Y681600D01*
X387050Y695600D01*
X389150Y695600D01*
X389150Y682265D02*
X387050Y682265D01*
X387050Y682930D02*
X389150Y682930D01*
X389150Y683595D02*
X387050Y683595D01*
X387050Y684260D02*
X389150Y684260D01*
X389150Y684925D02*
X387050Y684925D01*
X387050Y685590D02*
X389150Y685590D01*
X389150Y686255D02*
X387050Y686255D01*
X387050Y686920D02*
X389150Y686920D01*
X389150Y687585D02*
X387050Y687585D01*
X387050Y688250D02*
X389150Y688250D01*
X389150Y688915D02*
X387050Y688915D01*
X387050Y689580D02*
X389150Y689580D01*
X389150Y690245D02*
X387050Y690245D01*
X387050Y690910D02*
X389150Y690910D01*
X389150Y691575D02*
X387050Y691575D01*
X387050Y692240D02*
X389150Y692240D01*
X389150Y692905D02*
X387050Y692905D01*
X387050Y693570D02*
X389150Y693570D01*
X389150Y694235D02*
X387050Y694235D01*
X387050Y694900D02*
X389150Y694900D01*
X389150Y695565D02*
X387050Y695565D01*
X384150Y695600D02*
X384150Y681600D01*
X382050Y681600D01*
X382050Y695600D01*
X384150Y695600D01*
X384150Y682265D02*
X382050Y682265D01*
X382050Y682930D02*
X384150Y682930D01*
X384150Y683595D02*
X382050Y683595D01*
X382050Y684260D02*
X384150Y684260D01*
X384150Y684925D02*
X382050Y684925D01*
X382050Y685590D02*
X384150Y685590D01*
X384150Y686255D02*
X382050Y686255D01*
X382050Y686920D02*
X384150Y686920D01*
X384150Y687585D02*
X382050Y687585D01*
X382050Y688250D02*
X384150Y688250D01*
X384150Y688915D02*
X382050Y688915D01*
X382050Y689580D02*
X384150Y689580D01*
X384150Y690245D02*
X382050Y690245D01*
X382050Y690910D02*
X384150Y690910D01*
X384150Y691575D02*
X382050Y691575D01*
X382050Y692240D02*
X384150Y692240D01*
X384150Y692905D02*
X382050Y692905D01*
X382050Y693570D02*
X384150Y693570D01*
X384150Y694235D02*
X382050Y694235D01*
X382050Y694900D02*
X384150Y694900D01*
X384150Y695565D02*
X382050Y695565D01*
X379150Y695600D02*
X379150Y681600D01*
X377050Y681600D01*
X377050Y695600D01*
X379150Y695600D01*
X379150Y682265D02*
X377050Y682265D01*
X377050Y682930D02*
X379150Y682930D01*
X379150Y683595D02*
X377050Y683595D01*
X377050Y684260D02*
X379150Y684260D01*
X379150Y684925D02*
X377050Y684925D01*
X377050Y685590D02*
X379150Y685590D01*
X379150Y686255D02*
X377050Y686255D01*
X377050Y686920D02*
X379150Y686920D01*
X379150Y687585D02*
X377050Y687585D01*
X377050Y688250D02*
X379150Y688250D01*
X379150Y688915D02*
X377050Y688915D01*
X377050Y689580D02*
X379150Y689580D01*
X379150Y690245D02*
X377050Y690245D01*
X377050Y690910D02*
X379150Y690910D01*
X379150Y691575D02*
X377050Y691575D01*
X377050Y692240D02*
X379150Y692240D01*
X379150Y692905D02*
X377050Y692905D01*
X377050Y693570D02*
X379150Y693570D01*
X379150Y694235D02*
X377050Y694235D01*
X377050Y694900D02*
X379150Y694900D01*
X379150Y695565D02*
X377050Y695565D01*
X374150Y695600D02*
X374150Y681600D01*
X372050Y681600D01*
X372050Y695600D01*
X374150Y695600D01*
X374150Y682265D02*
X372050Y682265D01*
X372050Y682930D02*
X374150Y682930D01*
X374150Y683595D02*
X372050Y683595D01*
X372050Y684260D02*
X374150Y684260D01*
X374150Y684925D02*
X372050Y684925D01*
X372050Y685590D02*
X374150Y685590D01*
X374150Y686255D02*
X372050Y686255D01*
X372050Y686920D02*
X374150Y686920D01*
X374150Y687585D02*
X372050Y687585D01*
X372050Y688250D02*
X374150Y688250D01*
X374150Y688915D02*
X372050Y688915D01*
X372050Y689580D02*
X374150Y689580D01*
X374150Y690245D02*
X372050Y690245D01*
X372050Y690910D02*
X374150Y690910D01*
X374150Y691575D02*
X372050Y691575D01*
X372050Y692240D02*
X374150Y692240D01*
X374150Y692905D02*
X372050Y692905D01*
X372050Y693570D02*
X374150Y693570D01*
X374150Y694235D02*
X372050Y694235D01*
X372050Y694900D02*
X374150Y694900D01*
X374150Y695565D02*
X372050Y695565D01*
X369150Y695600D02*
X369150Y681600D01*
X367050Y681600D01*
X367050Y695600D01*
X369150Y695600D01*
X369150Y682265D02*
X367050Y682265D01*
X367050Y682930D02*
X369150Y682930D01*
X369150Y683595D02*
X367050Y683595D01*
X367050Y684260D02*
X369150Y684260D01*
X369150Y684925D02*
X367050Y684925D01*
X367050Y685590D02*
X369150Y685590D01*
X369150Y686255D02*
X367050Y686255D01*
X367050Y686920D02*
X369150Y686920D01*
X369150Y687585D02*
X367050Y687585D01*
X367050Y688250D02*
X369150Y688250D01*
X369150Y688915D02*
X367050Y688915D01*
X367050Y689580D02*
X369150Y689580D01*
X369150Y690245D02*
X367050Y690245D01*
X367050Y690910D02*
X369150Y690910D01*
X369150Y691575D02*
X367050Y691575D01*
X367050Y692240D02*
X369150Y692240D01*
X369150Y692905D02*
X367050Y692905D01*
X367050Y693570D02*
X369150Y693570D01*
X369150Y694235D02*
X367050Y694235D01*
X367050Y694900D02*
X369150Y694900D01*
X369150Y695565D02*
X367050Y695565D01*
D45*
X254756Y852240D03*
X273044Y852240D03*
X263900Y872560D03*
D46*
X327150Y652600D02*
X327150Y638600D01*
X325050Y638600D01*
X325050Y652600D01*
X327150Y652600D01*
X327150Y639265D02*
X325050Y639265D01*
X325050Y639930D02*
X327150Y639930D01*
X327150Y640595D02*
X325050Y640595D01*
X325050Y641260D02*
X327150Y641260D01*
X327150Y641925D02*
X325050Y641925D01*
X325050Y642590D02*
X327150Y642590D01*
X327150Y643255D02*
X325050Y643255D01*
X325050Y643920D02*
X327150Y643920D01*
X327150Y644585D02*
X325050Y644585D01*
X325050Y645250D02*
X327150Y645250D01*
X327150Y645915D02*
X325050Y645915D01*
X325050Y646580D02*
X327150Y646580D01*
X327150Y647245D02*
X325050Y647245D01*
X325050Y647910D02*
X327150Y647910D01*
X327150Y648575D02*
X325050Y648575D01*
X325050Y649240D02*
X327150Y649240D01*
X327150Y649905D02*
X325050Y649905D01*
X325050Y650570D02*
X327150Y650570D01*
X327150Y651235D02*
X325050Y651235D01*
X325050Y651900D02*
X327150Y651900D01*
X327150Y652565D02*
X325050Y652565D01*
X332150Y652600D02*
X332150Y638600D01*
X330050Y638600D01*
X330050Y652600D01*
X332150Y652600D01*
X332150Y639265D02*
X330050Y639265D01*
X330050Y639930D02*
X332150Y639930D01*
X332150Y640595D02*
X330050Y640595D01*
X330050Y641260D02*
X332150Y641260D01*
X332150Y641925D02*
X330050Y641925D01*
X330050Y642590D02*
X332150Y642590D01*
X332150Y643255D02*
X330050Y643255D01*
X330050Y643920D02*
X332150Y643920D01*
X332150Y644585D02*
X330050Y644585D01*
X330050Y645250D02*
X332150Y645250D01*
X332150Y645915D02*
X330050Y645915D01*
X330050Y646580D02*
X332150Y646580D01*
X332150Y647245D02*
X330050Y647245D01*
X330050Y647910D02*
X332150Y647910D01*
X332150Y648575D02*
X330050Y648575D01*
X330050Y649240D02*
X332150Y649240D01*
X332150Y649905D02*
X330050Y649905D01*
X330050Y650570D02*
X332150Y650570D01*
X332150Y651235D02*
X330050Y651235D01*
X330050Y651900D02*
X332150Y651900D01*
X332150Y652565D02*
X330050Y652565D01*
X337150Y652600D02*
X337150Y638600D01*
X335050Y638600D01*
X335050Y652600D01*
X337150Y652600D01*
X337150Y639265D02*
X335050Y639265D01*
X335050Y639930D02*
X337150Y639930D01*
X337150Y640595D02*
X335050Y640595D01*
X335050Y641260D02*
X337150Y641260D01*
X337150Y641925D02*
X335050Y641925D01*
X335050Y642590D02*
X337150Y642590D01*
X337150Y643255D02*
X335050Y643255D01*
X335050Y643920D02*
X337150Y643920D01*
X337150Y644585D02*
X335050Y644585D01*
X335050Y645250D02*
X337150Y645250D01*
X337150Y645915D02*
X335050Y645915D01*
X335050Y646580D02*
X337150Y646580D01*
X337150Y647245D02*
X335050Y647245D01*
X335050Y647910D02*
X337150Y647910D01*
X337150Y648575D02*
X335050Y648575D01*
X335050Y649240D02*
X337150Y649240D01*
X337150Y649905D02*
X335050Y649905D01*
X335050Y650570D02*
X337150Y650570D01*
X337150Y651235D02*
X335050Y651235D01*
X335050Y651900D02*
X337150Y651900D01*
X337150Y652565D02*
X335050Y652565D01*
X342150Y652600D02*
X342150Y638600D01*
X340050Y638600D01*
X340050Y652600D01*
X342150Y652600D01*
X342150Y639265D02*
X340050Y639265D01*
X340050Y639930D02*
X342150Y639930D01*
X342150Y640595D02*
X340050Y640595D01*
X340050Y641260D02*
X342150Y641260D01*
X342150Y641925D02*
X340050Y641925D01*
X340050Y642590D02*
X342150Y642590D01*
X342150Y643255D02*
X340050Y643255D01*
X340050Y643920D02*
X342150Y643920D01*
X342150Y644585D02*
X340050Y644585D01*
X340050Y645250D02*
X342150Y645250D01*
X342150Y645915D02*
X340050Y645915D01*
X340050Y646580D02*
X342150Y646580D01*
X342150Y647245D02*
X340050Y647245D01*
X340050Y647910D02*
X342150Y647910D01*
X342150Y648575D02*
X340050Y648575D01*
X340050Y649240D02*
X342150Y649240D01*
X342150Y649905D02*
X340050Y649905D01*
X340050Y650570D02*
X342150Y650570D01*
X342150Y651235D02*
X340050Y651235D01*
X340050Y651900D02*
X342150Y651900D01*
X342150Y652565D02*
X340050Y652565D01*
X347150Y652600D02*
X347150Y638600D01*
X345050Y638600D01*
X345050Y652600D01*
X347150Y652600D01*
X347150Y639265D02*
X345050Y639265D01*
X345050Y639930D02*
X347150Y639930D01*
X347150Y640595D02*
X345050Y640595D01*
X345050Y641260D02*
X347150Y641260D01*
X347150Y641925D02*
X345050Y641925D01*
X345050Y642590D02*
X347150Y642590D01*
X347150Y643255D02*
X345050Y643255D01*
X345050Y643920D02*
X347150Y643920D01*
X347150Y644585D02*
X345050Y644585D01*
X345050Y645250D02*
X347150Y645250D01*
X347150Y645915D02*
X345050Y645915D01*
X345050Y646580D02*
X347150Y646580D01*
X347150Y647245D02*
X345050Y647245D01*
X345050Y647910D02*
X347150Y647910D01*
X347150Y648575D02*
X345050Y648575D01*
X345050Y649240D02*
X347150Y649240D01*
X347150Y649905D02*
X345050Y649905D01*
X345050Y650570D02*
X347150Y650570D01*
X347150Y651235D02*
X345050Y651235D01*
X345050Y651900D02*
X347150Y651900D01*
X347150Y652565D02*
X345050Y652565D01*
X347150Y681600D02*
X347150Y695600D01*
X347150Y681600D02*
X345050Y681600D01*
X345050Y695600D01*
X347150Y695600D01*
X347150Y682265D02*
X345050Y682265D01*
X345050Y682930D02*
X347150Y682930D01*
X347150Y683595D02*
X345050Y683595D01*
X345050Y684260D02*
X347150Y684260D01*
X347150Y684925D02*
X345050Y684925D01*
X345050Y685590D02*
X347150Y685590D01*
X347150Y686255D02*
X345050Y686255D01*
X345050Y686920D02*
X347150Y686920D01*
X347150Y687585D02*
X345050Y687585D01*
X345050Y688250D02*
X347150Y688250D01*
X347150Y688915D02*
X345050Y688915D01*
X345050Y689580D02*
X347150Y689580D01*
X347150Y690245D02*
X345050Y690245D01*
X345050Y690910D02*
X347150Y690910D01*
X347150Y691575D02*
X345050Y691575D01*
X345050Y692240D02*
X347150Y692240D01*
X347150Y692905D02*
X345050Y692905D01*
X345050Y693570D02*
X347150Y693570D01*
X347150Y694235D02*
X345050Y694235D01*
X345050Y694900D02*
X347150Y694900D01*
X347150Y695565D02*
X345050Y695565D01*
X342150Y695600D02*
X342150Y681600D01*
X340050Y681600D01*
X340050Y695600D01*
X342150Y695600D01*
X342150Y682265D02*
X340050Y682265D01*
X340050Y682930D02*
X342150Y682930D01*
X342150Y683595D02*
X340050Y683595D01*
X340050Y684260D02*
X342150Y684260D01*
X342150Y684925D02*
X340050Y684925D01*
X340050Y685590D02*
X342150Y685590D01*
X342150Y686255D02*
X340050Y686255D01*
X340050Y686920D02*
X342150Y686920D01*
X342150Y687585D02*
X340050Y687585D01*
X340050Y688250D02*
X342150Y688250D01*
X342150Y688915D02*
X340050Y688915D01*
X340050Y689580D02*
X342150Y689580D01*
X342150Y690245D02*
X340050Y690245D01*
X340050Y690910D02*
X342150Y690910D01*
X342150Y691575D02*
X340050Y691575D01*
X340050Y692240D02*
X342150Y692240D01*
X342150Y692905D02*
X340050Y692905D01*
X340050Y693570D02*
X342150Y693570D01*
X342150Y694235D02*
X340050Y694235D01*
X340050Y694900D02*
X342150Y694900D01*
X342150Y695565D02*
X340050Y695565D01*
X337150Y695600D02*
X337150Y681600D01*
X335050Y681600D01*
X335050Y695600D01*
X337150Y695600D01*
X337150Y682265D02*
X335050Y682265D01*
X335050Y682930D02*
X337150Y682930D01*
X337150Y683595D02*
X335050Y683595D01*
X335050Y684260D02*
X337150Y684260D01*
X337150Y684925D02*
X335050Y684925D01*
X335050Y685590D02*
X337150Y685590D01*
X337150Y686255D02*
X335050Y686255D01*
X335050Y686920D02*
X337150Y686920D01*
X337150Y687585D02*
X335050Y687585D01*
X335050Y688250D02*
X337150Y688250D01*
X337150Y688915D02*
X335050Y688915D01*
X335050Y689580D02*
X337150Y689580D01*
X337150Y690245D02*
X335050Y690245D01*
X335050Y690910D02*
X337150Y690910D01*
X337150Y691575D02*
X335050Y691575D01*
X335050Y692240D02*
X337150Y692240D01*
X337150Y692905D02*
X335050Y692905D01*
X335050Y693570D02*
X337150Y693570D01*
X337150Y694235D02*
X335050Y694235D01*
X335050Y694900D02*
X337150Y694900D01*
X337150Y695565D02*
X335050Y695565D01*
X332150Y695600D02*
X332150Y681600D01*
X330050Y681600D01*
X330050Y695600D01*
X332150Y695600D01*
X332150Y682265D02*
X330050Y682265D01*
X330050Y682930D02*
X332150Y682930D01*
X332150Y683595D02*
X330050Y683595D01*
X330050Y684260D02*
X332150Y684260D01*
X332150Y684925D02*
X330050Y684925D01*
X330050Y685590D02*
X332150Y685590D01*
X332150Y686255D02*
X330050Y686255D01*
X330050Y686920D02*
X332150Y686920D01*
X332150Y687585D02*
X330050Y687585D01*
X330050Y688250D02*
X332150Y688250D01*
X332150Y688915D02*
X330050Y688915D01*
X330050Y689580D02*
X332150Y689580D01*
X332150Y690245D02*
X330050Y690245D01*
X330050Y690910D02*
X332150Y690910D01*
X332150Y691575D02*
X330050Y691575D01*
X330050Y692240D02*
X332150Y692240D01*
X332150Y692905D02*
X330050Y692905D01*
X330050Y693570D02*
X332150Y693570D01*
X332150Y694235D02*
X330050Y694235D01*
X330050Y694900D02*
X332150Y694900D01*
X332150Y695565D02*
X330050Y695565D01*
X327150Y695600D02*
X327150Y681600D01*
X325050Y681600D01*
X325050Y695600D01*
X327150Y695600D01*
X327150Y682265D02*
X325050Y682265D01*
X325050Y682930D02*
X327150Y682930D01*
X327150Y683595D02*
X325050Y683595D01*
X325050Y684260D02*
X327150Y684260D01*
X327150Y684925D02*
X325050Y684925D01*
X325050Y685590D02*
X327150Y685590D01*
X327150Y686255D02*
X325050Y686255D01*
X325050Y686920D02*
X327150Y686920D01*
X327150Y687585D02*
X325050Y687585D01*
X325050Y688250D02*
X327150Y688250D01*
X327150Y688915D02*
X325050Y688915D01*
X325050Y689580D02*
X327150Y689580D01*
X327150Y690245D02*
X325050Y690245D01*
X325050Y690910D02*
X327150Y690910D01*
X327150Y691575D02*
X325050Y691575D01*
X325050Y692240D02*
X327150Y692240D01*
X327150Y692905D02*
X325050Y692905D01*
X325050Y693570D02*
X327150Y693570D01*
X327150Y694235D02*
X325050Y694235D01*
X325050Y694900D02*
X327150Y694900D01*
X327150Y695565D02*
X325050Y695565D01*
D47*
X602150Y714900D03*
X602150Y735900D03*
X585650Y735900D03*
X585650Y714900D03*
D48*
X625400Y996850D03*
X646400Y996850D03*
X646400Y1013350D03*
X625400Y1013350D03*
D49*
X442600Y738900D03*
X467600Y738900D03*
D50*
X885000Y950000D03*
X885000Y923000D03*
X885000Y977000D03*
X885000Y808000D03*
X885000Y781000D03*
X885000Y835000D03*
D12*
X584750Y543000D03*
X569250Y543000D03*
X479250Y543000D03*
X494750Y543000D03*
X584750Y558000D03*
X569250Y558000D03*
X306250Y711000D03*
X321750Y711000D03*
X333250Y711000D03*
X348750Y711000D03*
X306250Y732000D03*
X321750Y732000D03*
X333250Y732000D03*
X348750Y732000D03*
X432750Y467000D03*
X417250Y467000D03*
X405750Y467000D03*
X390250Y467000D03*
X479750Y638000D03*
X464250Y638000D03*
D14*
X437000Y603750D03*
X437000Y588250D03*
X410000Y514250D03*
X410000Y529750D03*
X395000Y514250D03*
X395000Y529750D03*
X425000Y514250D03*
X425000Y529750D03*
D12*
X361250Y732000D03*
X376750Y732000D03*
X388250Y732000D03*
X403750Y732000D03*
X361250Y711000D03*
X376750Y711000D03*
X388250Y711000D03*
X403750Y711000D03*
D51*
X578000Y958550D03*
X570000Y958550D03*
D52*
X563500Y958550D03*
X558500Y958550D03*
X553500Y958550D03*
X548500Y958550D03*
X543500Y958550D03*
X538500Y958550D03*
X533500Y958550D03*
X528500Y958550D03*
D51*
X522000Y958550D03*
X514000Y958550D03*
M02*
