G04 EAGLE Gerber RS-274X export*
G75*
%MOMM*%
%FSLAX34Y34*%
%LPD*%
%INSoldermask Bottom*%
%IPPOS*%
%AMOC8*
5,1,8,0,0,1.08239X$1,22.5*%
G01*
%ADD10R,3.253200X2.233200*%
%ADD11R,8.583200X10.863200*%
%ADD12R,0.553200X0.503200*%
%ADD13R,0.503200X0.553200*%
%ADD14R,1.711200X1.711200*%
%ADD15C,1.711200*%
%ADD16R,0.750000X1.100000*%
%ADD17R,2.353200X2.003200*%
%ADD18R,1.100000X0.750000*%
%ADD19R,1.300000X1.500000*%
%ADD20R,1.900000X1.400000*%
%ADD21R,1.400000X1.900000*%
%ADD22R,2.003200X2.353200*%
%ADD23R,0.503200X1.053200*%
%ADD24R,1.053200X0.503200*%
%ADD25R,2.953200X2.108200*%
%ADD26C,0.911200*%
%ADD27R,1.923200X1.323200*%
%ADD28R,1.323200X1.923200*%
%ADD29R,1.453200X0.803200*%
%ADD30R,0.653200X1.603200*%
%ADD31C,1.778200*%
%ADD32R,1.778200X1.778200*%
%ADD33R,2.003200X2.003200*%
%ADD34C,2.003200*%
%ADD35R,6.203200X6.203200*%
%ADD36C,6.203200*%
%ADD37R,0.608200X1.193200*%
%ADD38R,0.608200X0.713200*%
%ADD39R,2.438200X1.928200*%
%ADD40R,0.403200X0.453200*%
%ADD41R,1.203200X1.473200*%
%ADD42R,1.473200X1.203200*%
%ADD43R,1.193200X0.608200*%
%ADD44R,0.713200X0.608200*%
%ADD45R,1.928200X2.438200*%
%ADD46R,0.453200X0.403200*%
%ADD47R,2.108200X2.953200*%
%ADD48C,3.759200*%
%ADD49R,1.403200X0.753200*%
%ADD50R,3.703200X1.703200*%
%ADD51C,6.045200*%
%ADD52C,1.311200*%
%ADD53C,0.853200*%
%ADD54C,0.809600*%
%ADD55C,1.359600*%


D10*
X505960Y493600D03*
X505960Y442800D03*
D11*
X419800Y468200D03*
D12*
X505420Y709000D03*
X505420Y704000D03*
X505420Y699000D03*
X505420Y694000D03*
D13*
X500300Y694000D03*
X495300Y694000D03*
D12*
X490180Y694000D03*
X490180Y699000D03*
X490180Y704000D03*
X490180Y709000D03*
D13*
X495300Y709000D03*
X500300Y709000D03*
D14*
X100400Y408300D03*
D15*
X125400Y408300D03*
X150400Y408300D03*
D16*
X373050Y946400D03*
X388550Y946400D03*
X588050Y809700D03*
X572550Y809700D03*
D17*
X474350Y567300D03*
X503850Y567300D03*
D18*
X511100Y602550D03*
X511100Y587050D03*
X420900Y821550D03*
X420900Y837050D03*
D16*
X405150Y807000D03*
X389650Y807000D03*
D18*
X385000Y739750D03*
X385000Y755250D03*
X461000Y736650D03*
X461000Y752150D03*
X437000Y733550D03*
X437000Y749050D03*
X479000Y749450D03*
X479000Y764950D03*
X483000Y803350D03*
X483000Y818850D03*
X583500Y672250D03*
X583500Y687750D03*
D16*
X503250Y839300D03*
X518750Y839300D03*
X595350Y712000D03*
X610850Y712000D03*
X503250Y826300D03*
X518750Y826300D03*
X588150Y779700D03*
X572650Y779700D03*
X496150Y788300D03*
X511650Y788300D03*
X496050Y773300D03*
X511550Y773300D03*
D18*
X529300Y762050D03*
X529300Y746550D03*
D16*
X480450Y735100D03*
X495950Y735100D03*
X516650Y731700D03*
X532150Y731700D03*
X615950Y734300D03*
X631450Y734300D03*
D18*
X669600Y1012550D03*
X669600Y997050D03*
X655200Y1012550D03*
X655200Y997050D03*
X640800Y1012550D03*
X640800Y997050D03*
X487400Y887550D03*
X487400Y872050D03*
D16*
X139850Y970800D03*
X124350Y970800D03*
X139750Y924800D03*
X124250Y924800D03*
X175850Y933800D03*
X160350Y933800D03*
X214050Y963200D03*
X229550Y963200D03*
D19*
X380700Y858300D03*
X406700Y858300D03*
D18*
X554400Y736950D03*
X554400Y752450D03*
D16*
X275650Y537100D03*
X291150Y537100D03*
X503250Y811300D03*
X518750Y811300D03*
D18*
X253900Y520750D03*
X253900Y536250D03*
X218100Y473150D03*
X218100Y457650D03*
D20*
X190700Y540400D03*
X190700Y503400D03*
D16*
X207050Y443100D03*
X222550Y443100D03*
X261150Y443100D03*
X276650Y443100D03*
D18*
X273900Y630350D03*
X273900Y645850D03*
X258900Y630450D03*
X258900Y645950D03*
X217100Y582050D03*
X217100Y566550D03*
D20*
X185600Y650400D03*
X185600Y613400D03*
D16*
X588050Y824700D03*
X572550Y824700D03*
X221750Y553100D03*
X237250Y553100D03*
X275850Y553100D03*
X291350Y553100D03*
D18*
X274900Y739450D03*
X274900Y754950D03*
X259900Y739350D03*
X259900Y754850D03*
X218100Y690750D03*
X218100Y675250D03*
D21*
X136600Y766100D03*
X173600Y766100D03*
D16*
X222450Y661100D03*
X237950Y661100D03*
X275550Y661100D03*
X291050Y661100D03*
X588150Y794700D03*
X572650Y794700D03*
D18*
X273900Y845750D03*
X273900Y861250D03*
X258900Y845650D03*
X258900Y861150D03*
X218100Y797450D03*
X218100Y781950D03*
D20*
X196600Y859300D03*
X196600Y822300D03*
D16*
X221350Y768100D03*
X236850Y768100D03*
X275250Y768100D03*
X290750Y768100D03*
D22*
X404600Y674850D03*
X404600Y704350D03*
D18*
X448100Y637650D03*
X448100Y622150D03*
D17*
X399550Y555300D03*
X429050Y555300D03*
D22*
X433300Y674850D03*
X433300Y704350D03*
D23*
X460600Y768700D03*
X455600Y768700D03*
X450600Y768700D03*
X445600Y768700D03*
X440600Y768700D03*
X435600Y768700D03*
X430600Y768700D03*
X425600Y768700D03*
D24*
X418600Y775700D03*
X418600Y780700D03*
X418600Y785700D03*
X418600Y790700D03*
X418600Y795700D03*
X418600Y800700D03*
D23*
X425600Y807700D03*
X430600Y807700D03*
X435600Y807700D03*
X440600Y807700D03*
X445600Y807700D03*
X450600Y807700D03*
X455600Y807700D03*
X460600Y807700D03*
D24*
X467600Y800700D03*
X467600Y795700D03*
X467600Y790700D03*
X467600Y785700D03*
X467600Y780700D03*
X467600Y775700D03*
D25*
X443100Y788200D03*
D26*
X453100Y782200D03*
X453100Y794200D03*
X443100Y782200D03*
X443100Y794200D03*
X433100Y782200D03*
X433100Y794200D03*
D27*
X97200Y928250D03*
X97200Y969750D03*
X460200Y679950D03*
X460200Y721450D03*
X280300Y924650D03*
X280300Y883150D03*
D28*
X249350Y963800D03*
X290850Y963800D03*
D27*
X376200Y681050D03*
X376200Y722550D03*
D14*
X100000Y460700D03*
D15*
X100000Y485700D03*
X100000Y510700D03*
D14*
X164000Y460700D03*
D15*
X164000Y485700D03*
X164000Y510700D03*
D14*
X100000Y570400D03*
D15*
X100000Y595400D03*
X100000Y620400D03*
D14*
X164000Y570400D03*
D15*
X164000Y595400D03*
X164000Y620400D03*
D29*
X156300Y950400D03*
X156300Y959900D03*
X156300Y969400D03*
X181300Y969400D03*
X181300Y959900D03*
X181300Y950400D03*
D30*
X401150Y623300D03*
X407650Y623300D03*
X414150Y623300D03*
X420650Y623300D03*
X420650Y579300D03*
X414150Y579300D03*
X407650Y579300D03*
X401150Y579300D03*
X475150Y635300D03*
X481650Y635300D03*
X488150Y635300D03*
X494650Y635300D03*
X494650Y591300D03*
X488150Y591300D03*
X481650Y591300D03*
X475150Y591300D03*
D31*
X765850Y654000D03*
D32*
X765850Y629000D03*
D31*
X701850Y654000D03*
D32*
X701850Y629000D03*
D33*
X221300Y990000D03*
D34*
X246700Y990000D03*
D33*
X283300Y990000D03*
D34*
X308700Y990000D03*
D33*
X97300Y990000D03*
D34*
X122700Y990000D03*
D33*
X159300Y990000D03*
D34*
X184700Y990000D03*
D35*
X635300Y438200D03*
D36*
X707300Y438200D03*
D16*
X233850Y443000D03*
X249350Y443000D03*
X248950Y553000D03*
X264450Y553000D03*
X249050Y661000D03*
X264550Y661000D03*
X248350Y768000D03*
X263850Y768000D03*
D18*
X483000Y776250D03*
X483000Y791750D03*
D16*
X631650Y749000D03*
X616150Y749000D03*
D18*
X200000Y960550D03*
X200000Y976050D03*
D14*
X150500Y898000D03*
D15*
X125500Y898000D03*
X100500Y898000D03*
D37*
X333520Y842550D03*
X326920Y842550D03*
X320320Y842550D03*
X313720Y842550D03*
D38*
X313720Y873650D03*
X320320Y873650D03*
X326920Y873650D03*
X333520Y873650D03*
D39*
X323620Y862480D03*
D40*
X312640Y869850D03*
X334560Y869850D03*
D41*
X448100Y586900D03*
X457600Y606900D03*
X438600Y606900D03*
X373400Y575100D03*
X382900Y595100D03*
X363900Y595100D03*
X452100Y839900D03*
X461600Y859900D03*
X442600Y859900D03*
D42*
X306900Y917600D03*
X326900Y908100D03*
X326900Y927100D03*
D43*
X585350Y460520D03*
X585350Y453920D03*
X585350Y447320D03*
X585350Y440720D03*
D44*
X554250Y440720D03*
X554250Y447320D03*
X554250Y453920D03*
X554250Y460520D03*
D45*
X565420Y450620D03*
D46*
X558050Y439640D03*
X558050Y461560D03*
D43*
X585250Y513520D03*
X585250Y506920D03*
X585250Y500320D03*
X585250Y493720D03*
D44*
X554150Y493720D03*
X554150Y500320D03*
X554150Y506920D03*
X554150Y513520D03*
D45*
X565320Y503620D03*
D46*
X557950Y492640D03*
X557950Y514560D03*
D16*
X140350Y955600D03*
X124850Y955600D03*
X456650Y899900D03*
X472150Y899900D03*
X139950Y941100D03*
X124450Y941100D03*
X611050Y697100D03*
X595550Y697100D03*
D18*
X410400Y917850D03*
X410400Y902350D03*
X238900Y536150D03*
X238900Y520650D03*
D16*
X291450Y522600D03*
X275950Y522600D03*
X223050Y522800D03*
X207550Y522800D03*
X207550Y537800D03*
X223050Y537800D03*
D18*
X243900Y645750D03*
X243900Y630250D03*
X289400Y629150D03*
X289400Y613650D03*
D16*
X222450Y631600D03*
X206950Y631600D03*
X206150Y645900D03*
X221650Y645900D03*
D18*
X244900Y754950D03*
X244900Y739450D03*
X289400Y735550D03*
X289400Y720050D03*
D16*
X222850Y738600D03*
X207350Y738600D03*
X207550Y752900D03*
X223050Y752900D03*
D18*
X243800Y861150D03*
X243800Y845650D03*
X289400Y843750D03*
X289400Y828250D03*
D16*
X228850Y845600D03*
X213350Y845600D03*
X213350Y860100D03*
X228850Y860100D03*
D18*
X538100Y946050D03*
X538100Y961550D03*
X375800Y666850D03*
X375800Y651350D03*
X417800Y653750D03*
X417800Y638250D03*
X432600Y639450D03*
X432600Y654950D03*
X459800Y666650D03*
X459800Y651150D03*
X492800Y667550D03*
X492800Y652050D03*
X507600Y651550D03*
X507600Y667050D03*
D16*
X388850Y769400D03*
X404350Y769400D03*
D18*
X405400Y837250D03*
X405400Y821750D03*
X417400Y749350D03*
X417400Y733850D03*
X399800Y755050D03*
X399800Y739550D03*
X555100Y946150D03*
X555100Y961650D03*
D16*
X460150Y874200D03*
X444650Y874200D03*
D26*
X370900Y906100D03*
X370900Y918100D03*
X380900Y906100D03*
X380900Y918100D03*
X390900Y906100D03*
X390900Y918100D03*
X627600Y574900D03*
X615600Y574900D03*
X627600Y584900D03*
X615600Y584900D03*
X627600Y594900D03*
X615600Y594900D03*
X547300Y627900D03*
X535300Y627900D03*
X547300Y637900D03*
X535300Y637900D03*
X547300Y647900D03*
X535300Y647900D03*
D24*
X235500Y465400D03*
X235500Y470400D03*
X235500Y475400D03*
X235500Y480400D03*
X235500Y485400D03*
X235500Y490400D03*
X235500Y495400D03*
X235500Y500400D03*
D23*
X242500Y507400D03*
X247500Y507400D03*
X252500Y507400D03*
X257500Y507400D03*
X262500Y507400D03*
X267500Y507400D03*
D24*
X274500Y500400D03*
X274500Y495400D03*
X274500Y490400D03*
X274500Y485400D03*
X274500Y480400D03*
X274500Y475400D03*
X274500Y470400D03*
X274500Y465400D03*
D23*
X267500Y458400D03*
X262500Y458400D03*
X257500Y458400D03*
X252500Y458400D03*
X247500Y458400D03*
X242500Y458400D03*
D47*
X255000Y482900D03*
D26*
X249000Y472900D03*
X261000Y472900D03*
X249000Y482900D03*
X261000Y482900D03*
X249000Y492900D03*
X261000Y492900D03*
D24*
X235500Y575400D03*
X235500Y580400D03*
X235500Y585400D03*
X235500Y590400D03*
X235500Y595400D03*
X235500Y600400D03*
X235500Y605400D03*
X235500Y610400D03*
D23*
X242500Y617400D03*
X247500Y617400D03*
X252500Y617400D03*
X257500Y617400D03*
X262500Y617400D03*
X267500Y617400D03*
D24*
X274500Y610400D03*
X274500Y605400D03*
X274500Y600400D03*
X274500Y595400D03*
X274500Y590400D03*
X274500Y585400D03*
X274500Y580400D03*
X274500Y575400D03*
D23*
X267500Y568400D03*
X262500Y568400D03*
X257500Y568400D03*
X252500Y568400D03*
X247500Y568400D03*
X242500Y568400D03*
D47*
X255000Y592900D03*
D26*
X249000Y582900D03*
X261000Y582900D03*
X249000Y592900D03*
X261000Y592900D03*
X249000Y602900D03*
X261000Y602900D03*
D24*
X235500Y683400D03*
X235500Y688400D03*
X235500Y693400D03*
X235500Y698400D03*
X235500Y703400D03*
X235500Y708400D03*
X235500Y713400D03*
X235500Y718400D03*
D23*
X242500Y725400D03*
X247500Y725400D03*
X252500Y725400D03*
X257500Y725400D03*
X262500Y725400D03*
X267500Y725400D03*
D24*
X274500Y718400D03*
X274500Y713400D03*
X274500Y708400D03*
X274500Y703400D03*
X274500Y698400D03*
X274500Y693400D03*
X274500Y688400D03*
X274500Y683400D03*
D23*
X267500Y676400D03*
X262500Y676400D03*
X257500Y676400D03*
X252500Y676400D03*
X247500Y676400D03*
X242500Y676400D03*
D47*
X255000Y700900D03*
D26*
X249000Y690900D03*
X261000Y690900D03*
X249000Y700900D03*
X261000Y700900D03*
X249000Y710900D03*
X261000Y710900D03*
D24*
X235500Y790200D03*
X235500Y795200D03*
X235500Y800200D03*
X235500Y805200D03*
X235500Y810200D03*
X235500Y815200D03*
X235500Y820200D03*
X235500Y825200D03*
D23*
X242500Y832200D03*
X247500Y832200D03*
X252500Y832200D03*
X257500Y832200D03*
X262500Y832200D03*
X267500Y832200D03*
D24*
X274500Y825200D03*
X274500Y820200D03*
X274500Y815200D03*
X274500Y810200D03*
X274500Y805200D03*
X274500Y800200D03*
X274500Y795200D03*
X274500Y790200D03*
D23*
X267500Y783200D03*
X262500Y783200D03*
X257500Y783200D03*
X252500Y783200D03*
X247500Y783200D03*
X242500Y783200D03*
D47*
X255000Y807700D03*
D26*
X249000Y797700D03*
X261000Y797700D03*
X249000Y807700D03*
X261000Y807700D03*
X249000Y817700D03*
X261000Y817700D03*
D14*
X203300Y408300D03*
D15*
X228300Y408300D03*
X253300Y408300D03*
D26*
X650100Y950600D03*
X650100Y937600D03*
X650100Y924600D03*
X637100Y924600D03*
X637100Y937600D03*
X637100Y950600D03*
X624100Y950600D03*
X624100Y937600D03*
X624100Y924600D03*
D14*
X100000Y680100D03*
D15*
X100000Y705100D03*
X100000Y730100D03*
D14*
X164000Y680100D03*
D15*
X164000Y705100D03*
X164000Y730100D03*
D14*
X100000Y789800D03*
D15*
X100000Y814800D03*
X100000Y839800D03*
D14*
X164000Y789800D03*
D15*
X164000Y814800D03*
X164000Y839800D03*
D48*
X619600Y509600D03*
X669600Y509600D03*
D49*
X333100Y964400D03*
X333100Y954900D03*
X333100Y945400D03*
X307100Y945400D03*
X307100Y964400D03*
D50*
X885000Y923000D03*
X885000Y977000D03*
X885000Y781000D03*
X885000Y835000D03*
D33*
X407300Y990000D03*
D34*
X432700Y990000D03*
D33*
X345300Y990000D03*
D34*
X370700Y990000D03*
D51*
X736000Y528000D03*
X813000Y857000D03*
X330000Y432000D03*
X219000Y910000D03*
D18*
X628000Y814750D03*
X628000Y799250D03*
X628000Y827250D03*
X628000Y842750D03*
D52*
X589200Y1000560D02*
X589200Y1011640D01*
X502800Y1011640D02*
X502800Y1000560D01*
X502800Y969840D02*
X502800Y958760D01*
X589200Y958760D02*
X589200Y969840D01*
D53*
X517100Y969300D03*
X574900Y969300D03*
D54*
X464000Y832000D03*
X738000Y936000D03*
X784000Y928000D03*
X753000Y965000D03*
X867000Y767000D03*
X838000Y763000D03*
X760000Y778000D03*
X595000Y727000D03*
X468000Y700000D03*
X538000Y528000D03*
X769000Y705000D03*
X755000Y703000D03*
X422000Y595000D03*
X287000Y866000D03*
X319000Y885000D03*
X516500Y612000D03*
X419000Y704000D03*
X447000Y657000D03*
X231000Y651000D03*
X581000Y528000D03*
X486500Y610600D03*
X488000Y727000D03*
X217000Y834500D03*
X371000Y832000D03*
X429000Y741000D03*
X235200Y782000D03*
X666000Y901000D03*
X512000Y691000D03*
X534000Y721000D03*
X395000Y608000D03*
X530000Y812000D03*
X541000Y764000D03*
X550000Y812000D03*
X457000Y887000D03*
X526000Y930000D03*
X567000Y935000D03*
D55*
X280000Y940000D03*
D54*
X376000Y958000D03*
X358000Y851000D03*
X374000Y607000D03*
X492000Y748000D03*
X404000Y598000D03*
X438000Y625000D03*
X481000Y711000D03*
X198000Y725000D03*
X615000Y828000D03*
X615000Y817000D03*
X618000Y762000D03*
X571600Y749400D03*
X558000Y779000D03*
X809000Y741000D03*
X810000Y779000D03*
X556000Y558000D03*
X629000Y893000D03*
X531000Y558000D03*
X640000Y887000D03*
X370000Y538000D03*
X82000Y906000D03*
X597000Y874000D03*
X590000Y857000D03*
X547000Y558000D03*
X618000Y891000D03*
X655000Y985000D03*
X646000Y985000D03*
X829000Y909000D03*
X817000Y948000D03*
X807000Y961000D03*
X835000Y946000D03*
X599000Y858000D03*
X588000Y874000D03*
X290000Y572000D03*
X289000Y679000D03*
X289000Y787000D03*
X286000Y463000D03*
X427000Y944000D03*
X393000Y872500D03*
X411000Y891000D03*
X662000Y597000D03*
X600000Y617000D03*
X266000Y522000D03*
X214000Y498000D03*
X286000Y640000D03*
X215000Y607000D03*
X289000Y744000D03*
X215000Y715000D03*
X284000Y854000D03*
X215000Y820000D03*
X178000Y714000D03*
X182000Y690000D03*
X187000Y714000D03*
X192000Y690000D03*
X197000Y716000D03*
X656000Y879000D03*
X650000Y871000D03*
X643000Y864000D03*
X643000Y854000D03*
X742000Y1006000D03*
X494000Y422000D03*
X494000Y413000D03*
X509000Y898000D03*
X254000Y948000D03*
X372000Y759000D03*
X422000Y759000D03*
X372000Y632000D03*
X568000Y477000D03*
X558000Y788000D03*
X690000Y694000D03*
X288000Y495000D03*
X290000Y599000D03*
X290000Y707000D03*
X288000Y818000D03*
X558000Y798000D03*
X347000Y868000D03*
X196000Y778000D03*
X188000Y761000D03*
X156000Y658000D03*
X204000Y660000D03*
X191000Y434000D03*
X153000Y443000D03*
X690000Y710000D03*
X555000Y673000D03*
X546000Y673000D03*
X561000Y662000D03*
X327000Y979000D03*
X457000Y976000D03*
X682000Y994000D03*
X540000Y812000D03*
X560000Y812000D03*
X511000Y800000D03*
X542000Y741000D03*
X558000Y762700D03*
X500000Y888000D03*
X664000Y985000D03*
X544000Y724000D03*
X579000Y931000D03*
X666000Y968000D03*
X468000Y709000D03*
X384000Y526000D03*
X458000Y527000D03*
X782000Y743000D03*
X782000Y705000D03*
X629000Y722000D03*
X431000Y631000D03*
X418000Y610000D03*
X406000Y658000D03*
X420000Y862500D03*
M02*
