G04 EAGLE Gerber RS-274X export*
G75*
%MOMM*%
%FSLAX34Y34*%
%LPD*%
%INSolderpaste Top*%
%IPPOS*%
%AMOC8*
5,1,8,0,0,1.08239X$1,22.5*%
G01*
%ADD10R,1.600000X2.000000*%
%ADD11R,2.500000X2.500000*%
%ADD12R,1.000000X0.650000*%
%ADD13R,0.650000X1.000000*%
%ADD14R,1.800000X2.150000*%
%ADD15R,2.150000X1.800000*%
%ADD16R,1.700000X3.200000*%
%ADD17R,1.700000X1.450000*%
%ADD18R,0.800000X0.800000*%
%ADD19C,0.145000*%
%ADD20R,1.450000X0.685800*%
%ADD21R,0.500000X0.350000*%
%ADD22R,1.520000X2.540000*%
%ADD23R,0.950000X0.450000*%
%ADD24R,0.800000X1.240000*%
%ADD25R,0.950000X2.500000*%
%ADD26R,1.150000X2.200000*%
%ADD27R,1.160000X1.250000*%
%ADD28R,1.160000X1.200000*%
%ADD29R,1.500000X1.150000*%
%ADD30C,0.125000*%
%ADD31C,0.250000*%
%ADD32C,0.100000*%
%ADD33R,0.425000X0.325000*%
%ADD34R,0.250000X0.525000*%
%ADD35R,1.200000X0.550000*%
%ADD36R,0.300000X0.525000*%
%ADD37R,0.425000X0.300000*%
%ADD38R,0.965200X3.505200*%
%ADD39R,6.553200X8.458200*%
%ADD40C,0.070000*%
%ADD41R,2.000000X2.000000*%
%ADD42C,0.065000*%
%ADD43R,0.575000X1.150000*%
%ADD44R,0.275000X1.150000*%
%ADD45R,0.900000X0.650000*%
%ADD46R,1.000000X1.800000*%
%ADD47R,1.000000X1.270000*%
%ADD48R,1.200000X1.400000*%

G36*
X1285584Y975381D02*
X1285584Y975381D01*
X1285584Y975382D01*
X1285585Y975382D01*
X1286659Y975757D01*
X1286659Y975758D01*
X1286660Y975758D01*
X1287623Y976363D01*
X1287623Y976364D01*
X1287624Y976364D01*
X1288428Y977168D01*
X1288428Y977169D01*
X1288429Y977169D01*
X1289034Y978132D01*
X1289034Y978133D01*
X1289035Y978133D01*
X1289410Y979207D01*
X1289410Y979208D01*
X1289411Y979208D01*
X1289412Y979223D01*
X1289413Y979228D01*
X1289413Y979233D01*
X1289414Y979238D01*
X1289415Y979243D01*
X1289415Y979248D01*
X1289416Y979253D01*
X1289416Y979258D01*
X1289419Y979283D01*
X1289420Y979288D01*
X1289420Y979293D01*
X1289421Y979298D01*
X1289421Y979303D01*
X1289422Y979308D01*
X1289422Y979313D01*
X1289423Y979318D01*
X1289426Y979343D01*
X1289426Y979348D01*
X1289427Y979353D01*
X1289427Y979358D01*
X1289428Y979363D01*
X1289429Y979367D01*
X1289429Y979368D01*
X1289429Y979372D01*
X1289429Y979373D01*
X1289430Y979377D01*
X1289432Y979402D01*
X1289433Y979407D01*
X1289434Y979412D01*
X1289434Y979417D01*
X1289435Y979422D01*
X1289435Y979427D01*
X1289436Y979432D01*
X1289436Y979437D01*
X1289439Y979462D01*
X1289440Y979467D01*
X1289440Y979472D01*
X1289441Y979477D01*
X1289441Y979482D01*
X1289442Y979487D01*
X1289443Y979492D01*
X1289443Y979497D01*
X1289445Y979517D01*
X1289446Y979522D01*
X1289446Y979526D01*
X1289446Y979527D01*
X1289447Y979531D01*
X1289447Y979532D01*
X1289448Y979536D01*
X1289448Y979541D01*
X1289449Y979546D01*
X1289449Y979551D01*
X1289450Y979556D01*
X1289452Y979576D01*
X1289453Y979581D01*
X1289453Y979586D01*
X1289454Y979591D01*
X1289454Y979596D01*
X1289455Y979601D01*
X1289455Y979606D01*
X1289456Y979611D01*
X1289457Y979616D01*
X1289459Y979636D01*
X1289459Y979641D01*
X1289460Y979646D01*
X1289460Y979651D01*
X1289461Y979656D01*
X1289462Y979661D01*
X1289462Y979666D01*
X1289463Y979671D01*
X1289463Y979676D01*
X1289465Y979695D01*
X1289466Y979695D01*
X1289466Y979700D01*
X1289467Y979705D01*
X1289467Y979710D01*
X1289468Y979715D01*
X1289468Y979720D01*
X1289469Y979725D01*
X1289469Y979730D01*
X1289470Y979735D01*
X1289472Y979755D01*
X1289473Y979760D01*
X1289473Y979765D01*
X1289474Y979770D01*
X1289474Y979775D01*
X1289475Y979780D01*
X1289476Y979785D01*
X1289476Y979790D01*
X1289477Y979795D01*
X1289479Y979815D01*
X1289479Y979820D01*
X1289480Y979820D01*
X1289479Y979820D01*
X1289480Y979825D01*
X1289481Y979830D01*
X1289481Y979835D01*
X1289482Y979840D01*
X1289482Y979844D01*
X1289482Y979845D01*
X1289483Y979849D01*
X1289483Y979850D01*
X1289483Y979854D01*
X1289486Y979874D01*
X1289486Y979879D01*
X1289487Y979884D01*
X1289487Y979889D01*
X1289488Y979894D01*
X1289488Y979899D01*
X1289489Y979904D01*
X1289490Y979909D01*
X1289490Y979914D01*
X1289492Y979934D01*
X1289493Y979939D01*
X1289493Y979944D01*
X1289494Y979944D01*
X1289493Y979944D01*
X1289494Y979949D01*
X1289495Y979954D01*
X1289495Y979959D01*
X1289496Y979964D01*
X1289496Y979969D01*
X1289497Y979974D01*
X1289499Y979994D01*
X1289500Y979999D01*
X1289500Y980003D01*
X1289500Y980004D01*
X1289501Y980008D01*
X1289501Y980009D01*
X1289501Y980013D01*
X1289502Y980018D01*
X1289502Y980023D01*
X1289503Y980028D01*
X1289504Y980033D01*
X1289506Y980053D01*
X1289506Y980058D01*
X1289507Y980063D01*
X1289507Y980068D01*
X1289508Y980068D01*
X1289507Y980068D01*
X1289508Y980073D01*
X1289509Y980078D01*
X1289509Y980083D01*
X1289510Y980088D01*
X1289510Y980093D01*
X1289513Y980113D01*
X1289513Y980118D01*
X1289514Y980123D01*
X1289514Y980128D01*
X1289515Y980133D01*
X1289515Y980138D01*
X1289516Y980143D01*
X1289516Y980148D01*
X1289517Y980153D01*
X1289519Y980172D01*
X1289520Y980177D01*
X1289520Y980182D01*
X1289521Y980187D01*
X1289521Y980192D01*
X1289522Y980192D01*
X1289521Y980192D01*
X1289522Y980197D01*
X1289523Y980202D01*
X1289523Y980207D01*
X1289526Y980232D01*
X1289527Y980237D01*
X1289527Y980242D01*
X1289528Y980247D01*
X1289528Y980252D01*
X1289529Y980257D01*
X1289529Y980262D01*
X1289530Y980267D01*
X1289533Y980292D01*
X1289533Y980297D01*
X1289534Y980302D01*
X1289534Y980307D01*
X1289535Y980312D01*
X1289535Y980317D01*
X1289536Y980317D01*
X1289535Y980317D01*
X1289536Y980321D01*
X1289536Y980322D01*
X1289537Y980326D01*
X1289537Y980327D01*
X1289538Y980338D01*
X1289538Y980339D01*
X1289538Y989991D01*
X1289538Y989992D01*
X1289411Y991122D01*
X1289410Y991122D01*
X1289410Y991123D01*
X1289035Y992197D01*
X1289034Y992197D01*
X1289034Y992198D01*
X1288429Y993161D01*
X1288428Y993161D01*
X1288428Y993162D01*
X1287624Y993966D01*
X1287623Y993966D01*
X1287623Y993967D01*
X1286660Y994572D01*
X1286659Y994572D01*
X1286659Y994573D01*
X1285585Y994948D01*
X1285584Y994948D01*
X1285584Y994949D01*
X1284454Y995076D01*
X1284453Y995076D01*
X1284452Y995076D01*
X1284218Y995050D01*
X1283865Y995010D01*
X1283513Y994970D01*
X1283379Y994955D01*
X1283378Y994954D01*
X1283377Y994955D01*
X1282357Y994598D01*
X1282357Y994597D01*
X1282356Y994597D01*
X1281441Y994022D01*
X1280676Y993258D01*
X1280676Y993257D01*
X1280101Y992342D01*
X1280101Y992341D01*
X1280100Y992341D01*
X1279743Y991321D01*
X1279744Y991320D01*
X1279743Y991319D01*
X1279742Y991314D01*
X1279742Y991309D01*
X1279741Y991304D01*
X1279739Y991284D01*
X1279739Y991279D01*
X1279738Y991279D01*
X1279739Y991279D01*
X1279738Y991274D01*
X1279737Y991269D01*
X1279737Y991264D01*
X1279736Y991259D01*
X1279736Y991254D01*
X1279735Y991249D01*
X1279732Y991224D01*
X1279732Y991219D01*
X1279731Y991214D01*
X1279731Y991209D01*
X1279730Y991204D01*
X1279730Y991199D01*
X1279729Y991194D01*
X1279728Y991189D01*
X1279726Y991165D01*
X1279725Y991160D01*
X1279725Y991155D01*
X1279724Y991155D01*
X1279725Y991155D01*
X1279724Y991150D01*
X1279723Y991145D01*
X1279723Y991140D01*
X1279722Y991135D01*
X1279722Y991130D01*
X1279719Y991110D01*
X1279719Y991105D01*
X1279718Y991100D01*
X1279718Y991095D01*
X1279717Y991090D01*
X1279717Y991085D01*
X1279716Y991080D01*
X1279716Y991075D01*
X1279715Y991070D01*
X1279713Y991050D01*
X1279712Y991045D01*
X1279712Y991040D01*
X1279711Y991035D01*
X1279711Y991030D01*
X1279710Y991030D01*
X1279711Y991030D01*
X1279710Y991025D01*
X1279709Y991021D01*
X1279709Y991020D01*
X1279709Y991016D01*
X1279709Y991015D01*
X1279708Y991011D01*
X1279706Y990991D01*
X1279705Y990986D01*
X1279705Y990981D01*
X1279704Y990976D01*
X1279704Y990971D01*
X1279703Y990966D01*
X1279703Y990961D01*
X1279702Y990956D01*
X1279702Y990951D01*
X1279699Y990931D01*
X1279699Y990926D01*
X1279698Y990921D01*
X1279698Y990916D01*
X1279697Y990911D01*
X1279697Y990906D01*
X1279696Y990906D01*
X1279697Y990906D01*
X1279696Y990901D01*
X1279695Y990896D01*
X1279693Y990871D01*
X1279692Y990866D01*
X1279691Y990862D01*
X1279691Y990861D01*
X1279691Y990857D01*
X1279691Y990856D01*
X1279690Y990852D01*
X1279690Y990847D01*
X1279689Y990842D01*
X1279689Y990837D01*
X1279686Y990812D01*
X1279685Y990807D01*
X1279685Y990802D01*
X1279684Y990797D01*
X1279684Y990792D01*
X1279683Y990787D01*
X1279683Y990782D01*
X1279682Y990782D01*
X1279683Y990782D01*
X1279682Y990777D01*
X1279680Y990757D01*
X1279679Y990752D01*
X1279679Y990747D01*
X1279678Y990742D01*
X1279677Y990737D01*
X1279677Y990732D01*
X1279676Y990727D01*
X1279676Y990722D01*
X1279675Y990717D01*
X1279673Y990698D01*
X1279673Y990697D01*
X1279672Y990693D01*
X1279672Y990688D01*
X1279671Y990683D01*
X1279671Y990678D01*
X1279670Y990673D01*
X1279670Y990668D01*
X1279669Y990663D01*
X1279669Y990658D01*
X1279668Y990658D01*
X1279669Y990658D01*
X1279666Y990638D01*
X1279666Y990633D01*
X1279665Y990628D01*
X1279665Y990623D01*
X1279664Y990618D01*
X1279663Y990613D01*
X1279663Y990608D01*
X1279662Y990603D01*
X1279662Y990598D01*
X1279660Y990578D01*
X1279659Y990573D01*
X1279658Y990568D01*
X1279658Y990563D01*
X1279657Y990558D01*
X1279657Y990553D01*
X1279656Y990548D01*
X1279656Y990544D01*
X1279656Y990543D01*
X1279653Y990519D01*
X1279652Y990514D01*
X1279652Y990509D01*
X1279651Y990504D01*
X1279651Y990499D01*
X1279650Y990494D01*
X1279649Y990489D01*
X1279649Y990484D01*
X1279646Y990459D01*
X1279646Y990454D01*
X1279645Y990449D01*
X1279644Y990444D01*
X1279644Y990439D01*
X1279643Y990434D01*
X1279643Y990429D01*
X1279642Y990424D01*
X1279640Y990404D01*
X1279639Y990399D01*
X1279639Y990394D01*
X1279638Y990389D01*
X1279638Y990385D01*
X1279638Y990384D01*
X1279637Y990380D01*
X1279637Y990379D01*
X1279637Y990375D01*
X1279636Y990370D01*
X1279635Y990365D01*
X1279633Y990345D01*
X1279633Y990340D01*
X1279632Y990335D01*
X1279632Y990330D01*
X1279631Y990325D01*
X1279630Y990320D01*
X1279630Y990315D01*
X1279629Y990310D01*
X1279629Y990305D01*
X1279627Y990285D01*
X1279626Y990280D01*
X1279625Y990275D01*
X1279625Y990270D01*
X1279624Y990265D01*
X1279624Y990260D01*
X1279623Y990255D01*
X1279623Y990250D01*
X1279622Y990246D01*
X1279622Y990245D01*
X1279622Y980085D01*
X1279622Y980084D01*
X1279743Y979011D01*
X1279744Y979010D01*
X1279743Y979009D01*
X1280100Y977989D01*
X1280101Y977989D01*
X1280101Y977988D01*
X1280676Y977073D01*
X1281441Y976308D01*
X1282356Y975733D01*
X1282357Y975733D01*
X1282357Y975732D01*
X1283377Y975375D01*
X1283378Y975376D01*
X1283379Y975375D01*
X1284452Y975254D01*
X1284453Y975255D01*
X1284454Y975254D01*
X1285584Y975381D01*
G37*
G36*
X1199224Y975381D02*
X1199224Y975381D01*
X1199224Y975382D01*
X1199225Y975382D01*
X1200299Y975757D01*
X1200299Y975758D01*
X1200300Y975758D01*
X1201263Y976363D01*
X1201263Y976364D01*
X1201264Y976364D01*
X1202068Y977168D01*
X1202068Y977169D01*
X1202069Y977169D01*
X1202674Y978132D01*
X1202674Y978133D01*
X1202675Y978133D01*
X1203050Y979207D01*
X1203050Y979208D01*
X1203051Y979208D01*
X1203052Y979223D01*
X1203053Y979228D01*
X1203053Y979233D01*
X1203054Y979238D01*
X1203055Y979243D01*
X1203055Y979248D01*
X1203056Y979253D01*
X1203056Y979258D01*
X1203059Y979283D01*
X1203060Y979288D01*
X1203060Y979293D01*
X1203061Y979298D01*
X1203061Y979303D01*
X1203062Y979308D01*
X1203062Y979313D01*
X1203063Y979318D01*
X1203066Y979343D01*
X1203066Y979348D01*
X1203067Y979353D01*
X1203067Y979358D01*
X1203068Y979363D01*
X1203069Y979367D01*
X1203069Y979368D01*
X1203069Y979372D01*
X1203069Y979373D01*
X1203070Y979377D01*
X1203072Y979402D01*
X1203073Y979407D01*
X1203074Y979412D01*
X1203074Y979417D01*
X1203075Y979422D01*
X1203075Y979427D01*
X1203076Y979432D01*
X1203076Y979437D01*
X1203079Y979462D01*
X1203080Y979467D01*
X1203080Y979472D01*
X1203081Y979477D01*
X1203081Y979482D01*
X1203082Y979487D01*
X1203083Y979492D01*
X1203083Y979497D01*
X1203085Y979517D01*
X1203086Y979522D01*
X1203086Y979526D01*
X1203086Y979527D01*
X1203087Y979531D01*
X1203087Y979532D01*
X1203088Y979536D01*
X1203088Y979541D01*
X1203089Y979546D01*
X1203089Y979551D01*
X1203090Y979556D01*
X1203092Y979576D01*
X1203093Y979581D01*
X1203093Y979586D01*
X1203094Y979591D01*
X1203094Y979596D01*
X1203095Y979601D01*
X1203095Y979606D01*
X1203096Y979611D01*
X1203097Y979616D01*
X1203099Y979636D01*
X1203099Y979641D01*
X1203100Y979646D01*
X1203100Y979651D01*
X1203101Y979656D01*
X1203102Y979661D01*
X1203102Y979666D01*
X1203103Y979671D01*
X1203103Y979676D01*
X1203105Y979695D01*
X1203106Y979695D01*
X1203106Y979700D01*
X1203107Y979705D01*
X1203107Y979710D01*
X1203108Y979715D01*
X1203108Y979720D01*
X1203109Y979725D01*
X1203109Y979730D01*
X1203110Y979735D01*
X1203112Y979755D01*
X1203113Y979760D01*
X1203113Y979765D01*
X1203114Y979770D01*
X1203114Y979775D01*
X1203115Y979780D01*
X1203116Y979785D01*
X1203116Y979790D01*
X1203117Y979795D01*
X1203119Y979815D01*
X1203119Y979820D01*
X1203120Y979820D01*
X1203119Y979820D01*
X1203120Y979825D01*
X1203121Y979830D01*
X1203121Y979835D01*
X1203122Y979840D01*
X1203122Y979844D01*
X1203122Y979845D01*
X1203123Y979849D01*
X1203123Y979850D01*
X1203123Y979854D01*
X1203126Y979874D01*
X1203126Y979879D01*
X1203127Y979884D01*
X1203127Y979889D01*
X1203128Y979894D01*
X1203128Y979899D01*
X1203129Y979904D01*
X1203130Y979909D01*
X1203130Y979914D01*
X1203132Y979934D01*
X1203133Y979939D01*
X1203133Y979944D01*
X1203134Y979944D01*
X1203133Y979944D01*
X1203134Y979949D01*
X1203135Y979954D01*
X1203135Y979959D01*
X1203136Y979964D01*
X1203136Y979969D01*
X1203137Y979974D01*
X1203139Y979994D01*
X1203140Y979999D01*
X1203140Y980003D01*
X1203140Y980004D01*
X1203141Y980008D01*
X1203141Y980009D01*
X1203141Y980013D01*
X1203142Y980018D01*
X1203142Y980023D01*
X1203143Y980028D01*
X1203144Y980033D01*
X1203146Y980053D01*
X1203146Y980058D01*
X1203147Y980063D01*
X1203147Y980068D01*
X1203148Y980068D01*
X1203147Y980068D01*
X1203148Y980073D01*
X1203149Y980078D01*
X1203149Y980083D01*
X1203150Y980088D01*
X1203150Y980093D01*
X1203153Y980113D01*
X1203153Y980118D01*
X1203154Y980123D01*
X1203154Y980128D01*
X1203155Y980133D01*
X1203155Y980138D01*
X1203156Y980143D01*
X1203156Y980148D01*
X1203157Y980153D01*
X1203159Y980172D01*
X1203160Y980177D01*
X1203160Y980182D01*
X1203161Y980187D01*
X1203161Y980192D01*
X1203162Y980192D01*
X1203161Y980192D01*
X1203162Y980197D01*
X1203163Y980202D01*
X1203163Y980207D01*
X1203166Y980232D01*
X1203167Y980237D01*
X1203167Y980242D01*
X1203168Y980247D01*
X1203168Y980252D01*
X1203169Y980257D01*
X1203169Y980262D01*
X1203170Y980267D01*
X1203173Y980292D01*
X1203173Y980297D01*
X1203174Y980302D01*
X1203174Y980307D01*
X1203175Y980312D01*
X1203175Y980317D01*
X1203176Y980317D01*
X1203175Y980317D01*
X1203176Y980321D01*
X1203176Y980322D01*
X1203177Y980326D01*
X1203177Y980327D01*
X1203178Y980338D01*
X1203178Y980339D01*
X1203178Y989991D01*
X1203178Y989992D01*
X1203051Y991122D01*
X1203050Y991122D01*
X1203050Y991123D01*
X1202675Y992197D01*
X1202674Y992197D01*
X1202674Y992198D01*
X1202069Y993161D01*
X1202068Y993161D01*
X1202068Y993162D01*
X1201264Y993966D01*
X1201263Y993966D01*
X1201263Y993967D01*
X1200300Y994572D01*
X1200299Y994572D01*
X1200299Y994573D01*
X1199225Y994948D01*
X1199224Y994948D01*
X1199224Y994949D01*
X1198094Y995076D01*
X1198093Y995076D01*
X1198092Y995076D01*
X1197858Y995050D01*
X1197505Y995010D01*
X1197153Y994970D01*
X1197019Y994955D01*
X1197018Y994954D01*
X1197017Y994955D01*
X1195997Y994598D01*
X1195997Y994597D01*
X1195996Y994597D01*
X1195081Y994022D01*
X1194316Y993258D01*
X1194316Y993257D01*
X1193741Y992342D01*
X1193741Y992341D01*
X1193740Y992341D01*
X1193383Y991321D01*
X1193384Y991320D01*
X1193383Y991319D01*
X1193382Y991314D01*
X1193382Y991309D01*
X1193381Y991304D01*
X1193379Y991284D01*
X1193379Y991279D01*
X1193378Y991279D01*
X1193379Y991279D01*
X1193378Y991274D01*
X1193377Y991269D01*
X1193377Y991264D01*
X1193376Y991259D01*
X1193376Y991254D01*
X1193375Y991249D01*
X1193372Y991224D01*
X1193372Y991219D01*
X1193371Y991214D01*
X1193371Y991209D01*
X1193370Y991204D01*
X1193370Y991199D01*
X1193369Y991194D01*
X1193368Y991189D01*
X1193366Y991165D01*
X1193365Y991160D01*
X1193365Y991155D01*
X1193364Y991155D01*
X1193365Y991155D01*
X1193364Y991150D01*
X1193363Y991145D01*
X1193363Y991140D01*
X1193362Y991135D01*
X1193362Y991130D01*
X1193359Y991110D01*
X1193359Y991105D01*
X1193358Y991100D01*
X1193358Y991095D01*
X1193357Y991090D01*
X1193357Y991085D01*
X1193356Y991080D01*
X1193356Y991075D01*
X1193355Y991070D01*
X1193353Y991050D01*
X1193352Y991045D01*
X1193352Y991040D01*
X1193351Y991035D01*
X1193351Y991030D01*
X1193350Y991030D01*
X1193351Y991030D01*
X1193350Y991025D01*
X1193349Y991021D01*
X1193349Y991020D01*
X1193349Y991016D01*
X1193349Y991015D01*
X1193348Y991011D01*
X1193346Y990991D01*
X1193345Y990986D01*
X1193345Y990981D01*
X1193344Y990976D01*
X1193344Y990971D01*
X1193343Y990966D01*
X1193343Y990961D01*
X1193342Y990956D01*
X1193342Y990951D01*
X1193339Y990931D01*
X1193339Y990926D01*
X1193338Y990921D01*
X1193338Y990916D01*
X1193337Y990911D01*
X1193337Y990906D01*
X1193336Y990906D01*
X1193337Y990906D01*
X1193336Y990901D01*
X1193335Y990896D01*
X1193333Y990871D01*
X1193332Y990866D01*
X1193331Y990862D01*
X1193331Y990861D01*
X1193331Y990857D01*
X1193331Y990856D01*
X1193330Y990852D01*
X1193330Y990847D01*
X1193329Y990842D01*
X1193329Y990837D01*
X1193326Y990812D01*
X1193325Y990807D01*
X1193325Y990802D01*
X1193324Y990797D01*
X1193324Y990792D01*
X1193323Y990787D01*
X1193323Y990782D01*
X1193322Y990782D01*
X1193323Y990782D01*
X1193322Y990777D01*
X1193320Y990757D01*
X1193319Y990752D01*
X1193319Y990747D01*
X1193318Y990742D01*
X1193317Y990737D01*
X1193317Y990732D01*
X1193316Y990727D01*
X1193316Y990722D01*
X1193315Y990717D01*
X1193313Y990698D01*
X1193313Y990697D01*
X1193312Y990693D01*
X1193312Y990688D01*
X1193311Y990683D01*
X1193311Y990678D01*
X1193310Y990673D01*
X1193310Y990668D01*
X1193309Y990663D01*
X1193309Y990658D01*
X1193308Y990658D01*
X1193309Y990658D01*
X1193306Y990638D01*
X1193306Y990633D01*
X1193305Y990628D01*
X1193305Y990623D01*
X1193304Y990618D01*
X1193303Y990613D01*
X1193303Y990608D01*
X1193302Y990603D01*
X1193302Y990598D01*
X1193300Y990578D01*
X1193299Y990573D01*
X1193298Y990568D01*
X1193298Y990563D01*
X1193297Y990558D01*
X1193297Y990553D01*
X1193296Y990548D01*
X1193296Y990544D01*
X1193296Y990543D01*
X1193293Y990519D01*
X1193292Y990514D01*
X1193292Y990509D01*
X1193291Y990504D01*
X1193291Y990499D01*
X1193290Y990494D01*
X1193289Y990489D01*
X1193289Y990484D01*
X1193286Y990459D01*
X1193286Y990454D01*
X1193285Y990449D01*
X1193284Y990444D01*
X1193284Y990439D01*
X1193283Y990434D01*
X1193283Y990429D01*
X1193282Y990424D01*
X1193280Y990404D01*
X1193279Y990399D01*
X1193279Y990394D01*
X1193278Y990389D01*
X1193278Y990385D01*
X1193278Y990384D01*
X1193277Y990380D01*
X1193277Y990379D01*
X1193277Y990375D01*
X1193276Y990370D01*
X1193275Y990365D01*
X1193273Y990345D01*
X1193273Y990340D01*
X1193272Y990335D01*
X1193272Y990330D01*
X1193271Y990325D01*
X1193270Y990320D01*
X1193270Y990315D01*
X1193269Y990310D01*
X1193269Y990305D01*
X1193267Y990285D01*
X1193266Y990280D01*
X1193265Y990275D01*
X1193265Y990270D01*
X1193264Y990265D01*
X1193264Y990260D01*
X1193263Y990255D01*
X1193263Y990250D01*
X1193262Y990246D01*
X1193262Y990245D01*
X1193262Y980085D01*
X1193262Y980084D01*
X1193383Y979011D01*
X1193384Y979010D01*
X1193383Y979009D01*
X1193740Y977989D01*
X1193741Y977989D01*
X1193741Y977988D01*
X1194316Y977073D01*
X1195081Y976308D01*
X1195996Y975733D01*
X1195997Y975733D01*
X1195997Y975732D01*
X1197017Y975375D01*
X1197018Y975376D01*
X1197019Y975375D01*
X1198092Y975254D01*
X1198093Y975255D01*
X1198094Y975254D01*
X1199224Y975381D01*
G37*
G36*
X1285711Y933598D02*
X1285711Y933598D01*
X1285711Y933599D01*
X1285712Y933599D01*
X1286786Y933974D01*
X1286786Y933975D01*
X1286787Y933975D01*
X1287750Y934580D01*
X1287750Y934581D01*
X1287751Y934581D01*
X1288555Y935385D01*
X1288555Y935386D01*
X1288556Y935386D01*
X1289161Y936349D01*
X1289161Y936350D01*
X1289162Y936350D01*
X1289537Y937424D01*
X1289537Y937425D01*
X1289538Y937425D01*
X1289539Y937440D01*
X1289540Y937445D01*
X1289540Y937450D01*
X1289541Y937455D01*
X1289542Y937460D01*
X1289542Y937465D01*
X1289543Y937470D01*
X1289543Y937475D01*
X1289546Y937500D01*
X1289547Y937505D01*
X1289547Y937510D01*
X1289548Y937515D01*
X1289548Y937520D01*
X1289549Y937525D01*
X1289549Y937530D01*
X1289550Y937535D01*
X1289553Y937560D01*
X1289553Y937565D01*
X1289554Y937570D01*
X1289554Y937575D01*
X1289555Y937580D01*
X1289556Y937584D01*
X1289556Y937585D01*
X1289556Y937589D01*
X1289556Y937590D01*
X1289557Y937594D01*
X1289559Y937619D01*
X1289560Y937624D01*
X1289561Y937629D01*
X1289561Y937634D01*
X1289562Y937639D01*
X1289562Y937644D01*
X1289563Y937649D01*
X1289563Y937654D01*
X1289566Y937679D01*
X1289567Y937684D01*
X1289567Y937689D01*
X1289568Y937694D01*
X1289568Y937699D01*
X1289569Y937704D01*
X1289570Y937709D01*
X1289570Y937714D01*
X1289572Y937734D01*
X1289573Y937739D01*
X1289573Y937743D01*
X1289573Y937744D01*
X1289574Y937748D01*
X1289574Y937749D01*
X1289575Y937753D01*
X1289575Y937758D01*
X1289576Y937763D01*
X1289576Y937768D01*
X1289577Y937773D01*
X1289579Y937793D01*
X1289580Y937798D01*
X1289580Y937803D01*
X1289581Y937808D01*
X1289581Y937813D01*
X1289582Y937818D01*
X1289582Y937823D01*
X1289583Y937828D01*
X1289584Y937833D01*
X1289586Y937853D01*
X1289586Y937858D01*
X1289587Y937863D01*
X1289587Y937868D01*
X1289588Y937873D01*
X1289589Y937878D01*
X1289589Y937883D01*
X1289590Y937888D01*
X1289590Y937893D01*
X1289592Y937912D01*
X1289593Y937912D01*
X1289593Y937917D01*
X1289594Y937922D01*
X1289594Y937927D01*
X1289595Y937932D01*
X1289595Y937937D01*
X1289596Y937942D01*
X1289596Y937947D01*
X1289597Y937952D01*
X1289599Y937972D01*
X1289600Y937977D01*
X1289600Y937982D01*
X1289601Y937987D01*
X1289601Y937992D01*
X1289602Y937997D01*
X1289603Y938002D01*
X1289603Y938007D01*
X1289604Y938012D01*
X1289606Y938032D01*
X1289606Y938037D01*
X1289607Y938037D01*
X1289606Y938037D01*
X1289607Y938042D01*
X1289608Y938047D01*
X1289608Y938052D01*
X1289609Y938057D01*
X1289609Y938061D01*
X1289609Y938062D01*
X1289610Y938066D01*
X1289610Y938067D01*
X1289610Y938071D01*
X1289613Y938091D01*
X1289613Y938096D01*
X1289614Y938101D01*
X1289614Y938106D01*
X1289615Y938111D01*
X1289615Y938116D01*
X1289616Y938121D01*
X1289617Y938126D01*
X1289617Y938131D01*
X1289619Y938151D01*
X1289620Y938156D01*
X1289620Y938161D01*
X1289621Y938161D01*
X1289620Y938161D01*
X1289621Y938166D01*
X1289622Y938171D01*
X1289622Y938176D01*
X1289623Y938181D01*
X1289623Y938186D01*
X1289624Y938191D01*
X1289626Y938211D01*
X1289627Y938216D01*
X1289627Y938220D01*
X1289627Y938221D01*
X1289628Y938225D01*
X1289628Y938226D01*
X1289628Y938230D01*
X1289629Y938235D01*
X1289629Y938240D01*
X1289630Y938245D01*
X1289631Y938250D01*
X1289633Y938270D01*
X1289633Y938275D01*
X1289634Y938280D01*
X1289634Y938285D01*
X1289635Y938285D01*
X1289634Y938285D01*
X1289635Y938290D01*
X1289636Y938295D01*
X1289636Y938300D01*
X1289637Y938305D01*
X1289637Y938310D01*
X1289640Y938330D01*
X1289640Y938335D01*
X1289641Y938340D01*
X1289641Y938345D01*
X1289642Y938350D01*
X1289642Y938355D01*
X1289643Y938360D01*
X1289643Y938365D01*
X1289644Y938370D01*
X1289646Y938389D01*
X1289647Y938394D01*
X1289647Y938399D01*
X1289648Y938404D01*
X1289648Y938409D01*
X1289649Y938409D01*
X1289648Y938409D01*
X1289649Y938414D01*
X1289650Y938419D01*
X1289650Y938424D01*
X1289653Y938449D01*
X1289654Y938454D01*
X1289654Y938459D01*
X1289655Y938464D01*
X1289655Y938469D01*
X1289656Y938474D01*
X1289656Y938479D01*
X1289657Y938484D01*
X1289660Y938509D01*
X1289660Y938514D01*
X1289661Y938519D01*
X1289661Y938524D01*
X1289662Y938529D01*
X1289662Y938534D01*
X1289663Y938534D01*
X1289662Y938534D01*
X1289663Y938538D01*
X1289663Y938539D01*
X1289664Y938543D01*
X1289664Y938544D01*
X1289665Y938555D01*
X1289665Y938556D01*
X1289665Y948208D01*
X1289665Y948209D01*
X1289538Y949339D01*
X1289537Y949339D01*
X1289537Y949340D01*
X1289162Y950414D01*
X1289161Y950414D01*
X1289161Y950415D01*
X1288556Y951378D01*
X1288555Y951378D01*
X1288555Y951379D01*
X1287751Y952183D01*
X1287750Y952183D01*
X1287750Y952184D01*
X1286787Y952789D01*
X1286786Y952789D01*
X1286786Y952790D01*
X1285712Y953165D01*
X1285711Y953165D01*
X1285711Y953166D01*
X1284581Y953293D01*
X1284580Y953293D01*
X1284579Y953293D01*
X1284345Y953267D01*
X1283992Y953227D01*
X1283640Y953187D01*
X1283506Y953172D01*
X1283505Y953171D01*
X1283504Y953172D01*
X1282484Y952815D01*
X1282484Y952814D01*
X1282483Y952814D01*
X1281568Y952239D01*
X1280803Y951475D01*
X1280803Y951474D01*
X1280228Y950559D01*
X1280228Y950558D01*
X1280227Y950558D01*
X1279870Y949538D01*
X1279871Y949537D01*
X1279870Y949536D01*
X1279869Y949531D01*
X1279869Y949526D01*
X1279868Y949521D01*
X1279866Y949501D01*
X1279866Y949496D01*
X1279865Y949496D01*
X1279866Y949496D01*
X1279865Y949491D01*
X1279864Y949486D01*
X1279864Y949481D01*
X1279863Y949476D01*
X1279863Y949471D01*
X1279862Y949466D01*
X1279859Y949441D01*
X1279859Y949436D01*
X1279858Y949431D01*
X1279858Y949426D01*
X1279857Y949421D01*
X1279857Y949416D01*
X1279856Y949411D01*
X1279855Y949406D01*
X1279853Y949382D01*
X1279852Y949377D01*
X1279852Y949372D01*
X1279851Y949372D01*
X1279852Y949372D01*
X1279851Y949367D01*
X1279850Y949362D01*
X1279850Y949357D01*
X1279849Y949352D01*
X1279849Y949347D01*
X1279846Y949327D01*
X1279846Y949322D01*
X1279845Y949317D01*
X1279845Y949312D01*
X1279844Y949307D01*
X1279844Y949302D01*
X1279843Y949297D01*
X1279843Y949292D01*
X1279842Y949287D01*
X1279840Y949267D01*
X1279839Y949262D01*
X1279839Y949257D01*
X1279838Y949252D01*
X1279838Y949247D01*
X1279837Y949247D01*
X1279838Y949247D01*
X1279837Y949242D01*
X1279836Y949238D01*
X1279836Y949237D01*
X1279836Y949233D01*
X1279836Y949232D01*
X1279835Y949228D01*
X1279833Y949208D01*
X1279832Y949203D01*
X1279832Y949198D01*
X1279831Y949193D01*
X1279831Y949188D01*
X1279830Y949183D01*
X1279830Y949178D01*
X1279829Y949173D01*
X1279829Y949168D01*
X1279826Y949148D01*
X1279826Y949143D01*
X1279825Y949138D01*
X1279825Y949133D01*
X1279824Y949128D01*
X1279824Y949123D01*
X1279823Y949123D01*
X1279824Y949123D01*
X1279823Y949118D01*
X1279822Y949113D01*
X1279820Y949088D01*
X1279819Y949083D01*
X1279818Y949079D01*
X1279818Y949078D01*
X1279818Y949074D01*
X1279818Y949073D01*
X1279817Y949069D01*
X1279817Y949064D01*
X1279816Y949059D01*
X1279816Y949054D01*
X1279813Y949029D01*
X1279812Y949024D01*
X1279812Y949019D01*
X1279811Y949014D01*
X1279811Y949009D01*
X1279810Y949004D01*
X1279810Y948999D01*
X1279809Y948999D01*
X1279810Y948999D01*
X1279809Y948994D01*
X1279807Y948974D01*
X1279806Y948969D01*
X1279806Y948964D01*
X1279805Y948959D01*
X1279804Y948954D01*
X1279804Y948949D01*
X1279803Y948944D01*
X1279803Y948939D01*
X1279802Y948934D01*
X1279800Y948915D01*
X1279800Y948914D01*
X1279799Y948910D01*
X1279799Y948905D01*
X1279798Y948900D01*
X1279798Y948895D01*
X1279797Y948890D01*
X1279797Y948885D01*
X1279796Y948880D01*
X1279796Y948875D01*
X1279795Y948875D01*
X1279796Y948875D01*
X1279793Y948855D01*
X1279793Y948850D01*
X1279792Y948845D01*
X1279792Y948840D01*
X1279791Y948835D01*
X1279790Y948830D01*
X1279790Y948825D01*
X1279789Y948820D01*
X1279789Y948815D01*
X1279787Y948795D01*
X1279786Y948790D01*
X1279785Y948785D01*
X1279785Y948780D01*
X1279784Y948775D01*
X1279784Y948770D01*
X1279783Y948765D01*
X1279783Y948761D01*
X1279783Y948760D01*
X1279780Y948736D01*
X1279779Y948731D01*
X1279779Y948726D01*
X1279778Y948721D01*
X1279778Y948716D01*
X1279777Y948711D01*
X1279776Y948706D01*
X1279776Y948701D01*
X1279773Y948676D01*
X1279773Y948671D01*
X1279772Y948666D01*
X1279771Y948661D01*
X1279771Y948656D01*
X1279770Y948651D01*
X1279770Y948646D01*
X1279769Y948641D01*
X1279767Y948621D01*
X1279766Y948616D01*
X1279766Y948611D01*
X1279765Y948606D01*
X1279765Y948602D01*
X1279765Y948601D01*
X1279764Y948597D01*
X1279764Y948596D01*
X1279764Y948592D01*
X1279763Y948587D01*
X1279762Y948582D01*
X1279760Y948562D01*
X1279760Y948557D01*
X1279759Y948552D01*
X1279759Y948547D01*
X1279758Y948542D01*
X1279757Y948537D01*
X1279757Y948532D01*
X1279756Y948527D01*
X1279756Y948522D01*
X1279754Y948502D01*
X1279753Y948497D01*
X1279752Y948492D01*
X1279752Y948487D01*
X1279751Y948482D01*
X1279751Y948477D01*
X1279750Y948472D01*
X1279750Y948467D01*
X1279749Y948463D01*
X1279749Y948462D01*
X1279749Y938302D01*
X1279749Y938301D01*
X1279870Y937228D01*
X1279871Y937227D01*
X1279870Y937226D01*
X1280227Y936206D01*
X1280228Y936206D01*
X1280228Y936205D01*
X1280803Y935290D01*
X1281568Y934525D01*
X1282483Y933950D01*
X1282484Y933950D01*
X1282484Y933949D01*
X1283504Y933592D01*
X1283505Y933593D01*
X1283506Y933592D01*
X1284579Y933471D01*
X1284580Y933472D01*
X1284581Y933471D01*
X1285711Y933598D01*
G37*
G36*
X1199224Y933471D02*
X1199224Y933471D01*
X1199224Y933472D01*
X1199225Y933472D01*
X1200299Y933847D01*
X1200299Y933848D01*
X1200300Y933848D01*
X1201263Y934453D01*
X1201263Y934454D01*
X1201264Y934454D01*
X1202068Y935258D01*
X1202068Y935259D01*
X1202069Y935259D01*
X1202674Y936222D01*
X1202674Y936223D01*
X1202675Y936223D01*
X1203050Y937297D01*
X1203050Y937298D01*
X1203051Y937298D01*
X1203052Y937313D01*
X1203053Y937318D01*
X1203053Y937323D01*
X1203054Y937328D01*
X1203055Y937333D01*
X1203055Y937338D01*
X1203056Y937343D01*
X1203056Y937348D01*
X1203059Y937373D01*
X1203060Y937378D01*
X1203060Y937383D01*
X1203061Y937388D01*
X1203061Y937393D01*
X1203062Y937398D01*
X1203062Y937403D01*
X1203063Y937408D01*
X1203066Y937433D01*
X1203066Y937438D01*
X1203067Y937443D01*
X1203067Y937448D01*
X1203068Y937453D01*
X1203069Y937457D01*
X1203069Y937458D01*
X1203069Y937462D01*
X1203069Y937463D01*
X1203070Y937467D01*
X1203072Y937492D01*
X1203073Y937497D01*
X1203074Y937502D01*
X1203074Y937507D01*
X1203075Y937512D01*
X1203075Y937517D01*
X1203076Y937522D01*
X1203076Y937527D01*
X1203079Y937552D01*
X1203080Y937557D01*
X1203080Y937562D01*
X1203081Y937567D01*
X1203081Y937572D01*
X1203082Y937577D01*
X1203083Y937582D01*
X1203083Y937587D01*
X1203085Y937607D01*
X1203086Y937612D01*
X1203086Y937616D01*
X1203086Y937617D01*
X1203087Y937621D01*
X1203087Y937622D01*
X1203088Y937626D01*
X1203088Y937631D01*
X1203089Y937636D01*
X1203089Y937641D01*
X1203090Y937646D01*
X1203092Y937666D01*
X1203093Y937671D01*
X1203093Y937676D01*
X1203094Y937681D01*
X1203094Y937686D01*
X1203095Y937691D01*
X1203095Y937696D01*
X1203096Y937701D01*
X1203097Y937706D01*
X1203099Y937726D01*
X1203099Y937731D01*
X1203100Y937736D01*
X1203100Y937741D01*
X1203101Y937746D01*
X1203102Y937751D01*
X1203102Y937756D01*
X1203103Y937761D01*
X1203103Y937766D01*
X1203105Y937785D01*
X1203106Y937785D01*
X1203106Y937790D01*
X1203107Y937795D01*
X1203107Y937800D01*
X1203108Y937805D01*
X1203108Y937810D01*
X1203109Y937815D01*
X1203109Y937820D01*
X1203110Y937825D01*
X1203112Y937845D01*
X1203113Y937850D01*
X1203113Y937855D01*
X1203114Y937860D01*
X1203114Y937865D01*
X1203115Y937870D01*
X1203116Y937875D01*
X1203116Y937880D01*
X1203117Y937885D01*
X1203119Y937905D01*
X1203119Y937910D01*
X1203120Y937910D01*
X1203119Y937910D01*
X1203120Y937915D01*
X1203121Y937920D01*
X1203121Y937925D01*
X1203122Y937930D01*
X1203122Y937934D01*
X1203122Y937935D01*
X1203123Y937939D01*
X1203123Y937940D01*
X1203123Y937944D01*
X1203126Y937964D01*
X1203126Y937969D01*
X1203127Y937974D01*
X1203127Y937979D01*
X1203128Y937984D01*
X1203128Y937989D01*
X1203129Y937994D01*
X1203130Y937999D01*
X1203130Y938004D01*
X1203132Y938024D01*
X1203133Y938029D01*
X1203133Y938034D01*
X1203134Y938034D01*
X1203133Y938034D01*
X1203134Y938039D01*
X1203135Y938044D01*
X1203135Y938049D01*
X1203136Y938054D01*
X1203136Y938059D01*
X1203137Y938064D01*
X1203139Y938084D01*
X1203140Y938089D01*
X1203140Y938093D01*
X1203140Y938094D01*
X1203141Y938098D01*
X1203141Y938099D01*
X1203141Y938103D01*
X1203142Y938108D01*
X1203142Y938113D01*
X1203143Y938118D01*
X1203144Y938123D01*
X1203146Y938143D01*
X1203146Y938148D01*
X1203147Y938153D01*
X1203147Y938158D01*
X1203148Y938158D01*
X1203147Y938158D01*
X1203148Y938163D01*
X1203149Y938168D01*
X1203149Y938173D01*
X1203150Y938178D01*
X1203150Y938183D01*
X1203153Y938203D01*
X1203153Y938208D01*
X1203154Y938213D01*
X1203154Y938218D01*
X1203155Y938223D01*
X1203155Y938228D01*
X1203156Y938233D01*
X1203156Y938238D01*
X1203157Y938243D01*
X1203159Y938262D01*
X1203160Y938267D01*
X1203160Y938272D01*
X1203161Y938277D01*
X1203161Y938282D01*
X1203162Y938282D01*
X1203161Y938282D01*
X1203162Y938287D01*
X1203163Y938292D01*
X1203163Y938297D01*
X1203166Y938322D01*
X1203167Y938327D01*
X1203167Y938332D01*
X1203168Y938337D01*
X1203168Y938342D01*
X1203169Y938347D01*
X1203169Y938352D01*
X1203170Y938357D01*
X1203173Y938382D01*
X1203173Y938387D01*
X1203174Y938392D01*
X1203174Y938397D01*
X1203175Y938402D01*
X1203175Y938407D01*
X1203176Y938407D01*
X1203175Y938407D01*
X1203176Y938411D01*
X1203176Y938412D01*
X1203177Y938416D01*
X1203177Y938417D01*
X1203178Y938428D01*
X1203178Y938429D01*
X1203178Y948081D01*
X1203178Y948082D01*
X1203051Y949212D01*
X1203050Y949212D01*
X1203050Y949213D01*
X1202675Y950287D01*
X1202674Y950287D01*
X1202674Y950288D01*
X1202069Y951251D01*
X1202068Y951251D01*
X1202068Y951252D01*
X1201264Y952056D01*
X1201263Y952056D01*
X1201263Y952057D01*
X1200300Y952662D01*
X1200299Y952662D01*
X1200299Y952663D01*
X1199225Y953038D01*
X1199224Y953038D01*
X1199224Y953039D01*
X1198094Y953166D01*
X1198093Y953166D01*
X1198092Y953166D01*
X1197858Y953140D01*
X1197505Y953100D01*
X1197153Y953060D01*
X1197019Y953045D01*
X1197018Y953044D01*
X1197017Y953045D01*
X1195997Y952688D01*
X1195997Y952687D01*
X1195996Y952687D01*
X1195081Y952112D01*
X1194316Y951348D01*
X1194316Y951347D01*
X1193741Y950432D01*
X1193741Y950431D01*
X1193740Y950431D01*
X1193383Y949411D01*
X1193384Y949410D01*
X1193383Y949409D01*
X1193382Y949404D01*
X1193382Y949399D01*
X1193381Y949394D01*
X1193379Y949374D01*
X1193379Y949369D01*
X1193378Y949369D01*
X1193379Y949369D01*
X1193378Y949364D01*
X1193377Y949359D01*
X1193377Y949354D01*
X1193376Y949349D01*
X1193376Y949344D01*
X1193375Y949339D01*
X1193372Y949314D01*
X1193372Y949309D01*
X1193371Y949304D01*
X1193371Y949299D01*
X1193370Y949294D01*
X1193370Y949289D01*
X1193369Y949284D01*
X1193368Y949279D01*
X1193366Y949255D01*
X1193365Y949250D01*
X1193365Y949245D01*
X1193364Y949245D01*
X1193365Y949245D01*
X1193364Y949240D01*
X1193363Y949235D01*
X1193363Y949230D01*
X1193362Y949225D01*
X1193362Y949220D01*
X1193359Y949200D01*
X1193359Y949195D01*
X1193358Y949190D01*
X1193358Y949185D01*
X1193357Y949180D01*
X1193357Y949175D01*
X1193356Y949170D01*
X1193356Y949165D01*
X1193355Y949160D01*
X1193353Y949140D01*
X1193352Y949135D01*
X1193352Y949130D01*
X1193351Y949125D01*
X1193351Y949120D01*
X1193350Y949120D01*
X1193351Y949120D01*
X1193350Y949115D01*
X1193349Y949111D01*
X1193349Y949110D01*
X1193349Y949106D01*
X1193349Y949105D01*
X1193348Y949101D01*
X1193346Y949081D01*
X1193345Y949076D01*
X1193345Y949071D01*
X1193344Y949066D01*
X1193344Y949061D01*
X1193343Y949056D01*
X1193343Y949051D01*
X1193342Y949046D01*
X1193342Y949041D01*
X1193339Y949021D01*
X1193339Y949016D01*
X1193338Y949011D01*
X1193338Y949006D01*
X1193337Y949001D01*
X1193337Y948996D01*
X1193336Y948996D01*
X1193337Y948996D01*
X1193336Y948991D01*
X1193335Y948986D01*
X1193333Y948961D01*
X1193332Y948956D01*
X1193331Y948952D01*
X1193331Y948951D01*
X1193331Y948947D01*
X1193331Y948946D01*
X1193330Y948942D01*
X1193330Y948937D01*
X1193329Y948932D01*
X1193329Y948927D01*
X1193326Y948902D01*
X1193325Y948897D01*
X1193325Y948892D01*
X1193324Y948887D01*
X1193324Y948882D01*
X1193323Y948877D01*
X1193323Y948872D01*
X1193322Y948872D01*
X1193323Y948872D01*
X1193322Y948867D01*
X1193320Y948847D01*
X1193319Y948842D01*
X1193319Y948837D01*
X1193318Y948832D01*
X1193317Y948827D01*
X1193317Y948822D01*
X1193316Y948817D01*
X1193316Y948812D01*
X1193315Y948807D01*
X1193313Y948788D01*
X1193313Y948787D01*
X1193312Y948783D01*
X1193312Y948778D01*
X1193311Y948773D01*
X1193311Y948768D01*
X1193310Y948763D01*
X1193310Y948758D01*
X1193309Y948753D01*
X1193309Y948748D01*
X1193308Y948748D01*
X1193309Y948748D01*
X1193306Y948728D01*
X1193306Y948723D01*
X1193305Y948718D01*
X1193305Y948713D01*
X1193304Y948708D01*
X1193303Y948703D01*
X1193303Y948698D01*
X1193302Y948693D01*
X1193302Y948688D01*
X1193300Y948668D01*
X1193299Y948663D01*
X1193298Y948658D01*
X1193298Y948653D01*
X1193297Y948648D01*
X1193297Y948643D01*
X1193296Y948638D01*
X1193296Y948634D01*
X1193296Y948633D01*
X1193293Y948609D01*
X1193292Y948604D01*
X1193292Y948599D01*
X1193291Y948594D01*
X1193291Y948589D01*
X1193290Y948584D01*
X1193289Y948579D01*
X1193289Y948574D01*
X1193286Y948549D01*
X1193286Y948544D01*
X1193285Y948539D01*
X1193284Y948534D01*
X1193284Y948529D01*
X1193283Y948524D01*
X1193283Y948519D01*
X1193282Y948514D01*
X1193280Y948494D01*
X1193279Y948489D01*
X1193279Y948484D01*
X1193278Y948479D01*
X1193278Y948475D01*
X1193278Y948474D01*
X1193277Y948470D01*
X1193277Y948469D01*
X1193277Y948465D01*
X1193276Y948460D01*
X1193275Y948455D01*
X1193273Y948435D01*
X1193273Y948430D01*
X1193272Y948425D01*
X1193272Y948420D01*
X1193271Y948415D01*
X1193270Y948410D01*
X1193270Y948405D01*
X1193269Y948400D01*
X1193269Y948395D01*
X1193267Y948375D01*
X1193266Y948370D01*
X1193265Y948365D01*
X1193265Y948360D01*
X1193264Y948355D01*
X1193264Y948350D01*
X1193263Y948345D01*
X1193263Y948340D01*
X1193262Y948336D01*
X1193262Y948335D01*
X1193262Y938175D01*
X1193262Y938174D01*
X1193383Y937101D01*
X1193384Y937100D01*
X1193383Y937099D01*
X1193740Y936079D01*
X1193741Y936079D01*
X1193741Y936078D01*
X1194316Y935163D01*
X1195081Y934398D01*
X1195996Y933823D01*
X1195997Y933823D01*
X1195997Y933822D01*
X1197017Y933465D01*
X1197018Y933466D01*
X1197019Y933465D01*
X1198092Y933344D01*
X1198093Y933345D01*
X1198094Y933344D01*
X1199224Y933471D01*
G37*
G36*
X1226774Y770037D02*
X1226774Y770037D01*
X1226782Y770036D01*
X1226870Y770057D01*
X1226960Y770075D01*
X1226967Y770080D01*
X1226975Y770082D01*
X1227049Y770136D01*
X1227124Y770188D01*
X1227129Y770195D01*
X1227135Y770200D01*
X1227182Y770278D01*
X1227231Y770355D01*
X1227233Y770363D01*
X1227237Y770371D01*
X1227265Y770535D01*
X1227265Y780097D01*
X1227263Y780105D01*
X1227264Y780114D01*
X1227243Y780202D01*
X1227225Y780292D01*
X1227220Y780299D01*
X1227218Y780307D01*
X1227164Y780380D01*
X1227112Y780456D01*
X1227105Y780461D01*
X1227100Y780467D01*
X1227022Y780514D01*
X1226945Y780563D01*
X1226937Y780564D01*
X1226929Y780569D01*
X1226765Y780596D01*
X1217203Y780596D01*
X1217195Y780595D01*
X1217186Y780596D01*
X1217098Y780575D01*
X1217008Y780557D01*
X1217001Y780552D01*
X1216993Y780550D01*
X1216920Y780496D01*
X1216844Y780444D01*
X1216839Y780437D01*
X1216833Y780432D01*
X1216786Y780354D01*
X1216737Y780277D01*
X1216736Y780268D01*
X1216731Y780261D01*
X1216704Y780097D01*
X1216704Y770535D01*
X1216705Y770526D01*
X1216704Y770518D01*
X1216725Y770430D01*
X1216743Y770340D01*
X1216748Y770333D01*
X1216750Y770325D01*
X1216804Y770251D01*
X1216856Y770176D01*
X1216863Y770171D01*
X1216868Y770165D01*
X1216946Y770118D01*
X1217023Y770069D01*
X1217032Y770067D01*
X1217039Y770063D01*
X1217203Y770035D01*
X1226765Y770035D01*
X1226774Y770037D01*
G37*
G36*
X1240805Y770037D02*
X1240805Y770037D01*
X1240814Y770036D01*
X1240902Y770057D01*
X1240992Y770075D01*
X1240999Y770080D01*
X1241007Y770082D01*
X1241080Y770136D01*
X1241156Y770188D01*
X1241161Y770195D01*
X1241167Y770200D01*
X1241214Y770278D01*
X1241263Y770355D01*
X1241264Y770363D01*
X1241269Y770371D01*
X1241296Y770535D01*
X1241296Y780097D01*
X1241295Y780105D01*
X1241296Y780114D01*
X1241275Y780202D01*
X1241257Y780292D01*
X1241252Y780299D01*
X1241250Y780307D01*
X1241196Y780380D01*
X1241144Y780456D01*
X1241137Y780461D01*
X1241132Y780467D01*
X1241054Y780514D01*
X1240977Y780563D01*
X1240968Y780564D01*
X1240961Y780569D01*
X1240797Y780596D01*
X1231235Y780596D01*
X1231226Y780595D01*
X1231218Y780596D01*
X1231130Y780575D01*
X1231040Y780557D01*
X1231033Y780552D01*
X1231025Y780550D01*
X1230951Y780496D01*
X1230876Y780444D01*
X1230871Y780437D01*
X1230865Y780432D01*
X1230818Y780354D01*
X1230769Y780277D01*
X1230767Y780268D01*
X1230763Y780261D01*
X1230735Y780097D01*
X1230735Y770535D01*
X1230737Y770526D01*
X1230736Y770518D01*
X1230757Y770430D01*
X1230775Y770340D01*
X1230780Y770333D01*
X1230782Y770325D01*
X1230836Y770251D01*
X1230888Y770176D01*
X1230895Y770171D01*
X1230900Y770165D01*
X1230978Y770118D01*
X1231055Y770069D01*
X1231063Y770067D01*
X1231071Y770063D01*
X1231235Y770035D01*
X1240797Y770035D01*
X1240805Y770037D01*
G37*
G36*
X1226774Y756005D02*
X1226774Y756005D01*
X1226782Y756004D01*
X1226870Y756025D01*
X1226960Y756043D01*
X1226967Y756048D01*
X1226975Y756050D01*
X1227049Y756104D01*
X1227124Y756156D01*
X1227129Y756163D01*
X1227135Y756168D01*
X1227182Y756246D01*
X1227231Y756323D01*
X1227233Y756332D01*
X1227237Y756339D01*
X1227265Y756503D01*
X1227265Y766065D01*
X1227263Y766074D01*
X1227264Y766082D01*
X1227243Y766170D01*
X1227225Y766260D01*
X1227220Y766267D01*
X1227218Y766275D01*
X1227164Y766349D01*
X1227112Y766424D01*
X1227105Y766429D01*
X1227100Y766435D01*
X1227022Y766482D01*
X1226945Y766531D01*
X1226937Y766533D01*
X1226929Y766537D01*
X1226765Y766565D01*
X1217203Y766565D01*
X1217195Y766563D01*
X1217186Y766564D01*
X1217098Y766543D01*
X1217008Y766525D01*
X1217001Y766520D01*
X1216993Y766518D01*
X1216920Y766464D01*
X1216844Y766412D01*
X1216839Y766405D01*
X1216833Y766400D01*
X1216786Y766322D01*
X1216737Y766245D01*
X1216736Y766237D01*
X1216731Y766229D01*
X1216704Y766065D01*
X1216704Y756503D01*
X1216705Y756495D01*
X1216704Y756486D01*
X1216725Y756398D01*
X1216743Y756308D01*
X1216748Y756301D01*
X1216750Y756293D01*
X1216804Y756220D01*
X1216856Y756144D01*
X1216863Y756139D01*
X1216868Y756133D01*
X1216946Y756086D01*
X1217023Y756037D01*
X1217032Y756036D01*
X1217039Y756031D01*
X1217203Y756004D01*
X1226765Y756004D01*
X1226774Y756005D01*
G37*
G36*
X1240805Y756005D02*
X1240805Y756005D01*
X1240814Y756004D01*
X1240902Y756025D01*
X1240992Y756043D01*
X1240999Y756048D01*
X1241007Y756050D01*
X1241080Y756104D01*
X1241156Y756156D01*
X1241161Y756163D01*
X1241167Y756168D01*
X1241214Y756246D01*
X1241263Y756323D01*
X1241264Y756332D01*
X1241269Y756339D01*
X1241296Y756503D01*
X1241296Y766065D01*
X1241295Y766074D01*
X1241296Y766082D01*
X1241275Y766170D01*
X1241257Y766260D01*
X1241252Y766267D01*
X1241250Y766275D01*
X1241196Y766349D01*
X1241144Y766424D01*
X1241137Y766429D01*
X1241132Y766435D01*
X1241054Y766482D01*
X1240977Y766531D01*
X1240968Y766533D01*
X1240961Y766537D01*
X1240797Y766565D01*
X1231235Y766565D01*
X1231226Y766563D01*
X1231218Y766564D01*
X1231130Y766543D01*
X1231040Y766525D01*
X1231033Y766520D01*
X1231025Y766518D01*
X1230951Y766464D01*
X1230876Y766412D01*
X1230871Y766405D01*
X1230865Y766400D01*
X1230818Y766322D01*
X1230769Y766245D01*
X1230767Y766237D01*
X1230763Y766229D01*
X1230735Y766065D01*
X1230735Y756503D01*
X1230737Y756495D01*
X1230736Y756486D01*
X1230757Y756398D01*
X1230775Y756308D01*
X1230780Y756301D01*
X1230782Y756293D01*
X1230836Y756220D01*
X1230888Y756144D01*
X1230895Y756139D01*
X1230900Y756133D01*
X1230978Y756086D01*
X1231055Y756037D01*
X1231063Y756036D01*
X1231071Y756031D01*
X1231235Y756004D01*
X1240797Y756004D01*
X1240805Y756005D01*
G37*
D10*
X1150900Y986200D03*
X1150900Y932200D03*
D11*
X780500Y542100D03*
X780500Y472100D03*
X850500Y472100D03*
X850500Y542100D03*
D12*
X1279100Y835850D03*
X1279100Y820350D03*
X978200Y835250D03*
X978200Y819750D03*
D13*
X856450Y570100D03*
X871950Y570100D03*
D14*
X942500Y901050D03*
X942500Y871550D03*
D12*
X1066100Y658650D03*
X1066100Y643150D03*
X1212900Y693850D03*
X1212900Y709350D03*
X1080800Y642850D03*
X1080800Y658350D03*
D13*
X1064250Y724800D03*
X1048750Y724800D03*
D12*
X1091800Y679650D03*
X1091800Y695150D03*
D13*
X1064450Y739800D03*
X1048950Y739800D03*
X1098450Y755200D03*
X1113950Y755200D03*
X1064650Y709800D03*
X1049150Y709800D03*
D12*
X1458800Y727250D03*
X1458800Y742750D03*
X1443800Y727150D03*
X1443800Y742650D03*
X1458800Y700050D03*
X1458800Y715550D03*
D13*
X856950Y608200D03*
X872450Y608200D03*
D12*
X1244900Y665750D03*
X1244900Y681250D03*
X1148200Y543350D03*
X1148200Y527850D03*
D13*
X1286550Y542200D03*
X1302050Y542200D03*
X1305350Y560200D03*
X1320850Y560200D03*
X1376250Y542200D03*
X1391750Y542200D03*
D15*
X717850Y495500D03*
X747350Y495500D03*
X717750Y521500D03*
X747250Y521500D03*
X717650Y607500D03*
X747150Y607500D03*
X717550Y632500D03*
X747050Y632500D03*
X717450Y719500D03*
X746950Y719500D03*
X717750Y744400D03*
X747250Y744400D03*
X717650Y831400D03*
X747150Y831400D03*
X717550Y856400D03*
X747050Y856400D03*
D14*
X830400Y901550D03*
X830400Y872050D03*
D13*
X1190350Y833900D03*
X1174850Y833900D03*
X856950Y644200D03*
X872450Y644200D03*
X856850Y680200D03*
X872350Y680200D03*
D12*
X1294200Y835850D03*
X1294200Y820350D03*
X1264100Y835650D03*
X1264100Y820150D03*
D13*
X1292750Y802900D03*
X1277250Y802900D03*
D16*
X1595500Y502200D03*
D17*
X1504500Y493450D03*
X1504500Y510950D03*
D18*
X1008950Y740600D03*
X1024450Y740600D03*
X975600Y732150D03*
X975600Y716650D03*
X1095650Y588400D03*
X1080150Y588400D03*
X1308250Y985600D03*
X1323750Y985600D03*
X960600Y731850D03*
X960600Y716350D03*
X1095950Y573400D03*
X1080450Y573400D03*
D19*
X1125025Y888475D02*
X1139675Y888475D01*
X1125025Y888475D02*
X1125025Y892825D01*
X1139675Y892825D01*
X1139675Y888475D01*
X1139675Y889852D02*
X1125025Y889852D01*
X1125025Y891229D02*
X1139675Y891229D01*
X1139675Y892606D02*
X1125025Y892606D01*
X1125025Y875775D02*
X1139675Y875775D01*
X1125025Y875775D02*
X1125025Y880125D01*
X1139675Y880125D01*
X1139675Y875775D01*
X1139675Y877152D02*
X1125025Y877152D01*
X1125025Y878529D02*
X1139675Y878529D01*
X1139675Y879906D02*
X1125025Y879906D01*
X1125025Y863075D02*
X1139675Y863075D01*
X1125025Y863075D02*
X1125025Y867425D01*
X1139675Y867425D01*
X1139675Y863075D01*
X1139675Y864452D02*
X1125025Y864452D01*
X1125025Y865829D02*
X1139675Y865829D01*
X1139675Y867206D02*
X1125025Y867206D01*
X1125025Y850375D02*
X1139675Y850375D01*
X1125025Y850375D02*
X1125025Y854725D01*
X1139675Y854725D01*
X1139675Y850375D01*
X1139675Y851752D02*
X1125025Y851752D01*
X1125025Y853129D02*
X1139675Y853129D01*
X1139675Y854506D02*
X1125025Y854506D01*
X1197125Y850375D02*
X1211775Y850375D01*
X1197125Y850375D02*
X1197125Y854725D01*
X1211775Y854725D01*
X1211775Y850375D01*
X1211775Y851752D02*
X1197125Y851752D01*
X1197125Y853129D02*
X1211775Y853129D01*
X1211775Y854506D02*
X1197125Y854506D01*
X1197125Y863075D02*
X1211775Y863075D01*
X1197125Y863075D02*
X1197125Y867425D01*
X1211775Y867425D01*
X1211775Y863075D01*
X1211775Y864452D02*
X1197125Y864452D01*
X1197125Y865829D02*
X1211775Y865829D01*
X1211775Y867206D02*
X1197125Y867206D01*
X1197125Y875775D02*
X1211775Y875775D01*
X1197125Y875775D02*
X1197125Y880125D01*
X1211775Y880125D01*
X1211775Y875775D01*
X1211775Y877152D02*
X1197125Y877152D01*
X1197125Y878529D02*
X1211775Y878529D01*
X1211775Y879906D02*
X1197125Y879906D01*
X1197125Y888475D02*
X1211775Y888475D01*
X1197125Y888475D02*
X1197125Y892825D01*
X1211775Y892825D01*
X1211775Y888475D01*
X1211775Y889852D02*
X1197125Y889852D01*
X1197125Y891229D02*
X1211775Y891229D01*
X1211775Y892606D02*
X1197125Y892606D01*
D20*
X1180300Y619000D03*
X1180300Y608000D03*
X1180300Y597000D03*
X1180300Y586000D03*
X1180300Y575000D03*
X1180300Y564000D03*
X1180300Y553000D03*
X1180300Y542000D03*
X1180300Y531000D03*
X1270300Y531000D03*
X1270300Y542000D03*
X1270300Y553000D03*
X1270300Y564000D03*
X1270300Y575000D03*
X1270300Y586000D03*
X1270300Y597000D03*
X1270300Y608000D03*
X1270300Y619000D03*
D21*
X1094000Y653350D03*
X1094000Y646850D03*
X1094000Y640350D03*
X1094000Y659850D03*
X1110000Y646850D03*
X1110000Y653350D03*
X1110000Y659850D03*
X1110000Y640350D03*
D22*
X1575700Y717100D03*
X1550300Y717100D03*
X1524900Y717100D03*
X1499500Y717100D03*
X1499500Y549500D03*
X1524900Y549500D03*
X1550300Y549500D03*
X1575700Y549500D03*
D23*
X1427700Y536000D03*
X1427700Y542500D03*
X1427700Y549000D03*
X1405700Y549000D03*
X1405700Y542500D03*
X1405700Y536000D03*
D24*
X1064100Y863000D03*
X1053100Y863000D03*
X1042100Y863000D03*
X1031100Y863000D03*
X1020100Y863000D03*
X1009100Y863000D03*
X998100Y863000D03*
X987100Y863000D03*
D25*
X1107550Y869300D03*
D26*
X963650Y867800D03*
D27*
X967650Y889300D03*
D28*
X968200Y979300D03*
D29*
X986700Y990550D03*
X1064500Y990550D03*
D26*
X1107550Y982600D03*
D12*
X1162800Y527650D03*
X1162800Y543150D03*
D13*
X1349550Y542200D03*
X1365050Y542200D03*
D18*
X1203750Y651600D03*
X1219250Y651600D03*
D30*
X1334775Y546200D02*
X1334777Y546250D01*
X1334783Y546299D01*
X1334793Y546348D01*
X1334806Y546395D01*
X1334824Y546442D01*
X1334845Y546487D01*
X1334869Y546530D01*
X1334897Y546571D01*
X1334928Y546610D01*
X1334962Y546646D01*
X1334999Y546680D01*
X1335039Y546710D01*
X1335080Y546737D01*
X1335124Y546761D01*
X1335169Y546781D01*
X1335216Y546797D01*
X1335264Y546810D01*
X1335313Y546819D01*
X1335363Y546824D01*
X1335412Y546825D01*
X1335462Y546822D01*
X1335511Y546815D01*
X1335560Y546804D01*
X1335607Y546790D01*
X1335653Y546771D01*
X1335698Y546749D01*
X1335741Y546724D01*
X1335781Y546695D01*
X1335819Y546663D01*
X1335855Y546629D01*
X1335888Y546591D01*
X1335917Y546551D01*
X1335943Y546509D01*
X1335966Y546465D01*
X1335985Y546419D01*
X1336001Y546372D01*
X1336013Y546323D01*
X1336021Y546274D01*
X1336025Y546225D01*
X1336025Y546175D01*
X1336021Y546126D01*
X1336013Y546077D01*
X1336001Y546028D01*
X1335985Y545981D01*
X1335966Y545935D01*
X1335943Y545891D01*
X1335917Y545849D01*
X1335888Y545809D01*
X1335855Y545771D01*
X1335819Y545737D01*
X1335781Y545705D01*
X1335741Y545676D01*
X1335698Y545651D01*
X1335653Y545629D01*
X1335607Y545610D01*
X1335560Y545596D01*
X1335511Y545585D01*
X1335462Y545578D01*
X1335412Y545575D01*
X1335363Y545576D01*
X1335313Y545581D01*
X1335264Y545590D01*
X1335216Y545603D01*
X1335169Y545619D01*
X1335124Y545639D01*
X1335080Y545663D01*
X1335039Y545690D01*
X1334999Y545720D01*
X1334962Y545754D01*
X1334928Y545790D01*
X1334897Y545829D01*
X1334869Y545870D01*
X1334845Y545913D01*
X1334824Y545958D01*
X1334806Y546005D01*
X1334793Y546052D01*
X1334783Y546101D01*
X1334777Y546150D01*
X1334775Y546200D01*
X1334775Y542200D02*
X1334777Y542250D01*
X1334783Y542299D01*
X1334793Y542348D01*
X1334806Y542395D01*
X1334824Y542442D01*
X1334845Y542487D01*
X1334869Y542530D01*
X1334897Y542571D01*
X1334928Y542610D01*
X1334962Y542646D01*
X1334999Y542680D01*
X1335039Y542710D01*
X1335080Y542737D01*
X1335124Y542761D01*
X1335169Y542781D01*
X1335216Y542797D01*
X1335264Y542810D01*
X1335313Y542819D01*
X1335363Y542824D01*
X1335412Y542825D01*
X1335462Y542822D01*
X1335511Y542815D01*
X1335560Y542804D01*
X1335607Y542790D01*
X1335653Y542771D01*
X1335698Y542749D01*
X1335741Y542724D01*
X1335781Y542695D01*
X1335819Y542663D01*
X1335855Y542629D01*
X1335888Y542591D01*
X1335917Y542551D01*
X1335943Y542509D01*
X1335966Y542465D01*
X1335985Y542419D01*
X1336001Y542372D01*
X1336013Y542323D01*
X1336021Y542274D01*
X1336025Y542225D01*
X1336025Y542175D01*
X1336021Y542126D01*
X1336013Y542077D01*
X1336001Y542028D01*
X1335985Y541981D01*
X1335966Y541935D01*
X1335943Y541891D01*
X1335917Y541849D01*
X1335888Y541809D01*
X1335855Y541771D01*
X1335819Y541737D01*
X1335781Y541705D01*
X1335741Y541676D01*
X1335698Y541651D01*
X1335653Y541629D01*
X1335607Y541610D01*
X1335560Y541596D01*
X1335511Y541585D01*
X1335462Y541578D01*
X1335412Y541575D01*
X1335363Y541576D01*
X1335313Y541581D01*
X1335264Y541590D01*
X1335216Y541603D01*
X1335169Y541619D01*
X1335124Y541639D01*
X1335080Y541663D01*
X1335039Y541690D01*
X1334999Y541720D01*
X1334962Y541754D01*
X1334928Y541790D01*
X1334897Y541829D01*
X1334869Y541870D01*
X1334845Y541913D01*
X1334824Y541958D01*
X1334806Y542005D01*
X1334793Y542052D01*
X1334783Y542101D01*
X1334777Y542150D01*
X1334775Y542200D01*
X1338775Y542200D02*
X1338777Y542250D01*
X1338783Y542299D01*
X1338793Y542348D01*
X1338806Y542395D01*
X1338824Y542442D01*
X1338845Y542487D01*
X1338869Y542530D01*
X1338897Y542571D01*
X1338928Y542610D01*
X1338962Y542646D01*
X1338999Y542680D01*
X1339039Y542710D01*
X1339080Y542737D01*
X1339124Y542761D01*
X1339169Y542781D01*
X1339216Y542797D01*
X1339264Y542810D01*
X1339313Y542819D01*
X1339363Y542824D01*
X1339412Y542825D01*
X1339462Y542822D01*
X1339511Y542815D01*
X1339560Y542804D01*
X1339607Y542790D01*
X1339653Y542771D01*
X1339698Y542749D01*
X1339741Y542724D01*
X1339781Y542695D01*
X1339819Y542663D01*
X1339855Y542629D01*
X1339888Y542591D01*
X1339917Y542551D01*
X1339943Y542509D01*
X1339966Y542465D01*
X1339985Y542419D01*
X1340001Y542372D01*
X1340013Y542323D01*
X1340021Y542274D01*
X1340025Y542225D01*
X1340025Y542175D01*
X1340021Y542126D01*
X1340013Y542077D01*
X1340001Y542028D01*
X1339985Y541981D01*
X1339966Y541935D01*
X1339943Y541891D01*
X1339917Y541849D01*
X1339888Y541809D01*
X1339855Y541771D01*
X1339819Y541737D01*
X1339781Y541705D01*
X1339741Y541676D01*
X1339698Y541651D01*
X1339653Y541629D01*
X1339607Y541610D01*
X1339560Y541596D01*
X1339511Y541585D01*
X1339462Y541578D01*
X1339412Y541575D01*
X1339363Y541576D01*
X1339313Y541581D01*
X1339264Y541590D01*
X1339216Y541603D01*
X1339169Y541619D01*
X1339124Y541639D01*
X1339080Y541663D01*
X1339039Y541690D01*
X1338999Y541720D01*
X1338962Y541754D01*
X1338928Y541790D01*
X1338897Y541829D01*
X1338869Y541870D01*
X1338845Y541913D01*
X1338824Y541958D01*
X1338806Y542005D01*
X1338793Y542052D01*
X1338783Y542101D01*
X1338777Y542150D01*
X1338775Y542200D01*
D31*
X1335400Y538200D03*
X1339400Y546200D03*
X1339400Y546200D03*
X1335400Y538200D03*
D30*
X1334775Y538200D02*
X1334777Y538250D01*
X1334783Y538299D01*
X1334793Y538348D01*
X1334806Y538395D01*
X1334824Y538442D01*
X1334845Y538487D01*
X1334869Y538530D01*
X1334897Y538571D01*
X1334928Y538610D01*
X1334962Y538646D01*
X1334999Y538680D01*
X1335039Y538710D01*
X1335080Y538737D01*
X1335124Y538761D01*
X1335169Y538781D01*
X1335216Y538797D01*
X1335264Y538810D01*
X1335313Y538819D01*
X1335363Y538824D01*
X1335412Y538825D01*
X1335462Y538822D01*
X1335511Y538815D01*
X1335560Y538804D01*
X1335607Y538790D01*
X1335653Y538771D01*
X1335698Y538749D01*
X1335741Y538724D01*
X1335781Y538695D01*
X1335819Y538663D01*
X1335855Y538629D01*
X1335888Y538591D01*
X1335917Y538551D01*
X1335943Y538509D01*
X1335966Y538465D01*
X1335985Y538419D01*
X1336001Y538372D01*
X1336013Y538323D01*
X1336021Y538274D01*
X1336025Y538225D01*
X1336025Y538175D01*
X1336021Y538126D01*
X1336013Y538077D01*
X1336001Y538028D01*
X1335985Y537981D01*
X1335966Y537935D01*
X1335943Y537891D01*
X1335917Y537849D01*
X1335888Y537809D01*
X1335855Y537771D01*
X1335819Y537737D01*
X1335781Y537705D01*
X1335741Y537676D01*
X1335698Y537651D01*
X1335653Y537629D01*
X1335607Y537610D01*
X1335560Y537596D01*
X1335511Y537585D01*
X1335462Y537578D01*
X1335412Y537575D01*
X1335363Y537576D01*
X1335313Y537581D01*
X1335264Y537590D01*
X1335216Y537603D01*
X1335169Y537619D01*
X1335124Y537639D01*
X1335080Y537663D01*
X1335039Y537690D01*
X1334999Y537720D01*
X1334962Y537754D01*
X1334928Y537790D01*
X1334897Y537829D01*
X1334869Y537870D01*
X1334845Y537913D01*
X1334824Y537958D01*
X1334806Y538005D01*
X1334793Y538052D01*
X1334783Y538101D01*
X1334777Y538150D01*
X1334775Y538200D01*
D31*
X1339400Y546200D03*
D30*
X1338775Y546200D02*
X1338777Y546250D01*
X1338783Y546299D01*
X1338793Y546348D01*
X1338806Y546395D01*
X1338824Y546442D01*
X1338845Y546487D01*
X1338869Y546530D01*
X1338897Y546571D01*
X1338928Y546610D01*
X1338962Y546646D01*
X1338999Y546680D01*
X1339039Y546710D01*
X1339080Y546737D01*
X1339124Y546761D01*
X1339169Y546781D01*
X1339216Y546797D01*
X1339264Y546810D01*
X1339313Y546819D01*
X1339363Y546824D01*
X1339412Y546825D01*
X1339462Y546822D01*
X1339511Y546815D01*
X1339560Y546804D01*
X1339607Y546790D01*
X1339653Y546771D01*
X1339698Y546749D01*
X1339741Y546724D01*
X1339781Y546695D01*
X1339819Y546663D01*
X1339855Y546629D01*
X1339888Y546591D01*
X1339917Y546551D01*
X1339943Y546509D01*
X1339966Y546465D01*
X1339985Y546419D01*
X1340001Y546372D01*
X1340013Y546323D01*
X1340021Y546274D01*
X1340025Y546225D01*
X1340025Y546175D01*
X1340021Y546126D01*
X1340013Y546077D01*
X1340001Y546028D01*
X1339985Y545981D01*
X1339966Y545935D01*
X1339943Y545891D01*
X1339917Y545849D01*
X1339888Y545809D01*
X1339855Y545771D01*
X1339819Y545737D01*
X1339781Y545705D01*
X1339741Y545676D01*
X1339698Y545651D01*
X1339653Y545629D01*
X1339607Y545610D01*
X1339560Y545596D01*
X1339511Y545585D01*
X1339462Y545578D01*
X1339412Y545575D01*
X1339363Y545576D01*
X1339313Y545581D01*
X1339264Y545590D01*
X1339216Y545603D01*
X1339169Y545619D01*
X1339124Y545639D01*
X1339080Y545663D01*
X1339039Y545690D01*
X1338999Y545720D01*
X1338962Y545754D01*
X1338928Y545790D01*
X1338897Y545829D01*
X1338869Y545870D01*
X1338845Y545913D01*
X1338824Y545958D01*
X1338806Y546005D01*
X1338793Y546052D01*
X1338783Y546101D01*
X1338777Y546150D01*
X1338775Y546200D01*
X1338775Y538200D02*
X1338777Y538250D01*
X1338783Y538299D01*
X1338793Y538348D01*
X1338806Y538395D01*
X1338824Y538442D01*
X1338845Y538487D01*
X1338869Y538530D01*
X1338897Y538571D01*
X1338928Y538610D01*
X1338962Y538646D01*
X1338999Y538680D01*
X1339039Y538710D01*
X1339080Y538737D01*
X1339124Y538761D01*
X1339169Y538781D01*
X1339216Y538797D01*
X1339264Y538810D01*
X1339313Y538819D01*
X1339363Y538824D01*
X1339412Y538825D01*
X1339462Y538822D01*
X1339511Y538815D01*
X1339560Y538804D01*
X1339607Y538790D01*
X1339653Y538771D01*
X1339698Y538749D01*
X1339741Y538724D01*
X1339781Y538695D01*
X1339819Y538663D01*
X1339855Y538629D01*
X1339888Y538591D01*
X1339917Y538551D01*
X1339943Y538509D01*
X1339966Y538465D01*
X1339985Y538419D01*
X1340001Y538372D01*
X1340013Y538323D01*
X1340021Y538274D01*
X1340025Y538225D01*
X1340025Y538175D01*
X1340021Y538126D01*
X1340013Y538077D01*
X1340001Y538028D01*
X1339985Y537981D01*
X1339966Y537935D01*
X1339943Y537891D01*
X1339917Y537849D01*
X1339888Y537809D01*
X1339855Y537771D01*
X1339819Y537737D01*
X1339781Y537705D01*
X1339741Y537676D01*
X1339698Y537651D01*
X1339653Y537629D01*
X1339607Y537610D01*
X1339560Y537596D01*
X1339511Y537585D01*
X1339462Y537578D01*
X1339412Y537575D01*
X1339363Y537576D01*
X1339313Y537581D01*
X1339264Y537590D01*
X1339216Y537603D01*
X1339169Y537619D01*
X1339124Y537639D01*
X1339080Y537663D01*
X1339039Y537690D01*
X1338999Y537720D01*
X1338962Y537754D01*
X1338928Y537790D01*
X1338897Y537829D01*
X1338869Y537870D01*
X1338845Y537913D01*
X1338824Y537958D01*
X1338806Y538005D01*
X1338793Y538052D01*
X1338783Y538101D01*
X1338777Y538150D01*
X1338775Y538200D01*
D13*
X1154650Y908800D03*
X1139150Y908800D03*
X1182150Y908700D03*
X1166650Y908700D03*
X1110050Y613700D03*
X1094550Y613700D03*
X1324350Y955600D03*
X1308850Y955600D03*
X1150150Y722700D03*
X1134650Y722700D03*
X739450Y542000D03*
X754950Y542000D03*
D12*
X1070300Y834250D03*
X1070300Y818750D03*
X1106700Y679650D03*
X1106700Y695150D03*
X975300Y704550D03*
X975300Y689050D03*
D13*
X1231750Y651300D03*
X1247250Y651300D03*
D12*
X809000Y879850D03*
X809000Y864350D03*
X809000Y906950D03*
X809000Y891450D03*
D13*
X710950Y542000D03*
X726450Y542000D03*
X738850Y653000D03*
X754350Y653000D03*
X1051850Y588300D03*
X1067350Y588300D03*
D12*
X1233700Y820650D03*
X1233700Y836150D03*
D13*
X710750Y653000D03*
X726250Y653000D03*
X739650Y764000D03*
X755150Y764000D03*
X711550Y764000D03*
X727050Y764000D03*
X739450Y876000D03*
X754950Y876000D03*
X1308750Y971300D03*
X1324250Y971300D03*
X711350Y876000D03*
X726850Y876000D03*
D12*
X1248700Y820550D03*
X1248700Y836050D03*
X1055700Y818950D03*
X1055700Y834450D03*
X1227700Y693450D03*
X1227700Y708950D03*
D13*
X709250Y577000D03*
X724750Y577000D03*
X739150Y577000D03*
X754650Y577000D03*
X709250Y562000D03*
X724750Y562000D03*
X739150Y562000D03*
X754650Y562000D03*
D12*
X960400Y704450D03*
X960400Y688950D03*
D13*
X1067550Y573600D03*
X1052050Y573600D03*
X1209650Y908700D03*
X1194150Y908700D03*
D12*
X876000Y463650D03*
X876000Y479150D03*
X875900Y490850D03*
X875900Y506350D03*
D13*
X1023750Y726600D03*
X1008250Y726600D03*
X710650Y689100D03*
X726150Y689100D03*
X738550Y689100D03*
X754050Y689100D03*
X710450Y674100D03*
X725950Y674100D03*
X738350Y674100D03*
X753850Y674100D03*
D12*
X1259300Y917750D03*
X1259300Y902250D03*
X993400Y834950D03*
X993400Y819450D03*
X1127400Y639050D03*
X1127400Y623550D03*
D13*
X711050Y800100D03*
X726550Y800100D03*
X739950Y800100D03*
X755450Y800100D03*
X710850Y785100D03*
X726350Y785100D03*
X739750Y785100D03*
X755250Y785100D03*
X755850Y468700D03*
X740350Y468700D03*
D12*
X1126600Y650850D03*
X1126600Y666350D03*
X1156600Y634750D03*
X1156600Y650250D03*
X1178600Y634650D03*
X1178600Y650150D03*
X1023400Y834450D03*
X1023400Y818950D03*
X1008400Y834550D03*
X1008400Y819050D03*
X1040400Y834650D03*
X1040400Y819150D03*
D13*
X691450Y908100D03*
X706950Y908100D03*
X718350Y908100D03*
X733850Y908100D03*
X711250Y893100D03*
X726750Y893100D03*
X1109950Y628700D03*
X1094450Y628700D03*
X738150Y893100D03*
X753650Y893100D03*
X1307950Y834400D03*
X1323450Y834400D03*
X1323550Y819500D03*
X1308050Y819500D03*
X1331150Y919600D03*
X1315650Y919600D03*
X1331250Y934600D03*
X1315750Y934600D03*
D32*
X1198500Y793800D02*
X1190750Y793800D01*
X1190750Y794800D01*
X1198500Y794800D01*
X1198500Y793800D01*
X1198500Y794750D02*
X1190750Y794750D01*
X1190750Y789800D02*
X1198500Y789800D01*
X1190750Y789800D02*
X1190750Y790800D01*
X1198500Y790800D01*
X1198500Y789800D01*
X1198500Y790750D02*
X1190750Y790750D01*
X1190750Y785800D02*
X1198500Y785800D01*
X1190750Y785800D02*
X1190750Y786800D01*
X1198500Y786800D01*
X1198500Y785800D01*
X1198500Y786750D02*
X1190750Y786750D01*
X1190750Y781800D02*
X1198500Y781800D01*
X1190750Y781800D02*
X1190750Y782800D01*
X1198500Y782800D01*
X1198500Y781800D01*
X1198500Y782750D02*
X1190750Y782750D01*
X1190750Y777800D02*
X1198500Y777800D01*
X1190750Y777800D02*
X1190750Y778800D01*
X1198500Y778800D01*
X1198500Y777800D01*
X1198500Y778750D02*
X1190750Y778750D01*
X1190750Y773800D02*
X1198500Y773800D01*
X1190750Y773800D02*
X1190750Y774800D01*
X1198500Y774800D01*
X1198500Y773800D01*
X1198500Y774750D02*
X1190750Y774750D01*
X1190750Y769800D02*
X1198500Y769800D01*
X1190750Y769800D02*
X1190750Y770800D01*
X1198500Y770800D01*
X1198500Y769800D01*
X1198500Y770750D02*
X1190750Y770750D01*
X1190750Y765800D02*
X1198500Y765800D01*
X1190750Y765800D02*
X1190750Y766800D01*
X1198500Y766800D01*
X1198500Y765800D01*
X1198500Y766750D02*
X1190750Y766750D01*
X1190750Y761800D02*
X1198500Y761800D01*
X1190750Y761800D02*
X1190750Y762800D01*
X1198500Y762800D01*
X1198500Y761800D01*
X1198500Y762750D02*
X1190750Y762750D01*
X1190750Y757800D02*
X1198500Y757800D01*
X1190750Y757800D02*
X1190750Y758800D01*
X1198500Y758800D01*
X1198500Y757800D01*
X1198500Y758750D02*
X1190750Y758750D01*
X1190750Y753800D02*
X1198500Y753800D01*
X1190750Y753800D02*
X1190750Y754800D01*
X1198500Y754800D01*
X1198500Y753800D01*
X1198500Y754750D02*
X1190750Y754750D01*
X1190750Y749800D02*
X1198500Y749800D01*
X1190750Y749800D02*
X1190750Y750800D01*
X1198500Y750800D01*
X1198500Y749800D01*
X1198500Y750750D02*
X1190750Y750750D01*
X1190750Y745800D02*
X1198500Y745800D01*
X1190750Y745800D02*
X1190750Y746800D01*
X1198500Y746800D01*
X1198500Y745800D01*
X1198500Y746750D02*
X1190750Y746750D01*
X1190750Y741800D02*
X1198500Y741800D01*
X1190750Y741800D02*
X1190750Y742800D01*
X1198500Y742800D01*
X1198500Y741800D01*
X1198500Y742750D02*
X1190750Y742750D01*
X1203500Y737800D02*
X1203500Y730050D01*
X1202500Y730050D01*
X1202500Y737800D01*
X1203500Y737800D01*
X1203500Y731000D02*
X1202500Y731000D01*
X1202500Y731950D02*
X1203500Y731950D01*
X1203500Y732900D02*
X1202500Y732900D01*
X1202500Y733850D02*
X1203500Y733850D01*
X1203500Y734800D02*
X1202500Y734800D01*
X1202500Y735750D02*
X1203500Y735750D01*
X1203500Y736700D02*
X1202500Y736700D01*
X1202500Y737650D02*
X1203500Y737650D01*
X1207500Y737800D02*
X1207500Y730050D01*
X1206500Y730050D01*
X1206500Y737800D01*
X1207500Y737800D01*
X1207500Y731000D02*
X1206500Y731000D01*
X1206500Y731950D02*
X1207500Y731950D01*
X1207500Y732900D02*
X1206500Y732900D01*
X1206500Y733850D02*
X1207500Y733850D01*
X1207500Y734800D02*
X1206500Y734800D01*
X1206500Y735750D02*
X1207500Y735750D01*
X1207500Y736700D02*
X1206500Y736700D01*
X1206500Y737650D02*
X1207500Y737650D01*
X1211500Y737800D02*
X1211500Y730050D01*
X1210500Y730050D01*
X1210500Y737800D01*
X1211500Y737800D01*
X1211500Y731000D02*
X1210500Y731000D01*
X1210500Y731950D02*
X1211500Y731950D01*
X1211500Y732900D02*
X1210500Y732900D01*
X1210500Y733850D02*
X1211500Y733850D01*
X1211500Y734800D02*
X1210500Y734800D01*
X1210500Y735750D02*
X1211500Y735750D01*
X1211500Y736700D02*
X1210500Y736700D01*
X1210500Y737650D02*
X1211500Y737650D01*
X1215500Y737800D02*
X1215500Y730050D01*
X1214500Y730050D01*
X1214500Y737800D01*
X1215500Y737800D01*
X1215500Y731000D02*
X1214500Y731000D01*
X1214500Y731950D02*
X1215500Y731950D01*
X1215500Y732900D02*
X1214500Y732900D01*
X1214500Y733850D02*
X1215500Y733850D01*
X1215500Y734800D02*
X1214500Y734800D01*
X1214500Y735750D02*
X1215500Y735750D01*
X1215500Y736700D02*
X1214500Y736700D01*
X1214500Y737650D02*
X1215500Y737650D01*
X1219500Y737800D02*
X1219500Y730050D01*
X1218500Y730050D01*
X1218500Y737800D01*
X1219500Y737800D01*
X1219500Y731000D02*
X1218500Y731000D01*
X1218500Y731950D02*
X1219500Y731950D01*
X1219500Y732900D02*
X1218500Y732900D01*
X1218500Y733850D02*
X1219500Y733850D01*
X1219500Y734800D02*
X1218500Y734800D01*
X1218500Y735750D02*
X1219500Y735750D01*
X1219500Y736700D02*
X1218500Y736700D01*
X1218500Y737650D02*
X1219500Y737650D01*
X1223500Y737800D02*
X1223500Y730050D01*
X1222500Y730050D01*
X1222500Y737800D01*
X1223500Y737800D01*
X1223500Y731000D02*
X1222500Y731000D01*
X1222500Y731950D02*
X1223500Y731950D01*
X1223500Y732900D02*
X1222500Y732900D01*
X1222500Y733850D02*
X1223500Y733850D01*
X1223500Y734800D02*
X1222500Y734800D01*
X1222500Y735750D02*
X1223500Y735750D01*
X1223500Y736700D02*
X1222500Y736700D01*
X1222500Y737650D02*
X1223500Y737650D01*
X1227500Y737800D02*
X1227500Y730050D01*
X1226500Y730050D01*
X1226500Y737800D01*
X1227500Y737800D01*
X1227500Y731000D02*
X1226500Y731000D01*
X1226500Y731950D02*
X1227500Y731950D01*
X1227500Y732900D02*
X1226500Y732900D01*
X1226500Y733850D02*
X1227500Y733850D01*
X1227500Y734800D02*
X1226500Y734800D01*
X1226500Y735750D02*
X1227500Y735750D01*
X1227500Y736700D02*
X1226500Y736700D01*
X1226500Y737650D02*
X1227500Y737650D01*
X1231500Y737800D02*
X1231500Y730050D01*
X1230500Y730050D01*
X1230500Y737800D01*
X1231500Y737800D01*
X1231500Y731000D02*
X1230500Y731000D01*
X1230500Y731950D02*
X1231500Y731950D01*
X1231500Y732900D02*
X1230500Y732900D01*
X1230500Y733850D02*
X1231500Y733850D01*
X1231500Y734800D02*
X1230500Y734800D01*
X1230500Y735750D02*
X1231500Y735750D01*
X1231500Y736700D02*
X1230500Y736700D01*
X1230500Y737650D02*
X1231500Y737650D01*
X1235500Y737800D02*
X1235500Y730050D01*
X1234500Y730050D01*
X1234500Y737800D01*
X1235500Y737800D01*
X1235500Y731000D02*
X1234500Y731000D01*
X1234500Y731950D02*
X1235500Y731950D01*
X1235500Y732900D02*
X1234500Y732900D01*
X1234500Y733850D02*
X1235500Y733850D01*
X1235500Y734800D02*
X1234500Y734800D01*
X1234500Y735750D02*
X1235500Y735750D01*
X1235500Y736700D02*
X1234500Y736700D01*
X1234500Y737650D02*
X1235500Y737650D01*
X1239500Y737800D02*
X1239500Y730050D01*
X1238500Y730050D01*
X1238500Y737800D01*
X1239500Y737800D01*
X1239500Y731000D02*
X1238500Y731000D01*
X1238500Y731950D02*
X1239500Y731950D01*
X1239500Y732900D02*
X1238500Y732900D01*
X1238500Y733850D02*
X1239500Y733850D01*
X1239500Y734800D02*
X1238500Y734800D01*
X1238500Y735750D02*
X1239500Y735750D01*
X1239500Y736700D02*
X1238500Y736700D01*
X1238500Y737650D02*
X1239500Y737650D01*
X1243500Y737800D02*
X1243500Y730050D01*
X1242500Y730050D01*
X1242500Y737800D01*
X1243500Y737800D01*
X1243500Y731000D02*
X1242500Y731000D01*
X1242500Y731950D02*
X1243500Y731950D01*
X1243500Y732900D02*
X1242500Y732900D01*
X1242500Y733850D02*
X1243500Y733850D01*
X1243500Y734800D02*
X1242500Y734800D01*
X1242500Y735750D02*
X1243500Y735750D01*
X1243500Y736700D02*
X1242500Y736700D01*
X1242500Y737650D02*
X1243500Y737650D01*
X1247500Y737800D02*
X1247500Y730050D01*
X1246500Y730050D01*
X1246500Y737800D01*
X1247500Y737800D01*
X1247500Y731000D02*
X1246500Y731000D01*
X1246500Y731950D02*
X1247500Y731950D01*
X1247500Y732900D02*
X1246500Y732900D01*
X1246500Y733850D02*
X1247500Y733850D01*
X1247500Y734800D02*
X1246500Y734800D01*
X1246500Y735750D02*
X1247500Y735750D01*
X1247500Y736700D02*
X1246500Y736700D01*
X1246500Y737650D02*
X1247500Y737650D01*
X1251500Y737800D02*
X1251500Y730050D01*
X1250500Y730050D01*
X1250500Y737800D01*
X1251500Y737800D01*
X1251500Y731000D02*
X1250500Y731000D01*
X1250500Y731950D02*
X1251500Y731950D01*
X1251500Y732900D02*
X1250500Y732900D01*
X1250500Y733850D02*
X1251500Y733850D01*
X1251500Y734800D02*
X1250500Y734800D01*
X1250500Y735750D02*
X1251500Y735750D01*
X1251500Y736700D02*
X1250500Y736700D01*
X1250500Y737650D02*
X1251500Y737650D01*
X1255500Y737800D02*
X1255500Y730050D01*
X1254500Y730050D01*
X1254500Y737800D01*
X1255500Y737800D01*
X1255500Y731000D02*
X1254500Y731000D01*
X1254500Y731950D02*
X1255500Y731950D01*
X1255500Y732900D02*
X1254500Y732900D01*
X1254500Y733850D02*
X1255500Y733850D01*
X1255500Y734800D02*
X1254500Y734800D01*
X1254500Y735750D02*
X1255500Y735750D01*
X1255500Y736700D02*
X1254500Y736700D01*
X1254500Y737650D02*
X1255500Y737650D01*
X1259500Y742800D02*
X1267250Y742800D01*
X1267250Y741800D01*
X1259500Y741800D01*
X1259500Y742800D01*
X1259500Y742750D02*
X1267250Y742750D01*
X1267250Y746800D02*
X1259500Y746800D01*
X1267250Y746800D02*
X1267250Y745800D01*
X1259500Y745800D01*
X1259500Y746800D01*
X1259500Y746750D02*
X1267250Y746750D01*
X1267250Y750800D02*
X1259500Y750800D01*
X1267250Y750800D02*
X1267250Y749800D01*
X1259500Y749800D01*
X1259500Y750800D01*
X1259500Y750750D02*
X1267250Y750750D01*
X1267250Y754800D02*
X1259500Y754800D01*
X1267250Y754800D02*
X1267250Y753800D01*
X1259500Y753800D01*
X1259500Y754800D01*
X1259500Y754750D02*
X1267250Y754750D01*
X1267250Y758800D02*
X1259500Y758800D01*
X1267250Y758800D02*
X1267250Y757800D01*
X1259500Y757800D01*
X1259500Y758800D01*
X1259500Y758750D02*
X1267250Y758750D01*
X1267250Y762800D02*
X1259500Y762800D01*
X1267250Y762800D02*
X1267250Y761800D01*
X1259500Y761800D01*
X1259500Y762800D01*
X1259500Y762750D02*
X1267250Y762750D01*
X1267250Y766800D02*
X1259500Y766800D01*
X1267250Y766800D02*
X1267250Y765800D01*
X1259500Y765800D01*
X1259500Y766800D01*
X1259500Y766750D02*
X1267250Y766750D01*
X1267250Y770800D02*
X1259500Y770800D01*
X1267250Y770800D02*
X1267250Y769800D01*
X1259500Y769800D01*
X1259500Y770800D01*
X1259500Y770750D02*
X1267250Y770750D01*
X1267250Y774800D02*
X1259500Y774800D01*
X1267250Y774800D02*
X1267250Y773800D01*
X1259500Y773800D01*
X1259500Y774800D01*
X1259500Y774750D02*
X1267250Y774750D01*
X1267250Y778800D02*
X1259500Y778800D01*
X1267250Y778800D02*
X1267250Y777800D01*
X1259500Y777800D01*
X1259500Y778800D01*
X1259500Y778750D02*
X1267250Y778750D01*
X1267250Y782800D02*
X1259500Y782800D01*
X1267250Y782800D02*
X1267250Y781800D01*
X1259500Y781800D01*
X1259500Y782800D01*
X1259500Y782750D02*
X1267250Y782750D01*
X1267250Y786800D02*
X1259500Y786800D01*
X1267250Y786800D02*
X1267250Y785800D01*
X1259500Y785800D01*
X1259500Y786800D01*
X1259500Y786750D02*
X1267250Y786750D01*
X1267250Y790800D02*
X1259500Y790800D01*
X1267250Y790800D02*
X1267250Y789800D01*
X1259500Y789800D01*
X1259500Y790800D01*
X1259500Y790750D02*
X1267250Y790750D01*
X1267250Y794800D02*
X1259500Y794800D01*
X1267250Y794800D02*
X1267250Y793800D01*
X1259500Y793800D01*
X1259500Y794800D01*
X1259500Y794750D02*
X1267250Y794750D01*
X1254500Y798800D02*
X1254500Y806550D01*
X1255500Y806550D01*
X1255500Y798800D01*
X1254500Y798800D01*
X1254500Y799750D02*
X1255500Y799750D01*
X1255500Y800700D02*
X1254500Y800700D01*
X1254500Y801650D02*
X1255500Y801650D01*
X1255500Y802600D02*
X1254500Y802600D01*
X1254500Y803550D02*
X1255500Y803550D01*
X1255500Y804500D02*
X1254500Y804500D01*
X1254500Y805450D02*
X1255500Y805450D01*
X1255500Y806400D02*
X1254500Y806400D01*
X1250500Y806550D02*
X1250500Y798800D01*
X1250500Y806550D02*
X1251500Y806550D01*
X1251500Y798800D01*
X1250500Y798800D01*
X1250500Y799750D02*
X1251500Y799750D01*
X1251500Y800700D02*
X1250500Y800700D01*
X1250500Y801650D02*
X1251500Y801650D01*
X1251500Y802600D02*
X1250500Y802600D01*
X1250500Y803550D02*
X1251500Y803550D01*
X1251500Y804500D02*
X1250500Y804500D01*
X1250500Y805450D02*
X1251500Y805450D01*
X1251500Y806400D02*
X1250500Y806400D01*
X1246500Y806550D02*
X1246500Y798800D01*
X1246500Y806550D02*
X1247500Y806550D01*
X1247500Y798800D01*
X1246500Y798800D01*
X1246500Y799750D02*
X1247500Y799750D01*
X1247500Y800700D02*
X1246500Y800700D01*
X1246500Y801650D02*
X1247500Y801650D01*
X1247500Y802600D02*
X1246500Y802600D01*
X1246500Y803550D02*
X1247500Y803550D01*
X1247500Y804500D02*
X1246500Y804500D01*
X1246500Y805450D02*
X1247500Y805450D01*
X1247500Y806400D02*
X1246500Y806400D01*
X1242500Y806550D02*
X1242500Y798800D01*
X1242500Y806550D02*
X1243500Y806550D01*
X1243500Y798800D01*
X1242500Y798800D01*
X1242500Y799750D02*
X1243500Y799750D01*
X1243500Y800700D02*
X1242500Y800700D01*
X1242500Y801650D02*
X1243500Y801650D01*
X1243500Y802600D02*
X1242500Y802600D01*
X1242500Y803550D02*
X1243500Y803550D01*
X1243500Y804500D02*
X1242500Y804500D01*
X1242500Y805450D02*
X1243500Y805450D01*
X1243500Y806400D02*
X1242500Y806400D01*
X1238500Y806550D02*
X1238500Y798800D01*
X1238500Y806550D02*
X1239500Y806550D01*
X1239500Y798800D01*
X1238500Y798800D01*
X1238500Y799750D02*
X1239500Y799750D01*
X1239500Y800700D02*
X1238500Y800700D01*
X1238500Y801650D02*
X1239500Y801650D01*
X1239500Y802600D02*
X1238500Y802600D01*
X1238500Y803550D02*
X1239500Y803550D01*
X1239500Y804500D02*
X1238500Y804500D01*
X1238500Y805450D02*
X1239500Y805450D01*
X1239500Y806400D02*
X1238500Y806400D01*
X1234500Y806550D02*
X1234500Y798800D01*
X1234500Y806550D02*
X1235500Y806550D01*
X1235500Y798800D01*
X1234500Y798800D01*
X1234500Y799750D02*
X1235500Y799750D01*
X1235500Y800700D02*
X1234500Y800700D01*
X1234500Y801650D02*
X1235500Y801650D01*
X1235500Y802600D02*
X1234500Y802600D01*
X1234500Y803550D02*
X1235500Y803550D01*
X1235500Y804500D02*
X1234500Y804500D01*
X1234500Y805450D02*
X1235500Y805450D01*
X1235500Y806400D02*
X1234500Y806400D01*
X1230500Y806550D02*
X1230500Y798800D01*
X1230500Y806550D02*
X1231500Y806550D01*
X1231500Y798800D01*
X1230500Y798800D01*
X1230500Y799750D02*
X1231500Y799750D01*
X1231500Y800700D02*
X1230500Y800700D01*
X1230500Y801650D02*
X1231500Y801650D01*
X1231500Y802600D02*
X1230500Y802600D01*
X1230500Y803550D02*
X1231500Y803550D01*
X1231500Y804500D02*
X1230500Y804500D01*
X1230500Y805450D02*
X1231500Y805450D01*
X1231500Y806400D02*
X1230500Y806400D01*
X1226500Y806550D02*
X1226500Y798800D01*
X1226500Y806550D02*
X1227500Y806550D01*
X1227500Y798800D01*
X1226500Y798800D01*
X1226500Y799750D02*
X1227500Y799750D01*
X1227500Y800700D02*
X1226500Y800700D01*
X1226500Y801650D02*
X1227500Y801650D01*
X1227500Y802600D02*
X1226500Y802600D01*
X1226500Y803550D02*
X1227500Y803550D01*
X1227500Y804500D02*
X1226500Y804500D01*
X1226500Y805450D02*
X1227500Y805450D01*
X1227500Y806400D02*
X1226500Y806400D01*
X1222500Y806550D02*
X1222500Y798800D01*
X1222500Y806550D02*
X1223500Y806550D01*
X1223500Y798800D01*
X1222500Y798800D01*
X1222500Y799750D02*
X1223500Y799750D01*
X1223500Y800700D02*
X1222500Y800700D01*
X1222500Y801650D02*
X1223500Y801650D01*
X1223500Y802600D02*
X1222500Y802600D01*
X1222500Y803550D02*
X1223500Y803550D01*
X1223500Y804500D02*
X1222500Y804500D01*
X1222500Y805450D02*
X1223500Y805450D01*
X1223500Y806400D02*
X1222500Y806400D01*
X1218500Y806550D02*
X1218500Y798800D01*
X1218500Y806550D02*
X1219500Y806550D01*
X1219500Y798800D01*
X1218500Y798800D01*
X1218500Y799750D02*
X1219500Y799750D01*
X1219500Y800700D02*
X1218500Y800700D01*
X1218500Y801650D02*
X1219500Y801650D01*
X1219500Y802600D02*
X1218500Y802600D01*
X1218500Y803550D02*
X1219500Y803550D01*
X1219500Y804500D02*
X1218500Y804500D01*
X1218500Y805450D02*
X1219500Y805450D01*
X1219500Y806400D02*
X1218500Y806400D01*
X1214500Y806550D02*
X1214500Y798800D01*
X1214500Y806550D02*
X1215500Y806550D01*
X1215500Y798800D01*
X1214500Y798800D01*
X1214500Y799750D02*
X1215500Y799750D01*
X1215500Y800700D02*
X1214500Y800700D01*
X1214500Y801650D02*
X1215500Y801650D01*
X1215500Y802600D02*
X1214500Y802600D01*
X1214500Y803550D02*
X1215500Y803550D01*
X1215500Y804500D02*
X1214500Y804500D01*
X1214500Y805450D02*
X1215500Y805450D01*
X1215500Y806400D02*
X1214500Y806400D01*
X1210500Y806550D02*
X1210500Y798800D01*
X1210500Y806550D02*
X1211500Y806550D01*
X1211500Y798800D01*
X1210500Y798800D01*
X1210500Y799750D02*
X1211500Y799750D01*
X1211500Y800700D02*
X1210500Y800700D01*
X1210500Y801650D02*
X1211500Y801650D01*
X1211500Y802600D02*
X1210500Y802600D01*
X1210500Y803550D02*
X1211500Y803550D01*
X1211500Y804500D02*
X1210500Y804500D01*
X1210500Y805450D02*
X1211500Y805450D01*
X1211500Y806400D02*
X1210500Y806400D01*
X1206500Y806550D02*
X1206500Y798800D01*
X1206500Y806550D02*
X1207500Y806550D01*
X1207500Y798800D01*
X1206500Y798800D01*
X1206500Y799750D02*
X1207500Y799750D01*
X1207500Y800700D02*
X1206500Y800700D01*
X1206500Y801650D02*
X1207500Y801650D01*
X1207500Y802600D02*
X1206500Y802600D01*
X1206500Y803550D02*
X1207500Y803550D01*
X1207500Y804500D02*
X1206500Y804500D01*
X1206500Y805450D02*
X1207500Y805450D01*
X1207500Y806400D02*
X1206500Y806400D01*
X1202500Y806550D02*
X1202500Y798800D01*
X1202500Y806550D02*
X1203500Y806550D01*
X1203500Y798800D01*
X1202500Y798800D01*
X1202500Y799750D02*
X1203500Y799750D01*
X1203500Y800700D02*
X1202500Y800700D01*
X1202500Y801650D02*
X1203500Y801650D01*
X1203500Y802600D02*
X1202500Y802600D01*
X1202500Y803550D02*
X1203500Y803550D01*
X1203500Y804500D02*
X1202500Y804500D01*
X1202500Y805450D02*
X1203500Y805450D01*
X1203500Y806400D02*
X1202500Y806400D01*
D33*
X1325175Y542200D03*
X1313425Y545075D03*
X1313425Y539325D03*
D34*
X1319300Y538325D03*
X1319300Y546075D03*
D35*
X1382100Y558300D03*
X1382100Y567800D03*
X1382100Y577300D03*
X1356100Y577300D03*
X1356100Y558300D03*
D36*
X1077500Y740625D03*
D37*
X1076875Y732500D03*
X1076875Y727500D03*
X1076875Y722500D03*
X1076875Y717500D03*
D36*
X1077500Y709375D03*
X1082500Y709375D03*
X1087500Y709375D03*
X1092500Y709375D03*
X1097500Y709375D03*
X1102500Y709375D03*
X1107500Y709375D03*
X1112500Y709375D03*
X1117500Y709375D03*
X1122500Y709375D03*
D37*
X1123125Y717500D03*
X1123125Y722500D03*
X1123125Y727500D03*
X1123125Y732500D03*
D36*
X1122500Y740625D03*
X1117500Y740625D03*
X1112500Y740625D03*
X1107500Y740625D03*
X1102500Y740625D03*
X1097500Y740625D03*
X1092500Y740625D03*
X1087500Y740625D03*
X1082500Y740625D03*
D38*
X920836Y889851D03*
X903818Y889851D03*
X886800Y889851D03*
X869782Y889851D03*
X852764Y889851D03*
D39*
X886800Y771868D03*
D40*
X801600Y658450D02*
X787600Y658450D01*
X787600Y660550D01*
X801600Y660550D01*
X801600Y658450D01*
X801600Y659115D02*
X787600Y659115D01*
X787600Y659780D02*
X801600Y659780D01*
X801600Y660445D02*
X787600Y660445D01*
X787600Y653450D02*
X801600Y653450D01*
X787600Y653450D02*
X787600Y655550D01*
X801600Y655550D01*
X801600Y653450D01*
X801600Y654115D02*
X787600Y654115D01*
X787600Y654780D02*
X801600Y654780D01*
X801600Y655445D02*
X787600Y655445D01*
X787600Y648450D02*
X801600Y648450D01*
X787600Y648450D02*
X787600Y650550D01*
X801600Y650550D01*
X801600Y648450D01*
X801600Y649115D02*
X787600Y649115D01*
X787600Y649780D02*
X801600Y649780D01*
X801600Y650445D02*
X787600Y650445D01*
X787600Y643450D02*
X801600Y643450D01*
X787600Y643450D02*
X787600Y645550D01*
X801600Y645550D01*
X801600Y643450D01*
X801600Y644115D02*
X787600Y644115D01*
X787600Y644780D02*
X801600Y644780D01*
X801600Y645445D02*
X787600Y645445D01*
X787600Y638450D02*
X801600Y638450D01*
X787600Y638450D02*
X787600Y640550D01*
X801600Y640550D01*
X801600Y638450D01*
X801600Y639115D02*
X787600Y639115D01*
X787600Y639780D02*
X801600Y639780D01*
X801600Y640445D02*
X787600Y640445D01*
X830600Y638450D02*
X844600Y638450D01*
X830600Y638450D02*
X830600Y640550D01*
X844600Y640550D01*
X844600Y638450D01*
X844600Y639115D02*
X830600Y639115D01*
X830600Y639780D02*
X844600Y639780D01*
X844600Y640445D02*
X830600Y640445D01*
X830600Y643450D02*
X844600Y643450D01*
X830600Y643450D02*
X830600Y645550D01*
X844600Y645550D01*
X844600Y643450D01*
X844600Y644115D02*
X830600Y644115D01*
X830600Y644780D02*
X844600Y644780D01*
X844600Y645445D02*
X830600Y645445D01*
X830600Y648450D02*
X844600Y648450D01*
X830600Y648450D02*
X830600Y650550D01*
X844600Y650550D01*
X844600Y648450D01*
X844600Y649115D02*
X830600Y649115D01*
X830600Y649780D02*
X844600Y649780D01*
X844600Y650445D02*
X830600Y650445D01*
X830600Y653450D02*
X844600Y653450D01*
X830600Y653450D02*
X830600Y655550D01*
X844600Y655550D01*
X844600Y653450D01*
X844600Y654115D02*
X830600Y654115D01*
X830600Y654780D02*
X844600Y654780D01*
X844600Y655445D02*
X830600Y655445D01*
X830600Y658450D02*
X844600Y658450D01*
X830600Y658450D02*
X830600Y660550D01*
X844600Y660550D01*
X844600Y658450D01*
X844600Y659115D02*
X830600Y659115D01*
X830600Y659780D02*
X844600Y659780D01*
X844600Y660445D02*
X830600Y660445D01*
X801600Y694450D02*
X787600Y694450D01*
X787600Y696550D01*
X801600Y696550D01*
X801600Y694450D01*
X801600Y695115D02*
X787600Y695115D01*
X787600Y695780D02*
X801600Y695780D01*
X801600Y696445D02*
X787600Y696445D01*
X787600Y689450D02*
X801600Y689450D01*
X787600Y689450D02*
X787600Y691550D01*
X801600Y691550D01*
X801600Y689450D01*
X801600Y690115D02*
X787600Y690115D01*
X787600Y690780D02*
X801600Y690780D01*
X801600Y691445D02*
X787600Y691445D01*
X787600Y684450D02*
X801600Y684450D01*
X787600Y684450D02*
X787600Y686550D01*
X801600Y686550D01*
X801600Y684450D01*
X801600Y685115D02*
X787600Y685115D01*
X787600Y685780D02*
X801600Y685780D01*
X801600Y686445D02*
X787600Y686445D01*
X787600Y679450D02*
X801600Y679450D01*
X787600Y679450D02*
X787600Y681550D01*
X801600Y681550D01*
X801600Y679450D01*
X801600Y680115D02*
X787600Y680115D01*
X787600Y680780D02*
X801600Y680780D01*
X801600Y681445D02*
X787600Y681445D01*
X787600Y674450D02*
X801600Y674450D01*
X787600Y674450D02*
X787600Y676550D01*
X801600Y676550D01*
X801600Y674450D01*
X801600Y675115D02*
X787600Y675115D01*
X787600Y675780D02*
X801600Y675780D01*
X801600Y676445D02*
X787600Y676445D01*
X830600Y674450D02*
X844600Y674450D01*
X830600Y674450D02*
X830600Y676550D01*
X844600Y676550D01*
X844600Y674450D01*
X844600Y675115D02*
X830600Y675115D01*
X830600Y675780D02*
X844600Y675780D01*
X844600Y676445D02*
X830600Y676445D01*
X830600Y679450D02*
X844600Y679450D01*
X830600Y679450D02*
X830600Y681550D01*
X844600Y681550D01*
X844600Y679450D01*
X844600Y680115D02*
X830600Y680115D01*
X830600Y680780D02*
X844600Y680780D01*
X844600Y681445D02*
X830600Y681445D01*
X830600Y684450D02*
X844600Y684450D01*
X830600Y684450D02*
X830600Y686550D01*
X844600Y686550D01*
X844600Y684450D01*
X844600Y685115D02*
X830600Y685115D01*
X830600Y685780D02*
X844600Y685780D01*
X844600Y686445D02*
X830600Y686445D01*
X830600Y689450D02*
X844600Y689450D01*
X830600Y689450D02*
X830600Y691550D01*
X844600Y691550D01*
X844600Y689450D01*
X844600Y690115D02*
X830600Y690115D01*
X830600Y690780D02*
X844600Y690780D01*
X844600Y691445D02*
X830600Y691445D01*
X830600Y694450D02*
X844600Y694450D01*
X830600Y694450D02*
X830600Y696550D01*
X844600Y696550D01*
X844600Y694450D01*
X844600Y695115D02*
X830600Y695115D01*
X830600Y695780D02*
X844600Y695780D01*
X844600Y696445D02*
X830600Y696445D01*
D41*
X1301900Y880300D03*
D42*
X1287875Y852075D02*
X1285925Y852075D01*
X1285925Y861125D01*
X1287875Y861125D01*
X1287875Y852075D01*
X1287875Y852692D02*
X1285925Y852692D01*
X1285925Y853309D02*
X1287875Y853309D01*
X1287875Y853926D02*
X1285925Y853926D01*
X1285925Y854543D02*
X1287875Y854543D01*
X1287875Y855160D02*
X1285925Y855160D01*
X1285925Y855777D02*
X1287875Y855777D01*
X1287875Y856394D02*
X1285925Y856394D01*
X1285925Y857011D02*
X1287875Y857011D01*
X1287875Y857628D02*
X1285925Y857628D01*
X1285925Y858245D02*
X1287875Y858245D01*
X1287875Y858862D02*
X1285925Y858862D01*
X1285925Y859479D02*
X1287875Y859479D01*
X1287875Y860096D02*
X1285925Y860096D01*
X1285925Y860713D02*
X1287875Y860713D01*
X1290925Y852075D02*
X1292875Y852075D01*
X1290925Y852075D02*
X1290925Y861125D01*
X1292875Y861125D01*
X1292875Y852075D01*
X1292875Y852692D02*
X1290925Y852692D01*
X1290925Y853309D02*
X1292875Y853309D01*
X1292875Y853926D02*
X1290925Y853926D01*
X1290925Y854543D02*
X1292875Y854543D01*
X1292875Y855160D02*
X1290925Y855160D01*
X1290925Y855777D02*
X1292875Y855777D01*
X1292875Y856394D02*
X1290925Y856394D01*
X1290925Y857011D02*
X1292875Y857011D01*
X1292875Y857628D02*
X1290925Y857628D01*
X1290925Y858245D02*
X1292875Y858245D01*
X1292875Y858862D02*
X1290925Y858862D01*
X1290925Y859479D02*
X1292875Y859479D01*
X1292875Y860096D02*
X1290925Y860096D01*
X1290925Y860713D02*
X1292875Y860713D01*
X1295925Y852075D02*
X1297875Y852075D01*
X1295925Y852075D02*
X1295925Y861125D01*
X1297875Y861125D01*
X1297875Y852075D01*
X1297875Y852692D02*
X1295925Y852692D01*
X1295925Y853309D02*
X1297875Y853309D01*
X1297875Y853926D02*
X1295925Y853926D01*
X1295925Y854543D02*
X1297875Y854543D01*
X1297875Y855160D02*
X1295925Y855160D01*
X1295925Y855777D02*
X1297875Y855777D01*
X1297875Y856394D02*
X1295925Y856394D01*
X1295925Y857011D02*
X1297875Y857011D01*
X1297875Y857628D02*
X1295925Y857628D01*
X1295925Y858245D02*
X1297875Y858245D01*
X1297875Y858862D02*
X1295925Y858862D01*
X1295925Y859479D02*
X1297875Y859479D01*
X1297875Y860096D02*
X1295925Y860096D01*
X1295925Y860713D02*
X1297875Y860713D01*
X1300925Y852075D02*
X1302875Y852075D01*
X1300925Y852075D02*
X1300925Y861125D01*
X1302875Y861125D01*
X1302875Y852075D01*
X1302875Y852692D02*
X1300925Y852692D01*
X1300925Y853309D02*
X1302875Y853309D01*
X1302875Y853926D02*
X1300925Y853926D01*
X1300925Y854543D02*
X1302875Y854543D01*
X1302875Y855160D02*
X1300925Y855160D01*
X1300925Y855777D02*
X1302875Y855777D01*
X1302875Y856394D02*
X1300925Y856394D01*
X1300925Y857011D02*
X1302875Y857011D01*
X1302875Y857628D02*
X1300925Y857628D01*
X1300925Y858245D02*
X1302875Y858245D01*
X1302875Y858862D02*
X1300925Y858862D01*
X1300925Y859479D02*
X1302875Y859479D01*
X1302875Y860096D02*
X1300925Y860096D01*
X1300925Y860713D02*
X1302875Y860713D01*
X1305925Y852075D02*
X1307875Y852075D01*
X1305925Y852075D02*
X1305925Y861125D01*
X1307875Y861125D01*
X1307875Y852075D01*
X1307875Y852692D02*
X1305925Y852692D01*
X1305925Y853309D02*
X1307875Y853309D01*
X1307875Y853926D02*
X1305925Y853926D01*
X1305925Y854543D02*
X1307875Y854543D01*
X1307875Y855160D02*
X1305925Y855160D01*
X1305925Y855777D02*
X1307875Y855777D01*
X1307875Y856394D02*
X1305925Y856394D01*
X1305925Y857011D02*
X1307875Y857011D01*
X1307875Y857628D02*
X1305925Y857628D01*
X1305925Y858245D02*
X1307875Y858245D01*
X1307875Y858862D02*
X1305925Y858862D01*
X1305925Y859479D02*
X1307875Y859479D01*
X1307875Y860096D02*
X1305925Y860096D01*
X1305925Y860713D02*
X1307875Y860713D01*
X1310925Y852075D02*
X1312875Y852075D01*
X1310925Y852075D02*
X1310925Y861125D01*
X1312875Y861125D01*
X1312875Y852075D01*
X1312875Y852692D02*
X1310925Y852692D01*
X1310925Y853309D02*
X1312875Y853309D01*
X1312875Y853926D02*
X1310925Y853926D01*
X1310925Y854543D02*
X1312875Y854543D01*
X1312875Y855160D02*
X1310925Y855160D01*
X1310925Y855777D02*
X1312875Y855777D01*
X1312875Y856394D02*
X1310925Y856394D01*
X1310925Y857011D02*
X1312875Y857011D01*
X1312875Y857628D02*
X1310925Y857628D01*
X1310925Y858245D02*
X1312875Y858245D01*
X1312875Y858862D02*
X1310925Y858862D01*
X1310925Y859479D02*
X1312875Y859479D01*
X1312875Y860096D02*
X1310925Y860096D01*
X1310925Y860713D02*
X1312875Y860713D01*
X1315925Y852075D02*
X1317875Y852075D01*
X1315925Y852075D02*
X1315925Y861125D01*
X1317875Y861125D01*
X1317875Y852075D01*
X1317875Y852692D02*
X1315925Y852692D01*
X1315925Y853309D02*
X1317875Y853309D01*
X1317875Y853926D02*
X1315925Y853926D01*
X1315925Y854543D02*
X1317875Y854543D01*
X1317875Y855160D02*
X1315925Y855160D01*
X1315925Y855777D02*
X1317875Y855777D01*
X1317875Y856394D02*
X1315925Y856394D01*
X1315925Y857011D02*
X1317875Y857011D01*
X1317875Y857628D02*
X1315925Y857628D01*
X1315925Y858245D02*
X1317875Y858245D01*
X1317875Y858862D02*
X1315925Y858862D01*
X1315925Y859479D02*
X1317875Y859479D01*
X1317875Y860096D02*
X1315925Y860096D01*
X1315925Y860713D02*
X1317875Y860713D01*
X1317875Y899475D02*
X1315925Y899475D01*
X1315925Y908525D01*
X1317875Y908525D01*
X1317875Y899475D01*
X1317875Y900092D02*
X1315925Y900092D01*
X1315925Y900709D02*
X1317875Y900709D01*
X1317875Y901326D02*
X1315925Y901326D01*
X1315925Y901943D02*
X1317875Y901943D01*
X1317875Y902560D02*
X1315925Y902560D01*
X1315925Y903177D02*
X1317875Y903177D01*
X1317875Y903794D02*
X1315925Y903794D01*
X1315925Y904411D02*
X1317875Y904411D01*
X1317875Y905028D02*
X1315925Y905028D01*
X1315925Y905645D02*
X1317875Y905645D01*
X1317875Y906262D02*
X1315925Y906262D01*
X1315925Y906879D02*
X1317875Y906879D01*
X1317875Y907496D02*
X1315925Y907496D01*
X1315925Y908113D02*
X1317875Y908113D01*
X1312875Y899475D02*
X1310925Y899475D01*
X1310925Y908525D01*
X1312875Y908525D01*
X1312875Y899475D01*
X1312875Y900092D02*
X1310925Y900092D01*
X1310925Y900709D02*
X1312875Y900709D01*
X1312875Y901326D02*
X1310925Y901326D01*
X1310925Y901943D02*
X1312875Y901943D01*
X1312875Y902560D02*
X1310925Y902560D01*
X1310925Y903177D02*
X1312875Y903177D01*
X1312875Y903794D02*
X1310925Y903794D01*
X1310925Y904411D02*
X1312875Y904411D01*
X1312875Y905028D02*
X1310925Y905028D01*
X1310925Y905645D02*
X1312875Y905645D01*
X1312875Y906262D02*
X1310925Y906262D01*
X1310925Y906879D02*
X1312875Y906879D01*
X1312875Y907496D02*
X1310925Y907496D01*
X1310925Y908113D02*
X1312875Y908113D01*
X1307875Y899475D02*
X1305925Y899475D01*
X1305925Y908525D01*
X1307875Y908525D01*
X1307875Y899475D01*
X1307875Y900092D02*
X1305925Y900092D01*
X1305925Y900709D02*
X1307875Y900709D01*
X1307875Y901326D02*
X1305925Y901326D01*
X1305925Y901943D02*
X1307875Y901943D01*
X1307875Y902560D02*
X1305925Y902560D01*
X1305925Y903177D02*
X1307875Y903177D01*
X1307875Y903794D02*
X1305925Y903794D01*
X1305925Y904411D02*
X1307875Y904411D01*
X1307875Y905028D02*
X1305925Y905028D01*
X1305925Y905645D02*
X1307875Y905645D01*
X1307875Y906262D02*
X1305925Y906262D01*
X1305925Y906879D02*
X1307875Y906879D01*
X1307875Y907496D02*
X1305925Y907496D01*
X1305925Y908113D02*
X1307875Y908113D01*
X1302875Y899475D02*
X1300925Y899475D01*
X1300925Y908525D01*
X1302875Y908525D01*
X1302875Y899475D01*
X1302875Y900092D02*
X1300925Y900092D01*
X1300925Y900709D02*
X1302875Y900709D01*
X1302875Y901326D02*
X1300925Y901326D01*
X1300925Y901943D02*
X1302875Y901943D01*
X1302875Y902560D02*
X1300925Y902560D01*
X1300925Y903177D02*
X1302875Y903177D01*
X1302875Y903794D02*
X1300925Y903794D01*
X1300925Y904411D02*
X1302875Y904411D01*
X1302875Y905028D02*
X1300925Y905028D01*
X1300925Y905645D02*
X1302875Y905645D01*
X1302875Y906262D02*
X1300925Y906262D01*
X1300925Y906879D02*
X1302875Y906879D01*
X1302875Y907496D02*
X1300925Y907496D01*
X1300925Y908113D02*
X1302875Y908113D01*
X1297875Y899475D02*
X1295925Y899475D01*
X1295925Y908525D01*
X1297875Y908525D01*
X1297875Y899475D01*
X1297875Y900092D02*
X1295925Y900092D01*
X1295925Y900709D02*
X1297875Y900709D01*
X1297875Y901326D02*
X1295925Y901326D01*
X1295925Y901943D02*
X1297875Y901943D01*
X1297875Y902560D02*
X1295925Y902560D01*
X1295925Y903177D02*
X1297875Y903177D01*
X1297875Y903794D02*
X1295925Y903794D01*
X1295925Y904411D02*
X1297875Y904411D01*
X1297875Y905028D02*
X1295925Y905028D01*
X1295925Y905645D02*
X1297875Y905645D01*
X1297875Y906262D02*
X1295925Y906262D01*
X1295925Y906879D02*
X1297875Y906879D01*
X1297875Y907496D02*
X1295925Y907496D01*
X1295925Y908113D02*
X1297875Y908113D01*
X1292875Y899475D02*
X1290925Y899475D01*
X1290925Y908525D01*
X1292875Y908525D01*
X1292875Y899475D01*
X1292875Y900092D02*
X1290925Y900092D01*
X1290925Y900709D02*
X1292875Y900709D01*
X1292875Y901326D02*
X1290925Y901326D01*
X1290925Y901943D02*
X1292875Y901943D01*
X1292875Y902560D02*
X1290925Y902560D01*
X1290925Y903177D02*
X1292875Y903177D01*
X1292875Y903794D02*
X1290925Y903794D01*
X1290925Y904411D02*
X1292875Y904411D01*
X1292875Y905028D02*
X1290925Y905028D01*
X1290925Y905645D02*
X1292875Y905645D01*
X1292875Y906262D02*
X1290925Y906262D01*
X1290925Y906879D02*
X1292875Y906879D01*
X1292875Y907496D02*
X1290925Y907496D01*
X1290925Y908113D02*
X1292875Y908113D01*
X1287875Y899475D02*
X1285925Y899475D01*
X1285925Y908525D01*
X1287875Y908525D01*
X1287875Y899475D01*
X1287875Y900092D02*
X1285925Y900092D01*
X1285925Y900709D02*
X1287875Y900709D01*
X1287875Y901326D02*
X1285925Y901326D01*
X1285925Y901943D02*
X1287875Y901943D01*
X1287875Y902560D02*
X1285925Y902560D01*
X1285925Y903177D02*
X1287875Y903177D01*
X1287875Y903794D02*
X1285925Y903794D01*
X1285925Y904411D02*
X1287875Y904411D01*
X1287875Y905028D02*
X1285925Y905028D01*
X1285925Y905645D02*
X1287875Y905645D01*
X1287875Y906262D02*
X1285925Y906262D01*
X1285925Y906879D02*
X1287875Y906879D01*
X1287875Y907496D02*
X1285925Y907496D01*
X1285925Y908113D02*
X1287875Y908113D01*
X1282725Y894325D02*
X1273675Y894325D01*
X1273675Y896275D01*
X1282725Y896275D01*
X1282725Y894325D01*
X1282725Y894942D02*
X1273675Y894942D01*
X1273675Y895559D02*
X1282725Y895559D01*
X1282725Y896176D02*
X1273675Y896176D01*
X1273675Y889325D02*
X1282725Y889325D01*
X1273675Y889325D02*
X1273675Y891275D01*
X1282725Y891275D01*
X1282725Y889325D01*
X1282725Y889942D02*
X1273675Y889942D01*
X1273675Y890559D02*
X1282725Y890559D01*
X1282725Y891176D02*
X1273675Y891176D01*
X1273675Y884325D02*
X1282725Y884325D01*
X1273675Y884325D02*
X1273675Y886275D01*
X1282725Y886275D01*
X1282725Y884325D01*
X1282725Y884942D02*
X1273675Y884942D01*
X1273675Y885559D02*
X1282725Y885559D01*
X1282725Y886176D02*
X1273675Y886176D01*
X1273675Y879325D02*
X1282725Y879325D01*
X1273675Y879325D02*
X1273675Y881275D01*
X1282725Y881275D01*
X1282725Y879325D01*
X1282725Y879942D02*
X1273675Y879942D01*
X1273675Y880559D02*
X1282725Y880559D01*
X1282725Y881176D02*
X1273675Y881176D01*
X1273675Y874325D02*
X1282725Y874325D01*
X1273675Y874325D02*
X1273675Y876275D01*
X1282725Y876275D01*
X1282725Y874325D01*
X1282725Y874942D02*
X1273675Y874942D01*
X1273675Y875559D02*
X1282725Y875559D01*
X1282725Y876176D02*
X1273675Y876176D01*
X1273675Y869325D02*
X1282725Y869325D01*
X1273675Y869325D02*
X1273675Y871275D01*
X1282725Y871275D01*
X1282725Y869325D01*
X1282725Y869942D02*
X1273675Y869942D01*
X1273675Y870559D02*
X1282725Y870559D01*
X1282725Y871176D02*
X1273675Y871176D01*
X1273675Y864325D02*
X1282725Y864325D01*
X1273675Y864325D02*
X1273675Y866275D01*
X1282725Y866275D01*
X1282725Y864325D01*
X1282725Y864942D02*
X1273675Y864942D01*
X1273675Y865559D02*
X1282725Y865559D01*
X1282725Y866176D02*
X1273675Y866176D01*
X1321075Y864325D02*
X1330125Y864325D01*
X1321075Y864325D02*
X1321075Y866275D01*
X1330125Y866275D01*
X1330125Y864325D01*
X1330125Y864942D02*
X1321075Y864942D01*
X1321075Y865559D02*
X1330125Y865559D01*
X1330125Y866176D02*
X1321075Y866176D01*
X1321075Y869325D02*
X1330125Y869325D01*
X1321075Y869325D02*
X1321075Y871275D01*
X1330125Y871275D01*
X1330125Y869325D01*
X1330125Y869942D02*
X1321075Y869942D01*
X1321075Y870559D02*
X1330125Y870559D01*
X1330125Y871176D02*
X1321075Y871176D01*
X1321075Y874325D02*
X1330125Y874325D01*
X1321075Y874325D02*
X1321075Y876275D01*
X1330125Y876275D01*
X1330125Y874325D01*
X1330125Y874942D02*
X1321075Y874942D01*
X1321075Y875559D02*
X1330125Y875559D01*
X1330125Y876176D02*
X1321075Y876176D01*
X1321075Y879325D02*
X1330125Y879325D01*
X1321075Y879325D02*
X1321075Y881275D01*
X1330125Y881275D01*
X1330125Y879325D01*
X1330125Y879942D02*
X1321075Y879942D01*
X1321075Y880559D02*
X1330125Y880559D01*
X1330125Y881176D02*
X1321075Y881176D01*
X1321075Y884325D02*
X1330125Y884325D01*
X1321075Y884325D02*
X1321075Y886275D01*
X1330125Y886275D01*
X1330125Y884325D01*
X1330125Y884942D02*
X1321075Y884942D01*
X1321075Y885559D02*
X1330125Y885559D01*
X1330125Y886176D02*
X1321075Y886176D01*
X1321075Y889325D02*
X1330125Y889325D01*
X1321075Y889325D02*
X1321075Y891275D01*
X1330125Y891275D01*
X1330125Y889325D01*
X1330125Y889942D02*
X1321075Y889942D01*
X1321075Y890559D02*
X1330125Y890559D01*
X1330125Y891176D02*
X1321075Y891176D01*
X1321075Y894325D02*
X1330125Y894325D01*
X1321075Y894325D02*
X1321075Y896275D01*
X1330125Y896275D01*
X1330125Y894325D01*
X1330125Y894942D02*
X1321075Y894942D01*
X1321075Y895559D02*
X1330125Y895559D01*
X1330125Y896176D02*
X1321075Y896176D01*
D40*
X801600Y585450D02*
X787600Y585450D01*
X787600Y587550D01*
X801600Y587550D01*
X801600Y585450D01*
X801600Y586115D02*
X787600Y586115D01*
X787600Y586780D02*
X801600Y586780D01*
X801600Y587445D02*
X787600Y587445D01*
X787600Y580450D02*
X801600Y580450D01*
X787600Y580450D02*
X787600Y582550D01*
X801600Y582550D01*
X801600Y580450D01*
X801600Y581115D02*
X787600Y581115D01*
X787600Y581780D02*
X801600Y581780D01*
X801600Y582445D02*
X787600Y582445D01*
X787600Y575450D02*
X801600Y575450D01*
X787600Y575450D02*
X787600Y577550D01*
X801600Y577550D01*
X801600Y575450D01*
X801600Y576115D02*
X787600Y576115D01*
X787600Y576780D02*
X801600Y576780D01*
X801600Y577445D02*
X787600Y577445D01*
X787600Y570450D02*
X801600Y570450D01*
X787600Y570450D02*
X787600Y572550D01*
X801600Y572550D01*
X801600Y570450D01*
X801600Y571115D02*
X787600Y571115D01*
X787600Y571780D02*
X801600Y571780D01*
X801600Y572445D02*
X787600Y572445D01*
X787600Y565450D02*
X801600Y565450D01*
X787600Y565450D02*
X787600Y567550D01*
X801600Y567550D01*
X801600Y565450D01*
X801600Y566115D02*
X787600Y566115D01*
X787600Y566780D02*
X801600Y566780D01*
X801600Y567445D02*
X787600Y567445D01*
X830600Y565450D02*
X844600Y565450D01*
X830600Y565450D02*
X830600Y567550D01*
X844600Y567550D01*
X844600Y565450D01*
X844600Y566115D02*
X830600Y566115D01*
X830600Y566780D02*
X844600Y566780D01*
X844600Y567445D02*
X830600Y567445D01*
X830600Y570450D02*
X844600Y570450D01*
X830600Y570450D02*
X830600Y572550D01*
X844600Y572550D01*
X844600Y570450D01*
X844600Y571115D02*
X830600Y571115D01*
X830600Y571780D02*
X844600Y571780D01*
X844600Y572445D02*
X830600Y572445D01*
X830600Y575450D02*
X844600Y575450D01*
X830600Y575450D02*
X830600Y577550D01*
X844600Y577550D01*
X844600Y575450D01*
X844600Y576115D02*
X830600Y576115D01*
X830600Y576780D02*
X844600Y576780D01*
X844600Y577445D02*
X830600Y577445D01*
X830600Y580450D02*
X844600Y580450D01*
X830600Y580450D02*
X830600Y582550D01*
X844600Y582550D01*
X844600Y580450D01*
X844600Y581115D02*
X830600Y581115D01*
X830600Y581780D02*
X844600Y581780D01*
X844600Y582445D02*
X830600Y582445D01*
X830600Y585450D02*
X844600Y585450D01*
X830600Y585450D02*
X830600Y587550D01*
X844600Y587550D01*
X844600Y585450D01*
X844600Y586115D02*
X830600Y586115D01*
X830600Y586780D02*
X844600Y586780D01*
X844600Y587445D02*
X830600Y587445D01*
X801600Y622450D02*
X787600Y622450D01*
X787600Y624550D01*
X801600Y624550D01*
X801600Y622450D01*
X801600Y623115D02*
X787600Y623115D01*
X787600Y623780D02*
X801600Y623780D01*
X801600Y624445D02*
X787600Y624445D01*
X787600Y617450D02*
X801600Y617450D01*
X787600Y617450D02*
X787600Y619550D01*
X801600Y619550D01*
X801600Y617450D01*
X801600Y618115D02*
X787600Y618115D01*
X787600Y618780D02*
X801600Y618780D01*
X801600Y619445D02*
X787600Y619445D01*
X787600Y612450D02*
X801600Y612450D01*
X787600Y612450D02*
X787600Y614550D01*
X801600Y614550D01*
X801600Y612450D01*
X801600Y613115D02*
X787600Y613115D01*
X787600Y613780D02*
X801600Y613780D01*
X801600Y614445D02*
X787600Y614445D01*
X787600Y607450D02*
X801600Y607450D01*
X787600Y607450D02*
X787600Y609550D01*
X801600Y609550D01*
X801600Y607450D01*
X801600Y608115D02*
X787600Y608115D01*
X787600Y608780D02*
X801600Y608780D01*
X801600Y609445D02*
X787600Y609445D01*
X787600Y602450D02*
X801600Y602450D01*
X787600Y602450D02*
X787600Y604550D01*
X801600Y604550D01*
X801600Y602450D01*
X801600Y603115D02*
X787600Y603115D01*
X787600Y603780D02*
X801600Y603780D01*
X801600Y604445D02*
X787600Y604445D01*
X830600Y602450D02*
X844600Y602450D01*
X830600Y602450D02*
X830600Y604550D01*
X844600Y604550D01*
X844600Y602450D01*
X844600Y603115D02*
X830600Y603115D01*
X830600Y603780D02*
X844600Y603780D01*
X844600Y604445D02*
X830600Y604445D01*
X830600Y607450D02*
X844600Y607450D01*
X830600Y607450D02*
X830600Y609550D01*
X844600Y609550D01*
X844600Y607450D01*
X844600Y608115D02*
X830600Y608115D01*
X830600Y608780D02*
X844600Y608780D01*
X844600Y609445D02*
X830600Y609445D01*
X830600Y612450D02*
X844600Y612450D01*
X830600Y612450D02*
X830600Y614550D01*
X844600Y614550D01*
X844600Y612450D01*
X844600Y613115D02*
X830600Y613115D01*
X830600Y613780D02*
X844600Y613780D01*
X844600Y614445D02*
X830600Y614445D01*
X830600Y617450D02*
X844600Y617450D01*
X830600Y617450D02*
X830600Y619550D01*
X844600Y619550D01*
X844600Y617450D01*
X844600Y618115D02*
X830600Y618115D01*
X830600Y618780D02*
X844600Y618780D01*
X844600Y619445D02*
X830600Y619445D01*
X830600Y622450D02*
X844600Y622450D01*
X830600Y622450D02*
X830600Y624550D01*
X844600Y624550D01*
X844600Y622450D01*
X844600Y623115D02*
X830600Y623115D01*
X830600Y623780D02*
X844600Y623780D01*
X844600Y624445D02*
X830600Y624445D01*
D43*
X1273400Y937650D03*
X1265400Y937650D03*
D44*
X1258900Y937650D03*
X1253900Y937650D03*
X1248900Y937650D03*
X1243900Y937650D03*
X1238900Y937650D03*
X1233900Y937650D03*
X1228900Y937650D03*
X1223900Y937650D03*
D43*
X1217400Y937650D03*
X1209400Y937650D03*
D45*
X1230900Y682750D03*
X1209900Y682750D03*
X1209900Y666250D03*
X1230900Y666250D03*
D46*
X1059000Y759900D03*
X1084000Y759900D03*
D47*
X1081000Y548000D03*
X1090500Y528000D03*
X1071500Y528000D03*
D12*
X1054000Y541750D03*
X1054000Y526250D03*
D48*
X1233023Y887000D03*
X1259023Y887000D03*
M02*
