G04 EAGLE Gerber RS-274X export*
G75*
%MOMM*%
%FSLAX34Y34*%
%LPD*%
%INSolderpaste Bottom*%
%IPPOS*%
%AMOC8*
5,1,8,0,0,1.08239X$1,22.5*%
G01*
%ADD10R,3.050000X2.030000*%
%ADD11R,8.380000X10.660000*%
%ADD12R,0.350000X0.300000*%
%ADD13R,0.300000X0.350000*%
%ADD14R,0.650000X1.000000*%
%ADD15R,2.150000X1.800000*%
%ADD16R,1.000000X0.650000*%
%ADD17R,1.200000X1.400000*%
%ADD18R,1.800000X1.300000*%
%ADD19R,1.300000X1.800000*%
%ADD20R,1.800000X2.150000*%
%ADD21R,0.300000X0.850000*%
%ADD22R,0.850000X0.300000*%
%ADD23R,2.750000X1.905000*%
%ADD24R,1.720000X1.120000*%
%ADD25R,1.120000X1.720000*%
%ADD26R,1.250000X0.600000*%
%ADD27R,0.450000X1.400000*%
%ADD28R,0.405000X0.990000*%
%ADD29R,0.405000X0.510000*%
%ADD30R,2.235000X1.725000*%
%ADD31R,0.200000X0.250000*%
%ADD32R,1.000000X1.270000*%
%ADD33R,1.270000X1.000000*%
%ADD34R,0.990000X0.405000*%
%ADD35R,0.510000X0.405000*%
%ADD36R,1.725000X2.235000*%
%ADD37R,0.250000X0.200000*%
%ADD38R,1.905000X2.750000*%
%ADD39R,1.200000X0.550000*%
%ADD40R,3.500000X1.500000*%


D10*
X505960Y493600D03*
X505960Y442800D03*
D11*
X419800Y468200D03*
D12*
X505420Y709000D03*
X505420Y704000D03*
X505420Y699000D03*
X505420Y694000D03*
D13*
X500300Y694000D03*
X495300Y694000D03*
D12*
X490180Y694000D03*
X490180Y699000D03*
X490180Y704000D03*
X490180Y709000D03*
D13*
X495300Y709000D03*
X500300Y709000D03*
D14*
X373050Y946400D03*
X388550Y946400D03*
X588050Y809700D03*
X572550Y809700D03*
D15*
X474350Y567300D03*
X503850Y567300D03*
D16*
X511100Y602550D03*
X511100Y587050D03*
X420900Y821550D03*
X420900Y837050D03*
D14*
X405150Y807000D03*
X389650Y807000D03*
D16*
X385000Y739750D03*
X385000Y755250D03*
X461000Y736650D03*
X461000Y752150D03*
X437000Y733550D03*
X437000Y749050D03*
X479000Y749450D03*
X479000Y764950D03*
X483000Y803350D03*
X483000Y818850D03*
X583500Y672250D03*
X583500Y687750D03*
D14*
X503250Y839300D03*
X518750Y839300D03*
X595350Y712000D03*
X610850Y712000D03*
X503250Y826300D03*
X518750Y826300D03*
X588150Y779700D03*
X572650Y779700D03*
X496150Y788300D03*
X511650Y788300D03*
X496050Y773300D03*
X511550Y773300D03*
D16*
X529300Y762050D03*
X529300Y746550D03*
D14*
X480450Y735100D03*
X495950Y735100D03*
X516650Y731700D03*
X532150Y731700D03*
X615950Y734300D03*
X631450Y734300D03*
D16*
X669600Y1012550D03*
X669600Y997050D03*
X655200Y1012550D03*
X655200Y997050D03*
X640800Y1012550D03*
X640800Y997050D03*
X487400Y887550D03*
X487400Y872050D03*
D14*
X139850Y970800D03*
X124350Y970800D03*
X139750Y924800D03*
X124250Y924800D03*
X175850Y933800D03*
X160350Y933800D03*
X214050Y963200D03*
X229550Y963200D03*
D17*
X380700Y858300D03*
X406700Y858300D03*
D16*
X554400Y736950D03*
X554400Y752450D03*
D14*
X275650Y537100D03*
X291150Y537100D03*
X503250Y811300D03*
X518750Y811300D03*
D16*
X253900Y520750D03*
X253900Y536250D03*
X218100Y473150D03*
X218100Y457650D03*
D18*
X190700Y540400D03*
X190700Y503400D03*
D14*
X207050Y443100D03*
X222550Y443100D03*
X261150Y443100D03*
X276650Y443100D03*
D16*
X273900Y630350D03*
X273900Y645850D03*
X258900Y630450D03*
X258900Y645950D03*
X217100Y582050D03*
X217100Y566550D03*
D18*
X185600Y650400D03*
X185600Y613400D03*
D14*
X588050Y824700D03*
X572550Y824700D03*
X221750Y553100D03*
X237250Y553100D03*
X275850Y553100D03*
X291350Y553100D03*
D16*
X274900Y739450D03*
X274900Y754950D03*
X259900Y739350D03*
X259900Y754850D03*
X218100Y690750D03*
X218100Y675250D03*
D19*
X136600Y766100D03*
X173600Y766100D03*
D14*
X222450Y661100D03*
X237950Y661100D03*
X275550Y661100D03*
X291050Y661100D03*
X588150Y794700D03*
X572650Y794700D03*
D16*
X273900Y845750D03*
X273900Y861250D03*
X258900Y845650D03*
X258900Y861150D03*
X218100Y797450D03*
X218100Y781950D03*
D18*
X196600Y859300D03*
X196600Y822300D03*
D14*
X221350Y768100D03*
X236850Y768100D03*
X275250Y768100D03*
X290750Y768100D03*
D20*
X404600Y674850D03*
X404600Y704350D03*
D16*
X448100Y637650D03*
X448100Y622150D03*
D15*
X399550Y555300D03*
X429050Y555300D03*
D20*
X433300Y674850D03*
X433300Y704350D03*
D21*
X460600Y768700D03*
X455600Y768700D03*
X450600Y768700D03*
X445600Y768700D03*
X440600Y768700D03*
X435600Y768700D03*
X430600Y768700D03*
X425600Y768700D03*
D22*
X418600Y775700D03*
X418600Y780700D03*
X418600Y785700D03*
X418600Y790700D03*
X418600Y795700D03*
X418600Y800700D03*
D21*
X425600Y807700D03*
X430600Y807700D03*
X435600Y807700D03*
X440600Y807700D03*
X445600Y807700D03*
X450600Y807700D03*
X455600Y807700D03*
X460600Y807700D03*
D22*
X467600Y800700D03*
X467600Y795700D03*
X467600Y790700D03*
X467600Y785700D03*
X467600Y780700D03*
X467600Y775700D03*
D23*
X443100Y788200D03*
D24*
X97200Y928250D03*
X97200Y969750D03*
X460200Y679950D03*
X460200Y721450D03*
X280300Y924650D03*
X280300Y883150D03*
D25*
X249350Y963800D03*
X290850Y963800D03*
D24*
X376200Y681050D03*
X376200Y722550D03*
D26*
X156300Y950400D03*
X156300Y959900D03*
X156300Y969400D03*
X181300Y969400D03*
X181300Y959900D03*
X181300Y950400D03*
D27*
X401150Y623300D03*
X407650Y623300D03*
X414150Y623300D03*
X420650Y623300D03*
X420650Y579300D03*
X414150Y579300D03*
X407650Y579300D03*
X401150Y579300D03*
X475150Y635300D03*
X481650Y635300D03*
X488150Y635300D03*
X494650Y635300D03*
X494650Y591300D03*
X488150Y591300D03*
X481650Y591300D03*
X475150Y591300D03*
D14*
X233850Y443000D03*
X249350Y443000D03*
X248950Y553000D03*
X264450Y553000D03*
X249050Y661000D03*
X264550Y661000D03*
X248350Y768000D03*
X263850Y768000D03*
D16*
X483000Y776250D03*
X483000Y791750D03*
D14*
X631650Y749000D03*
X616150Y749000D03*
D16*
X200000Y960550D03*
X200000Y976050D03*
D28*
X333520Y842550D03*
X326920Y842550D03*
X320320Y842550D03*
X313720Y842550D03*
D29*
X313720Y873650D03*
X320320Y873650D03*
X326920Y873650D03*
X333520Y873650D03*
D30*
X323620Y862480D03*
D31*
X312640Y869850D03*
X334560Y869850D03*
D32*
X448100Y586900D03*
X457600Y606900D03*
X438600Y606900D03*
X373400Y575100D03*
X382900Y595100D03*
X363900Y595100D03*
X452100Y839900D03*
X461600Y859900D03*
X442600Y859900D03*
D33*
X306900Y917600D03*
X326900Y908100D03*
X326900Y927100D03*
D34*
X585350Y460520D03*
X585350Y453920D03*
X585350Y447320D03*
X585350Y440720D03*
D35*
X554250Y440720D03*
X554250Y447320D03*
X554250Y453920D03*
X554250Y460520D03*
D36*
X565420Y450620D03*
D37*
X558050Y439640D03*
X558050Y461560D03*
D34*
X585250Y513520D03*
X585250Y506920D03*
X585250Y500320D03*
X585250Y493720D03*
D35*
X554150Y493720D03*
X554150Y500320D03*
X554150Y506920D03*
X554150Y513520D03*
D36*
X565320Y503620D03*
D37*
X557950Y492640D03*
X557950Y514560D03*
D14*
X140350Y955600D03*
X124850Y955600D03*
X456650Y899900D03*
X472150Y899900D03*
X139950Y941100D03*
X124450Y941100D03*
X611050Y697100D03*
X595550Y697100D03*
D16*
X410400Y917850D03*
X410400Y902350D03*
X238900Y536150D03*
X238900Y520650D03*
D14*
X291450Y522600D03*
X275950Y522600D03*
X223050Y522800D03*
X207550Y522800D03*
X207550Y537800D03*
X223050Y537800D03*
D16*
X243900Y645750D03*
X243900Y630250D03*
X289400Y629150D03*
X289400Y613650D03*
D14*
X222450Y631600D03*
X206950Y631600D03*
X206150Y645900D03*
X221650Y645900D03*
D16*
X244900Y754950D03*
X244900Y739450D03*
X289400Y735550D03*
X289400Y720050D03*
D14*
X222850Y738600D03*
X207350Y738600D03*
X207550Y752900D03*
X223050Y752900D03*
D16*
X243800Y861150D03*
X243800Y845650D03*
X289400Y843750D03*
X289400Y828250D03*
D14*
X228850Y845600D03*
X213350Y845600D03*
X213350Y860100D03*
X228850Y860100D03*
D16*
X538100Y946050D03*
X538100Y961550D03*
X375800Y666850D03*
X375800Y651350D03*
X417800Y653750D03*
X417800Y638250D03*
X432600Y639450D03*
X432600Y654950D03*
X459800Y666650D03*
X459800Y651150D03*
X492800Y667550D03*
X492800Y652050D03*
X507600Y651550D03*
X507600Y667050D03*
D14*
X388850Y769400D03*
X404350Y769400D03*
D16*
X405400Y837250D03*
X405400Y821750D03*
X417400Y749350D03*
X417400Y733850D03*
X399800Y755050D03*
X399800Y739550D03*
X555100Y946150D03*
X555100Y961650D03*
D14*
X460150Y874200D03*
X444650Y874200D03*
D22*
X235500Y465400D03*
X235500Y470400D03*
X235500Y475400D03*
X235500Y480400D03*
X235500Y485400D03*
X235500Y490400D03*
X235500Y495400D03*
X235500Y500400D03*
D21*
X242500Y507400D03*
X247500Y507400D03*
X252500Y507400D03*
X257500Y507400D03*
X262500Y507400D03*
X267500Y507400D03*
D22*
X274500Y500400D03*
X274500Y495400D03*
X274500Y490400D03*
X274500Y485400D03*
X274500Y480400D03*
X274500Y475400D03*
X274500Y470400D03*
X274500Y465400D03*
D21*
X267500Y458400D03*
X262500Y458400D03*
X257500Y458400D03*
X252500Y458400D03*
X247500Y458400D03*
X242500Y458400D03*
D38*
X255000Y482900D03*
D22*
X235500Y575400D03*
X235500Y580400D03*
X235500Y585400D03*
X235500Y590400D03*
X235500Y595400D03*
X235500Y600400D03*
X235500Y605400D03*
X235500Y610400D03*
D21*
X242500Y617400D03*
X247500Y617400D03*
X252500Y617400D03*
X257500Y617400D03*
X262500Y617400D03*
X267500Y617400D03*
D22*
X274500Y610400D03*
X274500Y605400D03*
X274500Y600400D03*
X274500Y595400D03*
X274500Y590400D03*
X274500Y585400D03*
X274500Y580400D03*
X274500Y575400D03*
D21*
X267500Y568400D03*
X262500Y568400D03*
X257500Y568400D03*
X252500Y568400D03*
X247500Y568400D03*
X242500Y568400D03*
D38*
X255000Y592900D03*
D22*
X235500Y683400D03*
X235500Y688400D03*
X235500Y693400D03*
X235500Y698400D03*
X235500Y703400D03*
X235500Y708400D03*
X235500Y713400D03*
X235500Y718400D03*
D21*
X242500Y725400D03*
X247500Y725400D03*
X252500Y725400D03*
X257500Y725400D03*
X262500Y725400D03*
X267500Y725400D03*
D22*
X274500Y718400D03*
X274500Y713400D03*
X274500Y708400D03*
X274500Y703400D03*
X274500Y698400D03*
X274500Y693400D03*
X274500Y688400D03*
X274500Y683400D03*
D21*
X267500Y676400D03*
X262500Y676400D03*
X257500Y676400D03*
X252500Y676400D03*
X247500Y676400D03*
X242500Y676400D03*
D38*
X255000Y700900D03*
D22*
X235500Y790200D03*
X235500Y795200D03*
X235500Y800200D03*
X235500Y805200D03*
X235500Y810200D03*
X235500Y815200D03*
X235500Y820200D03*
X235500Y825200D03*
D21*
X242500Y832200D03*
X247500Y832200D03*
X252500Y832200D03*
X257500Y832200D03*
X262500Y832200D03*
X267500Y832200D03*
D22*
X274500Y825200D03*
X274500Y820200D03*
X274500Y815200D03*
X274500Y810200D03*
X274500Y805200D03*
X274500Y800200D03*
X274500Y795200D03*
X274500Y790200D03*
D21*
X267500Y783200D03*
X262500Y783200D03*
X257500Y783200D03*
X252500Y783200D03*
X247500Y783200D03*
X242500Y783200D03*
D38*
X255000Y807700D03*
D39*
X333100Y964400D03*
X333100Y954900D03*
X333100Y945400D03*
X307100Y945400D03*
X307100Y964400D03*
D40*
X885000Y923000D03*
X885000Y977000D03*
X885000Y781000D03*
X885000Y835000D03*
D16*
X628000Y814750D03*
X628000Y799250D03*
X628000Y827250D03*
X628000Y842750D03*
M02*
