G04 EAGLE Gerber RS-274X export*
G75*
%MOMM*%
%FSLAX34Y34*%
%LPD*%
%INSolderpaste Bottom*%
%IPPOS*%
%AMOC8*
5,1,8,0,0,1.08239X$1,22.5*%
G01*
%ADD10R,0.350000X0.300000*%
%ADD11R,0.300000X0.350000*%
%ADD12R,1.000000X0.650000*%
%ADD13R,1.800000X2.150000*%
%ADD14R,0.650000X1.000000*%
%ADD15R,1.800000X1.300000*%
%ADD16R,2.150000X1.800000*%
%ADD17R,1.720000X1.120000*%
%ADD18R,1.120000X1.720000*%
%ADD19R,0.600000X1.250000*%
%ADD20R,0.450000X1.400000*%
%ADD21R,5.400000X2.900000*%
%ADD22R,0.405000X0.990000*%
%ADD23R,0.405000X0.510000*%
%ADD24R,2.235000X1.725000*%
%ADD25R,0.200000X0.250000*%
%ADD26R,1.000000X1.270000*%
%ADD27R,1.270000X1.000000*%
%ADD28R,0.550000X1.200000*%
%ADD29R,0.838200X1.600200*%
%ADD30R,3.098800X1.600200*%
%ADD31R,3.505200X0.965200*%
%ADD32R,8.458200X6.553200*%
%ADD33R,0.558800X1.320800*%
%ADD34R,1.420000X1.260000*%
%ADD35R,1.050000X3.210000*%


D10*
X1107620Y732500D03*
X1107620Y727500D03*
X1107620Y722500D03*
X1107620Y717500D03*
D11*
X1102500Y717500D03*
X1097500Y717500D03*
D10*
X1092380Y717500D03*
X1092380Y722500D03*
X1092380Y727500D03*
X1092380Y732500D03*
D11*
X1097500Y732500D03*
X1102500Y732500D03*
D12*
X1149500Y648350D03*
X1149500Y632850D03*
D13*
X933500Y670450D03*
X933500Y699950D03*
D12*
X1026800Y674150D03*
X1026800Y658650D03*
D14*
X1305550Y758100D03*
X1290050Y758100D03*
D12*
X1200100Y772050D03*
X1200100Y756550D03*
X1200100Y783650D03*
X1200100Y799150D03*
D14*
X1249250Y827100D03*
X1233750Y827100D03*
X1249150Y812100D03*
X1233650Y812100D03*
X1272050Y706100D03*
X1256550Y706100D03*
X1057650Y716800D03*
X1073150Y716800D03*
X1146250Y722200D03*
X1130750Y722200D03*
X1582250Y966800D03*
X1597750Y966800D03*
D12*
X1183500Y648150D03*
X1183500Y632650D03*
X1217500Y576950D03*
X1217500Y592450D03*
D14*
X1582250Y951800D03*
X1597750Y951800D03*
D12*
X1105000Y654050D03*
X1105000Y638550D03*
D14*
X1582250Y936800D03*
X1597750Y936800D03*
D15*
X1131800Y927800D03*
X1131800Y964800D03*
D12*
X1151200Y952750D03*
X1151200Y968250D03*
D14*
X1140250Y768800D03*
X1155750Y768800D03*
X1155750Y783200D03*
X1140250Y783200D03*
D12*
X1198800Y875950D03*
X1198800Y860450D03*
D14*
X1192150Y841800D03*
X1207650Y841800D03*
D15*
X938200Y792700D03*
X938200Y755700D03*
D14*
X929250Y737800D03*
X944750Y737800D03*
X1249050Y842100D03*
X1233550Y842100D03*
D15*
X915000Y792400D03*
X915000Y755400D03*
D12*
X1262200Y878450D03*
X1262200Y893950D03*
X1247200Y878550D03*
X1247200Y894050D03*
D14*
X1271950Y721100D03*
X1256450Y721100D03*
D16*
X1013150Y772600D03*
X1042650Y772600D03*
D17*
X1177400Y781650D03*
X1177400Y823150D03*
X966500Y753150D03*
X966500Y794650D03*
D18*
X1135750Y519500D03*
X1094250Y519500D03*
D17*
X1275400Y798750D03*
X1275400Y840250D03*
D19*
X1158500Y867200D03*
X1168000Y867200D03*
X1177500Y867200D03*
X1177500Y842200D03*
X1168000Y842200D03*
X1158500Y842200D03*
D20*
X991250Y706800D03*
X997750Y706800D03*
X1004250Y706800D03*
X1010750Y706800D03*
X1010750Y662800D03*
X1004250Y662800D03*
X997750Y662800D03*
X991250Y662800D03*
D21*
X952900Y820700D03*
X952900Y917700D03*
D12*
X1199800Y825950D03*
X1199800Y810450D03*
D22*
X1050280Y539650D03*
X1056880Y539650D03*
X1063480Y539650D03*
X1070080Y539650D03*
D23*
X1070080Y508550D03*
X1063480Y508550D03*
X1056880Y508550D03*
X1050280Y508550D03*
D24*
X1060180Y519720D03*
D25*
X1071160Y512350D03*
X1049240Y512350D03*
D26*
X964400Y655000D03*
X973900Y675000D03*
X954900Y675000D03*
X1165100Y948000D03*
X1155600Y928000D03*
X1174600Y928000D03*
D27*
X1233000Y912400D03*
X1213000Y921900D03*
X1213000Y902900D03*
D14*
X1440050Y560300D03*
X1424550Y560300D03*
D12*
X990000Y751150D03*
X990000Y766650D03*
X990000Y779950D03*
X990000Y795450D03*
D14*
X1140250Y754000D03*
X1155750Y754000D03*
D12*
X1142300Y855150D03*
X1142300Y870650D03*
D14*
X1379750Y560300D03*
X1364250Y560300D03*
D12*
X974300Y723350D03*
X974300Y738850D03*
D14*
X681750Y554300D03*
X666250Y554300D03*
X1318450Y561300D03*
X1302950Y561300D03*
X1256150Y561300D03*
X1240650Y561300D03*
X681750Y539300D03*
X666250Y539300D03*
X681750Y524300D03*
X666250Y524300D03*
X681750Y508300D03*
X666250Y508300D03*
X685750Y735300D03*
X670250Y735300D03*
X685750Y749300D03*
X670250Y749300D03*
X685750Y764300D03*
X670250Y764300D03*
X685750Y779300D03*
X670250Y779300D03*
X683750Y669300D03*
X668250Y669300D03*
X683750Y654300D03*
X668250Y654300D03*
X683750Y639300D03*
X668250Y639300D03*
X683750Y624300D03*
X668250Y624300D03*
X684750Y845300D03*
X669250Y845300D03*
X684750Y860400D03*
X669250Y860400D03*
X684750Y875400D03*
X669250Y875400D03*
X684750Y890400D03*
X669250Y890400D03*
X1372150Y505000D03*
X1356650Y505000D03*
X1345250Y505000D03*
X1329750Y505000D03*
D12*
X959600Y738850D03*
X959600Y723350D03*
X1011100Y723750D03*
X1011100Y739250D03*
D14*
X1156350Y912600D03*
X1171850Y912600D03*
X1432750Y505100D03*
X1417250Y505100D03*
X1405850Y505100D03*
X1390350Y505100D03*
X1248150Y505100D03*
X1232650Y505100D03*
X1221050Y505100D03*
X1205550Y505100D03*
X1310550Y505100D03*
X1295050Y505100D03*
X1283450Y505100D03*
X1267950Y505100D03*
X1582250Y906600D03*
X1597750Y906600D03*
X1582250Y921600D03*
X1597750Y921600D03*
D12*
X1025400Y952450D03*
X1025400Y967950D03*
D28*
X1231800Y859900D03*
X1222300Y859900D03*
X1212800Y859900D03*
X1212800Y885900D03*
X1231800Y885900D03*
D29*
X1151686Y610104D03*
X1174800Y610104D03*
X1197914Y610104D03*
D30*
X1174800Y546096D03*
D31*
X723749Y590764D03*
X723749Y607782D03*
X723749Y624800D03*
X723749Y641818D03*
X723749Y658836D03*
D32*
X841732Y624800D03*
D31*
X723749Y703064D03*
X723749Y720082D03*
X723749Y737100D03*
X723749Y754118D03*
X723749Y771136D03*
D32*
X841732Y737100D03*
D31*
X723749Y814464D03*
X723749Y831482D03*
X723749Y848500D03*
X723749Y865518D03*
X723749Y882536D03*
D32*
X841732Y848500D03*
D33*
X1301556Y545960D03*
X1319844Y545960D03*
X1310700Y525640D03*
X1239556Y545960D03*
X1257844Y545960D03*
X1248700Y525640D03*
D29*
X1081686Y609904D03*
X1104800Y609904D03*
X1127914Y609904D03*
D30*
X1104800Y545896D03*
D33*
X1423556Y544960D03*
X1441844Y544960D03*
X1432700Y524640D03*
X1363556Y544960D03*
X1381844Y544960D03*
X1372700Y524640D03*
D31*
X723749Y478464D03*
X723749Y495482D03*
X723749Y512500D03*
X723749Y529518D03*
X723749Y546536D03*
D32*
X841732Y512500D03*
D34*
X1075900Y839800D03*
X1075900Y818600D03*
X1075900Y861000D03*
X1075900Y882200D03*
X1054800Y839800D03*
X1033700Y839800D03*
X1097000Y839800D03*
X1118100Y839800D03*
X1054800Y818600D03*
X1033700Y818600D03*
X1097000Y818600D03*
X1118100Y818600D03*
X1097000Y861000D03*
X1118100Y861000D03*
X1054800Y861000D03*
X1054800Y882200D03*
X1033700Y882200D03*
X1033700Y861000D03*
X1097000Y882200D03*
X1118100Y882200D03*
D35*
X1041900Y946700D03*
X1058900Y946700D03*
X1075900Y946700D03*
X1092900Y946700D03*
X1109900Y946700D03*
M02*
