G04 EAGLE Gerber RS-274X export*
G75*
%MOMM*%
%FSLAX34Y34*%
%LPD*%
%INSoldermask Bottom*%
%IPPOS*%
%AMOC8*
5,1,8,0,0,1.08239X$1,22.5*%
G01*
%ADD10R,0.553200X0.503200*%
%ADD11R,0.503200X0.553200*%
%ADD12R,1.100000X0.750000*%
%ADD13R,2.003200X2.353200*%
%ADD14R,0.750000X1.100000*%
%ADD15R,1.900000X1.400000*%
%ADD16R,2.353200X2.003200*%
%ADD17R,1.923200X1.323200*%
%ADD18R,1.323200X1.923200*%
%ADD19R,1.711200X1.711200*%
%ADD20C,1.711200*%
%ADD21C,6.045200*%
%ADD22R,0.803200X1.453200*%
%ADD23R,0.653200X1.603200*%
%ADD24C,1.778200*%
%ADD25R,1.778200X1.778200*%
%ADD26R,2.003200X2.003200*%
%ADD27C,2.003200*%
%ADD28R,6.203200X6.203200*%
%ADD29C,6.203200*%
%ADD30C,2.123200*%
%ADD31R,5.603200X3.103200*%
%ADD32R,0.608200X1.193200*%
%ADD33R,0.608200X0.713200*%
%ADD34R,2.438200X1.928200*%
%ADD35R,0.403200X0.453200*%
%ADD36R,1.203200X1.473200*%
%ADD37R,1.473200X1.203200*%
%ADD38R,0.753200X1.403200*%
%ADD39R,1.041400X1.803400*%
%ADD40R,3.302000X1.803400*%
%ADD41R,3.708400X1.168400*%
%ADD42R,8.661400X6.756400*%
%ADD43C,0.911200*%
%ADD44R,0.762000X1.524000*%
%ADD45R,1.253200X3.413200*%
%ADD46R,10.733200X8.663200*%
%ADD47C,1.311200*%
%ADD48C,0.853200*%
%ADD49R,1.603200X1.603200*%
%ADD50C,1.603200*%
%ADD51C,0.809600*%


D10*
X1107620Y732500D03*
X1107620Y727500D03*
X1107620Y722500D03*
X1107620Y717500D03*
D11*
X1102500Y717500D03*
X1097500Y717500D03*
D10*
X1092380Y717500D03*
X1092380Y722500D03*
X1092380Y727500D03*
X1092380Y732500D03*
D11*
X1097500Y732500D03*
X1102500Y732500D03*
D12*
X1149500Y648350D03*
X1149500Y632850D03*
D13*
X933500Y670450D03*
X933500Y699950D03*
D12*
X1026800Y674150D03*
X1026800Y658650D03*
D14*
X1305550Y758100D03*
X1290050Y758100D03*
D12*
X1200100Y772050D03*
X1200100Y756550D03*
X1200100Y783650D03*
X1200100Y799150D03*
D14*
X1249250Y827100D03*
X1233750Y827100D03*
X1249150Y812100D03*
X1233650Y812100D03*
X1272050Y706100D03*
X1256550Y706100D03*
X1057650Y716800D03*
X1073150Y716800D03*
X1146250Y722200D03*
X1130750Y722200D03*
X1582250Y966800D03*
X1597750Y966800D03*
D12*
X1183500Y648150D03*
X1183500Y632650D03*
X1217500Y576950D03*
X1217500Y592450D03*
D14*
X1582250Y951800D03*
X1597750Y951800D03*
D12*
X1105000Y654050D03*
X1105000Y638550D03*
D14*
X1582250Y936800D03*
X1597750Y936800D03*
D15*
X1131800Y927800D03*
X1131800Y964800D03*
D12*
X1151200Y952750D03*
X1151200Y968250D03*
D14*
X1140250Y768800D03*
X1155750Y768800D03*
X1155750Y783200D03*
X1140250Y783200D03*
D12*
X1198800Y875950D03*
X1198800Y860450D03*
D14*
X1192150Y841800D03*
X1207650Y841800D03*
D15*
X938200Y792700D03*
X938200Y755700D03*
D14*
X929250Y737800D03*
X944750Y737800D03*
X1249050Y842100D03*
X1233550Y842100D03*
D15*
X915000Y792400D03*
X915000Y755400D03*
D12*
X1262200Y878450D03*
X1262200Y893950D03*
X1247200Y878550D03*
X1247200Y894050D03*
D14*
X1271950Y721100D03*
X1256450Y721100D03*
D16*
X1013150Y772600D03*
X1042650Y772600D03*
D17*
X1177400Y781650D03*
X1177400Y823150D03*
X966500Y753150D03*
X966500Y794650D03*
D18*
X1135750Y519500D03*
X1094250Y519500D03*
D17*
X1275400Y798750D03*
X1275400Y840250D03*
D19*
X647600Y498200D03*
D20*
X647600Y523200D03*
X647600Y548200D03*
D19*
X647600Y599300D03*
D20*
X647600Y624300D03*
X647600Y649300D03*
D19*
X647600Y700000D03*
D20*
X647600Y725000D03*
X647600Y750000D03*
D19*
X647600Y800500D03*
D20*
X647600Y825500D03*
X647600Y850500D03*
D21*
X788000Y955900D03*
X988100Y593900D03*
X1407200Y685900D03*
D22*
X1158500Y867200D03*
X1168000Y867200D03*
X1177500Y867200D03*
X1177500Y842200D03*
X1168000Y842200D03*
X1158500Y842200D03*
D23*
X991250Y706800D03*
X997750Y706800D03*
X1004250Y706800D03*
X1010750Y706800D03*
X1010750Y662800D03*
X1004250Y662800D03*
X997750Y662800D03*
X991250Y662800D03*
D24*
X930950Y947400D03*
D25*
X930950Y972400D03*
D24*
X865950Y947300D03*
D25*
X865950Y972300D03*
D26*
X1213000Y484700D03*
D27*
X1187600Y484700D03*
D26*
X1397500Y484700D03*
D27*
X1372100Y484700D03*
D26*
X1458700Y484700D03*
D27*
X1433300Y484700D03*
D26*
X1274300Y484700D03*
D27*
X1248900Y484700D03*
D26*
X1336200Y484700D03*
D27*
X1310800Y484700D03*
D28*
X929100Y494200D03*
D29*
X1001100Y494200D03*
D30*
X1404100Y626000D03*
X1452100Y626000D03*
X1452100Y578000D03*
X1404100Y578000D03*
D20*
X1428100Y602000D03*
D26*
X1151100Y484700D03*
D27*
X1125700Y484700D03*
D31*
X952900Y820700D03*
X952900Y917700D03*
D12*
X1199800Y825950D03*
X1199800Y810450D03*
D19*
X647600Y900600D03*
D20*
X647600Y925600D03*
X647600Y950600D03*
D32*
X1050280Y539650D03*
X1056880Y539650D03*
X1063480Y539650D03*
X1070080Y539650D03*
D33*
X1070080Y508550D03*
X1063480Y508550D03*
X1056880Y508550D03*
X1050280Y508550D03*
D34*
X1060180Y519720D03*
D35*
X1071160Y512350D03*
X1049240Y512350D03*
D36*
X964400Y655000D03*
X973900Y675000D03*
X954900Y675000D03*
X1165100Y948000D03*
X1155600Y928000D03*
X1174600Y928000D03*
D37*
X1233000Y912400D03*
X1213000Y921900D03*
X1213000Y902900D03*
D14*
X1440050Y560300D03*
X1424550Y560300D03*
D12*
X990000Y751150D03*
X990000Y766650D03*
X990000Y779950D03*
X990000Y795450D03*
D14*
X1140250Y754000D03*
X1155750Y754000D03*
D12*
X1142300Y855150D03*
X1142300Y870650D03*
D14*
X1379750Y560300D03*
X1364250Y560300D03*
D12*
X974300Y723350D03*
X974300Y738850D03*
D14*
X681750Y554300D03*
X666250Y554300D03*
X1318450Y561300D03*
X1302950Y561300D03*
X1256150Y561300D03*
X1240650Y561300D03*
X681750Y539300D03*
X666250Y539300D03*
X681750Y524300D03*
X666250Y524300D03*
X681750Y508300D03*
X666250Y508300D03*
X685750Y735300D03*
X670250Y735300D03*
X685750Y749300D03*
X670250Y749300D03*
X685750Y764300D03*
X670250Y764300D03*
X685750Y779300D03*
X670250Y779300D03*
X683750Y669300D03*
X668250Y669300D03*
X683750Y654300D03*
X668250Y654300D03*
X683750Y639300D03*
X668250Y639300D03*
X683750Y624300D03*
X668250Y624300D03*
X684750Y845300D03*
X669250Y845300D03*
X684750Y860400D03*
X669250Y860400D03*
X684750Y875400D03*
X669250Y875400D03*
X684750Y890400D03*
X669250Y890400D03*
X1372150Y505000D03*
X1356650Y505000D03*
X1345250Y505000D03*
X1329750Y505000D03*
D12*
X959600Y738850D03*
X959600Y723350D03*
X1011100Y723750D03*
X1011100Y739250D03*
D14*
X1156350Y912600D03*
X1171850Y912600D03*
X1432750Y505100D03*
X1417250Y505100D03*
X1405850Y505100D03*
X1390350Y505100D03*
X1248150Y505100D03*
X1232650Y505100D03*
X1221050Y505100D03*
X1205550Y505100D03*
X1310550Y505100D03*
X1295050Y505100D03*
X1283450Y505100D03*
X1267950Y505100D03*
X1582250Y906600D03*
X1597750Y906600D03*
X1582250Y921600D03*
X1597750Y921600D03*
D12*
X1025400Y952450D03*
X1025400Y967950D03*
D38*
X1231800Y859900D03*
X1222300Y859900D03*
X1212800Y859900D03*
X1212800Y885900D03*
X1231800Y885900D03*
D39*
X1151686Y610104D03*
X1174800Y610104D03*
X1197914Y610104D03*
D40*
X1174800Y546096D03*
D41*
X723749Y590764D03*
X723749Y607782D03*
X723749Y624800D03*
X723749Y641818D03*
X723749Y658836D03*
D42*
X841732Y624800D03*
D41*
X723749Y703064D03*
X723749Y720082D03*
X723749Y737100D03*
X723749Y754118D03*
X723749Y771136D03*
D42*
X841732Y737100D03*
D41*
X723749Y814464D03*
X723749Y831482D03*
X723749Y848500D03*
X723749Y865518D03*
X723749Y882536D03*
D42*
X841732Y848500D03*
D43*
X1301900Y880300D03*
D44*
X1301556Y545960D03*
X1319844Y545960D03*
X1310700Y525640D03*
X1239556Y545960D03*
X1257844Y545960D03*
X1248700Y525640D03*
D39*
X1081686Y609904D03*
X1104800Y609904D03*
X1127914Y609904D03*
D40*
X1104800Y545896D03*
D44*
X1423556Y544960D03*
X1441844Y544960D03*
X1432700Y524640D03*
X1363556Y544960D03*
X1381844Y544960D03*
X1372700Y524640D03*
D41*
X723749Y478464D03*
X723749Y495482D03*
X723749Y512500D03*
X723749Y529518D03*
X723749Y546536D03*
D42*
X841732Y512500D03*
D45*
X1041900Y946700D03*
X1058900Y946700D03*
X1075900Y946700D03*
X1092900Y946700D03*
X1109900Y946700D03*
D46*
X1075900Y850400D03*
D47*
X1284600Y979660D02*
X1284600Y990740D01*
X1198200Y990740D02*
X1198200Y979660D01*
X1198200Y948940D02*
X1198200Y937860D01*
X1284600Y937860D02*
X1284600Y948940D01*
D48*
X1212500Y948400D03*
X1270300Y948400D03*
D49*
X1596300Y984000D03*
D50*
X1576300Y984000D03*
X1556300Y984000D03*
X1536300Y984000D03*
X1516300Y984000D03*
X1496300Y984000D03*
X1476300Y984000D03*
X1456300Y984000D03*
X1436300Y984000D03*
X1416300Y984000D03*
X1416300Y764000D03*
X1436300Y764000D03*
X1456300Y764000D03*
X1476300Y764000D03*
X1496300Y764000D03*
X1516300Y764000D03*
X1536300Y764000D03*
X1556300Y764000D03*
X1576300Y764000D03*
X1596300Y764000D03*
D26*
X1089700Y484700D03*
D27*
X1064300Y484700D03*
D51*
X1163000Y615000D03*
X1271000Y904000D03*
X1332000Y557000D03*
X919000Y620000D03*
X894000Y535000D03*
X1162000Y723000D03*
X745000Y907000D03*
X1179000Y685000D03*
X1326000Y526000D03*
X1305000Y795000D03*
X934000Y720000D03*
X890000Y607000D03*
X780000Y523000D03*
X898000Y546000D03*
X1200000Y464000D03*
X1185000Y516000D03*
X1223000Y845000D03*
X1245000Y723000D03*
X1128000Y594000D03*
X1134000Y540000D03*
X954000Y960000D03*
X1328000Y791000D03*
X1305000Y784000D03*
X907000Y696000D03*
X907000Y643000D03*
X907000Y590000D03*
X1171000Y739000D03*
X1179000Y726000D03*
X896000Y696000D03*
X896000Y649000D03*
X901000Y612000D03*
X892000Y590000D03*
X809000Y667000D03*
X825000Y667000D03*
X1207000Y746000D03*
X1472000Y727000D03*
X919000Y631000D03*
X938000Y631000D03*
X1122000Y573000D03*
X811000Y685000D03*
X802000Y778000D03*
X813000Y797000D03*
X973000Y527000D03*
X1472000Y709000D03*
X1365000Y632000D03*
X1355000Y632000D03*
X1335000Y632000D03*
X1345000Y632000D03*
X892000Y625000D03*
X1392000Y527000D03*
X1356000Y587000D03*
X1136000Y795000D03*
X1155000Y799000D03*
X699000Y720000D03*
X699000Y832000D03*
X699000Y608000D03*
X699100Y495500D03*
X995000Y729000D03*
X1134000Y566000D03*
X1191000Y923000D03*
X1278000Y925000D03*
X1155000Y828000D03*
X1174000Y895000D03*
X1221900Y874700D03*
X1167000Y885000D03*
X995000Y739000D03*
X917000Y916000D03*
X902000Y823000D03*
X973000Y766000D03*
X699000Y478000D03*
X699000Y591000D03*
X699000Y703000D03*
X699000Y814000D03*
X791000Y902000D03*
X788000Y821000D03*
X1259000Y858000D03*
X1295000Y956000D03*
X1177000Y758000D03*
X1183000Y798000D03*
X1223000Y835000D03*
X1245000Y715000D03*
X1280000Y758000D03*
X1038000Y555000D03*
X1054000Y643000D03*
X1056000Y697000D03*
X1305000Y805000D03*
X1187000Y886000D03*
X1356000Y530000D03*
X1343000Y567000D03*
X1077000Y797000D03*
X1127000Y911000D03*
X1151000Y885000D03*
X1097000Y796000D03*
X1143000Y676000D03*
X1131000Y688000D03*
X1157000Y663000D03*
X1173000Y674000D03*
X1075000Y696000D03*
X698000Y529000D03*
X699000Y642000D03*
X1382000Y902000D03*
X1382000Y892000D03*
X699000Y546000D03*
X699000Y659000D03*
X700000Y771000D03*
X698000Y882000D03*
X699000Y754000D03*
X699000Y865000D03*
X699000Y559000D03*
X700000Y785000D03*
X1354000Y485000D03*
X1415000Y484000D03*
X699000Y672000D03*
X1231000Y485000D03*
X1293000Y484000D03*
X697000Y894000D03*
X1070000Y601000D03*
X1407000Y924000D03*
X1396000Y924000D03*
X1259000Y867000D03*
X1200000Y520000D03*
X1287000Y654000D03*
X1298000Y668000D03*
X1280000Y690000D03*
X1190000Y668000D03*
X1276000Y664000D03*
X1042000Y656000D03*
M02*
