G04 EAGLE Gerber RS-274X export*
G75*
%MOMM*%
%FSLAX34Y34*%
%LPD*%
%INSilkscreen Bottom*%
%IPPOS*%
%AMOC8*
5,1,8,0,0,1.08239X$1,22.5*%
G01*
%ADD10C,0.100000*%
%ADD11R,0.800000X0.300000*%
%ADD12R,0.100000X1.600000*%
%ADD13R,0.300000X0.800000*%
%ADD14R,1.600000X0.100000*%
%ADD15C,0.050000*%
%ADD16C,0.200000*%
%ADD17C,0.127000*%
%ADD18C,0.203200*%
%ADD19C,0.152400*%
%ADD20R,0.457200X0.584200*%
%ADD21R,0.584200X0.457200*%
%ADD22R,0.650000X0.500000*%
%ADD23C,0.076200*%
%ADD24C,0.000000*%


D10*
X364500Y168300D02*
X364500Y176300D01*
X377500Y176300D01*
X377500Y168300D01*
X364500Y159300D02*
X364500Y151300D01*
X377500Y151300D01*
X377500Y159300D01*
D11*
X371000Y170300D03*
X371000Y157300D03*
D12*
X367500Y163800D03*
X374500Y163800D03*
D10*
X64400Y32300D02*
X64400Y24300D01*
X51400Y24300D01*
X51400Y32300D01*
X64400Y41300D02*
X64400Y49300D01*
X51400Y49300D01*
X51400Y41300D01*
D11*
X57900Y30300D03*
X57900Y43300D03*
D12*
X61400Y36800D03*
X54400Y36800D03*
D10*
X67600Y41600D02*
X67600Y49600D01*
X80600Y49600D01*
X80600Y41600D01*
X67600Y32600D02*
X67600Y24600D01*
X80600Y24600D01*
X80600Y32600D01*
D11*
X74100Y43600D03*
X74100Y30600D03*
D12*
X70600Y37100D03*
X77600Y37100D03*
D10*
X67600Y166500D02*
X67600Y174500D01*
X80600Y174500D01*
X80600Y166500D01*
X67600Y157500D02*
X67600Y149500D01*
X80600Y149500D01*
X80600Y157500D01*
D11*
X74100Y168500D03*
X74100Y155500D03*
D12*
X70600Y162000D03*
X77600Y162000D03*
D10*
X64400Y274400D02*
X64400Y282400D01*
X64400Y274400D02*
X51400Y274400D01*
X51400Y282400D01*
X64400Y291400D02*
X64400Y299400D01*
X51400Y299400D01*
X51400Y291400D01*
D11*
X57900Y280400D03*
X57900Y293400D03*
D12*
X61400Y286900D03*
X54400Y286900D03*
D10*
X66600Y291700D02*
X66600Y299700D01*
X79600Y299700D01*
X79600Y291700D01*
X66600Y282700D02*
X66600Y274700D01*
X79600Y274700D01*
X79600Y282700D01*
D11*
X73100Y293700D03*
X73100Y280700D03*
D12*
X69600Y287200D03*
X76600Y287200D03*
D10*
X65400Y400200D02*
X65400Y408200D01*
X65400Y400200D02*
X52400Y400200D01*
X52400Y408200D01*
X65400Y417200D02*
X65400Y425200D01*
X52400Y425200D01*
X52400Y417200D01*
D11*
X58900Y406200D03*
X58900Y419200D03*
D12*
X62400Y412700D03*
X55400Y412700D03*
D10*
X309600Y243000D02*
X309600Y235000D01*
X309600Y243000D02*
X322600Y243000D01*
X322600Y235000D01*
X309600Y226000D02*
X309600Y218000D01*
X322600Y218000D01*
X322600Y226000D01*
D11*
X316100Y237000D03*
X316100Y224000D03*
D12*
X312600Y230500D03*
X319600Y230500D03*
D10*
X67600Y417100D02*
X67600Y425100D01*
X80600Y425100D01*
X80600Y417100D01*
X67600Y408100D02*
X67600Y400100D01*
X80600Y400100D01*
X80600Y408100D01*
D11*
X74100Y419100D03*
X74100Y406100D03*
D12*
X70600Y412600D03*
X77600Y412600D03*
D10*
X337400Y76600D02*
X345400Y76600D01*
X345400Y63600D01*
X337400Y63600D01*
X328400Y76600D02*
X320400Y76600D01*
X320400Y63600D01*
X328400Y63600D01*
D13*
X339400Y70100D03*
X326400Y70100D03*
D14*
X332900Y73600D03*
X332900Y66600D03*
D10*
X344800Y149400D02*
X352800Y149400D01*
X352800Y136400D01*
X344800Y136400D01*
X335800Y149400D02*
X327800Y149400D01*
X327800Y136400D01*
X335800Y136400D01*
D13*
X346800Y142900D03*
X333800Y142900D03*
D14*
X340300Y146400D03*
X340300Y139400D03*
D10*
X260600Y383900D02*
X260600Y391900D01*
X273600Y391900D01*
X273600Y383900D01*
X260600Y374900D02*
X260600Y366900D01*
X273600Y366900D01*
X273600Y374900D01*
D11*
X267100Y385900D03*
X267100Y372900D03*
D12*
X263600Y379400D03*
X270600Y379400D03*
D10*
X65400Y157100D02*
X65400Y149100D01*
X52400Y149100D01*
X52400Y157100D01*
X65400Y166100D02*
X65400Y174100D01*
X52400Y174100D01*
X52400Y166100D01*
D11*
X58900Y155100D03*
X58900Y168100D03*
D12*
X62400Y161600D03*
X55400Y161600D03*
D15*
X308300Y217350D02*
X308300Y273050D01*
X278300Y273050D01*
X278300Y217350D01*
X308300Y217350D01*
D10*
X305800Y226700D02*
X305800Y263700D01*
X280800Y263700D01*
X280800Y226700D01*
X305800Y226700D01*
X300200Y226700D02*
X305800Y232300D01*
D16*
X305800Y218850D02*
X305800Y263700D01*
X280800Y263700D02*
X280800Y226700D01*
D15*
X383700Y237550D02*
X383700Y181850D01*
X413700Y181850D01*
X413700Y237550D01*
X383700Y237550D01*
D10*
X386200Y228200D02*
X386200Y191200D01*
X411200Y191200D01*
X411200Y228200D01*
X386200Y228200D01*
X391800Y228200D02*
X386200Y222600D01*
D16*
X386200Y236050D02*
X386200Y191200D01*
X411200Y191200D02*
X411200Y228200D01*
D15*
X476300Y334250D02*
X476300Y389950D01*
X446300Y389950D01*
X446300Y334250D01*
X476300Y334250D01*
D10*
X473800Y343600D02*
X473800Y380600D01*
X448800Y380600D01*
X448800Y343600D01*
X473800Y343600D01*
X468200Y343600D02*
X473800Y349200D01*
D16*
X473800Y335750D02*
X473800Y380600D01*
X448800Y380600D02*
X448800Y343600D01*
D15*
X327800Y214400D02*
X327800Y151400D01*
X362800Y151400D01*
X362800Y214400D01*
X327800Y214400D01*
D10*
X330300Y197900D02*
X330300Y167900D01*
X360300Y167900D01*
X360300Y197900D01*
X330300Y197900D01*
X336800Y197900D02*
X330300Y191400D01*
D16*
X330300Y194400D02*
X330300Y171400D01*
X360300Y171400D01*
X360300Y194400D01*
X330300Y194400D01*
X329800Y197900D02*
X329800Y211900D01*
D17*
X747400Y139550D02*
X747400Y76050D01*
X763900Y76050D01*
X763900Y139550D01*
X747400Y139550D01*
X763900Y139550D02*
X842600Y139550D01*
X842600Y76050D01*
X763900Y76050D01*
X326800Y355000D02*
X260800Y355000D01*
X260800Y284000D02*
X326800Y284000D01*
X260800Y284000D02*
X260800Y355000D01*
X326800Y355000D02*
X326800Y284000D01*
X260800Y284000D02*
X260800Y355000D01*
X326800Y355000D02*
X326800Y284000D01*
D16*
X414450Y176450D02*
X414450Y145950D01*
X414450Y176450D02*
X383950Y176450D01*
X383950Y145950D01*
X414450Y145950D01*
D10*
X414450Y176750D01*
X383950Y176450D02*
X383950Y146200D01*
D18*
X309424Y376696D02*
X309424Y389904D01*
D19*
X277976Y389904D01*
D18*
X277976Y376696D01*
X309424Y376696D01*
X276976Y376696D02*
X276976Y389824D01*
X276976Y376696D02*
X286564Y376696D01*
X310424Y376696D02*
X310424Y389824D01*
X310424Y376696D02*
X300836Y376696D01*
X295924Y389904D02*
X291336Y389904D01*
D20*
X293700Y373267D03*
X303098Y393333D03*
X284302Y393333D03*
D16*
X294750Y182150D02*
X294750Y151650D01*
X325250Y151650D01*
X325250Y182150D01*
X294750Y182150D01*
D10*
X294750Y151350D01*
X325250Y151650D02*
X325250Y181900D01*
D16*
X261450Y182150D02*
X261450Y151650D01*
X291950Y151650D01*
X291950Y182150D01*
X261450Y182150D01*
D10*
X261450Y151350D01*
X291950Y151650D02*
X291950Y181900D01*
D18*
X425096Y428524D02*
X438304Y428524D01*
D19*
X425096Y428524D02*
X425096Y397076D01*
D18*
X438304Y397076D01*
X438304Y428524D01*
X438304Y396076D02*
X425176Y396076D01*
X438304Y396076D02*
X438304Y405664D01*
X438304Y429524D02*
X425176Y429524D01*
X438304Y429524D02*
X438304Y419936D01*
X425096Y415024D02*
X425096Y410436D01*
D21*
X441733Y412800D03*
X421667Y422198D03*
X421667Y403402D03*
D10*
X79500Y93700D02*
X79500Y85700D01*
X66500Y85700D01*
X66500Y93700D01*
X79500Y102700D02*
X79500Y110700D01*
X66500Y110700D01*
X66500Y102700D01*
D11*
X73000Y91700D03*
X73000Y104700D03*
D12*
X76500Y98200D03*
X69500Y98200D03*
D10*
X64500Y93800D02*
X64500Y85800D01*
X51500Y85800D01*
X51500Y93800D01*
X64500Y102800D02*
X64500Y110800D01*
X51500Y110800D01*
X51500Y102800D01*
D11*
X58000Y91800D03*
X58000Y104800D03*
D12*
X61500Y98300D03*
X54500Y98300D03*
D10*
X664000Y100500D02*
X672000Y100500D01*
X672000Y87500D01*
X664000Y87500D01*
X655000Y100500D02*
X647000Y100500D01*
X647000Y87500D01*
X655000Y87500D01*
D13*
X666000Y94000D03*
X653000Y94000D03*
D14*
X659500Y97500D03*
X659500Y90500D03*
D10*
X277200Y214600D02*
X277200Y222600D01*
X277200Y214600D02*
X264200Y214600D01*
X264200Y222600D01*
X277200Y231600D02*
X277200Y239600D01*
X264200Y239600D01*
X264200Y231600D01*
D11*
X270700Y220600D03*
X270700Y233600D03*
D12*
X274200Y227100D03*
X267200Y227100D03*
D10*
X276500Y241900D02*
X276500Y249900D01*
X276500Y241900D02*
X263500Y241900D01*
X263500Y249900D01*
X276500Y258900D02*
X276500Y266900D01*
X263500Y266900D01*
X263500Y258900D01*
D11*
X270000Y247900D03*
X270000Y260900D03*
D12*
X273500Y254400D03*
X266500Y254400D03*
D10*
X614400Y100500D02*
X622400Y100500D01*
X622400Y87500D01*
X614400Y87500D01*
X605400Y100500D02*
X597400Y100500D01*
X597400Y87500D01*
X605400Y87500D01*
D13*
X616400Y94000D03*
X603400Y94000D03*
D14*
X609900Y97500D03*
X609900Y90500D03*
D10*
X79500Y210500D02*
X79500Y218500D01*
X79500Y210500D02*
X66500Y210500D01*
X66500Y218500D01*
X79500Y227500D02*
X79500Y235500D01*
X66500Y235500D01*
X66500Y227500D01*
D11*
X73000Y216500D03*
X73000Y229500D03*
D12*
X76500Y223000D03*
X69500Y223000D03*
D10*
X64500Y218600D02*
X64500Y210600D01*
X51500Y210600D01*
X51500Y218600D01*
X64500Y227600D02*
X64500Y235600D01*
X51500Y235600D01*
X51500Y227600D01*
D11*
X58000Y216600D03*
X58000Y229600D03*
D12*
X61500Y223100D03*
X54500Y223100D03*
D10*
X291500Y198700D02*
X291500Y190700D01*
X278500Y190700D01*
X278500Y198700D01*
X291500Y207700D02*
X291500Y215700D01*
X278500Y215700D01*
X278500Y207700D01*
D11*
X285000Y196700D03*
X285000Y209700D03*
D12*
X288500Y203200D03*
X281500Y203200D03*
D10*
X77500Y69000D02*
X69500Y69000D01*
X77500Y69000D02*
X77500Y56000D01*
X69500Y56000D01*
X60500Y69000D02*
X52500Y69000D01*
X52500Y56000D01*
X60500Y56000D01*
D13*
X71500Y62500D03*
X58500Y62500D03*
D14*
X65000Y66000D03*
X65000Y59000D03*
D10*
X511900Y100500D02*
X519900Y100500D01*
X519900Y87500D01*
X511900Y87500D01*
X502900Y100500D02*
X494900Y100500D01*
X494900Y87500D01*
X502900Y87500D01*
D13*
X513900Y94000D03*
X500900Y94000D03*
D14*
X507400Y97500D03*
X507400Y90500D03*
D10*
X77500Y194000D02*
X69500Y194000D01*
X77500Y194000D02*
X77500Y181000D01*
X69500Y181000D01*
X60500Y194000D02*
X52500Y194000D01*
X52500Y181000D01*
X60500Y181000D01*
D13*
X71500Y187500D03*
X58500Y187500D03*
D14*
X65000Y191000D03*
X65000Y184000D03*
D10*
X79500Y335900D02*
X79500Y343900D01*
X79500Y335900D02*
X66500Y335900D01*
X66500Y343900D01*
X79500Y352900D02*
X79500Y360900D01*
X66500Y360900D01*
X66500Y352900D01*
D11*
X73000Y341900D03*
X73000Y354900D03*
D12*
X76500Y348400D03*
X69500Y348400D03*
D10*
X64500Y344300D02*
X64500Y336300D01*
X51500Y336300D01*
X51500Y344300D01*
X64500Y353300D02*
X64500Y361300D01*
X51500Y361300D01*
X51500Y353300D01*
D11*
X58000Y342300D03*
X58000Y355300D03*
D12*
X61500Y348800D03*
X54500Y348800D03*
D10*
X69500Y319000D02*
X77500Y319000D01*
X77500Y306000D01*
X69500Y306000D01*
X60500Y319000D02*
X52500Y319000D01*
X52500Y306000D01*
X60500Y306000D01*
D13*
X71500Y312500D03*
X58500Y312500D03*
D14*
X65000Y316000D03*
X65000Y309000D03*
D10*
X79600Y461000D02*
X79600Y469000D01*
X79600Y461000D02*
X66600Y461000D01*
X66600Y469000D01*
X79600Y478000D02*
X79600Y486000D01*
X66600Y486000D01*
X66600Y478000D01*
D11*
X73100Y467000D03*
X73100Y480000D03*
D12*
X76600Y473500D03*
X69600Y473500D03*
D10*
X64600Y468900D02*
X64600Y460900D01*
X51600Y460900D01*
X51600Y468900D01*
X64600Y477900D02*
X64600Y485900D01*
X51600Y485900D01*
X51600Y477900D01*
D11*
X58100Y466900D03*
X58100Y479900D03*
D12*
X61600Y473400D03*
X54600Y473400D03*
D10*
X69500Y444000D02*
X77500Y444000D01*
X77500Y431000D01*
X69500Y431000D01*
X60500Y444000D02*
X52500Y444000D01*
X52500Y431000D01*
X60500Y431000D01*
D13*
X71500Y437500D03*
X58500Y437500D03*
D14*
X65000Y441000D03*
X65000Y434000D03*
D10*
X563400Y100600D02*
X571400Y100600D01*
X571400Y87600D01*
X563400Y87600D01*
X554400Y100600D02*
X546400Y100600D01*
X546400Y87600D01*
X554400Y87600D01*
D13*
X565400Y94100D03*
X552400Y94100D03*
D14*
X558900Y97600D03*
X558900Y90600D03*
D10*
X451400Y408100D02*
X451400Y416100D01*
X464400Y416100D01*
X464400Y408100D01*
X451400Y399100D02*
X451400Y391100D01*
X464400Y391100D01*
X464400Y399100D01*
D11*
X457900Y410100D03*
X457900Y397100D03*
D12*
X454400Y403600D03*
X461400Y403600D03*
D10*
X445000Y372600D02*
X437000Y372600D01*
X445000Y372600D02*
X445000Y359600D01*
X437000Y359600D01*
X428000Y372600D02*
X420000Y372600D01*
X420000Y359600D01*
X428000Y359600D01*
D13*
X439000Y366100D03*
X426000Y366100D03*
D14*
X432500Y369600D03*
X432500Y362600D03*
D10*
X307600Y198200D02*
X307600Y190200D01*
X294600Y190200D01*
X294600Y198200D01*
X307600Y207200D02*
X307600Y215200D01*
X294600Y215200D01*
X294600Y207200D01*
D11*
X301100Y196200D03*
X301100Y209200D03*
D12*
X304600Y202700D03*
X297600Y202700D03*
D10*
X355400Y239200D02*
X363400Y239200D01*
X363400Y226200D01*
X355400Y226200D01*
X346400Y239200D02*
X338400Y239200D01*
X338400Y226200D01*
X346400Y226200D01*
D13*
X357400Y232700D03*
X344400Y232700D03*
D14*
X350900Y236200D03*
X350900Y229200D03*
D10*
X306700Y414600D02*
X298700Y414600D01*
X306700Y414600D02*
X306700Y401600D01*
X298700Y401600D01*
X289700Y414600D02*
X281700Y414600D01*
X281700Y401600D01*
X289700Y401600D01*
D13*
X300700Y408100D03*
X287700Y408100D03*
D14*
X294200Y411600D03*
X294200Y404600D03*
D10*
X313300Y392600D02*
X313300Y384600D01*
X313300Y392600D02*
X326300Y392600D01*
X326300Y384600D01*
X313300Y375600D02*
X313300Y367600D01*
X326300Y367600D01*
X326300Y375600D01*
D11*
X319800Y386600D03*
X319800Y373600D03*
D12*
X316300Y380100D03*
X323300Y380100D03*
D19*
X454100Y418580D02*
X470300Y418580D01*
X470300Y447020D01*
X454100Y447020D01*
X454100Y418580D01*
X454100Y427580D02*
X454100Y438020D01*
X470300Y438020D02*
X470300Y437080D01*
X470300Y428520D02*
X470300Y427580D01*
X470300Y446080D02*
X470300Y447020D01*
X470300Y419520D02*
X470300Y418580D01*
X454100Y418580D02*
X454100Y419520D01*
X454100Y446080D02*
X454100Y447020D01*
D17*
X464200Y442800D02*
X464202Y442863D01*
X464208Y442925D01*
X464218Y442987D01*
X464231Y443049D01*
X464249Y443109D01*
X464270Y443168D01*
X464295Y443226D01*
X464324Y443282D01*
X464356Y443336D01*
X464391Y443388D01*
X464429Y443437D01*
X464471Y443485D01*
X464515Y443529D01*
X464563Y443571D01*
X464612Y443609D01*
X464664Y443644D01*
X464718Y443676D01*
X464774Y443705D01*
X464832Y443730D01*
X464891Y443751D01*
X464951Y443769D01*
X465013Y443782D01*
X465075Y443792D01*
X465137Y443798D01*
X465200Y443800D01*
X465263Y443798D01*
X465325Y443792D01*
X465387Y443782D01*
X465449Y443769D01*
X465509Y443751D01*
X465568Y443730D01*
X465626Y443705D01*
X465682Y443676D01*
X465736Y443644D01*
X465788Y443609D01*
X465837Y443571D01*
X465885Y443529D01*
X465929Y443485D01*
X465971Y443437D01*
X466009Y443388D01*
X466044Y443336D01*
X466076Y443282D01*
X466105Y443226D01*
X466130Y443168D01*
X466151Y443109D01*
X466169Y443049D01*
X466182Y442987D01*
X466192Y442925D01*
X466198Y442863D01*
X466200Y442800D01*
X466198Y442737D01*
X466192Y442675D01*
X466182Y442613D01*
X466169Y442551D01*
X466151Y442491D01*
X466130Y442432D01*
X466105Y442374D01*
X466076Y442318D01*
X466044Y442264D01*
X466009Y442212D01*
X465971Y442163D01*
X465929Y442115D01*
X465885Y442071D01*
X465837Y442029D01*
X465788Y441991D01*
X465736Y441956D01*
X465682Y441924D01*
X465626Y441895D01*
X465568Y441870D01*
X465509Y441849D01*
X465449Y441831D01*
X465387Y441818D01*
X465325Y441808D01*
X465263Y441802D01*
X465200Y441800D01*
X465137Y441802D01*
X465075Y441808D01*
X465013Y441818D01*
X464951Y441831D01*
X464891Y441849D01*
X464832Y441870D01*
X464774Y441895D01*
X464718Y441924D01*
X464664Y441956D01*
X464612Y441991D01*
X464563Y442029D01*
X464515Y442071D01*
X464471Y442115D01*
X464429Y442163D01*
X464391Y442212D01*
X464356Y442264D01*
X464324Y442318D01*
X464295Y442374D01*
X464270Y442432D01*
X464249Y442491D01*
X464231Y442551D01*
X464218Y442613D01*
X464208Y442675D01*
X464202Y442737D01*
X464200Y442800D01*
D22*
X473950Y442300D03*
X473950Y432800D03*
X473950Y423300D03*
X450450Y423300D03*
X450450Y442300D03*
D19*
X135644Y33036D02*
X135644Y23892D01*
X85352Y23892D01*
X85352Y33036D01*
X135644Y33036D01*
X135644Y40910D02*
X135644Y50054D01*
X135644Y40910D02*
X85352Y40910D01*
X85352Y50054D01*
X135644Y50054D01*
X135644Y57928D02*
X135644Y60468D01*
X135644Y57928D02*
X85352Y57928D01*
X85352Y67072D01*
X135644Y67072D01*
X135644Y74946D02*
X135644Y84090D01*
X135644Y74946D02*
X85352Y74946D01*
X85352Y84090D01*
X135644Y84090D01*
X135644Y91964D02*
X135644Y101108D01*
X135644Y91964D02*
X85352Y91964D01*
X85352Y101108D01*
X135644Y101108D01*
X135644Y67072D02*
X135644Y64532D01*
X135644Y60468D01*
X132088Y60722D01*
X132088Y64532D01*
X135644Y64532D01*
X135644Y115840D02*
X135644Y9160D01*
X135644Y115840D02*
X244356Y115840D01*
X244356Y9160D01*
X135644Y9160D01*
D23*
X137112Y26651D02*
X141091Y26651D01*
X137112Y26651D02*
X134127Y28972D01*
X137112Y26651D02*
X134127Y24329D01*
X137112Y26651D02*
X138438Y30298D01*
X137112Y26651D02*
X138438Y23003D01*
D19*
X129548Y23892D02*
X119388Y23892D01*
X119388Y40910D02*
X129548Y40910D01*
X129548Y57928D02*
X119388Y57928D01*
X119388Y74946D02*
X129548Y74946D01*
X129548Y91964D02*
X119388Y91964D01*
X119388Y33036D02*
X129548Y33036D01*
X129548Y50054D02*
X119388Y50054D01*
X119388Y67072D02*
X129548Y67072D01*
X129548Y84090D02*
X119388Y84090D01*
X119388Y101108D02*
X129548Y101108D01*
X134628Y59452D02*
X134628Y7890D01*
X134628Y59452D02*
X130564Y59452D01*
X130564Y65548D01*
X134628Y65548D01*
X134628Y117110D01*
X245372Y117110D01*
X245372Y98314D01*
X245372Y7890D02*
X134628Y7890D01*
X245372Y7890D02*
X245372Y26686D01*
D23*
X102483Y11919D02*
X98504Y11919D01*
X95519Y14240D01*
X98504Y11919D02*
X95519Y9597D01*
X98504Y11919D02*
X99830Y15566D01*
X98504Y11919D02*
X99830Y8271D01*
D19*
X135644Y148892D02*
X135644Y158036D01*
X135644Y148892D02*
X85352Y148892D01*
X85352Y158036D01*
X135644Y158036D01*
X135644Y165910D02*
X135644Y175054D01*
X135644Y165910D02*
X85352Y165910D01*
X85352Y175054D01*
X135644Y175054D01*
X135644Y182928D02*
X135644Y185468D01*
X135644Y182928D02*
X85352Y182928D01*
X85352Y192072D01*
X135644Y192072D01*
X135644Y199946D02*
X135644Y209090D01*
X135644Y199946D02*
X85352Y199946D01*
X85352Y209090D01*
X135644Y209090D01*
X135644Y216964D02*
X135644Y226108D01*
X135644Y216964D02*
X85352Y216964D01*
X85352Y226108D01*
X135644Y226108D01*
X135644Y192072D02*
X135644Y189532D01*
X135644Y185468D01*
X132088Y185722D01*
X132088Y189532D01*
X135644Y189532D01*
X135644Y240840D02*
X135644Y134160D01*
X135644Y240840D02*
X244356Y240840D01*
X244356Y134160D01*
X135644Y134160D01*
D23*
X137112Y151651D02*
X141091Y151651D01*
X137112Y151651D02*
X134127Y153972D01*
X137112Y151651D02*
X134127Y149329D01*
X137112Y151651D02*
X138438Y155298D01*
X137112Y151651D02*
X138438Y148003D01*
D19*
X129548Y148892D02*
X119388Y148892D01*
X119388Y165910D02*
X129548Y165910D01*
X129548Y182928D02*
X119388Y182928D01*
X119388Y199946D02*
X129548Y199946D01*
X129548Y216964D02*
X119388Y216964D01*
X119388Y158036D02*
X129548Y158036D01*
X129548Y175054D02*
X119388Y175054D01*
X119388Y192072D02*
X129548Y192072D01*
X129548Y209090D02*
X119388Y209090D01*
X119388Y226108D02*
X129548Y226108D01*
X134628Y184452D02*
X134628Y132890D01*
X134628Y184452D02*
X130564Y184452D01*
X130564Y190548D01*
X134628Y190548D01*
X134628Y242110D01*
X245372Y242110D01*
X245372Y223314D01*
X245372Y132890D02*
X134628Y132890D01*
X245372Y132890D02*
X245372Y151686D01*
D23*
X102483Y136919D02*
X98504Y136919D01*
X95519Y139240D01*
X98504Y136919D02*
X95519Y134597D01*
X98504Y136919D02*
X99830Y140566D01*
X98504Y136919D02*
X99830Y133271D01*
D19*
X135644Y273892D02*
X135644Y283036D01*
X135644Y273892D02*
X85352Y273892D01*
X85352Y283036D01*
X135644Y283036D01*
X135644Y290910D02*
X135644Y300054D01*
X135644Y290910D02*
X85352Y290910D01*
X85352Y300054D01*
X135644Y300054D01*
X135644Y307928D02*
X135644Y310468D01*
X135644Y307928D02*
X85352Y307928D01*
X85352Y317072D01*
X135644Y317072D01*
X135644Y324946D02*
X135644Y334090D01*
X135644Y324946D02*
X85352Y324946D01*
X85352Y334090D01*
X135644Y334090D01*
X135644Y341964D02*
X135644Y351108D01*
X135644Y341964D02*
X85352Y341964D01*
X85352Y351108D01*
X135644Y351108D01*
X135644Y317072D02*
X135644Y314532D01*
X135644Y310468D01*
X132088Y310722D01*
X132088Y314532D01*
X135644Y314532D01*
X135644Y365840D02*
X135644Y259160D01*
X135644Y365840D02*
X244356Y365840D01*
X244356Y259160D01*
X135644Y259160D01*
D23*
X137112Y276651D02*
X141091Y276651D01*
X137112Y276651D02*
X134127Y278972D01*
X137112Y276651D02*
X134127Y274329D01*
X137112Y276651D02*
X138438Y280298D01*
X137112Y276651D02*
X138438Y273003D01*
D19*
X129548Y273892D02*
X119388Y273892D01*
X119388Y290910D02*
X129548Y290910D01*
X129548Y307928D02*
X119388Y307928D01*
X119388Y324946D02*
X129548Y324946D01*
X129548Y341964D02*
X119388Y341964D01*
X119388Y283036D02*
X129548Y283036D01*
X129548Y300054D02*
X119388Y300054D01*
X119388Y317072D02*
X129548Y317072D01*
X129548Y334090D02*
X119388Y334090D01*
X119388Y351108D02*
X129548Y351108D01*
X134628Y309452D02*
X134628Y257890D01*
X134628Y309452D02*
X130564Y309452D01*
X130564Y315548D01*
X134628Y315548D01*
X134628Y367110D01*
X245372Y367110D01*
X245372Y348314D01*
X245372Y257890D02*
X134628Y257890D01*
X245372Y257890D02*
X245372Y276686D01*
D23*
X102483Y261919D02*
X98504Y261919D01*
X95519Y264240D01*
X98504Y261919D02*
X95519Y259597D01*
X98504Y261919D02*
X99830Y265566D01*
X98504Y261919D02*
X99830Y258271D01*
D19*
X135644Y398892D02*
X135644Y408036D01*
X135644Y398892D02*
X85352Y398892D01*
X85352Y408036D01*
X135644Y408036D01*
X135644Y415910D02*
X135644Y425054D01*
X135644Y415910D02*
X85352Y415910D01*
X85352Y425054D01*
X135644Y425054D01*
X135644Y432928D02*
X135644Y435468D01*
X135644Y432928D02*
X85352Y432928D01*
X85352Y442072D01*
X135644Y442072D01*
X135644Y449946D02*
X135644Y459090D01*
X135644Y449946D02*
X85352Y449946D01*
X85352Y459090D01*
X135644Y459090D01*
X135644Y466964D02*
X135644Y476108D01*
X135644Y466964D02*
X85352Y466964D01*
X85352Y476108D01*
X135644Y476108D01*
X135644Y442072D02*
X135644Y439532D01*
X135644Y435468D01*
X132088Y435722D01*
X132088Y439532D01*
X135644Y439532D01*
X135644Y490840D02*
X135644Y384160D01*
X135644Y490840D02*
X244356Y490840D01*
X244356Y384160D01*
X135644Y384160D01*
D23*
X137112Y401651D02*
X141091Y401651D01*
X137112Y401651D02*
X134127Y403972D01*
X137112Y401651D02*
X134127Y399329D01*
X137112Y401651D02*
X138438Y405298D01*
X137112Y401651D02*
X138438Y398003D01*
D19*
X129548Y398892D02*
X119388Y398892D01*
X119388Y415910D02*
X129548Y415910D01*
X129548Y432928D02*
X119388Y432928D01*
X119388Y449946D02*
X129548Y449946D01*
X129548Y466964D02*
X119388Y466964D01*
X119388Y408036D02*
X129548Y408036D01*
X129548Y425054D02*
X119388Y425054D01*
X119388Y442072D02*
X129548Y442072D01*
X129548Y459090D02*
X119388Y459090D01*
X119388Y476108D02*
X129548Y476108D01*
X134628Y434452D02*
X134628Y382890D01*
X134628Y434452D02*
X130564Y434452D01*
X130564Y440548D01*
X134628Y440548D01*
X134628Y492110D01*
X245372Y492110D01*
X245372Y473314D01*
X245372Y382890D02*
X134628Y382890D01*
X245372Y382890D02*
X245372Y401686D01*
D23*
X102483Y386919D02*
X98504Y386919D01*
X95519Y389240D01*
X98504Y386919D02*
X95519Y384597D01*
X98504Y386919D02*
X99830Y390566D01*
X98504Y386919D02*
X99830Y383271D01*
D17*
X333500Y314800D02*
X363500Y314800D01*
X364150Y314800D02*
X364150Y331800D01*
X363500Y331800D02*
X333500Y331800D01*
X332850Y331800D02*
X332850Y314800D01*
X363500Y314800D02*
X363500Y331800D01*
X333500Y331800D02*
X333500Y314800D01*
D16*
X357000Y300250D02*
X357002Y300313D01*
X357008Y300375D01*
X357018Y300437D01*
X357031Y300499D01*
X357049Y300559D01*
X357070Y300618D01*
X357095Y300676D01*
X357124Y300732D01*
X357156Y300786D01*
X357191Y300838D01*
X357229Y300887D01*
X357271Y300935D01*
X357315Y300979D01*
X357363Y301021D01*
X357412Y301059D01*
X357464Y301094D01*
X357518Y301126D01*
X357574Y301155D01*
X357632Y301180D01*
X357691Y301201D01*
X357751Y301219D01*
X357813Y301232D01*
X357875Y301242D01*
X357937Y301248D01*
X358000Y301250D01*
X358063Y301248D01*
X358125Y301242D01*
X358187Y301232D01*
X358249Y301219D01*
X358309Y301201D01*
X358368Y301180D01*
X358426Y301155D01*
X358482Y301126D01*
X358536Y301094D01*
X358588Y301059D01*
X358637Y301021D01*
X358685Y300979D01*
X358729Y300935D01*
X358771Y300887D01*
X358809Y300838D01*
X358844Y300786D01*
X358876Y300732D01*
X358905Y300676D01*
X358930Y300618D01*
X358951Y300559D01*
X358969Y300499D01*
X358982Y300437D01*
X358992Y300375D01*
X358998Y300313D01*
X359000Y300250D01*
X358998Y300187D01*
X358992Y300125D01*
X358982Y300063D01*
X358969Y300001D01*
X358951Y299941D01*
X358930Y299882D01*
X358905Y299824D01*
X358876Y299768D01*
X358844Y299714D01*
X358809Y299662D01*
X358771Y299613D01*
X358729Y299565D01*
X358685Y299521D01*
X358637Y299479D01*
X358588Y299441D01*
X358536Y299406D01*
X358482Y299374D01*
X358426Y299345D01*
X358368Y299320D01*
X358309Y299299D01*
X358249Y299281D01*
X358187Y299268D01*
X358125Y299258D01*
X358063Y299252D01*
X358000Y299250D01*
X357937Y299252D01*
X357875Y299258D01*
X357813Y299268D01*
X357751Y299281D01*
X357691Y299299D01*
X357632Y299320D01*
X357574Y299345D01*
X357518Y299374D01*
X357464Y299406D01*
X357412Y299441D01*
X357363Y299479D01*
X357315Y299521D01*
X357271Y299565D01*
X357229Y299613D01*
X357191Y299662D01*
X357156Y299714D01*
X357124Y299768D01*
X357095Y299824D01*
X357070Y299882D01*
X357049Y299941D01*
X357031Y300001D01*
X357018Y300063D01*
X357008Y300125D01*
X357002Y300187D01*
X357000Y300250D01*
X357002Y300313D01*
X357008Y300375D01*
X357018Y300437D01*
X357031Y300499D01*
X357049Y300559D01*
X357070Y300618D01*
X357095Y300676D01*
X357124Y300732D01*
X357156Y300786D01*
X357191Y300838D01*
X357229Y300887D01*
X357271Y300935D01*
X357315Y300979D01*
X357363Y301021D01*
X357412Y301059D01*
X357464Y301094D01*
X357518Y301126D01*
X357574Y301155D01*
X357632Y301180D01*
X357691Y301201D01*
X357751Y301219D01*
X357813Y301232D01*
X357875Y301242D01*
X357937Y301248D01*
X358000Y301250D01*
X358063Y301248D01*
X358125Y301242D01*
X358187Y301232D01*
X358249Y301219D01*
X358309Y301201D01*
X358368Y301180D01*
X358426Y301155D01*
X358482Y301126D01*
X358536Y301094D01*
X358588Y301059D01*
X358637Y301021D01*
X358685Y300979D01*
X358729Y300935D01*
X358771Y300887D01*
X358809Y300838D01*
X358844Y300786D01*
X358876Y300732D01*
X358905Y300676D01*
X358930Y300618D01*
X358951Y300559D01*
X358969Y300499D01*
X358982Y300437D01*
X358992Y300375D01*
X358998Y300313D01*
X359000Y300250D01*
X358998Y300187D01*
X358992Y300125D01*
X358982Y300063D01*
X358969Y300001D01*
X358951Y299941D01*
X358930Y299882D01*
X358905Y299824D01*
X358876Y299768D01*
X358844Y299714D01*
X358809Y299662D01*
X358771Y299613D01*
X358729Y299565D01*
X358685Y299521D01*
X358637Y299479D01*
X358588Y299441D01*
X358536Y299406D01*
X358482Y299374D01*
X358426Y299345D01*
X358368Y299320D01*
X358309Y299299D01*
X358249Y299281D01*
X358187Y299268D01*
X358125Y299258D01*
X358063Y299252D01*
X358000Y299250D01*
X357937Y299252D01*
X357875Y299258D01*
X357813Y299268D01*
X357751Y299281D01*
X357691Y299299D01*
X357632Y299320D01*
X357574Y299345D01*
X357518Y299374D01*
X357464Y299406D01*
X357412Y299441D01*
X357363Y299479D01*
X357315Y299521D01*
X357271Y299565D01*
X357229Y299613D01*
X357191Y299662D01*
X357156Y299714D01*
X357124Y299768D01*
X357095Y299824D01*
X357070Y299882D01*
X357049Y299941D01*
X357031Y300001D01*
X357018Y300063D01*
X357008Y300125D01*
X357002Y300187D01*
X357000Y300250D01*
D19*
X492514Y62396D02*
X501404Y62396D01*
X522486Y62396D02*
X522486Y71286D01*
X522486Y62396D02*
X513596Y62396D01*
X492514Y62396D02*
X492514Y65952D01*
X492514Y71286D01*
X495562Y69254D02*
X495570Y69144D01*
X495573Y69034D01*
X495572Y68924D01*
X495567Y68815D01*
X495559Y68705D01*
X495546Y68596D01*
X495530Y68487D01*
X495509Y68379D01*
X495485Y68272D01*
X495457Y68166D01*
X495425Y68061D01*
X495389Y67957D01*
X495350Y67854D01*
X495307Y67753D01*
X495260Y67654D01*
X495210Y67556D01*
X495156Y67460D01*
X495099Y67367D01*
X495038Y67275D01*
X494975Y67185D01*
X494908Y67098D01*
X494838Y67014D01*
X494765Y66932D01*
X494689Y66852D01*
X494610Y66776D01*
X494528Y66702D01*
X494444Y66631D01*
X494358Y66564D01*
X494269Y66499D01*
X494178Y66438D01*
X494084Y66380D01*
X493989Y66326D01*
X493892Y66275D01*
X493793Y66227D01*
X493692Y66183D01*
X493590Y66143D01*
X493486Y66106D01*
X493381Y66074D01*
X493275Y66045D01*
X493168Y66020D01*
X493060Y65998D01*
X492952Y65981D01*
X492843Y65968D01*
X492733Y65958D01*
X492624Y65953D01*
X492514Y65951D01*
D24*
X522486Y62396D02*
X522486Y75604D01*
X522486Y62396D02*
X510040Y62396D01*
X504960Y62396D01*
X492514Y62396D01*
X492514Y65952D01*
X492514Y72048D01*
X492514Y75604D01*
X495816Y75604D01*
X500896Y75604D01*
X514104Y75604D01*
X495816Y75604D02*
X495816Y81446D01*
X500896Y81446D01*
X500896Y75604D01*
X519184Y75604D02*
X522486Y75604D01*
X519184Y75604D02*
X514104Y75604D01*
X514104Y81446D01*
X519184Y81446D01*
X519184Y75604D01*
X510040Y62396D02*
X510040Y56554D01*
X504960Y56554D01*
X504960Y62396D01*
X492514Y65952D02*
X492623Y65954D01*
X492731Y65960D01*
X492840Y65969D01*
X492948Y65983D01*
X493055Y66000D01*
X493162Y66022D01*
X493268Y66047D01*
X493373Y66075D01*
X493477Y66108D01*
X493579Y66144D01*
X493680Y66184D01*
X493780Y66227D01*
X493878Y66274D01*
X493975Y66325D01*
X494069Y66379D01*
X494162Y66436D01*
X494252Y66496D01*
X494341Y66560D01*
X494427Y66627D01*
X494510Y66696D01*
X494591Y66769D01*
X494669Y66845D01*
X494745Y66923D01*
X494818Y67004D01*
X494887Y67087D01*
X494954Y67173D01*
X495018Y67262D01*
X495078Y67352D01*
X495135Y67445D01*
X495189Y67539D01*
X495240Y67636D01*
X495287Y67734D01*
X495330Y67834D01*
X495370Y67935D01*
X495406Y68037D01*
X495439Y68141D01*
X495467Y68246D01*
X495492Y68352D01*
X495514Y68459D01*
X495531Y68566D01*
X495545Y68674D01*
X495554Y68783D01*
X495560Y68891D01*
X495562Y69000D01*
X495560Y69109D01*
X495554Y69217D01*
X495545Y69326D01*
X495531Y69434D01*
X495514Y69541D01*
X495492Y69648D01*
X495467Y69754D01*
X495439Y69859D01*
X495406Y69963D01*
X495370Y70065D01*
X495330Y70166D01*
X495287Y70266D01*
X495240Y70364D01*
X495189Y70461D01*
X495135Y70555D01*
X495078Y70648D01*
X495018Y70738D01*
X494954Y70827D01*
X494887Y70913D01*
X494818Y70996D01*
X494745Y71077D01*
X494669Y71155D01*
X494591Y71231D01*
X494510Y71304D01*
X494427Y71373D01*
X494341Y71440D01*
X494252Y71504D01*
X494162Y71564D01*
X494069Y71621D01*
X493975Y71675D01*
X493878Y71726D01*
X493780Y71773D01*
X493680Y71816D01*
X493579Y71856D01*
X493477Y71892D01*
X493373Y71925D01*
X493268Y71953D01*
X493162Y71978D01*
X493055Y72000D01*
X492948Y72017D01*
X492840Y72031D01*
X492731Y72040D01*
X492623Y72046D01*
X492514Y72048D01*
D19*
X543514Y62396D02*
X552404Y62396D01*
X573486Y62396D02*
X573486Y71286D01*
X573486Y62396D02*
X564596Y62396D01*
X543514Y62396D02*
X543514Y65952D01*
X543514Y71286D01*
X546562Y69254D02*
X546570Y69144D01*
X546573Y69034D01*
X546572Y68924D01*
X546567Y68815D01*
X546559Y68705D01*
X546546Y68596D01*
X546530Y68487D01*
X546509Y68379D01*
X546485Y68272D01*
X546457Y68166D01*
X546425Y68061D01*
X546389Y67957D01*
X546350Y67854D01*
X546307Y67753D01*
X546260Y67654D01*
X546210Y67556D01*
X546156Y67460D01*
X546099Y67367D01*
X546038Y67275D01*
X545975Y67185D01*
X545908Y67098D01*
X545838Y67014D01*
X545765Y66932D01*
X545689Y66852D01*
X545610Y66776D01*
X545528Y66702D01*
X545444Y66631D01*
X545358Y66564D01*
X545269Y66499D01*
X545178Y66438D01*
X545084Y66380D01*
X544989Y66326D01*
X544892Y66275D01*
X544793Y66227D01*
X544692Y66183D01*
X544590Y66143D01*
X544486Y66106D01*
X544381Y66074D01*
X544275Y66045D01*
X544168Y66020D01*
X544060Y65998D01*
X543952Y65981D01*
X543843Y65968D01*
X543733Y65958D01*
X543624Y65953D01*
X543514Y65951D01*
D24*
X573486Y62396D02*
X573486Y75604D01*
X573486Y62396D02*
X561040Y62396D01*
X555960Y62396D01*
X543514Y62396D01*
X543514Y65952D01*
X543514Y72048D01*
X543514Y75604D01*
X546816Y75604D01*
X551896Y75604D01*
X565104Y75604D01*
X546816Y75604D02*
X546816Y81446D01*
X551896Y81446D01*
X551896Y75604D01*
X570184Y75604D02*
X573486Y75604D01*
X570184Y75604D02*
X565104Y75604D01*
X565104Y81446D01*
X570184Y81446D01*
X570184Y75604D01*
X561040Y62396D02*
X561040Y56554D01*
X555960Y56554D01*
X555960Y62396D01*
X543514Y65952D02*
X543623Y65954D01*
X543731Y65960D01*
X543840Y65969D01*
X543948Y65983D01*
X544055Y66000D01*
X544162Y66022D01*
X544268Y66047D01*
X544373Y66075D01*
X544477Y66108D01*
X544579Y66144D01*
X544680Y66184D01*
X544780Y66227D01*
X544878Y66274D01*
X544975Y66325D01*
X545069Y66379D01*
X545162Y66436D01*
X545252Y66496D01*
X545341Y66560D01*
X545427Y66627D01*
X545510Y66696D01*
X545591Y66769D01*
X545669Y66845D01*
X545745Y66923D01*
X545818Y67004D01*
X545887Y67087D01*
X545954Y67173D01*
X546018Y67262D01*
X546078Y67352D01*
X546135Y67445D01*
X546189Y67539D01*
X546240Y67636D01*
X546287Y67734D01*
X546330Y67834D01*
X546370Y67935D01*
X546406Y68037D01*
X546439Y68141D01*
X546467Y68246D01*
X546492Y68352D01*
X546514Y68459D01*
X546531Y68566D01*
X546545Y68674D01*
X546554Y68783D01*
X546560Y68891D01*
X546562Y69000D01*
X546560Y69109D01*
X546554Y69217D01*
X546545Y69326D01*
X546531Y69434D01*
X546514Y69541D01*
X546492Y69648D01*
X546467Y69754D01*
X546439Y69859D01*
X546406Y69963D01*
X546370Y70065D01*
X546330Y70166D01*
X546287Y70266D01*
X546240Y70364D01*
X546189Y70461D01*
X546135Y70555D01*
X546078Y70648D01*
X546018Y70738D01*
X545954Y70827D01*
X545887Y70913D01*
X545818Y70996D01*
X545745Y71077D01*
X545669Y71155D01*
X545591Y71231D01*
X545510Y71304D01*
X545427Y71373D01*
X545341Y71440D01*
X545252Y71504D01*
X545162Y71564D01*
X545069Y71621D01*
X544975Y71675D01*
X544878Y71726D01*
X544780Y71773D01*
X544680Y71816D01*
X544579Y71856D01*
X544477Y71892D01*
X544373Y71925D01*
X544268Y71953D01*
X544162Y71978D01*
X544055Y72000D01*
X543948Y72017D01*
X543840Y72031D01*
X543731Y72040D01*
X543623Y72046D01*
X543514Y72048D01*
D19*
X644514Y62396D02*
X653404Y62396D01*
X674486Y62396D02*
X674486Y71286D01*
X674486Y62396D02*
X665596Y62396D01*
X644514Y62396D02*
X644514Y65952D01*
X644514Y71286D01*
X647562Y69254D02*
X647570Y69144D01*
X647573Y69034D01*
X647572Y68924D01*
X647567Y68815D01*
X647559Y68705D01*
X647546Y68596D01*
X647530Y68487D01*
X647509Y68379D01*
X647485Y68272D01*
X647457Y68166D01*
X647425Y68061D01*
X647389Y67957D01*
X647350Y67854D01*
X647307Y67753D01*
X647260Y67654D01*
X647210Y67556D01*
X647156Y67460D01*
X647099Y67367D01*
X647038Y67275D01*
X646975Y67185D01*
X646908Y67098D01*
X646838Y67014D01*
X646765Y66932D01*
X646689Y66852D01*
X646610Y66776D01*
X646528Y66702D01*
X646444Y66631D01*
X646358Y66564D01*
X646269Y66499D01*
X646178Y66438D01*
X646084Y66380D01*
X645989Y66326D01*
X645892Y66275D01*
X645793Y66227D01*
X645692Y66183D01*
X645590Y66143D01*
X645486Y66106D01*
X645381Y66074D01*
X645275Y66045D01*
X645168Y66020D01*
X645060Y65998D01*
X644952Y65981D01*
X644843Y65968D01*
X644733Y65958D01*
X644624Y65953D01*
X644514Y65951D01*
D24*
X674486Y62396D02*
X674486Y75604D01*
X674486Y62396D02*
X662040Y62396D01*
X656960Y62396D01*
X644514Y62396D01*
X644514Y65952D01*
X644514Y72048D01*
X644514Y75604D01*
X647816Y75604D01*
X652896Y75604D01*
X666104Y75604D01*
X647816Y75604D02*
X647816Y81446D01*
X652896Y81446D01*
X652896Y75604D01*
X671184Y75604D02*
X674486Y75604D01*
X671184Y75604D02*
X666104Y75604D01*
X666104Y81446D01*
X671184Y81446D01*
X671184Y75604D01*
X662040Y62396D02*
X662040Y56554D01*
X656960Y56554D01*
X656960Y62396D01*
X644514Y65952D02*
X644623Y65954D01*
X644731Y65960D01*
X644840Y65969D01*
X644948Y65983D01*
X645055Y66000D01*
X645162Y66022D01*
X645268Y66047D01*
X645373Y66075D01*
X645477Y66108D01*
X645579Y66144D01*
X645680Y66184D01*
X645780Y66227D01*
X645878Y66274D01*
X645975Y66325D01*
X646069Y66379D01*
X646162Y66436D01*
X646252Y66496D01*
X646341Y66560D01*
X646427Y66627D01*
X646510Y66696D01*
X646591Y66769D01*
X646669Y66845D01*
X646745Y66923D01*
X646818Y67004D01*
X646887Y67087D01*
X646954Y67173D01*
X647018Y67262D01*
X647078Y67352D01*
X647135Y67445D01*
X647189Y67539D01*
X647240Y67636D01*
X647287Y67734D01*
X647330Y67834D01*
X647370Y67935D01*
X647406Y68037D01*
X647439Y68141D01*
X647467Y68246D01*
X647492Y68352D01*
X647514Y68459D01*
X647531Y68566D01*
X647545Y68674D01*
X647554Y68783D01*
X647560Y68891D01*
X647562Y69000D01*
X647560Y69109D01*
X647554Y69217D01*
X647545Y69326D01*
X647531Y69434D01*
X647514Y69541D01*
X647492Y69648D01*
X647467Y69754D01*
X647439Y69859D01*
X647406Y69963D01*
X647370Y70065D01*
X647330Y70166D01*
X647287Y70266D01*
X647240Y70364D01*
X647189Y70461D01*
X647135Y70555D01*
X647078Y70648D01*
X647018Y70738D01*
X646954Y70827D01*
X646887Y70913D01*
X646818Y70996D01*
X646745Y71077D01*
X646669Y71155D01*
X646591Y71231D01*
X646510Y71304D01*
X646427Y71373D01*
X646341Y71440D01*
X646252Y71504D01*
X646162Y71564D01*
X646069Y71621D01*
X645975Y71675D01*
X645878Y71726D01*
X645780Y71773D01*
X645680Y71816D01*
X645579Y71856D01*
X645477Y71892D01*
X645373Y71925D01*
X645268Y71953D01*
X645162Y71978D01*
X645055Y72000D01*
X644948Y72017D01*
X644840Y72031D01*
X644731Y72040D01*
X644623Y72046D01*
X644514Y72048D01*
D19*
X603704Y62396D02*
X594814Y62396D01*
X624786Y62396D02*
X624786Y71286D01*
X624786Y62396D02*
X615896Y62396D01*
X594814Y62396D02*
X594814Y65952D01*
X594814Y71286D01*
X597862Y69254D02*
X597870Y69144D01*
X597873Y69034D01*
X597872Y68924D01*
X597867Y68815D01*
X597859Y68705D01*
X597846Y68596D01*
X597830Y68487D01*
X597809Y68379D01*
X597785Y68272D01*
X597757Y68166D01*
X597725Y68061D01*
X597689Y67957D01*
X597650Y67854D01*
X597607Y67753D01*
X597560Y67654D01*
X597510Y67556D01*
X597456Y67460D01*
X597399Y67367D01*
X597338Y67275D01*
X597275Y67185D01*
X597208Y67098D01*
X597138Y67014D01*
X597065Y66932D01*
X596989Y66852D01*
X596910Y66776D01*
X596828Y66702D01*
X596744Y66631D01*
X596658Y66564D01*
X596569Y66499D01*
X596478Y66438D01*
X596384Y66380D01*
X596289Y66326D01*
X596192Y66275D01*
X596093Y66227D01*
X595992Y66183D01*
X595890Y66143D01*
X595786Y66106D01*
X595681Y66074D01*
X595575Y66045D01*
X595468Y66020D01*
X595360Y65998D01*
X595252Y65981D01*
X595143Y65968D01*
X595033Y65958D01*
X594924Y65953D01*
X594814Y65951D01*
D24*
X624786Y62396D02*
X624786Y75604D01*
X624786Y62396D02*
X612340Y62396D01*
X607260Y62396D01*
X594814Y62396D01*
X594814Y65952D01*
X594814Y72048D01*
X594814Y75604D01*
X598116Y75604D01*
X603196Y75604D01*
X616404Y75604D01*
X598116Y75604D02*
X598116Y81446D01*
X603196Y81446D01*
X603196Y75604D01*
X621484Y75604D02*
X624786Y75604D01*
X621484Y75604D02*
X616404Y75604D01*
X616404Y81446D01*
X621484Y81446D01*
X621484Y75604D01*
X612340Y62396D02*
X612340Y56554D01*
X607260Y56554D01*
X607260Y62396D01*
X594814Y65952D02*
X594923Y65954D01*
X595031Y65960D01*
X595140Y65969D01*
X595248Y65983D01*
X595355Y66000D01*
X595462Y66022D01*
X595568Y66047D01*
X595673Y66075D01*
X595777Y66108D01*
X595879Y66144D01*
X595980Y66184D01*
X596080Y66227D01*
X596178Y66274D01*
X596275Y66325D01*
X596369Y66379D01*
X596462Y66436D01*
X596552Y66496D01*
X596641Y66560D01*
X596727Y66627D01*
X596810Y66696D01*
X596891Y66769D01*
X596969Y66845D01*
X597045Y66923D01*
X597118Y67004D01*
X597187Y67087D01*
X597254Y67173D01*
X597318Y67262D01*
X597378Y67352D01*
X597435Y67445D01*
X597489Y67539D01*
X597540Y67636D01*
X597587Y67734D01*
X597630Y67834D01*
X597670Y67935D01*
X597706Y68037D01*
X597739Y68141D01*
X597767Y68246D01*
X597792Y68352D01*
X597814Y68459D01*
X597831Y68566D01*
X597845Y68674D01*
X597854Y68783D01*
X597860Y68891D01*
X597862Y69000D01*
X597860Y69109D01*
X597854Y69217D01*
X597845Y69326D01*
X597831Y69434D01*
X597814Y69541D01*
X597792Y69648D01*
X597767Y69754D01*
X597739Y69859D01*
X597706Y69963D01*
X597670Y70065D01*
X597630Y70166D01*
X597587Y70266D01*
X597540Y70364D01*
X597489Y70461D01*
X597435Y70555D01*
X597378Y70648D01*
X597318Y70738D01*
X597254Y70827D01*
X597187Y70913D01*
X597118Y70996D01*
X597045Y71077D01*
X596969Y71155D01*
X596891Y71231D01*
X596810Y71304D01*
X596727Y71373D01*
X596641Y71440D01*
X596552Y71504D01*
X596462Y71564D01*
X596369Y71621D01*
X596275Y71675D01*
X596178Y71726D01*
X596080Y71773D01*
X595980Y71816D01*
X595879Y71856D01*
X595777Y71892D01*
X595673Y71925D01*
X595568Y71953D01*
X595462Y71978D01*
X595355Y72000D01*
X595248Y72017D01*
X595140Y72031D01*
X595031Y72040D01*
X594923Y72046D01*
X594814Y72048D01*
D16*
X814900Y329400D02*
X814900Y421400D01*
X749600Y497300D02*
X485500Y497300D01*
X485500Y253500D01*
X749600Y253500D01*
X814900Y329400D01*
X814900Y421400D02*
X749600Y497300D01*
D10*
X347500Y397500D02*
X339500Y397500D01*
X339500Y410500D01*
X347500Y410500D01*
X356500Y397500D02*
X364500Y397500D01*
X364500Y410500D01*
X356500Y410500D01*
D13*
X345500Y404000D03*
X358500Y404000D03*
D14*
X352000Y400500D03*
X352000Y407500D03*
D15*
X418000Y367850D02*
X418000Y312150D01*
X418000Y367850D02*
X388000Y367850D01*
X388000Y312150D01*
X418000Y312150D01*
D10*
X415500Y321500D02*
X415500Y358500D01*
X390500Y358500D01*
X390500Y321500D01*
X415500Y321500D01*
X409900Y321500D02*
X415500Y327100D01*
D16*
X415500Y313650D02*
X415500Y358500D01*
X390500Y358500D02*
X390500Y321500D01*
D10*
X347500Y367500D02*
X339500Y367500D01*
X339500Y380500D01*
X347500Y380500D01*
X356500Y367500D02*
X364500Y367500D01*
X364500Y380500D01*
X356500Y380500D01*
D13*
X345500Y374000D03*
X358500Y374000D03*
D14*
X352000Y370500D03*
X352000Y377500D03*
D10*
X367500Y367500D02*
X367500Y359500D01*
X367500Y367500D02*
X380500Y367500D01*
X380500Y359500D01*
X367500Y350500D02*
X367500Y342500D01*
X380500Y342500D01*
X380500Y350500D01*
D11*
X374000Y361500D03*
X374000Y348500D03*
D12*
X370500Y355000D03*
X377500Y355000D03*
D10*
X347500Y382500D02*
X339500Y382500D01*
X339500Y395500D01*
X347500Y395500D01*
X356500Y382500D02*
X364500Y382500D01*
X364500Y395500D01*
X356500Y395500D01*
D13*
X345500Y389000D03*
X358500Y389000D03*
D14*
X352000Y385500D03*
X352000Y392500D03*
D17*
X369000Y381500D02*
X399000Y381500D01*
X399650Y381500D02*
X399650Y398500D01*
X399000Y398500D02*
X369000Y398500D01*
X368350Y398500D02*
X368350Y381500D01*
X399000Y381500D02*
X399000Y398500D01*
X369000Y398500D02*
X369000Y381500D01*
D16*
X392500Y366950D02*
X392502Y367013D01*
X392508Y367075D01*
X392518Y367137D01*
X392531Y367199D01*
X392549Y367259D01*
X392570Y367318D01*
X392595Y367376D01*
X392624Y367432D01*
X392656Y367486D01*
X392691Y367538D01*
X392729Y367587D01*
X392771Y367635D01*
X392815Y367679D01*
X392863Y367721D01*
X392912Y367759D01*
X392964Y367794D01*
X393018Y367826D01*
X393074Y367855D01*
X393132Y367880D01*
X393191Y367901D01*
X393251Y367919D01*
X393313Y367932D01*
X393375Y367942D01*
X393437Y367948D01*
X393500Y367950D01*
X393563Y367948D01*
X393625Y367942D01*
X393687Y367932D01*
X393749Y367919D01*
X393809Y367901D01*
X393868Y367880D01*
X393926Y367855D01*
X393982Y367826D01*
X394036Y367794D01*
X394088Y367759D01*
X394137Y367721D01*
X394185Y367679D01*
X394229Y367635D01*
X394271Y367587D01*
X394309Y367538D01*
X394344Y367486D01*
X394376Y367432D01*
X394405Y367376D01*
X394430Y367318D01*
X394451Y367259D01*
X394469Y367199D01*
X394482Y367137D01*
X394492Y367075D01*
X394498Y367013D01*
X394500Y366950D01*
X394498Y366887D01*
X394492Y366825D01*
X394482Y366763D01*
X394469Y366701D01*
X394451Y366641D01*
X394430Y366582D01*
X394405Y366524D01*
X394376Y366468D01*
X394344Y366414D01*
X394309Y366362D01*
X394271Y366313D01*
X394229Y366265D01*
X394185Y366221D01*
X394137Y366179D01*
X394088Y366141D01*
X394036Y366106D01*
X393982Y366074D01*
X393926Y366045D01*
X393868Y366020D01*
X393809Y365999D01*
X393749Y365981D01*
X393687Y365968D01*
X393625Y365958D01*
X393563Y365952D01*
X393500Y365950D01*
X393437Y365952D01*
X393375Y365958D01*
X393313Y365968D01*
X393251Y365981D01*
X393191Y365999D01*
X393132Y366020D01*
X393074Y366045D01*
X393018Y366074D01*
X392964Y366106D01*
X392912Y366141D01*
X392863Y366179D01*
X392815Y366221D01*
X392771Y366265D01*
X392729Y366313D01*
X392691Y366362D01*
X392656Y366414D01*
X392624Y366468D01*
X392595Y366524D01*
X392570Y366582D01*
X392549Y366641D01*
X392531Y366701D01*
X392518Y366763D01*
X392508Y366825D01*
X392502Y366887D01*
X392500Y366950D01*
X392502Y367013D01*
X392508Y367075D01*
X392518Y367137D01*
X392531Y367199D01*
X392549Y367259D01*
X392570Y367318D01*
X392595Y367376D01*
X392624Y367432D01*
X392656Y367486D01*
X392691Y367538D01*
X392729Y367587D01*
X392771Y367635D01*
X392815Y367679D01*
X392863Y367721D01*
X392912Y367759D01*
X392964Y367794D01*
X393018Y367826D01*
X393074Y367855D01*
X393132Y367880D01*
X393191Y367901D01*
X393251Y367919D01*
X393313Y367932D01*
X393375Y367942D01*
X393437Y367948D01*
X393500Y367950D01*
X393563Y367948D01*
X393625Y367942D01*
X393687Y367932D01*
X393749Y367919D01*
X393809Y367901D01*
X393868Y367880D01*
X393926Y367855D01*
X393982Y367826D01*
X394036Y367794D01*
X394088Y367759D01*
X394137Y367721D01*
X394185Y367679D01*
X394229Y367635D01*
X394271Y367587D01*
X394309Y367538D01*
X394344Y367486D01*
X394376Y367432D01*
X394405Y367376D01*
X394430Y367318D01*
X394451Y367259D01*
X394469Y367199D01*
X394482Y367137D01*
X394492Y367075D01*
X394498Y367013D01*
X394500Y366950D01*
X394498Y366887D01*
X394492Y366825D01*
X394482Y366763D01*
X394469Y366701D01*
X394451Y366641D01*
X394430Y366582D01*
X394405Y366524D01*
X394376Y366468D01*
X394344Y366414D01*
X394309Y366362D01*
X394271Y366313D01*
X394229Y366265D01*
X394185Y366221D01*
X394137Y366179D01*
X394088Y366141D01*
X394036Y366106D01*
X393982Y366074D01*
X393926Y366045D01*
X393868Y366020D01*
X393809Y365999D01*
X393749Y365981D01*
X393687Y365968D01*
X393625Y365958D01*
X393563Y365952D01*
X393500Y365950D01*
X393437Y365952D01*
X393375Y365958D01*
X393313Y365968D01*
X393251Y365981D01*
X393191Y365999D01*
X393132Y366020D01*
X393074Y366045D01*
X393018Y366074D01*
X392964Y366106D01*
X392912Y366141D01*
X392863Y366179D01*
X392815Y366221D01*
X392771Y366265D01*
X392729Y366313D01*
X392691Y366362D01*
X392656Y366414D01*
X392624Y366468D01*
X392595Y366524D01*
X392570Y366582D01*
X392549Y366641D01*
X392531Y366701D01*
X392518Y366763D01*
X392508Y366825D01*
X392502Y366887D01*
X392500Y366950D01*
D10*
X404500Y387500D02*
X404500Y395500D01*
X417500Y395500D01*
X417500Y387500D01*
X404500Y378500D02*
X404500Y370500D01*
X417500Y370500D01*
X417500Y378500D01*
D11*
X411000Y389500D03*
X411000Y376500D03*
D12*
X407500Y383000D03*
X414500Y383000D03*
D10*
X364500Y365500D02*
X356500Y365500D01*
X364500Y365500D02*
X364500Y352500D01*
X356500Y352500D01*
X347500Y365500D02*
X339500Y365500D01*
X339500Y352500D01*
X347500Y352500D01*
D13*
X358500Y359000D03*
X345500Y359000D03*
D14*
X352000Y362500D03*
X352000Y355500D03*
M02*
