G04 EAGLE Gerber RS-274X export*
G75*
%MOMM*%
%FSLAX34Y34*%
%LPD*%
%INSoldermask Top*%
%IPPOS*%
%AMOC8*
5,1,8,0,0,1.08239X$1,22.5*%
G01*
%ADD10R,0.502919X0.502919*%
%ADD11R,1.803200X2.203200*%
%ADD12R,2.703200X2.703200*%
%ADD13R,1.100000X0.750000*%
%ADD14R,0.750000X1.100000*%
%ADD15R,0.900000X0.900000*%
%ADD16R,1.711200X1.711200*%
%ADD17C,1.711200*%
%ADD18R,1.653200X0.889000*%
%ADD19R,0.553200X0.703200*%
%ADD20R,1.723200X2.743200*%
%ADD21R,3.703200X1.703200*%
%ADD22R,6.203200X6.203200*%
%ADD23C,6.203200*%
%ADD24R,1.300000X1.500000*%
%ADD25C,0.850800*%
%ADD26R,0.628200X0.528200*%
%ADD27R,0.453200X0.728200*%
%ADD28R,0.503200X0.728200*%
%ADD29R,0.628200X0.503200*%
%ADD30R,1.524000X0.762000*%
%ADD31C,0.268653*%
%ADD32R,3.353200X3.353200*%
%ADD33C,0.275422*%
%ADD34R,1.041400X1.803400*%
%ADD35R,3.302000X1.803400*%
%ADD36R,3.403600X1.117600*%
%ADD37R,8.356600X6.705600*%
%ADD38C,1.711200*%
%ADD39R,0.778200X1.353200*%
%ADD40R,0.478200X1.353200*%
%ADD41C,1.311200*%
%ADD42C,0.853200*%
%ADD43R,1.603200X1.603200*%
%ADD44C,1.603200*%
%ADD45R,1.103200X0.853200*%
%ADD46R,1.203200X2.003200*%
%ADD47R,1.611200X1.611200*%
%ADD48C,1.611200*%
%ADD49R,1.503200X0.753200*%
%ADD50C,0.344606*%
%ADD51C,0.809600*%
%ADD52C,4.519200*%

G36*
X356608Y340202D02*
X356608Y340202D01*
X356617Y340201D01*
X356705Y340222D01*
X356795Y340240D01*
X356802Y340245D01*
X356810Y340247D01*
X356883Y340301D01*
X356959Y340353D01*
X356963Y340360D01*
X356970Y340365D01*
X357017Y340443D01*
X357066Y340520D01*
X357067Y340529D01*
X357072Y340536D01*
X357099Y340700D01*
X357099Y341700D01*
X357098Y341708D01*
X357099Y341715D01*
X357099Y341716D01*
X357099Y341717D01*
X357078Y341805D01*
X357060Y341895D01*
X357055Y341902D01*
X357053Y341910D01*
X356999Y341983D01*
X356947Y342059D01*
X356940Y342063D01*
X356935Y342070D01*
X356857Y342117D01*
X356780Y342166D01*
X356771Y342167D01*
X356764Y342172D01*
X356600Y342199D01*
X348850Y342199D01*
X348842Y342198D01*
X348833Y342199D01*
X348745Y342178D01*
X348655Y342160D01*
X348648Y342155D01*
X348640Y342153D01*
X348567Y342099D01*
X348491Y342047D01*
X348487Y342040D01*
X348480Y342035D01*
X348433Y341957D01*
X348384Y341880D01*
X348383Y341871D01*
X348378Y341864D01*
X348351Y341700D01*
X348351Y340700D01*
X348352Y340692D01*
X348351Y340683D01*
X348372Y340595D01*
X348390Y340505D01*
X348395Y340498D01*
X348397Y340490D01*
X348451Y340417D01*
X348503Y340341D01*
X348510Y340337D01*
X348515Y340330D01*
X348593Y340283D01*
X348670Y340234D01*
X348679Y340233D01*
X348686Y340228D01*
X348850Y340201D01*
X356600Y340201D01*
X356608Y340202D01*
G37*
G36*
X425358Y340202D02*
X425358Y340202D01*
X425367Y340201D01*
X425455Y340222D01*
X425545Y340240D01*
X425552Y340245D01*
X425560Y340247D01*
X425633Y340301D01*
X425709Y340353D01*
X425713Y340360D01*
X425720Y340365D01*
X425767Y340443D01*
X425816Y340520D01*
X425817Y340529D01*
X425822Y340536D01*
X425849Y340700D01*
X425849Y341700D01*
X425848Y341708D01*
X425849Y341715D01*
X425849Y341716D01*
X425849Y341717D01*
X425828Y341805D01*
X425810Y341895D01*
X425805Y341902D01*
X425803Y341910D01*
X425749Y341983D01*
X425697Y342059D01*
X425690Y342063D01*
X425685Y342070D01*
X425607Y342117D01*
X425530Y342166D01*
X425521Y342167D01*
X425514Y342172D01*
X425350Y342199D01*
X417600Y342199D01*
X417592Y342198D01*
X417583Y342199D01*
X417495Y342178D01*
X417405Y342160D01*
X417398Y342155D01*
X417390Y342153D01*
X417317Y342099D01*
X417241Y342047D01*
X417237Y342040D01*
X417230Y342035D01*
X417183Y341957D01*
X417134Y341880D01*
X417133Y341871D01*
X417128Y341864D01*
X417101Y341700D01*
X417101Y340700D01*
X417102Y340692D01*
X417101Y340683D01*
X417122Y340595D01*
X417140Y340505D01*
X417145Y340498D01*
X417147Y340490D01*
X417201Y340417D01*
X417253Y340341D01*
X417260Y340337D01*
X417265Y340330D01*
X417343Y340283D01*
X417420Y340234D01*
X417429Y340233D01*
X417436Y340228D01*
X417600Y340201D01*
X425350Y340201D01*
X425358Y340202D01*
G37*
G36*
X425358Y336202D02*
X425358Y336202D01*
X425367Y336201D01*
X425455Y336222D01*
X425545Y336240D01*
X425552Y336245D01*
X425560Y336247D01*
X425633Y336301D01*
X425709Y336353D01*
X425713Y336360D01*
X425720Y336365D01*
X425767Y336443D01*
X425816Y336520D01*
X425817Y336529D01*
X425822Y336536D01*
X425849Y336700D01*
X425849Y337700D01*
X425848Y337708D01*
X425849Y337715D01*
X425849Y337716D01*
X425849Y337717D01*
X425828Y337805D01*
X425810Y337895D01*
X425805Y337902D01*
X425803Y337910D01*
X425749Y337983D01*
X425697Y338059D01*
X425690Y338063D01*
X425685Y338070D01*
X425607Y338117D01*
X425530Y338166D01*
X425521Y338167D01*
X425514Y338172D01*
X425350Y338199D01*
X417600Y338199D01*
X417592Y338198D01*
X417583Y338199D01*
X417495Y338178D01*
X417405Y338160D01*
X417398Y338155D01*
X417390Y338153D01*
X417317Y338099D01*
X417241Y338047D01*
X417237Y338040D01*
X417230Y338035D01*
X417183Y337957D01*
X417134Y337880D01*
X417133Y337871D01*
X417128Y337864D01*
X417101Y337700D01*
X417101Y336700D01*
X417102Y336692D01*
X417101Y336683D01*
X417122Y336595D01*
X417140Y336505D01*
X417145Y336498D01*
X417147Y336490D01*
X417201Y336417D01*
X417253Y336341D01*
X417260Y336337D01*
X417265Y336330D01*
X417343Y336283D01*
X417420Y336234D01*
X417429Y336233D01*
X417436Y336228D01*
X417600Y336201D01*
X425350Y336201D01*
X425358Y336202D01*
G37*
G36*
X356608Y336202D02*
X356608Y336202D01*
X356617Y336201D01*
X356705Y336222D01*
X356795Y336240D01*
X356802Y336245D01*
X356810Y336247D01*
X356883Y336301D01*
X356959Y336353D01*
X356963Y336360D01*
X356970Y336365D01*
X357017Y336443D01*
X357066Y336520D01*
X357067Y336529D01*
X357072Y336536D01*
X357099Y336700D01*
X357099Y337700D01*
X357098Y337708D01*
X357099Y337715D01*
X357099Y337716D01*
X357099Y337717D01*
X357078Y337805D01*
X357060Y337895D01*
X357055Y337902D01*
X357053Y337910D01*
X356999Y337983D01*
X356947Y338059D01*
X356940Y338063D01*
X356935Y338070D01*
X356857Y338117D01*
X356780Y338166D01*
X356771Y338167D01*
X356764Y338172D01*
X356600Y338199D01*
X348850Y338199D01*
X348842Y338198D01*
X348833Y338199D01*
X348745Y338178D01*
X348655Y338160D01*
X348648Y338155D01*
X348640Y338153D01*
X348567Y338099D01*
X348491Y338047D01*
X348487Y338040D01*
X348480Y338035D01*
X348433Y337957D01*
X348384Y337880D01*
X348383Y337871D01*
X348378Y337864D01*
X348351Y337700D01*
X348351Y336700D01*
X348352Y336692D01*
X348351Y336683D01*
X348372Y336595D01*
X348390Y336505D01*
X348395Y336498D01*
X348397Y336490D01*
X348451Y336417D01*
X348503Y336341D01*
X348510Y336337D01*
X348515Y336330D01*
X348593Y336283D01*
X348670Y336234D01*
X348679Y336233D01*
X348686Y336228D01*
X348850Y336201D01*
X356600Y336201D01*
X356608Y336202D01*
G37*
G36*
X425358Y332202D02*
X425358Y332202D01*
X425367Y332201D01*
X425455Y332222D01*
X425545Y332240D01*
X425552Y332245D01*
X425560Y332247D01*
X425633Y332301D01*
X425709Y332353D01*
X425713Y332360D01*
X425720Y332365D01*
X425767Y332443D01*
X425816Y332520D01*
X425817Y332529D01*
X425822Y332536D01*
X425849Y332700D01*
X425849Y333700D01*
X425848Y333708D01*
X425849Y333715D01*
X425849Y333716D01*
X425849Y333717D01*
X425828Y333805D01*
X425810Y333895D01*
X425805Y333902D01*
X425803Y333910D01*
X425749Y333983D01*
X425697Y334059D01*
X425690Y334063D01*
X425685Y334070D01*
X425607Y334117D01*
X425530Y334166D01*
X425521Y334167D01*
X425514Y334172D01*
X425350Y334199D01*
X417600Y334199D01*
X417592Y334198D01*
X417583Y334199D01*
X417495Y334178D01*
X417405Y334160D01*
X417398Y334155D01*
X417390Y334153D01*
X417317Y334099D01*
X417241Y334047D01*
X417237Y334040D01*
X417230Y334035D01*
X417183Y333957D01*
X417134Y333880D01*
X417133Y333871D01*
X417128Y333864D01*
X417101Y333700D01*
X417101Y332700D01*
X417102Y332692D01*
X417101Y332683D01*
X417122Y332595D01*
X417140Y332505D01*
X417145Y332498D01*
X417147Y332490D01*
X417201Y332417D01*
X417253Y332341D01*
X417260Y332337D01*
X417265Y332330D01*
X417343Y332283D01*
X417420Y332234D01*
X417429Y332233D01*
X417436Y332228D01*
X417600Y332201D01*
X425350Y332201D01*
X425358Y332202D01*
G37*
G36*
X356608Y332202D02*
X356608Y332202D01*
X356617Y332201D01*
X356705Y332222D01*
X356795Y332240D01*
X356802Y332245D01*
X356810Y332247D01*
X356883Y332301D01*
X356959Y332353D01*
X356963Y332360D01*
X356970Y332365D01*
X357017Y332443D01*
X357066Y332520D01*
X357067Y332529D01*
X357072Y332536D01*
X357099Y332700D01*
X357099Y333700D01*
X357098Y333708D01*
X357099Y333715D01*
X357099Y333716D01*
X357099Y333717D01*
X357078Y333805D01*
X357060Y333895D01*
X357055Y333902D01*
X357053Y333910D01*
X356999Y333983D01*
X356947Y334059D01*
X356940Y334063D01*
X356935Y334070D01*
X356857Y334117D01*
X356780Y334166D01*
X356771Y334167D01*
X356764Y334172D01*
X356600Y334199D01*
X348850Y334199D01*
X348842Y334198D01*
X348833Y334199D01*
X348745Y334178D01*
X348655Y334160D01*
X348648Y334155D01*
X348640Y334153D01*
X348567Y334099D01*
X348491Y334047D01*
X348487Y334040D01*
X348480Y334035D01*
X348433Y333957D01*
X348384Y333880D01*
X348383Y333871D01*
X348378Y333864D01*
X348351Y333700D01*
X348351Y332700D01*
X348352Y332692D01*
X348351Y332683D01*
X348372Y332595D01*
X348390Y332505D01*
X348395Y332498D01*
X348397Y332490D01*
X348451Y332417D01*
X348503Y332341D01*
X348510Y332337D01*
X348515Y332330D01*
X348593Y332283D01*
X348670Y332234D01*
X348679Y332233D01*
X348686Y332228D01*
X348850Y332201D01*
X356600Y332201D01*
X356608Y332202D01*
G37*
G36*
X425358Y328202D02*
X425358Y328202D01*
X425367Y328201D01*
X425455Y328222D01*
X425545Y328240D01*
X425552Y328245D01*
X425560Y328247D01*
X425633Y328301D01*
X425709Y328353D01*
X425713Y328360D01*
X425720Y328365D01*
X425767Y328443D01*
X425816Y328520D01*
X425817Y328529D01*
X425822Y328536D01*
X425849Y328700D01*
X425849Y329700D01*
X425848Y329708D01*
X425849Y329715D01*
X425849Y329716D01*
X425849Y329717D01*
X425828Y329805D01*
X425810Y329895D01*
X425805Y329902D01*
X425803Y329910D01*
X425749Y329983D01*
X425697Y330059D01*
X425690Y330063D01*
X425685Y330070D01*
X425607Y330117D01*
X425530Y330166D01*
X425521Y330167D01*
X425514Y330172D01*
X425350Y330199D01*
X417600Y330199D01*
X417592Y330198D01*
X417583Y330199D01*
X417495Y330178D01*
X417405Y330160D01*
X417398Y330155D01*
X417390Y330153D01*
X417317Y330099D01*
X417241Y330047D01*
X417237Y330040D01*
X417230Y330035D01*
X417183Y329957D01*
X417134Y329880D01*
X417133Y329871D01*
X417128Y329864D01*
X417101Y329700D01*
X417101Y328700D01*
X417102Y328692D01*
X417101Y328683D01*
X417122Y328595D01*
X417140Y328505D01*
X417145Y328498D01*
X417147Y328490D01*
X417201Y328417D01*
X417253Y328341D01*
X417260Y328337D01*
X417265Y328330D01*
X417343Y328283D01*
X417420Y328234D01*
X417429Y328233D01*
X417436Y328228D01*
X417600Y328201D01*
X425350Y328201D01*
X425358Y328202D01*
G37*
G36*
X356608Y312202D02*
X356608Y312202D01*
X356617Y312201D01*
X356705Y312222D01*
X356795Y312240D01*
X356802Y312245D01*
X356810Y312247D01*
X356883Y312301D01*
X356959Y312353D01*
X356963Y312360D01*
X356970Y312365D01*
X357017Y312443D01*
X357066Y312520D01*
X357067Y312529D01*
X357072Y312536D01*
X357099Y312700D01*
X357099Y313700D01*
X357098Y313708D01*
X357099Y313715D01*
X357099Y313716D01*
X357099Y313717D01*
X357078Y313805D01*
X357060Y313895D01*
X357055Y313902D01*
X357053Y313910D01*
X356999Y313983D01*
X356947Y314059D01*
X356940Y314063D01*
X356935Y314070D01*
X356857Y314117D01*
X356780Y314166D01*
X356771Y314167D01*
X356764Y314172D01*
X356600Y314199D01*
X348850Y314199D01*
X348842Y314198D01*
X348833Y314199D01*
X348745Y314178D01*
X348655Y314160D01*
X348648Y314155D01*
X348640Y314153D01*
X348567Y314099D01*
X348491Y314047D01*
X348487Y314040D01*
X348480Y314035D01*
X348433Y313957D01*
X348384Y313880D01*
X348383Y313871D01*
X348378Y313864D01*
X348351Y313700D01*
X348351Y312700D01*
X348352Y312692D01*
X348351Y312683D01*
X348372Y312595D01*
X348390Y312505D01*
X348395Y312498D01*
X348397Y312490D01*
X348451Y312417D01*
X348503Y312341D01*
X348510Y312337D01*
X348515Y312330D01*
X348593Y312283D01*
X348670Y312234D01*
X348679Y312233D01*
X348686Y312228D01*
X348850Y312201D01*
X356600Y312201D01*
X356608Y312202D01*
G37*
G36*
X356608Y328202D02*
X356608Y328202D01*
X356617Y328201D01*
X356705Y328222D01*
X356795Y328240D01*
X356802Y328245D01*
X356810Y328247D01*
X356883Y328301D01*
X356959Y328353D01*
X356963Y328360D01*
X356970Y328365D01*
X357017Y328443D01*
X357066Y328520D01*
X357067Y328529D01*
X357072Y328536D01*
X357099Y328700D01*
X357099Y329700D01*
X357098Y329708D01*
X357099Y329715D01*
X357099Y329716D01*
X357099Y329717D01*
X357078Y329805D01*
X357060Y329895D01*
X357055Y329902D01*
X357053Y329910D01*
X356999Y329983D01*
X356947Y330059D01*
X356940Y330063D01*
X356935Y330070D01*
X356857Y330117D01*
X356780Y330166D01*
X356771Y330167D01*
X356764Y330172D01*
X356600Y330199D01*
X348850Y330199D01*
X348842Y330198D01*
X348833Y330199D01*
X348745Y330178D01*
X348655Y330160D01*
X348648Y330155D01*
X348640Y330153D01*
X348567Y330099D01*
X348491Y330047D01*
X348487Y330040D01*
X348480Y330035D01*
X348433Y329957D01*
X348384Y329880D01*
X348383Y329871D01*
X348378Y329864D01*
X348351Y329700D01*
X348351Y328700D01*
X348352Y328692D01*
X348351Y328683D01*
X348372Y328595D01*
X348390Y328505D01*
X348395Y328498D01*
X348397Y328490D01*
X348451Y328417D01*
X348503Y328341D01*
X348510Y328337D01*
X348515Y328330D01*
X348593Y328283D01*
X348670Y328234D01*
X348679Y328233D01*
X348686Y328228D01*
X348850Y328201D01*
X356600Y328201D01*
X356608Y328202D01*
G37*
G36*
X356608Y324202D02*
X356608Y324202D01*
X356617Y324201D01*
X356705Y324222D01*
X356795Y324240D01*
X356802Y324245D01*
X356810Y324247D01*
X356883Y324301D01*
X356959Y324353D01*
X356963Y324360D01*
X356970Y324365D01*
X357017Y324443D01*
X357066Y324520D01*
X357067Y324529D01*
X357072Y324536D01*
X357099Y324700D01*
X357099Y325700D01*
X357098Y325708D01*
X357099Y325715D01*
X357099Y325716D01*
X357099Y325717D01*
X357078Y325805D01*
X357060Y325895D01*
X357055Y325902D01*
X357053Y325910D01*
X356999Y325983D01*
X356947Y326059D01*
X356940Y326063D01*
X356935Y326070D01*
X356857Y326117D01*
X356780Y326166D01*
X356771Y326167D01*
X356764Y326172D01*
X356600Y326199D01*
X348850Y326199D01*
X348842Y326198D01*
X348833Y326199D01*
X348745Y326178D01*
X348655Y326160D01*
X348648Y326155D01*
X348640Y326153D01*
X348567Y326099D01*
X348491Y326047D01*
X348487Y326040D01*
X348480Y326035D01*
X348433Y325957D01*
X348384Y325880D01*
X348383Y325871D01*
X348378Y325864D01*
X348351Y325700D01*
X348351Y324700D01*
X348352Y324692D01*
X348351Y324683D01*
X348372Y324595D01*
X348390Y324505D01*
X348395Y324498D01*
X348397Y324490D01*
X348451Y324417D01*
X348503Y324341D01*
X348510Y324337D01*
X348515Y324330D01*
X348593Y324283D01*
X348670Y324234D01*
X348679Y324233D01*
X348686Y324228D01*
X348850Y324201D01*
X356600Y324201D01*
X356608Y324202D01*
G37*
G36*
X425358Y324202D02*
X425358Y324202D01*
X425367Y324201D01*
X425455Y324222D01*
X425545Y324240D01*
X425552Y324245D01*
X425560Y324247D01*
X425633Y324301D01*
X425709Y324353D01*
X425713Y324360D01*
X425720Y324365D01*
X425767Y324443D01*
X425816Y324520D01*
X425817Y324529D01*
X425822Y324536D01*
X425849Y324700D01*
X425849Y325700D01*
X425848Y325708D01*
X425849Y325715D01*
X425849Y325716D01*
X425849Y325717D01*
X425828Y325805D01*
X425810Y325895D01*
X425805Y325902D01*
X425803Y325910D01*
X425749Y325983D01*
X425697Y326059D01*
X425690Y326063D01*
X425685Y326070D01*
X425607Y326117D01*
X425530Y326166D01*
X425521Y326167D01*
X425514Y326172D01*
X425350Y326199D01*
X417600Y326199D01*
X417592Y326198D01*
X417583Y326199D01*
X417495Y326178D01*
X417405Y326160D01*
X417398Y326155D01*
X417390Y326153D01*
X417317Y326099D01*
X417241Y326047D01*
X417237Y326040D01*
X417230Y326035D01*
X417183Y325957D01*
X417134Y325880D01*
X417133Y325871D01*
X417128Y325864D01*
X417101Y325700D01*
X417101Y324700D01*
X417102Y324692D01*
X417101Y324683D01*
X417122Y324595D01*
X417140Y324505D01*
X417145Y324498D01*
X417147Y324490D01*
X417201Y324417D01*
X417253Y324341D01*
X417260Y324337D01*
X417265Y324330D01*
X417343Y324283D01*
X417420Y324234D01*
X417429Y324233D01*
X417436Y324228D01*
X417600Y324201D01*
X425350Y324201D01*
X425358Y324202D01*
G37*
G36*
X356608Y320202D02*
X356608Y320202D01*
X356617Y320201D01*
X356705Y320222D01*
X356795Y320240D01*
X356802Y320245D01*
X356810Y320247D01*
X356883Y320301D01*
X356959Y320353D01*
X356963Y320360D01*
X356970Y320365D01*
X357017Y320443D01*
X357066Y320520D01*
X357067Y320529D01*
X357072Y320536D01*
X357099Y320700D01*
X357099Y321700D01*
X357098Y321708D01*
X357099Y321715D01*
X357099Y321716D01*
X357099Y321717D01*
X357078Y321805D01*
X357060Y321895D01*
X357055Y321902D01*
X357053Y321910D01*
X356999Y321983D01*
X356947Y322059D01*
X356940Y322063D01*
X356935Y322070D01*
X356857Y322117D01*
X356780Y322166D01*
X356771Y322167D01*
X356764Y322172D01*
X356600Y322199D01*
X348850Y322199D01*
X348842Y322198D01*
X348833Y322199D01*
X348745Y322178D01*
X348655Y322160D01*
X348648Y322155D01*
X348640Y322153D01*
X348567Y322099D01*
X348491Y322047D01*
X348487Y322040D01*
X348480Y322035D01*
X348433Y321957D01*
X348384Y321880D01*
X348383Y321871D01*
X348378Y321864D01*
X348351Y321700D01*
X348351Y320700D01*
X348352Y320692D01*
X348351Y320683D01*
X348372Y320595D01*
X348390Y320505D01*
X348395Y320498D01*
X348397Y320490D01*
X348451Y320417D01*
X348503Y320341D01*
X348510Y320337D01*
X348515Y320330D01*
X348593Y320283D01*
X348670Y320234D01*
X348679Y320233D01*
X348686Y320228D01*
X348850Y320201D01*
X356600Y320201D01*
X356608Y320202D01*
G37*
G36*
X425358Y320202D02*
X425358Y320202D01*
X425367Y320201D01*
X425455Y320222D01*
X425545Y320240D01*
X425552Y320245D01*
X425560Y320247D01*
X425633Y320301D01*
X425709Y320353D01*
X425713Y320360D01*
X425720Y320365D01*
X425767Y320443D01*
X425816Y320520D01*
X425817Y320529D01*
X425822Y320536D01*
X425849Y320700D01*
X425849Y321700D01*
X425848Y321708D01*
X425849Y321715D01*
X425849Y321716D01*
X425849Y321717D01*
X425828Y321805D01*
X425810Y321895D01*
X425805Y321902D01*
X425803Y321910D01*
X425749Y321983D01*
X425697Y322059D01*
X425690Y322063D01*
X425685Y322070D01*
X425607Y322117D01*
X425530Y322166D01*
X425521Y322167D01*
X425514Y322172D01*
X425350Y322199D01*
X417600Y322199D01*
X417592Y322198D01*
X417583Y322199D01*
X417495Y322178D01*
X417405Y322160D01*
X417398Y322155D01*
X417390Y322153D01*
X417317Y322099D01*
X417241Y322047D01*
X417237Y322040D01*
X417230Y322035D01*
X417183Y321957D01*
X417134Y321880D01*
X417133Y321871D01*
X417128Y321864D01*
X417101Y321700D01*
X417101Y320700D01*
X417102Y320692D01*
X417101Y320683D01*
X417122Y320595D01*
X417140Y320505D01*
X417145Y320498D01*
X417147Y320490D01*
X417201Y320417D01*
X417253Y320341D01*
X417260Y320337D01*
X417265Y320330D01*
X417343Y320283D01*
X417420Y320234D01*
X417429Y320233D01*
X417436Y320228D01*
X417600Y320201D01*
X425350Y320201D01*
X425358Y320202D01*
G37*
G36*
X356608Y316202D02*
X356608Y316202D01*
X356617Y316201D01*
X356705Y316222D01*
X356795Y316240D01*
X356802Y316245D01*
X356810Y316247D01*
X356883Y316301D01*
X356959Y316353D01*
X356963Y316360D01*
X356970Y316365D01*
X357017Y316443D01*
X357066Y316520D01*
X357067Y316529D01*
X357072Y316536D01*
X357099Y316700D01*
X357099Y317700D01*
X357098Y317708D01*
X357099Y317715D01*
X357099Y317716D01*
X357099Y317717D01*
X357078Y317805D01*
X357060Y317895D01*
X357055Y317902D01*
X357053Y317910D01*
X356999Y317983D01*
X356947Y318059D01*
X356940Y318063D01*
X356935Y318070D01*
X356857Y318117D01*
X356780Y318166D01*
X356771Y318167D01*
X356764Y318172D01*
X356600Y318199D01*
X348850Y318199D01*
X348842Y318198D01*
X348833Y318199D01*
X348745Y318178D01*
X348655Y318160D01*
X348648Y318155D01*
X348640Y318153D01*
X348567Y318099D01*
X348491Y318047D01*
X348487Y318040D01*
X348480Y318035D01*
X348433Y317957D01*
X348384Y317880D01*
X348383Y317871D01*
X348378Y317864D01*
X348351Y317700D01*
X348351Y316700D01*
X348352Y316692D01*
X348351Y316683D01*
X348372Y316595D01*
X348390Y316505D01*
X348395Y316498D01*
X348397Y316490D01*
X348451Y316417D01*
X348503Y316341D01*
X348510Y316337D01*
X348515Y316330D01*
X348593Y316283D01*
X348670Y316234D01*
X348679Y316233D01*
X348686Y316228D01*
X348850Y316201D01*
X356600Y316201D01*
X356608Y316202D01*
G37*
G36*
X425358Y316202D02*
X425358Y316202D01*
X425367Y316201D01*
X425455Y316222D01*
X425545Y316240D01*
X425552Y316245D01*
X425560Y316247D01*
X425633Y316301D01*
X425709Y316353D01*
X425713Y316360D01*
X425720Y316365D01*
X425767Y316443D01*
X425816Y316520D01*
X425817Y316529D01*
X425822Y316536D01*
X425849Y316700D01*
X425849Y317700D01*
X425848Y317708D01*
X425849Y317715D01*
X425849Y317716D01*
X425849Y317717D01*
X425828Y317805D01*
X425810Y317895D01*
X425805Y317902D01*
X425803Y317910D01*
X425749Y317983D01*
X425697Y318059D01*
X425690Y318063D01*
X425685Y318070D01*
X425607Y318117D01*
X425530Y318166D01*
X425521Y318167D01*
X425514Y318172D01*
X425350Y318199D01*
X417600Y318199D01*
X417592Y318198D01*
X417583Y318199D01*
X417495Y318178D01*
X417405Y318160D01*
X417398Y318155D01*
X417390Y318153D01*
X417317Y318099D01*
X417241Y318047D01*
X417237Y318040D01*
X417230Y318035D01*
X417183Y317957D01*
X417134Y317880D01*
X417133Y317871D01*
X417128Y317864D01*
X417101Y317700D01*
X417101Y316700D01*
X417102Y316692D01*
X417101Y316683D01*
X417122Y316595D01*
X417140Y316505D01*
X417145Y316498D01*
X417147Y316490D01*
X417201Y316417D01*
X417253Y316341D01*
X417260Y316337D01*
X417265Y316330D01*
X417343Y316283D01*
X417420Y316234D01*
X417429Y316233D01*
X417436Y316228D01*
X417600Y316201D01*
X425350Y316201D01*
X425358Y316202D01*
G37*
G36*
X425358Y312202D02*
X425358Y312202D01*
X425367Y312201D01*
X425455Y312222D01*
X425545Y312240D01*
X425552Y312245D01*
X425560Y312247D01*
X425633Y312301D01*
X425709Y312353D01*
X425713Y312360D01*
X425720Y312365D01*
X425767Y312443D01*
X425816Y312520D01*
X425817Y312529D01*
X425822Y312536D01*
X425849Y312700D01*
X425849Y313700D01*
X425848Y313708D01*
X425849Y313715D01*
X425849Y313716D01*
X425849Y313717D01*
X425828Y313805D01*
X425810Y313895D01*
X425805Y313902D01*
X425803Y313910D01*
X425749Y313983D01*
X425697Y314059D01*
X425690Y314063D01*
X425685Y314070D01*
X425607Y314117D01*
X425530Y314166D01*
X425521Y314167D01*
X425514Y314172D01*
X425350Y314199D01*
X417600Y314199D01*
X417592Y314198D01*
X417583Y314199D01*
X417495Y314178D01*
X417405Y314160D01*
X417398Y314155D01*
X417390Y314153D01*
X417317Y314099D01*
X417241Y314047D01*
X417237Y314040D01*
X417230Y314035D01*
X417183Y313957D01*
X417134Y313880D01*
X417133Y313871D01*
X417128Y313864D01*
X417101Y313700D01*
X417101Y312700D01*
X417102Y312692D01*
X417101Y312683D01*
X417122Y312595D01*
X417140Y312505D01*
X417145Y312498D01*
X417147Y312490D01*
X417201Y312417D01*
X417253Y312341D01*
X417260Y312337D01*
X417265Y312330D01*
X417343Y312283D01*
X417420Y312234D01*
X417429Y312233D01*
X417436Y312228D01*
X417600Y312201D01*
X425350Y312201D01*
X425358Y312202D01*
G37*
G36*
X425358Y308202D02*
X425358Y308202D01*
X425367Y308201D01*
X425455Y308222D01*
X425545Y308240D01*
X425552Y308245D01*
X425560Y308247D01*
X425633Y308301D01*
X425709Y308353D01*
X425713Y308360D01*
X425720Y308365D01*
X425767Y308443D01*
X425816Y308520D01*
X425817Y308529D01*
X425822Y308536D01*
X425849Y308700D01*
X425849Y309700D01*
X425848Y309708D01*
X425849Y309715D01*
X425849Y309716D01*
X425849Y309717D01*
X425828Y309805D01*
X425810Y309895D01*
X425805Y309902D01*
X425803Y309910D01*
X425749Y309983D01*
X425697Y310059D01*
X425690Y310063D01*
X425685Y310070D01*
X425607Y310117D01*
X425530Y310166D01*
X425521Y310167D01*
X425514Y310172D01*
X425350Y310199D01*
X417600Y310199D01*
X417592Y310198D01*
X417583Y310199D01*
X417495Y310178D01*
X417405Y310160D01*
X417398Y310155D01*
X417390Y310153D01*
X417317Y310099D01*
X417241Y310047D01*
X417237Y310040D01*
X417230Y310035D01*
X417183Y309957D01*
X417134Y309880D01*
X417133Y309871D01*
X417128Y309864D01*
X417101Y309700D01*
X417101Y308700D01*
X417102Y308692D01*
X417101Y308683D01*
X417122Y308595D01*
X417140Y308505D01*
X417145Y308498D01*
X417147Y308490D01*
X417201Y308417D01*
X417253Y308341D01*
X417260Y308337D01*
X417265Y308330D01*
X417343Y308283D01*
X417420Y308234D01*
X417429Y308233D01*
X417436Y308228D01*
X417600Y308201D01*
X425350Y308201D01*
X425358Y308202D01*
G37*
G36*
X356608Y308202D02*
X356608Y308202D01*
X356617Y308201D01*
X356705Y308222D01*
X356795Y308240D01*
X356802Y308245D01*
X356810Y308247D01*
X356883Y308301D01*
X356959Y308353D01*
X356963Y308360D01*
X356970Y308365D01*
X357017Y308443D01*
X357066Y308520D01*
X357067Y308529D01*
X357072Y308536D01*
X357099Y308700D01*
X357099Y309700D01*
X357098Y309708D01*
X357099Y309715D01*
X357099Y309716D01*
X357099Y309717D01*
X357078Y309805D01*
X357060Y309895D01*
X357055Y309902D01*
X357053Y309910D01*
X356999Y309983D01*
X356947Y310059D01*
X356940Y310063D01*
X356935Y310070D01*
X356857Y310117D01*
X356780Y310166D01*
X356771Y310167D01*
X356764Y310172D01*
X356600Y310199D01*
X348850Y310199D01*
X348842Y310198D01*
X348833Y310199D01*
X348745Y310178D01*
X348655Y310160D01*
X348648Y310155D01*
X348640Y310153D01*
X348567Y310099D01*
X348491Y310047D01*
X348487Y310040D01*
X348480Y310035D01*
X348433Y309957D01*
X348384Y309880D01*
X348383Y309871D01*
X348378Y309864D01*
X348351Y309700D01*
X348351Y308700D01*
X348352Y308692D01*
X348351Y308683D01*
X348372Y308595D01*
X348390Y308505D01*
X348395Y308498D01*
X348397Y308490D01*
X348451Y308417D01*
X348503Y308341D01*
X348510Y308337D01*
X348515Y308330D01*
X348593Y308283D01*
X348670Y308234D01*
X348679Y308233D01*
X348686Y308228D01*
X348850Y308201D01*
X356600Y308201D01*
X356608Y308202D01*
G37*
G36*
X425358Y304202D02*
X425358Y304202D01*
X425367Y304201D01*
X425455Y304222D01*
X425545Y304240D01*
X425552Y304245D01*
X425560Y304247D01*
X425633Y304301D01*
X425709Y304353D01*
X425713Y304360D01*
X425720Y304365D01*
X425767Y304443D01*
X425816Y304520D01*
X425817Y304529D01*
X425822Y304536D01*
X425849Y304700D01*
X425849Y305700D01*
X425848Y305708D01*
X425849Y305715D01*
X425849Y305716D01*
X425849Y305717D01*
X425828Y305805D01*
X425810Y305895D01*
X425805Y305902D01*
X425803Y305910D01*
X425749Y305983D01*
X425697Y306059D01*
X425690Y306063D01*
X425685Y306070D01*
X425607Y306117D01*
X425530Y306166D01*
X425521Y306167D01*
X425514Y306172D01*
X425350Y306199D01*
X417600Y306199D01*
X417592Y306198D01*
X417583Y306199D01*
X417495Y306178D01*
X417405Y306160D01*
X417398Y306155D01*
X417390Y306153D01*
X417317Y306099D01*
X417241Y306047D01*
X417237Y306040D01*
X417230Y306035D01*
X417183Y305957D01*
X417134Y305880D01*
X417133Y305871D01*
X417128Y305864D01*
X417101Y305700D01*
X417101Y304700D01*
X417102Y304692D01*
X417101Y304683D01*
X417122Y304595D01*
X417140Y304505D01*
X417145Y304498D01*
X417147Y304490D01*
X417201Y304417D01*
X417253Y304341D01*
X417260Y304337D01*
X417265Y304330D01*
X417343Y304283D01*
X417420Y304234D01*
X417429Y304233D01*
X417436Y304228D01*
X417600Y304201D01*
X425350Y304201D01*
X425358Y304202D01*
G37*
G36*
X356608Y304202D02*
X356608Y304202D01*
X356617Y304201D01*
X356705Y304222D01*
X356795Y304240D01*
X356802Y304245D01*
X356810Y304247D01*
X356883Y304301D01*
X356959Y304353D01*
X356963Y304360D01*
X356970Y304365D01*
X357017Y304443D01*
X357066Y304520D01*
X357067Y304529D01*
X357072Y304536D01*
X357099Y304700D01*
X357099Y305700D01*
X357098Y305708D01*
X357099Y305715D01*
X357099Y305716D01*
X357099Y305717D01*
X357078Y305805D01*
X357060Y305895D01*
X357055Y305902D01*
X357053Y305910D01*
X356999Y305983D01*
X356947Y306059D01*
X356940Y306063D01*
X356935Y306070D01*
X356857Y306117D01*
X356780Y306166D01*
X356771Y306167D01*
X356764Y306172D01*
X356600Y306199D01*
X348850Y306199D01*
X348842Y306198D01*
X348833Y306199D01*
X348745Y306178D01*
X348655Y306160D01*
X348648Y306155D01*
X348640Y306153D01*
X348567Y306099D01*
X348491Y306047D01*
X348487Y306040D01*
X348480Y306035D01*
X348433Y305957D01*
X348384Y305880D01*
X348383Y305871D01*
X348378Y305864D01*
X348351Y305700D01*
X348351Y304700D01*
X348352Y304692D01*
X348351Y304683D01*
X348372Y304595D01*
X348390Y304505D01*
X348395Y304498D01*
X348397Y304490D01*
X348451Y304417D01*
X348503Y304341D01*
X348510Y304337D01*
X348515Y304330D01*
X348593Y304283D01*
X348670Y304234D01*
X348679Y304233D01*
X348686Y304228D01*
X348850Y304201D01*
X356600Y304201D01*
X356608Y304202D01*
G37*
G36*
X356608Y300202D02*
X356608Y300202D01*
X356617Y300201D01*
X356705Y300222D01*
X356795Y300240D01*
X356802Y300245D01*
X356810Y300247D01*
X356883Y300301D01*
X356959Y300353D01*
X356963Y300360D01*
X356970Y300365D01*
X357017Y300443D01*
X357066Y300520D01*
X357067Y300529D01*
X357072Y300536D01*
X357099Y300700D01*
X357099Y301700D01*
X357098Y301708D01*
X357099Y301715D01*
X357099Y301716D01*
X357099Y301717D01*
X357078Y301805D01*
X357060Y301895D01*
X357055Y301902D01*
X357053Y301910D01*
X356999Y301983D01*
X356947Y302059D01*
X356940Y302063D01*
X356935Y302070D01*
X356857Y302117D01*
X356780Y302166D01*
X356771Y302167D01*
X356764Y302172D01*
X356600Y302199D01*
X348850Y302199D01*
X348842Y302198D01*
X348833Y302199D01*
X348745Y302178D01*
X348655Y302160D01*
X348648Y302155D01*
X348640Y302153D01*
X348567Y302099D01*
X348491Y302047D01*
X348487Y302040D01*
X348480Y302035D01*
X348433Y301957D01*
X348384Y301880D01*
X348383Y301871D01*
X348378Y301864D01*
X348351Y301700D01*
X348351Y300700D01*
X348352Y300692D01*
X348351Y300683D01*
X348372Y300595D01*
X348390Y300505D01*
X348395Y300498D01*
X348397Y300490D01*
X348451Y300417D01*
X348503Y300341D01*
X348510Y300337D01*
X348515Y300330D01*
X348593Y300283D01*
X348670Y300234D01*
X348679Y300233D01*
X348686Y300228D01*
X348850Y300201D01*
X356600Y300201D01*
X356608Y300202D01*
G37*
G36*
X425358Y300202D02*
X425358Y300202D01*
X425367Y300201D01*
X425455Y300222D01*
X425545Y300240D01*
X425552Y300245D01*
X425560Y300247D01*
X425633Y300301D01*
X425709Y300353D01*
X425713Y300360D01*
X425720Y300365D01*
X425767Y300443D01*
X425816Y300520D01*
X425817Y300529D01*
X425822Y300536D01*
X425849Y300700D01*
X425849Y301700D01*
X425848Y301708D01*
X425849Y301715D01*
X425849Y301716D01*
X425849Y301717D01*
X425828Y301805D01*
X425810Y301895D01*
X425805Y301902D01*
X425803Y301910D01*
X425749Y301983D01*
X425697Y302059D01*
X425690Y302063D01*
X425685Y302070D01*
X425607Y302117D01*
X425530Y302166D01*
X425521Y302167D01*
X425514Y302172D01*
X425350Y302199D01*
X417600Y302199D01*
X417592Y302198D01*
X417583Y302199D01*
X417495Y302178D01*
X417405Y302160D01*
X417398Y302155D01*
X417390Y302153D01*
X417317Y302099D01*
X417241Y302047D01*
X417237Y302040D01*
X417230Y302035D01*
X417183Y301957D01*
X417134Y301880D01*
X417133Y301871D01*
X417128Y301864D01*
X417101Y301700D01*
X417101Y300700D01*
X417102Y300692D01*
X417101Y300683D01*
X417122Y300595D01*
X417140Y300505D01*
X417145Y300498D01*
X417147Y300490D01*
X417201Y300417D01*
X417253Y300341D01*
X417260Y300337D01*
X417265Y300330D01*
X417343Y300283D01*
X417420Y300234D01*
X417429Y300233D01*
X417436Y300228D01*
X417600Y300201D01*
X425350Y300201D01*
X425358Y300202D01*
G37*
G36*
X425358Y296202D02*
X425358Y296202D01*
X425367Y296201D01*
X425455Y296222D01*
X425545Y296240D01*
X425552Y296245D01*
X425560Y296247D01*
X425633Y296301D01*
X425709Y296353D01*
X425713Y296360D01*
X425720Y296365D01*
X425767Y296443D01*
X425816Y296520D01*
X425817Y296529D01*
X425822Y296536D01*
X425849Y296700D01*
X425849Y297700D01*
X425848Y297708D01*
X425849Y297715D01*
X425849Y297716D01*
X425849Y297717D01*
X425828Y297805D01*
X425810Y297895D01*
X425805Y297902D01*
X425803Y297910D01*
X425749Y297983D01*
X425697Y298059D01*
X425690Y298063D01*
X425685Y298070D01*
X425607Y298117D01*
X425530Y298166D01*
X425521Y298167D01*
X425514Y298172D01*
X425350Y298199D01*
X417600Y298199D01*
X417592Y298198D01*
X417583Y298199D01*
X417495Y298178D01*
X417405Y298160D01*
X417398Y298155D01*
X417390Y298153D01*
X417317Y298099D01*
X417241Y298047D01*
X417237Y298040D01*
X417230Y298035D01*
X417183Y297957D01*
X417134Y297880D01*
X417133Y297871D01*
X417128Y297864D01*
X417101Y297700D01*
X417101Y296700D01*
X417102Y296692D01*
X417101Y296683D01*
X417122Y296595D01*
X417140Y296505D01*
X417145Y296498D01*
X417147Y296490D01*
X417201Y296417D01*
X417253Y296341D01*
X417260Y296337D01*
X417265Y296330D01*
X417343Y296283D01*
X417420Y296234D01*
X417429Y296233D01*
X417436Y296228D01*
X417600Y296201D01*
X425350Y296201D01*
X425358Y296202D01*
G37*
G36*
X356608Y296202D02*
X356608Y296202D01*
X356617Y296201D01*
X356705Y296222D01*
X356795Y296240D01*
X356802Y296245D01*
X356810Y296247D01*
X356883Y296301D01*
X356959Y296353D01*
X356963Y296360D01*
X356970Y296365D01*
X357017Y296443D01*
X357066Y296520D01*
X357067Y296529D01*
X357072Y296536D01*
X357099Y296700D01*
X357099Y297700D01*
X357098Y297708D01*
X357099Y297715D01*
X357099Y297716D01*
X357099Y297717D01*
X357078Y297805D01*
X357060Y297895D01*
X357055Y297902D01*
X357053Y297910D01*
X356999Y297983D01*
X356947Y298059D01*
X356940Y298063D01*
X356935Y298070D01*
X356857Y298117D01*
X356780Y298166D01*
X356771Y298167D01*
X356764Y298172D01*
X356600Y298199D01*
X348850Y298199D01*
X348842Y298198D01*
X348833Y298199D01*
X348745Y298178D01*
X348655Y298160D01*
X348648Y298155D01*
X348640Y298153D01*
X348567Y298099D01*
X348491Y298047D01*
X348487Y298040D01*
X348480Y298035D01*
X348433Y297957D01*
X348384Y297880D01*
X348383Y297871D01*
X348378Y297864D01*
X348351Y297700D01*
X348351Y296700D01*
X348352Y296692D01*
X348351Y296683D01*
X348372Y296595D01*
X348390Y296505D01*
X348395Y296498D01*
X348397Y296490D01*
X348451Y296417D01*
X348503Y296341D01*
X348510Y296337D01*
X348515Y296330D01*
X348593Y296283D01*
X348670Y296234D01*
X348679Y296233D01*
X348686Y296228D01*
X348850Y296201D01*
X356600Y296201D01*
X356608Y296202D01*
G37*
G36*
X356608Y292202D02*
X356608Y292202D01*
X356617Y292201D01*
X356705Y292222D01*
X356795Y292240D01*
X356802Y292245D01*
X356810Y292247D01*
X356883Y292301D01*
X356959Y292353D01*
X356963Y292360D01*
X356970Y292365D01*
X357017Y292443D01*
X357066Y292520D01*
X357067Y292529D01*
X357072Y292536D01*
X357099Y292700D01*
X357099Y293700D01*
X357098Y293708D01*
X357099Y293715D01*
X357099Y293716D01*
X357099Y293717D01*
X357078Y293805D01*
X357060Y293895D01*
X357055Y293902D01*
X357053Y293910D01*
X356999Y293983D01*
X356947Y294059D01*
X356940Y294063D01*
X356935Y294070D01*
X356857Y294117D01*
X356780Y294166D01*
X356771Y294167D01*
X356764Y294172D01*
X356600Y294199D01*
X348850Y294199D01*
X348842Y294198D01*
X348833Y294199D01*
X348745Y294178D01*
X348655Y294160D01*
X348648Y294155D01*
X348640Y294153D01*
X348567Y294099D01*
X348491Y294047D01*
X348487Y294040D01*
X348480Y294035D01*
X348433Y293957D01*
X348384Y293880D01*
X348383Y293871D01*
X348378Y293864D01*
X348351Y293700D01*
X348351Y292700D01*
X348352Y292692D01*
X348351Y292683D01*
X348372Y292595D01*
X348390Y292505D01*
X348395Y292498D01*
X348397Y292490D01*
X348451Y292417D01*
X348503Y292341D01*
X348510Y292337D01*
X348515Y292330D01*
X348593Y292283D01*
X348670Y292234D01*
X348679Y292233D01*
X348686Y292228D01*
X348850Y292201D01*
X356600Y292201D01*
X356608Y292202D01*
G37*
G36*
X425358Y292202D02*
X425358Y292202D01*
X425367Y292201D01*
X425455Y292222D01*
X425545Y292240D01*
X425552Y292245D01*
X425560Y292247D01*
X425633Y292301D01*
X425709Y292353D01*
X425713Y292360D01*
X425720Y292365D01*
X425767Y292443D01*
X425816Y292520D01*
X425817Y292529D01*
X425822Y292536D01*
X425849Y292700D01*
X425849Y293700D01*
X425848Y293708D01*
X425849Y293715D01*
X425849Y293716D01*
X425849Y293717D01*
X425828Y293805D01*
X425810Y293895D01*
X425805Y293902D01*
X425803Y293910D01*
X425749Y293983D01*
X425697Y294059D01*
X425690Y294063D01*
X425685Y294070D01*
X425607Y294117D01*
X425530Y294166D01*
X425521Y294167D01*
X425514Y294172D01*
X425350Y294199D01*
X417600Y294199D01*
X417592Y294198D01*
X417583Y294199D01*
X417495Y294178D01*
X417405Y294160D01*
X417398Y294155D01*
X417390Y294153D01*
X417317Y294099D01*
X417241Y294047D01*
X417237Y294040D01*
X417230Y294035D01*
X417183Y293957D01*
X417134Y293880D01*
X417133Y293871D01*
X417128Y293864D01*
X417101Y293700D01*
X417101Y292700D01*
X417102Y292692D01*
X417101Y292683D01*
X417122Y292595D01*
X417140Y292505D01*
X417145Y292498D01*
X417147Y292490D01*
X417201Y292417D01*
X417253Y292341D01*
X417260Y292337D01*
X417265Y292330D01*
X417343Y292283D01*
X417420Y292234D01*
X417429Y292233D01*
X417436Y292228D01*
X417600Y292201D01*
X425350Y292201D01*
X425358Y292202D01*
G37*
G36*
X425358Y288202D02*
X425358Y288202D01*
X425367Y288201D01*
X425455Y288222D01*
X425545Y288240D01*
X425552Y288245D01*
X425560Y288247D01*
X425633Y288301D01*
X425709Y288353D01*
X425713Y288360D01*
X425720Y288365D01*
X425767Y288443D01*
X425816Y288520D01*
X425817Y288529D01*
X425822Y288536D01*
X425849Y288700D01*
X425849Y289700D01*
X425848Y289708D01*
X425849Y289715D01*
X425849Y289716D01*
X425849Y289717D01*
X425828Y289805D01*
X425810Y289895D01*
X425805Y289902D01*
X425803Y289910D01*
X425749Y289983D01*
X425697Y290059D01*
X425690Y290063D01*
X425685Y290070D01*
X425607Y290117D01*
X425530Y290166D01*
X425521Y290167D01*
X425514Y290172D01*
X425350Y290199D01*
X417600Y290199D01*
X417592Y290198D01*
X417583Y290199D01*
X417495Y290178D01*
X417405Y290160D01*
X417398Y290155D01*
X417390Y290153D01*
X417317Y290099D01*
X417241Y290047D01*
X417237Y290040D01*
X417230Y290035D01*
X417183Y289957D01*
X417134Y289880D01*
X417133Y289871D01*
X417128Y289864D01*
X417101Y289700D01*
X417101Y288700D01*
X417102Y288692D01*
X417101Y288683D01*
X417122Y288595D01*
X417140Y288505D01*
X417145Y288498D01*
X417147Y288490D01*
X417201Y288417D01*
X417253Y288341D01*
X417260Y288337D01*
X417265Y288330D01*
X417343Y288283D01*
X417420Y288234D01*
X417429Y288233D01*
X417436Y288228D01*
X417600Y288201D01*
X425350Y288201D01*
X425358Y288202D01*
G37*
G36*
X356608Y288202D02*
X356608Y288202D01*
X356617Y288201D01*
X356705Y288222D01*
X356795Y288240D01*
X356802Y288245D01*
X356810Y288247D01*
X356883Y288301D01*
X356959Y288353D01*
X356963Y288360D01*
X356970Y288365D01*
X357017Y288443D01*
X357066Y288520D01*
X357067Y288529D01*
X357072Y288536D01*
X357099Y288700D01*
X357099Y289700D01*
X357098Y289708D01*
X357099Y289715D01*
X357099Y289716D01*
X357099Y289717D01*
X357078Y289805D01*
X357060Y289895D01*
X357055Y289902D01*
X357053Y289910D01*
X356999Y289983D01*
X356947Y290059D01*
X356940Y290063D01*
X356935Y290070D01*
X356857Y290117D01*
X356780Y290166D01*
X356771Y290167D01*
X356764Y290172D01*
X356600Y290199D01*
X348850Y290199D01*
X348842Y290198D01*
X348833Y290199D01*
X348745Y290178D01*
X348655Y290160D01*
X348648Y290155D01*
X348640Y290153D01*
X348567Y290099D01*
X348491Y290047D01*
X348487Y290040D01*
X348480Y290035D01*
X348433Y289957D01*
X348384Y289880D01*
X348383Y289871D01*
X348378Y289864D01*
X348351Y289700D01*
X348351Y288700D01*
X348352Y288692D01*
X348351Y288683D01*
X348372Y288595D01*
X348390Y288505D01*
X348395Y288498D01*
X348397Y288490D01*
X348451Y288417D01*
X348503Y288341D01*
X348510Y288337D01*
X348515Y288330D01*
X348593Y288283D01*
X348670Y288234D01*
X348679Y288233D01*
X348686Y288228D01*
X348850Y288201D01*
X356600Y288201D01*
X356608Y288202D01*
G37*
G36*
X397608Y345202D02*
X397608Y345202D01*
X397617Y345201D01*
X397705Y345222D01*
X397795Y345240D01*
X397802Y345245D01*
X397810Y345247D01*
X397883Y345301D01*
X397959Y345353D01*
X397963Y345360D01*
X397970Y345365D01*
X398017Y345443D01*
X398066Y345520D01*
X398067Y345529D01*
X398072Y345536D01*
X398099Y345700D01*
X398099Y353450D01*
X398098Y353458D01*
X398099Y353467D01*
X398078Y353555D01*
X398060Y353645D01*
X398055Y353652D01*
X398053Y353660D01*
X397999Y353733D01*
X397947Y353809D01*
X397940Y353813D01*
X397935Y353820D01*
X397857Y353867D01*
X397780Y353916D01*
X397771Y353917D01*
X397764Y353922D01*
X397600Y353949D01*
X396600Y353949D01*
X396592Y353948D01*
X396583Y353949D01*
X396495Y353928D01*
X396405Y353910D01*
X396398Y353905D01*
X396390Y353903D01*
X396317Y353849D01*
X396241Y353797D01*
X396237Y353790D01*
X396230Y353785D01*
X396183Y353707D01*
X396134Y353630D01*
X396133Y353621D01*
X396128Y353614D01*
X396101Y353450D01*
X396101Y345700D01*
X396102Y345692D01*
X396101Y345683D01*
X396122Y345595D01*
X396140Y345505D01*
X396145Y345498D01*
X396147Y345490D01*
X396201Y345417D01*
X396253Y345341D01*
X396260Y345337D01*
X396265Y345330D01*
X396343Y345283D01*
X396420Y345234D01*
X396429Y345233D01*
X396436Y345228D01*
X396600Y345201D01*
X397600Y345201D01*
X397608Y345202D01*
G37*
G36*
X377608Y345202D02*
X377608Y345202D01*
X377617Y345201D01*
X377705Y345222D01*
X377795Y345240D01*
X377802Y345245D01*
X377810Y345247D01*
X377883Y345301D01*
X377959Y345353D01*
X377963Y345360D01*
X377970Y345365D01*
X378017Y345443D01*
X378066Y345520D01*
X378067Y345529D01*
X378072Y345536D01*
X378099Y345700D01*
X378099Y353450D01*
X378098Y353458D01*
X378099Y353467D01*
X378078Y353555D01*
X378060Y353645D01*
X378055Y353652D01*
X378053Y353660D01*
X377999Y353733D01*
X377947Y353809D01*
X377940Y353813D01*
X377935Y353820D01*
X377857Y353867D01*
X377780Y353916D01*
X377771Y353917D01*
X377764Y353922D01*
X377600Y353949D01*
X376600Y353949D01*
X376592Y353948D01*
X376583Y353949D01*
X376495Y353928D01*
X376405Y353910D01*
X376398Y353905D01*
X376390Y353903D01*
X376317Y353849D01*
X376241Y353797D01*
X376237Y353790D01*
X376230Y353785D01*
X376183Y353707D01*
X376134Y353630D01*
X376133Y353621D01*
X376128Y353614D01*
X376101Y353450D01*
X376101Y345700D01*
X376102Y345692D01*
X376101Y345683D01*
X376122Y345595D01*
X376140Y345505D01*
X376145Y345498D01*
X376147Y345490D01*
X376201Y345417D01*
X376253Y345341D01*
X376260Y345337D01*
X376265Y345330D01*
X376343Y345283D01*
X376420Y345234D01*
X376429Y345233D01*
X376436Y345228D01*
X376600Y345201D01*
X377600Y345201D01*
X377608Y345202D01*
G37*
G36*
X409608Y345202D02*
X409608Y345202D01*
X409617Y345201D01*
X409705Y345222D01*
X409795Y345240D01*
X409802Y345245D01*
X409810Y345247D01*
X409883Y345301D01*
X409959Y345353D01*
X409963Y345360D01*
X409970Y345365D01*
X410017Y345443D01*
X410066Y345520D01*
X410067Y345529D01*
X410072Y345536D01*
X410099Y345700D01*
X410099Y353450D01*
X410098Y353458D01*
X410099Y353467D01*
X410078Y353555D01*
X410060Y353645D01*
X410055Y353652D01*
X410053Y353660D01*
X409999Y353733D01*
X409947Y353809D01*
X409940Y353813D01*
X409935Y353820D01*
X409857Y353867D01*
X409780Y353916D01*
X409771Y353917D01*
X409764Y353922D01*
X409600Y353949D01*
X408600Y353949D01*
X408592Y353948D01*
X408583Y353949D01*
X408495Y353928D01*
X408405Y353910D01*
X408398Y353905D01*
X408390Y353903D01*
X408317Y353849D01*
X408241Y353797D01*
X408237Y353790D01*
X408230Y353785D01*
X408183Y353707D01*
X408134Y353630D01*
X408133Y353621D01*
X408128Y353614D01*
X408101Y353450D01*
X408101Y345700D01*
X408102Y345692D01*
X408101Y345683D01*
X408122Y345595D01*
X408140Y345505D01*
X408145Y345498D01*
X408147Y345490D01*
X408201Y345417D01*
X408253Y345341D01*
X408260Y345337D01*
X408265Y345330D01*
X408343Y345283D01*
X408420Y345234D01*
X408429Y345233D01*
X408436Y345228D01*
X408600Y345201D01*
X409600Y345201D01*
X409608Y345202D01*
G37*
G36*
X369608Y345202D02*
X369608Y345202D01*
X369617Y345201D01*
X369705Y345222D01*
X369795Y345240D01*
X369802Y345245D01*
X369810Y345247D01*
X369883Y345301D01*
X369959Y345353D01*
X369963Y345360D01*
X369970Y345365D01*
X370017Y345443D01*
X370066Y345520D01*
X370067Y345529D01*
X370072Y345536D01*
X370099Y345700D01*
X370099Y353450D01*
X370098Y353458D01*
X370099Y353467D01*
X370078Y353555D01*
X370060Y353645D01*
X370055Y353652D01*
X370053Y353660D01*
X369999Y353733D01*
X369947Y353809D01*
X369940Y353813D01*
X369935Y353820D01*
X369857Y353867D01*
X369780Y353916D01*
X369771Y353917D01*
X369764Y353922D01*
X369600Y353949D01*
X368600Y353949D01*
X368592Y353948D01*
X368583Y353949D01*
X368495Y353928D01*
X368405Y353910D01*
X368398Y353905D01*
X368390Y353903D01*
X368317Y353849D01*
X368241Y353797D01*
X368237Y353790D01*
X368230Y353785D01*
X368183Y353707D01*
X368134Y353630D01*
X368133Y353621D01*
X368128Y353614D01*
X368101Y353450D01*
X368101Y345700D01*
X368102Y345692D01*
X368101Y345683D01*
X368122Y345595D01*
X368140Y345505D01*
X368145Y345498D01*
X368147Y345490D01*
X368201Y345417D01*
X368253Y345341D01*
X368260Y345337D01*
X368265Y345330D01*
X368343Y345283D01*
X368420Y345234D01*
X368429Y345233D01*
X368436Y345228D01*
X368600Y345201D01*
X369600Y345201D01*
X369608Y345202D01*
G37*
G36*
X389608Y345202D02*
X389608Y345202D01*
X389617Y345201D01*
X389705Y345222D01*
X389795Y345240D01*
X389802Y345245D01*
X389810Y345247D01*
X389883Y345301D01*
X389959Y345353D01*
X389963Y345360D01*
X389970Y345365D01*
X390017Y345443D01*
X390066Y345520D01*
X390067Y345529D01*
X390072Y345536D01*
X390099Y345700D01*
X390099Y353450D01*
X390098Y353458D01*
X390099Y353467D01*
X390078Y353555D01*
X390060Y353645D01*
X390055Y353652D01*
X390053Y353660D01*
X389999Y353733D01*
X389947Y353809D01*
X389940Y353813D01*
X389935Y353820D01*
X389857Y353867D01*
X389780Y353916D01*
X389771Y353917D01*
X389764Y353922D01*
X389600Y353949D01*
X388600Y353949D01*
X388592Y353948D01*
X388583Y353949D01*
X388495Y353928D01*
X388405Y353910D01*
X388398Y353905D01*
X388390Y353903D01*
X388317Y353849D01*
X388241Y353797D01*
X388237Y353790D01*
X388230Y353785D01*
X388183Y353707D01*
X388134Y353630D01*
X388133Y353621D01*
X388128Y353614D01*
X388101Y353450D01*
X388101Y345700D01*
X388102Y345692D01*
X388101Y345683D01*
X388122Y345595D01*
X388140Y345505D01*
X388145Y345498D01*
X388147Y345490D01*
X388201Y345417D01*
X388253Y345341D01*
X388260Y345337D01*
X388265Y345330D01*
X388343Y345283D01*
X388420Y345234D01*
X388429Y345233D01*
X388436Y345228D01*
X388600Y345201D01*
X389600Y345201D01*
X389608Y345202D01*
G37*
G36*
X413608Y345202D02*
X413608Y345202D01*
X413617Y345201D01*
X413705Y345222D01*
X413795Y345240D01*
X413802Y345245D01*
X413810Y345247D01*
X413883Y345301D01*
X413959Y345353D01*
X413963Y345360D01*
X413970Y345365D01*
X414017Y345443D01*
X414066Y345520D01*
X414067Y345529D01*
X414072Y345536D01*
X414099Y345700D01*
X414099Y353450D01*
X414098Y353458D01*
X414099Y353467D01*
X414078Y353555D01*
X414060Y353645D01*
X414055Y353652D01*
X414053Y353660D01*
X413999Y353733D01*
X413947Y353809D01*
X413940Y353813D01*
X413935Y353820D01*
X413857Y353867D01*
X413780Y353916D01*
X413771Y353917D01*
X413764Y353922D01*
X413600Y353949D01*
X412600Y353949D01*
X412592Y353948D01*
X412583Y353949D01*
X412495Y353928D01*
X412405Y353910D01*
X412398Y353905D01*
X412390Y353903D01*
X412317Y353849D01*
X412241Y353797D01*
X412237Y353790D01*
X412230Y353785D01*
X412183Y353707D01*
X412134Y353630D01*
X412133Y353621D01*
X412128Y353614D01*
X412101Y353450D01*
X412101Y345700D01*
X412102Y345692D01*
X412101Y345683D01*
X412122Y345595D01*
X412140Y345505D01*
X412145Y345498D01*
X412147Y345490D01*
X412201Y345417D01*
X412253Y345341D01*
X412260Y345337D01*
X412265Y345330D01*
X412343Y345283D01*
X412420Y345234D01*
X412429Y345233D01*
X412436Y345228D01*
X412600Y345201D01*
X413600Y345201D01*
X413608Y345202D01*
G37*
G36*
X385608Y345202D02*
X385608Y345202D01*
X385617Y345201D01*
X385705Y345222D01*
X385795Y345240D01*
X385802Y345245D01*
X385810Y345247D01*
X385883Y345301D01*
X385959Y345353D01*
X385963Y345360D01*
X385970Y345365D01*
X386017Y345443D01*
X386066Y345520D01*
X386067Y345529D01*
X386072Y345536D01*
X386099Y345700D01*
X386099Y353450D01*
X386098Y353458D01*
X386099Y353467D01*
X386078Y353555D01*
X386060Y353645D01*
X386055Y353652D01*
X386053Y353660D01*
X385999Y353733D01*
X385947Y353809D01*
X385940Y353813D01*
X385935Y353820D01*
X385857Y353867D01*
X385780Y353916D01*
X385771Y353917D01*
X385764Y353922D01*
X385600Y353949D01*
X384600Y353949D01*
X384592Y353948D01*
X384583Y353949D01*
X384495Y353928D01*
X384405Y353910D01*
X384398Y353905D01*
X384390Y353903D01*
X384317Y353849D01*
X384241Y353797D01*
X384237Y353790D01*
X384230Y353785D01*
X384183Y353707D01*
X384134Y353630D01*
X384133Y353621D01*
X384128Y353614D01*
X384101Y353450D01*
X384101Y345700D01*
X384102Y345692D01*
X384101Y345683D01*
X384122Y345595D01*
X384140Y345505D01*
X384145Y345498D01*
X384147Y345490D01*
X384201Y345417D01*
X384253Y345341D01*
X384260Y345337D01*
X384265Y345330D01*
X384343Y345283D01*
X384420Y345234D01*
X384429Y345233D01*
X384436Y345228D01*
X384600Y345201D01*
X385600Y345201D01*
X385608Y345202D01*
G37*
G36*
X365608Y345202D02*
X365608Y345202D01*
X365617Y345201D01*
X365705Y345222D01*
X365795Y345240D01*
X365802Y345245D01*
X365810Y345247D01*
X365883Y345301D01*
X365959Y345353D01*
X365963Y345360D01*
X365970Y345365D01*
X366017Y345443D01*
X366066Y345520D01*
X366067Y345529D01*
X366072Y345536D01*
X366099Y345700D01*
X366099Y353450D01*
X366098Y353458D01*
X366099Y353467D01*
X366078Y353555D01*
X366060Y353645D01*
X366055Y353652D01*
X366053Y353660D01*
X365999Y353733D01*
X365947Y353809D01*
X365940Y353813D01*
X365935Y353820D01*
X365857Y353867D01*
X365780Y353916D01*
X365771Y353917D01*
X365764Y353922D01*
X365600Y353949D01*
X364600Y353949D01*
X364592Y353948D01*
X364583Y353949D01*
X364495Y353928D01*
X364405Y353910D01*
X364398Y353905D01*
X364390Y353903D01*
X364317Y353849D01*
X364241Y353797D01*
X364237Y353790D01*
X364230Y353785D01*
X364183Y353707D01*
X364134Y353630D01*
X364133Y353621D01*
X364128Y353614D01*
X364101Y353450D01*
X364101Y345700D01*
X364102Y345692D01*
X364101Y345683D01*
X364122Y345595D01*
X364140Y345505D01*
X364145Y345498D01*
X364147Y345490D01*
X364201Y345417D01*
X364253Y345341D01*
X364260Y345337D01*
X364265Y345330D01*
X364343Y345283D01*
X364420Y345234D01*
X364429Y345233D01*
X364436Y345228D01*
X364600Y345201D01*
X365600Y345201D01*
X365608Y345202D01*
G37*
G36*
X401608Y345202D02*
X401608Y345202D01*
X401617Y345201D01*
X401705Y345222D01*
X401795Y345240D01*
X401802Y345245D01*
X401810Y345247D01*
X401883Y345301D01*
X401959Y345353D01*
X401963Y345360D01*
X401970Y345365D01*
X402017Y345443D01*
X402066Y345520D01*
X402067Y345529D01*
X402072Y345536D01*
X402099Y345700D01*
X402099Y353450D01*
X402098Y353458D01*
X402099Y353467D01*
X402078Y353555D01*
X402060Y353645D01*
X402055Y353652D01*
X402053Y353660D01*
X401999Y353733D01*
X401947Y353809D01*
X401940Y353813D01*
X401935Y353820D01*
X401857Y353867D01*
X401780Y353916D01*
X401771Y353917D01*
X401764Y353922D01*
X401600Y353949D01*
X400600Y353949D01*
X400592Y353948D01*
X400583Y353949D01*
X400495Y353928D01*
X400405Y353910D01*
X400398Y353905D01*
X400390Y353903D01*
X400317Y353849D01*
X400241Y353797D01*
X400237Y353790D01*
X400230Y353785D01*
X400183Y353707D01*
X400134Y353630D01*
X400133Y353621D01*
X400128Y353614D01*
X400101Y353450D01*
X400101Y345700D01*
X400102Y345692D01*
X400101Y345683D01*
X400122Y345595D01*
X400140Y345505D01*
X400145Y345498D01*
X400147Y345490D01*
X400201Y345417D01*
X400253Y345341D01*
X400260Y345337D01*
X400265Y345330D01*
X400343Y345283D01*
X400420Y345234D01*
X400429Y345233D01*
X400436Y345228D01*
X400600Y345201D01*
X401600Y345201D01*
X401608Y345202D01*
G37*
G36*
X393608Y345202D02*
X393608Y345202D01*
X393617Y345201D01*
X393705Y345222D01*
X393795Y345240D01*
X393802Y345245D01*
X393810Y345247D01*
X393883Y345301D01*
X393959Y345353D01*
X393963Y345360D01*
X393970Y345365D01*
X394017Y345443D01*
X394066Y345520D01*
X394067Y345529D01*
X394072Y345536D01*
X394099Y345700D01*
X394099Y353450D01*
X394098Y353458D01*
X394099Y353467D01*
X394078Y353555D01*
X394060Y353645D01*
X394055Y353652D01*
X394053Y353660D01*
X393999Y353733D01*
X393947Y353809D01*
X393940Y353813D01*
X393935Y353820D01*
X393857Y353867D01*
X393780Y353916D01*
X393771Y353917D01*
X393764Y353922D01*
X393600Y353949D01*
X392600Y353949D01*
X392592Y353948D01*
X392583Y353949D01*
X392495Y353928D01*
X392405Y353910D01*
X392398Y353905D01*
X392390Y353903D01*
X392317Y353849D01*
X392241Y353797D01*
X392237Y353790D01*
X392230Y353785D01*
X392183Y353707D01*
X392134Y353630D01*
X392133Y353621D01*
X392128Y353614D01*
X392101Y353450D01*
X392101Y345700D01*
X392102Y345692D01*
X392101Y345683D01*
X392122Y345595D01*
X392140Y345505D01*
X392145Y345498D01*
X392147Y345490D01*
X392201Y345417D01*
X392253Y345341D01*
X392260Y345337D01*
X392265Y345330D01*
X392343Y345283D01*
X392420Y345234D01*
X392429Y345233D01*
X392436Y345228D01*
X392600Y345201D01*
X393600Y345201D01*
X393608Y345202D01*
G37*
G36*
X405608Y345202D02*
X405608Y345202D01*
X405617Y345201D01*
X405705Y345222D01*
X405795Y345240D01*
X405802Y345245D01*
X405810Y345247D01*
X405883Y345301D01*
X405959Y345353D01*
X405963Y345360D01*
X405970Y345365D01*
X406017Y345443D01*
X406066Y345520D01*
X406067Y345529D01*
X406072Y345536D01*
X406099Y345700D01*
X406099Y353450D01*
X406098Y353458D01*
X406099Y353467D01*
X406078Y353555D01*
X406060Y353645D01*
X406055Y353652D01*
X406053Y353660D01*
X405999Y353733D01*
X405947Y353809D01*
X405940Y353813D01*
X405935Y353820D01*
X405857Y353867D01*
X405780Y353916D01*
X405771Y353917D01*
X405764Y353922D01*
X405600Y353949D01*
X404600Y353949D01*
X404592Y353948D01*
X404583Y353949D01*
X404495Y353928D01*
X404405Y353910D01*
X404398Y353905D01*
X404390Y353903D01*
X404317Y353849D01*
X404241Y353797D01*
X404237Y353790D01*
X404230Y353785D01*
X404183Y353707D01*
X404134Y353630D01*
X404133Y353621D01*
X404128Y353614D01*
X404101Y353450D01*
X404101Y345700D01*
X404102Y345692D01*
X404101Y345683D01*
X404122Y345595D01*
X404140Y345505D01*
X404145Y345498D01*
X404147Y345490D01*
X404201Y345417D01*
X404253Y345341D01*
X404260Y345337D01*
X404265Y345330D01*
X404343Y345283D01*
X404420Y345234D01*
X404429Y345233D01*
X404436Y345228D01*
X404600Y345201D01*
X405600Y345201D01*
X405608Y345202D01*
G37*
G36*
X381608Y345202D02*
X381608Y345202D01*
X381617Y345201D01*
X381705Y345222D01*
X381795Y345240D01*
X381802Y345245D01*
X381810Y345247D01*
X381883Y345301D01*
X381959Y345353D01*
X381963Y345360D01*
X381970Y345365D01*
X382017Y345443D01*
X382066Y345520D01*
X382067Y345529D01*
X382072Y345536D01*
X382099Y345700D01*
X382099Y353450D01*
X382098Y353458D01*
X382099Y353467D01*
X382078Y353555D01*
X382060Y353645D01*
X382055Y353652D01*
X382053Y353660D01*
X381999Y353733D01*
X381947Y353809D01*
X381940Y353813D01*
X381935Y353820D01*
X381857Y353867D01*
X381780Y353916D01*
X381771Y353917D01*
X381764Y353922D01*
X381600Y353949D01*
X380600Y353949D01*
X380592Y353948D01*
X380583Y353949D01*
X380495Y353928D01*
X380405Y353910D01*
X380398Y353905D01*
X380390Y353903D01*
X380317Y353849D01*
X380241Y353797D01*
X380237Y353790D01*
X380230Y353785D01*
X380183Y353707D01*
X380134Y353630D01*
X380133Y353621D01*
X380128Y353614D01*
X380101Y353450D01*
X380101Y345700D01*
X380102Y345692D01*
X380101Y345683D01*
X380122Y345595D01*
X380140Y345505D01*
X380145Y345498D01*
X380147Y345490D01*
X380201Y345417D01*
X380253Y345341D01*
X380260Y345337D01*
X380265Y345330D01*
X380343Y345283D01*
X380420Y345234D01*
X380429Y345233D01*
X380436Y345228D01*
X380600Y345201D01*
X381600Y345201D01*
X381608Y345202D01*
G37*
G36*
X373608Y345202D02*
X373608Y345202D01*
X373617Y345201D01*
X373705Y345222D01*
X373795Y345240D01*
X373802Y345245D01*
X373810Y345247D01*
X373883Y345301D01*
X373959Y345353D01*
X373963Y345360D01*
X373970Y345365D01*
X374017Y345443D01*
X374066Y345520D01*
X374067Y345529D01*
X374072Y345536D01*
X374099Y345700D01*
X374099Y353450D01*
X374098Y353458D01*
X374099Y353467D01*
X374078Y353555D01*
X374060Y353645D01*
X374055Y353652D01*
X374053Y353660D01*
X373999Y353733D01*
X373947Y353809D01*
X373940Y353813D01*
X373935Y353820D01*
X373857Y353867D01*
X373780Y353916D01*
X373771Y353917D01*
X373764Y353922D01*
X373600Y353949D01*
X372600Y353949D01*
X372592Y353948D01*
X372583Y353949D01*
X372495Y353928D01*
X372405Y353910D01*
X372398Y353905D01*
X372390Y353903D01*
X372317Y353849D01*
X372241Y353797D01*
X372237Y353790D01*
X372230Y353785D01*
X372183Y353707D01*
X372134Y353630D01*
X372133Y353621D01*
X372128Y353614D01*
X372101Y353450D01*
X372101Y345700D01*
X372102Y345692D01*
X372101Y345683D01*
X372122Y345595D01*
X372140Y345505D01*
X372145Y345498D01*
X372147Y345490D01*
X372201Y345417D01*
X372253Y345341D01*
X372260Y345337D01*
X372265Y345330D01*
X372343Y345283D01*
X372420Y345234D01*
X372429Y345233D01*
X372436Y345228D01*
X372600Y345201D01*
X373600Y345201D01*
X373608Y345202D01*
G37*
G36*
X361608Y345202D02*
X361608Y345202D01*
X361617Y345201D01*
X361705Y345222D01*
X361795Y345240D01*
X361802Y345245D01*
X361810Y345247D01*
X361883Y345301D01*
X361959Y345353D01*
X361963Y345360D01*
X361970Y345365D01*
X362017Y345443D01*
X362066Y345520D01*
X362067Y345529D01*
X362072Y345536D01*
X362099Y345700D01*
X362099Y353450D01*
X362098Y353458D01*
X362099Y353467D01*
X362078Y353555D01*
X362060Y353645D01*
X362055Y353652D01*
X362053Y353660D01*
X361999Y353733D01*
X361947Y353809D01*
X361940Y353813D01*
X361935Y353820D01*
X361857Y353867D01*
X361780Y353916D01*
X361771Y353917D01*
X361764Y353922D01*
X361600Y353949D01*
X360600Y353949D01*
X360592Y353948D01*
X360583Y353949D01*
X360495Y353928D01*
X360405Y353910D01*
X360398Y353905D01*
X360390Y353903D01*
X360317Y353849D01*
X360241Y353797D01*
X360237Y353790D01*
X360230Y353785D01*
X360183Y353707D01*
X360134Y353630D01*
X360133Y353621D01*
X360128Y353614D01*
X360101Y353450D01*
X360101Y345700D01*
X360102Y345692D01*
X360101Y345683D01*
X360122Y345595D01*
X360140Y345505D01*
X360145Y345498D01*
X360147Y345490D01*
X360201Y345417D01*
X360253Y345341D01*
X360260Y345337D01*
X360265Y345330D01*
X360343Y345283D01*
X360420Y345234D01*
X360429Y345233D01*
X360436Y345228D01*
X360600Y345201D01*
X361600Y345201D01*
X361608Y345202D01*
G37*
G36*
X401608Y276452D02*
X401608Y276452D01*
X401617Y276451D01*
X401705Y276472D01*
X401795Y276490D01*
X401802Y276495D01*
X401810Y276497D01*
X401883Y276551D01*
X401959Y276603D01*
X401963Y276610D01*
X401970Y276615D01*
X402017Y276693D01*
X402066Y276770D01*
X402067Y276779D01*
X402072Y276786D01*
X402099Y276950D01*
X402099Y284700D01*
X402098Y284708D01*
X402099Y284717D01*
X402078Y284805D01*
X402060Y284895D01*
X402055Y284902D01*
X402053Y284910D01*
X401999Y284983D01*
X401947Y285059D01*
X401940Y285063D01*
X401935Y285070D01*
X401857Y285117D01*
X401780Y285166D01*
X401771Y285167D01*
X401764Y285172D01*
X401600Y285199D01*
X400600Y285199D01*
X400592Y285198D01*
X400583Y285199D01*
X400495Y285178D01*
X400405Y285160D01*
X400398Y285155D01*
X400390Y285153D01*
X400317Y285099D01*
X400241Y285047D01*
X400237Y285040D01*
X400230Y285035D01*
X400183Y284957D01*
X400134Y284880D01*
X400133Y284871D01*
X400128Y284864D01*
X400101Y284700D01*
X400101Y276950D01*
X400102Y276942D01*
X400101Y276933D01*
X400122Y276845D01*
X400140Y276755D01*
X400145Y276748D01*
X400147Y276740D01*
X400201Y276667D01*
X400253Y276591D01*
X400260Y276587D01*
X400265Y276580D01*
X400343Y276533D01*
X400420Y276484D01*
X400429Y276483D01*
X400436Y276478D01*
X400600Y276451D01*
X401600Y276451D01*
X401608Y276452D01*
G37*
G36*
X413608Y276452D02*
X413608Y276452D01*
X413617Y276451D01*
X413705Y276472D01*
X413795Y276490D01*
X413802Y276495D01*
X413810Y276497D01*
X413883Y276551D01*
X413959Y276603D01*
X413963Y276610D01*
X413970Y276615D01*
X414017Y276693D01*
X414066Y276770D01*
X414067Y276779D01*
X414072Y276786D01*
X414099Y276950D01*
X414099Y284700D01*
X414098Y284708D01*
X414099Y284717D01*
X414078Y284805D01*
X414060Y284895D01*
X414055Y284902D01*
X414053Y284910D01*
X413999Y284983D01*
X413947Y285059D01*
X413940Y285063D01*
X413935Y285070D01*
X413857Y285117D01*
X413780Y285166D01*
X413771Y285167D01*
X413764Y285172D01*
X413600Y285199D01*
X412600Y285199D01*
X412592Y285198D01*
X412583Y285199D01*
X412495Y285178D01*
X412405Y285160D01*
X412398Y285155D01*
X412390Y285153D01*
X412317Y285099D01*
X412241Y285047D01*
X412237Y285040D01*
X412230Y285035D01*
X412183Y284957D01*
X412134Y284880D01*
X412133Y284871D01*
X412128Y284864D01*
X412101Y284700D01*
X412101Y276950D01*
X412102Y276942D01*
X412101Y276933D01*
X412122Y276845D01*
X412140Y276755D01*
X412145Y276748D01*
X412147Y276740D01*
X412201Y276667D01*
X412253Y276591D01*
X412260Y276587D01*
X412265Y276580D01*
X412343Y276533D01*
X412420Y276484D01*
X412429Y276483D01*
X412436Y276478D01*
X412600Y276451D01*
X413600Y276451D01*
X413608Y276452D01*
G37*
G36*
X365608Y276452D02*
X365608Y276452D01*
X365617Y276451D01*
X365705Y276472D01*
X365795Y276490D01*
X365802Y276495D01*
X365810Y276497D01*
X365883Y276551D01*
X365959Y276603D01*
X365963Y276610D01*
X365970Y276615D01*
X366017Y276693D01*
X366066Y276770D01*
X366067Y276779D01*
X366072Y276786D01*
X366099Y276950D01*
X366099Y284700D01*
X366098Y284708D01*
X366099Y284717D01*
X366078Y284805D01*
X366060Y284895D01*
X366055Y284902D01*
X366053Y284910D01*
X365999Y284983D01*
X365947Y285059D01*
X365940Y285063D01*
X365935Y285070D01*
X365857Y285117D01*
X365780Y285166D01*
X365771Y285167D01*
X365764Y285172D01*
X365600Y285199D01*
X364600Y285199D01*
X364592Y285198D01*
X364583Y285199D01*
X364495Y285178D01*
X364405Y285160D01*
X364398Y285155D01*
X364390Y285153D01*
X364317Y285099D01*
X364241Y285047D01*
X364237Y285040D01*
X364230Y285035D01*
X364183Y284957D01*
X364134Y284880D01*
X364133Y284871D01*
X364128Y284864D01*
X364101Y284700D01*
X364101Y276950D01*
X364102Y276942D01*
X364101Y276933D01*
X364122Y276845D01*
X364140Y276755D01*
X364145Y276748D01*
X364147Y276740D01*
X364201Y276667D01*
X364253Y276591D01*
X364260Y276587D01*
X364265Y276580D01*
X364343Y276533D01*
X364420Y276484D01*
X364429Y276483D01*
X364436Y276478D01*
X364600Y276451D01*
X365600Y276451D01*
X365608Y276452D01*
G37*
G36*
X389608Y276452D02*
X389608Y276452D01*
X389617Y276451D01*
X389705Y276472D01*
X389795Y276490D01*
X389802Y276495D01*
X389810Y276497D01*
X389883Y276551D01*
X389959Y276603D01*
X389963Y276610D01*
X389970Y276615D01*
X390017Y276693D01*
X390066Y276770D01*
X390067Y276779D01*
X390072Y276786D01*
X390099Y276950D01*
X390099Y284700D01*
X390098Y284708D01*
X390099Y284717D01*
X390078Y284805D01*
X390060Y284895D01*
X390055Y284902D01*
X390053Y284910D01*
X389999Y284983D01*
X389947Y285059D01*
X389940Y285063D01*
X389935Y285070D01*
X389857Y285117D01*
X389780Y285166D01*
X389771Y285167D01*
X389764Y285172D01*
X389600Y285199D01*
X388600Y285199D01*
X388592Y285198D01*
X388583Y285199D01*
X388495Y285178D01*
X388405Y285160D01*
X388398Y285155D01*
X388390Y285153D01*
X388317Y285099D01*
X388241Y285047D01*
X388237Y285040D01*
X388230Y285035D01*
X388183Y284957D01*
X388134Y284880D01*
X388133Y284871D01*
X388128Y284864D01*
X388101Y284700D01*
X388101Y276950D01*
X388102Y276942D01*
X388101Y276933D01*
X388122Y276845D01*
X388140Y276755D01*
X388145Y276748D01*
X388147Y276740D01*
X388201Y276667D01*
X388253Y276591D01*
X388260Y276587D01*
X388265Y276580D01*
X388343Y276533D01*
X388420Y276484D01*
X388429Y276483D01*
X388436Y276478D01*
X388600Y276451D01*
X389600Y276451D01*
X389608Y276452D01*
G37*
G36*
X405608Y276452D02*
X405608Y276452D01*
X405617Y276451D01*
X405705Y276472D01*
X405795Y276490D01*
X405802Y276495D01*
X405810Y276497D01*
X405883Y276551D01*
X405959Y276603D01*
X405963Y276610D01*
X405970Y276615D01*
X406017Y276693D01*
X406066Y276770D01*
X406067Y276779D01*
X406072Y276786D01*
X406099Y276950D01*
X406099Y284700D01*
X406098Y284708D01*
X406099Y284717D01*
X406078Y284805D01*
X406060Y284895D01*
X406055Y284902D01*
X406053Y284910D01*
X405999Y284983D01*
X405947Y285059D01*
X405940Y285063D01*
X405935Y285070D01*
X405857Y285117D01*
X405780Y285166D01*
X405771Y285167D01*
X405764Y285172D01*
X405600Y285199D01*
X404600Y285199D01*
X404592Y285198D01*
X404583Y285199D01*
X404495Y285178D01*
X404405Y285160D01*
X404398Y285155D01*
X404390Y285153D01*
X404317Y285099D01*
X404241Y285047D01*
X404237Y285040D01*
X404230Y285035D01*
X404183Y284957D01*
X404134Y284880D01*
X404133Y284871D01*
X404128Y284864D01*
X404101Y284700D01*
X404101Y276950D01*
X404102Y276942D01*
X404101Y276933D01*
X404122Y276845D01*
X404140Y276755D01*
X404145Y276748D01*
X404147Y276740D01*
X404201Y276667D01*
X404253Y276591D01*
X404260Y276587D01*
X404265Y276580D01*
X404343Y276533D01*
X404420Y276484D01*
X404429Y276483D01*
X404436Y276478D01*
X404600Y276451D01*
X405600Y276451D01*
X405608Y276452D01*
G37*
G36*
X381608Y276452D02*
X381608Y276452D01*
X381617Y276451D01*
X381705Y276472D01*
X381795Y276490D01*
X381802Y276495D01*
X381810Y276497D01*
X381883Y276551D01*
X381959Y276603D01*
X381963Y276610D01*
X381970Y276615D01*
X382017Y276693D01*
X382066Y276770D01*
X382067Y276779D01*
X382072Y276786D01*
X382099Y276950D01*
X382099Y284700D01*
X382098Y284708D01*
X382099Y284717D01*
X382078Y284805D01*
X382060Y284895D01*
X382055Y284902D01*
X382053Y284910D01*
X381999Y284983D01*
X381947Y285059D01*
X381940Y285063D01*
X381935Y285070D01*
X381857Y285117D01*
X381780Y285166D01*
X381771Y285167D01*
X381764Y285172D01*
X381600Y285199D01*
X380600Y285199D01*
X380592Y285198D01*
X380583Y285199D01*
X380495Y285178D01*
X380405Y285160D01*
X380398Y285155D01*
X380390Y285153D01*
X380317Y285099D01*
X380241Y285047D01*
X380237Y285040D01*
X380230Y285035D01*
X380183Y284957D01*
X380134Y284880D01*
X380133Y284871D01*
X380128Y284864D01*
X380101Y284700D01*
X380101Y276950D01*
X380102Y276942D01*
X380101Y276933D01*
X380122Y276845D01*
X380140Y276755D01*
X380145Y276748D01*
X380147Y276740D01*
X380201Y276667D01*
X380253Y276591D01*
X380260Y276587D01*
X380265Y276580D01*
X380343Y276533D01*
X380420Y276484D01*
X380429Y276483D01*
X380436Y276478D01*
X380600Y276451D01*
X381600Y276451D01*
X381608Y276452D01*
G37*
G36*
X409608Y276452D02*
X409608Y276452D01*
X409617Y276451D01*
X409705Y276472D01*
X409795Y276490D01*
X409802Y276495D01*
X409810Y276497D01*
X409883Y276551D01*
X409959Y276603D01*
X409963Y276610D01*
X409970Y276615D01*
X410017Y276693D01*
X410066Y276770D01*
X410067Y276779D01*
X410072Y276786D01*
X410099Y276950D01*
X410099Y284700D01*
X410098Y284708D01*
X410099Y284717D01*
X410078Y284805D01*
X410060Y284895D01*
X410055Y284902D01*
X410053Y284910D01*
X409999Y284983D01*
X409947Y285059D01*
X409940Y285063D01*
X409935Y285070D01*
X409857Y285117D01*
X409780Y285166D01*
X409771Y285167D01*
X409764Y285172D01*
X409600Y285199D01*
X408600Y285199D01*
X408592Y285198D01*
X408583Y285199D01*
X408495Y285178D01*
X408405Y285160D01*
X408398Y285155D01*
X408390Y285153D01*
X408317Y285099D01*
X408241Y285047D01*
X408237Y285040D01*
X408230Y285035D01*
X408183Y284957D01*
X408134Y284880D01*
X408133Y284871D01*
X408128Y284864D01*
X408101Y284700D01*
X408101Y276950D01*
X408102Y276942D01*
X408101Y276933D01*
X408122Y276845D01*
X408140Y276755D01*
X408145Y276748D01*
X408147Y276740D01*
X408201Y276667D01*
X408253Y276591D01*
X408260Y276587D01*
X408265Y276580D01*
X408343Y276533D01*
X408420Y276484D01*
X408429Y276483D01*
X408436Y276478D01*
X408600Y276451D01*
X409600Y276451D01*
X409608Y276452D01*
G37*
G36*
X377608Y276452D02*
X377608Y276452D01*
X377617Y276451D01*
X377705Y276472D01*
X377795Y276490D01*
X377802Y276495D01*
X377810Y276497D01*
X377883Y276551D01*
X377959Y276603D01*
X377963Y276610D01*
X377970Y276615D01*
X378017Y276693D01*
X378066Y276770D01*
X378067Y276779D01*
X378072Y276786D01*
X378099Y276950D01*
X378099Y284700D01*
X378098Y284708D01*
X378099Y284717D01*
X378078Y284805D01*
X378060Y284895D01*
X378055Y284902D01*
X378053Y284910D01*
X377999Y284983D01*
X377947Y285059D01*
X377940Y285063D01*
X377935Y285070D01*
X377857Y285117D01*
X377780Y285166D01*
X377771Y285167D01*
X377764Y285172D01*
X377600Y285199D01*
X376600Y285199D01*
X376592Y285198D01*
X376583Y285199D01*
X376495Y285178D01*
X376405Y285160D01*
X376398Y285155D01*
X376390Y285153D01*
X376317Y285099D01*
X376241Y285047D01*
X376237Y285040D01*
X376230Y285035D01*
X376183Y284957D01*
X376134Y284880D01*
X376133Y284871D01*
X376128Y284864D01*
X376101Y284700D01*
X376101Y276950D01*
X376102Y276942D01*
X376101Y276933D01*
X376122Y276845D01*
X376140Y276755D01*
X376145Y276748D01*
X376147Y276740D01*
X376201Y276667D01*
X376253Y276591D01*
X376260Y276587D01*
X376265Y276580D01*
X376343Y276533D01*
X376420Y276484D01*
X376429Y276483D01*
X376436Y276478D01*
X376600Y276451D01*
X377600Y276451D01*
X377608Y276452D01*
G37*
G36*
X373608Y276452D02*
X373608Y276452D01*
X373617Y276451D01*
X373705Y276472D01*
X373795Y276490D01*
X373802Y276495D01*
X373810Y276497D01*
X373883Y276551D01*
X373959Y276603D01*
X373963Y276610D01*
X373970Y276615D01*
X374017Y276693D01*
X374066Y276770D01*
X374067Y276779D01*
X374072Y276786D01*
X374099Y276950D01*
X374099Y284700D01*
X374098Y284708D01*
X374099Y284717D01*
X374078Y284805D01*
X374060Y284895D01*
X374055Y284902D01*
X374053Y284910D01*
X373999Y284983D01*
X373947Y285059D01*
X373940Y285063D01*
X373935Y285070D01*
X373857Y285117D01*
X373780Y285166D01*
X373771Y285167D01*
X373764Y285172D01*
X373600Y285199D01*
X372600Y285199D01*
X372592Y285198D01*
X372583Y285199D01*
X372495Y285178D01*
X372405Y285160D01*
X372398Y285155D01*
X372390Y285153D01*
X372317Y285099D01*
X372241Y285047D01*
X372237Y285040D01*
X372230Y285035D01*
X372183Y284957D01*
X372134Y284880D01*
X372133Y284871D01*
X372128Y284864D01*
X372101Y284700D01*
X372101Y276950D01*
X372102Y276942D01*
X372101Y276933D01*
X372122Y276845D01*
X372140Y276755D01*
X372145Y276748D01*
X372147Y276740D01*
X372201Y276667D01*
X372253Y276591D01*
X372260Y276587D01*
X372265Y276580D01*
X372343Y276533D01*
X372420Y276484D01*
X372429Y276483D01*
X372436Y276478D01*
X372600Y276451D01*
X373600Y276451D01*
X373608Y276452D01*
G37*
G36*
X397608Y276452D02*
X397608Y276452D01*
X397617Y276451D01*
X397705Y276472D01*
X397795Y276490D01*
X397802Y276495D01*
X397810Y276497D01*
X397883Y276551D01*
X397959Y276603D01*
X397963Y276610D01*
X397970Y276615D01*
X398017Y276693D01*
X398066Y276770D01*
X398067Y276779D01*
X398072Y276786D01*
X398099Y276950D01*
X398099Y284700D01*
X398098Y284708D01*
X398099Y284717D01*
X398078Y284805D01*
X398060Y284895D01*
X398055Y284902D01*
X398053Y284910D01*
X397999Y284983D01*
X397947Y285059D01*
X397940Y285063D01*
X397935Y285070D01*
X397857Y285117D01*
X397780Y285166D01*
X397771Y285167D01*
X397764Y285172D01*
X397600Y285199D01*
X396600Y285199D01*
X396592Y285198D01*
X396583Y285199D01*
X396495Y285178D01*
X396405Y285160D01*
X396398Y285155D01*
X396390Y285153D01*
X396317Y285099D01*
X396241Y285047D01*
X396237Y285040D01*
X396230Y285035D01*
X396183Y284957D01*
X396134Y284880D01*
X396133Y284871D01*
X396128Y284864D01*
X396101Y284700D01*
X396101Y276950D01*
X396102Y276942D01*
X396101Y276933D01*
X396122Y276845D01*
X396140Y276755D01*
X396145Y276748D01*
X396147Y276740D01*
X396201Y276667D01*
X396253Y276591D01*
X396260Y276587D01*
X396265Y276580D01*
X396343Y276533D01*
X396420Y276484D01*
X396429Y276483D01*
X396436Y276478D01*
X396600Y276451D01*
X397600Y276451D01*
X397608Y276452D01*
G37*
G36*
X369608Y276452D02*
X369608Y276452D01*
X369617Y276451D01*
X369705Y276472D01*
X369795Y276490D01*
X369802Y276495D01*
X369810Y276497D01*
X369883Y276551D01*
X369959Y276603D01*
X369963Y276610D01*
X369970Y276615D01*
X370017Y276693D01*
X370066Y276770D01*
X370067Y276779D01*
X370072Y276786D01*
X370099Y276950D01*
X370099Y284700D01*
X370098Y284708D01*
X370099Y284717D01*
X370078Y284805D01*
X370060Y284895D01*
X370055Y284902D01*
X370053Y284910D01*
X369999Y284983D01*
X369947Y285059D01*
X369940Y285063D01*
X369935Y285070D01*
X369857Y285117D01*
X369780Y285166D01*
X369771Y285167D01*
X369764Y285172D01*
X369600Y285199D01*
X368600Y285199D01*
X368592Y285198D01*
X368583Y285199D01*
X368495Y285178D01*
X368405Y285160D01*
X368398Y285155D01*
X368390Y285153D01*
X368317Y285099D01*
X368241Y285047D01*
X368237Y285040D01*
X368230Y285035D01*
X368183Y284957D01*
X368134Y284880D01*
X368133Y284871D01*
X368128Y284864D01*
X368101Y284700D01*
X368101Y276950D01*
X368102Y276942D01*
X368101Y276933D01*
X368122Y276845D01*
X368140Y276755D01*
X368145Y276748D01*
X368147Y276740D01*
X368201Y276667D01*
X368253Y276591D01*
X368260Y276587D01*
X368265Y276580D01*
X368343Y276533D01*
X368420Y276484D01*
X368429Y276483D01*
X368436Y276478D01*
X368600Y276451D01*
X369600Y276451D01*
X369608Y276452D01*
G37*
G36*
X385608Y276452D02*
X385608Y276452D01*
X385617Y276451D01*
X385705Y276472D01*
X385795Y276490D01*
X385802Y276495D01*
X385810Y276497D01*
X385883Y276551D01*
X385959Y276603D01*
X385963Y276610D01*
X385970Y276615D01*
X386017Y276693D01*
X386066Y276770D01*
X386067Y276779D01*
X386072Y276786D01*
X386099Y276950D01*
X386099Y284700D01*
X386098Y284708D01*
X386099Y284717D01*
X386078Y284805D01*
X386060Y284895D01*
X386055Y284902D01*
X386053Y284910D01*
X385999Y284983D01*
X385947Y285059D01*
X385940Y285063D01*
X385935Y285070D01*
X385857Y285117D01*
X385780Y285166D01*
X385771Y285167D01*
X385764Y285172D01*
X385600Y285199D01*
X384600Y285199D01*
X384592Y285198D01*
X384583Y285199D01*
X384495Y285178D01*
X384405Y285160D01*
X384398Y285155D01*
X384390Y285153D01*
X384317Y285099D01*
X384241Y285047D01*
X384237Y285040D01*
X384230Y285035D01*
X384183Y284957D01*
X384134Y284880D01*
X384133Y284871D01*
X384128Y284864D01*
X384101Y284700D01*
X384101Y276950D01*
X384102Y276942D01*
X384101Y276933D01*
X384122Y276845D01*
X384140Y276755D01*
X384145Y276748D01*
X384147Y276740D01*
X384201Y276667D01*
X384253Y276591D01*
X384260Y276587D01*
X384265Y276580D01*
X384343Y276533D01*
X384420Y276484D01*
X384429Y276483D01*
X384436Y276478D01*
X384600Y276451D01*
X385600Y276451D01*
X385608Y276452D01*
G37*
G36*
X361608Y276452D02*
X361608Y276452D01*
X361617Y276451D01*
X361705Y276472D01*
X361795Y276490D01*
X361802Y276495D01*
X361810Y276497D01*
X361883Y276551D01*
X361959Y276603D01*
X361963Y276610D01*
X361970Y276615D01*
X362017Y276693D01*
X362066Y276770D01*
X362067Y276779D01*
X362072Y276786D01*
X362099Y276950D01*
X362099Y284700D01*
X362098Y284708D01*
X362099Y284717D01*
X362078Y284805D01*
X362060Y284895D01*
X362055Y284902D01*
X362053Y284910D01*
X361999Y284983D01*
X361947Y285059D01*
X361940Y285063D01*
X361935Y285070D01*
X361857Y285117D01*
X361780Y285166D01*
X361771Y285167D01*
X361764Y285172D01*
X361600Y285199D01*
X360600Y285199D01*
X360592Y285198D01*
X360583Y285199D01*
X360495Y285178D01*
X360405Y285160D01*
X360398Y285155D01*
X360390Y285153D01*
X360317Y285099D01*
X360241Y285047D01*
X360237Y285040D01*
X360230Y285035D01*
X360183Y284957D01*
X360134Y284880D01*
X360133Y284871D01*
X360128Y284864D01*
X360101Y284700D01*
X360101Y276950D01*
X360102Y276942D01*
X360101Y276933D01*
X360122Y276845D01*
X360140Y276755D01*
X360145Y276748D01*
X360147Y276740D01*
X360201Y276667D01*
X360253Y276591D01*
X360260Y276587D01*
X360265Y276580D01*
X360343Y276533D01*
X360420Y276484D01*
X360429Y276483D01*
X360436Y276478D01*
X360600Y276451D01*
X361600Y276451D01*
X361608Y276452D01*
G37*
G36*
X393608Y276452D02*
X393608Y276452D01*
X393617Y276451D01*
X393705Y276472D01*
X393795Y276490D01*
X393802Y276495D01*
X393810Y276497D01*
X393883Y276551D01*
X393959Y276603D01*
X393963Y276610D01*
X393970Y276615D01*
X394017Y276693D01*
X394066Y276770D01*
X394067Y276779D01*
X394072Y276786D01*
X394099Y276950D01*
X394099Y284700D01*
X394098Y284708D01*
X394099Y284717D01*
X394078Y284805D01*
X394060Y284895D01*
X394055Y284902D01*
X394053Y284910D01*
X393999Y284983D01*
X393947Y285059D01*
X393940Y285063D01*
X393935Y285070D01*
X393857Y285117D01*
X393780Y285166D01*
X393771Y285167D01*
X393764Y285172D01*
X393600Y285199D01*
X392600Y285199D01*
X392592Y285198D01*
X392583Y285199D01*
X392495Y285178D01*
X392405Y285160D01*
X392398Y285155D01*
X392390Y285153D01*
X392317Y285099D01*
X392241Y285047D01*
X392237Y285040D01*
X392230Y285035D01*
X392183Y284957D01*
X392134Y284880D01*
X392133Y284871D01*
X392128Y284864D01*
X392101Y284700D01*
X392101Y276950D01*
X392102Y276942D01*
X392101Y276933D01*
X392122Y276845D01*
X392140Y276755D01*
X392145Y276748D01*
X392147Y276740D01*
X392201Y276667D01*
X392253Y276591D01*
X392260Y276587D01*
X392265Y276580D01*
X392343Y276533D01*
X392420Y276484D01*
X392429Y276483D01*
X392436Y276478D01*
X392600Y276451D01*
X393600Y276451D01*
X393608Y276452D01*
G37*
D10*
X402800Y176520D03*
X397800Y176520D03*
X392800Y176520D03*
X387800Y176520D03*
X387800Y171400D03*
X387800Y166400D03*
X387800Y161280D03*
X392800Y161280D03*
X397800Y161280D03*
X402800Y161280D03*
X402800Y166400D03*
X402800Y171400D03*
D11*
X238800Y486500D03*
X238800Y432500D03*
D12*
X164600Y409900D03*
X164600Y479900D03*
X94600Y479900D03*
X94600Y409900D03*
D13*
X586300Y339050D03*
X586300Y354550D03*
D14*
X451450Y332100D03*
X435950Y332100D03*
D13*
X88900Y243150D03*
X88900Y227650D03*
X375300Y250950D03*
X375300Y266450D03*
X454100Y159550D03*
X454100Y175050D03*
X223900Y240550D03*
X223900Y225050D03*
D14*
X240350Y210900D03*
X255850Y210900D03*
D13*
X224100Y271250D03*
X224100Y286750D03*
X280100Y271150D03*
X280100Y286650D03*
D14*
X634950Y451100D03*
X619450Y451100D03*
X618950Y465900D03*
X634450Y465900D03*
D13*
X406300Y223850D03*
X406300Y239350D03*
X469100Y159750D03*
X469100Y175250D03*
X236100Y139650D03*
X236100Y155150D03*
X511100Y102550D03*
X511100Y118050D03*
D14*
X636450Y107900D03*
X651950Y107900D03*
X700750Y138100D03*
X685250Y138100D03*
X685150Y107900D03*
X700650Y107900D03*
D13*
X521900Y429150D03*
X521900Y413650D03*
X681100Y224050D03*
X681100Y239550D03*
D14*
X437350Y367000D03*
X421850Y367000D03*
D13*
X467000Y349450D03*
X467000Y333950D03*
D14*
X451250Y347100D03*
X435750Y347100D03*
D15*
X325750Y210300D03*
X341250Y210300D03*
X266350Y355700D03*
X250850Y355700D03*
X254750Y392700D03*
X239250Y392700D03*
X357850Y177700D03*
X342350Y177700D03*
X488050Y489300D03*
X503550Y489300D03*
X267050Y339700D03*
X251550Y339700D03*
X358150Y190700D03*
X342650Y190700D03*
D16*
X40000Y87500D03*
D17*
X40000Y62500D03*
X40000Y37500D03*
D16*
X40000Y212500D03*
D17*
X40000Y187500D03*
X40000Y162500D03*
D16*
X40000Y337500D03*
D17*
X40000Y312500D03*
X40000Y287500D03*
D16*
X40000Y462500D03*
D17*
X40000Y437500D03*
X40000Y412500D03*
D18*
X529600Y184900D03*
X529600Y173900D03*
X529600Y162900D03*
X529600Y151900D03*
X529600Y140900D03*
X529600Y129900D03*
X529600Y118900D03*
X529600Y107900D03*
X529600Y96900D03*
X619600Y96900D03*
X619600Y107900D03*
X619600Y118900D03*
X619600Y129900D03*
X619600Y140900D03*
X619600Y151900D03*
X619600Y162900D03*
X619600Y173900D03*
X619600Y184900D03*
D19*
X436450Y188700D03*
X429950Y188700D03*
X423450Y188700D03*
X442950Y188700D03*
X429950Y172700D03*
X436450Y172700D03*
X442950Y172700D03*
X423450Y172700D03*
D20*
X726700Y459200D03*
X701300Y459200D03*
X675900Y459200D03*
X650500Y459200D03*
X650500Y291600D03*
X675900Y291600D03*
X701300Y291600D03*
X726700Y291600D03*
D21*
X729900Y107800D03*
X729900Y80800D03*
X729900Y134800D03*
D22*
X292200Y116600D03*
D23*
X292200Y44600D03*
D14*
X685350Y123300D03*
X700850Y123300D03*
D15*
X257450Y370700D03*
X241950Y370700D03*
D13*
X274900Y393750D03*
X274900Y378250D03*
X275000Y420850D03*
X275000Y405350D03*
D14*
X532750Y334800D03*
X517250Y334800D03*
X616850Y414800D03*
X601350Y414800D03*
D13*
X300000Y224150D03*
X300000Y239650D03*
X486800Y334050D03*
X486800Y349550D03*
X502200Y349050D03*
X502200Y333550D03*
X498200Y443150D03*
X498200Y427650D03*
X484200Y443250D03*
X484200Y427750D03*
X461200Y443350D03*
X461200Y427850D03*
D14*
X283150Y211000D03*
X267650Y211000D03*
X238450Y355000D03*
X222950Y355000D03*
D13*
X225000Y386050D03*
X225000Y401550D03*
D14*
X313550Y178000D03*
X329050Y178000D03*
D13*
X394000Y368950D03*
X394000Y384450D03*
D14*
X531450Y488900D03*
X515950Y488900D03*
X237750Y110900D03*
X222250Y110900D03*
X237850Y125900D03*
X222350Y125900D03*
X589950Y414900D03*
X574450Y414900D03*
D13*
X409000Y367850D03*
X409000Y383350D03*
D14*
X559050Y334900D03*
X543550Y334900D03*
D24*
X395200Y399700D03*
X421200Y399700D03*
D14*
X254350Y406900D03*
X238850Y406900D03*
D13*
X390000Y250750D03*
X390000Y266250D03*
D14*
X86550Y143100D03*
X102050Y143100D03*
X113450Y143100D03*
X128950Y143100D03*
X86350Y128100D03*
X101850Y128100D03*
X113250Y128100D03*
X128750Y128100D03*
X183850Y142900D03*
X168350Y142900D03*
X237950Y339900D03*
X222450Y339900D03*
X329050Y192900D03*
X313550Y192900D03*
D13*
X327000Y457350D03*
X327000Y441850D03*
D14*
X156150Y142900D03*
X140650Y142900D03*
X184250Y127900D03*
X168750Y127900D03*
X156350Y127900D03*
X140850Y127900D03*
X87450Y210100D03*
X102950Y210100D03*
X114350Y210100D03*
X129850Y210100D03*
X87250Y195100D03*
X102750Y195100D03*
X114150Y195100D03*
X129650Y195100D03*
D13*
X312000Y457450D03*
X312000Y441950D03*
D14*
X183050Y209900D03*
X167550Y209900D03*
D13*
X195100Y452150D03*
X195100Y436650D03*
D14*
X337250Y239900D03*
X321750Y239900D03*
X156350Y209900D03*
X140850Y209900D03*
X86550Y276100D03*
X102050Y276100D03*
X113450Y276100D03*
X128950Y276100D03*
X86850Y261200D03*
X102350Y261200D03*
X113750Y261200D03*
X129250Y261200D03*
X182350Y275800D03*
X166850Y275800D03*
X187450Y477000D03*
X202950Y477000D03*
X337450Y270800D03*
X321950Y270800D03*
D13*
X511200Y154550D03*
X511200Y139050D03*
X511800Y186350D03*
X511800Y201850D03*
D14*
X155750Y275800D03*
X140250Y275800D03*
X87150Y342200D03*
X102650Y342200D03*
X114050Y342200D03*
X129550Y342200D03*
X85950Y327200D03*
X101450Y327200D03*
X439650Y200000D03*
X424150Y200000D03*
X113850Y327200D03*
X129350Y327200D03*
X183250Y341800D03*
X167750Y341800D03*
X156350Y341800D03*
X140850Y341800D03*
D13*
X665800Y224550D03*
X665800Y240050D03*
X650800Y224450D03*
X650800Y239950D03*
D25*
X399862Y302438D02*
X374338Y302438D01*
X374338Y327962D01*
X399862Y327962D01*
X399862Y302438D01*
X399862Y310521D02*
X374338Y310521D01*
X374338Y318604D02*
X399862Y318604D01*
X399862Y326687D02*
X374338Y326687D01*
D26*
X674275Y108200D03*
X662525Y111075D03*
X662525Y105325D03*
D27*
X668400Y104325D03*
X668400Y112075D03*
D28*
X239500Y257425D03*
D29*
X238875Y249300D03*
X238875Y244300D03*
X238875Y239300D03*
X238875Y234300D03*
D28*
X239500Y226175D03*
X244500Y226175D03*
X249500Y226175D03*
X254500Y226175D03*
X259500Y226175D03*
X264500Y226175D03*
X269500Y226175D03*
X274500Y226175D03*
X279500Y226175D03*
X284500Y226175D03*
D29*
X285125Y234300D03*
X285125Y239300D03*
X285125Y244300D03*
X285125Y249300D03*
D28*
X284500Y257425D03*
X279500Y257425D03*
X274500Y257425D03*
X269500Y257425D03*
X264500Y257425D03*
X259500Y257425D03*
X254500Y257425D03*
X249500Y257425D03*
X244500Y257425D03*
D30*
X194640Y423344D03*
X194640Y405056D03*
X214960Y414200D03*
D31*
X459227Y361277D02*
X461173Y361277D01*
X459227Y361277D02*
X459227Y370323D01*
X461173Y370323D01*
X461173Y361277D01*
X461173Y363830D02*
X459227Y363830D01*
X459227Y366383D02*
X461173Y366383D01*
X461173Y368936D02*
X459227Y368936D01*
X464227Y361277D02*
X466173Y361277D01*
X464227Y361277D02*
X464227Y370323D01*
X466173Y370323D01*
X466173Y361277D01*
X466173Y363830D02*
X464227Y363830D01*
X464227Y366383D02*
X466173Y366383D01*
X466173Y368936D02*
X464227Y368936D01*
X469227Y361277D02*
X471173Y361277D01*
X469227Y361277D02*
X469227Y370323D01*
X471173Y370323D01*
X471173Y361277D01*
X471173Y363830D02*
X469227Y363830D01*
X469227Y366383D02*
X471173Y366383D01*
X471173Y368936D02*
X469227Y368936D01*
X474227Y361277D02*
X476173Y361277D01*
X474227Y361277D02*
X474227Y370323D01*
X476173Y370323D01*
X476173Y361277D01*
X476173Y363830D02*
X474227Y363830D01*
X474227Y366383D02*
X476173Y366383D01*
X476173Y368936D02*
X474227Y368936D01*
X479227Y361277D02*
X481173Y361277D01*
X479227Y361277D02*
X479227Y370323D01*
X481173Y370323D01*
X481173Y361277D01*
X481173Y363830D02*
X479227Y363830D01*
X479227Y366383D02*
X481173Y366383D01*
X481173Y368936D02*
X479227Y368936D01*
X484227Y361277D02*
X486173Y361277D01*
X484227Y361277D02*
X484227Y370323D01*
X486173Y370323D01*
X486173Y361277D01*
X486173Y363830D02*
X484227Y363830D01*
X484227Y366383D02*
X486173Y366383D01*
X486173Y368936D02*
X484227Y368936D01*
X489227Y361277D02*
X491173Y361277D01*
X489227Y361277D02*
X489227Y370323D01*
X491173Y370323D01*
X491173Y361277D01*
X491173Y363830D02*
X489227Y363830D01*
X489227Y366383D02*
X491173Y366383D01*
X491173Y368936D02*
X489227Y368936D01*
X489227Y408677D02*
X491173Y408677D01*
X489227Y408677D02*
X489227Y417723D01*
X491173Y417723D01*
X491173Y408677D01*
X491173Y411230D02*
X489227Y411230D01*
X489227Y413783D02*
X491173Y413783D01*
X491173Y416336D02*
X489227Y416336D01*
X486173Y408677D02*
X484227Y408677D01*
X484227Y417723D01*
X486173Y417723D01*
X486173Y408677D01*
X486173Y411230D02*
X484227Y411230D01*
X484227Y413783D02*
X486173Y413783D01*
X486173Y416336D02*
X484227Y416336D01*
X481173Y408677D02*
X479227Y408677D01*
X479227Y417723D01*
X481173Y417723D01*
X481173Y408677D01*
X481173Y411230D02*
X479227Y411230D01*
X479227Y413783D02*
X481173Y413783D01*
X481173Y416336D02*
X479227Y416336D01*
X476173Y408677D02*
X474227Y408677D01*
X474227Y417723D01*
X476173Y417723D01*
X476173Y408677D01*
X476173Y411230D02*
X474227Y411230D01*
X474227Y413783D02*
X476173Y413783D01*
X476173Y416336D02*
X474227Y416336D01*
X471173Y408677D02*
X469227Y408677D01*
X469227Y417723D01*
X471173Y417723D01*
X471173Y408677D01*
X471173Y411230D02*
X469227Y411230D01*
X469227Y413783D02*
X471173Y413783D01*
X471173Y416336D02*
X469227Y416336D01*
X466173Y408677D02*
X464227Y408677D01*
X464227Y417723D01*
X466173Y417723D01*
X466173Y408677D01*
X466173Y411230D02*
X464227Y411230D01*
X464227Y413783D02*
X466173Y413783D01*
X466173Y416336D02*
X464227Y416336D01*
X461173Y408677D02*
X459227Y408677D01*
X459227Y417723D01*
X461173Y417723D01*
X461173Y408677D01*
X461173Y411230D02*
X459227Y411230D01*
X459227Y413783D02*
X461173Y413783D01*
X461173Y416336D02*
X459227Y416336D01*
X456023Y403527D02*
X446977Y403527D01*
X446977Y405473D01*
X456023Y405473D01*
X456023Y403527D01*
X456023Y398527D02*
X446977Y398527D01*
X446977Y400473D01*
X456023Y400473D01*
X456023Y398527D01*
X456023Y393527D02*
X446977Y393527D01*
X446977Y395473D01*
X456023Y395473D01*
X456023Y393527D01*
X456023Y388527D02*
X446977Y388527D01*
X446977Y390473D01*
X456023Y390473D01*
X456023Y388527D01*
X456023Y383527D02*
X446977Y383527D01*
X446977Y385473D01*
X456023Y385473D01*
X456023Y383527D01*
X456023Y378527D02*
X446977Y378527D01*
X446977Y380473D01*
X456023Y380473D01*
X456023Y378527D01*
X456023Y373527D02*
X446977Y373527D01*
X446977Y375473D01*
X456023Y375473D01*
X456023Y373527D01*
X494377Y373527D02*
X503423Y373527D01*
X494377Y373527D02*
X494377Y375473D01*
X503423Y375473D01*
X503423Y373527D01*
X503423Y378527D02*
X494377Y378527D01*
X494377Y380473D01*
X503423Y380473D01*
X503423Y378527D01*
X503423Y383527D02*
X494377Y383527D01*
X494377Y385473D01*
X503423Y385473D01*
X503423Y383527D01*
X503423Y388527D02*
X494377Y388527D01*
X494377Y390473D01*
X503423Y390473D01*
X503423Y388527D01*
X503423Y393527D02*
X494377Y393527D01*
X494377Y395473D01*
X503423Y395473D01*
X503423Y393527D01*
X503423Y398527D02*
X494377Y398527D01*
X494377Y400473D01*
X503423Y400473D01*
X503423Y398527D01*
X503423Y403527D02*
X494377Y403527D01*
X494377Y405473D01*
X503423Y405473D01*
X503423Y403527D01*
D32*
X475200Y389500D03*
D33*
X120489Y310761D02*
X106511Y310761D01*
X106511Y312839D01*
X120489Y312839D01*
X120489Y310761D01*
X120489Y305761D02*
X106511Y305761D01*
X106511Y307839D01*
X120489Y307839D01*
X120489Y305761D01*
X120489Y300761D02*
X106511Y300761D01*
X106511Y302839D01*
X120489Y302839D01*
X120489Y300761D01*
X120489Y295761D02*
X106511Y295761D01*
X106511Y297839D01*
X120489Y297839D01*
X120489Y295761D01*
X120489Y290761D02*
X106511Y290761D01*
X106511Y292839D01*
X120489Y292839D01*
X120489Y290761D01*
X149511Y290761D02*
X163489Y290761D01*
X149511Y290761D02*
X149511Y292839D01*
X163489Y292839D01*
X163489Y290761D01*
X163489Y295761D02*
X149511Y295761D01*
X149511Y297839D01*
X163489Y297839D01*
X163489Y295761D01*
X163489Y300761D02*
X149511Y300761D01*
X149511Y302839D01*
X163489Y302839D01*
X163489Y300761D01*
X163489Y305761D02*
X149511Y305761D01*
X149511Y307839D01*
X163489Y307839D01*
X163489Y305761D01*
X163489Y310761D02*
X149511Y310761D01*
X149511Y312839D01*
X163489Y312839D01*
X163489Y310761D01*
X120489Y376761D02*
X106511Y376761D01*
X106511Y378839D01*
X120489Y378839D01*
X120489Y376761D01*
X120489Y371761D02*
X106511Y371761D01*
X106511Y373839D01*
X120489Y373839D01*
X120489Y371761D01*
X120489Y366761D02*
X106511Y366761D01*
X106511Y368839D01*
X120489Y368839D01*
X120489Y366761D01*
X120489Y361761D02*
X106511Y361761D01*
X106511Y363839D01*
X120489Y363839D01*
X120489Y361761D01*
X120489Y356761D02*
X106511Y356761D01*
X106511Y358839D01*
X120489Y358839D01*
X120489Y356761D01*
X149511Y356761D02*
X163489Y356761D01*
X149511Y356761D02*
X149511Y358839D01*
X163489Y358839D01*
X163489Y356761D01*
X163489Y361761D02*
X149511Y361761D01*
X149511Y363839D01*
X163489Y363839D01*
X163489Y361761D01*
X163489Y366761D02*
X149511Y366761D01*
X149511Y368839D01*
X163489Y368839D01*
X163489Y366761D01*
X163489Y371761D02*
X149511Y371761D01*
X149511Y373839D01*
X163489Y373839D01*
X163489Y371761D01*
X163489Y376761D02*
X149511Y376761D01*
X149511Y378839D01*
X163489Y378839D01*
X163489Y376761D01*
D34*
X525686Y352196D03*
X548800Y352196D03*
X571914Y352196D03*
D35*
X548800Y416204D03*
D33*
X120489Y178761D02*
X106511Y178761D01*
X106511Y180839D01*
X120489Y180839D01*
X120489Y178761D01*
X120489Y173761D02*
X106511Y173761D01*
X106511Y175839D01*
X120489Y175839D01*
X120489Y173761D01*
X120489Y168761D02*
X106511Y168761D01*
X106511Y170839D01*
X120489Y170839D01*
X120489Y168761D01*
X120489Y163761D02*
X106511Y163761D01*
X106511Y165839D01*
X120489Y165839D01*
X120489Y163761D01*
X120489Y158761D02*
X106511Y158761D01*
X106511Y160839D01*
X120489Y160839D01*
X120489Y158761D01*
X149511Y158761D02*
X163489Y158761D01*
X149511Y158761D02*
X149511Y160839D01*
X163489Y160839D01*
X163489Y158761D01*
X163489Y163761D02*
X149511Y163761D01*
X149511Y165839D01*
X163489Y165839D01*
X163489Y163761D01*
X163489Y168761D02*
X149511Y168761D01*
X149511Y170839D01*
X163489Y170839D01*
X163489Y168761D01*
X163489Y173761D02*
X149511Y173761D01*
X149511Y175839D01*
X163489Y175839D01*
X163489Y173761D01*
X163489Y178761D02*
X149511Y178761D01*
X149511Y180839D01*
X163489Y180839D01*
X163489Y178761D01*
D36*
X228343Y28564D03*
X228343Y45582D03*
X228343Y62600D03*
X228343Y79618D03*
X228343Y96636D03*
D37*
X112646Y62600D03*
D33*
X106511Y244761D02*
X120489Y244761D01*
X106511Y244761D02*
X106511Y246839D01*
X120489Y246839D01*
X120489Y244761D01*
X120489Y239761D02*
X106511Y239761D01*
X106511Y241839D01*
X120489Y241839D01*
X120489Y239761D01*
X120489Y234761D02*
X106511Y234761D01*
X106511Y236839D01*
X120489Y236839D01*
X120489Y234761D01*
X120489Y229761D02*
X106511Y229761D01*
X106511Y231839D01*
X120489Y231839D01*
X120489Y229761D01*
X120489Y224761D02*
X106511Y224761D01*
X106511Y226839D01*
X120489Y226839D01*
X120489Y224761D01*
X149511Y224761D02*
X163489Y224761D01*
X149511Y224761D02*
X149511Y226839D01*
X163489Y226839D01*
X163489Y224761D01*
X163489Y229761D02*
X149511Y229761D01*
X149511Y231839D01*
X163489Y231839D01*
X163489Y229761D01*
X163489Y234761D02*
X149511Y234761D01*
X149511Y236839D01*
X163489Y236839D01*
X163489Y234761D01*
X163489Y239761D02*
X149511Y239761D01*
X149511Y241839D01*
X163489Y241839D01*
X163489Y239761D01*
X163489Y244761D02*
X149511Y244761D01*
X149511Y246839D01*
X163489Y246839D01*
X163489Y244761D01*
D38*
X685700Y41040D02*
X685700Y25960D01*
X660300Y25960D02*
X660300Y41040D01*
X634900Y41040D02*
X634900Y25960D01*
X609500Y25960D02*
X609500Y41040D01*
X584100Y41040D02*
X584100Y25960D01*
X558700Y25960D02*
X558700Y41040D01*
X533300Y41040D02*
X533300Y25960D01*
X507900Y25960D02*
X507900Y41040D01*
X482500Y41040D02*
X482500Y25960D01*
X457100Y25960D02*
X457100Y41040D01*
X431700Y41040D02*
X431700Y25960D01*
X406300Y25960D02*
X406300Y41040D01*
D39*
X415400Y438750D03*
X407400Y438750D03*
D40*
X400900Y438750D03*
X395900Y438750D03*
X390900Y438750D03*
X385900Y438750D03*
X380900Y438750D03*
X375900Y438750D03*
X370900Y438750D03*
X365900Y438750D03*
D39*
X359400Y438750D03*
X351400Y438750D03*
D41*
X426600Y480760D02*
X426600Y491840D01*
X340200Y491840D02*
X340200Y480760D01*
X340200Y450040D02*
X340200Y438960D01*
X426600Y438960D02*
X426600Y450040D01*
D42*
X354500Y449500D03*
X412300Y449500D03*
D43*
X737700Y265400D03*
D44*
X717700Y265400D03*
X697700Y265400D03*
X677700Y265400D03*
X657700Y265400D03*
X637700Y265400D03*
X617700Y265400D03*
X597700Y265400D03*
X577700Y265400D03*
X557700Y265400D03*
X557700Y485400D03*
X577700Y485400D03*
X597700Y485400D03*
X617700Y485400D03*
X637700Y485400D03*
X657700Y485400D03*
X677700Y485400D03*
X697700Y485400D03*
X717700Y485400D03*
X737700Y485400D03*
D45*
X392900Y239850D03*
X371900Y239850D03*
X371900Y223350D03*
X392900Y223350D03*
D46*
X239500Y277800D03*
X264500Y277800D03*
D16*
X725000Y224000D03*
D17*
X725000Y199000D03*
X725000Y174000D03*
D47*
X474000Y121500D03*
D48*
X474000Y96500D03*
D47*
X407000Y121500D03*
D48*
X407000Y96500D03*
D49*
X465500Y297500D03*
X465500Y288000D03*
X465500Y278500D03*
X490500Y278500D03*
X490500Y297500D03*
D14*
X519750Y298000D03*
X504250Y298000D03*
D13*
X486000Y250250D03*
X486000Y265750D03*
X471000Y250250D03*
X471000Y265750D03*
D14*
X440750Y161000D03*
X425250Y161000D03*
D50*
X301293Y406857D02*
X286607Y406857D01*
X286607Y411243D01*
X301293Y411243D01*
X301293Y406857D01*
X301293Y410131D02*
X286607Y410131D01*
X286607Y394157D02*
X301293Y394157D01*
X286607Y394157D02*
X286607Y398543D01*
X301293Y398543D01*
X301293Y394157D01*
X301293Y397431D02*
X286607Y397431D01*
X286607Y381457D02*
X301293Y381457D01*
X286607Y381457D02*
X286607Y385843D01*
X301293Y385843D01*
X301293Y381457D01*
X301293Y384731D02*
X286607Y384731D01*
X286607Y368757D02*
X301293Y368757D01*
X286607Y368757D02*
X286607Y373143D01*
X301293Y373143D01*
X301293Y368757D01*
X301293Y372031D02*
X286607Y372031D01*
X358707Y368757D02*
X373393Y368757D01*
X358707Y368757D02*
X358707Y373143D01*
X373393Y373143D01*
X373393Y368757D01*
X373393Y372031D02*
X358707Y372031D01*
X358707Y381457D02*
X373393Y381457D01*
X358707Y381457D02*
X358707Y385843D01*
X373393Y385843D01*
X373393Y381457D01*
X373393Y384731D02*
X358707Y384731D01*
X358707Y394157D02*
X373393Y394157D01*
X358707Y394157D02*
X358707Y398543D01*
X373393Y398543D01*
X373393Y394157D01*
X373393Y397431D02*
X358707Y397431D01*
X358707Y406857D02*
X373393Y406857D01*
X358707Y406857D02*
X358707Y411243D01*
X373393Y411243D01*
X373393Y406857D01*
X373393Y410131D02*
X358707Y410131D01*
D51*
X383000Y186000D03*
X420000Y147000D03*
X676000Y441000D03*
X606000Y458000D03*
X519000Y384000D03*
X534000Y298000D03*
X628000Y406000D03*
X575000Y385000D03*
X488000Y63000D03*
X143000Y451000D03*
X43000Y479000D03*
X164000Y451000D03*
X43000Y354000D03*
X90000Y366000D03*
X49000Y244000D03*
X65000Y122000D03*
X50000Y129000D03*
X428000Y377000D03*
X563000Y454000D03*
D52*
X604000Y226000D03*
X362000Y45000D03*
X285000Y472000D03*
D51*
X311000Y248000D03*
X349000Y132000D03*
X288000Y325000D03*
X425000Y213000D03*
X482000Y160000D03*
X346000Y100000D03*
X443000Y127000D03*
X470000Y136000D03*
X228000Y376000D03*
X370000Y193000D03*
X335000Y294000D03*
X635000Y71000D03*
X521000Y64000D03*
X295000Y441000D03*
X500000Y263000D03*
X504000Y478000D03*
X218400Y261200D03*
X164000Y433000D03*
X321000Y358000D03*
D52*
X725000Y32000D03*
D51*
X401000Y259000D03*
X422000Y349000D03*
X334000Y363000D03*
X316000Y405000D03*
X452000Y298000D03*
X573000Y338000D03*
X263000Y79000D03*
X457000Y186000D03*
X421000Y224000D03*
X403000Y485000D03*
X178000Y238000D03*
X203000Y273000D03*
X337000Y259000D03*
X352000Y246000D03*
X412000Y213000D03*
X384000Y202000D03*
X140000Y378000D03*
X165200Y188000D03*
X164300Y322800D03*
X167000Y253000D03*
X358000Y254000D03*
X318000Y292000D03*
X701000Y436000D03*
X179000Y370000D03*
X132000Y439000D03*
X198000Y490000D03*
X629000Y437000D03*
X34000Y252000D03*
X21000Y264000D03*
X179000Y361000D03*
X132000Y450000D03*
X185000Y494000D03*
X354000Y486000D03*
X441000Y480000D03*
X606000Y468000D03*
X440000Y271000D03*
X440000Y280000D03*
X440000Y289000D03*
X440000Y298000D03*
X178000Y228000D03*
X163000Y31000D03*
X169000Y156000D03*
X181000Y115000D03*
X69000Y388000D03*
X79000Y388000D03*
X89000Y388000D03*
X408000Y427000D03*
X368000Y418000D03*
X320000Y432000D03*
X334000Y20000D03*
X218000Y482000D03*
X296000Y423000D03*
X313000Y210000D03*
X276000Y326000D03*
X261900Y191700D03*
X265000Y329000D03*
X20000Y387000D03*
X69000Y265000D03*
X50000Y140000D03*
X39000Y21000D03*
X192000Y251000D03*
X607000Y329000D03*
X510000Y248000D03*
X478000Y206000D03*
X491000Y154000D03*
X397000Y201000D03*
X224000Y251000D03*
X311000Y270000D03*
X330000Y227000D03*
X25000Y62000D03*
X25000Y187000D03*
X520000Y454000D03*
X529000Y454000D03*
X26000Y321000D03*
X25000Y438000D03*
X434000Y134000D03*
X538000Y454000D03*
X343000Y220000D03*
X492000Y478000D03*
X450000Y364000D03*
X254100Y383100D03*
M02*
