G04 EAGLE Gerber RS-274X export*
G75*
%MOMM*%
%FSLAX34Y34*%
%LPD*%
%INSolderpaste Bottom*%
%IPPOS*%
%AMOC8*
5,1,8,0,0,1.08239X$1,22.5*%
G01*
%ADD10R,1.000000X0.650000*%
%ADD11R,0.650000X1.000000*%
%ADD12R,1.720000X1.120000*%
%ADD13R,0.450000X1.400000*%
%ADD14R,3.500000X1.500000*%
%ADD15R,3.500000X2.350000*%
%ADD16R,0.405000X0.990000*%
%ADD17R,0.405000X0.510000*%
%ADD18R,2.235000X1.725000*%
%ADD19R,0.200000X0.250000*%
%ADD20R,1.000000X1.270000*%
%ADD21R,1.270000X1.000000*%
%ADD22R,1.200000X0.550000*%
%ADD23R,3.200400X0.914400*%
%ADD24R,8.153400X6.502400*%
%ADD25C,0.295000*%
%ADD26R,0.558800X1.320800*%


D10*
X371000Y171550D03*
X371000Y156050D03*
X57900Y29050D03*
X57900Y44550D03*
X74100Y44850D03*
X74100Y29350D03*
X74100Y169750D03*
X74100Y154250D03*
X57900Y279150D03*
X57900Y294650D03*
X73100Y294950D03*
X73100Y279450D03*
X58900Y404950D03*
X58900Y420450D03*
X316100Y238250D03*
X316100Y222750D03*
X74100Y420350D03*
X74100Y404850D03*
D11*
X340650Y70100D03*
X325150Y70100D03*
X348050Y142900D03*
X332550Y142900D03*
D10*
X267100Y387150D03*
X267100Y371650D03*
X58900Y153850D03*
X58900Y169350D03*
D12*
X293300Y224450D03*
X293300Y265950D03*
X398700Y230450D03*
X398700Y188950D03*
X461300Y341350D03*
X461300Y382850D03*
D13*
X335550Y204900D03*
X342050Y204900D03*
X348550Y204900D03*
X355050Y204900D03*
X355050Y160900D03*
X348550Y160900D03*
X342050Y160900D03*
X335550Y160900D03*
D14*
X729900Y80800D03*
X729900Y134800D03*
D15*
X293800Y349750D03*
X293800Y289250D03*
D16*
X409120Y145650D03*
X402520Y145650D03*
X395920Y145650D03*
X389320Y145650D03*
D17*
X389320Y176750D03*
X395920Y176750D03*
X402520Y176750D03*
X409120Y176750D03*
D18*
X399220Y165580D03*
D19*
X388240Y172950D03*
X410160Y172950D03*
D20*
X293700Y373300D03*
X303200Y393300D03*
X284200Y393300D03*
D16*
X300080Y182450D03*
X306680Y182450D03*
X313280Y182450D03*
X319880Y182450D03*
D17*
X319880Y151350D03*
X313280Y151350D03*
X306680Y151350D03*
X300080Y151350D03*
D18*
X309980Y162520D03*
D19*
X320960Y155150D03*
X299040Y155150D03*
D16*
X266780Y182450D03*
X273380Y182450D03*
X279980Y182450D03*
X286580Y182450D03*
D17*
X286580Y151350D03*
X279980Y151350D03*
X273380Y151350D03*
X266780Y151350D03*
D18*
X276680Y162520D03*
D19*
X287660Y155150D03*
X265740Y155150D03*
D21*
X441700Y412800D03*
X421700Y422300D03*
X421700Y403300D03*
D10*
X73000Y90450D03*
X73000Y105950D03*
X58000Y90550D03*
X58000Y106050D03*
D11*
X667250Y94000D03*
X651750Y94000D03*
D10*
X270700Y219350D03*
X270700Y234850D03*
X270000Y246650D03*
X270000Y262150D03*
D11*
X617650Y94000D03*
X602150Y94000D03*
D10*
X73000Y215250D03*
X73000Y230750D03*
X58000Y215350D03*
X58000Y230850D03*
X285000Y195450D03*
X285000Y210950D03*
D11*
X72750Y62500D03*
X57250Y62500D03*
X515150Y94000D03*
X499650Y94000D03*
X72750Y187500D03*
X57250Y187500D03*
D10*
X73000Y340650D03*
X73000Y356150D03*
X58000Y341050D03*
X58000Y356550D03*
D11*
X72750Y312500D03*
X57250Y312500D03*
D10*
X73100Y465750D03*
X73100Y481250D03*
X58100Y465650D03*
X58100Y481150D03*
D11*
X72750Y437500D03*
X57250Y437500D03*
X566650Y94100D03*
X551150Y94100D03*
D10*
X457900Y411350D03*
X457900Y395850D03*
D11*
X440250Y366100D03*
X424750Y366100D03*
D10*
X301100Y194950D03*
X301100Y210450D03*
D11*
X358650Y232700D03*
X343150Y232700D03*
X301950Y408100D03*
X286450Y408100D03*
D10*
X319800Y387850D03*
X319800Y372350D03*
D22*
X475200Y442300D03*
X475200Y432800D03*
X475200Y423300D03*
X449200Y423300D03*
X449200Y442300D03*
D23*
X99957Y28464D03*
X99957Y45482D03*
X99957Y62500D03*
X99957Y79518D03*
X99957Y96536D03*
D24*
X215654Y62500D03*
D23*
X99957Y153464D03*
X99957Y170482D03*
X99957Y187500D03*
X99957Y204518D03*
X99957Y221536D03*
D24*
X215654Y187500D03*
D23*
X99957Y278464D03*
X99957Y295482D03*
X99957Y312500D03*
X99957Y329518D03*
X99957Y346536D03*
D24*
X215654Y312500D03*
D23*
X99957Y403464D03*
X99957Y420482D03*
X99957Y437500D03*
X99957Y454518D03*
X99957Y471536D03*
D24*
X215654Y437500D03*
D25*
X359475Y316975D02*
X359475Y306225D01*
X356525Y306225D01*
X356525Y316975D01*
X359475Y316975D01*
X359475Y309027D02*
X356525Y309027D01*
X356525Y311829D02*
X359475Y311829D01*
X359475Y314631D02*
X356525Y314631D01*
X349975Y316975D02*
X349975Y306225D01*
X347025Y306225D01*
X347025Y316975D01*
X349975Y316975D01*
X349975Y309027D02*
X347025Y309027D01*
X347025Y311829D02*
X349975Y311829D01*
X349975Y314631D02*
X347025Y314631D01*
X340475Y316975D02*
X340475Y306225D01*
X337525Y306225D01*
X337525Y316975D01*
X340475Y316975D01*
X340475Y309027D02*
X337525Y309027D01*
X337525Y311829D02*
X340475Y311829D01*
X340475Y314631D02*
X337525Y314631D01*
X340475Y329625D02*
X340475Y340375D01*
X340475Y329625D02*
X337525Y329625D01*
X337525Y340375D01*
X340475Y340375D01*
X340475Y332427D02*
X337525Y332427D01*
X337525Y335229D02*
X340475Y335229D01*
X340475Y338031D02*
X337525Y338031D01*
X349975Y340375D02*
X349975Y329625D01*
X347025Y329625D01*
X347025Y340375D01*
X349975Y340375D01*
X349975Y332427D02*
X347025Y332427D01*
X347025Y335229D02*
X349975Y335229D01*
X349975Y338031D02*
X347025Y338031D01*
X359475Y340375D02*
X359475Y329625D01*
X356525Y329625D01*
X356525Y340375D01*
X359475Y340375D01*
X359475Y332427D02*
X356525Y332427D01*
X356525Y335229D02*
X359475Y335229D01*
X359475Y338031D02*
X356525Y338031D01*
D26*
X498356Y79160D03*
X516644Y79160D03*
X507500Y58840D03*
X549356Y79160D03*
X567644Y79160D03*
X558500Y58840D03*
X650356Y79160D03*
X668644Y79160D03*
X659500Y58840D03*
X600656Y79160D03*
X618944Y79160D03*
X609800Y58840D03*
D11*
X344250Y404000D03*
X359750Y404000D03*
D12*
X403000Y319250D03*
X403000Y360750D03*
D11*
X344250Y374000D03*
X359750Y374000D03*
D10*
X374000Y362750D03*
X374000Y347250D03*
D11*
X344250Y389000D03*
X359750Y389000D03*
D25*
X394975Y383675D02*
X394975Y372925D01*
X392025Y372925D01*
X392025Y383675D01*
X394975Y383675D01*
X394975Y375727D02*
X392025Y375727D01*
X392025Y378529D02*
X394975Y378529D01*
X394975Y381331D02*
X392025Y381331D01*
X385475Y383675D02*
X385475Y372925D01*
X382525Y372925D01*
X382525Y383675D01*
X385475Y383675D01*
X385475Y375727D02*
X382525Y375727D01*
X382525Y378529D02*
X385475Y378529D01*
X385475Y381331D02*
X382525Y381331D01*
X375975Y383675D02*
X375975Y372925D01*
X373025Y372925D01*
X373025Y383675D01*
X375975Y383675D01*
X375975Y375727D02*
X373025Y375727D01*
X373025Y378529D02*
X375975Y378529D01*
X375975Y381331D02*
X373025Y381331D01*
X375975Y396325D02*
X375975Y407075D01*
X375975Y396325D02*
X373025Y396325D01*
X373025Y407075D01*
X375975Y407075D01*
X375975Y399127D02*
X373025Y399127D01*
X373025Y401929D02*
X375975Y401929D01*
X375975Y404731D02*
X373025Y404731D01*
X385475Y407075D02*
X385475Y396325D01*
X382525Y396325D01*
X382525Y407075D01*
X385475Y407075D01*
X385475Y399127D02*
X382525Y399127D01*
X382525Y401929D02*
X385475Y401929D01*
X385475Y404731D02*
X382525Y404731D01*
X394975Y407075D02*
X394975Y396325D01*
X392025Y396325D01*
X392025Y407075D01*
X394975Y407075D01*
X394975Y399127D02*
X392025Y399127D01*
X392025Y401929D02*
X394975Y401929D01*
X394975Y404731D02*
X392025Y404731D01*
D10*
X411000Y390750D03*
X411000Y375250D03*
D11*
X359750Y359000D03*
X344250Y359000D03*
M02*
