G04 EAGLE Gerber RS-274X export*
G75*
%MOMM*%
%FSLAX34Y34*%
%LPD*%
%INSoldermask Bottom*%
%IPPOS*%
%AMOC8*
5,1,8,0,0,1.08239X$1,22.5*%
G01*
%ADD10R,1.100000X0.750000*%
%ADD11R,0.750000X1.100000*%
%ADD12R,1.923200X1.323200*%
%ADD13R,1.711200X1.711200*%
%ADD14C,1.711200*%
%ADD15R,0.653200X1.603200*%
%ADD16R,3.703200X1.703200*%
%ADD17R,6.203200X6.203200*%
%ADD18C,6.203200*%
%ADD19R,3.703200X2.553200*%
%ADD20R,0.608200X1.193200*%
%ADD21R,0.608200X0.713200*%
%ADD22R,2.438200X1.928200*%
%ADD23R,0.403200X0.453200*%
%ADD24R,1.203200X1.473200*%
%ADD25R,1.473200X1.203200*%
%ADD26R,1.403200X0.753200*%
%ADD27R,3.403600X1.117600*%
%ADD28R,8.356600X6.705600*%
%ADD29C,0.499716*%
%ADD30R,0.762000X1.524000*%
%ADD31C,1.711200*%
%ADD32C,1.311200*%
%ADD33C,0.853200*%
%ADD34R,1.603200X1.603200*%
%ADD35C,1.603200*%
%ADD36R,1.611200X1.611200*%
%ADD37C,1.611200*%
%ADD38C,0.809600*%
%ADD39C,4.519200*%


D10*
X371000Y171550D03*
X371000Y156050D03*
X57900Y29050D03*
X57900Y44550D03*
X74100Y44850D03*
X74100Y29350D03*
X74100Y169750D03*
X74100Y154250D03*
X57900Y279150D03*
X57900Y294650D03*
X73100Y294950D03*
X73100Y279450D03*
X58900Y404950D03*
X58900Y420450D03*
X316100Y238250D03*
X316100Y222750D03*
X74100Y420350D03*
X74100Y404850D03*
D11*
X340650Y70100D03*
X325150Y70100D03*
X348050Y142900D03*
X332550Y142900D03*
D10*
X267100Y387150D03*
X267100Y371650D03*
X58900Y153850D03*
X58900Y169350D03*
D12*
X293300Y224450D03*
X293300Y265950D03*
X398700Y230450D03*
X398700Y188950D03*
X461300Y341350D03*
X461300Y382850D03*
D13*
X40000Y87500D03*
D14*
X40000Y62500D03*
X40000Y37500D03*
D13*
X40000Y212500D03*
D14*
X40000Y187500D03*
X40000Y162500D03*
D13*
X40000Y337500D03*
D14*
X40000Y312500D03*
X40000Y287500D03*
D13*
X40000Y462500D03*
D14*
X40000Y437500D03*
X40000Y412500D03*
D15*
X335550Y204900D03*
X342050Y204900D03*
X348550Y204900D03*
X355050Y204900D03*
X355050Y160900D03*
X348550Y160900D03*
X342050Y160900D03*
X335550Y160900D03*
D16*
X729900Y80800D03*
X729900Y134800D03*
D17*
X292200Y116600D03*
D18*
X292200Y44600D03*
D19*
X293800Y349750D03*
X293800Y289250D03*
D20*
X409120Y145650D03*
X402520Y145650D03*
X395920Y145650D03*
X389320Y145650D03*
D21*
X389320Y176750D03*
X395920Y176750D03*
X402520Y176750D03*
X409120Y176750D03*
D22*
X399220Y165580D03*
D23*
X388240Y172950D03*
X410160Y172950D03*
D24*
X293700Y373300D03*
X303200Y393300D03*
X284200Y393300D03*
D20*
X300080Y182450D03*
X306680Y182450D03*
X313280Y182450D03*
X319880Y182450D03*
D21*
X319880Y151350D03*
X313280Y151350D03*
X306680Y151350D03*
X300080Y151350D03*
D22*
X309980Y162520D03*
D23*
X320960Y155150D03*
X299040Y155150D03*
D20*
X266780Y182450D03*
X273380Y182450D03*
X279980Y182450D03*
X286580Y182450D03*
D21*
X286580Y151350D03*
X279980Y151350D03*
X273380Y151350D03*
X266780Y151350D03*
D22*
X276680Y162520D03*
D23*
X287660Y155150D03*
X265740Y155150D03*
D25*
X441700Y412800D03*
X421700Y422300D03*
X421700Y403300D03*
D10*
X73000Y90450D03*
X73000Y105950D03*
X58000Y90550D03*
X58000Y106050D03*
D11*
X667250Y94000D03*
X651750Y94000D03*
D10*
X270700Y219350D03*
X270700Y234850D03*
X270000Y246650D03*
X270000Y262150D03*
D11*
X617650Y94000D03*
X602150Y94000D03*
D10*
X73000Y215250D03*
X73000Y230750D03*
X58000Y215350D03*
X58000Y230850D03*
X285000Y195450D03*
X285000Y210950D03*
D11*
X72750Y62500D03*
X57250Y62500D03*
X515150Y94000D03*
X499650Y94000D03*
X72750Y187500D03*
X57250Y187500D03*
D10*
X73000Y340650D03*
X73000Y356150D03*
X58000Y341050D03*
X58000Y356550D03*
D11*
X72750Y312500D03*
X57250Y312500D03*
D10*
X73100Y465750D03*
X73100Y481250D03*
X58100Y465650D03*
X58100Y481150D03*
D11*
X72750Y437500D03*
X57250Y437500D03*
X566650Y94100D03*
X551150Y94100D03*
D10*
X457900Y411350D03*
X457900Y395850D03*
D11*
X440250Y366100D03*
X424750Y366100D03*
D10*
X301100Y194950D03*
X301100Y210450D03*
D11*
X358650Y232700D03*
X343150Y232700D03*
X301950Y408100D03*
X286450Y408100D03*
D10*
X319800Y387850D03*
X319800Y372350D03*
D26*
X475200Y442300D03*
X475200Y432800D03*
X475200Y423300D03*
X449200Y423300D03*
X449200Y442300D03*
D27*
X99957Y28464D03*
X99957Y45482D03*
X99957Y62500D03*
X99957Y79518D03*
X99957Y96536D03*
D28*
X215654Y62500D03*
D27*
X99957Y153464D03*
X99957Y170482D03*
X99957Y187500D03*
X99957Y204518D03*
X99957Y221536D03*
D28*
X215654Y187500D03*
D27*
X99957Y278464D03*
X99957Y295482D03*
X99957Y312500D03*
X99957Y329518D03*
X99957Y346536D03*
D28*
X215654Y312500D03*
D27*
X99957Y403464D03*
X99957Y420482D03*
X99957Y437500D03*
X99957Y454518D03*
X99957Y471536D03*
D28*
X215654Y437500D03*
D29*
X359468Y316968D02*
X359468Y306232D01*
X356532Y306232D01*
X356532Y316968D01*
X359468Y316968D01*
X359468Y310979D02*
X356532Y310979D01*
X356532Y315726D02*
X359468Y315726D01*
X349968Y316968D02*
X349968Y306232D01*
X347032Y306232D01*
X347032Y316968D01*
X349968Y316968D01*
X349968Y310979D02*
X347032Y310979D01*
X347032Y315726D02*
X349968Y315726D01*
X340468Y316968D02*
X340468Y306232D01*
X337532Y306232D01*
X337532Y316968D01*
X340468Y316968D01*
X340468Y310979D02*
X337532Y310979D01*
X337532Y315726D02*
X340468Y315726D01*
X340468Y329632D02*
X340468Y340368D01*
X340468Y329632D02*
X337532Y329632D01*
X337532Y340368D01*
X340468Y340368D01*
X340468Y334379D02*
X337532Y334379D01*
X337532Y339126D02*
X340468Y339126D01*
X349968Y340368D02*
X349968Y329632D01*
X347032Y329632D01*
X347032Y340368D01*
X349968Y340368D01*
X349968Y334379D02*
X347032Y334379D01*
X347032Y339126D02*
X349968Y339126D01*
X359468Y340368D02*
X359468Y329632D01*
X356532Y329632D01*
X356532Y340368D01*
X359468Y340368D01*
X359468Y334379D02*
X356532Y334379D01*
X356532Y339126D02*
X359468Y339126D01*
D30*
X498356Y79160D03*
X516644Y79160D03*
X507500Y58840D03*
X549356Y79160D03*
X567644Y79160D03*
X558500Y58840D03*
X650356Y79160D03*
X668644Y79160D03*
X659500Y58840D03*
X600656Y79160D03*
X618944Y79160D03*
X609800Y58840D03*
D31*
X685700Y41040D02*
X685700Y25960D01*
X660300Y25960D02*
X660300Y41040D01*
X634900Y41040D02*
X634900Y25960D01*
X609500Y25960D02*
X609500Y41040D01*
X584100Y41040D02*
X584100Y25960D01*
X558700Y25960D02*
X558700Y41040D01*
X533300Y41040D02*
X533300Y25960D01*
X507900Y25960D02*
X507900Y41040D01*
X482500Y41040D02*
X482500Y25960D01*
X457100Y25960D02*
X457100Y41040D01*
X431700Y41040D02*
X431700Y25960D01*
X406300Y25960D02*
X406300Y41040D01*
D32*
X426600Y480760D02*
X426600Y491840D01*
X340200Y491840D02*
X340200Y480760D01*
X340200Y450040D02*
X340200Y438960D01*
X426600Y438960D02*
X426600Y450040D01*
D33*
X354500Y449500D03*
X412300Y449500D03*
D34*
X737700Y265400D03*
D35*
X717700Y265400D03*
X697700Y265400D03*
X677700Y265400D03*
X657700Y265400D03*
X637700Y265400D03*
X617700Y265400D03*
X597700Y265400D03*
X577700Y265400D03*
X557700Y265400D03*
X557700Y485400D03*
X577700Y485400D03*
X597700Y485400D03*
X617700Y485400D03*
X637700Y485400D03*
X657700Y485400D03*
X677700Y485400D03*
X697700Y485400D03*
X717700Y485400D03*
X737700Y485400D03*
D13*
X725000Y224000D03*
D14*
X725000Y199000D03*
X725000Y174000D03*
D36*
X474000Y121500D03*
D37*
X474000Y96500D03*
D36*
X407000Y121500D03*
D37*
X407000Y96500D03*
D11*
X344250Y404000D03*
X359750Y404000D03*
D12*
X403000Y319250D03*
X403000Y360750D03*
D11*
X344250Y374000D03*
X359750Y374000D03*
D10*
X374000Y362750D03*
X374000Y347250D03*
D11*
X344250Y389000D03*
X359750Y389000D03*
D29*
X394968Y383668D02*
X394968Y372932D01*
X392032Y372932D01*
X392032Y383668D01*
X394968Y383668D01*
X394968Y377679D02*
X392032Y377679D01*
X392032Y382426D02*
X394968Y382426D01*
X385468Y383668D02*
X385468Y372932D01*
X382532Y372932D01*
X382532Y383668D01*
X385468Y383668D01*
X385468Y377679D02*
X382532Y377679D01*
X382532Y382426D02*
X385468Y382426D01*
X375968Y383668D02*
X375968Y372932D01*
X373032Y372932D01*
X373032Y383668D01*
X375968Y383668D01*
X375968Y377679D02*
X373032Y377679D01*
X373032Y382426D02*
X375968Y382426D01*
X375968Y396332D02*
X375968Y407068D01*
X375968Y396332D02*
X373032Y396332D01*
X373032Y407068D01*
X375968Y407068D01*
X375968Y401079D02*
X373032Y401079D01*
X373032Y405826D02*
X375968Y405826D01*
X385468Y407068D02*
X385468Y396332D01*
X382532Y396332D01*
X382532Y407068D01*
X385468Y407068D01*
X385468Y401079D02*
X382532Y401079D01*
X382532Y405826D02*
X385468Y405826D01*
X394968Y407068D02*
X394968Y396332D01*
X392032Y396332D01*
X392032Y407068D01*
X394968Y407068D01*
X394968Y401079D02*
X392032Y401079D01*
X392032Y405826D02*
X394968Y405826D01*
D10*
X411000Y390750D03*
X411000Y375250D03*
D11*
X359750Y359000D03*
X344250Y359000D03*
D38*
X383000Y186000D03*
X420000Y147000D03*
X676000Y441000D03*
X606000Y458000D03*
X519000Y384000D03*
X534000Y298000D03*
X628000Y406000D03*
X575000Y385000D03*
X488000Y63000D03*
X143000Y451000D03*
X43000Y479000D03*
X164000Y451000D03*
X43000Y354000D03*
X90000Y366000D03*
X49000Y244000D03*
X65000Y122000D03*
X50000Y129000D03*
X428000Y377000D03*
X563000Y454000D03*
D39*
X604000Y226000D03*
X362000Y45000D03*
X285000Y472000D03*
D38*
X311000Y248000D03*
X349000Y132000D03*
X288000Y325000D03*
X425000Y213000D03*
X482000Y160000D03*
X346000Y100000D03*
X443000Y127000D03*
X470000Y136000D03*
X228000Y376000D03*
X370000Y193000D03*
X335000Y294000D03*
X635000Y71000D03*
X521000Y64000D03*
X295000Y441000D03*
X500000Y263000D03*
X504000Y478000D03*
X218400Y261200D03*
X164000Y433000D03*
X321000Y358000D03*
D39*
X725000Y32000D03*
D38*
X401000Y259000D03*
X422000Y349000D03*
X334000Y363000D03*
X316000Y405000D03*
X452000Y298000D03*
X573000Y338000D03*
X263000Y79000D03*
X457000Y186000D03*
X421000Y224000D03*
X403000Y485000D03*
X178000Y238000D03*
X203000Y273000D03*
X337000Y259000D03*
X352000Y246000D03*
X412000Y213000D03*
X384000Y202000D03*
X140000Y378000D03*
X165200Y188000D03*
X164300Y322800D03*
X167000Y253000D03*
X358000Y254000D03*
X318000Y292000D03*
X701000Y436000D03*
X179000Y370000D03*
X132000Y439000D03*
X198000Y490000D03*
X629000Y437000D03*
X34000Y252000D03*
X21000Y264000D03*
X179000Y361000D03*
X132000Y450000D03*
X185000Y494000D03*
X354000Y486000D03*
X441000Y480000D03*
X606000Y468000D03*
X440000Y271000D03*
X440000Y280000D03*
X440000Y289000D03*
X440000Y298000D03*
X178000Y228000D03*
X163000Y31000D03*
X169000Y156000D03*
X181000Y115000D03*
X69000Y388000D03*
X79000Y388000D03*
X89000Y388000D03*
X408000Y427000D03*
X368000Y418000D03*
X320000Y432000D03*
X334000Y20000D03*
X218000Y482000D03*
X296000Y423000D03*
X313000Y210000D03*
X276000Y326000D03*
X261900Y191700D03*
X265000Y329000D03*
X20000Y387000D03*
X69000Y265000D03*
X50000Y140000D03*
X39000Y21000D03*
X192000Y251000D03*
X607000Y329000D03*
X510000Y248000D03*
X478000Y206000D03*
X491000Y154000D03*
X397000Y201000D03*
X224000Y251000D03*
X311000Y270000D03*
X330000Y227000D03*
X25000Y62000D03*
X25000Y187000D03*
X520000Y454000D03*
X529000Y454000D03*
X26000Y321000D03*
X25000Y438000D03*
X434000Y134000D03*
X538000Y454000D03*
X343000Y220000D03*
X492000Y478000D03*
X450000Y364000D03*
X254100Y383100D03*
M02*
