G04 EAGLE Gerber RS-274X export*
G75*
%MOMM*%
%FSLAX34Y34*%
%LPD*%
%INSolderpaste Top*%
%IPPOS*%
%AMOC8*
5,1,8,0,0,1.08239X$1,22.5*%
G01*
%ADD10R,0.299719X0.299719*%
%ADD11R,1.600000X2.000000*%
%ADD12R,2.500000X2.500000*%
%ADD13R,1.000000X0.650000*%
%ADD14R,0.650000X1.000000*%
%ADD15R,0.800000X0.800000*%
%ADD16R,1.450000X0.685800*%
%ADD17R,0.350000X0.500000*%
%ADD18R,1.520000X2.540000*%
%ADD19R,3.500000X1.500000*%
%ADD20R,1.200000X1.400000*%
%ADD21C,0.100000*%
%ADD22R,0.425000X0.325000*%
%ADD23R,0.250000X0.525000*%
%ADD24R,0.300000X0.525000*%
%ADD25R,0.425000X0.300000*%
%ADD26R,1.320800X0.558800*%
%ADD27R,2.000000X2.000000*%
%ADD28C,0.065000*%
%ADD29C,0.070000*%
%ADD30R,0.838200X1.600200*%
%ADD31R,3.098800X1.600200*%
%ADD32R,3.200400X0.914400*%
%ADD33R,8.153400X6.502400*%
%ADD34R,0.575000X1.150000*%
%ADD35R,0.275000X1.150000*%
%ADD36R,0.900000X0.650000*%
%ADD37R,1.000000X1.800000*%
%ADD38R,1.300000X0.550000*%
%ADD39C,0.145000*%

G36*
X427584Y476481D02*
X427584Y476481D01*
X427584Y476482D01*
X427585Y476482D01*
X428659Y476857D01*
X428659Y476858D01*
X428660Y476858D01*
X429623Y477463D01*
X429623Y477464D01*
X429624Y477464D01*
X430428Y478268D01*
X430428Y478269D01*
X430429Y478269D01*
X431034Y479232D01*
X431034Y479233D01*
X431035Y479233D01*
X431410Y480307D01*
X431410Y480308D01*
X431411Y480308D01*
X431412Y480323D01*
X431413Y480328D01*
X431413Y480333D01*
X431414Y480338D01*
X431415Y480343D01*
X431415Y480348D01*
X431416Y480353D01*
X431416Y480358D01*
X431419Y480383D01*
X431420Y480388D01*
X431420Y480393D01*
X431421Y480398D01*
X431421Y480403D01*
X431422Y480408D01*
X431422Y480413D01*
X431423Y480418D01*
X431426Y480443D01*
X431426Y480448D01*
X431427Y480453D01*
X431427Y480458D01*
X431428Y480463D01*
X431429Y480467D01*
X431429Y480468D01*
X431429Y480472D01*
X431429Y480473D01*
X431430Y480477D01*
X431432Y480502D01*
X431433Y480507D01*
X431434Y480512D01*
X431434Y480517D01*
X431435Y480522D01*
X431435Y480527D01*
X431436Y480532D01*
X431436Y480537D01*
X431439Y480562D01*
X431440Y480567D01*
X431440Y480572D01*
X431441Y480577D01*
X431441Y480582D01*
X431442Y480587D01*
X431443Y480592D01*
X431443Y480597D01*
X431445Y480617D01*
X431446Y480622D01*
X431446Y480626D01*
X431446Y480627D01*
X431447Y480631D01*
X431447Y480632D01*
X431448Y480636D01*
X431448Y480641D01*
X431449Y480646D01*
X431449Y480651D01*
X431450Y480656D01*
X431452Y480676D01*
X431453Y480681D01*
X431453Y480686D01*
X431454Y480691D01*
X431454Y480696D01*
X431455Y480701D01*
X431455Y480706D01*
X431456Y480711D01*
X431457Y480716D01*
X431459Y480736D01*
X431459Y480741D01*
X431460Y480746D01*
X431460Y480751D01*
X431461Y480756D01*
X431462Y480761D01*
X431462Y480766D01*
X431463Y480771D01*
X431463Y480776D01*
X431465Y480795D01*
X431466Y480795D01*
X431466Y480800D01*
X431467Y480805D01*
X431467Y480810D01*
X431468Y480815D01*
X431468Y480820D01*
X431469Y480825D01*
X431469Y480830D01*
X431470Y480835D01*
X431472Y480855D01*
X431473Y480860D01*
X431473Y480865D01*
X431474Y480870D01*
X431474Y480875D01*
X431475Y480880D01*
X431476Y480885D01*
X431476Y480890D01*
X431477Y480895D01*
X431479Y480915D01*
X431479Y480920D01*
X431480Y480920D01*
X431479Y480920D01*
X431480Y480925D01*
X431481Y480930D01*
X431481Y480935D01*
X431482Y480940D01*
X431482Y480944D01*
X431482Y480945D01*
X431483Y480949D01*
X431483Y480950D01*
X431483Y480954D01*
X431486Y480974D01*
X431486Y480979D01*
X431487Y480984D01*
X431487Y480989D01*
X431488Y480994D01*
X431488Y480999D01*
X431489Y481004D01*
X431490Y481009D01*
X431490Y481014D01*
X431492Y481034D01*
X431493Y481039D01*
X431493Y481044D01*
X431494Y481044D01*
X431493Y481044D01*
X431494Y481049D01*
X431495Y481054D01*
X431495Y481059D01*
X431496Y481064D01*
X431496Y481069D01*
X431497Y481074D01*
X431499Y481094D01*
X431500Y481099D01*
X431500Y481103D01*
X431500Y481104D01*
X431501Y481108D01*
X431501Y481109D01*
X431501Y481113D01*
X431502Y481118D01*
X431502Y481123D01*
X431503Y481128D01*
X431504Y481133D01*
X431506Y481153D01*
X431506Y481158D01*
X431507Y481163D01*
X431507Y481168D01*
X431508Y481168D01*
X431507Y481168D01*
X431508Y481173D01*
X431509Y481178D01*
X431509Y481183D01*
X431510Y481188D01*
X431510Y481193D01*
X431513Y481213D01*
X431513Y481218D01*
X431514Y481223D01*
X431514Y481228D01*
X431515Y481233D01*
X431515Y481238D01*
X431516Y481243D01*
X431516Y481248D01*
X431517Y481253D01*
X431519Y481272D01*
X431520Y481277D01*
X431520Y481282D01*
X431521Y481287D01*
X431521Y481292D01*
X431522Y481292D01*
X431521Y481292D01*
X431522Y481297D01*
X431523Y481302D01*
X431523Y481307D01*
X431526Y481332D01*
X431527Y481337D01*
X431527Y481342D01*
X431528Y481347D01*
X431528Y481352D01*
X431529Y481357D01*
X431529Y481362D01*
X431530Y481367D01*
X431533Y481392D01*
X431533Y481397D01*
X431534Y481402D01*
X431534Y481407D01*
X431535Y481412D01*
X431535Y481417D01*
X431536Y481417D01*
X431535Y481417D01*
X431536Y481421D01*
X431536Y481422D01*
X431537Y481426D01*
X431537Y481427D01*
X431538Y481438D01*
X431538Y481439D01*
X431538Y491091D01*
X431538Y491092D01*
X431411Y492222D01*
X431410Y492222D01*
X431410Y492223D01*
X431035Y493297D01*
X431034Y493297D01*
X431034Y493298D01*
X430429Y494261D01*
X430428Y494261D01*
X430428Y494262D01*
X429624Y495066D01*
X429623Y495066D01*
X429623Y495067D01*
X428660Y495672D01*
X428659Y495672D01*
X428659Y495673D01*
X427585Y496048D01*
X427584Y496048D01*
X427584Y496049D01*
X426454Y496176D01*
X426453Y496176D01*
X426452Y496176D01*
X426218Y496150D01*
X425865Y496110D01*
X425513Y496070D01*
X425379Y496055D01*
X425378Y496054D01*
X425377Y496055D01*
X424357Y495698D01*
X424357Y495697D01*
X424356Y495697D01*
X423441Y495122D01*
X422676Y494358D01*
X422676Y494357D01*
X422101Y493442D01*
X422101Y493441D01*
X422100Y493441D01*
X421743Y492421D01*
X421744Y492420D01*
X421743Y492419D01*
X421742Y492414D01*
X421742Y492409D01*
X421741Y492404D01*
X421739Y492384D01*
X421739Y492379D01*
X421738Y492379D01*
X421739Y492379D01*
X421738Y492374D01*
X421737Y492369D01*
X421737Y492364D01*
X421736Y492359D01*
X421736Y492354D01*
X421735Y492349D01*
X421732Y492324D01*
X421732Y492319D01*
X421731Y492314D01*
X421731Y492309D01*
X421730Y492304D01*
X421730Y492299D01*
X421729Y492294D01*
X421728Y492289D01*
X421726Y492265D01*
X421725Y492260D01*
X421725Y492255D01*
X421724Y492255D01*
X421725Y492255D01*
X421724Y492250D01*
X421723Y492245D01*
X421723Y492240D01*
X421722Y492235D01*
X421722Y492230D01*
X421719Y492210D01*
X421719Y492205D01*
X421718Y492200D01*
X421718Y492195D01*
X421717Y492190D01*
X421717Y492185D01*
X421716Y492180D01*
X421716Y492175D01*
X421715Y492170D01*
X421713Y492150D01*
X421712Y492145D01*
X421712Y492140D01*
X421711Y492135D01*
X421711Y492130D01*
X421710Y492130D01*
X421711Y492130D01*
X421710Y492125D01*
X421709Y492121D01*
X421709Y492120D01*
X421709Y492116D01*
X421709Y492115D01*
X421708Y492111D01*
X421706Y492091D01*
X421705Y492086D01*
X421705Y492081D01*
X421704Y492076D01*
X421704Y492071D01*
X421703Y492066D01*
X421703Y492061D01*
X421702Y492056D01*
X421702Y492051D01*
X421699Y492031D01*
X421699Y492026D01*
X421698Y492021D01*
X421698Y492016D01*
X421697Y492011D01*
X421697Y492006D01*
X421696Y492006D01*
X421697Y492006D01*
X421696Y492001D01*
X421695Y491996D01*
X421693Y491971D01*
X421692Y491966D01*
X421691Y491962D01*
X421691Y491961D01*
X421691Y491957D01*
X421691Y491956D01*
X421690Y491952D01*
X421690Y491947D01*
X421689Y491942D01*
X421689Y491937D01*
X421686Y491912D01*
X421685Y491907D01*
X421685Y491902D01*
X421684Y491897D01*
X421684Y491892D01*
X421683Y491887D01*
X421683Y491882D01*
X421682Y491882D01*
X421683Y491882D01*
X421682Y491877D01*
X421680Y491857D01*
X421679Y491852D01*
X421679Y491847D01*
X421678Y491842D01*
X421677Y491837D01*
X421677Y491832D01*
X421676Y491827D01*
X421676Y491822D01*
X421675Y491817D01*
X421673Y491798D01*
X421673Y491797D01*
X421672Y491793D01*
X421672Y491788D01*
X421671Y491783D01*
X421671Y491778D01*
X421670Y491773D01*
X421670Y491768D01*
X421669Y491763D01*
X421669Y491758D01*
X421668Y491758D01*
X421669Y491758D01*
X421666Y491738D01*
X421666Y491733D01*
X421665Y491728D01*
X421665Y491723D01*
X421664Y491718D01*
X421663Y491713D01*
X421663Y491708D01*
X421662Y491703D01*
X421662Y491698D01*
X421660Y491678D01*
X421659Y491673D01*
X421658Y491668D01*
X421658Y491663D01*
X421657Y491658D01*
X421657Y491653D01*
X421656Y491648D01*
X421656Y491644D01*
X421656Y491643D01*
X421653Y491619D01*
X421652Y491614D01*
X421652Y491609D01*
X421651Y491604D01*
X421651Y491599D01*
X421650Y491594D01*
X421649Y491589D01*
X421649Y491584D01*
X421646Y491559D01*
X421646Y491554D01*
X421645Y491549D01*
X421644Y491544D01*
X421644Y491539D01*
X421643Y491534D01*
X421643Y491529D01*
X421642Y491524D01*
X421640Y491504D01*
X421639Y491499D01*
X421639Y491494D01*
X421638Y491489D01*
X421638Y491485D01*
X421638Y491484D01*
X421637Y491480D01*
X421637Y491479D01*
X421637Y491475D01*
X421636Y491470D01*
X421635Y491465D01*
X421633Y491445D01*
X421633Y491440D01*
X421632Y491435D01*
X421632Y491430D01*
X421631Y491425D01*
X421630Y491420D01*
X421630Y491415D01*
X421629Y491410D01*
X421629Y491405D01*
X421627Y491385D01*
X421626Y491380D01*
X421625Y491375D01*
X421625Y491370D01*
X421624Y491365D01*
X421624Y491360D01*
X421623Y491355D01*
X421623Y491350D01*
X421622Y491346D01*
X421622Y491345D01*
X421622Y481185D01*
X421622Y481184D01*
X421743Y480111D01*
X421744Y480110D01*
X421743Y480109D01*
X422100Y479089D01*
X422101Y479089D01*
X422101Y479088D01*
X422676Y478173D01*
X423441Y477408D01*
X424356Y476833D01*
X424357Y476833D01*
X424357Y476832D01*
X425377Y476475D01*
X425378Y476476D01*
X425379Y476475D01*
X426452Y476354D01*
X426453Y476355D01*
X426454Y476354D01*
X427584Y476481D01*
G37*
G36*
X341224Y476481D02*
X341224Y476481D01*
X341224Y476482D01*
X341225Y476482D01*
X342299Y476857D01*
X342299Y476858D01*
X342300Y476858D01*
X343263Y477463D01*
X343263Y477464D01*
X343264Y477464D01*
X344068Y478268D01*
X344068Y478269D01*
X344069Y478269D01*
X344674Y479232D01*
X344674Y479233D01*
X344675Y479233D01*
X345050Y480307D01*
X345050Y480308D01*
X345051Y480308D01*
X345052Y480323D01*
X345053Y480328D01*
X345053Y480333D01*
X345054Y480338D01*
X345055Y480343D01*
X345055Y480348D01*
X345056Y480353D01*
X345056Y480358D01*
X345059Y480383D01*
X345060Y480388D01*
X345060Y480393D01*
X345061Y480398D01*
X345061Y480403D01*
X345062Y480408D01*
X345062Y480413D01*
X345063Y480418D01*
X345066Y480443D01*
X345066Y480448D01*
X345067Y480453D01*
X345067Y480458D01*
X345068Y480463D01*
X345069Y480467D01*
X345069Y480468D01*
X345069Y480472D01*
X345069Y480473D01*
X345070Y480477D01*
X345072Y480502D01*
X345073Y480507D01*
X345074Y480512D01*
X345074Y480517D01*
X345075Y480522D01*
X345075Y480527D01*
X345076Y480532D01*
X345076Y480537D01*
X345079Y480562D01*
X345080Y480567D01*
X345080Y480572D01*
X345081Y480577D01*
X345081Y480582D01*
X345082Y480587D01*
X345083Y480592D01*
X345083Y480597D01*
X345085Y480617D01*
X345086Y480622D01*
X345086Y480626D01*
X345086Y480627D01*
X345087Y480631D01*
X345087Y480632D01*
X345088Y480636D01*
X345088Y480641D01*
X345089Y480646D01*
X345089Y480651D01*
X345090Y480656D01*
X345092Y480676D01*
X345093Y480681D01*
X345093Y480686D01*
X345094Y480691D01*
X345094Y480696D01*
X345095Y480701D01*
X345095Y480706D01*
X345096Y480711D01*
X345097Y480716D01*
X345099Y480736D01*
X345099Y480741D01*
X345100Y480746D01*
X345100Y480751D01*
X345101Y480756D01*
X345102Y480761D01*
X345102Y480766D01*
X345103Y480771D01*
X345103Y480776D01*
X345105Y480795D01*
X345106Y480795D01*
X345106Y480800D01*
X345107Y480805D01*
X345107Y480810D01*
X345108Y480815D01*
X345108Y480820D01*
X345109Y480825D01*
X345109Y480830D01*
X345110Y480835D01*
X345112Y480855D01*
X345113Y480860D01*
X345113Y480865D01*
X345114Y480870D01*
X345114Y480875D01*
X345115Y480880D01*
X345116Y480885D01*
X345116Y480890D01*
X345117Y480895D01*
X345119Y480915D01*
X345119Y480920D01*
X345120Y480920D01*
X345119Y480920D01*
X345120Y480925D01*
X345121Y480930D01*
X345121Y480935D01*
X345122Y480940D01*
X345122Y480944D01*
X345122Y480945D01*
X345123Y480949D01*
X345123Y480950D01*
X345123Y480954D01*
X345126Y480974D01*
X345126Y480979D01*
X345127Y480984D01*
X345127Y480989D01*
X345128Y480994D01*
X345128Y480999D01*
X345129Y481004D01*
X345130Y481009D01*
X345130Y481014D01*
X345132Y481034D01*
X345133Y481039D01*
X345133Y481044D01*
X345134Y481044D01*
X345133Y481044D01*
X345134Y481049D01*
X345135Y481054D01*
X345135Y481059D01*
X345136Y481064D01*
X345136Y481069D01*
X345137Y481074D01*
X345139Y481094D01*
X345140Y481099D01*
X345140Y481103D01*
X345140Y481104D01*
X345141Y481108D01*
X345141Y481109D01*
X345141Y481113D01*
X345142Y481118D01*
X345142Y481123D01*
X345143Y481128D01*
X345144Y481133D01*
X345146Y481153D01*
X345146Y481158D01*
X345147Y481163D01*
X345147Y481168D01*
X345148Y481168D01*
X345147Y481168D01*
X345148Y481173D01*
X345149Y481178D01*
X345149Y481183D01*
X345150Y481188D01*
X345150Y481193D01*
X345153Y481213D01*
X345153Y481218D01*
X345154Y481223D01*
X345154Y481228D01*
X345155Y481233D01*
X345155Y481238D01*
X345156Y481243D01*
X345156Y481248D01*
X345157Y481253D01*
X345159Y481272D01*
X345160Y481277D01*
X345160Y481282D01*
X345161Y481287D01*
X345161Y481292D01*
X345162Y481292D01*
X345161Y481292D01*
X345162Y481297D01*
X345163Y481302D01*
X345163Y481307D01*
X345166Y481332D01*
X345167Y481337D01*
X345167Y481342D01*
X345168Y481347D01*
X345168Y481352D01*
X345169Y481357D01*
X345169Y481362D01*
X345170Y481367D01*
X345173Y481392D01*
X345173Y481397D01*
X345174Y481402D01*
X345174Y481407D01*
X345175Y481412D01*
X345175Y481417D01*
X345176Y481417D01*
X345175Y481417D01*
X345176Y481421D01*
X345176Y481422D01*
X345177Y481426D01*
X345177Y481427D01*
X345178Y481438D01*
X345178Y481439D01*
X345178Y491091D01*
X345178Y491092D01*
X345051Y492222D01*
X345050Y492222D01*
X345050Y492223D01*
X344675Y493297D01*
X344674Y493297D01*
X344674Y493298D01*
X344069Y494261D01*
X344068Y494261D01*
X344068Y494262D01*
X343264Y495066D01*
X343263Y495066D01*
X343263Y495067D01*
X342300Y495672D01*
X342299Y495672D01*
X342299Y495673D01*
X341225Y496048D01*
X341224Y496048D01*
X341224Y496049D01*
X340094Y496176D01*
X340093Y496176D01*
X340092Y496176D01*
X339858Y496150D01*
X339505Y496110D01*
X339153Y496070D01*
X339019Y496055D01*
X339018Y496054D01*
X339017Y496055D01*
X337997Y495698D01*
X337997Y495697D01*
X337996Y495697D01*
X337081Y495122D01*
X336316Y494358D01*
X336316Y494357D01*
X335741Y493442D01*
X335741Y493441D01*
X335740Y493441D01*
X335383Y492421D01*
X335384Y492420D01*
X335383Y492419D01*
X335382Y492414D01*
X335382Y492409D01*
X335381Y492404D01*
X335379Y492384D01*
X335379Y492379D01*
X335378Y492379D01*
X335379Y492379D01*
X335378Y492374D01*
X335377Y492369D01*
X335377Y492364D01*
X335376Y492359D01*
X335376Y492354D01*
X335375Y492349D01*
X335372Y492324D01*
X335372Y492319D01*
X335371Y492314D01*
X335371Y492309D01*
X335370Y492304D01*
X335370Y492299D01*
X335369Y492294D01*
X335368Y492289D01*
X335366Y492265D01*
X335365Y492260D01*
X335365Y492255D01*
X335364Y492255D01*
X335365Y492255D01*
X335364Y492250D01*
X335363Y492245D01*
X335363Y492240D01*
X335362Y492235D01*
X335362Y492230D01*
X335359Y492210D01*
X335359Y492205D01*
X335358Y492200D01*
X335358Y492195D01*
X335357Y492190D01*
X335357Y492185D01*
X335356Y492180D01*
X335356Y492175D01*
X335355Y492170D01*
X335353Y492150D01*
X335352Y492145D01*
X335352Y492140D01*
X335351Y492135D01*
X335351Y492130D01*
X335350Y492130D01*
X335351Y492130D01*
X335350Y492125D01*
X335349Y492121D01*
X335349Y492120D01*
X335349Y492116D01*
X335349Y492115D01*
X335348Y492111D01*
X335346Y492091D01*
X335345Y492086D01*
X335345Y492081D01*
X335344Y492076D01*
X335344Y492071D01*
X335343Y492066D01*
X335343Y492061D01*
X335342Y492056D01*
X335342Y492051D01*
X335339Y492031D01*
X335339Y492026D01*
X335338Y492021D01*
X335338Y492016D01*
X335337Y492011D01*
X335337Y492006D01*
X335336Y492006D01*
X335337Y492006D01*
X335336Y492001D01*
X335335Y491996D01*
X335333Y491971D01*
X335332Y491966D01*
X335331Y491962D01*
X335331Y491961D01*
X335331Y491957D01*
X335331Y491956D01*
X335330Y491952D01*
X335330Y491947D01*
X335329Y491942D01*
X335329Y491937D01*
X335326Y491912D01*
X335325Y491907D01*
X335325Y491902D01*
X335324Y491897D01*
X335324Y491892D01*
X335323Y491887D01*
X335323Y491882D01*
X335322Y491882D01*
X335323Y491882D01*
X335322Y491877D01*
X335320Y491857D01*
X335319Y491852D01*
X335319Y491847D01*
X335318Y491842D01*
X335317Y491837D01*
X335317Y491832D01*
X335316Y491827D01*
X335316Y491822D01*
X335315Y491817D01*
X335313Y491798D01*
X335313Y491797D01*
X335312Y491793D01*
X335312Y491788D01*
X335311Y491783D01*
X335311Y491778D01*
X335310Y491773D01*
X335310Y491768D01*
X335309Y491763D01*
X335309Y491758D01*
X335308Y491758D01*
X335309Y491758D01*
X335306Y491738D01*
X335306Y491733D01*
X335305Y491728D01*
X335305Y491723D01*
X335304Y491718D01*
X335303Y491713D01*
X335303Y491708D01*
X335302Y491703D01*
X335302Y491698D01*
X335300Y491678D01*
X335299Y491673D01*
X335298Y491668D01*
X335298Y491663D01*
X335297Y491658D01*
X335297Y491653D01*
X335296Y491648D01*
X335296Y491644D01*
X335296Y491643D01*
X335293Y491619D01*
X335292Y491614D01*
X335292Y491609D01*
X335291Y491604D01*
X335291Y491599D01*
X335290Y491594D01*
X335289Y491589D01*
X335289Y491584D01*
X335286Y491559D01*
X335286Y491554D01*
X335285Y491549D01*
X335284Y491544D01*
X335284Y491539D01*
X335283Y491534D01*
X335283Y491529D01*
X335282Y491524D01*
X335280Y491504D01*
X335279Y491499D01*
X335279Y491494D01*
X335278Y491489D01*
X335278Y491485D01*
X335278Y491484D01*
X335277Y491480D01*
X335277Y491479D01*
X335277Y491475D01*
X335276Y491470D01*
X335275Y491465D01*
X335273Y491445D01*
X335273Y491440D01*
X335272Y491435D01*
X335272Y491430D01*
X335271Y491425D01*
X335270Y491420D01*
X335270Y491415D01*
X335269Y491410D01*
X335269Y491405D01*
X335267Y491385D01*
X335266Y491380D01*
X335265Y491375D01*
X335265Y491370D01*
X335264Y491365D01*
X335264Y491360D01*
X335263Y491355D01*
X335263Y491350D01*
X335262Y491346D01*
X335262Y491345D01*
X335262Y481185D01*
X335262Y481184D01*
X335383Y480111D01*
X335384Y480110D01*
X335383Y480109D01*
X335740Y479089D01*
X335741Y479089D01*
X335741Y479088D01*
X336316Y478173D01*
X337081Y477408D01*
X337996Y476833D01*
X337997Y476833D01*
X337997Y476832D01*
X339017Y476475D01*
X339018Y476476D01*
X339019Y476475D01*
X340092Y476354D01*
X340093Y476355D01*
X340094Y476354D01*
X341224Y476481D01*
G37*
G36*
X427711Y434698D02*
X427711Y434698D01*
X427711Y434699D01*
X427712Y434699D01*
X428786Y435074D01*
X428786Y435075D01*
X428787Y435075D01*
X429750Y435680D01*
X429750Y435681D01*
X429751Y435681D01*
X430555Y436485D01*
X430555Y436486D01*
X430556Y436486D01*
X431161Y437449D01*
X431161Y437450D01*
X431162Y437450D01*
X431537Y438524D01*
X431537Y438525D01*
X431538Y438525D01*
X431539Y438540D01*
X431540Y438545D01*
X431540Y438550D01*
X431541Y438555D01*
X431542Y438560D01*
X431542Y438565D01*
X431543Y438570D01*
X431543Y438575D01*
X431546Y438600D01*
X431547Y438605D01*
X431547Y438610D01*
X431548Y438615D01*
X431548Y438620D01*
X431549Y438625D01*
X431549Y438630D01*
X431550Y438635D01*
X431553Y438660D01*
X431553Y438665D01*
X431554Y438670D01*
X431554Y438675D01*
X431555Y438680D01*
X431556Y438684D01*
X431556Y438685D01*
X431556Y438689D01*
X431556Y438690D01*
X431557Y438694D01*
X431559Y438719D01*
X431560Y438724D01*
X431561Y438729D01*
X431561Y438734D01*
X431562Y438739D01*
X431562Y438744D01*
X431563Y438749D01*
X431563Y438754D01*
X431566Y438779D01*
X431567Y438784D01*
X431567Y438789D01*
X431568Y438794D01*
X431568Y438799D01*
X431569Y438804D01*
X431570Y438809D01*
X431570Y438814D01*
X431572Y438834D01*
X431573Y438839D01*
X431573Y438843D01*
X431573Y438844D01*
X431574Y438848D01*
X431574Y438849D01*
X431575Y438853D01*
X431575Y438858D01*
X431576Y438863D01*
X431576Y438868D01*
X431577Y438873D01*
X431579Y438893D01*
X431580Y438898D01*
X431580Y438903D01*
X431581Y438908D01*
X431581Y438913D01*
X431582Y438918D01*
X431582Y438923D01*
X431583Y438928D01*
X431584Y438933D01*
X431586Y438953D01*
X431586Y438958D01*
X431587Y438963D01*
X431587Y438968D01*
X431588Y438973D01*
X431589Y438978D01*
X431589Y438983D01*
X431590Y438988D01*
X431590Y438993D01*
X431592Y439012D01*
X431593Y439012D01*
X431593Y439017D01*
X431594Y439022D01*
X431594Y439027D01*
X431595Y439032D01*
X431595Y439037D01*
X431596Y439042D01*
X431596Y439047D01*
X431597Y439052D01*
X431599Y439072D01*
X431600Y439077D01*
X431600Y439082D01*
X431601Y439087D01*
X431601Y439092D01*
X431602Y439097D01*
X431603Y439102D01*
X431603Y439107D01*
X431604Y439112D01*
X431606Y439132D01*
X431606Y439137D01*
X431607Y439137D01*
X431606Y439137D01*
X431607Y439142D01*
X431608Y439147D01*
X431608Y439152D01*
X431609Y439157D01*
X431609Y439161D01*
X431609Y439162D01*
X431610Y439166D01*
X431610Y439167D01*
X431610Y439171D01*
X431613Y439191D01*
X431613Y439196D01*
X431614Y439201D01*
X431614Y439206D01*
X431615Y439211D01*
X431615Y439216D01*
X431616Y439221D01*
X431617Y439226D01*
X431617Y439231D01*
X431619Y439251D01*
X431620Y439256D01*
X431620Y439261D01*
X431621Y439261D01*
X431620Y439261D01*
X431621Y439266D01*
X431622Y439271D01*
X431622Y439276D01*
X431623Y439281D01*
X431623Y439286D01*
X431624Y439291D01*
X431626Y439311D01*
X431627Y439316D01*
X431627Y439320D01*
X431627Y439321D01*
X431628Y439325D01*
X431628Y439326D01*
X431628Y439330D01*
X431629Y439335D01*
X431629Y439340D01*
X431630Y439345D01*
X431631Y439350D01*
X431633Y439370D01*
X431633Y439375D01*
X431634Y439380D01*
X431634Y439385D01*
X431635Y439385D01*
X431634Y439385D01*
X431635Y439390D01*
X431636Y439395D01*
X431636Y439400D01*
X431637Y439405D01*
X431637Y439410D01*
X431640Y439430D01*
X431640Y439435D01*
X431641Y439440D01*
X431641Y439445D01*
X431642Y439450D01*
X431642Y439455D01*
X431643Y439460D01*
X431643Y439465D01*
X431644Y439470D01*
X431646Y439489D01*
X431647Y439494D01*
X431647Y439499D01*
X431648Y439504D01*
X431648Y439509D01*
X431649Y439509D01*
X431648Y439509D01*
X431649Y439514D01*
X431650Y439519D01*
X431650Y439524D01*
X431653Y439549D01*
X431654Y439554D01*
X431654Y439559D01*
X431655Y439564D01*
X431655Y439569D01*
X431656Y439574D01*
X431656Y439579D01*
X431657Y439584D01*
X431660Y439609D01*
X431660Y439614D01*
X431661Y439619D01*
X431661Y439624D01*
X431662Y439629D01*
X431662Y439634D01*
X431663Y439634D01*
X431662Y439634D01*
X431663Y439638D01*
X431663Y439639D01*
X431664Y439643D01*
X431664Y439644D01*
X431665Y439655D01*
X431665Y439656D01*
X431665Y449308D01*
X431665Y449309D01*
X431538Y450439D01*
X431537Y450439D01*
X431537Y450440D01*
X431162Y451514D01*
X431161Y451514D01*
X431161Y451515D01*
X430556Y452478D01*
X430555Y452478D01*
X430555Y452479D01*
X429751Y453283D01*
X429750Y453283D01*
X429750Y453284D01*
X428787Y453889D01*
X428786Y453889D01*
X428786Y453890D01*
X427712Y454265D01*
X427711Y454265D01*
X427711Y454266D01*
X426581Y454393D01*
X426580Y454393D01*
X426579Y454393D01*
X426345Y454367D01*
X425992Y454327D01*
X425640Y454287D01*
X425506Y454272D01*
X425505Y454271D01*
X425504Y454272D01*
X424484Y453915D01*
X424484Y453914D01*
X424483Y453914D01*
X423568Y453339D01*
X422803Y452575D01*
X422803Y452574D01*
X422228Y451659D01*
X422228Y451658D01*
X422227Y451658D01*
X421870Y450638D01*
X421871Y450637D01*
X421870Y450636D01*
X421869Y450631D01*
X421869Y450626D01*
X421868Y450621D01*
X421866Y450601D01*
X421866Y450596D01*
X421865Y450596D01*
X421866Y450596D01*
X421865Y450591D01*
X421864Y450586D01*
X421864Y450581D01*
X421863Y450576D01*
X421863Y450571D01*
X421862Y450566D01*
X421859Y450541D01*
X421859Y450536D01*
X421858Y450531D01*
X421858Y450526D01*
X421857Y450521D01*
X421857Y450516D01*
X421856Y450511D01*
X421855Y450506D01*
X421853Y450482D01*
X421852Y450477D01*
X421852Y450472D01*
X421851Y450472D01*
X421852Y450472D01*
X421851Y450467D01*
X421850Y450462D01*
X421850Y450457D01*
X421849Y450452D01*
X421849Y450447D01*
X421846Y450427D01*
X421846Y450422D01*
X421845Y450417D01*
X421845Y450412D01*
X421844Y450407D01*
X421844Y450402D01*
X421843Y450397D01*
X421843Y450392D01*
X421842Y450387D01*
X421840Y450367D01*
X421839Y450362D01*
X421839Y450357D01*
X421838Y450352D01*
X421838Y450347D01*
X421837Y450347D01*
X421838Y450347D01*
X421837Y450342D01*
X421836Y450338D01*
X421836Y450337D01*
X421836Y450333D01*
X421836Y450332D01*
X421835Y450328D01*
X421833Y450308D01*
X421832Y450303D01*
X421832Y450298D01*
X421831Y450293D01*
X421831Y450288D01*
X421830Y450283D01*
X421830Y450278D01*
X421829Y450273D01*
X421829Y450268D01*
X421826Y450248D01*
X421826Y450243D01*
X421825Y450238D01*
X421825Y450233D01*
X421824Y450228D01*
X421824Y450223D01*
X421823Y450223D01*
X421824Y450223D01*
X421823Y450218D01*
X421822Y450213D01*
X421820Y450188D01*
X421819Y450183D01*
X421818Y450179D01*
X421818Y450178D01*
X421818Y450174D01*
X421818Y450173D01*
X421817Y450169D01*
X421817Y450164D01*
X421816Y450159D01*
X421816Y450154D01*
X421813Y450129D01*
X421812Y450124D01*
X421812Y450119D01*
X421811Y450114D01*
X421811Y450109D01*
X421810Y450104D01*
X421810Y450099D01*
X421809Y450099D01*
X421810Y450099D01*
X421809Y450094D01*
X421807Y450074D01*
X421806Y450069D01*
X421806Y450064D01*
X421805Y450059D01*
X421804Y450054D01*
X421804Y450049D01*
X421803Y450044D01*
X421803Y450039D01*
X421802Y450034D01*
X421800Y450015D01*
X421800Y450014D01*
X421799Y450010D01*
X421799Y450005D01*
X421798Y450000D01*
X421798Y449995D01*
X421797Y449990D01*
X421797Y449985D01*
X421796Y449980D01*
X421796Y449975D01*
X421795Y449975D01*
X421796Y449975D01*
X421793Y449955D01*
X421793Y449950D01*
X421792Y449945D01*
X421792Y449940D01*
X421791Y449935D01*
X421790Y449930D01*
X421790Y449925D01*
X421789Y449920D01*
X421789Y449915D01*
X421787Y449895D01*
X421786Y449890D01*
X421785Y449885D01*
X421785Y449880D01*
X421784Y449875D01*
X421784Y449870D01*
X421783Y449865D01*
X421783Y449861D01*
X421783Y449860D01*
X421780Y449836D01*
X421779Y449831D01*
X421779Y449826D01*
X421778Y449821D01*
X421778Y449816D01*
X421777Y449811D01*
X421776Y449806D01*
X421776Y449801D01*
X421773Y449776D01*
X421773Y449771D01*
X421772Y449766D01*
X421771Y449761D01*
X421771Y449756D01*
X421770Y449751D01*
X421770Y449746D01*
X421769Y449741D01*
X421767Y449721D01*
X421766Y449716D01*
X421766Y449711D01*
X421765Y449706D01*
X421765Y449702D01*
X421765Y449701D01*
X421764Y449697D01*
X421764Y449696D01*
X421764Y449692D01*
X421763Y449687D01*
X421762Y449682D01*
X421760Y449662D01*
X421760Y449657D01*
X421759Y449652D01*
X421759Y449647D01*
X421758Y449642D01*
X421757Y449637D01*
X421757Y449632D01*
X421756Y449627D01*
X421756Y449622D01*
X421754Y449602D01*
X421753Y449597D01*
X421752Y449592D01*
X421752Y449587D01*
X421751Y449582D01*
X421751Y449577D01*
X421750Y449572D01*
X421750Y449567D01*
X421749Y449563D01*
X421749Y449562D01*
X421749Y439402D01*
X421749Y439401D01*
X421870Y438328D01*
X421871Y438327D01*
X421870Y438326D01*
X422227Y437306D01*
X422228Y437306D01*
X422228Y437305D01*
X422803Y436390D01*
X423568Y435625D01*
X424483Y435050D01*
X424484Y435050D01*
X424484Y435049D01*
X425504Y434692D01*
X425505Y434693D01*
X425506Y434692D01*
X426579Y434571D01*
X426580Y434572D01*
X426581Y434571D01*
X427711Y434698D01*
G37*
G36*
X341224Y434571D02*
X341224Y434571D01*
X341224Y434572D01*
X341225Y434572D01*
X342299Y434947D01*
X342299Y434948D01*
X342300Y434948D01*
X343263Y435553D01*
X343263Y435554D01*
X343264Y435554D01*
X344068Y436358D01*
X344068Y436359D01*
X344069Y436359D01*
X344674Y437322D01*
X344674Y437323D01*
X344675Y437323D01*
X345050Y438397D01*
X345050Y438398D01*
X345051Y438398D01*
X345052Y438413D01*
X345053Y438418D01*
X345053Y438423D01*
X345054Y438428D01*
X345055Y438433D01*
X345055Y438438D01*
X345056Y438443D01*
X345056Y438448D01*
X345059Y438473D01*
X345060Y438478D01*
X345060Y438483D01*
X345061Y438488D01*
X345061Y438493D01*
X345062Y438498D01*
X345062Y438503D01*
X345063Y438508D01*
X345066Y438533D01*
X345066Y438538D01*
X345067Y438543D01*
X345067Y438548D01*
X345068Y438553D01*
X345069Y438557D01*
X345069Y438558D01*
X345069Y438562D01*
X345069Y438563D01*
X345070Y438567D01*
X345072Y438592D01*
X345073Y438597D01*
X345074Y438602D01*
X345074Y438607D01*
X345075Y438612D01*
X345075Y438617D01*
X345076Y438622D01*
X345076Y438627D01*
X345079Y438652D01*
X345080Y438657D01*
X345080Y438662D01*
X345081Y438667D01*
X345081Y438672D01*
X345082Y438677D01*
X345083Y438682D01*
X345083Y438687D01*
X345085Y438707D01*
X345086Y438712D01*
X345086Y438716D01*
X345086Y438717D01*
X345087Y438721D01*
X345087Y438722D01*
X345088Y438726D01*
X345088Y438731D01*
X345089Y438736D01*
X345089Y438741D01*
X345090Y438746D01*
X345092Y438766D01*
X345093Y438771D01*
X345093Y438776D01*
X345094Y438781D01*
X345094Y438786D01*
X345095Y438791D01*
X345095Y438796D01*
X345096Y438801D01*
X345097Y438806D01*
X345099Y438826D01*
X345099Y438831D01*
X345100Y438836D01*
X345100Y438841D01*
X345101Y438846D01*
X345102Y438851D01*
X345102Y438856D01*
X345103Y438861D01*
X345103Y438866D01*
X345105Y438885D01*
X345106Y438885D01*
X345106Y438890D01*
X345107Y438895D01*
X345107Y438900D01*
X345108Y438905D01*
X345108Y438910D01*
X345109Y438915D01*
X345109Y438920D01*
X345110Y438925D01*
X345112Y438945D01*
X345113Y438950D01*
X345113Y438955D01*
X345114Y438960D01*
X345114Y438965D01*
X345115Y438970D01*
X345116Y438975D01*
X345116Y438980D01*
X345117Y438985D01*
X345119Y439005D01*
X345119Y439010D01*
X345120Y439010D01*
X345119Y439010D01*
X345120Y439015D01*
X345121Y439020D01*
X345121Y439025D01*
X345122Y439030D01*
X345122Y439034D01*
X345122Y439035D01*
X345123Y439039D01*
X345123Y439040D01*
X345123Y439044D01*
X345126Y439064D01*
X345126Y439069D01*
X345127Y439074D01*
X345127Y439079D01*
X345128Y439084D01*
X345128Y439089D01*
X345129Y439094D01*
X345130Y439099D01*
X345130Y439104D01*
X345132Y439124D01*
X345133Y439129D01*
X345133Y439134D01*
X345134Y439134D01*
X345133Y439134D01*
X345134Y439139D01*
X345135Y439144D01*
X345135Y439149D01*
X345136Y439154D01*
X345136Y439159D01*
X345137Y439164D01*
X345139Y439184D01*
X345140Y439189D01*
X345140Y439193D01*
X345140Y439194D01*
X345141Y439198D01*
X345141Y439199D01*
X345141Y439203D01*
X345142Y439208D01*
X345142Y439213D01*
X345143Y439218D01*
X345144Y439223D01*
X345146Y439243D01*
X345146Y439248D01*
X345147Y439253D01*
X345147Y439258D01*
X345148Y439258D01*
X345147Y439258D01*
X345148Y439263D01*
X345149Y439268D01*
X345149Y439273D01*
X345150Y439278D01*
X345150Y439283D01*
X345153Y439303D01*
X345153Y439308D01*
X345154Y439313D01*
X345154Y439318D01*
X345155Y439323D01*
X345155Y439328D01*
X345156Y439333D01*
X345156Y439338D01*
X345157Y439343D01*
X345159Y439362D01*
X345160Y439367D01*
X345160Y439372D01*
X345161Y439377D01*
X345161Y439382D01*
X345162Y439382D01*
X345161Y439382D01*
X345162Y439387D01*
X345163Y439392D01*
X345163Y439397D01*
X345166Y439422D01*
X345167Y439427D01*
X345167Y439432D01*
X345168Y439437D01*
X345168Y439442D01*
X345169Y439447D01*
X345169Y439452D01*
X345170Y439457D01*
X345173Y439482D01*
X345173Y439487D01*
X345174Y439492D01*
X345174Y439497D01*
X345175Y439502D01*
X345175Y439507D01*
X345176Y439507D01*
X345175Y439507D01*
X345176Y439511D01*
X345176Y439512D01*
X345177Y439516D01*
X345177Y439517D01*
X345178Y439528D01*
X345178Y439529D01*
X345178Y449181D01*
X345178Y449182D01*
X345051Y450312D01*
X345050Y450312D01*
X345050Y450313D01*
X344675Y451387D01*
X344674Y451387D01*
X344674Y451388D01*
X344069Y452351D01*
X344068Y452351D01*
X344068Y452352D01*
X343264Y453156D01*
X343263Y453156D01*
X343263Y453157D01*
X342300Y453762D01*
X342299Y453762D01*
X342299Y453763D01*
X341225Y454138D01*
X341224Y454138D01*
X341224Y454139D01*
X340094Y454266D01*
X340093Y454266D01*
X340092Y454266D01*
X339858Y454240D01*
X339505Y454200D01*
X339153Y454160D01*
X339019Y454145D01*
X339018Y454144D01*
X339017Y454145D01*
X337997Y453788D01*
X337997Y453787D01*
X337996Y453787D01*
X337081Y453212D01*
X336316Y452448D01*
X336316Y452447D01*
X335741Y451532D01*
X335741Y451531D01*
X335740Y451531D01*
X335383Y450511D01*
X335384Y450510D01*
X335383Y450509D01*
X335382Y450504D01*
X335382Y450499D01*
X335381Y450494D01*
X335379Y450474D01*
X335379Y450469D01*
X335378Y450469D01*
X335379Y450469D01*
X335378Y450464D01*
X335377Y450459D01*
X335377Y450454D01*
X335376Y450449D01*
X335376Y450444D01*
X335375Y450439D01*
X335372Y450414D01*
X335372Y450409D01*
X335371Y450404D01*
X335371Y450399D01*
X335370Y450394D01*
X335370Y450389D01*
X335369Y450384D01*
X335368Y450379D01*
X335366Y450355D01*
X335365Y450350D01*
X335365Y450345D01*
X335364Y450345D01*
X335365Y450345D01*
X335364Y450340D01*
X335363Y450335D01*
X335363Y450330D01*
X335362Y450325D01*
X335362Y450320D01*
X335359Y450300D01*
X335359Y450295D01*
X335358Y450290D01*
X335358Y450285D01*
X335357Y450280D01*
X335357Y450275D01*
X335356Y450270D01*
X335356Y450265D01*
X335355Y450260D01*
X335353Y450240D01*
X335352Y450235D01*
X335352Y450230D01*
X335351Y450225D01*
X335351Y450220D01*
X335350Y450220D01*
X335351Y450220D01*
X335350Y450215D01*
X335349Y450211D01*
X335349Y450210D01*
X335349Y450206D01*
X335349Y450205D01*
X335348Y450201D01*
X335346Y450181D01*
X335345Y450176D01*
X335345Y450171D01*
X335344Y450166D01*
X335344Y450161D01*
X335343Y450156D01*
X335343Y450151D01*
X335342Y450146D01*
X335342Y450141D01*
X335339Y450121D01*
X335339Y450116D01*
X335338Y450111D01*
X335338Y450106D01*
X335337Y450101D01*
X335337Y450096D01*
X335336Y450096D01*
X335337Y450096D01*
X335336Y450091D01*
X335335Y450086D01*
X335333Y450061D01*
X335332Y450056D01*
X335331Y450052D01*
X335331Y450051D01*
X335331Y450047D01*
X335331Y450046D01*
X335330Y450042D01*
X335330Y450037D01*
X335329Y450032D01*
X335329Y450027D01*
X335326Y450002D01*
X335325Y449997D01*
X335325Y449992D01*
X335324Y449987D01*
X335324Y449982D01*
X335323Y449977D01*
X335323Y449972D01*
X335322Y449972D01*
X335323Y449972D01*
X335322Y449967D01*
X335320Y449947D01*
X335319Y449942D01*
X335319Y449937D01*
X335318Y449932D01*
X335317Y449927D01*
X335317Y449922D01*
X335316Y449917D01*
X335316Y449912D01*
X335315Y449907D01*
X335313Y449888D01*
X335313Y449887D01*
X335312Y449883D01*
X335312Y449878D01*
X335311Y449873D01*
X335311Y449868D01*
X335310Y449863D01*
X335310Y449858D01*
X335309Y449853D01*
X335309Y449848D01*
X335308Y449848D01*
X335309Y449848D01*
X335306Y449828D01*
X335306Y449823D01*
X335305Y449818D01*
X335305Y449813D01*
X335304Y449808D01*
X335303Y449803D01*
X335303Y449798D01*
X335302Y449793D01*
X335302Y449788D01*
X335300Y449768D01*
X335299Y449763D01*
X335298Y449758D01*
X335298Y449753D01*
X335297Y449748D01*
X335297Y449743D01*
X335296Y449738D01*
X335296Y449734D01*
X335296Y449733D01*
X335293Y449709D01*
X335292Y449704D01*
X335292Y449699D01*
X335291Y449694D01*
X335291Y449689D01*
X335290Y449684D01*
X335289Y449679D01*
X335289Y449674D01*
X335286Y449649D01*
X335286Y449644D01*
X335285Y449639D01*
X335284Y449634D01*
X335284Y449629D01*
X335283Y449624D01*
X335283Y449619D01*
X335282Y449614D01*
X335280Y449594D01*
X335279Y449589D01*
X335279Y449584D01*
X335278Y449579D01*
X335278Y449575D01*
X335278Y449574D01*
X335277Y449570D01*
X335277Y449569D01*
X335277Y449565D01*
X335276Y449560D01*
X335275Y449555D01*
X335273Y449535D01*
X335273Y449530D01*
X335272Y449525D01*
X335272Y449520D01*
X335271Y449515D01*
X335270Y449510D01*
X335270Y449505D01*
X335269Y449500D01*
X335269Y449495D01*
X335267Y449475D01*
X335266Y449470D01*
X335265Y449465D01*
X335265Y449460D01*
X335264Y449455D01*
X335264Y449450D01*
X335263Y449445D01*
X335263Y449440D01*
X335262Y449436D01*
X335262Y449435D01*
X335262Y439275D01*
X335262Y439274D01*
X335383Y438201D01*
X335384Y438200D01*
X335383Y438199D01*
X335740Y437179D01*
X335741Y437179D01*
X335741Y437178D01*
X336316Y436263D01*
X337081Y435498D01*
X337996Y434923D01*
X337997Y434923D01*
X337997Y434922D01*
X339017Y434565D01*
X339018Y434566D01*
X339019Y434565D01*
X340092Y434444D01*
X340093Y434445D01*
X340094Y434444D01*
X341224Y434571D01*
G37*
G36*
X384874Y316937D02*
X384874Y316937D01*
X384882Y316936D01*
X384970Y316957D01*
X385060Y316975D01*
X385067Y316980D01*
X385075Y316982D01*
X385149Y317036D01*
X385224Y317088D01*
X385229Y317095D01*
X385235Y317100D01*
X385282Y317178D01*
X385331Y317255D01*
X385333Y317263D01*
X385337Y317271D01*
X385365Y317435D01*
X385365Y326997D01*
X385363Y327005D01*
X385364Y327014D01*
X385343Y327102D01*
X385325Y327192D01*
X385320Y327199D01*
X385318Y327207D01*
X385264Y327280D01*
X385212Y327356D01*
X385205Y327361D01*
X385200Y327367D01*
X385122Y327414D01*
X385045Y327463D01*
X385037Y327464D01*
X385029Y327469D01*
X384865Y327496D01*
X375303Y327496D01*
X375295Y327495D01*
X375286Y327496D01*
X375198Y327475D01*
X375108Y327457D01*
X375101Y327452D01*
X375093Y327450D01*
X375020Y327396D01*
X374944Y327344D01*
X374939Y327337D01*
X374933Y327332D01*
X374886Y327254D01*
X374837Y327177D01*
X374836Y327168D01*
X374831Y327161D01*
X374804Y326997D01*
X374804Y317435D01*
X374805Y317426D01*
X374804Y317418D01*
X374825Y317330D01*
X374843Y317240D01*
X374848Y317233D01*
X374850Y317225D01*
X374904Y317151D01*
X374956Y317076D01*
X374963Y317071D01*
X374968Y317065D01*
X375046Y317018D01*
X375123Y316969D01*
X375132Y316967D01*
X375139Y316963D01*
X375303Y316935D01*
X384865Y316935D01*
X384874Y316937D01*
G37*
G36*
X398905Y316937D02*
X398905Y316937D01*
X398914Y316936D01*
X399002Y316957D01*
X399092Y316975D01*
X399099Y316980D01*
X399107Y316982D01*
X399180Y317036D01*
X399256Y317088D01*
X399261Y317095D01*
X399267Y317100D01*
X399314Y317178D01*
X399363Y317255D01*
X399364Y317263D01*
X399369Y317271D01*
X399396Y317435D01*
X399396Y326997D01*
X399395Y327005D01*
X399396Y327014D01*
X399375Y327102D01*
X399357Y327192D01*
X399352Y327199D01*
X399350Y327207D01*
X399296Y327280D01*
X399244Y327356D01*
X399237Y327361D01*
X399232Y327367D01*
X399154Y327414D01*
X399077Y327463D01*
X399068Y327464D01*
X399061Y327469D01*
X398897Y327496D01*
X389335Y327496D01*
X389326Y327495D01*
X389318Y327496D01*
X389230Y327475D01*
X389140Y327457D01*
X389133Y327452D01*
X389125Y327450D01*
X389051Y327396D01*
X388976Y327344D01*
X388971Y327337D01*
X388965Y327332D01*
X388918Y327254D01*
X388869Y327177D01*
X388867Y327168D01*
X388863Y327161D01*
X388835Y326997D01*
X388835Y317435D01*
X388837Y317426D01*
X388836Y317418D01*
X388857Y317330D01*
X388875Y317240D01*
X388880Y317233D01*
X388882Y317225D01*
X388936Y317151D01*
X388988Y317076D01*
X388995Y317071D01*
X389000Y317065D01*
X389078Y317018D01*
X389155Y316969D01*
X389163Y316967D01*
X389171Y316963D01*
X389335Y316935D01*
X398897Y316935D01*
X398905Y316937D01*
G37*
G36*
X384874Y302905D02*
X384874Y302905D01*
X384882Y302904D01*
X384970Y302925D01*
X385060Y302943D01*
X385067Y302948D01*
X385075Y302950D01*
X385149Y303004D01*
X385224Y303056D01*
X385229Y303063D01*
X385235Y303068D01*
X385282Y303146D01*
X385331Y303223D01*
X385333Y303232D01*
X385337Y303239D01*
X385365Y303403D01*
X385365Y312965D01*
X385363Y312974D01*
X385364Y312982D01*
X385343Y313070D01*
X385325Y313160D01*
X385320Y313167D01*
X385318Y313175D01*
X385264Y313249D01*
X385212Y313324D01*
X385205Y313329D01*
X385200Y313335D01*
X385122Y313382D01*
X385045Y313431D01*
X385037Y313433D01*
X385029Y313437D01*
X384865Y313465D01*
X375303Y313465D01*
X375295Y313463D01*
X375286Y313464D01*
X375198Y313443D01*
X375108Y313425D01*
X375101Y313420D01*
X375093Y313418D01*
X375020Y313364D01*
X374944Y313312D01*
X374939Y313305D01*
X374933Y313300D01*
X374886Y313222D01*
X374837Y313145D01*
X374836Y313137D01*
X374831Y313129D01*
X374804Y312965D01*
X374804Y303403D01*
X374805Y303395D01*
X374804Y303386D01*
X374825Y303298D01*
X374843Y303208D01*
X374848Y303201D01*
X374850Y303193D01*
X374904Y303120D01*
X374956Y303044D01*
X374963Y303039D01*
X374968Y303033D01*
X375046Y302986D01*
X375123Y302937D01*
X375132Y302936D01*
X375139Y302931D01*
X375303Y302904D01*
X384865Y302904D01*
X384874Y302905D01*
G37*
G36*
X398905Y302905D02*
X398905Y302905D01*
X398914Y302904D01*
X399002Y302925D01*
X399092Y302943D01*
X399099Y302948D01*
X399107Y302950D01*
X399180Y303004D01*
X399256Y303056D01*
X399261Y303063D01*
X399267Y303068D01*
X399314Y303146D01*
X399363Y303223D01*
X399364Y303232D01*
X399369Y303239D01*
X399396Y303403D01*
X399396Y312965D01*
X399395Y312974D01*
X399396Y312982D01*
X399375Y313070D01*
X399357Y313160D01*
X399352Y313167D01*
X399350Y313175D01*
X399296Y313249D01*
X399244Y313324D01*
X399237Y313329D01*
X399232Y313335D01*
X399154Y313382D01*
X399077Y313431D01*
X399068Y313433D01*
X399061Y313437D01*
X398897Y313465D01*
X389335Y313465D01*
X389326Y313463D01*
X389318Y313464D01*
X389230Y313443D01*
X389140Y313425D01*
X389133Y313420D01*
X389125Y313418D01*
X389051Y313364D01*
X388976Y313312D01*
X388971Y313305D01*
X388965Y313300D01*
X388918Y313222D01*
X388869Y313145D01*
X388867Y313137D01*
X388863Y313129D01*
X388835Y312965D01*
X388835Y303403D01*
X388837Y303395D01*
X388836Y303386D01*
X388857Y303298D01*
X388875Y303208D01*
X388880Y303201D01*
X388882Y303193D01*
X388936Y303120D01*
X388988Y303044D01*
X388995Y303039D01*
X389000Y303033D01*
X389078Y302986D01*
X389155Y302937D01*
X389163Y302936D01*
X389171Y302931D01*
X389335Y302904D01*
X398897Y302904D01*
X398905Y302905D01*
G37*
D10*
X402800Y176520D03*
X397800Y176520D03*
X392800Y176520D03*
X387800Y176520D03*
X387800Y171400D03*
X387800Y166400D03*
X387800Y161280D03*
X392800Y161280D03*
X397800Y161280D03*
X402800Y161280D03*
X402800Y166400D03*
X402800Y171400D03*
D11*
X238800Y486500D03*
X238800Y432500D03*
D12*
X164600Y409900D03*
X164600Y479900D03*
X94600Y479900D03*
X94600Y409900D03*
D13*
X586300Y339050D03*
X586300Y354550D03*
D14*
X451450Y332100D03*
X435950Y332100D03*
D13*
X88900Y243150D03*
X88900Y227650D03*
X375300Y250950D03*
X375300Y266450D03*
X454100Y159550D03*
X454100Y175050D03*
X223900Y240550D03*
X223900Y225050D03*
D14*
X240350Y210900D03*
X255850Y210900D03*
D13*
X224100Y271250D03*
X224100Y286750D03*
X280100Y271150D03*
X280100Y286650D03*
D14*
X634950Y451100D03*
X619450Y451100D03*
X618950Y465900D03*
X634450Y465900D03*
D13*
X406300Y223850D03*
X406300Y239350D03*
X469100Y159750D03*
X469100Y175250D03*
X236100Y139650D03*
X236100Y155150D03*
X511100Y102550D03*
X511100Y118050D03*
D14*
X636450Y107900D03*
X651950Y107900D03*
X700750Y138100D03*
X685250Y138100D03*
X685150Y107900D03*
X700650Y107900D03*
D13*
X521900Y429150D03*
X521900Y413650D03*
X681100Y224050D03*
X681100Y239550D03*
D14*
X437350Y367000D03*
X421850Y367000D03*
D13*
X467000Y349450D03*
X467000Y333950D03*
D14*
X451250Y347100D03*
X435750Y347100D03*
D15*
X325750Y210300D03*
X341250Y210300D03*
X266350Y355700D03*
X250850Y355700D03*
X254750Y392700D03*
X239250Y392700D03*
X357850Y177700D03*
X342350Y177700D03*
X488050Y489300D03*
X503550Y489300D03*
X267050Y339700D03*
X251550Y339700D03*
X358150Y190700D03*
X342650Y190700D03*
D16*
X529600Y184900D03*
X529600Y173900D03*
X529600Y162900D03*
X529600Y151900D03*
X529600Y140900D03*
X529600Y129900D03*
X529600Y118900D03*
X529600Y107900D03*
X529600Y96900D03*
X619600Y96900D03*
X619600Y107900D03*
X619600Y118900D03*
X619600Y129900D03*
X619600Y140900D03*
X619600Y151900D03*
X619600Y162900D03*
X619600Y173900D03*
X619600Y184900D03*
D17*
X436450Y188700D03*
X429950Y188700D03*
X423450Y188700D03*
X442950Y188700D03*
X429950Y172700D03*
X436450Y172700D03*
X442950Y172700D03*
X423450Y172700D03*
D18*
X726700Y459200D03*
X701300Y459200D03*
X675900Y459200D03*
X650500Y459200D03*
X650500Y291600D03*
X675900Y291600D03*
X701300Y291600D03*
X726700Y291600D03*
D19*
X729900Y107800D03*
X729900Y80800D03*
X729900Y134800D03*
D14*
X685350Y123300D03*
X700850Y123300D03*
D15*
X257450Y370700D03*
X241950Y370700D03*
D13*
X274900Y393750D03*
X274900Y378250D03*
X275000Y420850D03*
X275000Y405350D03*
D14*
X532750Y334800D03*
X517250Y334800D03*
X616850Y414800D03*
X601350Y414800D03*
D13*
X300000Y224150D03*
X300000Y239650D03*
X486800Y334050D03*
X486800Y349550D03*
X502200Y349050D03*
X502200Y333550D03*
X498200Y443150D03*
X498200Y427650D03*
X484200Y443250D03*
X484200Y427750D03*
X461200Y443350D03*
X461200Y427850D03*
D14*
X283150Y211000D03*
X267650Y211000D03*
X238450Y355000D03*
X222950Y355000D03*
D13*
X225000Y386050D03*
X225000Y401550D03*
D14*
X313550Y178000D03*
X329050Y178000D03*
D13*
X394000Y368950D03*
X394000Y384450D03*
D14*
X531450Y488900D03*
X515950Y488900D03*
X237750Y110900D03*
X222250Y110900D03*
X237850Y125900D03*
X222350Y125900D03*
X589950Y414900D03*
X574450Y414900D03*
D13*
X409000Y367850D03*
X409000Y383350D03*
D14*
X559050Y334900D03*
X543550Y334900D03*
D20*
X395200Y399700D03*
X421200Y399700D03*
D14*
X254350Y406900D03*
X238850Y406900D03*
D13*
X390000Y250750D03*
X390000Y266250D03*
D14*
X86550Y143100D03*
X102050Y143100D03*
X113450Y143100D03*
X128950Y143100D03*
X86350Y128100D03*
X101850Y128100D03*
X113250Y128100D03*
X128750Y128100D03*
X183850Y142900D03*
X168350Y142900D03*
X237950Y339900D03*
X222450Y339900D03*
X329050Y192900D03*
X313550Y192900D03*
D13*
X327000Y457350D03*
X327000Y441850D03*
D14*
X156150Y142900D03*
X140650Y142900D03*
X184250Y127900D03*
X168750Y127900D03*
X156350Y127900D03*
X140850Y127900D03*
X87450Y210100D03*
X102950Y210100D03*
X114350Y210100D03*
X129850Y210100D03*
X87250Y195100D03*
X102750Y195100D03*
X114150Y195100D03*
X129650Y195100D03*
D13*
X312000Y457450D03*
X312000Y441950D03*
D14*
X183050Y209900D03*
X167550Y209900D03*
D13*
X195100Y452150D03*
X195100Y436650D03*
D14*
X337250Y239900D03*
X321750Y239900D03*
X156350Y209900D03*
X140850Y209900D03*
X86550Y276100D03*
X102050Y276100D03*
X113450Y276100D03*
X128950Y276100D03*
X86850Y261200D03*
X102350Y261200D03*
X113750Y261200D03*
X129250Y261200D03*
X182350Y275800D03*
X166850Y275800D03*
X187450Y477000D03*
X202950Y477000D03*
X337450Y270800D03*
X321950Y270800D03*
D13*
X511200Y154550D03*
X511200Y139050D03*
X511800Y186350D03*
X511800Y201850D03*
D14*
X155750Y275800D03*
X140250Y275800D03*
X87150Y342200D03*
X102650Y342200D03*
X114050Y342200D03*
X129550Y342200D03*
X85950Y327200D03*
X101450Y327200D03*
X439650Y200000D03*
X424150Y200000D03*
X113850Y327200D03*
X129350Y327200D03*
X183250Y341800D03*
X167750Y341800D03*
X156350Y341800D03*
X140850Y341800D03*
D13*
X665800Y224550D03*
X665800Y240050D03*
X650800Y224450D03*
X650800Y239950D03*
D21*
X356600Y340700D02*
X348850Y340700D01*
X348850Y341700D01*
X356600Y341700D01*
X356600Y340700D01*
X356600Y341650D02*
X348850Y341650D01*
X348850Y336700D02*
X356600Y336700D01*
X348850Y336700D02*
X348850Y337700D01*
X356600Y337700D01*
X356600Y336700D01*
X356600Y337650D02*
X348850Y337650D01*
X348850Y332700D02*
X356600Y332700D01*
X348850Y332700D02*
X348850Y333700D01*
X356600Y333700D01*
X356600Y332700D01*
X356600Y333650D02*
X348850Y333650D01*
X348850Y328700D02*
X356600Y328700D01*
X348850Y328700D02*
X348850Y329700D01*
X356600Y329700D01*
X356600Y328700D01*
X356600Y329650D02*
X348850Y329650D01*
X348850Y324700D02*
X356600Y324700D01*
X348850Y324700D02*
X348850Y325700D01*
X356600Y325700D01*
X356600Y324700D01*
X356600Y325650D02*
X348850Y325650D01*
X348850Y320700D02*
X356600Y320700D01*
X348850Y320700D02*
X348850Y321700D01*
X356600Y321700D01*
X356600Y320700D01*
X356600Y321650D02*
X348850Y321650D01*
X348850Y316700D02*
X356600Y316700D01*
X348850Y316700D02*
X348850Y317700D01*
X356600Y317700D01*
X356600Y316700D01*
X356600Y317650D02*
X348850Y317650D01*
X348850Y312700D02*
X356600Y312700D01*
X348850Y312700D02*
X348850Y313700D01*
X356600Y313700D01*
X356600Y312700D01*
X356600Y313650D02*
X348850Y313650D01*
X348850Y308700D02*
X356600Y308700D01*
X348850Y308700D02*
X348850Y309700D01*
X356600Y309700D01*
X356600Y308700D01*
X356600Y309650D02*
X348850Y309650D01*
X348850Y304700D02*
X356600Y304700D01*
X348850Y304700D02*
X348850Y305700D01*
X356600Y305700D01*
X356600Y304700D01*
X356600Y305650D02*
X348850Y305650D01*
X348850Y300700D02*
X356600Y300700D01*
X348850Y300700D02*
X348850Y301700D01*
X356600Y301700D01*
X356600Y300700D01*
X356600Y301650D02*
X348850Y301650D01*
X348850Y296700D02*
X356600Y296700D01*
X348850Y296700D02*
X348850Y297700D01*
X356600Y297700D01*
X356600Y296700D01*
X356600Y297650D02*
X348850Y297650D01*
X348850Y292700D02*
X356600Y292700D01*
X348850Y292700D02*
X348850Y293700D01*
X356600Y293700D01*
X356600Y292700D01*
X356600Y293650D02*
X348850Y293650D01*
X348850Y288700D02*
X356600Y288700D01*
X348850Y288700D02*
X348850Y289700D01*
X356600Y289700D01*
X356600Y288700D01*
X356600Y289650D02*
X348850Y289650D01*
X361600Y284700D02*
X361600Y276950D01*
X360600Y276950D01*
X360600Y284700D01*
X361600Y284700D01*
X361600Y277900D02*
X360600Y277900D01*
X360600Y278850D02*
X361600Y278850D01*
X361600Y279800D02*
X360600Y279800D01*
X360600Y280750D02*
X361600Y280750D01*
X361600Y281700D02*
X360600Y281700D01*
X360600Y282650D02*
X361600Y282650D01*
X361600Y283600D02*
X360600Y283600D01*
X360600Y284550D02*
X361600Y284550D01*
X365600Y284700D02*
X365600Y276950D01*
X364600Y276950D01*
X364600Y284700D01*
X365600Y284700D01*
X365600Y277900D02*
X364600Y277900D01*
X364600Y278850D02*
X365600Y278850D01*
X365600Y279800D02*
X364600Y279800D01*
X364600Y280750D02*
X365600Y280750D01*
X365600Y281700D02*
X364600Y281700D01*
X364600Y282650D02*
X365600Y282650D01*
X365600Y283600D02*
X364600Y283600D01*
X364600Y284550D02*
X365600Y284550D01*
X369600Y284700D02*
X369600Y276950D01*
X368600Y276950D01*
X368600Y284700D01*
X369600Y284700D01*
X369600Y277900D02*
X368600Y277900D01*
X368600Y278850D02*
X369600Y278850D01*
X369600Y279800D02*
X368600Y279800D01*
X368600Y280750D02*
X369600Y280750D01*
X369600Y281700D02*
X368600Y281700D01*
X368600Y282650D02*
X369600Y282650D01*
X369600Y283600D02*
X368600Y283600D01*
X368600Y284550D02*
X369600Y284550D01*
X373600Y284700D02*
X373600Y276950D01*
X372600Y276950D01*
X372600Y284700D01*
X373600Y284700D01*
X373600Y277900D02*
X372600Y277900D01*
X372600Y278850D02*
X373600Y278850D01*
X373600Y279800D02*
X372600Y279800D01*
X372600Y280750D02*
X373600Y280750D01*
X373600Y281700D02*
X372600Y281700D01*
X372600Y282650D02*
X373600Y282650D01*
X373600Y283600D02*
X372600Y283600D01*
X372600Y284550D02*
X373600Y284550D01*
X377600Y284700D02*
X377600Y276950D01*
X376600Y276950D01*
X376600Y284700D01*
X377600Y284700D01*
X377600Y277900D02*
X376600Y277900D01*
X376600Y278850D02*
X377600Y278850D01*
X377600Y279800D02*
X376600Y279800D01*
X376600Y280750D02*
X377600Y280750D01*
X377600Y281700D02*
X376600Y281700D01*
X376600Y282650D02*
X377600Y282650D01*
X377600Y283600D02*
X376600Y283600D01*
X376600Y284550D02*
X377600Y284550D01*
X381600Y284700D02*
X381600Y276950D01*
X380600Y276950D01*
X380600Y284700D01*
X381600Y284700D01*
X381600Y277900D02*
X380600Y277900D01*
X380600Y278850D02*
X381600Y278850D01*
X381600Y279800D02*
X380600Y279800D01*
X380600Y280750D02*
X381600Y280750D01*
X381600Y281700D02*
X380600Y281700D01*
X380600Y282650D02*
X381600Y282650D01*
X381600Y283600D02*
X380600Y283600D01*
X380600Y284550D02*
X381600Y284550D01*
X385600Y284700D02*
X385600Y276950D01*
X384600Y276950D01*
X384600Y284700D01*
X385600Y284700D01*
X385600Y277900D02*
X384600Y277900D01*
X384600Y278850D02*
X385600Y278850D01*
X385600Y279800D02*
X384600Y279800D01*
X384600Y280750D02*
X385600Y280750D01*
X385600Y281700D02*
X384600Y281700D01*
X384600Y282650D02*
X385600Y282650D01*
X385600Y283600D02*
X384600Y283600D01*
X384600Y284550D02*
X385600Y284550D01*
X389600Y284700D02*
X389600Y276950D01*
X388600Y276950D01*
X388600Y284700D01*
X389600Y284700D01*
X389600Y277900D02*
X388600Y277900D01*
X388600Y278850D02*
X389600Y278850D01*
X389600Y279800D02*
X388600Y279800D01*
X388600Y280750D02*
X389600Y280750D01*
X389600Y281700D02*
X388600Y281700D01*
X388600Y282650D02*
X389600Y282650D01*
X389600Y283600D02*
X388600Y283600D01*
X388600Y284550D02*
X389600Y284550D01*
X393600Y284700D02*
X393600Y276950D01*
X392600Y276950D01*
X392600Y284700D01*
X393600Y284700D01*
X393600Y277900D02*
X392600Y277900D01*
X392600Y278850D02*
X393600Y278850D01*
X393600Y279800D02*
X392600Y279800D01*
X392600Y280750D02*
X393600Y280750D01*
X393600Y281700D02*
X392600Y281700D01*
X392600Y282650D02*
X393600Y282650D01*
X393600Y283600D02*
X392600Y283600D01*
X392600Y284550D02*
X393600Y284550D01*
X397600Y284700D02*
X397600Y276950D01*
X396600Y276950D01*
X396600Y284700D01*
X397600Y284700D01*
X397600Y277900D02*
X396600Y277900D01*
X396600Y278850D02*
X397600Y278850D01*
X397600Y279800D02*
X396600Y279800D01*
X396600Y280750D02*
X397600Y280750D01*
X397600Y281700D02*
X396600Y281700D01*
X396600Y282650D02*
X397600Y282650D01*
X397600Y283600D02*
X396600Y283600D01*
X396600Y284550D02*
X397600Y284550D01*
X401600Y284700D02*
X401600Y276950D01*
X400600Y276950D01*
X400600Y284700D01*
X401600Y284700D01*
X401600Y277900D02*
X400600Y277900D01*
X400600Y278850D02*
X401600Y278850D01*
X401600Y279800D02*
X400600Y279800D01*
X400600Y280750D02*
X401600Y280750D01*
X401600Y281700D02*
X400600Y281700D01*
X400600Y282650D02*
X401600Y282650D01*
X401600Y283600D02*
X400600Y283600D01*
X400600Y284550D02*
X401600Y284550D01*
X405600Y284700D02*
X405600Y276950D01*
X404600Y276950D01*
X404600Y284700D01*
X405600Y284700D01*
X405600Y277900D02*
X404600Y277900D01*
X404600Y278850D02*
X405600Y278850D01*
X405600Y279800D02*
X404600Y279800D01*
X404600Y280750D02*
X405600Y280750D01*
X405600Y281700D02*
X404600Y281700D01*
X404600Y282650D02*
X405600Y282650D01*
X405600Y283600D02*
X404600Y283600D01*
X404600Y284550D02*
X405600Y284550D01*
X409600Y284700D02*
X409600Y276950D01*
X408600Y276950D01*
X408600Y284700D01*
X409600Y284700D01*
X409600Y277900D02*
X408600Y277900D01*
X408600Y278850D02*
X409600Y278850D01*
X409600Y279800D02*
X408600Y279800D01*
X408600Y280750D02*
X409600Y280750D01*
X409600Y281700D02*
X408600Y281700D01*
X408600Y282650D02*
X409600Y282650D01*
X409600Y283600D02*
X408600Y283600D01*
X408600Y284550D02*
X409600Y284550D01*
X413600Y284700D02*
X413600Y276950D01*
X412600Y276950D01*
X412600Y284700D01*
X413600Y284700D01*
X413600Y277900D02*
X412600Y277900D01*
X412600Y278850D02*
X413600Y278850D01*
X413600Y279800D02*
X412600Y279800D01*
X412600Y280750D02*
X413600Y280750D01*
X413600Y281700D02*
X412600Y281700D01*
X412600Y282650D02*
X413600Y282650D01*
X413600Y283600D02*
X412600Y283600D01*
X412600Y284550D02*
X413600Y284550D01*
X417600Y289700D02*
X425350Y289700D01*
X425350Y288700D01*
X417600Y288700D01*
X417600Y289700D01*
X417600Y289650D02*
X425350Y289650D01*
X425350Y293700D02*
X417600Y293700D01*
X425350Y293700D02*
X425350Y292700D01*
X417600Y292700D01*
X417600Y293700D01*
X417600Y293650D02*
X425350Y293650D01*
X425350Y297700D02*
X417600Y297700D01*
X425350Y297700D02*
X425350Y296700D01*
X417600Y296700D01*
X417600Y297700D01*
X417600Y297650D02*
X425350Y297650D01*
X425350Y301700D02*
X417600Y301700D01*
X425350Y301700D02*
X425350Y300700D01*
X417600Y300700D01*
X417600Y301700D01*
X417600Y301650D02*
X425350Y301650D01*
X425350Y305700D02*
X417600Y305700D01*
X425350Y305700D02*
X425350Y304700D01*
X417600Y304700D01*
X417600Y305700D01*
X417600Y305650D02*
X425350Y305650D01*
X425350Y309700D02*
X417600Y309700D01*
X425350Y309700D02*
X425350Y308700D01*
X417600Y308700D01*
X417600Y309700D01*
X417600Y309650D02*
X425350Y309650D01*
X425350Y313700D02*
X417600Y313700D01*
X425350Y313700D02*
X425350Y312700D01*
X417600Y312700D01*
X417600Y313700D01*
X417600Y313650D02*
X425350Y313650D01*
X425350Y317700D02*
X417600Y317700D01*
X425350Y317700D02*
X425350Y316700D01*
X417600Y316700D01*
X417600Y317700D01*
X417600Y317650D02*
X425350Y317650D01*
X425350Y321700D02*
X417600Y321700D01*
X425350Y321700D02*
X425350Y320700D01*
X417600Y320700D01*
X417600Y321700D01*
X417600Y321650D02*
X425350Y321650D01*
X425350Y325700D02*
X417600Y325700D01*
X425350Y325700D02*
X425350Y324700D01*
X417600Y324700D01*
X417600Y325700D01*
X417600Y325650D02*
X425350Y325650D01*
X425350Y329700D02*
X417600Y329700D01*
X425350Y329700D02*
X425350Y328700D01*
X417600Y328700D01*
X417600Y329700D01*
X417600Y329650D02*
X425350Y329650D01*
X425350Y333700D02*
X417600Y333700D01*
X425350Y333700D02*
X425350Y332700D01*
X417600Y332700D01*
X417600Y333700D01*
X417600Y333650D02*
X425350Y333650D01*
X425350Y337700D02*
X417600Y337700D01*
X425350Y337700D02*
X425350Y336700D01*
X417600Y336700D01*
X417600Y337700D01*
X417600Y337650D02*
X425350Y337650D01*
X425350Y341700D02*
X417600Y341700D01*
X425350Y341700D02*
X425350Y340700D01*
X417600Y340700D01*
X417600Y341700D01*
X417600Y341650D02*
X425350Y341650D01*
X412600Y345700D02*
X412600Y353450D01*
X413600Y353450D01*
X413600Y345700D01*
X412600Y345700D01*
X412600Y346650D02*
X413600Y346650D01*
X413600Y347600D02*
X412600Y347600D01*
X412600Y348550D02*
X413600Y348550D01*
X413600Y349500D02*
X412600Y349500D01*
X412600Y350450D02*
X413600Y350450D01*
X413600Y351400D02*
X412600Y351400D01*
X412600Y352350D02*
X413600Y352350D01*
X413600Y353300D02*
X412600Y353300D01*
X408600Y353450D02*
X408600Y345700D01*
X408600Y353450D02*
X409600Y353450D01*
X409600Y345700D01*
X408600Y345700D01*
X408600Y346650D02*
X409600Y346650D01*
X409600Y347600D02*
X408600Y347600D01*
X408600Y348550D02*
X409600Y348550D01*
X409600Y349500D02*
X408600Y349500D01*
X408600Y350450D02*
X409600Y350450D01*
X409600Y351400D02*
X408600Y351400D01*
X408600Y352350D02*
X409600Y352350D01*
X409600Y353300D02*
X408600Y353300D01*
X404600Y353450D02*
X404600Y345700D01*
X404600Y353450D02*
X405600Y353450D01*
X405600Y345700D01*
X404600Y345700D01*
X404600Y346650D02*
X405600Y346650D01*
X405600Y347600D02*
X404600Y347600D01*
X404600Y348550D02*
X405600Y348550D01*
X405600Y349500D02*
X404600Y349500D01*
X404600Y350450D02*
X405600Y350450D01*
X405600Y351400D02*
X404600Y351400D01*
X404600Y352350D02*
X405600Y352350D01*
X405600Y353300D02*
X404600Y353300D01*
X400600Y353450D02*
X400600Y345700D01*
X400600Y353450D02*
X401600Y353450D01*
X401600Y345700D01*
X400600Y345700D01*
X400600Y346650D02*
X401600Y346650D01*
X401600Y347600D02*
X400600Y347600D01*
X400600Y348550D02*
X401600Y348550D01*
X401600Y349500D02*
X400600Y349500D01*
X400600Y350450D02*
X401600Y350450D01*
X401600Y351400D02*
X400600Y351400D01*
X400600Y352350D02*
X401600Y352350D01*
X401600Y353300D02*
X400600Y353300D01*
X396600Y353450D02*
X396600Y345700D01*
X396600Y353450D02*
X397600Y353450D01*
X397600Y345700D01*
X396600Y345700D01*
X396600Y346650D02*
X397600Y346650D01*
X397600Y347600D02*
X396600Y347600D01*
X396600Y348550D02*
X397600Y348550D01*
X397600Y349500D02*
X396600Y349500D01*
X396600Y350450D02*
X397600Y350450D01*
X397600Y351400D02*
X396600Y351400D01*
X396600Y352350D02*
X397600Y352350D01*
X397600Y353300D02*
X396600Y353300D01*
X392600Y353450D02*
X392600Y345700D01*
X392600Y353450D02*
X393600Y353450D01*
X393600Y345700D01*
X392600Y345700D01*
X392600Y346650D02*
X393600Y346650D01*
X393600Y347600D02*
X392600Y347600D01*
X392600Y348550D02*
X393600Y348550D01*
X393600Y349500D02*
X392600Y349500D01*
X392600Y350450D02*
X393600Y350450D01*
X393600Y351400D02*
X392600Y351400D01*
X392600Y352350D02*
X393600Y352350D01*
X393600Y353300D02*
X392600Y353300D01*
X388600Y353450D02*
X388600Y345700D01*
X388600Y353450D02*
X389600Y353450D01*
X389600Y345700D01*
X388600Y345700D01*
X388600Y346650D02*
X389600Y346650D01*
X389600Y347600D02*
X388600Y347600D01*
X388600Y348550D02*
X389600Y348550D01*
X389600Y349500D02*
X388600Y349500D01*
X388600Y350450D02*
X389600Y350450D01*
X389600Y351400D02*
X388600Y351400D01*
X388600Y352350D02*
X389600Y352350D01*
X389600Y353300D02*
X388600Y353300D01*
X384600Y353450D02*
X384600Y345700D01*
X384600Y353450D02*
X385600Y353450D01*
X385600Y345700D01*
X384600Y345700D01*
X384600Y346650D02*
X385600Y346650D01*
X385600Y347600D02*
X384600Y347600D01*
X384600Y348550D02*
X385600Y348550D01*
X385600Y349500D02*
X384600Y349500D01*
X384600Y350450D02*
X385600Y350450D01*
X385600Y351400D02*
X384600Y351400D01*
X384600Y352350D02*
X385600Y352350D01*
X385600Y353300D02*
X384600Y353300D01*
X380600Y353450D02*
X380600Y345700D01*
X380600Y353450D02*
X381600Y353450D01*
X381600Y345700D01*
X380600Y345700D01*
X380600Y346650D02*
X381600Y346650D01*
X381600Y347600D02*
X380600Y347600D01*
X380600Y348550D02*
X381600Y348550D01*
X381600Y349500D02*
X380600Y349500D01*
X380600Y350450D02*
X381600Y350450D01*
X381600Y351400D02*
X380600Y351400D01*
X380600Y352350D02*
X381600Y352350D01*
X381600Y353300D02*
X380600Y353300D01*
X376600Y353450D02*
X376600Y345700D01*
X376600Y353450D02*
X377600Y353450D01*
X377600Y345700D01*
X376600Y345700D01*
X376600Y346650D02*
X377600Y346650D01*
X377600Y347600D02*
X376600Y347600D01*
X376600Y348550D02*
X377600Y348550D01*
X377600Y349500D02*
X376600Y349500D01*
X376600Y350450D02*
X377600Y350450D01*
X377600Y351400D02*
X376600Y351400D01*
X376600Y352350D02*
X377600Y352350D01*
X377600Y353300D02*
X376600Y353300D01*
X372600Y353450D02*
X372600Y345700D01*
X372600Y353450D02*
X373600Y353450D01*
X373600Y345700D01*
X372600Y345700D01*
X372600Y346650D02*
X373600Y346650D01*
X373600Y347600D02*
X372600Y347600D01*
X372600Y348550D02*
X373600Y348550D01*
X373600Y349500D02*
X372600Y349500D01*
X372600Y350450D02*
X373600Y350450D01*
X373600Y351400D02*
X372600Y351400D01*
X372600Y352350D02*
X373600Y352350D01*
X373600Y353300D02*
X372600Y353300D01*
X368600Y353450D02*
X368600Y345700D01*
X368600Y353450D02*
X369600Y353450D01*
X369600Y345700D01*
X368600Y345700D01*
X368600Y346650D02*
X369600Y346650D01*
X369600Y347600D02*
X368600Y347600D01*
X368600Y348550D02*
X369600Y348550D01*
X369600Y349500D02*
X368600Y349500D01*
X368600Y350450D02*
X369600Y350450D01*
X369600Y351400D02*
X368600Y351400D01*
X368600Y352350D02*
X369600Y352350D01*
X369600Y353300D02*
X368600Y353300D01*
X364600Y353450D02*
X364600Y345700D01*
X364600Y353450D02*
X365600Y353450D01*
X365600Y345700D01*
X364600Y345700D01*
X364600Y346650D02*
X365600Y346650D01*
X365600Y347600D02*
X364600Y347600D01*
X364600Y348550D02*
X365600Y348550D01*
X365600Y349500D02*
X364600Y349500D01*
X364600Y350450D02*
X365600Y350450D01*
X365600Y351400D02*
X364600Y351400D01*
X364600Y352350D02*
X365600Y352350D01*
X365600Y353300D02*
X364600Y353300D01*
X360600Y353450D02*
X360600Y345700D01*
X360600Y353450D02*
X361600Y353450D01*
X361600Y345700D01*
X360600Y345700D01*
X360600Y346650D02*
X361600Y346650D01*
X361600Y347600D02*
X360600Y347600D01*
X360600Y348550D02*
X361600Y348550D01*
X361600Y349500D02*
X360600Y349500D01*
X360600Y350450D02*
X361600Y350450D01*
X361600Y351400D02*
X360600Y351400D01*
X360600Y352350D02*
X361600Y352350D01*
X361600Y353300D02*
X360600Y353300D01*
D22*
X674275Y108200D03*
X662525Y111075D03*
X662525Y105325D03*
D23*
X668400Y104325D03*
X668400Y112075D03*
D24*
X239500Y257425D03*
D25*
X238875Y249300D03*
X238875Y244300D03*
X238875Y239300D03*
X238875Y234300D03*
D24*
X239500Y226175D03*
X244500Y226175D03*
X249500Y226175D03*
X254500Y226175D03*
X259500Y226175D03*
X264500Y226175D03*
X269500Y226175D03*
X274500Y226175D03*
X279500Y226175D03*
X284500Y226175D03*
D25*
X285125Y234300D03*
X285125Y239300D03*
X285125Y244300D03*
X285125Y249300D03*
D24*
X284500Y257425D03*
X279500Y257425D03*
X274500Y257425D03*
X269500Y257425D03*
X264500Y257425D03*
X259500Y257425D03*
X254500Y257425D03*
X249500Y257425D03*
X244500Y257425D03*
D26*
X194640Y423344D03*
X194640Y405056D03*
X214960Y414200D03*
D27*
X475200Y389500D03*
D28*
X461175Y361275D02*
X459225Y361275D01*
X459225Y370325D01*
X461175Y370325D01*
X461175Y361275D01*
X461175Y361892D02*
X459225Y361892D01*
X459225Y362509D02*
X461175Y362509D01*
X461175Y363126D02*
X459225Y363126D01*
X459225Y363743D02*
X461175Y363743D01*
X461175Y364360D02*
X459225Y364360D01*
X459225Y364977D02*
X461175Y364977D01*
X461175Y365594D02*
X459225Y365594D01*
X459225Y366211D02*
X461175Y366211D01*
X461175Y366828D02*
X459225Y366828D01*
X459225Y367445D02*
X461175Y367445D01*
X461175Y368062D02*
X459225Y368062D01*
X459225Y368679D02*
X461175Y368679D01*
X461175Y369296D02*
X459225Y369296D01*
X459225Y369913D02*
X461175Y369913D01*
X464225Y361275D02*
X466175Y361275D01*
X464225Y361275D02*
X464225Y370325D01*
X466175Y370325D01*
X466175Y361275D01*
X466175Y361892D02*
X464225Y361892D01*
X464225Y362509D02*
X466175Y362509D01*
X466175Y363126D02*
X464225Y363126D01*
X464225Y363743D02*
X466175Y363743D01*
X466175Y364360D02*
X464225Y364360D01*
X464225Y364977D02*
X466175Y364977D01*
X466175Y365594D02*
X464225Y365594D01*
X464225Y366211D02*
X466175Y366211D01*
X466175Y366828D02*
X464225Y366828D01*
X464225Y367445D02*
X466175Y367445D01*
X466175Y368062D02*
X464225Y368062D01*
X464225Y368679D02*
X466175Y368679D01*
X466175Y369296D02*
X464225Y369296D01*
X464225Y369913D02*
X466175Y369913D01*
X469225Y361275D02*
X471175Y361275D01*
X469225Y361275D02*
X469225Y370325D01*
X471175Y370325D01*
X471175Y361275D01*
X471175Y361892D02*
X469225Y361892D01*
X469225Y362509D02*
X471175Y362509D01*
X471175Y363126D02*
X469225Y363126D01*
X469225Y363743D02*
X471175Y363743D01*
X471175Y364360D02*
X469225Y364360D01*
X469225Y364977D02*
X471175Y364977D01*
X471175Y365594D02*
X469225Y365594D01*
X469225Y366211D02*
X471175Y366211D01*
X471175Y366828D02*
X469225Y366828D01*
X469225Y367445D02*
X471175Y367445D01*
X471175Y368062D02*
X469225Y368062D01*
X469225Y368679D02*
X471175Y368679D01*
X471175Y369296D02*
X469225Y369296D01*
X469225Y369913D02*
X471175Y369913D01*
X474225Y361275D02*
X476175Y361275D01*
X474225Y361275D02*
X474225Y370325D01*
X476175Y370325D01*
X476175Y361275D01*
X476175Y361892D02*
X474225Y361892D01*
X474225Y362509D02*
X476175Y362509D01*
X476175Y363126D02*
X474225Y363126D01*
X474225Y363743D02*
X476175Y363743D01*
X476175Y364360D02*
X474225Y364360D01*
X474225Y364977D02*
X476175Y364977D01*
X476175Y365594D02*
X474225Y365594D01*
X474225Y366211D02*
X476175Y366211D01*
X476175Y366828D02*
X474225Y366828D01*
X474225Y367445D02*
X476175Y367445D01*
X476175Y368062D02*
X474225Y368062D01*
X474225Y368679D02*
X476175Y368679D01*
X476175Y369296D02*
X474225Y369296D01*
X474225Y369913D02*
X476175Y369913D01*
X479225Y361275D02*
X481175Y361275D01*
X479225Y361275D02*
X479225Y370325D01*
X481175Y370325D01*
X481175Y361275D01*
X481175Y361892D02*
X479225Y361892D01*
X479225Y362509D02*
X481175Y362509D01*
X481175Y363126D02*
X479225Y363126D01*
X479225Y363743D02*
X481175Y363743D01*
X481175Y364360D02*
X479225Y364360D01*
X479225Y364977D02*
X481175Y364977D01*
X481175Y365594D02*
X479225Y365594D01*
X479225Y366211D02*
X481175Y366211D01*
X481175Y366828D02*
X479225Y366828D01*
X479225Y367445D02*
X481175Y367445D01*
X481175Y368062D02*
X479225Y368062D01*
X479225Y368679D02*
X481175Y368679D01*
X481175Y369296D02*
X479225Y369296D01*
X479225Y369913D02*
X481175Y369913D01*
X484225Y361275D02*
X486175Y361275D01*
X484225Y361275D02*
X484225Y370325D01*
X486175Y370325D01*
X486175Y361275D01*
X486175Y361892D02*
X484225Y361892D01*
X484225Y362509D02*
X486175Y362509D01*
X486175Y363126D02*
X484225Y363126D01*
X484225Y363743D02*
X486175Y363743D01*
X486175Y364360D02*
X484225Y364360D01*
X484225Y364977D02*
X486175Y364977D01*
X486175Y365594D02*
X484225Y365594D01*
X484225Y366211D02*
X486175Y366211D01*
X486175Y366828D02*
X484225Y366828D01*
X484225Y367445D02*
X486175Y367445D01*
X486175Y368062D02*
X484225Y368062D01*
X484225Y368679D02*
X486175Y368679D01*
X486175Y369296D02*
X484225Y369296D01*
X484225Y369913D02*
X486175Y369913D01*
X489225Y361275D02*
X491175Y361275D01*
X489225Y361275D02*
X489225Y370325D01*
X491175Y370325D01*
X491175Y361275D01*
X491175Y361892D02*
X489225Y361892D01*
X489225Y362509D02*
X491175Y362509D01*
X491175Y363126D02*
X489225Y363126D01*
X489225Y363743D02*
X491175Y363743D01*
X491175Y364360D02*
X489225Y364360D01*
X489225Y364977D02*
X491175Y364977D01*
X491175Y365594D02*
X489225Y365594D01*
X489225Y366211D02*
X491175Y366211D01*
X491175Y366828D02*
X489225Y366828D01*
X489225Y367445D02*
X491175Y367445D01*
X491175Y368062D02*
X489225Y368062D01*
X489225Y368679D02*
X491175Y368679D01*
X491175Y369296D02*
X489225Y369296D01*
X489225Y369913D02*
X491175Y369913D01*
X491175Y408675D02*
X489225Y408675D01*
X489225Y417725D01*
X491175Y417725D01*
X491175Y408675D01*
X491175Y409292D02*
X489225Y409292D01*
X489225Y409909D02*
X491175Y409909D01*
X491175Y410526D02*
X489225Y410526D01*
X489225Y411143D02*
X491175Y411143D01*
X491175Y411760D02*
X489225Y411760D01*
X489225Y412377D02*
X491175Y412377D01*
X491175Y412994D02*
X489225Y412994D01*
X489225Y413611D02*
X491175Y413611D01*
X491175Y414228D02*
X489225Y414228D01*
X489225Y414845D02*
X491175Y414845D01*
X491175Y415462D02*
X489225Y415462D01*
X489225Y416079D02*
X491175Y416079D01*
X491175Y416696D02*
X489225Y416696D01*
X489225Y417313D02*
X491175Y417313D01*
X486175Y408675D02*
X484225Y408675D01*
X484225Y417725D01*
X486175Y417725D01*
X486175Y408675D01*
X486175Y409292D02*
X484225Y409292D01*
X484225Y409909D02*
X486175Y409909D01*
X486175Y410526D02*
X484225Y410526D01*
X484225Y411143D02*
X486175Y411143D01*
X486175Y411760D02*
X484225Y411760D01*
X484225Y412377D02*
X486175Y412377D01*
X486175Y412994D02*
X484225Y412994D01*
X484225Y413611D02*
X486175Y413611D01*
X486175Y414228D02*
X484225Y414228D01*
X484225Y414845D02*
X486175Y414845D01*
X486175Y415462D02*
X484225Y415462D01*
X484225Y416079D02*
X486175Y416079D01*
X486175Y416696D02*
X484225Y416696D01*
X484225Y417313D02*
X486175Y417313D01*
X481175Y408675D02*
X479225Y408675D01*
X479225Y417725D01*
X481175Y417725D01*
X481175Y408675D01*
X481175Y409292D02*
X479225Y409292D01*
X479225Y409909D02*
X481175Y409909D01*
X481175Y410526D02*
X479225Y410526D01*
X479225Y411143D02*
X481175Y411143D01*
X481175Y411760D02*
X479225Y411760D01*
X479225Y412377D02*
X481175Y412377D01*
X481175Y412994D02*
X479225Y412994D01*
X479225Y413611D02*
X481175Y413611D01*
X481175Y414228D02*
X479225Y414228D01*
X479225Y414845D02*
X481175Y414845D01*
X481175Y415462D02*
X479225Y415462D01*
X479225Y416079D02*
X481175Y416079D01*
X481175Y416696D02*
X479225Y416696D01*
X479225Y417313D02*
X481175Y417313D01*
X476175Y408675D02*
X474225Y408675D01*
X474225Y417725D01*
X476175Y417725D01*
X476175Y408675D01*
X476175Y409292D02*
X474225Y409292D01*
X474225Y409909D02*
X476175Y409909D01*
X476175Y410526D02*
X474225Y410526D01*
X474225Y411143D02*
X476175Y411143D01*
X476175Y411760D02*
X474225Y411760D01*
X474225Y412377D02*
X476175Y412377D01*
X476175Y412994D02*
X474225Y412994D01*
X474225Y413611D02*
X476175Y413611D01*
X476175Y414228D02*
X474225Y414228D01*
X474225Y414845D02*
X476175Y414845D01*
X476175Y415462D02*
X474225Y415462D01*
X474225Y416079D02*
X476175Y416079D01*
X476175Y416696D02*
X474225Y416696D01*
X474225Y417313D02*
X476175Y417313D01*
X471175Y408675D02*
X469225Y408675D01*
X469225Y417725D01*
X471175Y417725D01*
X471175Y408675D01*
X471175Y409292D02*
X469225Y409292D01*
X469225Y409909D02*
X471175Y409909D01*
X471175Y410526D02*
X469225Y410526D01*
X469225Y411143D02*
X471175Y411143D01*
X471175Y411760D02*
X469225Y411760D01*
X469225Y412377D02*
X471175Y412377D01*
X471175Y412994D02*
X469225Y412994D01*
X469225Y413611D02*
X471175Y413611D01*
X471175Y414228D02*
X469225Y414228D01*
X469225Y414845D02*
X471175Y414845D01*
X471175Y415462D02*
X469225Y415462D01*
X469225Y416079D02*
X471175Y416079D01*
X471175Y416696D02*
X469225Y416696D01*
X469225Y417313D02*
X471175Y417313D01*
X466175Y408675D02*
X464225Y408675D01*
X464225Y417725D01*
X466175Y417725D01*
X466175Y408675D01*
X466175Y409292D02*
X464225Y409292D01*
X464225Y409909D02*
X466175Y409909D01*
X466175Y410526D02*
X464225Y410526D01*
X464225Y411143D02*
X466175Y411143D01*
X466175Y411760D02*
X464225Y411760D01*
X464225Y412377D02*
X466175Y412377D01*
X466175Y412994D02*
X464225Y412994D01*
X464225Y413611D02*
X466175Y413611D01*
X466175Y414228D02*
X464225Y414228D01*
X464225Y414845D02*
X466175Y414845D01*
X466175Y415462D02*
X464225Y415462D01*
X464225Y416079D02*
X466175Y416079D01*
X466175Y416696D02*
X464225Y416696D01*
X464225Y417313D02*
X466175Y417313D01*
X461175Y408675D02*
X459225Y408675D01*
X459225Y417725D01*
X461175Y417725D01*
X461175Y408675D01*
X461175Y409292D02*
X459225Y409292D01*
X459225Y409909D02*
X461175Y409909D01*
X461175Y410526D02*
X459225Y410526D01*
X459225Y411143D02*
X461175Y411143D01*
X461175Y411760D02*
X459225Y411760D01*
X459225Y412377D02*
X461175Y412377D01*
X461175Y412994D02*
X459225Y412994D01*
X459225Y413611D02*
X461175Y413611D01*
X461175Y414228D02*
X459225Y414228D01*
X459225Y414845D02*
X461175Y414845D01*
X461175Y415462D02*
X459225Y415462D01*
X459225Y416079D02*
X461175Y416079D01*
X461175Y416696D02*
X459225Y416696D01*
X459225Y417313D02*
X461175Y417313D01*
X456025Y403525D02*
X446975Y403525D01*
X446975Y405475D01*
X456025Y405475D01*
X456025Y403525D01*
X456025Y404142D02*
X446975Y404142D01*
X446975Y404759D02*
X456025Y404759D01*
X456025Y405376D02*
X446975Y405376D01*
X446975Y398525D02*
X456025Y398525D01*
X446975Y398525D02*
X446975Y400475D01*
X456025Y400475D01*
X456025Y398525D01*
X456025Y399142D02*
X446975Y399142D01*
X446975Y399759D02*
X456025Y399759D01*
X456025Y400376D02*
X446975Y400376D01*
X446975Y393525D02*
X456025Y393525D01*
X446975Y393525D02*
X446975Y395475D01*
X456025Y395475D01*
X456025Y393525D01*
X456025Y394142D02*
X446975Y394142D01*
X446975Y394759D02*
X456025Y394759D01*
X456025Y395376D02*
X446975Y395376D01*
X446975Y388525D02*
X456025Y388525D01*
X446975Y388525D02*
X446975Y390475D01*
X456025Y390475D01*
X456025Y388525D01*
X456025Y389142D02*
X446975Y389142D01*
X446975Y389759D02*
X456025Y389759D01*
X456025Y390376D02*
X446975Y390376D01*
X446975Y383525D02*
X456025Y383525D01*
X446975Y383525D02*
X446975Y385475D01*
X456025Y385475D01*
X456025Y383525D01*
X456025Y384142D02*
X446975Y384142D01*
X446975Y384759D02*
X456025Y384759D01*
X456025Y385376D02*
X446975Y385376D01*
X446975Y378525D02*
X456025Y378525D01*
X446975Y378525D02*
X446975Y380475D01*
X456025Y380475D01*
X456025Y378525D01*
X456025Y379142D02*
X446975Y379142D01*
X446975Y379759D02*
X456025Y379759D01*
X456025Y380376D02*
X446975Y380376D01*
X446975Y373525D02*
X456025Y373525D01*
X446975Y373525D02*
X446975Y375475D01*
X456025Y375475D01*
X456025Y373525D01*
X456025Y374142D02*
X446975Y374142D01*
X446975Y374759D02*
X456025Y374759D01*
X456025Y375376D02*
X446975Y375376D01*
X494375Y373525D02*
X503425Y373525D01*
X494375Y373525D02*
X494375Y375475D01*
X503425Y375475D01*
X503425Y373525D01*
X503425Y374142D02*
X494375Y374142D01*
X494375Y374759D02*
X503425Y374759D01*
X503425Y375376D02*
X494375Y375376D01*
X494375Y378525D02*
X503425Y378525D01*
X494375Y378525D02*
X494375Y380475D01*
X503425Y380475D01*
X503425Y378525D01*
X503425Y379142D02*
X494375Y379142D01*
X494375Y379759D02*
X503425Y379759D01*
X503425Y380376D02*
X494375Y380376D01*
X494375Y383525D02*
X503425Y383525D01*
X494375Y383525D02*
X494375Y385475D01*
X503425Y385475D01*
X503425Y383525D01*
X503425Y384142D02*
X494375Y384142D01*
X494375Y384759D02*
X503425Y384759D01*
X503425Y385376D02*
X494375Y385376D01*
X494375Y388525D02*
X503425Y388525D01*
X494375Y388525D02*
X494375Y390475D01*
X503425Y390475D01*
X503425Y388525D01*
X503425Y389142D02*
X494375Y389142D01*
X494375Y389759D02*
X503425Y389759D01*
X503425Y390376D02*
X494375Y390376D01*
X494375Y393525D02*
X503425Y393525D01*
X494375Y393525D02*
X494375Y395475D01*
X503425Y395475D01*
X503425Y393525D01*
X503425Y394142D02*
X494375Y394142D01*
X494375Y394759D02*
X503425Y394759D01*
X503425Y395376D02*
X494375Y395376D01*
X494375Y398525D02*
X503425Y398525D01*
X494375Y398525D02*
X494375Y400475D01*
X503425Y400475D01*
X503425Y398525D01*
X503425Y399142D02*
X494375Y399142D01*
X494375Y399759D02*
X503425Y399759D01*
X503425Y400376D02*
X494375Y400376D01*
X494375Y403525D02*
X503425Y403525D01*
X494375Y403525D02*
X494375Y405475D01*
X503425Y405475D01*
X503425Y403525D01*
X503425Y404142D02*
X494375Y404142D01*
X494375Y404759D02*
X503425Y404759D01*
X503425Y405376D02*
X494375Y405376D01*
D29*
X120500Y310750D02*
X106500Y310750D01*
X106500Y312850D01*
X120500Y312850D01*
X120500Y310750D01*
X120500Y311415D02*
X106500Y311415D01*
X106500Y312080D02*
X120500Y312080D01*
X120500Y312745D02*
X106500Y312745D01*
X106500Y305750D02*
X120500Y305750D01*
X106500Y305750D02*
X106500Y307850D01*
X120500Y307850D01*
X120500Y305750D01*
X120500Y306415D02*
X106500Y306415D01*
X106500Y307080D02*
X120500Y307080D01*
X120500Y307745D02*
X106500Y307745D01*
X106500Y300750D02*
X120500Y300750D01*
X106500Y300750D02*
X106500Y302850D01*
X120500Y302850D01*
X120500Y300750D01*
X120500Y301415D02*
X106500Y301415D01*
X106500Y302080D02*
X120500Y302080D01*
X120500Y302745D02*
X106500Y302745D01*
X106500Y295750D02*
X120500Y295750D01*
X106500Y295750D02*
X106500Y297850D01*
X120500Y297850D01*
X120500Y295750D01*
X120500Y296415D02*
X106500Y296415D01*
X106500Y297080D02*
X120500Y297080D01*
X120500Y297745D02*
X106500Y297745D01*
X106500Y290750D02*
X120500Y290750D01*
X106500Y290750D02*
X106500Y292850D01*
X120500Y292850D01*
X120500Y290750D01*
X120500Y291415D02*
X106500Y291415D01*
X106500Y292080D02*
X120500Y292080D01*
X120500Y292745D02*
X106500Y292745D01*
X149500Y290750D02*
X163500Y290750D01*
X149500Y290750D02*
X149500Y292850D01*
X163500Y292850D01*
X163500Y290750D01*
X163500Y291415D02*
X149500Y291415D01*
X149500Y292080D02*
X163500Y292080D01*
X163500Y292745D02*
X149500Y292745D01*
X149500Y295750D02*
X163500Y295750D01*
X149500Y295750D02*
X149500Y297850D01*
X163500Y297850D01*
X163500Y295750D01*
X163500Y296415D02*
X149500Y296415D01*
X149500Y297080D02*
X163500Y297080D01*
X163500Y297745D02*
X149500Y297745D01*
X149500Y300750D02*
X163500Y300750D01*
X149500Y300750D02*
X149500Y302850D01*
X163500Y302850D01*
X163500Y300750D01*
X163500Y301415D02*
X149500Y301415D01*
X149500Y302080D02*
X163500Y302080D01*
X163500Y302745D02*
X149500Y302745D01*
X149500Y305750D02*
X163500Y305750D01*
X149500Y305750D02*
X149500Y307850D01*
X163500Y307850D01*
X163500Y305750D01*
X163500Y306415D02*
X149500Y306415D01*
X149500Y307080D02*
X163500Y307080D01*
X163500Y307745D02*
X149500Y307745D01*
X149500Y310750D02*
X163500Y310750D01*
X149500Y310750D02*
X149500Y312850D01*
X163500Y312850D01*
X163500Y310750D01*
X163500Y311415D02*
X149500Y311415D01*
X149500Y312080D02*
X163500Y312080D01*
X163500Y312745D02*
X149500Y312745D01*
X120500Y376750D02*
X106500Y376750D01*
X106500Y378850D01*
X120500Y378850D01*
X120500Y376750D01*
X120500Y377415D02*
X106500Y377415D01*
X106500Y378080D02*
X120500Y378080D01*
X120500Y378745D02*
X106500Y378745D01*
X106500Y371750D02*
X120500Y371750D01*
X106500Y371750D02*
X106500Y373850D01*
X120500Y373850D01*
X120500Y371750D01*
X120500Y372415D02*
X106500Y372415D01*
X106500Y373080D02*
X120500Y373080D01*
X120500Y373745D02*
X106500Y373745D01*
X106500Y366750D02*
X120500Y366750D01*
X106500Y366750D02*
X106500Y368850D01*
X120500Y368850D01*
X120500Y366750D01*
X120500Y367415D02*
X106500Y367415D01*
X106500Y368080D02*
X120500Y368080D01*
X120500Y368745D02*
X106500Y368745D01*
X106500Y361750D02*
X120500Y361750D01*
X106500Y361750D02*
X106500Y363850D01*
X120500Y363850D01*
X120500Y361750D01*
X120500Y362415D02*
X106500Y362415D01*
X106500Y363080D02*
X120500Y363080D01*
X120500Y363745D02*
X106500Y363745D01*
X106500Y356750D02*
X120500Y356750D01*
X106500Y356750D02*
X106500Y358850D01*
X120500Y358850D01*
X120500Y356750D01*
X120500Y357415D02*
X106500Y357415D01*
X106500Y358080D02*
X120500Y358080D01*
X120500Y358745D02*
X106500Y358745D01*
X149500Y356750D02*
X163500Y356750D01*
X149500Y356750D02*
X149500Y358850D01*
X163500Y358850D01*
X163500Y356750D01*
X163500Y357415D02*
X149500Y357415D01*
X149500Y358080D02*
X163500Y358080D01*
X163500Y358745D02*
X149500Y358745D01*
X149500Y361750D02*
X163500Y361750D01*
X149500Y361750D02*
X149500Y363850D01*
X163500Y363850D01*
X163500Y361750D01*
X163500Y362415D02*
X149500Y362415D01*
X149500Y363080D02*
X163500Y363080D01*
X163500Y363745D02*
X149500Y363745D01*
X149500Y366750D02*
X163500Y366750D01*
X149500Y366750D02*
X149500Y368850D01*
X163500Y368850D01*
X163500Y366750D01*
X163500Y367415D02*
X149500Y367415D01*
X149500Y368080D02*
X163500Y368080D01*
X163500Y368745D02*
X149500Y368745D01*
X149500Y371750D02*
X163500Y371750D01*
X149500Y371750D02*
X149500Y373850D01*
X163500Y373850D01*
X163500Y371750D01*
X163500Y372415D02*
X149500Y372415D01*
X149500Y373080D02*
X163500Y373080D01*
X163500Y373745D02*
X149500Y373745D01*
X149500Y376750D02*
X163500Y376750D01*
X149500Y376750D02*
X149500Y378850D01*
X163500Y378850D01*
X163500Y376750D01*
X163500Y377415D02*
X149500Y377415D01*
X149500Y378080D02*
X163500Y378080D01*
X163500Y378745D02*
X149500Y378745D01*
D30*
X525686Y352196D03*
X548800Y352196D03*
X571914Y352196D03*
D31*
X548800Y416204D03*
D29*
X120500Y178750D02*
X106500Y178750D01*
X106500Y180850D01*
X120500Y180850D01*
X120500Y178750D01*
X120500Y179415D02*
X106500Y179415D01*
X106500Y180080D02*
X120500Y180080D01*
X120500Y180745D02*
X106500Y180745D01*
X106500Y173750D02*
X120500Y173750D01*
X106500Y173750D02*
X106500Y175850D01*
X120500Y175850D01*
X120500Y173750D01*
X120500Y174415D02*
X106500Y174415D01*
X106500Y175080D02*
X120500Y175080D01*
X120500Y175745D02*
X106500Y175745D01*
X106500Y168750D02*
X120500Y168750D01*
X106500Y168750D02*
X106500Y170850D01*
X120500Y170850D01*
X120500Y168750D01*
X120500Y169415D02*
X106500Y169415D01*
X106500Y170080D02*
X120500Y170080D01*
X120500Y170745D02*
X106500Y170745D01*
X106500Y163750D02*
X120500Y163750D01*
X106500Y163750D02*
X106500Y165850D01*
X120500Y165850D01*
X120500Y163750D01*
X120500Y164415D02*
X106500Y164415D01*
X106500Y165080D02*
X120500Y165080D01*
X120500Y165745D02*
X106500Y165745D01*
X106500Y158750D02*
X120500Y158750D01*
X106500Y158750D02*
X106500Y160850D01*
X120500Y160850D01*
X120500Y158750D01*
X120500Y159415D02*
X106500Y159415D01*
X106500Y160080D02*
X120500Y160080D01*
X120500Y160745D02*
X106500Y160745D01*
X149500Y158750D02*
X163500Y158750D01*
X149500Y158750D02*
X149500Y160850D01*
X163500Y160850D01*
X163500Y158750D01*
X163500Y159415D02*
X149500Y159415D01*
X149500Y160080D02*
X163500Y160080D01*
X163500Y160745D02*
X149500Y160745D01*
X149500Y163750D02*
X163500Y163750D01*
X149500Y163750D02*
X149500Y165850D01*
X163500Y165850D01*
X163500Y163750D01*
X163500Y164415D02*
X149500Y164415D01*
X149500Y165080D02*
X163500Y165080D01*
X163500Y165745D02*
X149500Y165745D01*
X149500Y168750D02*
X163500Y168750D01*
X149500Y168750D02*
X149500Y170850D01*
X163500Y170850D01*
X163500Y168750D01*
X163500Y169415D02*
X149500Y169415D01*
X149500Y170080D02*
X163500Y170080D01*
X163500Y170745D02*
X149500Y170745D01*
X149500Y173750D02*
X163500Y173750D01*
X149500Y173750D02*
X149500Y175850D01*
X163500Y175850D01*
X163500Y173750D01*
X163500Y174415D02*
X149500Y174415D01*
X149500Y175080D02*
X163500Y175080D01*
X163500Y175745D02*
X149500Y175745D01*
X149500Y178750D02*
X163500Y178750D01*
X149500Y178750D02*
X149500Y180850D01*
X163500Y180850D01*
X163500Y178750D01*
X163500Y179415D02*
X149500Y179415D01*
X149500Y180080D02*
X163500Y180080D01*
X163500Y180745D02*
X149500Y180745D01*
D32*
X228343Y28564D03*
X228343Y45582D03*
X228343Y62600D03*
X228343Y79618D03*
X228343Y96636D03*
D33*
X112646Y62600D03*
D29*
X106500Y244750D02*
X120500Y244750D01*
X106500Y244750D02*
X106500Y246850D01*
X120500Y246850D01*
X120500Y244750D01*
X120500Y245415D02*
X106500Y245415D01*
X106500Y246080D02*
X120500Y246080D01*
X120500Y246745D02*
X106500Y246745D01*
X106500Y239750D02*
X120500Y239750D01*
X106500Y239750D02*
X106500Y241850D01*
X120500Y241850D01*
X120500Y239750D01*
X120500Y240415D02*
X106500Y240415D01*
X106500Y241080D02*
X120500Y241080D01*
X120500Y241745D02*
X106500Y241745D01*
X106500Y234750D02*
X120500Y234750D01*
X106500Y234750D02*
X106500Y236850D01*
X120500Y236850D01*
X120500Y234750D01*
X120500Y235415D02*
X106500Y235415D01*
X106500Y236080D02*
X120500Y236080D01*
X120500Y236745D02*
X106500Y236745D01*
X106500Y229750D02*
X120500Y229750D01*
X106500Y229750D02*
X106500Y231850D01*
X120500Y231850D01*
X120500Y229750D01*
X120500Y230415D02*
X106500Y230415D01*
X106500Y231080D02*
X120500Y231080D01*
X120500Y231745D02*
X106500Y231745D01*
X106500Y224750D02*
X120500Y224750D01*
X106500Y224750D02*
X106500Y226850D01*
X120500Y226850D01*
X120500Y224750D01*
X120500Y225415D02*
X106500Y225415D01*
X106500Y226080D02*
X120500Y226080D01*
X120500Y226745D02*
X106500Y226745D01*
X149500Y224750D02*
X163500Y224750D01*
X149500Y224750D02*
X149500Y226850D01*
X163500Y226850D01*
X163500Y224750D01*
X163500Y225415D02*
X149500Y225415D01*
X149500Y226080D02*
X163500Y226080D01*
X163500Y226745D02*
X149500Y226745D01*
X149500Y229750D02*
X163500Y229750D01*
X149500Y229750D02*
X149500Y231850D01*
X163500Y231850D01*
X163500Y229750D01*
X163500Y230415D02*
X149500Y230415D01*
X149500Y231080D02*
X163500Y231080D01*
X163500Y231745D02*
X149500Y231745D01*
X149500Y234750D02*
X163500Y234750D01*
X149500Y234750D02*
X149500Y236850D01*
X163500Y236850D01*
X163500Y234750D01*
X163500Y235415D02*
X149500Y235415D01*
X149500Y236080D02*
X163500Y236080D01*
X163500Y236745D02*
X149500Y236745D01*
X149500Y239750D02*
X163500Y239750D01*
X149500Y239750D02*
X149500Y241850D01*
X163500Y241850D01*
X163500Y239750D01*
X163500Y240415D02*
X149500Y240415D01*
X149500Y241080D02*
X163500Y241080D01*
X163500Y241745D02*
X149500Y241745D01*
X149500Y244750D02*
X163500Y244750D01*
X149500Y244750D02*
X149500Y246850D01*
X163500Y246850D01*
X163500Y244750D01*
X163500Y245415D02*
X149500Y245415D01*
X149500Y246080D02*
X163500Y246080D01*
X163500Y246745D02*
X149500Y246745D01*
D34*
X415400Y438750D03*
X407400Y438750D03*
D35*
X400900Y438750D03*
X395900Y438750D03*
X390900Y438750D03*
X385900Y438750D03*
X380900Y438750D03*
X375900Y438750D03*
X370900Y438750D03*
X365900Y438750D03*
D34*
X359400Y438750D03*
X351400Y438750D03*
D36*
X392900Y239850D03*
X371900Y239850D03*
X371900Y223350D03*
X392900Y223350D03*
D37*
X239500Y277800D03*
X264500Y277800D03*
D38*
X465500Y297500D03*
X465500Y288000D03*
X465500Y278500D03*
X490500Y278500D03*
X490500Y297500D03*
D14*
X519750Y298000D03*
X504250Y298000D03*
D13*
X486000Y250250D03*
X486000Y265750D03*
X471000Y250250D03*
X471000Y265750D03*
D14*
X440750Y161000D03*
X425250Y161000D03*
D39*
X301275Y406875D02*
X286625Y406875D01*
X286625Y411225D01*
X301275Y411225D01*
X301275Y406875D01*
X301275Y408252D02*
X286625Y408252D01*
X286625Y409629D02*
X301275Y409629D01*
X301275Y411006D02*
X286625Y411006D01*
X286625Y394175D02*
X301275Y394175D01*
X286625Y394175D02*
X286625Y398525D01*
X301275Y398525D01*
X301275Y394175D01*
X301275Y395552D02*
X286625Y395552D01*
X286625Y396929D02*
X301275Y396929D01*
X301275Y398306D02*
X286625Y398306D01*
X286625Y381475D02*
X301275Y381475D01*
X286625Y381475D02*
X286625Y385825D01*
X301275Y385825D01*
X301275Y381475D01*
X301275Y382852D02*
X286625Y382852D01*
X286625Y384229D02*
X301275Y384229D01*
X301275Y385606D02*
X286625Y385606D01*
X286625Y368775D02*
X301275Y368775D01*
X286625Y368775D02*
X286625Y373125D01*
X301275Y373125D01*
X301275Y368775D01*
X301275Y370152D02*
X286625Y370152D01*
X286625Y371529D02*
X301275Y371529D01*
X301275Y372906D02*
X286625Y372906D01*
X358725Y368775D02*
X373375Y368775D01*
X358725Y368775D02*
X358725Y373125D01*
X373375Y373125D01*
X373375Y368775D01*
X373375Y370152D02*
X358725Y370152D01*
X358725Y371529D02*
X373375Y371529D01*
X373375Y372906D02*
X358725Y372906D01*
X358725Y381475D02*
X373375Y381475D01*
X358725Y381475D02*
X358725Y385825D01*
X373375Y385825D01*
X373375Y381475D01*
X373375Y382852D02*
X358725Y382852D01*
X358725Y384229D02*
X373375Y384229D01*
X373375Y385606D02*
X358725Y385606D01*
X358725Y394175D02*
X373375Y394175D01*
X358725Y394175D02*
X358725Y398525D01*
X373375Y398525D01*
X373375Y394175D01*
X373375Y395552D02*
X358725Y395552D01*
X358725Y396929D02*
X373375Y396929D01*
X373375Y398306D02*
X358725Y398306D01*
X358725Y406875D02*
X373375Y406875D01*
X358725Y406875D02*
X358725Y411225D01*
X373375Y411225D01*
X373375Y406875D01*
X373375Y408252D02*
X358725Y408252D01*
X358725Y409629D02*
X373375Y409629D01*
X373375Y411006D02*
X358725Y411006D01*
M02*
